<?xml version="1.0" encoding="UTF-8" standalone="no"?>
<!DOCTYPE svg PUBLIC "-//W3C//DTD SVG 1.1//EN" "http://www.w3.org/Graphics/SVG/1.1/DTD/svg11.dtd">
<svg width="100%" height="100%" viewBox="0 0 800 800" version="1.1" xmlns="http://www.w3.org/2000/svg" xmlns:xlink="http://www.w3.org/1999/xlink" xml:space="preserve" xmlns:serif="http://www.serif.com/" style="fill-rule:evenodd;clip-rule:evenodd;stroke-linejoin:round;stroke-miterlimit:2;">
    <g>
        <path d="M378.723,223.505C378.723,221.198 380.672,219.249 382.979,219.249L417.021,219.249C419.328,219.249 421.277,221.198 421.277,223.505L421.277,339.574L378.723,339.574L378.723,223.505Z" style="fill:rgb(165,75,255);"/>
        <path d="M88.437,485.426C102.109,488.106 110.536,495.157 120.591,503.622C127.18,509.168 134.454,515.292 143.654,520.112L143.654,599.183C143.654,620.301 160.834,637.481 181.952,637.481C203.071,637.481 220.25,620.301 220.25,599.183L220.252,520.112C229.45,515.292 236.727,509.168 243.314,503.622C256.169,492.802 266.322,484.255 288.235,484.255C310.15,484.255 320.303,492.802 333.157,503.622C347.283,515.511 363.294,528.989 394.523,528.989C425.751,528.989 441.762,515.513 455.886,503.622C468.74,492.802 478.894,484.255 500.807,484.255C522.725,484.255 532.88,492.802 545.736,503.624C559.862,515.513 575.874,528.989 607.106,528.989C638.339,528.989 654.349,515.513 668.477,503.624C678.534,495.159 686.963,488.106 700.64,485.426L700.64,714.894L88.437,714.894L88.437,485.426Z" style="fill:rgb(255,118,217);"/>
        <path d="M143.757,365.106L645.317,365.106C675.82,365.106 700.637,389.923 700.637,420.426L700.637,459.574C677.551,462.671 664.087,473.942 652.032,484.089C639.176,494.909 629.021,503.455 607.103,503.455C585.185,503.455 575.031,494.909 562.174,484.089C548.048,472.199 532.036,458.722 500.803,458.722C469.574,458.722 453.566,472.197 439.44,484.089C426.586,494.909 416.432,503.455 394.519,503.455C372.604,503.455 362.453,494.909 349.597,484.089C335.471,472.199 319.46,458.722 288.231,458.722C257.003,458.722 240.994,472.197 226.868,484.089C219.317,490.444 212.186,496.449 202.95,499.954C197.993,501.835 194.715,506.586 194.715,511.889L194.715,599.183C194.715,606.223 188.989,611.949 181.949,611.949C174.911,611.949 169.183,606.223 169.183,599.183L169.183,512.308C169.362,506.928 166.114,501.917 160.953,499.957C151.716,496.451 144.582,490.446 137.031,484.089C124.979,473.942 111.518,462.671 88.436,459.574L88.436,420.426C88.437,389.923 113.253,365.106 143.757,365.106Z" style="fill:rgb(112,192,255);"/>
        <path d="M747.93,759.178C745.644,767.18 735.981,774.468 727.66,774.468L72.34,774.468C64.017,774.468 54.356,767.18 52.07,759.178L46.711,740.426L753.289,740.426L747.93,759.178Z" style="fill:rgb(213,130,21);"/>
        <path d="M787.234,714.894L726.169,714.894L726.169,420.426C726.169,375.845 689.898,339.574 645.317,339.574L446.809,339.574L446.809,223.505C446.809,207.081 433.445,193.717 417.021,193.717L412.766,193.717L412.766,155.42C412.766,148.369 407.05,142.654 400,142.654C392.95,142.654 387.234,148.369 387.234,155.42L387.234,193.717L382.979,193.717C366.555,193.717 353.191,207.081 353.191,223.505L353.191,339.574L143.757,339.574C99.176,339.574 62.906,375.845 62.906,420.426L62.906,714.894L12.766,714.894C5.716,714.894 -0,720.609 -0,727.66C-0,734.71 5.716,740.426 12.766,740.426L20.158,740.426L27.52,766.191C32.936,785.149 52.623,800 72.34,800L727.66,800C747.377,800 767.064,785.149 772.48,766.192L779.842,740.426L787.234,740.426C794.284,740.426 800,734.71 800,727.66C800,720.609 794.284,714.894 787.234,714.894ZM378.723,223.505C378.723,221.198 380.672,219.249 382.979,219.249L417.021,219.249C419.328,219.249 421.277,221.198 421.277,223.505L421.277,339.574L378.723,339.574L378.723,223.505ZM143.757,365.106L645.317,365.106C675.82,365.106 700.637,389.923 700.637,420.426L700.637,459.574C677.551,462.671 664.087,473.942 652.032,484.089C639.176,494.909 629.021,503.455 607.103,503.455C585.185,503.455 575.031,494.909 562.174,484.089C548.048,472.199 532.036,458.722 500.803,458.722C469.574,458.722 453.566,472.197 439.44,484.089C426.586,494.909 416.432,503.455 394.519,503.455C372.604,503.455 362.453,494.909 349.597,484.089C335.471,472.199 319.46,458.722 288.231,458.722C257.003,458.722 240.994,472.197 226.868,484.089C219.317,490.444 212.186,496.449 202.95,499.954C197.993,501.835 194.715,506.586 194.715,511.889L194.715,599.183C194.715,606.223 188.989,611.949 181.949,611.949C174.911,611.949 169.183,606.223 169.183,599.183L169.183,512.308C169.362,506.928 166.114,501.917 160.953,499.957C151.716,496.451 144.582,490.446 137.031,484.089C124.979,473.942 111.518,462.671 88.436,459.574L88.436,420.426C88.437,389.923 113.253,365.106 143.757,365.106ZM88.437,485.426C102.109,488.106 110.536,495.157 120.591,503.622C127.18,509.168 134.454,515.292 143.654,520.112L143.654,599.183C143.654,620.301 160.834,637.481 181.952,637.481C203.071,637.481 220.25,620.301 220.25,599.183L220.252,520.112C229.45,515.292 236.727,509.168 243.314,503.622C256.169,492.802 266.322,484.255 288.235,484.255C310.15,484.255 320.303,492.802 333.157,503.622C347.283,515.511 363.294,528.989 394.523,528.989C425.751,528.989 441.762,515.513 455.886,503.622C468.74,492.802 478.894,484.255 500.807,484.255C522.725,484.255 532.88,492.802 545.736,503.624C559.862,515.513 575.874,528.989 607.106,528.989C638.339,528.989 654.349,515.513 668.477,503.624C678.534,495.159 686.963,488.106 700.64,485.426L700.64,714.894L88.437,714.894L88.437,485.426ZM747.93,759.178C745.644,767.18 735.981,774.468 727.66,774.468L72.34,774.468C64.017,774.468 54.356,767.18 52.07,759.178L46.711,740.426L753.289,740.426L747.93,759.178Z" style="fill-rule:nonzero;"/>
        <g transform="matrix(1.90042,0,0,1.9907,-369.902,-89.5932)">
            <ellipse cx="404.653" cy="92.317" rx="31.967" ry="33.877" style="fill:rgb(255,163,0);"/>
        </g>
        <path d="M348.94,162.633C351.966,162.633 383.074,163.904 385.508,161.73C390.767,157.034 363.154,146.625 358.46,141.365C349.348,131.161 344.332,118.029 344.332,104.385C344.332,74.489 366.969,43.278 400.002,26.849C433.035,43.277 455.671,74.487 455.671,104.385C455.671,118.029 450.654,131.161 441.544,141.365C436.848,146.623 409.306,157.695 414.566,162.389C419.822,167.084 455.891,163.629 460.587,158.369C473.881,143.481 481.202,124.31 481.202,104.385C481.202,63.134 449.913,20.647 405.113,1.067C401.854,-0.357 398.148,-0.356 394.889,1.067C350.089,20.647 318.8,63.132 318.8,104.383C318.8,124.308 326.121,143.479 339.414,158.368C341.935,161.195 345.43,162.635 348.94,162.633Z" style="fill:rgb(255,250,0);fill-rule:nonzero;"/>
        <g transform="matrix(1.99294,0,0,1.21685,-370.698,-14.173)">
            <ellipse cx="387.098" cy="102.499" rx="13.766" ry="37.141" style="fill:rgb(255,120,0);"/>
        </g>
        <g transform="matrix(16.6381,0,0,1.26439,-6257.19,-33.3868)">
            <ellipse cx="400.108" cy="123.678" rx="0.713" ry="22.789" style="fill:rgb(255,80,0);"/>
        </g>
    </g>
</svg>
