<?xml version="1.0" encoding="UTF-8"?>
<svg xmlns="http://www.w3.org/2000/svg" xmlns:xlink="http://www.w3.org/1999/xlink" viewBox="0 0 96 96" width="96px" height="96px">
<g id="surface63951215">
<path style=" stroke:none;fill-rule:nonzero;fill:rgb(6.27451%,54.11765%,92.941177%);fill-opacity:1;" d="M 80 90 L 16 90 L 16 6 L 60 6 L 80 26 Z M 80 90 "/>
<path style=" stroke:none;fill-rule:nonzero;fill:rgb(88.235295%,96.078432%,99.607843%);fill-opacity:1;" d="M 77 28 L 58 28 L 58 9 Z M 77 28 "/>
<path style=" stroke:none;fill-rule:nonzero;fill:rgb(50.196081%,64.705884%,79.215688%);fill-opacity:1;" d="M 32 42 L 66 42 L 66 46 L 32 46 Z M 32 50 L 58 50 L 58 54 L 32 54 Z M 32 58 L 66 58 L 66 62 L 32 62 Z M 32 66 L 58 66 L 58 70 L 32 70 Z M 32 66 "/>
<path style=" stroke:none;fill-rule:nonzero;fill:rgb(100%,100%,100%);fill-opacity:1;" d="M 34.210938 86.910156 L 30 86.910156 L 30 73.3125 L 34.179688 73.3125 C 35.375 73.3125 36.445312 73.582031 37.390625 74.121094 C 38.332031 74.660156 39.070312 75.425781 39.601562 76.417969 C 40.128906 77.410156 40.390625 78.539062 40.390625 79.804688 L 40.390625 80.429688 C 40.390625 81.691406 40.132812 82.816406 39.609375 83.800781 C 39.089844 84.785156 38.359375 85.546875 37.414062 86.089844 C 36.464844 86.632812 35.398438 86.90625 34.210938 86.910156 Z M 34.179688 75.582031 L 32.800781 75.582031 L 32.800781 84.660156 L 34.15625 84.660156 C 35.25 84.660156 36.085938 84.300781 36.667969 83.582031 C 37.246094 82.867188 37.539062 81.84375 37.550781 80.511719 L 37.550781 79.792969 C 37.550781 78.414062 37.265625 77.363281 36.695312 76.648438 C 36.121094 75.9375 35.285156 75.582031 34.179688 75.582031 Z M 53.597656 79.8125 L 53.597656 80.417969 C 53.597656 81.757812 53.359375 82.933594 52.886719 83.941406 C 52.414062 84.949219 51.738281 85.730469 50.859375 86.277344 C 49.976562 86.824219 48.964844 87.097656 47.828125 87.097656 C 46.699219 87.097656 45.695312 86.828125 44.808594 86.285156 C 43.925781 85.742188 43.242188 84.96875 42.753906 83.960938 C 42.269531 82.957031 42.023438 81.800781 42.019531 80.492188 L 42.019531 79.824219 C 42.019531 78.484375 42.261719 77.304688 42.742188 76.285156 C 43.226562 75.269531 43.90625 74.488281 44.785156 73.941406 C 45.667969 73.398438 46.671875 73.125 47.808594 73.125 C 48.941406 73.125 49.949219 73.398438 50.828125 73.941406 C 51.710938 74.488281 52.390625 75.269531 52.875 76.285156 C 53.359375 77.304688 53.597656 78.480469 53.597656 79.8125 Z M 50.761719 80.46875 L 50.761719 79.804688 C 50.761719 78.378906 50.503906 77.296875 49.992188 76.550781 C 49.480469 75.8125 48.753906 75.441406 47.808594 75.441406 C 46.867188 75.441406 46.140625 75.808594 45.628906 76.542969 C 45.121094 77.269531 44.863281 78.34375 44.859375 79.753906 L 44.859375 80.417969 C 44.859375 81.808594 45.113281 82.886719 45.621094 83.652344 C 46.132812 84.417969 46.867188 84.796875 47.828125 84.796875 C 48.765625 84.796875 49.488281 84.429688 49.992188 83.691406 C 50.496094 82.953125 50.753906 81.878906 50.761719 80.46875 Z M 63.507812 82.378906 L 66.308594 82.378906 C 66.199219 83.84375 65.660156 84.996094 64.6875 85.835938 C 63.710938 86.675781 62.425781 87.097656 60.832031 87.097656 C 59.089844 87.097656 57.71875 86.511719 56.722656 85.335938 C 55.722656 84.164062 55.222656 82.550781 55.222656 80.503906 L 55.222656 79.671875 C 55.222656 78.363281 55.453125 77.214844 55.914062 76.21875 C 56.371094 75.222656 57.03125 74.457031 57.890625 73.921875 C 58.742188 73.390625 59.738281 73.125 60.871094 73.125 C 62.441406 73.125 63.703125 73.546875 64.660156 74.390625 C 65.621094 75.230469 66.175781 76.40625 66.328125 77.925781 L 63.523438 77.925781 C 63.453125 77.046875 63.210938 76.410156 62.789062 76.015625 C 62.371094 75.621094 61.730469 75.421875 60.871094 75.421875 C 59.9375 75.421875 59.238281 75.757812 58.773438 76.429688 C 58.3125 77.097656 58.074219 78.132812 58.0625 79.542969 L 58.0625 80.570312 C 58.0625 82.039062 58.285156 83.113281 58.730469 83.789062 C 59.171875 84.46875 59.875 84.808594 60.832031 84.808594 C 61.699219 84.808594 62.347656 84.613281 62.769531 84.21875 C 63.199219 83.820312 63.445312 83.207031 63.507812 82.378906 Z M 63.507812 82.378906 "/>
</g>
</svg>
