<?xml version="1.0" encoding="UTF-8" standalone="no"?>
<!-- Created with Inkscape (http://www.inkscape.org/) -->

<svg
   xmlns:dc="http://purl.org/dc/elements/1.1/"
   xmlns:cc="http://creativecommons.org/ns#"
   xmlns:rdf="http://www.w3.org/1999/02/22-rdf-syntax-ns#"
   xmlns:svg="http://www.w3.org/2000/svg"
   xmlns="http://www.w3.org/2000/svg"
   xmlns:sodipodi="http://sodipodi.sourceforge.net/DTD/sodipodi-0.dtd"
   xmlns:inkscape="http://www.inkscape.org/namespaces/inkscape"
   width="220"
   height="375"
   id="svg12260"
   version="1.1"
   inkscape:version="0.48.5 r10040"
   sodipodi:docname="Lumbar spine.svg">
  <defs
     id="defs12262">
    <inkscape:path-effect
       effect="spiro"
       id="path-effect4116-24-1"
       is_visible="true" />
    <inkscape:path-effect
       effect="spiro"
       id="path-effect4116-0-5-6"
       is_visible="true" />
    <inkscape:path-effect
       effect="spiro"
       id="path-effect4164-8-40-1"
       is_visible="true" />
    <inkscape:path-effect
       effect="spiro"
       id="path-effect4164-17-6"
       is_visible="true" />
    <inkscape:path-effect
       effect="spiro"
       id="path-effect4172-8-3"
       is_visible="true" />
    <inkscape:path-effect
       effect="spiro"
       id="path-effect4170-8-3"
       is_visible="true" />
    <inkscape:path-effect
       effect="spiro"
       id="path-effect4172-4-4-5"
       is_visible="true" />
    <inkscape:path-effect
       effect="spiro"
       id="path-effect4170-5-9-5"
       is_visible="true" />
    <inkscape:path-effect
       effect="spiro"
       id="path-effect4172-8-3-4"
       is_visible="true" />
    <inkscape:path-effect
       effect="spiro"
       id="path-effect4170-8-3-9"
       is_visible="true" />
    <inkscape:path-effect
       effect="spiro"
       id="path-effect4172-4-4-5-1"
       is_visible="true" />
    <inkscape:path-effect
       effect="spiro"
       id="path-effect4170-5-9-5-2"
       is_visible="true" />
    <inkscape:path-effect
       effect="spiro"
       id="path-effect4116-24-1-5"
       is_visible="true" />
    <inkscape:path-effect
       effect="spiro"
       id="path-effect4116-0-5-6-0"
       is_visible="true" />
    <inkscape:path-effect
       effect="spiro"
       id="path-effect4164-8-40-1-8"
       is_visible="true" />
    <inkscape:path-effect
       effect="spiro"
       id="path-effect4164-17-6-3"
       is_visible="true" />
  </defs>
  <sodipodi:namedview
     id="base"
     pagecolor="#ffffff"
     bordercolor="#666666"
     borderopacity="1.0"
     inkscape:pageopacity="0.0"
     inkscape:pageshadow="2"
     inkscape:zoom="2.1154982"
     inkscape:cx="115.63388"
     inkscape:cy="187.30462"
     inkscape:document-units="px"
     inkscape:current-layer="g15268-9-9-1"
     showgrid="false"
     inkscape:window-width="1280"
     inkscape:window-height="961"
     inkscape:window-x="-8"
     inkscape:window-y="-8"
     inkscape:window-maximized="1" />
  <metadata
     id="metadata12265">
    <rdf:RDF>
      <cc:Work
         rdf:about="">
        <dc:format>image/svg+xml</dc:format>
        <dc:type
           rdf:resource="http://purl.org/dc/dcmitype/StillImage" />
        <dc:title></dc:title>
      </cc:Work>
    </rdf:RDF>
  </metadata>
  <g
     inkscape:label="Body"
     inkscape:groupmode="layer"
     id="layer1"
     transform="translate(0,-677.36218)">
    <g
       id="g14344"
       transform="translate(75.714285,26.785714)">
      <g
         id="g15268-9-9-1"
         transform="matrix(1.265386,0,0,1.265386,-85.242377,-262.67621)"
         style="stroke:#4d4d4d">
        <g
           style="fill:#FF52A2;fill-opacity:1;stroke:#4d4d4d"
           transform="matrix(0.1953115,0,0,0.1953115,-31.08083,627.28824)"
           id="g3443-8-7-2-5-7">
          <path
             style="color:#000000;fill:#FF52A2;fill-opacity:1;fill-rule:nonzero;stroke:#4d4d4d;stroke-width:2.29999995;stroke-linecap:butt;stroke-linejoin:miter;stroke-miterlimit:4;stroke-opacity:1;stroke-dasharray:none;stroke-dashoffset:0;marker:none;visibility:visible;display:inline;overflow:visible;enable-background:accumulate"
             d="m 655.73259,1071.25 c 0,0 4.71463,5.6578 5.35548,9.1263 0.41011,2.2196 0.0526,4.747 -1.11402,6.6794 -1.78679,2.9594 -4.83746,5.7736 -8.25809,6.2741 -3.86781,0.5659 -8.12526,-1.2523 -10.97882,-4.1216 -1.2974,-1.3046 -2.17138,-3.3664 -2.1422,-5.2992 0.0546,-3.5984 2.44499,-6.738 4.28441,-9.715 0.81651,-1.3214 2.94557,-3.5328 2.94557,-3.5328"
             id="path5644-3-20-3-6-0"
             inkscape:connector-curvature="0"
             sodipodi:nodetypes="caaaaaac" />
          <path
             style="color:#000000;fill:#FF52A2;fill-opacity:1;fill-rule:nonzero;stroke:#4d4d4d;stroke-width:2.29999995;stroke-linecap:butt;stroke-linejoin:miter;stroke-miterlimit:4;stroke-opacity:1;stroke-dasharray:none;stroke-dashoffset:0;marker:none;visibility:visible;display:inline;overflow:visible;enable-background:accumulate"
             d="m 649.30598,1077.1379 c 0,0 -4.16628,3.3779 -4.28443,5.888 -0.0769,1.6311 1.254,3.0957 2.41,4.1215 1.18687,1.0533 2.86667,2.3798 4.28441,1.7664 1.60904,-0.6962 4.02381,-2.7315 4.55542,-5.0158 0.53161,-2.2843 -0.81993,-4.8177 -0.81993,-4.8177"
             id="path5646-2-2-6-7-0"
             inkscape:connector-curvature="0"
             sodipodi:nodetypes="caassc" />
        </g>
        <g
           style="fill:#FF52A2;fill-opacity:1;stroke:#4d4d4d"
           id="g3696-6-0-8-4-3"
           transform="matrix(0.18016096,0,0,0.19677049,-425.13339,674.30453)">
          <path
             style="color:#000000;fill:#FF52A2;fill-opacity:1;fill-rule:nonzero;stroke:#4d4d4d;stroke-width:2.32910538;stroke-linecap:butt;stroke-linejoin:miter;stroke-miterlimit:4;stroke-opacity:1;stroke-dasharray:none;stroke-dashoffset:0;marker:none;visibility:visible;display:inline;overflow:visible;enable-background:accumulate"
             d="m 2869.9958,875.34527 c 0,0 -4.2785,13.20175 -4.3316,20.03378 -0.021,2.76078 -0.1226,5.98385 1.6243,8.12178 3.6339,4.44729 10.2123,5.76659 15.8826,6.67792 8.9976,1.44608 19.1979,2.09558 27.2532,-2.16581 3.8203,-2.02105 7.151,-5.89555 8.1218,-10.10713 1.7046,-7.39524 -5.0536,-22.19954 -5.0536,-22.19954 z"
             id="path14739-7-3-0-2-7"
             inkscape:connector-curvature="0"
             sodipodi:nodetypes="caaaaacc" />
          <path
             inkscape:connector-curvature="0"
             style="color:#000000;fill:#FF52A2;fill-opacity:1;fill-rule:nonzero;stroke:#4d4d4d;stroke-width:2.32910538;stroke-linecap:butt;stroke-linejoin:miter;stroke-miterlimit:4;stroke-opacity:1;stroke-dasharray:none;stroke-dashoffset:0;marker:none;visibility:visible;display:inline;overflow:visible;enable-background:accumulate"
             d="m 2913.2973,848.64159 -42.8721,7.97864 0.6111,-0.16689 c 0,0 -2.3397,4.60661 -2.0269,6.14829 -0.3947,0.31174 -2.3734,1.12633 -3.5814,1.64142 -0.7411,0.31601 -1.4676,0.68729 -2.2478,0.88837 -0.7749,0.19973 -1.5819,0.34647 -2.3812,0.30672 -2.009,-0.0999 -3.9019,-1.73132 -5.8789,-1.36086 -1.6611,0.31126 -3.1828,1.49737 -4.1904,2.85415 -0.8585,1.15604 -1.4773,2.69239 -1.296,4.12088 0.2803,2.20834 1.682,4.42925 3.5315,5.66805 1.5059,1.00863 3.5496,0.92598 5.3619,0.9024 2.0024,-0.0261 3.6655,-0.39933 5.8965,-1.15078 2.4956,-0.84061 4.3903,-2.61275 7.0062,-3.20775 9.1177,-2.07372 19.0188,-0.77218 28.5385,-0.86402 3.7508,-0.0361 7.5961,-0.4848 11.2584,0.12961 4.5372,0.76128 8.1953,3.49813 12.7139,4.32012 2.1168,0.38514 4.5832,0.99955 6.521,0.24846 1.9594,-0.75946 3.6227,-2.46545 4.1326,-4.08632 0.7093,-2.25421 0.8368,-5.33741 -0.4478,-6.91222 -1.2845,-1.57481 -2.526,-1.72159 -5.1627,-1.69836 -2.1755,0.0193 -11.0582,1.87236 -12.9281,1.03032 -1.276,-0.57456 0.8228,-2.54762 0.089,-4.59171 -0.7341,-2.0441 -1.4677,-3.61819 -1.8335,-6.34427 -0.348,-2.59315 -0.8135,-5.85424 -0.8135,-5.85424 z"
             id="path14650-5-8-3-6-3-6-1-1"
             sodipodi:nodetypes="ccccaaaaaaaascccccszsczsc" />
          <path
             inkscape:connector-curvature="0"
             style="color:#000000;fill:#FF52A2;fill-opacity:1;fill-rule:nonzero;stroke:#4d4d4d;stroke-width:2.32910538;stroke-linecap:butt;stroke-linejoin:miter;stroke-miterlimit:4;stroke-opacity:1;stroke-dasharray:none;stroke-dashoffset:0;marker:none;visibility:visible;display:inline;overflow:visible;enable-background:accumulate"
             d="m 2912.3597,825.07336 c -14.0785,0.47008 -39.7818,1.41025 -39.7818,1.41025 l -1.0759,5.58427 c 0,0 -1.0914,6.21204 -0.7786,7.75372 -0.3947,0.31174 -0.8045,0.61695 -1.2557,0.85322 -1.6636,0.87123 -3.2575,0.27926 -5.2083,0.68459 -0.8387,0.17428 -1.7511,0.0972 -2.6113,0 -2.0237,-0.22877 -3.8817,-1.69797 -5.8789,-1.36086 -1.5025,0.25364 -3.404,1.85246 -4.1903,2.85415 -0.8284,1.0553 -0.4854,3.5097 -0.3758,4.73434 0.1616,1.80668 0.9435,3.75626 2.6112,5.05458 1.0698,0.83286 3.6498,1.01793 5.1823,1.07982 2.4384,0.0985 3.8452,-0.57675 6.0762,-1.3282 2.4955,-0.84061 4.3902,-2.61274 7.0062,-3.20775 9.1176,-2.07371 19.0188,-0.77217 28.5384,-0.86401 3.7509,-0.0361 7.5962,-0.4848 11.2584,0.12961 4.5372,0.76128 8.1953,3.49812 12.7139,4.32011 2.1168,0.38514 4.5833,0.99955 6.5211,0.24845 1.9594,-0.75945 3.9534,-2.25513 4.4634,-3.87599 0.7092,-2.25421 0.6624,-5.91571 -1.8522,-7.23755 -2.1657,-1.13852 -6.8126,-1.73407 -9.4492,-1.71095 -2.1756,0.0193 -2.7076,2.92015 -4.5774,2.07812 -1.2761,-0.57457 -3.8533,-1.86711 -4.8572,-2.67849 0,0 -1.5062,-6.29824 -1.872,-9.02432 -0.3479,-2.59315 -0.6065,-5.49711 -0.6065,-5.49711 z"
             id="path14650-5-8-7-6-8-2-0"
             sodipodi:nodetypes="cccccccccsccscccccsccccsc" />
          <path
             inkscape:connector-curvature="0"
             style="color:#000000;fill:#FF52A2;fill-opacity:1;fill-rule:nonzero;stroke:#4d4d4d;stroke-width:2.32910538;stroke-linecap:butt;stroke-linejoin:miter;stroke-miterlimit:4;stroke-opacity:1;stroke-dasharray:none;stroke-dashoffset:0;marker:none;visibility:visible;display:inline;overflow:visible;enable-background:accumulate"
             d="m 2911.0189,808.78268 -37.3127,0.99771 -0.832,4.9564 c 0,0 -0.5966,5.23374 -0.3146,6.5655 -0.3559,0.26928 -0.7255,0.53293 -1.1324,0.73705 -1.5003,0.7526 -2.9377,1.67441 -4.6971,2.02455 -0.7564,0.15057 -1.5792,0.084 -2.355,0 -1.8252,-0.19761 -4.691,-2.55122 -6.4922,-2.26 -1.355,0.21911 -2.3793,1.15923 -3.0885,2.02455 -0.747,0.9116 -1.4536,3.12404 -1.3548,4.18194 0.1457,1.56068 0.634,3.67857 2.1381,4.80013 0.9647,0.71946 4.1724,0.68833 5.5545,0.74178 2.1991,0.0851 4.2292,0.15548 6.2413,-0.49365 2.2506,-0.72613 5.4919,0.93065 7.8511,0.41665 8.2228,-1.79136 15.7097,-4.75113 24.2951,-4.83046 3.3827,-0.0312 6.6703,3.66528 9.9731,4.19604 4.0919,0.65762 7.8755,-1.2821 11.6464,-0.3522 1.6633,0.41017 2.7945,2.19769 4.4759,2.5259 1.3259,0.25881 2.9834,0.34865 4.0195,-0.51826 1.4535,-1.2162 1.7228,-3.52711 1.7104,-5.42229 -0.014,-2.09581 -0.1664,-4.90317 -1.9698,-5.97106 -2.0157,-1.1936 -4.568,1.25824 -6.9105,1.27815 -1.9397,0.0164 -3.9091,-0.31865 -5.7395,-0.96098 -1.4931,-0.52398 -3.2396,-1.61287 -4.145,-2.31376 0,0 0.7692,-5.41979 0.4393,-7.7747 -0.3138,-2.24007 -2.0006,-4.54899 -2.0006,-4.54899 z"
             id="path14650-5-0-7-2-1-7-7"
             sodipodi:nodetypes="cccccccccsccscccaaaaaaacsc" />
          <path
             inkscape:connector-curvature="0"
             style="color:#000000;fill:#FF52A2;fill-opacity:1;fill-rule:nonzero;stroke:#4d4d4d;stroke-width:2.32910538;stroke-linecap:butt;stroke-linejoin:miter;stroke-miterlimit:4;stroke-opacity:1;stroke-dasharray:none;stroke-dashoffset:0;marker:none;visibility:visible;display:inline;overflow:visible;enable-background:accumulate"
             d="m 2907.9785,788.29162 -31.4928,0.67381 -1.3354,4.87361 c 0,0 -0.5108,4.5114 -0.266,5.71789 -0.3089,0.24396 -0.6296,0.48281 -0.9827,0.66773 -1.3019,0.68181 -2.5493,1.51691 -4.0759,1.83412 -0.6564,0.13639 -1.3704,0.0761 -2.0436,0 -1.5838,-0.17902 -3.0378,-1.32881 -4.6007,-1.06498 -1.1759,0.1985 -2.0647,1.05019 -2.6801,1.83412 -0.6482,0.82585 -0.9791,3.14908 -0.8934,4.10747 0.1265,1.41389 0.7385,2.93959 2.0436,3.95565 0.8372,0.65179 2.1173,1.01656 3.3166,1.06498 1.9082,0.0771 3.7481,-0.6713 5.4941,-1.25937 1.9529,-0.65783 3.4357,-2.04467 5.4829,-2.51032 7.1354,-1.62286 14.8839,-0.6043 22.3338,-0.67616 2.9354,-0.0282 5.9447,-0.37943 8.8107,0.10141 3.5507,0.59575 6.4135,2.73758 9.9497,3.38087 1.6566,0.30138 3.5868,0.78222 5.1033,0.19443 1.5334,-0.59433 2.4149,-2.01944 2.814,-3.28789 0.5551,-1.76412 1.1974,-5.6763 -0.7705,-6.71077 -1.6949,-0.89099 -3.9332,1.13985 -5.9966,1.15793 -1.7026,0.015 -3.5171,-0.21162 -4.9805,-0.87059 -0.9986,-0.44964 -1.403,-1.46116 -2.1887,-2.09612 0,0 -0.5119,-5.04894 -0.7982,-7.18234 -0.2723,-2.02937 -2.2436,-3.90548 -2.2436,-3.90548 z"
             id="path14650-5-1-2-9-7-3"
             sodipodi:nodetypes="cccccccccsccscccccsccccsc" />
          <path
             style="color:#000000;fill:#FF52A2;fill-opacity:1;fill-rule:nonzero;stroke:#4d4d4d;stroke-width:2.32910538;stroke-linecap:butt;stroke-linejoin:miter;stroke-miterlimit:4;stroke-opacity:1;stroke-dasharray:none;stroke-dashoffset:0;marker:none;visibility:visible;display:inline;overflow:visible;enable-background:accumulate"
             d="m 2909.3105,772.9465 c 0,0 -13.0162,2.02286 -18.6042,2.02286 -5.5879,0 -14.788,-1.10338 -14.788,-1.10338 l 0,3.12089 c 0,0.18011 -1.3089,1.41013 -1.0635,2.70659 -0.3096,0.26213 -0.631,0.5188 -0.985,0.71751 -1.3049,0.73268 -2.555,1.63006 -4.0852,1.97092 -0.6579,0.14654 -1.3735,0.0818 -2.0482,0 -1.5874,-0.1924 -3.0448,-1.42792 -4.6113,-1.1444 -1.1785,0.2133 -2.0694,1.1285 -2.6862,1.9709 -0.6497,0.88744 -0.9813,2.8531 -0.8954,3.88295 0.1268,1.51933 0.7401,3.1588 2.0482,4.25063 0.8391,0.70038 2.1222,1.09237 3.3242,1.14442 1.9126,0.0828 3.7567,-0.72137 5.5067,-1.35331 1.9574,-0.7069 3.4436,-2.19716 5.4954,-2.69752 7.1517,-1.74388 14.9179,-0.64938 22.3849,-0.7266 2.9421,-0.0304 5.9582,-0.40772 8.8308,0.10898 3.5588,0.6402 6.4282,2.94175 9.9725,3.63302 1.6603,0.32383 3.5949,0.84053 5.1149,0.20891 1.5369,-0.63866 2.4205,-2.17004 2.8205,-3.53309 0.5563,-1.89567 1.2001,-5.56876 -0.7723,-6.68037 -1.6987,-0.95743 -3.9422,1.22484 -6.0103,1.24428 -1.7065,0.016 -3.5252,-0.22742 -4.9918,-0.93551 -1.0009,-0.48319 -3.0933,-3.25713 -3.8808,-3.93947 -0.025,-1.31658 -0.051,-5.15805 -0.076,-4.86921 z"
             id="path14650-9-1-8-9-4"
             inkscape:connector-curvature="0"
             sodipodi:nodetypes="cscscccsscsccscscsssscccc" />
          <path
             style="color:#000000;fill:#FF52A2;fill-opacity:1;fill-rule:nonzero;stroke:#4d4d4d;stroke-width:2.32910538;stroke-linecap:butt;stroke-linejoin:miter;stroke-miterlimit:4;stroke-opacity:1;stroke-dasharray:none;stroke-dashoffset:0;marker:none;visibility:visible;display:inline;overflow:visible;enable-background:accumulate"
             d="m 2851.6057,881.47007 c -1.1484,0.0133 -2.2734,0.17652 -3.35,0.52486 -1.6356,0.52904 -2.0301,2.97268 -3.5734,3.72971 -1.7677,0.86715 -4.2793,-0.54077 -5.8738,0.61419 -2.8195,2.04217 -2.9752,6.30775 -4.277,9.53653 -1.2211,3.02882 -2.4967,6.04864 -3.3054,9.21271 -0.881,3.44737 -1.1535,7.03129 -1.6638,10.5527 -0.7205,4.97157 -3.8291,12.17663 -1.9766,14.93012 1.5009,2.23074 9.3233,-2.2992 9.5142,-1.85367 0.4267,0.99538 4.6614,8.07004 8.6432,14.32712 3.8396,6.2571 3.1495,15.6548 5.8515,19.35224 2.7019,3.69738 13.8132,7.98864 15.9463,9.26849 1.1488,0.68928 5.9873,2.834 11.0999,4.66781 l -0.1675,0.0892 c 0,0 -0.041,2.11468 0.3685,3.0597 0.5936,1.37144 2.9223,1.93443 2.881,3.42825 -0.039,1.40397 -2.8027,1.66857 -2.881,3.07092 -0.05,0.901 0.9811,1.52827 1.6192,2.16635 0.6381,0.63809 2.0527,0.73511 2.1664,1.63039 0.097,0.76427 -1.2711,1.04629 -1.4406,1.79786 -0.2311,1.02492 0.089,2.23526 0.7259,3.07091 0.4569,0.59951 1.6065,0.42637 1.9765,1.08318 0.6503,1.15435 -0.5887,2.71552 -0.1786,3.9754 0.4768,1.46526 1.9827,2.36306 2.8922,3.60696 1.4084,1.926 3.9642,5.9519 3.9642,5.9519 0,0 1.6286,-1.0853 1.8091,-1.9877 0.1805,-0.9024 2.7496,-2.266 3.6069,-3.7856 0.674,-1.1949 1.2183,-2.6102 1.0832,-3.97538 -0.066,-0.66936 -1.0517,-1.14155 -0.9046,-1.79789 0.2344,-1.04518 1.8579,-1.15767 2.5349,-1.98769 0.7653,-0.93821 1.879,-2.06705 1.6192,-3.24959 -0.1652,-0.75246 -1.7918,-0.6701 -1.7978,-1.44052 -0.014,-1.79474 3.4326,-1.77998 4.1429,-3.42825 0.3579,-0.83057 -0.1724,-1.80915 -0.1787,-2.71354 -0.01,-1.14464 -0.1216,-2.32372 0.1787,-3.42821 0.48,-1.76562 3.2568,-3.06396 2.5349,-4.86878 -0.065,-0.1622 -0.2193,-0.31871 -0.4244,-0.46905 6.2829,-1.7878 12.2812,-3.80199 13.3891,-4.46675 2.1332,-1.27985 11.2567,-6.61788 13.9587,-10.17303 2.7019,-3.69741 0.6077,-9.08321 4.5895,-15.19817 3.8396,-6.25698 9.4673,-16.58131 9.8939,-17.57665 0.2004,-0.46765 7.3951,3.54668 8.967,1.16136 1.7745,-2.69282 -0.7815,-9.51005 -1.4293,-14.23781 -0.4181,-3.05066 -0.9362,-6.09113 -1.5857,-9.10104 -0.4731,-2.19232 -0.9043,-4.4152 -1.6751,-6.52147 -1.4636,-3.99968 -2.1983,-7.95766 -5.5499,-11.51305 -0.8902,-0.94427 -4.0614,-2.16038 -5.3601,-2.63539 -2.2064,-0.80698 -3.465,-2.65729 -5.3825,-2.66887 -2.3682,-0.0143 -4.4552,-1.04497 -6.8676,-0.77054 -3.5697,0.40612 -6.3378,3.63434 -9.3355,5.44945 -3.3478,2.02705 -4.0974,6.98283 -7.359,9.14567 -5.5801,3.70034 -12.6249,5.65721 -19.3187,5.5053 -7.2959,-0.16559 -14.7272,-2.83843 -20.7593,-6.94581 -4.0048,-2.72694 -5.1482,-8.69606 -9.3355,-11.13338 -2.934,-1.70787 -6.5603,-3.02171 -10.0056,-2.98158 z m 9.8827,34.48337 c 0,0 -2.3554,3.55104 -3.9754,4.87992 -0.8947,0.73408 -1.9799,1.23322 -3.0709,1.61922 -2.6584,0.94055 -8.297,1.61922 -8.297,1.61922 0,0 2.002,-1.8412 3.0597,-2.70243 1.633,-1.32927 3.1468,-2.90318 5.0586,-3.78556 2.2396,-1.03364 7.225,-1.63037 7.225,-1.63037 z m 59.2181,0 c 0,0 4.9854,0.59673 7.225,1.63037 1.9118,0.88238 3.4256,2.45629 5.0586,3.78556 1.0578,0.86123 3.0597,2.70243 3.0597,2.70243 0,0 -5.6386,-0.67867 -8.297,-1.61922 -1.091,-0.386 -2.1762,-0.88514 -3.0709,-1.61922 -1.62,-1.32888 -3.9754,-4.87992 -3.9754,-4.87992 z m -64.4553,16.10267 c 0.1463,-0.004 0.2886,-0.004 0.4355,0 0.705,0.0103 1.4111,0.08 2.0882,0.14518 1.2504,0.12014 3.6069,1.08317 3.6069,1.08317 0,0 -1.6059,0.36374 -2.3451,0.71468 -2.1554,1.02332 -3.7355,3.09178 -5.9519,3.97542 -1.6446,0.65565 -5.2373,0.9045 -5.2373,0.9045 0,0 2.3059,-4.88424 4.5114,-6.14176 0.8617,-0.49142 1.8681,-0.65883 2.8923,-0.6812 z m 69.2571,0 c 1.1749,-0.0172 2.3429,0.11957 3.3277,0.6812 2.2055,1.25751 4.5114,6.14175 4.5114,6.14175 0,0 -3.5927,-0.24885 -5.2373,-0.9045 -2.2164,-0.88363 -3.7964,-2.9521 -5.9519,-3.97541 -0.7392,-0.35095 -2.3451,-0.71468 -2.3451,-0.71468 0,0 2.3565,-0.96304 3.6069,-1.08317 0.6771,-0.0652 1.3833,-0.13483 2.0883,-0.14519 z m -63.7965,12.42877 c 1.9563,-0.003 4.8241,1.07202 4.8241,1.07202 0,0 -1.4443,1.7032 -2.3451,2.34502 -2.016,1.4365 -4.2037,3.33173 -6.6778,3.24958 -0.4848,-0.0166 -1.1021,-0.26789 -1.2618,-0.72582 -0.4268,-1.22368 0.6336,-2.59291 1.4405,-3.60694 0.8209,-1.03163 1.9617,-1.97355 3.2496,-2.2557 0.2312,-0.0507 0.491,-0.0776 0.7705,-0.0781 z m 58.7713,0 c 0.2795,0 0.5393,0.0276 0.7706,0.0781 1.2878,0.28215 2.4286,1.22407 3.2495,2.2557 0.807,1.01403 1.8673,2.38326 1.4406,3.60694 -0.1598,0.45793 -0.7771,0.70973 -1.2619,0.72582 -2.474,0.0821 -4.6618,-1.81308 -6.6778,-3.24958 -0.9008,-0.64182 -2.3451,-2.34502 -2.3451,-2.34502 0,0 2.8679,-1.07596 4.8241,-1.07202 z m -52.1382,10.82071 c 0,0 0.7201,1.98073 0.1787,3.78559 -0.5415,1.80479 -4.0557,1.90402 -4.9581,2.44554 -0.9024,0.54143 -1.6304,0.1672 -1.6304,-0.91569 0,-1.08293 1.3533,-2.60762 2.2557,-3.14906 0.9024,-0.54145 4.1541,-2.16638 4.1541,-2.16638 z m 45.5051,0 c 0,0 3.2517,1.62493 4.1541,2.16638 0.9024,0.54144 2.2557,2.06613 2.2557,3.14906 0,1.08289 -0.728,1.45712 -1.6304,0.91569 -0.9024,-0.54152 -4.4166,-0.64075 -4.9581,-2.44554 -0.5414,-1.80486 0.1787,-3.78559 0.1787,-3.78559 z"
             id="use7061-9-1-4-9-5-9"
             inkscape:connector-curvature="0" />
          <path
             inkscape:connector-curvature="0"
             d="m 2909.9517,780.99989 c -1.1433,3.11172 -0.2286,6.35322 0,8.16839 0.2287,1.81524 2.9063,6.58256 1.1912,7.61983 -1.715,1.16689 -7.4265,0.41867 -11.1437,0.52494 -5.0634,0.14477 -10.132,0.2924 -15.1955,0.15336 -3.4799,-0.0955 -8.7067,0.48858 -10.4217,-0.6783 -1.715,-1.16694 0.8482,-4.32357 1.1912,-6.13881 0.2287,-1.81517 0.4213,-6.53769 -0.722,-9.64941 -1.1434,-3.11183 -0.4573,-4.92706 0.5716,-4.92706 1.0291,-0.12961 5.8049,1.24623 8.7552,1.49025 5.7565,0.47613 11.5752,0.45209 17.3286,-0.0616 2.7315,-0.24388 7.0731,-1.42867 8.1021,-1.42867 0.8004,0 1.4864,1.81523 0.343,4.92706 z"
             id="use16934-9-6-3-7-5-6"
             style="color:#000000;fill:#FF52A2;fill-opacity:1;fill-rule:nonzero;stroke:#4d4d4d;stroke-width:2.32910538;stroke-linecap:butt;stroke-linejoin:miter;stroke-miterlimit:4;stroke-opacity:1;stroke-dasharray:none;stroke-dashoffset:0;marker:none;visibility:visible;display:inline;overflow:visible;enable-background:accumulate"
             sodipodi:nodetypes="sccaaccscaass" />
          <path
             inkscape:connector-curvature="0"
             d="m 2912.7888,811.07673 c 0.2302,1.41386 2.641,3.73166 0.2586,4.28963 -2.3825,0.55798 -5.7464,0.80849 -8.6646,1.00626 -3.8658,0.262 -8.1437,0.23483 -11.6548,0.23483 -4.1379,0 -11.072,0.0346 -12.2005,-0.15138 -2.2571,-0.46495 -5.254,0.13596 -7.6365,-0.42203 -2.3824,-0.55796 -0.3107,-3.89533 -0.057,-5.83254 0.2428,-1.851 1.4912,-3.6291 1.5047,-5.48678 0.012,-1.63459 -2.1317,-4.1848 -1.2539,-4.83577 0.7524,-0.65099 5.2665,-0.27902 7.3982,-0.37198 0.8777,0 6.395,0.37198 12.0377,0.37198 5.768,0 11.5361,-0.46498 12.4138,-0.37198 2.1317,0.093 6.6459,-0.27901 7.3982,0.37198 0.7524,0.65097 -1.2613,3.17055 -1.2539,4.83577 0.01,2.19589 1.3569,4.19463 1.7097,6.36202 z"
             id="use16936-1-27-2-2-4-5"
             style="color:#000000;fill:#FF52A2;fill-opacity:1;fill-rule:nonzero;stroke:#4d4d4d;stroke-width:2.32910538;stroke-linecap:butt;stroke-linejoin:miter;stroke-miterlimit:4;stroke-opacity:1;stroke-dasharray:none;stroke-dashoffset:0;marker:none;visibility:visible;display:inline;overflow:visible;enable-background:accumulate"
             sodipodi:nodetypes="acasccaaccsccaa" />
          <path
             inkscape:connector-curvature="0"
             d="m 2913.3244,828.58034 c 0.2859,-2.31159 1.1437,-4.98817 0.7148,-7.1781 -0.4289,-2.18992 -2.1443,-3.28491 -3.2879,-2.67658 -1.1437,0.60833 -4.7176,0.97329 -8.4345,1.21663 -3.288,0.24335 -17.272,0.41534 -20.56,0.172 -3.7169,-0.24334 -7.2908,-0.72998 -8.4345,-1.21664 -1.1436,-0.60832 -2.7161,0.60833 -3.288,2.67659 -0.4288,2.18992 1.1987,4.86651 1.4846,7.1781 0.2859,2.31157 -1.9134,4.86649 -1.3416,6.32639 0.5718,1.45995 3.7169,2.9199 7.5767,3.77154 3.4309,0.73 24.5628,0.923 28.1367,0.19305 3.8598,-0.73 7.4337,-2.55494 8.0056,-4.0149 0.5718,-1.58159 -0.8578,-4.01486 -0.5719,-6.44808 z"
             id="use7021-8-2-6-2-0-1"
             style="color:#000000;fill:#FF52A2;fill-opacity:1;fill-rule:nonzero;stroke:#4d4d4d;stroke-width:2.32910538;stroke-linecap:butt;stroke-linejoin:miter;stroke-miterlimit:4;stroke-opacity:1;stroke-dasharray:none;stroke-dashoffset:0;marker:none;visibility:visible;display:inline;overflow:visible;enable-background:accumulate"
             sodipodi:nodetypes="ccscccccscccc" />
          <path
             inkscape:connector-curvature="0"
             d="m 2915.0469,858.65085 c 0.8905,-1.38031 0.3676,-2.8959 0.3813,-4.59631 0.019,-2.39721 0.3458,-4.97487 0.5964,-6.43286 0.4285,-2.49219 1.4281,-5.24678 0.9997,-7.08312 -0.2856,-1.8364 -1.4281,-2.49222 -2.5706,-1.04936 -1.1424,1.44284 -7.4261,3.01687 -10.7107,3.54158 -1.2853,0.13117 -4.4637,0.3074 -10.6046,0.3074 -6.8548,0 -13.9953,-1.18055 -15.4234,-1.44284 -3.2846,-0.3935 -7.2612,-0.77406 -8.4037,-2.21689 -1.1425,-1.44287 -2.1422,-0.78705 -2.5706,1.04935 -0.2856,1.83635 3.0063,5.40592 3.4348,8.02931 0.4284,2.49222 -0.531,8.42081 -0.8166,10.65069 -0.2856,2.2299 4.4517,2.71999 6.9281,3.43602 5.531,1.59929 11.4259,1.89596 17.1821,1.768 5.5299,-0.12293 11.2646,-0.41271 16.4147,-2.43034 1.9413,-0.76052 4.1544,-1.96703 5.1631,-3.53063 z"
             id="use7019-1-7-0-8-3-0"
             style="color:#000000;fill:#FF52A2;fill-opacity:1;fill-rule:nonzero;stroke:#4d4d4d;stroke-width:2.32910538;stroke-linecap:butt;stroke-linejoin:miter;stroke-miterlimit:4;stroke-opacity:1;stroke-dasharray:none;stroke-dashoffset:0;marker:none;visibility:visible;display:inline;overflow:visible;enable-background:accumulate"
             sodipodi:nodetypes="ssccscscsccsaaas" />
          <path
             inkscape:connector-curvature="0"
             d="m 2916.2117,871.58811 c 0.359,-2.72615 0,-5.46062 -0.7182,-6.40889 -1.3166,-1.65938 -4.4305,1.32859 -6.7027,1.73116 -5.4022,0.95715 -10.8947,1.70674 -16.3803,1.60973 -5.3883,-0.0953 -10.7729,-0.93679 -16.0239,-2.1491 -2.7227,-0.62858 -6.6394,-4.41863 -7.9561,-2.64068 -0.7181,0.94827 -0.6938,5.13163 -0.3347,7.85778 0.3591,2.7262 -1.0772,4.85978 0,8.17858 1.0772,3.43737 2.8726,4.26708 6.583,6.87474 1.6757,1.1853 9.5753,3.67439 17.4749,3.67439 7.8997,0 15.7993,-2.48909 17.4749,-3.67439 3.7105,-2.60766 5.5058,-3.5559 6.5831,-6.87474 0.9575,-3.3188 -0.3591,-5.33382 0,-8.17858 z"
             id="use16942-9-6-54-2-4-9"
             style="color:#000000;fill:#FF52A2;fill-opacity:1;fill-rule:nonzero;stroke:#4d4d4d;stroke-width:2.32910538;stroke-linecap:butt;stroke-linejoin:miter;stroke-miterlimit:4;stroke-opacity:1;stroke-dasharray:none;stroke-dashoffset:0;marker:none;visibility:visible;display:inline;overflow:visible;enable-background:accumulate"
             sodipodi:nodetypes="ccaaacsccsccc" />
        </g>
        <text
           sodipodi:linespacing="89.999998%"
           id="text5120-3-0-7-1"
           y="892.99292"
           x="10.002358"
           style="font-size:8.69299984px;font-style:normal;font-variant:normal;font-weight:normal;font-stretch:normal;text-indent:0;text-align:start;text-decoration:none;line-height:89.99999762%;letter-spacing:0px;word-spacing:0px;text-transform:none;direction:ltr;block-progression:tb;writing-mode:lr-tb;text-anchor:start;baseline-shift:baseline;color:#000000;fill:#000000;fill-opacity:1;fill-rule:nonzero;stroke:none;stroke-width:1;marker:none;visibility:visible;display:inline;overflow:visible;enable-background:accumulate;font-family:Poppins;-inkscape-font-specification:Poppins"
           xml:space="preserve"><tspan
             style="font-size:8.69299984px;font-style:normal;font-variant:normal;font-weight:normal;font-stretch:normal;text-indent:0;text-align:start;text-decoration:none;line-height:89.99999762%;letter-spacing:0px;word-spacing:0px;text-transform:none;direction:ltr;block-progression:tb;writing-mode:lr-tb;text-anchor:start;baseline-shift:baseline;color:#000000;fill:#000000;fill-opacity:1;fill-rule:nonzero;stroke:none;stroke-width:1;marker:none;visibility:visible;display:inline;overflow:visible;enable-background:accumulate;font-family:Poppins;-inkscape-font-specification:Poppins"
             y="892.99292"
             x="10.002358"
             id="tspan5122-9-8-8-9"
             sodipodi:role="line">Lumbar</tspan><tspan
             style="font-size:8.69299984px;font-style:normal;font-variant:normal;font-weight:normal;font-stretch:normal;text-indent:0;text-align:start;text-decoration:none;line-height:89.99999762%;letter-spacing:0px;word-spacing:0px;text-transform:none;direction:ltr;block-progression:tb;writing-mode:lr-tb;text-anchor:start;baseline-shift:baseline;color:#000000;fill:#000000;fill-opacity:1;fill-rule:nonzero;stroke:none;stroke-width:1;marker:none;visibility:visible;display:inline;overflow:visible;enable-background:accumulate;font-family:Poppins;-inkscape-font-specification:Poppins"
             id="tspan5281-9-2-5-7"
             y="900.81659"
             x="10.002358"
             sodipodi:role="line">Spine</tspan></text>
        <path
           sodipodi:nodetypes="ccc"
           inkscape:connector-curvature="0"
           id="path11926-6-67-0-7-8-9"
           d="m 44.770042,890.73466 6.860281,0 38.395193,-50.73885"
           style="fill:none;stroke:#4d4d4d;stroke-width:0.63221818;stroke-linecap:butt;stroke-linejoin:miter;stroke-miterlimit:4;stroke-opacity:1;stroke-dasharray:none" />
      </g>
    </g>
  </g>
</svg>
