<?xml version="1.0" encoding="UTF-8" standalone="no"?>
<!-- Created with Inkscape (http://www.inkscape.org/) -->

<svg
   xmlns:dc="http://purl.org/dc/elements/1.1/"
   xmlns:cc="http://creativecommons.org/ns#"
   xmlns:rdf="http://www.w3.org/1999/02/22-rdf-syntax-ns#"
   xmlns:svg="http://www.w3.org/2000/svg"
   xmlns="http://www.w3.org/2000/svg"
   xmlns:sodipodi="http://sodipodi.sourceforge.net/DTD/sodipodi-0.dtd"
   xmlns:inkscape="http://www.inkscape.org/namespaces/inkscape"
   width="220"
   height="375"
   id="svg12260"
   version="1.1"
   inkscape:version="0.48.5 r10040"
   sodipodi:docname="Right hand.svg">
  <defs
     id="defs12262">
    <inkscape:path-effect
       effect="spiro"
       id="path-effect4116-24-1"
       is_visible="true" />
    <inkscape:path-effect
       effect="spiro"
       id="path-effect4116-0-5-6"
       is_visible="true" />
    <inkscape:path-effect
       effect="spiro"
       id="path-effect4164-8-40-1"
       is_visible="true" />
    <inkscape:path-effect
       effect="spiro"
       id="path-effect4164-17-6"
       is_visible="true" />
    <inkscape:path-effect
       effect="spiro"
       id="path-effect4172-8-3"
       is_visible="true" />
    <inkscape:path-effect
       effect="spiro"
       id="path-effect4170-8-3"
       is_visible="true" />
    <inkscape:path-effect
       effect="spiro"
       id="path-effect4172-4-4-5"
       is_visible="true" />
    <inkscape:path-effect
       effect="spiro"
       id="path-effect4170-5-9-5"
       is_visible="true" />
    <inkscape:path-effect
       effect="spiro"
       id="path-effect4172-8-3-4"
       is_visible="true" />
    <inkscape:path-effect
       effect="spiro"
       id="path-effect4170-8-3-9"
       is_visible="true" />
    <inkscape:path-effect
       effect="spiro"
       id="path-effect4172-4-4-5-1"
       is_visible="true" />
    <inkscape:path-effect
       effect="spiro"
       id="path-effect4170-5-9-5-2"
       is_visible="true" />
    <inkscape:path-effect
       effect="spiro"
       id="path-effect4116-24-1-5"
       is_visible="true" />
    <inkscape:path-effect
       effect="spiro"
       id="path-effect4116-0-5-6-0"
       is_visible="true" />
    <inkscape:path-effect
       effect="spiro"
       id="path-effect4164-8-40-1-8"
       is_visible="true" />
    <inkscape:path-effect
       effect="spiro"
       id="path-effect4164-17-6-3"
       is_visible="true" />
  </defs>
  <sodipodi:namedview
     id="base"
     pagecolor="#ffffff"
     bordercolor="#666666"
     borderopacity="1.0"
     inkscape:pageopacity="0.0"
     inkscape:pageshadow="2"
     inkscape:zoom="2.1154982"
     inkscape:cx="115.63388"
     inkscape:cy="156.82124"
     inkscape:document-units="px"
     inkscape:current-layer="g3443-8-7-2-5-7"
     showgrid="false"
     inkscape:window-width="1280"
     inkscape:window-height="961"
     inkscape:window-x="-8"
     inkscape:window-y="-8"
     inkscape:window-maximized="1" />
  <metadata
     id="metadata12265">
    <rdf:RDF>
      <cc:Work
         rdf:about="">
        <dc:format>image/svg+xml</dc:format>
        <dc:type
           rdf:resource="http://purl.org/dc/dcmitype/StillImage" />
        <dc:title></dc:title>
      </cc:Work>
    </rdf:RDF>
  </metadata>
  <g
     inkscape:label="Body"
     inkscape:groupmode="layer"
     id="layer1"
     transform="translate(0,-677.36218)">
    <g
       id="g14344"
       transform="translate(75.714285,26.785714)">
      <g
         id="g15268-9-9-1"
         transform="matrix(1.265386,0,0,1.265386,-85.242377,-262.67621)"
         style="stroke:#4d4d4d">
        <g
           style="fill:#FF52A2;fill-opacity:1;stroke:#4d4d4d"
           transform="matrix(0.1953115,0,0,0.1953115,-31.08083,627.28824)"
           id="g3443-8-7-2-5-7">
          <g
             id="g3912-5-2-8-2-9-8"
             transform="translate(-630.15107,-866.76678)"
             style="color:#000000;fill:#FF52A2;fill-opacity:1;fill-rule:nonzero;stroke:#4d4d4d;stroke-width:2.29999995;stroke-linecap:butt;stroke-linejoin:miter;stroke-miterlimit:4;stroke-opacity:1;stroke-dasharray:none;stroke-dashoffset:0;marker:none;visibility:visible;display:inline;overflow:visible;enable-background:accumulate">
            <path
               inkscape:connector-curvature="0"
               style="color:#000000;fill:#FF52A2;fill-opacity:1;fill-rule:nonzero;stroke:#4d4d4d;stroke-width:2.29999995;stroke-linecap:butt;stroke-linejoin:miter;stroke-miterlimit:4;stroke-opacity:1;stroke-dasharray:none;stroke-dashoffset:0;marker:none;visibility:visible;display:inline;overflow:visible;enable-background:accumulate"
               d="m 1070.4438,2055.7828 c 0,0 -2.9653,18.2235 -2.9528,22.6956 0.025,8.9 1.4775,17.8532 1.3943,26.7471 -0.069,7.3715 -0.3012,14.7436 -1.5622,21.938 -1.0156,5.7937 -4.8358,16.9089 -4.8358,16.9089 0,0 -3.7769,21.4986 -6.1802,31.099 -1.1102,4.4353 -1.0478,9.6026 -3.8707,13.0687 -1.3021,1.5989 -3.4444,3.3001 -5.5011,2.8821 -1.2942,-0.2629 -2.2062,-1.7551 -2.6751,-3.0358 -1.1302,-3.0863 0.1366,-6.4949 0.3111,-9.7235 0.3849,-7.1209 0.9701,-16.1881 1.7462,-23.2547 0.5018,-4.5688 2.0557,-13.6074 2.0557,-13.6074 -0.8362,-0.9259 -1.8608,0.058 -2.8357,1.0891 0,0 -2.4549,12.877 -3.6451,19.3403 -1.4911,8.0969 -2.4878,18.3347 -4.553,26.2683 -1.3766,5.2883 -2.7949,11.1651 -3.5901,15.7012 -0.448,2.554 -2.4288,5.0038 -4.8083,5.4529 -2.0067,0.3786 -4.5783,-0.9476 -5.7159,-2.7752 -2.2835,-3.6681 -0.1294,-8.5242 0.091,-12.7622 0.4256,-8.1827 1.7616,-18.1991 2.6325,-26.3213 0.3853,-3.5938 0.7016,-7.2149 1.2221,-10.7837 0.6916,-4.7426 2.4899,-14.1182 2.4899,-14.1182 -0.6867,-1.8761 -1.5702,-1.2207 -2.4074,-0.9768 l -1.5873,4.0143 c 0,0 -2.7785,11.1769 -4.1337,16.7794 -1.5108,6.2455 -3.4373,14.3372 -4.6881,20.6559 -1.0882,5.4971 -1.5597,11.1433 -2.6135,16.6491 -0.4836,2.5265 -0.4757,5.3047 -1.6771,7.529 -0.8067,1.4934 -2.0778,2.7666 -3.5307,3.5922 -1.339,0.7608 -2.9873,1.5194 -4.5134,1.0889 -1.9294,-0.5443 -3.6592,-2.3256 -4.4582,-4.2278 -1.18716,-2.8262 -0.049,-6.1109 0.1179,-9.1191 0.3813,-6.8435 0.9193,-13.6233 1.9356,-20.3648 1.1591,-7.6869 3.2288,-17.1936 4.9692,-24.7341 1.1095,-4.8074 2.6716,-9.5033 3.6468,-14.3481 0.3445,-1.7115 0.7838,-5.1584 0.7838,-5.1584 -1.0825,-0.5337 -2.2109,-0.6725 -3.434,0.7735 0,0 -1.1991,4.5724 -1.8493,6.8659 -2.6115,9.2119 -5.9259,18.1673 -8.13587,27.5093 -1.27713,5.3985 -0.92545,13.3561 -3.18452,18.356 -1.27685,2.8258 -2.91106,6.1138 -5.75328,7.2072 -2.05001,0.7886 -4.99589,0.6343 -6.61999,-1.0189 -2.40133,-2.4445 -1.5771,-6.7549 -1.59152,-10.1438 -0.024,-5.6623 1.56253,-13.1061 2.70468,-18.584 1.28675,-6.1713 3.37671,-12.0713 4.89749,-18.1743 1.0253,-4.1141 2.01401,-8.2561 2.85723,-12.4225 1.02336,-5.0565 2.66817,-15.2552 2.66817,-15.2552 0,0 -9.1722,4.998 -14.24704,6.0149 -2.47949,0.4969 -5.21316,0.9011 -7.65155,-0.01 -2.88905,-1.074 -6.37393,-2.6252 -7.23406,-6.0409 -0.41333,-1.6411 2.70094,-3.5453 4.22083,-5.1543 1.80685,-1.9128 5.78721,-3.7234 7.83309,-5.387 3.87062,-3.1474 5.929,-6.045 9.03798,-9.952 4.11876,-5.1759 6.04582,-11.941 9.8111,-17.4024 3.79781,-5.5088 8.03976,-10.7613 12.82166,-15.3732 3.6529,-3.5229 9.7171,-9.0771 9.7171,-9.0771 l 4.0747,-11.6866 c 0,0 16.0871,8.4906 24.4417,10.3541 8.3547,1.8636 23.5545,0.4078 23.5545,0.4078 z"
               id="path2996-0-6-3-3-9-9-4-7-8-7-4-8-9"
               sodipodi:nodetypes="ccsscsssscsccsscccssccccssscsscscscccssssssssscssccsssscczc" />
            <path
               sodipodi:nodetypes="ccc"
               inkscape:connector-curvature="0"
               id="path4088-7-4-2-6-8-6-8-2-2"
               d="m 1035.1415,2093.8646 c 0,0 -2.9109,8.0946 -10.2688,12.8068 -7.3579,4.7121 -25.93368,7.7321 -25.93368,7.7321"
               style="color:#000000;fill:#FF52A2;fill-opacity:1;fill-rule:nonzero;stroke:#4d4d4d;stroke-width:2.29999995;stroke-linecap:butt;stroke-linejoin:miter;stroke-miterlimit:4;stroke-opacity:1;stroke-dasharray:none;stroke-dashoffset:0;marker:none;visibility:visible;display:inline;overflow:visible;enable-background:accumulate" />
            <path
               inkscape:connector-curvature="0"
               id="path4090-4-9-4-1-7-1-6-4-7"
               d="m 1049.4985,2130.5383 c -6.5304,-2.7595 -5.493,-3.5902 -16.0303,-5.6299 l -18.615,-1.3343"
               style="color:#000000;fill:#FF52A2;fill-opacity:1;fill-rule:nonzero;stroke:#4d4d4d;stroke-width:2.29999995;stroke-linecap:butt;stroke-linejoin:miter;stroke-miterlimit:4;stroke-opacity:1;stroke-dasharray:none;stroke-dashoffset:0;marker:none;visibility:visible;display:inline;overflow:visible;enable-background:accumulate" />
          </g>
          <text
             xml:space="preserve"
             style="font-size:44.5083847px;font-style:normal;font-variant:normal;font-weight:normal;font-stretch:normal;text-indent:0;text-align:start;text-decoration:none;line-height:89.99999762%;letter-spacing:0px;word-spacing:0px;text-transform:none;direction:ltr;block-progression:tb;writing-mode:lr-tb;text-anchor:start;baseline-shift:baseline;color:#000000;fill:#000000;fill-opacity:1;fill-rule:nonzero;stroke:none;stroke-width:1;marker:none;visibility:visible;display:inline;overflow:visible;enable-background:accumulate;font-family:Poppins;-inkscape-font-specification:Poppins"
             x="209.27939"
             y="1240.6326"
             id="text8838-43-6-6-9-5"
             sodipodi:linespacing="89.999998%"><tspan
               sodipodi:role="line"
               x="209.27939"
               y="1240.6326"
               id="tspan10410-8-8-8-4-3">Right </tspan><tspan
               id="tspan5541-4-3"
               sodipodi:role="line"
               x="209.27939"
               y="1280.6902">Hand</tspan></text>
          <path
             sodipodi:nodetypes="ccc"
             inkscape:connector-curvature="0"
             id="path11998-8-9-4-8-1-2"
             d="m 341.36907,1317.6477 -64.24635,0 0,-27.7078"
             style="color:#000000;fill:none;stroke:#4d4d4d;stroke-width:3.23697352;stroke-linecap:butt;stroke-linejoin:miter;stroke-miterlimit:4;stroke-opacity:1;stroke-dasharray:none;stroke-dashoffset:0;marker:none;visibility:visible;display:inline;overflow:visible;enable-background:accumulate" />
        </g>
      </g>
    </g>
  </g>
</svg>
