<?xml version="1.0" encoding="UTF-8" standalone="no"?>
<!-- Created with Inkscape (http://www.inkscape.org/) -->

<svg
   xmlns:dc="http://purl.org/dc/elements/1.1/"
   xmlns:cc="http://creativecommons.org/ns#"
   xmlns:rdf="http://www.w3.org/1999/02/22-rdf-syntax-ns#"
   xmlns:svg="http://www.w3.org/2000/svg"
   xmlns="http://www.w3.org/2000/svg"
   xmlns:sodipodi="http://sodipodi.sourceforge.net/DTD/sodipodi-0.dtd"
   xmlns:inkscape="http://www.inkscape.org/namespaces/inkscape"
   width="220"
   height="375"
   id="svg12260"
   version="1.1"
   inkscape:version="0.48.5 r10040"
   sodipodi:docname="Left foot.svg">
  <defs
     id="defs12262">
    <inkscape:path-effect
       effect="spiro"
       id="path-effect4116-24-1"
       is_visible="true" />
    <inkscape:path-effect
       effect="spiro"
       id="path-effect4116-0-5-6"
       is_visible="true" />
    <inkscape:path-effect
       effect="spiro"
       id="path-effect4164-8-40-1"
       is_visible="true" />
    <inkscape:path-effect
       effect="spiro"
       id="path-effect4164-17-6"
       is_visible="true" />
    <inkscape:path-effect
       effect="spiro"
       id="path-effect4172-8-3"
       is_visible="true" />
    <inkscape:path-effect
       effect="spiro"
       id="path-effect4170-8-3"
       is_visible="true" />
    <inkscape:path-effect
       effect="spiro"
       id="path-effect4172-4-4-5"
       is_visible="true" />
    <inkscape:path-effect
       effect="spiro"
       id="path-effect4170-5-9-5"
       is_visible="true" />
    <inkscape:path-effect
       effect="spiro"
       id="path-effect4172-8-3-4"
       is_visible="true" />
    <inkscape:path-effect
       effect="spiro"
       id="path-effect4170-8-3-9"
       is_visible="true" />
    <inkscape:path-effect
       effect="spiro"
       id="path-effect4172-4-4-5-1"
       is_visible="true" />
    <inkscape:path-effect
       effect="spiro"
       id="path-effect4170-5-9-5-2"
       is_visible="true" />
    <inkscape:path-effect
       effect="spiro"
       id="path-effect4116-24-1-5"
       is_visible="true" />
    <inkscape:path-effect
       effect="spiro"
       id="path-effect4116-0-5-6-0"
       is_visible="true" />
    <inkscape:path-effect
       effect="spiro"
       id="path-effect4164-8-40-1-8"
       is_visible="true" />
    <inkscape:path-effect
       effect="spiro"
       id="path-effect4164-17-6-3"
       is_visible="true" />
  </defs>
  <sodipodi:namedview
     id="base"
     pagecolor="#ffffff"
     bordercolor="#666666"
     borderopacity="1.0"
     inkscape:pageopacity="0.0"
     inkscape:pageshadow="2"
     inkscape:zoom="2.1154982"
     inkscape:cx="115.63388"
     inkscape:cy="143.48812"
     inkscape:document-units="px"
     inkscape:current-layer="g3443-8-7-2-5-7"
     showgrid="false"
     inkscape:window-width="1280"
     inkscape:window-height="961"
     inkscape:window-x="-8"
     inkscape:window-y="-8"
     inkscape:window-maximized="1" />
  <metadata
     id="metadata12265">
    <rdf:RDF>
      <cc:Work
         rdf:about="">
        <dc:format>image/svg+xml</dc:format>
        <dc:type
           rdf:resource="http://purl.org/dc/dcmitype/StillImage" />
        <dc:title></dc:title>
      </cc:Work>
    </rdf:RDF>
  </metadata>
  <g
     inkscape:label="Body"
     inkscape:groupmode="layer"
     id="layer1"
     transform="translate(0,-677.36218)">
    <g
       id="g14344"
       transform="translate(75.714285,26.785714)">
      <g
         id="g15268-9-9-1"
         transform="matrix(1.265386,0,0,1.265386,-85.242377,-262.67621)"
         style="stroke:#4d4d4d">
        <g
           style="fill:#FF52A2;fill-opacity:1;stroke:#4d4d4d"
           transform="matrix(0.1953115,0,0,0.1953115,-31.08083,627.28824)"
           id="g3443-8-7-2-5-7">
          <g
             id="g3902-4-1-1-3-52-8"
             style="color:#000000;fill:#FF52A2;fill-opacity:1;fill-rule:nonzero;stroke:#4d4d4d;stroke-width:2.29999995;stroke-linecap:butt;stroke-linejoin:miter;stroke-miterlimit:4;stroke-opacity:1;stroke-dasharray:none;stroke-dashoffset:0;marker:none;visibility:visible;display:inline;overflow:visible;enable-background:accumulate"
             transform="translate(-630.15107,-866.76678)">
            <path
               sodipodi:nodetypes="caaaaaacsssaaacaacaaacacaaacaaaaacsc"
               inkscape:connector-curvature="0"
               id="path5324-0-8-3-1-3-8"
               d="m 1339.9434,2682.3136 c 0,0 0.2853,15.1157 -0.6902,22.5836 -0.716,5.4809 -3.2913,10.6417 -3.768,16.1486 -0.8214,9.4894 2.9911,19.1041 1.6148,28.5291 -0.9923,6.7956 -5.8137,12.6134 -6.9977,19.3782 -0.5259,3.0046 -0.6606,6.173 0,9.1509 0.6433,2.8996 1.789,5.8596 3.768,8.0743 4.2393,4.7441 16.2831,9.9582 16.2831,9.9582 0,0 -0.294,3.6627 1.2566,12.7766 0.9967,5.8586 0.5469,15.0863 3.4534,18.9822 1.5256,2.0449 4.7725,4.9268 6.7967,6.4797 2.4019,1.8427 5.2948,5.3131 8.5712,7.0144 3.9595,2.056 8.4384,3.8608 12.892,3.5965 3.293,-0.1954 6.5998,-1.6766 9.1509,-3.768 0.8755,-0.7178 1.884,-2.826 1.884,-2.826 0,0 1.3376,4.1677 3.1162,5.0012 1.6816,0.7881 3.8358,0.023 5.519,-0.7613 1.6283,-0.7591 3.9966,-3.6159 3.9966,-3.6159 0,0 1.1725,1.7386 2.0934,2.0934 1.1854,0.4567 2.6577,0.3525 3.8063,-0.1903 0.8526,-0.4029 1.3296,-1.3448 1.9031,-2.0934 0.5007,-0.6536 1.3322,-2.0799 1.3322,-2.0799 0,0 2.0469,0.9378 3.045,0.6526 1.2294,-0.3514 2.7595,-2.6644 2.7595,-2.6644 0,0 3.8882,2.9655 5.8045,2.1886 2.2091,-0.8957 2.4655,-4.1584 3.045,-6.4707 0.6022,-2.403 1.0237,-5.0297 0.3807,-7.4221 -0.3928,-1.4614 -2.4741,-3.8063 -2.4741,-3.8063 0,0 0.5036,-6.0346 -0.5709,-8.7544 -2.0205,-5.1143 -6.9396,-8.5326 -10.4672,-12.7509 -4.3302,-5.1781 -9.5318,-9.7052 -13.1316,-15.4153 -5.8155,-9.2247 -10.1925,-19.433 -13.3219,-29.8791 -1.2361,-4.126 -1.7851,-8.4547 -2.0934,-12.7509 -1.1671,-16.2647 0.9516,-48.9103 0.9516,-48.9103 0,0 -19.3894,-0.095 -30.6403,-3.2353 -5.0697,-1.415 -19.2685,-5.2136 -19.2685,-5.2136 z"
               style="color:#000000;fill:#FF52A2;fill-opacity:1;fill-rule:nonzero;stroke:#4d4d4d;stroke-width:2.29999995;stroke-linecap:butt;stroke-linejoin:miter;stroke-miterlimit:4;stroke-opacity:1;stroke-dasharray:none;stroke-dashoffset:0;marker:none;visibility:visible;display:inline;overflow:visible;enable-background:accumulate" />
            <path
               sodipodi:nodetypes="caac"
               inkscape:connector-curvature="0"
               id="path5326-9-6-2-2-1-2"
               d="m 1342.5863,2773.0147 c 0,0 2.3141,3.9294 3.1134,6.0528 1.1058,2.9375 1.4506,6.1089 2.2837,9.135 0.7094,2.5768 2.3108,7.6779 2.3108,7.6779"
               style="color:#000000;fill:#FF52A2;fill-opacity:1;fill-rule:nonzero;stroke:#4d4d4d;stroke-width:2.29999995;stroke-linecap:butt;stroke-linejoin:miter;stroke-miterlimit:4;stroke-opacity:1;stroke-dasharray:none;stroke-dashoffset:0;marker:none;visibility:visible;display:inline;overflow:visible;enable-background:accumulate" />
            <path
               sodipodi:nodetypes="caac"
               inkscape:connector-curvature="0"
               id="path5328-4-2-1-3-6-4"
               d="m 1385.0944,2820.5556 c 0.9515,0.5709 5.2153,5.3511 7.0415,8.5641 0.8329,1.4654 1.3481,3.1122 1.7128,4.7578 0.3032,1.3682 0.3807,4.1868 0.3807,4.1868"
               style="color:#000000;fill:#FF52A2;fill-opacity:1;fill-rule:nonzero;stroke:#4d4d4d;stroke-width:2.29999995;stroke-linecap:butt;stroke-linejoin:miter;stroke-miterlimit:4;stroke-opacity:1;stroke-dasharray:none;stroke-dashoffset:0;marker:none;visibility:visible;display:inline;overflow:visible;enable-background:accumulate" />
            <path
               sodipodi:nodetypes="caaac"
               inkscape:connector-curvature="0"
               id="path5330-8-1-63-3-8-5"
               d="m 1400.7326,2820.9092 c 0,0 3.3352,5.193 4.5349,8.0201 0.6979,1.6445 1.1109,3.4001 1.5225,5.1385 0.1985,0.8384 0.5118,1.6847 0.4551,2.5444 -0.047,0.7063 -0.6454,2.0231 -0.6454,2.0231"
               style="color:#000000;fill:#FF52A2;fill-opacity:1;fill-rule:nonzero;stroke:#4d4d4d;stroke-width:2.29999995;stroke-linecap:butt;stroke-linejoin:miter;stroke-miterlimit:4;stroke-opacity:1;stroke-dasharray:none;stroke-dashoffset:0;marker:none;visibility:visible;display:inline;overflow:visible;enable-background:accumulate" />
            <path
               sodipodi:nodetypes="cscc"
               inkscape:connector-curvature="0"
               id="path5332-8-4-8-4-8-5"
               d="m 1411.1767,2818.2081 c 0,0 3.6064,9.0084 3.7967,9.96 0.1903,0.9516 1.3322,4.1869 1.5225,4.9481 0.1903,0.7613 -0.7382,4.0005 -0.7382,4.0005"
               style="color:#000000;fill:#FF52A2;fill-opacity:1;fill-rule:nonzero;stroke:#4d4d4d;stroke-width:2.29999995;stroke-linecap:butt;stroke-linejoin:miter;stroke-miterlimit:4;stroke-opacity:1;stroke-dasharray:none;stroke-dashoffset:0;marker:none;visibility:visible;display:inline;overflow:visible;enable-background:accumulate" />
            <path
               sodipodi:nodetypes="caac"
               inkscape:connector-curvature="0"
               id="path5334-2-6-3-1-2-1"
               d="m 1421.777,2834.7814 c 0,0 0.8635,-3.2399 0.9041,-4.9005 0.083,-3.4083 -0.643,-6.8042 -1.3621,-10.1367 -0.2794,-1.2948 -1.1419,-3.8062 -1.1419,-3.8062"
               style="color:#000000;fill:#FF52A2;fill-opacity:1;fill-rule:nonzero;stroke:#4d4d4d;stroke-width:2.29999995;stroke-linecap:butt;stroke-linejoin:miter;stroke-miterlimit:4;stroke-opacity:1;stroke-dasharray:none;stroke-dashoffset:0;marker:none;visibility:visible;display:inline;overflow:visible;enable-background:accumulate" />
          </g>
          <text
             xml:space="preserve"
             style="font-size:44.5083847px;font-style:normal;font-variant:normal;font-weight:normal;font-stretch:normal;text-indent:0;text-align:end;text-decoration:none;line-height:89.99999762%;letter-spacing:0px;word-spacing:0px;text-transform:none;direction:ltr;block-progression:tb;writing-mode:lr-tb;text-anchor:end;baseline-shift:baseline;color:#000000;fill:#000000;fill-opacity:1;fill-rule:nonzero;stroke:none;stroke-width:1;marker:none;visibility:visible;display:inline;overflow:visible;enable-background:accumulate;font-family:Poppins;-inkscape-font-specification:Poppins"
             x="1074.225"
             y="1966.2827"
             id="text8862-4-1-1-3-2-2"
             sodipodi:linespacing="89.999998%"><tspan
               id="tspan5436-3-1"
               sodipodi:role="line"
               x="1074.225"
               y="1966.2827">Left Foot</tspan></text>
          <path
             inkscape:connector-curvature="0"
             id="path11926-2"
             d="m 876.1774,1950.2399 -96.11137,0"
             style="fill:none;stroke:#4d4d4d;stroke-width:3.23697352;stroke-linecap:butt;stroke-linejoin:miter;stroke-miterlimit:4;stroke-opacity:1;stroke-dasharray:none" />
        </g>
      </g>
    </g>
  </g>
</svg>
