<?xml version="1.0" encoding="UTF-8" standalone="no"?>
<!-- Created with Inkscape (http://www.inkscape.org/) -->

<svg
   xmlns:dc="http://purl.org/dc/elements/1.1/"
   xmlns:cc="http://creativecommons.org/ns#"
   xmlns:rdf="http://www.w3.org/1999/02/22-rdf-syntax-ns#"
   xmlns:svg="http://www.w3.org/2000/svg"
   xmlns="http://www.w3.org/2000/svg"
   xmlns:sodipodi="http://sodipodi.sourceforge.net/DTD/sodipodi-0.dtd"
   xmlns:inkscape="http://www.inkscape.org/namespaces/inkscape"
   width="220"
   height="375"
   id="svg12260"
   version="1.1"
   inkscape:version="0.48.5 r10040"
   sodipodi:docname="Left abs.svg">
  <defs
     id="defs12262">
    <inkscape:path-effect
       effect="spiro"
       id="path-effect4116-24-1"
       is_visible="true" />
    <inkscape:path-effect
       effect="spiro"
       id="path-effect4116-0-5-6"
       is_visible="true" />
    <inkscape:path-effect
       effect="spiro"
       id="path-effect4164-8-40-1"
       is_visible="true" />
    <inkscape:path-effect
       effect="spiro"
       id="path-effect4164-17-6"
       is_visible="true" />
    <inkscape:path-effect
       effect="spiro"
       id="path-effect4172-8-3"
       is_visible="true" />
    <inkscape:path-effect
       effect="spiro"
       id="path-effect4170-8-3"
       is_visible="true" />
    <inkscape:path-effect
       effect="spiro"
       id="path-effect4172-4-4-5"
       is_visible="true" />
    <inkscape:path-effect
       effect="spiro"
       id="path-effect4170-5-9-5"
       is_visible="true" />
    <inkscape:path-effect
       effect="spiro"
       id="path-effect4172-8-3-4"
       is_visible="true" />
    <inkscape:path-effect
       effect="spiro"
       id="path-effect4170-8-3-9"
       is_visible="true" />
    <inkscape:path-effect
       effect="spiro"
       id="path-effect4172-4-4-5-1"
       is_visible="true" />
    <inkscape:path-effect
       effect="spiro"
       id="path-effect4170-5-9-5-2"
       is_visible="true" />
    <inkscape:path-effect
       effect="spiro"
       id="path-effect4116-24-1-5"
       is_visible="true" />
    <inkscape:path-effect
       effect="spiro"
       id="path-effect4116-0-5-6-0"
       is_visible="true" />
    <inkscape:path-effect
       effect="spiro"
       id="path-effect4164-8-40-1-8"
       is_visible="true" />
    <inkscape:path-effect
       effect="spiro"
       id="path-effect4164-17-6-3"
       is_visible="true" />
  </defs>
  <sodipodi:namedview
     id="base"
     pagecolor="#ffffff"
     bordercolor="#666666"
     borderopacity="1.0"
     inkscape:pageopacity="0.0"
     inkscape:pageshadow="2"
     inkscape:zoom="2.1154982"
     inkscape:cx="115.63388"
     inkscape:cy="219.12042"
     inkscape:document-units="px"
     inkscape:current-layer="g15268-9-9-1"
     showgrid="false"
     inkscape:window-width="1280"
     inkscape:window-height="961"
     inkscape:window-x="-8"
     inkscape:window-y="-8"
     inkscape:window-maximized="1" />
  <metadata
     id="metadata12265">
    <rdf:RDF>
      <cc:Work
         rdf:about="">
        <dc:format>image/svg+xml</dc:format>
        <dc:type
           rdf:resource="http://purl.org/dc/dcmitype/StillImage" />
        <dc:title></dc:title>
      </cc:Work>
    </rdf:RDF>
  </metadata>
  <g
     inkscape:label="Body"
     inkscape:groupmode="layer"
     id="layer1"
     transform="translate(0,-677.36218)">
    <g
       id="g14344"
       transform="translate(75.714285,26.785714)">
      <g
         id="g15268-9-9-1"
         transform="matrix(1.265386,0,0,1.265386,-85.242377,-262.67621)"
         style="stroke:#4d4d4d">
        <g
           style="fill:#FF52A2;fill-opacity:1;stroke:#4d4d4d"
           transform="matrix(0.1953115,0,0,0.1953115,-31.08083,627.28824)"
           id="g3443-8-7-2-5-7">
          <path
             style="color:#000000;fill:#FF52A2;fill-opacity:1;fill-rule:nonzero;stroke:#4d4d4d;stroke-width:2.29999995;stroke-linecap:butt;stroke-linejoin:miter;stroke-miterlimit:4;stroke-opacity:1;stroke-dasharray:none;stroke-dashoffset:0;marker:none;visibility:visible;display:inline;overflow:visible;enable-background:accumulate"
             d="m 722.23043,925.64787 c 0.027,3.197 1.2358,8.4763 1.536,12.7448 1.6056,22.8237 2.0622,45.7551 1.4083,68.62583 -0.4295,15.0215 -3.4988,44.9468 -3.4988,44.9468 0,0 -2.1075,18.1648 -0.2692,27.1833 1.0486,5.1446 10.54777,4.1921 15.6102,2.6914 9.75602,-2.892 22.39642,-20.7435 22.39642,-20.7435 0,0 -2.14865,-13.7831 -1.64478,-21.118 0.27402,-3.9891 0.26418,-8.5702 0.5216,-12.5343 0.32474,-5.001 0.98633,-9.3741 2.1914,-14.2915 1.18761,-4.8461 3.01378,-8.9369 4.07001,-13.79463 1.66116,-7.6398 2.88095,-15.418 5.34695,-22.8372 4.03981,-12.1541 11.3759,-23.0454 15.3794,-35.2115 4.1658,-12.6594 8.8817,-38.9827 8.8817,-38.9827 0,0 -2.6028,-13.5619 -3.9909,-22.5982 -1.3882,-9.0364 -4.1379,-31.637 -4.1379,-31.637 0,0 0.6871,10.1954 -2.1993,21.6844 -1.3602,5.4141 -2.9963,9.4769 -4.5862,13.3526 -1.9794,4.8252 -6.9512,11.8097 -10.3608,15.1699 -5.4192,5.3407 -11.5032,8.4182 -18.6611,11.0559 -0.4108,0.1514 -12.6086,3.7261 -19.0305,5.1011 -3.1985,0.6848 -9.6878,1.5631 -9.6878,1.5631 0,0 0.6987,6.4324 0.7253,9.6294 z"
             id="path3725-4-3-1-4-2-8"
             inkscape:connector-curvature="0"
             sodipodi:nodetypes="zaacsacssssaaczcssssacz" />
          <path
             style="color:#000000;fill:#FF52A2;fill-opacity:1;fill-rule:nonzero;stroke:#4d4d4d;stroke-width:2.29999995;stroke-linecap:butt;stroke-linejoin:miter;stroke-miterlimit:4;stroke-opacity:1;stroke-dasharray:none;stroke-dashoffset:0;marker:none;visibility:visible;display:inline;overflow:visible;enable-background:accumulate"
             d="m 674.19273,901.51447 c 0,0 -9.16295,-0.4337 -13.5938,0.5313 -2.8389,0.6183 -8.0624,3.3125 -8.0624,3.3125 l 0,21.2188 0,22.1874 c 0,0 5.6058,4.2206 8.5937,6.0626 8.5061,5.244 17.8292,9.0503 26.4375,14.125 7.9111,4.6637 14.8279,11.0324 23.125,14.9687 1.3633,0.6468 3.3356,1.3363 5.25,1.9375 -0.019,-0.101 -0.094,-0.5625 -0.094,-0.5625 0,0 2.4586,-5.7139 3.0313,-8.75 1.5416,-8.1722 1.7115,-16.6544 0.9687,-24.9375 -0.7367,-8.2171 -2.7672,-16.3501 -5.3437,-24.1875 -1.3658,-4.1547 -5.3125,-11.9687 -5.3125,-11.9687 0,0 -5.8624,-1.5753 -8.75,-2.5 -5.1581,-1.652 -10.3716,-3.2502 -15.3125,-5.4688 -3.7915,-1.7025 -10.9375,-5.9688 -10.9375,-5.9688 z"
             id="path3752-07-0-6-3-7"
             inkscape:connector-curvature="0"
             sodipodi:nodetypes="cacccsscccscsccscc" />
          <path
             style="color:#000000;fill:#FF52A2;fill-opacity:1;fill-rule:nonzero;stroke:#4d4d4d;stroke-width:2.29999995;stroke-linecap:butt;stroke-linejoin:miter;stroke-miterlimit:4;stroke-opacity:1;stroke-dasharray:none;stroke-dashoffset:0;marker:none;visibility:visible;display:inline;overflow:visible;enable-background:accumulate"
             d="m 652.25523,1009.4521 c 0,0 -0.076,0.1499 -0.094,0.1874 l 0,29.6876 0,24.375 c 0,0 4.9346,7.8276 8.6874,10.2812 3.5449,2.3175 7.9949,2.8607 12.1563,3.5938 11.2133,1.9755 23.3592,5.8898 34.0937,2.0937 1.6401,-0.58 2.9101,-2.0596 3.85,-3.5235 1.893,-2.9483 2.5368,-6.5686 3.2254,-10.0039 1.3111,-6.5404 0.885,-12.7889 1.6746,-19.9413 0.4602,-4.1694 0.7102,-8.3678 0.75,-12.5626 0.028,-2.9083 -0.3102,-8.3305 -0.3437,-8.8437 -3.2259,-0.1058 -6.4039,-1.1652 -9.625,-1.625 -7.7317,-1.1037 -15.5317,-1.6777 -23.272,-2.7197 -6.4359,-0.8665 -12.9442,-1.423 -19.2593,-2.9366 -2.4858,-0.5958 -5.1834,-0.9507 -7.2812,-2.4062 -1.9898,-1.3805 -4.5625,-5.6562 -4.5625,-5.6562 z"
             id="path3792-8-2-6-2-2"
             inkscape:connector-curvature="0"
             sodipodi:nodetypes="cccccaaaacccaaaccc" />
          <path
             inkscape:connector-curvature="0"
             style="color:#000000;fill:#FF52A2;fill-opacity:1;fill-rule:nonzero;stroke:#4d4d4d;stroke-width:2.29999995;stroke-linecap:butt;stroke-linejoin:miter;stroke-miterlimit:4;stroke-opacity:1;stroke-dasharray:none;stroke-dashoffset:0;marker:none;visibility:visible;display:inline;overflow:visible;enable-background:accumulate"
             d="m 652.53653,948.76447 c 0,0 -0.2646,0.1467 -0.2813,0.1563 l 0,35.2187 0,25.31263 c 0,0 2.5727,4.2757 4.5625,5.6562 2.0978,1.4555 4.7954,1.8104 7.2812,2.4062 6.3151,1.5136 12.8234,2.0701 19.2593,2.9366 7.7403,1.042 15.5403,1.616 23.272,2.7197 3.2211,0.4598 6.3991,1.5192 9.625,1.625 0,-0.024 -0.031,-0.3125 -0.031,-0.3125 0,0 2.3034,-12.3932 2.2813,-18.6562 -0.023,-6.47803 -2.2738,-18.45013 -2.5625,-19.96883 -1.9144,-0.6012 -3.8867,-1.2907 -5.25,-1.9375 -8.2971,-3.9363 -15.2139,-10.3051 -23.125,-14.9687 -8.6083,-5.0748 -17.9314,-8.8812 -26.4375,-14.125 -2.9879,-1.8421 -8.5937,-6.0626 -8.5937,-6.0626 z"
             id="path3772-2-2-20-7-7-6"
             sodipodi:nodetypes="cccccaaaccccccccc" />
          <text
             xml:space="preserve"
             style="font-size:44.5083847px;font-style:normal;font-variant:normal;font-weight:normal;font-stretch:normal;text-indent:0;text-align:end;text-decoration:none;line-height:91.00000262%;letter-spacing:0px;word-spacing:0px;text-transform:none;direction:ltr;block-progression:tb;writing-mode:lr-tb;text-anchor:end;baseline-shift:baseline;color:#000000;fill:#000000;fill-opacity:1;fill-rule:nonzero;stroke:none;stroke-width:1;marker:none;visibility:visible;display:inline;overflow:visible;enable-background:accumulate;font-family:Poppins;-inkscape-font-specification:Poppins"
             x="1072.5313"
             y="1036.5256"
             id="text8834-7-8-1-5-0-6"
             sodipodi:linespacing="91.000003%"><tspan
               sodipodi:role="line"
               id="tspan8836-6-9-6-8-5-1"
               x="1083.4845"
               y="1036.5256">Left </tspan><tspan
               sodipodi:role="line"
               x="1072.5313"
               y="1077.0282"
               id="tspan10430-8-4-6-4-2">Abs</tspan></text>
          <path
             sodipodi:nodetypes="ccc"
             inkscape:connector-curvature="0"
             id="path11998-8-9-4-5"
             d="m 701.9831,1004.1795 216.73518,35.5246 57.9712,0"
             style="color:#000000;fill:none;stroke:#4d4d4d;stroke-width:3.23697352;stroke-linecap:butt;stroke-linejoin:miter;stroke-miterlimit:4;stroke-opacity:1;stroke-dasharray:none;stroke-dashoffset:0;marker:none;visibility:visible;display:inline;overflow:visible;enable-background:accumulate" />
        </g>
      </g>
    </g>
  </g>
</svg>
