<?xml version="1.0" encoding="UTF-8" standalone="no"?>
<!-- Created with Inkscape (http://www.inkscape.org/) -->

<svg
   xmlns:dc="http://purl.org/dc/elements/1.1/"
   xmlns:cc="http://creativecommons.org/ns#"
   xmlns:rdf="http://www.w3.org/1999/02/22-rdf-syntax-ns#"
   xmlns:svg="http://www.w3.org/2000/svg"
   xmlns="http://www.w3.org/2000/svg"
   xmlns:sodipodi="http://sodipodi.sourceforge.net/DTD/sodipodi-0.dtd"
   xmlns:inkscape="http://www.inkscape.org/namespaces/inkscape"
   width="220"
   height="375"
   id="svg12260"
   version="1.1"
   inkscape:version="0.48.5 r10040"
   sodipodi:docname="Right arm.svg">
  <defs
     id="defs12262">
    <inkscape:path-effect
       effect="spiro"
       id="path-effect4116-24-1"
       is_visible="true" />
    <inkscape:path-effect
       effect="spiro"
       id="path-effect4116-0-5-6"
       is_visible="true" />
    <inkscape:path-effect
       effect="spiro"
       id="path-effect4164-8-40-1"
       is_visible="true" />
    <inkscape:path-effect
       effect="spiro"
       id="path-effect4164-17-6"
       is_visible="true" />
    <inkscape:path-effect
       effect="spiro"
       id="path-effect4172-8-3"
       is_visible="true" />
    <inkscape:path-effect
       effect="spiro"
       id="path-effect4170-8-3"
       is_visible="true" />
    <inkscape:path-effect
       effect="spiro"
       id="path-effect4172-4-4-5"
       is_visible="true" />
    <inkscape:path-effect
       effect="spiro"
       id="path-effect4170-5-9-5"
       is_visible="true" />
    <inkscape:path-effect
       effect="spiro"
       id="path-effect4172-8-3-4"
       is_visible="true" />
    <inkscape:path-effect
       effect="spiro"
       id="path-effect4170-8-3-9"
       is_visible="true" />
    <inkscape:path-effect
       effect="spiro"
       id="path-effect4172-4-4-5-1"
       is_visible="true" />
    <inkscape:path-effect
       effect="spiro"
       id="path-effect4170-5-9-5-2"
       is_visible="true" />
    <inkscape:path-effect
       effect="spiro"
       id="path-effect4116-24-1-5"
       is_visible="true" />
    <inkscape:path-effect
       effect="spiro"
       id="path-effect4116-0-5-6-0"
       is_visible="true" />
    <inkscape:path-effect
       effect="spiro"
       id="path-effect4164-8-40-1-8"
       is_visible="true" />
    <inkscape:path-effect
       effect="spiro"
       id="path-effect4164-17-6-3"
       is_visible="true" />
  </defs>
  <sodipodi:namedview
     id="base"
     pagecolor="#ffffff"
     bordercolor="#666666"
     borderopacity="1.0"
     inkscape:pageopacity="0.0"
     inkscape:pageshadow="2"
     inkscape:zoom="2.1154982"
     inkscape:cx="115.63388"
     inkscape:cy="242.00544"
     inkscape:document-units="px"
     inkscape:current-layer="g3443-8-7-2-5-7"
     showgrid="false"
     inkscape:window-width="1280"
     inkscape:window-height="961"
     inkscape:window-x="-8"
     inkscape:window-y="-8"
     inkscape:window-maximized="1" />
  <metadata
     id="metadata12265">
    <rdf:RDF>
      <cc:Work
         rdf:about="">
        <dc:format>image/svg+xml</dc:format>
        <dc:type
           rdf:resource="http://purl.org/dc/dcmitype/StillImage" />
        <dc:title></dc:title>
      </cc:Work>
    </rdf:RDF>
  </metadata>
  <g
     inkscape:label="Body"
     inkscape:groupmode="layer"
     id="layer1"
     transform="translate(0,-677.36218)">
    <g
       id="g14344"
       transform="translate(75.714285,26.785714)">
      <g
         id="g15268-9-9-1"
         transform="matrix(1.265386,0,0,1.265386,-85.242377,-262.67621)"
         style="stroke:#4d4d4d">
        <g
           style="fill:#FF52A2;fill-opacity:1;stroke:#4d4d4d"
           transform="matrix(0.1953115,0,0,0.1953115,-31.08083,627.28824)"
           id="g3443-8-7-2-5-7">
          <path
             style="color:#000000;fill:#FF52A2;fill-opacity:1;fill-rule:nonzero;stroke:#4d4d4d;stroke-width:2.29999995;stroke-linecap:butt;stroke-linejoin:miter;stroke-miterlimit:4;stroke-opacity:1;stroke-dasharray:none;stroke-dashoffset:0;marker:none;visibility:visible;display:inline;overflow:visible;enable-background:accumulate"
             d="m 429.50893,978.05667 c 0,0 7.6125,22.07633 7.9931,25.12133 0.3807,3.045 8.4008,19.7463 8.4008,19.7463"
             id="path3538-5-4-5-7-4-1"
             inkscape:connector-curvature="0"
             sodipodi:nodetypes="ccc" />
          <path
             style="color:#000000;fill:#FF52A2;fill-opacity:1;fill-rule:nonzero;stroke:#4d4d4d;stroke-width:2.29999995;stroke-linecap:butt;stroke-linejoin:miter;stroke-miterlimit:4;stroke-opacity:1;stroke-dasharray:none;stroke-dashoffset:0;marker:none;visibility:visible;display:inline;overflow:visible;enable-background:accumulate"
             d="m 456.53333,1002.0361 c 0,0 14.4853,-12.46853 20.5537,-19.79253 5.321,-6.4221 13.7025,-20.9344 13.7025,-20.9344"
             id="path3540-2-9-4-9-6-4"
             inkscape:connector-curvature="0"
             sodipodi:nodetypes="cac" />
          <path
             style="color:#000000;fill:#FF52A2;fill-opacity:1;fill-rule:nonzero;stroke:#4d4d4d;stroke-width:2.29999995;stroke-linecap:butt;stroke-linejoin:miter;stroke-miterlimit:4;stroke-opacity:1;stroke-dasharray:none;stroke-dashoffset:0;marker:none;visibility:visible;display:inline;overflow:visible;enable-background:accumulate"
             d="m 445.34243,870.83227 c 0,2.6915 1.2073,16.1417 1.0766,24.2229 -0.076,4.6783 -1.0766,13.9954 -1.0766,13.9954"
             id="path3542-7-2-6-3-0-2"
             inkscape:connector-curvature="0"
             sodipodi:nodetypes="cac" />
          <path
             style="color:#000000;fill:#FF52A2;fill-opacity:1;fill-rule:nonzero;stroke:#4d4d4d;stroke-width:2.29999995;stroke-linecap:butt;stroke-linejoin:miter;stroke-miterlimit:4;stroke-opacity:1;stroke-dasharray:none;stroke-dashoffset:0;marker:none;visibility:visible;display:inline;overflow:visible;enable-background:accumulate"
             d="m 507.71105,815.11937 c 0,0 -11.67439,10.37713 -17.37786,17.07775 -8.95693,10.5227 -17.06208,21.86 -23.7623,33.94563 -5.46817,9.86324 -9.30067,20.56658 -13.21615,31.14265 -1.41729,3.8281 -3.7168,11.68008 -3.7168,11.68008 0,0 0.85173,-16.24416 0.16588,-24.32543 -0.51,-6.01333 -3.19,-17.85259 -3.19,-17.85259 0,0 -7.62419,26.33792 -10.01318,39.80307 -1.97943,11.15677 -2.42242,22.53553 -3.54105,33.81118 -0.73592,7.41702 -1.86182,19.75322 -2.16164,23.0253 -0.0113,-0.0141 -0.19104,-0.39106 -0.19104,-0.39106 0,0 -8.84725,19.36176 -11.97258,29.9361 -3.12535,10.57425 -4.96483,22.06695 -6.5381,33.25735 -2.40867,17.1323 -2.60361,34.5261 -4.39152,51.7343 -2.14218,20.6167 -5.31141,41.1063 -7.59879,61.7073 -0.8562,7.7122 -2.30627,23.1634 -2.30627,23.1634 l -5.94309,9.1768 0.0552,6.7395 c 0,0 16.92991,8.322 26.03727,10.4309 7.61548,1.7637 22.23346,-0.2784 22.23346,-0.2784 0,0 3.45461,-17.4454 6.20659,-26.7981 4.06688,-13.8211 10.46982,-26.8812 16.78652,-39.8298 5.46581,-11.2043 13.51097,-21.0926 18.19822,-32.6442 7.78972,-19.1977 12.7416,-39.5954 16.12007,-60.036 1.34693,-8.1495 0.76464,-16.5161 1.60465,-24.7333 1.7971,-17.58022 7.30286,-52.52199 7.30286,-52.52199 0,0 5.61563,-20.21188 5.95882,-21.56878 2.44322,-9.70672 4.28464,-19.65279 4.97204,-29.63853 1.38238,-20.08227 0.44093,-40.21218 -2.19091,-60.16919 -1.20922,-9.16987 -7.5303,-25.84394 -7.5303,-25.84394 z"
             id="path3548-8-5-86-1-8-6"
             inkscape:connector-curvature="0"
             sodipodi:nodetypes="cssscccscccsssccccccsssssccssc" />
          <text
             xml:space="preserve"
             style="font-size:44.5083847px;font-style:normal;font-variant:normal;font-weight:normal;font-stretch:normal;text-indent:0;text-align:start;text-decoration:none;line-height:89.99999762%;letter-spacing:0px;word-spacing:0px;text-transform:none;direction:ltr;block-progression:tb;writing-mode:lr-tb;text-anchor:start;baseline-shift:baseline;color:#000000;fill:#000000;fill-opacity:1;fill-rule:nonzero;stroke:none;stroke-width:1;marker:none;visibility:visible;display:inline;overflow:visible;enable-background:accumulate;font-family:Poppins;-inkscape-font-specification:Poppins"
             x="211.68219"
             y="733.39246"
             id="text8830-2-3-6-8-0"
             sodipodi:linespacing="89.999998%"><tspan
               sodipodi:role="line"
               x="211.68219"
               y="733.39246"
               id="tspan10402-2-8-5-6-7">Right</tspan><tspan
               id="tspan13946-5-3-0-8"
               sodipodi:role="line"
               x="211.68219"
               y="773.45001">Arm</tspan></text>
          <path
             sodipodi:nodetypes="ccc"
             inkscape:connector-curvature="0"
             id="path11998-4-9-1"
             d="m 499.98572,839.85909 -66.799,-119.4493 -94.87149,0"
             style="color:#000000;fill:none;stroke:#4d4d4d;stroke-width:3.23697352;stroke-linecap:butt;stroke-linejoin:miter;stroke-miterlimit:4;stroke-opacity:1;stroke-dasharray:none;stroke-dashoffset:0;marker:none;visibility:visible;display:inline;overflow:visible;enable-background:accumulate" />
        </g>
      </g>
    </g>
  </g>
</svg>
