<?xml version="1.0" encoding="UTF-8" standalone="no"?>
<!-- Created with Inkscape (http://www.inkscape.org/) -->

<svg
   xmlns:dc="http://purl.org/dc/elements/1.1/"
   xmlns:cc="http://creativecommons.org/ns#"
   xmlns:rdf="http://www.w3.org/1999/02/22-rdf-syntax-ns#"
   xmlns:svg="http://www.w3.org/2000/svg"
   xmlns="http://www.w3.org/2000/svg"
   xmlns:sodipodi="http://sodipodi.sourceforge.net/DTD/sodipodi-0.dtd"
   xmlns:inkscape="http://www.inkscape.org/namespaces/inkscape"
   width="220"
   height="375"
   id="svg12260"
   version="1.1"
   inkscape:version="0.48.5 r10040"
   sodipodi:docname="Right back.svg">
  <defs
     id="defs12262">
    <inkscape:path-effect
       effect="spiro"
       id="path-effect4116-24-1"
       is_visible="true" />
    <inkscape:path-effect
       effect="spiro"
       id="path-effect4116-0-5-6"
       is_visible="true" />
    <inkscape:path-effect
       effect="spiro"
       id="path-effect4164-8-40-1"
       is_visible="true" />
    <inkscape:path-effect
       effect="spiro"
       id="path-effect4164-17-6"
       is_visible="true" />
    <inkscape:path-effect
       effect="spiro"
       id="path-effect4172-8-3"
       is_visible="true" />
    <inkscape:path-effect
       effect="spiro"
       id="path-effect4170-8-3"
       is_visible="true" />
    <inkscape:path-effect
       effect="spiro"
       id="path-effect4172-4-4-5"
       is_visible="true" />
    <inkscape:path-effect
       effect="spiro"
       id="path-effect4170-5-9-5"
       is_visible="true" />
    <inkscape:path-effect
       effect="spiro"
       id="path-effect4172-8-3-4"
       is_visible="true" />
    <inkscape:path-effect
       effect="spiro"
       id="path-effect4170-8-3-9"
       is_visible="true" />
    <inkscape:path-effect
       effect="spiro"
       id="path-effect4172-4-4-5-1"
       is_visible="true" />
    <inkscape:path-effect
       effect="spiro"
       id="path-effect4170-5-9-5-2"
       is_visible="true" />
    <inkscape:path-effect
       effect="spiro"
       id="path-effect4116-24-1-5"
       is_visible="true" />
    <inkscape:path-effect
       effect="spiro"
       id="path-effect4116-0-5-6-0"
       is_visible="true" />
    <inkscape:path-effect
       effect="spiro"
       id="path-effect4164-8-40-1-8"
       is_visible="true" />
    <inkscape:path-effect
       effect="spiro"
       id="path-effect4164-17-6-3"
       is_visible="true" />
  </defs>
  <sodipodi:namedview
     id="base"
     pagecolor="#ffffff"
     bordercolor="#666666"
     borderopacity="1.0"
     inkscape:pageopacity="0.0"
     inkscape:pageshadow="2"
     inkscape:zoom="2.1154982"
     inkscape:cx="115.63388"
     inkscape:cy="175.89488"
     inkscape:document-units="px"
     inkscape:current-layer="g3443-8-7-2-5-7"
     showgrid="false"
     inkscape:window-width="1280"
     inkscape:window-height="961"
     inkscape:window-x="-8"
     inkscape:window-y="-8"
     inkscape:window-maximized="1" />
  <metadata
     id="metadata12265">
    <rdf:RDF>
      <cc:Work
         rdf:about="">
        <dc:format>image/svg+xml</dc:format>
        <dc:type
           rdf:resource="http://purl.org/dc/dcmitype/StillImage" />
        <dc:title></dc:title>
      </cc:Work>
    </rdf:RDF>
  </metadata>
  <g
     inkscape:label="Body"
     inkscape:groupmode="layer"
     id="layer1"
     transform="translate(0,-677.36218)">
    <g
       id="g14344"
       transform="translate(75.714285,26.785714)">
      <g
         id="g15268-9-9-1"
         transform="matrix(1.265386,0,0,1.265386,-85.242377,-262.67621)"
         style="stroke:#4d4d4d">
        <g
           style="fill:#FF52A2;fill-opacity:1;stroke:#4d4d4d"
           transform="matrix(0.1953115,0,0,0.1953115,-31.08083,627.28824)"
           id="g3443-8-7-2-5-7">
          <path
             style="color:#000000;fill:#FF52A2;stroke:#6bba36;stroke-width:5.26008176;stroke-linecap:butt;stroke-linejoin:miter;stroke-miterlimit:4;stroke-opacity:1;stroke-dasharray:none;stroke-dashoffset:0;marker:none;visibility:visible;display:inline;overflow:visible;enable-background:accumulate;fill-opacity:1;fill-rule:nonzero"
             d="m 649.2085,690.46042 c 0,0 -18.04718,-1.08924 -26.77204,-5.97802 -5.60765,-3.1421 -15.77321,-14.11093 -15.77321,-14.11093 l -1.67436,42.30369 c 0,0 -12.75099,12.42464 -20.31325,16.96952 -12.58972,7.56638 -33.21846,15.2068 -40.81734,16.60435 -13.37499,2.45985 -33.06542,0.54794 -45.48142,5.86582 -8.32993,3.56779 -14.09981,6.96368 -19.83497,12.19234 -10.00909,9.12512 -18.77631,20.17581 -24.37917,32.50698 -4.80674,10.57899 -5.96626,22.54859 -7.24898,34.09738 -1.45785,13.1255 -0.46572,39.61591 -0.46572,39.61591 0,0 15.86414,2.66394 23.48912,0.86215 9.2059,-2.17537 24.89369,-13.62463 24.89369,-13.62463 0,0 3.8796,20.69332 6.65811,30.8347 2.05014,7.48291 5.07504,14.66693 7.36968,22.07855 2.41675,7.806 3.56259,16.04078 6.73517,23.57135 2.24092,5.31916 6.21829,9.77263 8.59084,15.03437 6.7155,14.89336 12.55194,30.38531 15.79295,46.39797 1.55305,7.67308 0.94755,15.63138 1.67385,23.42628 0.64726,6.9468 2.78195,13.8277 2.39099,20.7936 -0.51058,9.097 -4.61549,17.6525 -6.1415,26.6351 -1.61882,9.5289 -3.02105,19.1572 -3.18138,28.8213 -0.0517,3.1158 -0.62081,6.5065 0.7169,9.321 1.88703,3.9701 5.94367,6.5836 9.55719,9.0867 9.60696,6.6547 21.37,9.5516 31.54757,15.2959 16.30191,9.2008 33.96683,17.2487 47.08997,30.5975 11.26729,11.461 25.57731,40.8725 25.57731,40.8725 z"
             id="path3324"
             inkscape:connector-curvature="0"
             sodipodi:nodetypes="csccassaaacacaaaaaaaaaaaaacc" />
          <path
             sodipodi:nodetypes="ccc"
             inkscape:connector-curvature="0"
             id="path11998-8-9-4-9-0-8"
             d="m 535.75789,1085.0757 -42.30175,41.1866 -154.48924,0"
             style="color:#000000;fill:none;stroke:#4d4d4d;stroke-width:3.23697352;stroke-linecap:butt;stroke-linejoin:miter;stroke-miterlimit:4;stroke-opacity:1;stroke-dasharray:none;stroke-dashoffset:0;marker:none;visibility:visible;display:inline;overflow:visible;enable-background:accumulate" />
          <text
             xml:space="preserve"
             style="font-size:44.5083847px;font-style:normal;font-variant:normal;font-weight:normal;font-stretch:normal;text-indent:0;text-align:start;text-decoration:none;line-height:89.99999762%;letter-spacing:0px;word-spacing:0px;text-transform:none;direction:ltr;block-progression:tb;writing-mode:lr-tb;text-anchor:start;baseline-shift:baseline;color:#000000;fill:#000000;fill-opacity:1;fill-rule:nonzero;stroke:none;stroke-width:1;marker:none;visibility:visible;display:inline;overflow:visible;enable-background:accumulate;font-family:Poppins;-inkscape-font-specification:Poppins"
             x="209.27939"
             y="1139.4772"
             id="text5830-6-1-0-5-8-9-8-9-4"
             sodipodi:linespacing="89.999998%"><tspan
               sodipodi:role="line"
               id="tspan5832-8-3-61-3-0-0-4-5-9"
               x="209.27939"
               y="1139.4772">Right </tspan><tspan
               sodipodi:role="line"
               x="209.27939"
               y="1179.5347"
               id="tspan3339-6">Back</tspan></text>
        </g>
      </g>
    </g>
  </g>
</svg>
