<?xml version="1.0" encoding="UTF-8" standalone="no"?>
<!-- Created with Inkscape (http://www.inkscape.org/) -->

<svg
   xmlns:dc="http://purl.org/dc/elements/1.1/"
   xmlns:cc="http://creativecommons.org/ns#"
   xmlns:rdf="http://www.w3.org/1999/02/22-rdf-syntax-ns#"
   xmlns:svg="http://www.w3.org/2000/svg"
   xmlns="http://www.w3.org/2000/svg"
   xmlns:sodipodi="http://sodipodi.sourceforge.net/DTD/sodipodi-0.dtd"
   xmlns:inkscape="http://www.inkscape.org/namespaces/inkscape"
   width="220"
   height="375"
   id="svg12260"
   version="1.1"
   inkscape:version="0.48.5 r10040"
   sodipodi:docname="Genitals.svg">
  <defs
     id="defs12262">
    <inkscape:path-effect
       effect="spiro"
       id="path-effect4116-24-1"
       is_visible="true" />
    <inkscape:path-effect
       effect="spiro"
       id="path-effect4116-0-5-6"
       is_visible="true" />
    <inkscape:path-effect
       effect="spiro"
       id="path-effect4164-8-40-1"
       is_visible="true" />
    <inkscape:path-effect
       effect="spiro"
       id="path-effect4164-17-6"
       is_visible="true" />
    <inkscape:path-effect
       effect="spiro"
       id="path-effect4172-8-3"
       is_visible="true" />
    <inkscape:path-effect
       effect="spiro"
       id="path-effect4170-8-3"
       is_visible="true" />
    <inkscape:path-effect
       effect="spiro"
       id="path-effect4172-4-4-5"
       is_visible="true" />
    <inkscape:path-effect
       effect="spiro"
       id="path-effect4170-5-9-5"
       is_visible="true" />
    <inkscape:path-effect
       effect="spiro"
       id="path-effect4172-8-3-4"
       is_visible="true" />
    <inkscape:path-effect
       effect="spiro"
       id="path-effect4170-8-3-9"
       is_visible="true" />
    <inkscape:path-effect
       effect="spiro"
       id="path-effect4172-4-4-5-1"
       is_visible="true" />
    <inkscape:path-effect
       effect="spiro"
       id="path-effect4170-5-9-5-2"
       is_visible="true" />
    <inkscape:path-effect
       effect="spiro"
       id="path-effect4116-24-1-5"
       is_visible="true" />
    <inkscape:path-effect
       effect="spiro"
       id="path-effect4116-0-5-6-0"
       is_visible="true" />
    <inkscape:path-effect
       effect="spiro"
       id="path-effect4164-8-40-1-8"
       is_visible="true" />
    <inkscape:path-effect
       effect="spiro"
       id="path-effect4164-17-6-3"
       is_visible="true" />
  </defs>
  <sodipodi:namedview
     id="base"
     pagecolor="#ffffff"
     bordercolor="#666666"
     borderopacity="1.0"
     inkscape:pageopacity="0.0"
     inkscape:pageshadow="2"
     inkscape:zoom="2.1154982"
     inkscape:cx="115.63388"
     inkscape:cy="143.48812"
     inkscape:document-units="px"
     inkscape:current-layer="g3443-8-7-2-5-7"
     showgrid="false"
     inkscape:window-width="1280"
     inkscape:window-height="961"
     inkscape:window-x="-8"
     inkscape:window-y="-8"
     inkscape:window-maximized="1" />
  <metadata
     id="metadata12265">
    <rdf:RDF>
      <cc:Work
         rdf:about="">
        <dc:format>image/svg+xml</dc:format>
        <dc:type
           rdf:resource="http://purl.org/dc/dcmitype/StillImage" />
        <dc:title></dc:title>
      </cc:Work>
    </rdf:RDF>
  </metadata>
  <g
     inkscape:label="Body"
     inkscape:groupmode="layer"
     id="layer1"
     transform="translate(0,-677.36218)">
    <g
       id="g14344"
       transform="translate(75.714285,26.785714)">
      <g
         id="g15268-9-9-1"
         transform="matrix(1.265386,0,0,1.265386,-85.242377,-262.67621)"
         style="stroke:#4d4d4d">
        <g
           style="fill:#FF52A2;fill-opacity:1;stroke:#4d4d4d"
           transform="matrix(0.1953115,0,0,0.1953115,-31.08083,627.28824)"
           id="g3443-8-7-2-5-7">
          <path
             style="color:#000000;fill:#FF52A2;fill-opacity:1;fill-rule:nonzero;stroke:#4d4d4d;stroke-width:2.29999995;stroke-linecap:butt;stroke-linejoin:miter;stroke-miterlimit:4;stroke-opacity:1;stroke-dasharray:none;stroke-dashoffset:0;marker:none;visibility:visible;display:inline;overflow:visible;enable-background:accumulate"
             d="m 607.66961,1220.5986 c 6.75558,7.7593 13.45382,24.7419 31.82172,30.4161 11.2182,3.4656 17.54943,2.305 27.48103,-3.9576 12.4909,-7.8764 35.09676,-39.3701 35.09676,-39.3701 l -22.53037,41.1784 -9.9888,15.1786 c 0,0 1.16128,9.692 1.783,14.5329 0.56815,4.4237 1.77895,8.8012 1.77948,13.2612 5.9e-4,4.9115 0.37809,10.2827 -1.9561,14.604 -1.47885,2.7378 -4.17649,4.9357 -7.0584,6.1093 -2.85243,1.1616 -6.18085,1.0346 -9.223,0.554 -2.09457,-0.3309 -3.86903,-1.7947 -5.92338,-2.3204 -4.69169,-1.2005 -10.41507,0.8871 -14.41032,-1.8499 -3.86043,-2.6446 -5.568,-7.797 -6.6959,-12.3385 -0.81317,-3.2742 -0.31982,-6.7737 0.10472,-10.1205 0.4888,-3.8536 2.12921,-7.4864 2.79261,-11.3137 0.40415,-2.3317 0.7176,-7.0629 0.7176,-7.0629 l -5.26883,-11.3504 c 0,0 -5.72755,-9.2813 -9.04775,-14.1395 -7.1812,-10.5077 -19.28459,-36.2049 -19.28459,-36.2049 0,0 3.05494,6.4346 9.81052,14.1939 z"
             id="path4257-2-5-0-5-5"
             inkscape:connector-curvature="0"
             sodipodi:nodetypes="zsscccaaaaaaaaaaccscz" />
          <path
             style="color:#000000;fill:#FF52A2;fill-opacity:1;fill-rule:nonzero;stroke:#4d4d4d;stroke-width:2.29999995;stroke-linecap:butt;stroke-linejoin:miter;stroke-miterlimit:4;stroke-opacity:1;stroke-dasharray:none;stroke-dashoffset:0;marker:none;visibility:visible;display:inline;overflow:visible;enable-background:accumulate"
             d="m 636.03192,1257.121 c 0,0 2.98653,8.6505 3.59025,13.1559 0.28728,2.1438 0.17844,4.3334 0,6.489 -0.21707,2.6224 -1.16833,5.1585 -1.298,7.7867 -0.10682,2.1652 0.0345,4.3581 0.4327,6.489 0.44401,2.3761 1.2449,4.6854 2.163,6.9215 1.10072,2.6809 1.62039,6.0527 3.98626,7.7264 2.58775,1.8306 6.57217,2.6888 9.42046,1.2978 5.37066,-2.6229 7.61885,-9.6961 8.99174,-15.5132 0.5567,-2.3588 -0.0267,-4.8704 -0.44878,-7.257 -0.39783,-2.2493 -1.66759,-4.3029 -1.94868,-6.5698 -0.6578,-5.3048 -0.43225,-10.7911 0.66696,-16.0223 0.26571,-1.2645 1.41126,-3.6104 1.41126,-3.6104"
             id="path4259-1-9-7-2-0"
             inkscape:connector-curvature="0"
             sodipodi:nodetypes="caaaaaaaaaaac" />
          <text
             xml:space="preserve"
             style="font-size:44.5083847px;font-style:normal;font-variant:normal;font-weight:normal;font-stretch:normal;text-indent:0;text-align:start;text-decoration:none;line-height:89.99999762%;letter-spacing:0px;word-spacing:0px;text-transform:none;direction:ltr;block-progression:tb;writing-mode:lr-tb;text-anchor:start;baseline-shift:baseline;color:#000000;fill:#000000;fill-opacity:1;fill-rule:nonzero;stroke:none;stroke-width:1;marker:none;visibility:visible;display:inline;overflow:visible;enable-background:accumulate;font-family:Poppins;-inkscape-font-specification:Poppins"
             x="893.14075"
             y="1377.37"
             id="text5830-6-1-1-1-8-8-27-4"
             sodipodi:linespacing="89.999998%"><tspan
               sodipodi:role="line"
               id="tspan5832-8-3-7-1-2-6-8-9"
               x="893.14075"
               y="1377.37">Genitals</tspan></text>
          <path
             sodipodi:nodetypes="ccc"
             inkscape:connector-curvature="0"
             id="path11926-6-67-0-1-9"
             d="m 874.04827,1364.5306 -16.14242,0 -186.00487,-109.5844"
             style="fill:none;stroke:#4d4d4d;stroke-width:3.23697352;stroke-linecap:butt;stroke-linejoin:miter;stroke-miterlimit:4;stroke-opacity:1;stroke-dasharray:none" />
        </g>
      </g>
    </g>
  </g>
</svg>
