<?xml version="1.0" encoding="UTF-8" standalone="no"?>
<!-- Created with Inkscape (http://www.inkscape.org/) -->

<svg
   xmlns:dc="http://purl.org/dc/elements/1.1/"
   xmlns:cc="http://creativecommons.org/ns#"
   xmlns:rdf="http://www.w3.org/1999/02/22-rdf-syntax-ns#"
   xmlns:svg="http://www.w3.org/2000/svg"
   xmlns="http://www.w3.org/2000/svg"
   xmlns:sodipodi="http://sodipodi.sourceforge.net/DTD/sodipodi-0.dtd"
   xmlns:inkscape="http://www.inkscape.org/namespaces/inkscape"
   width="220"
   height="375"
   id="svg12260"
   version="1.1"
   inkscape:version="0.48.5 r10040"
   sodipodi:docname="Left arm.svg">
  <defs
     id="defs12262">
    <inkscape:path-effect
       effect="spiro"
       id="path-effect4116-24-1"
       is_visible="true" />
    <inkscape:path-effect
       effect="spiro"
       id="path-effect4116-0-5-6"
       is_visible="true" />
    <inkscape:path-effect
       effect="spiro"
       id="path-effect4164-8-40-1"
       is_visible="true" />
    <inkscape:path-effect
       effect="spiro"
       id="path-effect4164-17-6"
       is_visible="true" />
    <inkscape:path-effect
       effect="spiro"
       id="path-effect4172-8-3"
       is_visible="true" />
    <inkscape:path-effect
       effect="spiro"
       id="path-effect4170-8-3"
       is_visible="true" />
    <inkscape:path-effect
       effect="spiro"
       id="path-effect4172-4-4-5"
       is_visible="true" />
    <inkscape:path-effect
       effect="spiro"
       id="path-effect4170-5-9-5"
       is_visible="true" />
    <inkscape:path-effect
       effect="spiro"
       id="path-effect4172-8-3-4"
       is_visible="true" />
    <inkscape:path-effect
       effect="spiro"
       id="path-effect4170-8-3-9"
       is_visible="true" />
    <inkscape:path-effect
       effect="spiro"
       id="path-effect4172-4-4-5-1"
       is_visible="true" />
    <inkscape:path-effect
       effect="spiro"
       id="path-effect4170-5-9-5-2"
       is_visible="true" />
    <inkscape:path-effect
       effect="spiro"
       id="path-effect4116-24-1-5"
       is_visible="true" />
    <inkscape:path-effect
       effect="spiro"
       id="path-effect4116-0-5-6-0"
       is_visible="true" />
    <inkscape:path-effect
       effect="spiro"
       id="path-effect4164-8-40-1-8"
       is_visible="true" />
    <inkscape:path-effect
       effect="spiro"
       id="path-effect4164-17-6-3"
       is_visible="true" />
  </defs>
  <sodipodi:namedview
     id="base"
     pagecolor="#ffffff"
     bordercolor="#666666"
     borderopacity="1.0"
     inkscape:pageopacity="0.0"
     inkscape:pageshadow="2"
     inkscape:zoom="2.1154982"
     inkscape:cx="115.63388"
     inkscape:cy="242.00544"
     inkscape:document-units="px"
     inkscape:current-layer="g15268-9-9-1"
     showgrid="false"
     inkscape:window-width="1280"
     inkscape:window-height="961"
     inkscape:window-x="-8"
     inkscape:window-y="-8"
     inkscape:window-maximized="1" />
  <metadata
     id="metadata12265">
    <rdf:RDF>
      <cc:Work
         rdf:about="">
        <dc:format>image/svg+xml</dc:format>
        <dc:type
           rdf:resource="http://purl.org/dc/dcmitype/StillImage" />
        <dc:title></dc:title>
      </cc:Work>
    </rdf:RDF>
  </metadata>
  <g
     inkscape:label="Body"
     inkscape:groupmode="layer"
     id="layer1"
     transform="translate(0,-677.36218)">
    <g
       id="g14344"
       transform="translate(75.714285,26.785714)">
      <g
         id="g15268-9-9-1"
         transform="matrix(1.265386,0,0,1.265386,-85.242377,-262.67621)"
         style="stroke:#4d4d4d">
        <g
           style="fill:#FF52A2;fill-opacity:1;stroke:#4d4d4d"
           transform="matrix(0.1953115,0,0,0.1953115,-31.08083,627.28824)"
           id="g3443-8-7-2-5-7">
          <path
             style="color:#000000;fill:#FF52A2;fill-opacity:1;fill-rule:nonzero;stroke:#4d4d4d;stroke-width:2.29999995;stroke-linecap:butt;stroke-linejoin:miter;stroke-miterlimit:4;stroke-opacity:1;stroke-dasharray:none;stroke-dashoffset:0;marker:none;visibility:visible;display:inline;overflow:visible;enable-background:accumulate"
             d="m 787.568,825.49294 c 0,0 -1.01613,35.32386 1.06191,52.80774 2.3367,19.66227 6.96473,39.10849 12.7501,58.0451 5.42448,17.75524 14.82636,34.10669 20.50905,51.78104 3.50793,10.91022 8.03921,31.55168 8.80034,35.03758 -0.97486,6.265 -1.75406,12.6637 -1.81847,17.421 -0.11073,8.1708 1.20475,16.3598 3.0337,24.3237 3.08841,13.4473 6.30515,21.4765 9.95014,34.7836 4.63327,16.9151 9.41633,37.2603 14.17609,55.8773 2.62274,10.2584 6.41406,22.149 7.92506,30.7606 1.79536,10.2322 22.36815,-3.611 22.36815,-3.611 l 22.1836,-5.214 c 0,0 -0.48509,-5.4093 -1.22224,-14.3016 -1.18669,-14.3152 0.50007,-25.591 0.92147,-39.949 0.5214,-17.7703 1.13835,-35.6216 -0.51471,-53.3224 -1.29609,-13.8751 -5.39162,-35.1678 -7.36138,-41.1525 -1.04193,-3.1655 -6.24542,-29.59786 -10.99434,-54.14542 -0.37844,-2.45652 -2.91833,-18.94254 -4.22818,-28.17475 -2.26799,-15.98501 -2.4437,-32.3883 -6.43037,-48.03337 -3.13317,-12.2964 -13.63116,-35.53026 -13.63116,-35.53026 0,0 -2.29392,8.94851 -3.63189,13.36321 -1.08681,3.58553 -2.21834,7.15438 -3.57946,10.64483 -2.39699,6.14671 -8.09158,18.07202 -8.09158,18.07202 0,0 0.27496,1.44756 0.66835,3.67853 -0.37248,-1.3282 -0.76255,-2.66345 -1.19074,-3.97605 -3.01301,-9.23706 -7.95387,-17.80735 -13.20627,-25.98145 -7.5012,-11.6742 -16.44864,-22.4181 -25.91584,-32.56341 -6.94436,-7.44165 -22.53133,-20.64104 -22.53133,-20.64104 z"
             id="path5268-7-6-7-4-1-4"
             inkscape:connector-curvature="0"
             sodipodi:nodetypes="cssscccsasccsssccscccsccccsc" />
        </g>
        <text
           xml:space="preserve"
           style="font-size:8.69299984px;font-style:normal;font-variant:normal;font-weight:normal;font-stretch:normal;text-indent:0;text-align:end;text-decoration:none;line-height:91.00000262%;letter-spacing:0px;word-spacing:0px;text-transform:none;direction:ltr;block-progression:tb;writing-mode:lr-tb;text-anchor:end;baseline-shift:baseline;color:#000000;fill:#000000;fill-opacity:1;fill-rule:nonzero;stroke:none;stroke-width:1;marker:none;visibility:visible;display:inline;overflow:visible;enable-background:accumulate;font-family:Poppins;-inkscape-font-specification:Poppins"
           x="178.39685"
           y="810.0072"
           id="text8830-3-3-3-2-1-1"
           sodipodi:linespacing="91.000003%"><tspan
             sodipodi:role="line"
             id="tspan8832-9-1-2-5-2-5"
             x="180.53615"
             y="810.0072">Left </tspan><tspan
             sodipodi:role="line"
             x="178.39685"
             y="817.91785"
             id="tspan10428-9-8-2-6-8">Arm</tspan></text>
        <path
           sodipodi:nodetypes="cc"
           inkscape:connector-curvature="0"
           id="path11998-8-9-2"
           d="m 141.5369,810.4347 17.47788,0"
           style="color:#000000;fill:none;stroke:#4d4d4d;stroke-width:0.63221818;stroke-linecap:butt;stroke-linejoin:miter;stroke-miterlimit:4;stroke-opacity:1;stroke-dasharray:none;stroke-dashoffset:0;marker:none;visibility:visible;display:inline;overflow:visible;enable-background:accumulate" />
      </g>
    </g>
  </g>
</svg>
