<?xml version="1.0" encoding="UTF-8" standalone="no"?>
<!-- Created with Inkscape (http://www.inkscape.org/) -->

<svg
   xmlns:dc="http://purl.org/dc/elements/1.1/"
   xmlns:cc="http://creativecommons.org/ns#"
   xmlns:rdf="http://www.w3.org/1999/02/22-rdf-syntax-ns#"
   xmlns:svg="http://www.w3.org/2000/svg"
   xmlns="http://www.w3.org/2000/svg"
   xmlns:sodipodi="http://sodipodi.sourceforge.net/DTD/sodipodi-0.dtd"
   xmlns:inkscape="http://www.inkscape.org/namespaces/inkscape"
   width="220"
   height="375"
   id="svg12260"
   version="1.1"
   inkscape:version="0.48.5 r10040"
   sodipodi:docname="Right tigh.svg">
  <defs
     id="defs12262">
    <inkscape:path-effect
       effect="spiro"
       id="path-effect4116-24-1"
       is_visible="true" />
    <inkscape:path-effect
       effect="spiro"
       id="path-effect4116-0-5-6"
       is_visible="true" />
    <inkscape:path-effect
       effect="spiro"
       id="path-effect4164-8-40-1"
       is_visible="true" />
    <inkscape:path-effect
       effect="spiro"
       id="path-effect4164-17-6"
       is_visible="true" />
    <inkscape:path-effect
       effect="spiro"
       id="path-effect4172-8-3"
       is_visible="true" />
    <inkscape:path-effect
       effect="spiro"
       id="path-effect4170-8-3"
       is_visible="true" />
    <inkscape:path-effect
       effect="spiro"
       id="path-effect4172-4-4-5"
       is_visible="true" />
    <inkscape:path-effect
       effect="spiro"
       id="path-effect4170-5-9-5"
       is_visible="true" />
    <inkscape:path-effect
       effect="spiro"
       id="path-effect4172-8-3-4"
       is_visible="true" />
    <inkscape:path-effect
       effect="spiro"
       id="path-effect4170-8-3-9"
       is_visible="true" />
    <inkscape:path-effect
       effect="spiro"
       id="path-effect4172-4-4-5-1"
       is_visible="true" />
    <inkscape:path-effect
       effect="spiro"
       id="path-effect4170-5-9-5-2"
       is_visible="true" />
    <inkscape:path-effect
       effect="spiro"
       id="path-effect4116-24-1-5"
       is_visible="true" />
    <inkscape:path-effect
       effect="spiro"
       id="path-effect4116-0-5-6-0"
       is_visible="true" />
    <inkscape:path-effect
       effect="spiro"
       id="path-effect4164-8-40-1-8"
       is_visible="true" />
    <inkscape:path-effect
       effect="spiro"
       id="path-effect4164-17-6-3"
       is_visible="true" />
  </defs>
  <sodipodi:namedview
     id="base"
     pagecolor="#ffffff"
     bordercolor="#666666"
     borderopacity="1.0"
     inkscape:pageopacity="0.0"
     inkscape:pageshadow="2"
     inkscape:zoom="2.1154982"
     inkscape:cx="115.63388"
     inkscape:cy="143.48812"
     inkscape:document-units="px"
     inkscape:current-layer="g3443-8-7-2-5-7"
     showgrid="false"
     inkscape:window-width="1280"
     inkscape:window-height="961"
     inkscape:window-x="-8"
     inkscape:window-y="-8"
     inkscape:window-maximized="1" />
  <metadata
     id="metadata12265">
    <rdf:RDF>
      <cc:Work
         rdf:about="">
        <dc:format>image/svg+xml</dc:format>
        <dc:type
           rdf:resource="http://purl.org/dc/dcmitype/StillImage" />
        <dc:title></dc:title>
      </cc:Work>
    </rdf:RDF>
  </metadata>
  <g
     inkscape:label="Body"
     inkscape:groupmode="layer"
     id="layer1"
     transform="translate(0,-677.36218)">
    <g
       id="g14344"
       transform="translate(75.714285,26.785714)">
      <g
         id="g15268-9-9-1"
         transform="matrix(1.265386,0,0,1.265386,-85.242377,-262.67621)"
         style="stroke:#4d4d4d">
        <g
           style="fill:#FF52A2;fill-opacity:1;stroke:#4d4d4d"
           transform="matrix(0.1953115,0,0,0.1953115,-31.08083,627.28824)"
           id="g3443-8-7-2-5-7">
          <path
             style="color:#000000;fill:#FF52A2;fill-opacity:1;fill-rule:nonzero;stroke:#4d4d4d;stroke-width:2.29999995;stroke-linecap:butt;stroke-linejoin:miter;stroke-miterlimit:4;stroke-opacity:1;stroke-dasharray:none;stroke-dashoffset:0;marker:none;visibility:visible;display:inline;overflow:visible;enable-background:accumulate"
             d="m 505.45693,1284.6878 c -5.4722,13.236 -9.1091,27.3376 -11.0079,41.5337 -1.7365,12.983 -0.6688,26.2023 -0.2691,39.2948 0.6861,22.4699 1.8748,44.9681 4.5754,67.2856 1.3799,11.4029 3.1814,22.7918 5.93,33.9442 2.7065,10.9817 7.5715,21.3493 10.3614,32.3101 1.5445,6.0677 3.5137,18.4523 3.5137,18.4523 0,0 3.7836,-2.2286 5.8941,-2.6811 8.6185,-1.8478 18.3781,-3.4383 26.4428,0.119 4.3995,1.9405 6.6914,6.9192 9.7743,10.6093 2.7142,3.2488 3.6273,8.8445 7.661,10.1295 7.6819,2.4471 17.6767,-4.0675 23.0596,-7.2973 5.3828,-3.2297 5.6275,-11.463 7.5191,-17.5348 7.9489,-25.514 13.5393,-53.322 19.8545,-80.0929 5.4758,-23.2126 12.5049,-46.1763 15.6374,-69.8194 3.0074,-22.7 2.57266,-45.7362 2.9605,-68.6313 0.12782,-7.5456 -0.20903,-22.6392 -0.20903,-22.6392 0,0 -4.43636,-4.7797 -8.80653,-11.1607 -5.38505,-7.8627 -11.24345,-18.1569 -15.50724,-24.9356 -10.28542,-16.3521 -19.2032,-36.7223 -29.3057,-49.9981 -10.472,-13.7613 -30.09847,-42.4082 -30.09847,-42.4082 0,0 -0.74403,12.0482 -0.62293,25.302 0.099,10.8391 1.3509,20.681 0.039,28.9485 -1.6051,10.117 -4.5497,20.1845 -9.1509,29.3365 -4.3937,8.7394 -11.9353,15.5261 -17.2727,23.7234 -7.6107,11.6889 -15.6433,23.3196 -20.9725,36.2097 z"
             id="path3834-1-4-7-8-2-8"
             inkscape:connector-curvature="0"
             sodipodi:nodetypes="caasascaaasssaaacssscssaaac" />
          <text
             xml:space="preserve"
             style="font-size:44.5083847px;font-style:normal;font-variant:normal;font-weight:normal;font-stretch:normal;text-indent:0;text-align:start;text-decoration:none;line-height:89.99999762%;letter-spacing:0px;word-spacing:0px;text-transform:none;direction:ltr;block-progression:tb;writing-mode:lr-tb;text-anchor:start;baseline-shift:baseline;color:#000000;fill:#000000;fill-opacity:1;fill-rule:nonzero;stroke:none;stroke-width:1;marker:none;visibility:visible;display:inline;overflow:visible;enable-background:accumulate;font-family:Poppins;-inkscape-font-specification:Poppins"
             x="209.27939"
             y="1561.4027"
             id="text8850-0-1-2-6-8"
             sodipodi:linespacing="89.999998%"><tspan
               sodipodi:role="line"
               x="209.27939"
               y="1561.4027"
               id="tspan10416-8-8-5-6-0">Right Thigh</tspan></text>
          <path
             sodipodi:nodetypes="ccc"
             inkscape:connector-curvature="0"
             id="path11926-6-67-8-2"
             d="m 462.09914,1548.7172 13.12421,0 115.05487,-116.1254"
             style="fill:none;stroke:#4d4d4d;stroke-width:3.23697352;stroke-linecap:butt;stroke-linejoin:miter;stroke-miterlimit:4;stroke-opacity:1;stroke-dasharray:none" />
        </g>
      </g>
    </g>
  </g>
</svg>
