<?xml version="1.0" encoding="UTF-8" standalone="no"?>
<!-- Created with Inkscape (http://www.inkscape.org/) -->

<svg
   xmlns:dc="http://purl.org/dc/elements/1.1/"
   xmlns:cc="http://creativecommons.org/ns#"
   xmlns:rdf="http://www.w3.org/1999/02/22-rdf-syntax-ns#"
   xmlns:svg="http://www.w3.org/2000/svg"
   xmlns="http://www.w3.org/2000/svg"
   xmlns:sodipodi="http://sodipodi.sourceforge.net/DTD/sodipodi-0.dtd"
   xmlns:inkscape="http://www.inkscape.org/namespaces/inkscape"
   width="220"
   height="375"
   id="svg12260"
   version="1.1"
   inkscape:version="0.48.5 r10040"
   sodipodi:docname="Right abs.svg">
  <defs
     id="defs12262">
    <inkscape:path-effect
       effect="spiro"
       id="path-effect4116-24-1"
       is_visible="true" />
    <inkscape:path-effect
       effect="spiro"
       id="path-effect4116-0-5-6"
       is_visible="true" />
    <inkscape:path-effect
       effect="spiro"
       id="path-effect4164-8-40-1"
       is_visible="true" />
    <inkscape:path-effect
       effect="spiro"
       id="path-effect4164-17-6"
       is_visible="true" />
    <inkscape:path-effect
       effect="spiro"
       id="path-effect4172-8-3"
       is_visible="true" />
    <inkscape:path-effect
       effect="spiro"
       id="path-effect4170-8-3"
       is_visible="true" />
    <inkscape:path-effect
       effect="spiro"
       id="path-effect4172-4-4-5"
       is_visible="true" />
    <inkscape:path-effect
       effect="spiro"
       id="path-effect4170-5-9-5"
       is_visible="true" />
    <inkscape:path-effect
       effect="spiro"
       id="path-effect4172-8-3-4"
       is_visible="true" />
    <inkscape:path-effect
       effect="spiro"
       id="path-effect4170-8-3-9"
       is_visible="true" />
    <inkscape:path-effect
       effect="spiro"
       id="path-effect4172-4-4-5-1"
       is_visible="true" />
    <inkscape:path-effect
       effect="spiro"
       id="path-effect4170-5-9-5-2"
       is_visible="true" />
    <inkscape:path-effect
       effect="spiro"
       id="path-effect4116-24-1-5"
       is_visible="true" />
    <inkscape:path-effect
       effect="spiro"
       id="path-effect4116-0-5-6-0"
       is_visible="true" />
    <inkscape:path-effect
       effect="spiro"
       id="path-effect4164-8-40-1-8"
       is_visible="true" />
    <inkscape:path-effect
       effect="spiro"
       id="path-effect4164-17-6-3"
       is_visible="true" />
  </defs>
  <sodipodi:namedview
     id="base"
     pagecolor="#ffffff"
     bordercolor="#666666"
     borderopacity="1.0"
     inkscape:pageopacity="0.0"
     inkscape:pageshadow="2"
     inkscape:zoom="2.1154982"
     inkscape:cx="115.63388"
     inkscape:cy="219.12042"
     inkscape:document-units="px"
     inkscape:current-layer="g3443-8-7-2-5-7"
     showgrid="false"
     inkscape:window-width="1280"
     inkscape:window-height="961"
     inkscape:window-x="-8"
     inkscape:window-y="-8"
     inkscape:window-maximized="1" />
  <metadata
     id="metadata12265">
    <rdf:RDF>
      <cc:Work
         rdf:about="">
        <dc:format>image/svg+xml</dc:format>
        <dc:type
           rdf:resource="http://purl.org/dc/dcmitype/StillImage" />
        <dc:title></dc:title>
      </cc:Work>
    </rdf:RDF>
  </metadata>
  <g
     inkscape:label="Body"
     inkscape:groupmode="layer"
     id="layer1"
     transform="translate(0,-677.36218)">
    <g
       id="g14344"
       transform="translate(75.714285,26.785714)">
      <g
         id="g15268-9-9-1"
         transform="matrix(1.265386,0,0,1.265386,-85.242377,-262.67621)"
         style="stroke:#4d4d4d">
        <g
           style="fill:#FF52A2;fill-opacity:1;stroke:#4d4d4d"
           transform="matrix(0.1953115,0,0,0.1953115,-31.08083,627.28824)"
           id="g3443-8-7-2-5-7">
          <path
             style="color:#000000;fill:#FF52A2;fill-opacity:1;fill-rule:nonzero;stroke:#4d4d4d;stroke-width:2.29999995;stroke-linecap:butt;stroke-linejoin:miter;stroke-miterlimit:4;stroke-opacity:1;stroke-dasharray:none;stroke-dashoffset:0;marker:none;visibility:visible;display:inline;overflow:visible;enable-background:accumulate"
             d="m 582.05733,922.60287 -0.5844,12.5545 c 0,0 -2.891,47.8868 -3.5017,71.86113 -0.3862,15.1621 0.098,30.3352 -0.1023,45.5008 -0.1023,7.77 3.5038,16.683 -0.5618,23.3053 -2.2138,3.6059 -6.9642,6.3987 -11.1781,6.0154 -11.99237,-1.0909 -28.20057,-22.5786 -28.20057,-22.5786 0,0 2.24384,-9.5636 2.54235,-14.4428 0.50677,-8.2832 -0.39967,-16.6122 -1.29491,-24.8625 -1.47217,-13.5672 -3.39136,-27.14803 -6.68977,-40.39023 -2.92794,-11.7549 -7.7631,-22.9509 -11.5731,-34.4502 -2.9981,-9.0488 -8.8817,-27.1834 -8.8817,-27.1834 0,0 1.48,-37.193 3.2297,-55.7126 0.4468,-4.7287 1.8541,-14.1282 1.8541,-14.1282 0,0 1.9773,10.9567 4.8637,22.4457 1.3602,5.4141 2.9963,11.7606 4.5862,15.6363 1.9794,4.8252 4.2868,8.7647 7.6964,12.1249 5.4192,5.3407 11.5032,8.4182 18.6611,11.0559 0.4108,0.1514 19.0305,5.1011 19.0305,5.1011 l 11.591,1.1824 z"
             id="path3725-42-1-3-6-1"
             inkscape:connector-curvature="0"
             sodipodi:nodetypes="ccaaaacaaaacacssssccc" />
          <path
             style="color:#000000;fill:#FF52A2;fill-opacity:1;fill-rule:nonzero;stroke:#4d4d4d;stroke-width:2.29999995;stroke-linecap:butt;stroke-linejoin:miter;stroke-miterlimit:4;stroke-opacity:1;stroke-dasharray:none;stroke-dashoffset:0;marker:none;visibility:visible;display:inline;overflow:visible;enable-background:accumulate"
             d="m 630.28653,901.60827 c 0,0 -10.0984,6.556 -15.6876,8.6875 -6.1975,2.3636 -19.4062,4.375 -19.4062,4.375 -2.2838,1.5225 -6.3065,12.2602 -8.1875,18.8437 -2.5015,8.7559 -3.3321,17.9497 -4,27.0313 -0.3071,4.1756 -0.6009,8.419 0,12.5625 0.5128,3.5358 3.0313,10.2812 3.0313,10.2812 0,0 -0.057,0.4322 -0.063,0.4688 1.8353,-0.6149 3.9577,-1.393 5.3438,-2.0312 10.3443,-4.7635 19.5193,-11.7522 29.5938,-17.0626 6.7796,-3.5735 13.9131,-6.4137 20.7187,-9.9374 3.6901,-1.9106 10.9063,-6.0626 10.9063,-6.0626 l 0,-22.1874 0,-21.2188 c 0,0 -5.57445,-2.9655 -8.625,-3.5938 -4.44858,-0.9163 -13.625,-0.1562 -13.625,-0.1562 z"
             id="path3752-0-7-9-0-8-4"
             inkscape:connector-curvature="0"
             sodipodi:nodetypes="ccccssccccscccacc" />
          <path
             style="color:#000000;fill:#FF52A2;fill-opacity:1;fill-rule:nonzero;stroke:#4d4d4d;stroke-width:2.29999995;stroke-linecap:butt;stroke-linejoin:miter;stroke-miterlimit:4;stroke-opacity:1;stroke-dasharray:none;stroke-dashoffset:0;marker:none;visibility:visible;display:inline;overflow:visible;enable-background:accumulate"
             d="m 652.16153,1009.6395 c -0.2415,0.513 -2.0029,4.188 -3.6876,5.4688 -2.0324,1.5454 -4.7771,1.9079 -7.2812,2.4062 -6.1748,1.2296 -12.8734,1.9887 -19.3333,2.8128 -7.3156,0.9333 -14.6366,1.8882 -21.9927,2.4134 -5.2351,0.3739 -10.5331,1.1304 -15.7365,0.5238 -0.2226,-0.026 -0.5068,-0.087 -0.7813,-0.1562 -0.075,0.2055 -1.5297,4.1795 -1.875,6.3438 -0.6594,4.1364 -0.4855,8.3752 -0.375,12.5624 0.202,7.6363 2.3843,17.6737 4.1223,26.4137 0.4071,2.0471 0.6391,4.173 1.475,6.0856 0.6371,1.4577 1.42,2.9552 2.6405,3.9757 0.7609,0.6362 1.7544,1.0082 2.731,1.1813 11.9791,2.1233 24.4507,-0.1131 36.4375,-2.0937 4.4622,-0.7374 9.1184,-1.3549 13.0313,-3.5938 4.2763,-2.447 10.625,-10.2812 10.625,-10.2812 l 0,-24.375 z"
             id="path3792-4-7-49-6-6-7"
             inkscape:connector-curvature="0"
             sodipodi:nodetypes="cccaaccccaaaaccccc" />
          <path
             inkscape:connector-curvature="0"
             style="color:#000000;fill:#FF52A2;fill-opacity:1;fill-rule:nonzero;stroke:#4d4d4d;stroke-width:2.29999995;stroke-linecap:butt;stroke-linejoin:miter;stroke-miterlimit:4;stroke-opacity:1;stroke-dasharray:none;stroke-dashoffset:0;marker:none;visibility:visible;display:inline;overflow:visible;enable-background:accumulate"
             d="m 652.25523,948.92077 c -0.4673,0.2686 -7.0619,4.0614 -10.625,5.9063 -6.8056,3.5235 -13.9391,6.3641 -20.7187,9.9374 -10.0747,5.3106 -19.2495,12.299 -29.5938,17.0626 -1.3861,0.638 -3.5085,1.4163 -5.3438,2.0312 -0.083,0.5574 -0.7137,4.7426 -1.0624,7.125 -0.6501,4.4384 -1.5883,8.8692 -1.9063,13.34383 -0.3058,4.3026 0,12.9374 0,12.9374 l 0.375,5.7188 c 0,0 -0.029,0.1197 -0.031,0.125 0.2743,0.069 0.5587,0.1303 0.7813,0.1562 5.2034,0.6064 10.5014,-0.1499 15.7365,-0.5238 7.3561,-0.5252 14.6769,-1.4801 21.9924,-2.4134 6.46,-0.8241 13.1588,-1.5834 19.3336,-2.8128 2.5041,-0.4985 5.2488,-0.8608 7.2812,-2.4062 1.8078,-1.3745 3.7813,-5.6562 3.7813,-5.6562 l 0,-25.31263 0,-35.2187 z"
             id="path3772-9-0-12-8-8-5"
             sodipodi:nodetypes="ccccccsccccaacccccc" />
          <text
             xml:space="preserve"
             style="font-size:44.5083847px;font-style:normal;font-variant:normal;font-weight:normal;font-stretch:normal;text-indent:0;text-align:start;text-decoration:none;line-height:89.99999762%;letter-spacing:0px;word-spacing:0px;text-transform:none;direction:ltr;block-progression:tb;writing-mode:lr-tb;text-anchor:start;baseline-shift:baseline;color:#000000;fill:#000000;fill-opacity:1;fill-rule:nonzero;stroke:none;stroke-width:1;marker:none;visibility:visible;display:inline;overflow:visible;enable-background:accumulate;font-family:Poppins;-inkscape-font-specification:Poppins"
             x="211.68219"
             y="935.26251"
             id="text8834-3-1-9-5-9"
             sodipodi:linespacing="89.999998%"><tspan
               sodipodi:role="line"
               x="211.68219"
               y="935.26251"
               id="tspan10404-4-5-2-8-2">Right </tspan><tspan
               sodipodi:role="line"
               x="211.68219"
               y="975.32007"
               id="tspan10408-3-6-4-3-5">Abs</tspan></text>
          <path
             sodipodi:nodetypes="ccc"
             inkscape:connector-curvature="0"
             id="path11998-8-9-6-6"
             d="m 586.02497,991.39844 -182.90874,-68.37771 -64.82562,0"
             style="color:#000000;fill:none;stroke:#4d4d4d;stroke-width:3.23697352;stroke-linecap:butt;stroke-linejoin:miter;stroke-miterlimit:4;stroke-opacity:1;stroke-dasharray:none;stroke-dashoffset:0;marker:none;visibility:visible;display:inline;overflow:visible;enable-background:accumulate" />
        </g>
      </g>
    </g>
  </g>
</svg>
