<?xml version="1.0" encoding="UTF-8" standalone="no"?>
<!-- Created with Inkscape (http://www.inkscape.org/) -->

<svg
   xmlns:dc="http://purl.org/dc/elements/1.1/"
   xmlns:cc="http://creativecommons.org/ns#"
   xmlns:rdf="http://www.w3.org/1999/02/22-rdf-syntax-ns#"
   xmlns:svg="http://www.w3.org/2000/svg"
   xmlns="http://www.w3.org/2000/svg"
   xmlns:sodipodi="http://sodipodi.sourceforge.net/DTD/sodipodi-0.dtd"
   xmlns:inkscape="http://www.inkscape.org/namespaces/inkscape"
   width="220"
   height="375"
   id="svg12260"
   version="1.1"
   inkscape:version="0.48.5 r10040"
   sodipodi:docname="Neck.svg">
  <defs
     id="defs12262">
    <inkscape:path-effect
       effect="spiro"
       id="path-effect4116-24-1"
       is_visible="true" />
    <inkscape:path-effect
       effect="spiro"
       id="path-effect4116-0-5-6"
       is_visible="true" />
    <inkscape:path-effect
       effect="spiro"
       id="path-effect4164-8-40-1"
       is_visible="true" />
    <inkscape:path-effect
       effect="spiro"
       id="path-effect4164-17-6"
       is_visible="true" />
    <inkscape:path-effect
       effect="spiro"
       id="path-effect4172-8-3"
       is_visible="true" />
    <inkscape:path-effect
       effect="spiro"
       id="path-effect4170-8-3"
       is_visible="true" />
    <inkscape:path-effect
       effect="spiro"
       id="path-effect4172-4-4-5"
       is_visible="true" />
    <inkscape:path-effect
       effect="spiro"
       id="path-effect4170-5-9-5"
       is_visible="true" />
    <inkscape:path-effect
       effect="spiro"
       id="path-effect4172-8-3-4"
       is_visible="true" />
    <inkscape:path-effect
       effect="spiro"
       id="path-effect4170-8-3-9"
       is_visible="true" />
    <inkscape:path-effect
       effect="spiro"
       id="path-effect4172-4-4-5-1"
       is_visible="true" />
    <inkscape:path-effect
       effect="spiro"
       id="path-effect4170-5-9-5-2"
       is_visible="true" />
    <inkscape:path-effect
       effect="spiro"
       id="path-effect4116-24-1-5"
       is_visible="true" />
    <inkscape:path-effect
       effect="spiro"
       id="path-effect4116-0-5-6-0"
       is_visible="true" />
    <inkscape:path-effect
       effect="spiro"
       id="path-effect4164-8-40-1-8"
       is_visible="true" />
    <inkscape:path-effect
       effect="spiro"
       id="path-effect4164-17-6-3"
       is_visible="true" />
  </defs>
  <sodipodi:namedview
     id="base"
     pagecolor="#ffffff"
     bordercolor="#666666"
     borderopacity="1.0"
     inkscape:pageopacity="0.0"
     inkscape:pageshadow="2"
     inkscape:zoom="2.1154982"
     inkscape:cx="115.63388"
     inkscape:cy="216.23013"
     inkscape:document-units="px"
     inkscape:current-layer="g3443-8-7-2-5-7"
     showgrid="false"
     inkscape:window-width="1280"
     inkscape:window-height="961"
     inkscape:window-x="-8"
     inkscape:window-y="-8"
     inkscape:window-maximized="1" />
  <metadata
     id="metadata12265">
    <rdf:RDF>
      <cc:Work
         rdf:about="">
        <dc:format>image/svg+xml</dc:format>
        <dc:type
           rdf:resource="http://purl.org/dc/dcmitype/StillImage" />
        <dc:title></dc:title>
      </cc:Work>
    </rdf:RDF>
  </metadata>
  <g
     inkscape:label="Body"
     inkscape:groupmode="layer"
     id="layer1"
     transform="translate(0,-677.36218)">
    <g
       id="g14344"
       transform="translate(75.714285,26.785714)">
      <g
         id="g15268-9-9-1"
         transform="matrix(1.265386,0,0,1.265386,-85.242377,-262.67621)"
         style="stroke:#4d4d4d">
        <g
           style="fill:#FF52A2;fill-opacity:1;stroke:#4d4d4d"
           transform="matrix(0.1953115,0,0,0.1953115,-31.08083,627.28824)"
           id="g3443-8-7-2-5-7">
          <g
             id="g3949-1-3-9-9-6-2"
             transform="translate(-630.15107,-866.76678)"
             style="color:#000000;fill:#FF52A2;fill-opacity:1;fill-rule:nonzero;stroke:#4d4d4d;stroke-width:2.29999995;stroke-linecap:butt;stroke-linejoin:miter;stroke-miterlimit:4;stroke-opacity:1;stroke-dasharray:none;stroke-dashoffset:0;marker:none;visibility:visible;display:inline;overflow:visible;enable-background:accumulate">
            <path
               sodipodi:nodetypes="ccscaacacsaaaaaacaaccccassssszaacc"
               inkscape:connector-curvature="0"
               id="path5264-4-4-3-8-2-2"
               d="m 1331.448,1531.705 -0.4393,7.283 c 0,0 -0.3054,20.2796 -0.9064,30.397 -0.1284,2.1613 -0.5383,6.4729 -0.5383,6.4729 0,0 6.0763,8.834 10.2274,12.0979 8.2003,6.4477 18.285,10.1727 27.9909,13.9954 13.5761,5.347 41.9862,12.3806 41.9862,12.3806 0,0 -16.5487,7.4589 -25.2994,9.6891 -14.3851,3.6662 -44.1394,5.9211 -44.1394,5.9211 0,0 -22.0697,-0.5383 -30.1439,0.5383 -8.0743,1.0766 -14.3061,10.1668 -22.608,12.3806 -3.039,0.8104 -6.4359,1.1423 -9.4335,0.1903 -4.9872,-1.5839 -7.8735,-7.1469 -12.6362,-9.3142 -5.2642,-2.3955 -11.2175,-2.9083 -16.9369,-3.768 -15.759,-2.3686 -32.1493,-0.1261 -47.6573,-3.795 -6.9712,-1.6493 -13.0312,-6.0966 -19.9165,-8.0743 -10.7717,-3.0939 -33.1125,-5.8287 -33.1125,-5.8287 0,0 28.7786,-1.9262 42.2633,-6.5518 10.4843,-3.5964 19.9375,-9.8638 29.0674,-16.1486 4.8255,-3.3217 13.4571,-11.3039 13.4571,-11.3039 l 1.0766,-15.072 0,-26.9143 0,-5.8538 c 0,0 3.6514,5.4493 5.9317,7.781 4.1346,4.2278 8.6241,8.3283 13.8652,11.067 2.1441,1.1204 5.0214,3.0536 7.2815,4.1654 7.1464,3.5156 20.6818,6.145 28.2344,4.9309 2.644,-0.425 6.9654,-0.4176 11.8293,-1.4411 4.7538,-1.0003 10.0514,-3.0153 12.6256,-4.8351 7.3984,-5.2303 8.3111,-6.9748 10.8784,-9.9939 2.5672,-3.0191 3.4107,-4.8273 4.9715,-7.3349 0.5392,-0.8663 1.0255,-1.7646 1.5151,-2.6598 0.2228,-0.4072 0.6469,-1.2331 0.6469,-1.2331 z"
               style="color:#000000;fill:#FF52A2;fill-opacity:1;fill-rule:nonzero;stroke:#4d4d4d;stroke-width:2.29999995;stroke-linecap:butt;stroke-linejoin:miter;stroke-miterlimit:4;stroke-opacity:1;stroke-dasharray:none;stroke-dashoffset:0;marker:none;visibility:visible;display:inline;overflow:visible;enable-background:accumulate" />
            <path
               sodipodi:nodetypes="caac"
               inkscape:connector-curvature="0"
               id="path3552-2-4-4-6-4-1"
               d="m 1234.1766,1580.2891 c 0,0 3.3281,15.9036 3.9965,23.9793 0.3453,4.1726 0.608,8.4182 0,12.5607 -0.3847,2.6211 -2.2837,7.6125 -2.2837,7.6125"
               style="color:#000000;fill:#FF52A2;fill-opacity:1;fill-rule:nonzero;stroke:#4d4d4d;stroke-width:2.29999995;stroke-linecap:butt;stroke-linejoin:miter;stroke-miterlimit:4;stroke-opacity:1;stroke-dasharray:none;stroke-dashoffset:0;marker:none;visibility:visible;display:inline;overflow:visible;enable-background:accumulate" />
            <path
               sodipodi:nodetypes="caac"
               inkscape:connector-curvature="0"
               id="path3554-3-0-7-5-58-6"
               d="m 1329.1425,1576.4828 c 0,0 -3.4855,13.5971 -4.1869,20.5538 -0.5472,5.4281 -0.2177,10.9155 0,16.3668 0.127,3.1795 0.7613,9.5157 0.7613,9.5157"
               style="color:#000000;fill:#FF52A2;fill-opacity:1;fill-rule:nonzero;stroke:#4d4d4d;stroke-width:2.29999995;stroke-linecap:butt;stroke-linejoin:miter;stroke-miterlimit:4;stroke-opacity:1;stroke-dasharray:none;stroke-dashoffset:0;marker:none;visibility:visible;display:inline;overflow:visible;enable-background:accumulate" />
            <path
               sodipodi:nodetypes="caaaaac"
               inkscape:connector-curvature="0"
               id="path3556-2-5-8-0-8-8"
               d="m 1318.1044,1581.0503 c 0,0 -4.5357,24.6262 -9.8963,35.7788 -3.1884,6.6333 -7.675,12.7479 -12.9412,17.8893 -3.5254,3.4419 -7.3224,7.5499 -12.18,8.3738 -1.4262,0.2419 -2.9222,-0.4397 -4.1869,-1.1419 -6.2008,-3.4429 -11.6088,-8.6046 -15.6056,-14.4637 -6.0676,-8.8948 -11.7994,-30.0694 -11.7994,-30.0694"
               style="color:#000000;fill:#FF52A2;fill-opacity:1;fill-rule:nonzero;stroke:#4d4d4d;stroke-width:2.29999995;stroke-linecap:butt;stroke-linejoin:miter;stroke-miterlimit:4;stroke-opacity:1;stroke-dasharray:none;stroke-dashoffset:0;marker:none;visibility:visible;display:inline;overflow:visible;enable-background:accumulate" />
          </g>
          <text
             sodipodi:linespacing="91.000003%"
             id="text5810-3-4-4-8-8-4"
             y="651.1936"
             x="1072.8042"
             style="font-size:44.5083847px;font-style:normal;font-variant:normal;font-weight:normal;font-stretch:normal;text-indent:0;text-align:end;text-decoration:none;line-height:91.00000262%;letter-spacing:0px;word-spacing:0px;text-transform:none;direction:ltr;block-progression:tb;writing-mode:lr-tb;text-anchor:end;baseline-shift:baseline;color:#000000;fill:#000000;fill-opacity:1;fill-rule:nonzero;stroke:none;stroke-width:1;marker:none;visibility:visible;display:inline;overflow:visible;enable-background:accumulate;font-family:Poppins;-inkscape-font-specification:Poppins"
             xml:space="preserve"><tspan
               y="651.1936"
               x="1072.8042"
               id="tspan5812-3-0-0-1-2-8"
               sodipodi:role="line">Neck</tspan></text>
          <path
             sodipodi:nodetypes="ccc"
             inkscape:connector-curvature="0"
             id="path11998-1"
             d="m 700.02639,702.1662 150.17712,-63.31977 103.17641,0"
             style="color:#000000;fill:none;stroke:#4d4d4d;stroke-width:3.23697352;stroke-linecap:butt;stroke-linejoin:miter;stroke-miterlimit:4;stroke-opacity:1;stroke-dasharray:none;stroke-dashoffset:0;marker:none;visibility:visible;display:inline;overflow:visible;enable-background:accumulate" />
        </g>
      </g>
    </g>
  </g>
</svg>
