<?xml version="1.0" encoding="UTF-8" standalone="no"?>
<!-- Created with Inkscape (http://www.inkscape.org/) -->

<svg
   xmlns:dc="http://purl.org/dc/elements/1.1/"
   xmlns:cc="http://creativecommons.org/ns#"
   xmlns:rdf="http://www.w3.org/1999/02/22-rdf-syntax-ns#"
   xmlns:svg="http://www.w3.org/2000/svg"
   xmlns="http://www.w3.org/2000/svg"
   xmlns:sodipodi="http://sodipodi.sourceforge.net/DTD/sodipodi-0.dtd"
   xmlns:inkscape="http://www.inkscape.org/namespaces/inkscape"
   width="220"
   height="375"
   id="svg12260"
   version="1.1"
   inkscape:version="0.48.5 r10040"
   sodipodi:docname="Left back.svg">
  <defs
     id="defs12262">
    <inkscape:path-effect
       effect="spiro"
       id="path-effect4116-24-1"
       is_visible="true" />
    <inkscape:path-effect
       effect="spiro"
       id="path-effect4116-0-5-6"
       is_visible="true" />
    <inkscape:path-effect
       effect="spiro"
       id="path-effect4164-8-40-1"
       is_visible="true" />
    <inkscape:path-effect
       effect="spiro"
       id="path-effect4164-17-6"
       is_visible="true" />
    <inkscape:path-effect
       effect="spiro"
       id="path-effect4172-8-3"
       is_visible="true" />
    <inkscape:path-effect
       effect="spiro"
       id="path-effect4170-8-3"
       is_visible="true" />
    <inkscape:path-effect
       effect="spiro"
       id="path-effect4172-4-4-5"
       is_visible="true" />
    <inkscape:path-effect
       effect="spiro"
       id="path-effect4170-5-9-5"
       is_visible="true" />
    <inkscape:path-effect
       effect="spiro"
       id="path-effect4172-8-3-4"
       is_visible="true" />
    <inkscape:path-effect
       effect="spiro"
       id="path-effect4170-8-3-9"
       is_visible="true" />
    <inkscape:path-effect
       effect="spiro"
       id="path-effect4172-4-4-5-1"
       is_visible="true" />
    <inkscape:path-effect
       effect="spiro"
       id="path-effect4170-5-9-5-2"
       is_visible="true" />
    <inkscape:path-effect
       effect="spiro"
       id="path-effect4116-24-1-5"
       is_visible="true" />
    <inkscape:path-effect
       effect="spiro"
       id="path-effect4116-0-5-6-0"
       is_visible="true" />
    <inkscape:path-effect
       effect="spiro"
       id="path-effect4164-8-40-1-8"
       is_visible="true" />
    <inkscape:path-effect
       effect="spiro"
       id="path-effect4164-17-6-3"
       is_visible="true" />
  </defs>
  <sodipodi:namedview
     id="base"
     pagecolor="#ffffff"
     bordercolor="#666666"
     borderopacity="1.0"
     inkscape:pageopacity="0.0"
     inkscape:pageshadow="2"
     inkscape:zoom="2.1154982"
     inkscape:cx="115.63388"
     inkscape:cy="175.89488"
     inkscape:document-units="px"
     inkscape:current-layer="g3443-8-7-2-5-7"
     showgrid="false"
     inkscape:window-width="1280"
     inkscape:window-height="961"
     inkscape:window-x="-8"
     inkscape:window-y="-8"
     inkscape:window-maximized="1" />
  <metadata
     id="metadata12265">
    <rdf:RDF>
      <cc:Work
         rdf:about="">
        <dc:format>image/svg+xml</dc:format>
        <dc:type
           rdf:resource="http://purl.org/dc/dcmitype/StillImage" />
        <dc:title></dc:title>
      </cc:Work>
    </rdf:RDF>
  </metadata>
  <g
     inkscape:label="Body"
     inkscape:groupmode="layer"
     id="layer1"
     transform="translate(0,-677.36218)">
    <g
       id="g14344"
       transform="translate(75.714285,26.785714)">
      <g
         id="g15268-9-9-1"
         transform="matrix(1.265386,0,0,1.265386,-85.242377,-262.67621)"
         style="stroke:#4d4d4d">
        <g
           style="fill:#FF52A2;fill-opacity:1;stroke:#4d4d4d"
           transform="matrix(0.1953115,0,0,0.1953115,-31.08083,627.28824)"
           id="g3443-8-7-2-5-7">
          <path
             style="color:#000000;fill:#FF52A2;stroke:#6bba36;stroke-width:5.26008176;stroke-linecap:butt;stroke-linejoin:miter;stroke-miterlimit:4;stroke-opacity:1;stroke-dasharray:none;stroke-dashoffset:0;marker:none;visibility:visible;display:inline;overflow:visible;enable-background:accumulate;fill-opacity:1;fill-rule:nonzero"
             d="m 807.44507,854.65851 c 0,0 -2.02598,15.77813 -4.06325,23.90196 -3.551,14.15992 -10.5134,18.16272 -10.5134,18.16272 0,0 -4.99639,30.10098 -10.04207,43.74474 -4.47859,12.11037 -10.42645,19.8823 -13.8661,29.39953 -1.66308,4.60152 -4.34543,18.81446 -6.63341,28.19408 -1.87089,7.66956 -4.26511,11.16276 -5.80074,22.96196 -1.37854,10.5921 -1.41864,21.3587 -0.9562,32.0302 0.32653,7.533 1.8208,14.9704 2.62851,22.4671 1.13201,10.5064 6.74504,21.6274 3.1079,31.549 -1.22172,3.3327 -4.58117,5.6209 -7.64586,7.4117 -7.02998,4.1078 -15.93995,3.7211 -23.42197,6.9326 -15.97402,6.8565 -32.26186,14.4167 -45.17573,26.0534 -15.13111,13.6346 -35.85425,49.4788 -35.85425,49.4788 l 0,-225.16474 0,-281.32132 c 0,0 21.89197,-0.0722 31.88981,-3.68484 7.41898,-2.68082 18.35821,-14.93403 18.35821,-14.93403 l -0.0522,42.50656 c 0,0 7.01994,9.15383 11.68733,12.38369 9.02715,6.24681 17.53647,8.27775 30.38013,12.7143 12.84366,4.43655 31.36012,8.17125 46.85111,12.90751 8.60217,2.63005 17.72449,4.21791 25.57646,8.6066 9.23278,5.16043 18.36047,11.61431 24.37655,20.3138 5.8764,8.4976 11.41648,17.88414 15.04613,30.39541 0,0 1.49043,9.55182 0.9717,14.30185 -1.35208,12.38082 -10.51898,35.85201 -10.51898,35.85201 0,0 -10.81768,-1.50591 -19.11785,-4.05941 -5.21711,-1.60501 -17.21196,-3.1052 -17.21196,-3.1052 z"
             id="path3322"
             inkscape:connector-curvature="0"
             sodipodi:nodetypes="cscssasaaaaaacccsccazaassacscc" />
          <text
             xml:space="preserve"
             style="font-size:44.5083847px;font-style:normal;font-variant:normal;font-weight:normal;font-stretch:normal;text-indent:0;text-align:end;text-decoration:none;line-height:91.00000262%;letter-spacing:0px;word-spacing:0px;text-transform:none;direction:ltr;block-progression:tb;writing-mode:lr-tb;text-anchor:end;baseline-shift:baseline;color:#000000;fill:#000000;fill-opacity:1;fill-rule:nonzero;stroke:none;stroke-width:1;marker:none;visibility:visible;display:inline;overflow:visible;enable-background:accumulate;font-family:Poppins;-inkscape-font-specification:Poppins"
             x="1072.5313"
             y="1137.6516"
             id="text5830-6-1-0-5-8-9-8-9"
             sodipodi:linespacing="91.000003%"><tspan
               sodipodi:role="line"
               id="tspan5832-8-3-61-3-0-0-4-5"
               x="1083.4845"
               y="1137.6516">Left </tspan><tspan
               sodipodi:role="line"
               x="1072.5313"
               y="1178.1543"
               id="tspan3339">Back</tspan></text>
          <path
             sodipodi:nodetypes="ccc"
             inkscape:connector-curvature="0"
             id="path11998-8-9-4-9-2"
             d="m 760.46749,1061.8915 173.60445,81.2033 25.53139,0"
             style="color:#000000;fill:none;stroke:#4d4d4d;stroke-width:3.23697352;stroke-linecap:butt;stroke-linejoin:miter;stroke-miterlimit:4;stroke-opacity:1;stroke-dasharray:none;stroke-dashoffset:0;marker:none;visibility:visible;display:inline;overflow:visible;enable-background:accumulate" />
        </g>
      </g>
    </g>
  </g>
</svg>
