<?xml version="1.0" encoding="UTF-8" standalone="no"?>
<!-- Created with Inkscape (http://www.inkscape.org/) -->

<svg
   xmlns:dc="http://purl.org/dc/elements/1.1/"
   xmlns:cc="http://creativecommons.org/ns#"
   xmlns:rdf="http://www.w3.org/1999/02/22-rdf-syntax-ns#"
   xmlns:svg="http://www.w3.org/2000/svg"
   xmlns="http://www.w3.org/2000/svg"
   xmlns:sodipodi="http://sodipodi.sourceforge.net/DTD/sodipodi-0.dtd"
   xmlns:inkscape="http://www.inkscape.org/namespaces/inkscape"
   width="220"
   height="375"
   id="svg12260"
   version="1.1"
   inkscape:version="0.48.5 r10040"
   sodipodi:docname="Abdomen.svg">
  <defs
     id="defs12262">
    <inkscape:path-effect
       effect="spiro"
       id="path-effect4116-24-1"
       is_visible="true" />
    <inkscape:path-effect
       effect="spiro"
       id="path-effect4116-0-5-6"
       is_visible="true" />
    <inkscape:path-effect
       effect="spiro"
       id="path-effect4164-8-40-1"
       is_visible="true" />
    <inkscape:path-effect
       effect="spiro"
       id="path-effect4164-17-6"
       is_visible="true" />
    <inkscape:path-effect
       effect="spiro"
       id="path-effect4172-8-3"
       is_visible="true" />
    <inkscape:path-effect
       effect="spiro"
       id="path-effect4170-8-3"
       is_visible="true" />
    <inkscape:path-effect
       effect="spiro"
       id="path-effect4172-4-4-5"
       is_visible="true" />
    <inkscape:path-effect
       effect="spiro"
       id="path-effect4170-5-9-5"
       is_visible="true" />
    <inkscape:path-effect
       effect="spiro"
       id="path-effect4172-8-3-4"
       is_visible="true" />
    <inkscape:path-effect
       effect="spiro"
       id="path-effect4170-8-3-9"
       is_visible="true" />
    <inkscape:path-effect
       effect="spiro"
       id="path-effect4172-4-4-5-1"
       is_visible="true" />
    <inkscape:path-effect
       effect="spiro"
       id="path-effect4170-5-9-5-2"
       is_visible="true" />
    <inkscape:path-effect
       effect="spiro"
       id="path-effect4116-24-1-5"
       is_visible="true" />
    <inkscape:path-effect
       effect="spiro"
       id="path-effect4116-0-5-6-0"
       is_visible="true" />
    <inkscape:path-effect
       effect="spiro"
       id="path-effect4164-8-40-1-8"
       is_visible="true" />
    <inkscape:path-effect
       effect="spiro"
       id="path-effect4164-17-6-3"
       is_visible="true" />
  </defs>
  <sodipodi:namedview
     id="base"
     pagecolor="#ffffff"
     bordercolor="#666666"
     borderopacity="1.0"
     inkscape:pageopacity="0.0"
     inkscape:pageshadow="2"
     inkscape:zoom="2.1154982"
     inkscape:cx="115.63388"
     inkscape:cy="219.12042"
     inkscape:document-units="px"
     inkscape:current-layer="g15268-9-9-1"
     showgrid="false"
     inkscape:window-width="1280"
     inkscape:window-height="961"
     inkscape:window-x="-8"
     inkscape:window-y="-8"
     inkscape:window-maximized="1" />
  <metadata
     id="metadata12265">
    <rdf:RDF>
      <cc:Work
         rdf:about="">
        <dc:format>image/svg+xml</dc:format>
        <dc:type
           rdf:resource="http://purl.org/dc/dcmitype/StillImage" />
        <dc:title></dc:title>
      </cc:Work>
    </rdf:RDF>
  </metadata>
  <g
     inkscape:label="Body"
     inkscape:groupmode="layer"
     id="layer1"
     transform="translate(0,-677.36218)">
    <g
       id="g14344"
       transform="translate(75.714285,26.785714)">
      <g
         id="g15268-9-9-1"
         transform="matrix(1.265386,0,0,1.265386,-85.242377,-262.67621)"
         style="stroke:#4d4d4d">
        <g
           style="fill:#FF52A2;fill-opacity:1;stroke:#4d4d4d"
           transform="matrix(0.1953115,0,0,0.1953115,-31.08083,627.28824)"
           id="g3443-8-7-2-5-7">
          <path
             style="color:#000000;fill:#FF52A2;fill-opacity:1;fill-rule:nonzero;stroke:#4d4d4d;stroke-width:2.29999995;stroke-linecap:butt;stroke-linejoin:miter;stroke-miterlimit:4;stroke-opacity:1;stroke-dasharray:none;stroke-dashoffset:0;marker:none;visibility:visible;display:inline;overflow:visible;enable-background:accumulate"
             d="m 582.05733,922.60287 -0.5844,12.5545 c 0,0 -2.891,47.8868 -3.5017,71.86113 -0.3862,15.1621 0.098,30.3352 -0.1023,45.5008 -0.1023,7.77 3.5038,16.683 -0.5618,23.3053 -2.2138,3.6059 -6.9642,6.3987 -11.1781,6.0154 -11.99237,-1.0909 -28.20057,-22.5786 -28.20057,-22.5786 0,0 2.24384,-9.5636 2.54235,-14.4428 0.50677,-8.2832 -0.39967,-16.6122 -1.29491,-24.8625 -1.47217,-13.5672 -3.39136,-27.14803 -6.68977,-40.39023 -2.92794,-11.7549 -7.7631,-22.9509 -11.5731,-34.4502 -2.9981,-9.0488 -8.8817,-27.1834 -8.8817,-27.1834 0,0 1.48,-37.193 3.2297,-55.7126 0.4468,-4.7287 1.8541,-14.1282 1.8541,-14.1282 0,0 1.9773,10.9567 4.8637,22.4457 1.3602,5.4141 2.9963,11.7606 4.5862,15.6363 1.9794,4.8252 4.2868,8.7647 7.6964,12.1249 5.4192,5.3407 11.5032,8.4182 18.6611,11.0559 0.4108,0.1514 19.0305,5.1011 19.0305,5.1011 l 11.591,1.1824 z"
             id="path3725-42-1-3-6-1"
             inkscape:connector-curvature="0"
             sodipodi:nodetypes="ccaaaacaaaacacssssccc" />
          <path
             style="color:#000000;fill:#FF52A2;fill-opacity:1;fill-rule:nonzero;stroke:#4d4d4d;stroke-width:2.29999995;stroke-linecap:butt;stroke-linejoin:miter;stroke-miterlimit:4;stroke-opacity:1;stroke-dasharray:none;stroke-dashoffset:0;marker:none;visibility:visible;display:inline;overflow:visible;enable-background:accumulate"
             d="m 722.23043,925.64787 c 0.027,3.197 1.2358,8.4763 1.536,12.7448 1.6056,22.8237 2.0622,45.7551 1.4083,68.62583 -0.4295,15.0215 -3.4988,44.9468 -3.4988,44.9468 0,0 -2.1075,18.1648 -0.2692,27.1833 1.0486,5.1446 10.54777,4.1921 15.6102,2.6914 9.75602,-2.892 22.39642,-20.7435 22.39642,-20.7435 0,0 -2.14865,-13.7831 -1.64478,-21.118 0.27402,-3.9891 0.26418,-8.5702 0.5216,-12.5343 0.32474,-5.001 0.98633,-9.3741 2.1914,-14.2915 1.18761,-4.8461 3.01378,-8.9369 4.07001,-13.79463 1.66116,-7.6398 2.88095,-15.418 5.34695,-22.8372 4.03981,-12.1541 11.3759,-23.0454 15.3794,-35.2115 4.1658,-12.6594 8.8817,-38.9827 8.8817,-38.9827 0,0 -2.6028,-13.5619 -3.9909,-22.5982 -1.3882,-9.0364 -4.1379,-31.637 -4.1379,-31.637 0,0 0.6871,10.1954 -2.1993,21.6844 -1.3602,5.4141 -2.9963,9.4769 -4.5862,13.3526 -1.9794,4.8252 -6.9512,11.8097 -10.3608,15.1699 -5.4192,5.3407 -11.5032,8.4182 -18.6611,11.0559 -0.4108,0.1514 -12.6086,3.7261 -19.0305,5.1011 -3.1985,0.6848 -9.6878,1.5631 -9.6878,1.5631 0,0 0.6987,6.4324 0.7253,9.6294 z"
             id="path3725-4-3-1-4-2-8"
             inkscape:connector-curvature="0"
             sodipodi:nodetypes="zaacsacssssaaczcssssacz" />
          <path
             style="color:#000000;fill:#FF52A2;fill-opacity:1;fill-rule:nonzero;stroke:#4d4d4d;stroke-width:2.29999995;stroke-linecap:butt;stroke-linejoin:miter;stroke-miterlimit:4;stroke-opacity:1;stroke-dasharray:none;stroke-dashoffset:0;marker:none;visibility:visible;display:inline;overflow:visible;enable-background:accumulate"
             d="m 674.19273,901.51447 c 0,0 -9.16295,-0.4337 -13.5938,0.5313 -2.8389,0.6183 -8.0624,3.3125 -8.0624,3.3125 l 0,21.2188 0,22.1874 c 0,0 5.6058,4.2206 8.5937,6.0626 8.5061,5.244 17.8292,9.0503 26.4375,14.125 7.9111,4.6637 14.8279,11.0324 23.125,14.9687 1.3633,0.6468 3.3356,1.3363 5.25,1.9375 -0.019,-0.101 -0.094,-0.5625 -0.094,-0.5625 0,0 2.4586,-5.7139 3.0313,-8.75 1.5416,-8.1722 1.7115,-16.6544 0.9687,-24.9375 -0.7367,-8.2171 -2.7672,-16.3501 -5.3437,-24.1875 -1.3658,-4.1547 -5.3125,-11.9687 -5.3125,-11.9687 0,0 -5.8624,-1.5753 -8.75,-2.5 -5.1581,-1.652 -10.3716,-3.2502 -15.3125,-5.4688 -3.7915,-1.7025 -10.9375,-5.9688 -10.9375,-5.9688 z"
             id="path3752-07-0-6-3-7"
             inkscape:connector-curvature="0"
             sodipodi:nodetypes="cacccsscccscsccscc" />
          <path
             style="color:#000000;fill:#FF52A2;fill-opacity:1;fill-rule:nonzero;stroke:#4d4d4d;stroke-width:2.29999995;stroke-linecap:butt;stroke-linejoin:miter;stroke-miterlimit:4;stroke-opacity:1;stroke-dasharray:none;stroke-dashoffset:0;marker:none;visibility:visible;display:inline;overflow:visible;enable-background:accumulate"
             d="m 630.28653,901.60827 c 0,0 -10.0984,6.556 -15.6876,8.6875 -6.1975,2.3636 -19.4062,4.375 -19.4062,4.375 -2.2838,1.5225 -6.3065,12.2602 -8.1875,18.8437 -2.5015,8.7559 -3.3321,17.9497 -4,27.0313 -0.3071,4.1756 -0.6009,8.419 0,12.5625 0.5128,3.5358 3.0313,10.2812 3.0313,10.2812 0,0 -0.057,0.4322 -0.063,0.4688 1.8353,-0.6149 3.9577,-1.393 5.3438,-2.0312 10.3443,-4.7635 19.5193,-11.7522 29.5938,-17.0626 6.7796,-3.5735 13.9131,-6.4137 20.7187,-9.9374 3.6901,-1.9106 10.9063,-6.0626 10.9063,-6.0626 l 0,-22.1874 0,-21.2188 c 0,0 -5.57445,-2.9655 -8.625,-3.5938 -4.44858,-0.9163 -13.625,-0.1562 -13.625,-0.1562 z"
             id="path3752-0-7-9-0-8-4"
             inkscape:connector-curvature="0"
             sodipodi:nodetypes="ccccssccccscccacc" />
          <path
             style="color:#000000;fill:#FF52A2;fill-opacity:1;fill-rule:nonzero;stroke:#4d4d4d;stroke-width:2.29999995;stroke-linecap:butt;stroke-linejoin:miter;stroke-miterlimit:4;stroke-opacity:1;stroke-dasharray:none;stroke-dashoffset:0;marker:none;visibility:visible;display:inline;overflow:visible;enable-background:accumulate"
             d="m 652.25523,1009.4521 c 0,0 -0.076,0.1499 -0.094,0.1874 l 0,29.6876 0,24.375 c 0,0 4.9346,7.8276 8.6874,10.2812 3.5449,2.3175 7.9949,2.8607 12.1563,3.5938 11.2133,1.9755 23.3592,5.8898 34.0937,2.0937 1.6401,-0.58 2.9101,-2.0596 3.85,-3.5235 1.893,-2.9483 2.5368,-6.5686 3.2254,-10.0039 1.3111,-6.5404 0.885,-12.7889 1.6746,-19.9413 0.4602,-4.1694 0.7102,-8.3678 0.75,-12.5626 0.028,-2.9083 -0.3102,-8.3305 -0.3437,-8.8437 -3.2259,-0.1058 -6.4039,-1.1652 -9.625,-1.625 -7.7317,-1.1037 -15.5317,-1.6777 -23.272,-2.7197 -6.4359,-0.8665 -12.9442,-1.423 -19.2593,-2.9366 -2.4858,-0.5958 -5.1834,-0.9507 -7.2812,-2.4062 -1.9898,-1.3805 -4.5625,-5.6562 -4.5625,-5.6562 z"
             id="path3792-8-2-6-2-2"
             inkscape:connector-curvature="0"
             sodipodi:nodetypes="cccccaaaacccaaaccc" />
          <path
             style="color:#000000;fill:#FF52A2;fill-opacity:1;fill-rule:nonzero;stroke:#4d4d4d;stroke-width:2.29999995;stroke-linecap:butt;stroke-linejoin:miter;stroke-miterlimit:4;stroke-opacity:1;stroke-dasharray:none;stroke-dashoffset:0;marker:none;visibility:visible;display:inline;overflow:visible;enable-background:accumulate"
             d="m 652.16153,1009.6395 c -0.2415,0.513 -2.0029,4.188 -3.6876,5.4688 -2.0324,1.5454 -4.7771,1.9079 -7.2812,2.4062 -6.1748,1.2296 -12.8734,1.9887 -19.3333,2.8128 -7.3156,0.9333 -14.6366,1.8882 -21.9927,2.4134 -5.2351,0.3739 -10.5331,1.1304 -15.7365,0.5238 -0.2226,-0.026 -0.5068,-0.087 -0.7813,-0.1562 -0.075,0.2055 -1.5297,4.1795 -1.875,6.3438 -0.6594,4.1364 -0.4855,8.3752 -0.375,12.5624 0.202,7.6363 2.3843,17.6737 4.1223,26.4137 0.4071,2.0471 0.6391,4.173 1.475,6.0856 0.6371,1.4577 1.42,2.9552 2.6405,3.9757 0.7609,0.6362 1.7544,1.0082 2.731,1.1813 11.9791,2.1233 24.4507,-0.1131 36.4375,-2.0937 4.4622,-0.7374 9.1184,-1.3549 13.0313,-3.5938 4.2763,-2.447 10.625,-10.2812 10.625,-10.2812 l 0,-24.375 z"
             id="path3792-4-7-49-6-6-7"
             inkscape:connector-curvature="0"
             sodipodi:nodetypes="cccaaccccaaaaccccc" />
          <path
             style="color:#000000;fill:#FF52A2;fill-opacity:1;fill-rule:nonzero;stroke:#4d4d4d;stroke-width:2.29999995;stroke-linecap:butt;stroke-linejoin:miter;stroke-miterlimit:4;stroke-opacity:1;stroke-dasharray:none;stroke-dashoffset:0;marker:none;visibility:visible;display:inline;overflow:visible;enable-background:accumulate"
             d="m 786.03653,848.26447 c 0.031,0.5161 0.5917,10.313 -2.2188,21.5 -1.3602,5.4142 -2.9726,9.4994 -4.5625,13.375 -1.131,2.7571 -3.2608,6.1971 -5.5,9.2813 0.1816,4.024 0.7913,18.3561 0.5,26.4375 -0.4957,13.7522 -0.027,27.886 -3.7813,41.125 -2.3375,8.2428 -11.4374,23.0312 -11.4374,23.0312 l 6.2812,9.5 0.1875,0 c 1.2366,-5.4049 2.6098,-10.7673 4.4063,-16 4.1587,-12.1137 11.3714,-23.0526 15.375,-35.2187 4.1657,-12.6594 8.875,-38.9687 8.875,-38.9687 0,0 -2.6121,-13.5575 -4,-22.5938 -1.3709,-8.9232 -4.0267,-30.7897 -4.0938,-31.3438 l -0.031,-0.125 z"
             id="path3812-3-1-1-2-7"
             inkscape:connector-curvature="0"
             sodipodi:nodetypes="csccsscccccccccc" />
          <path
             style="color:#000000;fill:#FF52A2;fill-opacity:1;fill-rule:nonzero;stroke:#4d4d4d;stroke-width:2.29999995;stroke-linecap:butt;stroke-linejoin:miter;stroke-miterlimit:4;stroke-opacity:1;stroke-dasharray:none;stroke-dashoffset:0;marker:none;visibility:visible;display:inline;overflow:visible;enable-background:accumulate"
             d="m 516.76908,846.15177 c 0,0 -1.06705,11.3528 -1.51385,16.0815 -1.7497,18.5196 -4.48804,62.2458 -4.48804,62.2458 0,0 1.19017,6.3998 3.41118,12.4993 0.97357,2.6737 3.4919,5.3308 6.73316,12.361 3.24126,7.0303 8.5424,18.506 11.5624,30.2377 0.7651,2.9715 1.64969,6.2432 2.33719,9.2366 l 2.65671,-2.4693 5.0061,-4.8611 c 0,0 -8.6044,-14.591 -10.8437,-22.6562 -3.5801,-12.8944 -3.3129,-26.596 -3.8125,-39.9688 -0.3506,-9.3841 0.5625,-28.1562 0.5625,-28.1562 l -0.1875,-0.9688 c -0.5662,-1.1313 -1.1148,-2.3187 -1.625,-3.5625 -1.5899,-3.8757 -3.2334,-10.2109 -4.5938,-15.625 -2.8863,-11.489 -5.20485,-24.394 -5.20485,-24.394 z"
             id="path3812-8-0-5-8-7-9"
             inkscape:connector-curvature="0"
             sodipodi:nodetypes="cscszccccssccccc" />
          <path
             inkscape:connector-curvature="0"
             style="color:#000000;fill:#FF52A2;fill-opacity:1;fill-rule:nonzero;stroke:#4d4d4d;stroke-width:2.29999995;stroke-linecap:butt;stroke-linejoin:miter;stroke-miterlimit:4;stroke-opacity:1;stroke-dasharray:none;stroke-dashoffset:0;marker:none;visibility:visible;display:inline;overflow:visible;enable-background:accumulate"
             d="m 652.53653,948.76447 c 0,0 -0.2646,0.1467 -0.2813,0.1563 l 0,35.2187 0,25.31263 c 0,0 2.5727,4.2757 4.5625,5.6562 2.0978,1.4555 4.7954,1.8104 7.2812,2.4062 6.3151,1.5136 12.8234,2.0701 19.2593,2.9366 7.7403,1.042 15.5403,1.616 23.272,2.7197 3.2211,0.4598 6.3991,1.5192 9.625,1.625 0,-0.024 -0.031,-0.3125 -0.031,-0.3125 0,0 2.3034,-12.3932 2.2813,-18.6562 -0.023,-6.47803 -2.2738,-18.45013 -2.5625,-19.96883 -1.9144,-0.6012 -3.8867,-1.2907 -5.25,-1.9375 -8.2971,-3.9363 -15.2139,-10.3051 -23.125,-14.9687 -8.6083,-5.0748 -17.9314,-8.8812 -26.4375,-14.125 -2.9879,-1.8421 -8.5937,-6.0626 -8.5937,-6.0626 z"
             id="path3772-2-2-20-7-7-6"
             sodipodi:nodetypes="cccccaaaccccccccc" />
          <path
             inkscape:connector-curvature="0"
             style="color:#000000;fill:#FF52A2;fill-opacity:1;fill-rule:nonzero;stroke:#4d4d4d;stroke-width:2.29999995;stroke-linecap:butt;stroke-linejoin:miter;stroke-miterlimit:4;stroke-opacity:1;stroke-dasharray:none;stroke-dashoffset:0;marker:none;visibility:visible;display:inline;overflow:visible;enable-background:accumulate"
             d="m 652.25523,948.92077 c -0.4673,0.2686 -7.0619,4.0614 -10.625,5.9063 -6.8056,3.5235 -13.9391,6.3641 -20.7187,9.9374 -10.0747,5.3106 -19.2495,12.299 -29.5938,17.0626 -1.3861,0.638 -3.5085,1.4163 -5.3438,2.0312 -0.083,0.5574 -0.7137,4.7426 -1.0624,7.125 -0.6501,4.4384 -1.5883,8.8692 -1.9063,13.34383 -0.3058,4.3026 0,12.9374 0,12.9374 l 0.375,5.7188 c 0,0 -0.029,0.1197 -0.031,0.125 0.2743,0.069 0.5587,0.1303 0.7813,0.1562 5.2034,0.6064 10.5014,-0.1499 15.7365,-0.5238 7.3561,-0.5252 14.6769,-1.4801 21.9924,-2.4134 6.46,-0.8241 13.1588,-1.5834 19.3336,-2.8128 2.5041,-0.4985 5.2488,-0.8608 7.2812,-2.4062 1.8078,-1.3745 3.7813,-5.6562 3.7813,-5.6562 l 0,-25.31263 0,-35.2187 z"
             id="path3772-9-0-12-8-8-5"
             sodipodi:nodetypes="ccccccsccccaacccccc" />
          <path
             style="color:#000000;fill:#FF52A2;fill-opacity:1;fill-rule:nonzero;stroke:#4d4d4d;stroke-width:2.29999995;stroke-linecap:butt;stroke-linejoin:miter;stroke-miterlimit:4;stroke-opacity:1;stroke-dasharray:none;stroke-dashoffset:0;marker:none;visibility:visible;display:inline;overflow:visible;enable-background:accumulate"
             d="m 710.20836,1078.3671 c 0,0 -0.26641,12.1505 -0.8462,18.1939 -0.65335,6.8102 -1.94801,13.5436 -2.9618,20.3095 -1.92424,12.8421 -2.97814,25.8564 -5.92363,38.5034 -3.62226,15.5529 -8.84888,30.7179 -14.38587,45.6964 -5.60891,15.173 -9.14187,31.8439 -19.04019,44.6386 -1.90741,2.4655 -4.45999,4.6888 -7.40454,5.712 -5.66243,1.9675 -12.14014,1.5545 -17.9823,0.2116 -2.15149,-0.4946 -4.34816,-1.4154 -5.9236,-2.9618 -7.27078,-7.137 -9.98767,-17.7911 -14.17437,-27.0794 -5.11816,-11.3547 -9.82921,-22.9535 -13.32811,-34.9069 -5.26068,-17.9721 -7.36179,-36.7246 -11.42409,-55.0049 -2.38959,-10.7531 -6.22425,-21.2296 -7.6161,-32.1567 -0.85559,-6.717 -0.42309,-20.3095 -0.42309,-20.3095 0,0 7.01863,1.3932 10.5779,1.4809 7.85694,0.1935 15.69385,-1.0667 23.48286,-2.1156 6.31977,-0.8511 18.82862,-3.3849 18.82862,-3.3849 0,0 -3.16719,6.1371 -2.83036,9.3882 0.20567,1.9851 1.90569,4.0188 2.86661,5.2562 1.75549,2.2605 5.20287,3.4789 8.13743,3.3743 3.22372,-0.1149 6.44448,-1.9824 8.6526,-4.3339 1.6845,-1.7939 2.74959,-4.3384 2.88482,-6.7955 0.16412,-2.9821 -2.57496,-8.5818 -2.57496,-8.5818 0,0 12.77393,3.6337 19.25166,5.0774 3.63842,0.8109 7.29272,1.6296 11.00097,2.0098 4.45587,0.4568 9.00301,0.9734 13.43393,0.3173 2.68024,-0.3969 7.72181,-2.5386 7.72181,-2.5386 z"
             id="path5631-1-7-6-7-9"
             inkscape:connector-curvature="0"
             sodipodi:nodetypes="caaaaaaaaaaaacaacasaaacaaac" />
          <path
             style="color:#000000;fill:#FF52A2;fill-opacity:1;fill-rule:nonzero;stroke:#4d4d4d;stroke-width:2.29999995;stroke-linecap:butt;stroke-linejoin:miter;stroke-miterlimit:4;stroke-opacity:1;stroke-dasharray:none;stroke-dashoffset:0;marker:none;visibility:visible;display:inline;overflow:visible;enable-background:accumulate"
             d="m 655.73259,1071.25 c 0,0 4.71463,5.6578 5.35548,9.1263 0.41011,2.2196 0.0526,4.747 -1.11402,6.6794 -1.78679,2.9594 -4.83746,5.7736 -8.25809,6.2741 -3.86781,0.5659 -8.12526,-1.2523 -10.97882,-4.1216 -1.2974,-1.3046 -2.17138,-3.3664 -2.1422,-5.2992 0.0546,-3.5984 2.44499,-6.738 4.28441,-9.715 0.81651,-1.3214 2.94557,-3.5328 2.94557,-3.5328"
             id="path5644-3-20-3-6-0"
             inkscape:connector-curvature="0"
             sodipodi:nodetypes="caaaaaac" />
          <path
             style="color:#000000;fill:#FF52A2;fill-opacity:1;fill-rule:nonzero;stroke:#4d4d4d;stroke-width:2.29999995;stroke-linecap:butt;stroke-linejoin:miter;stroke-miterlimit:4;stroke-opacity:1;stroke-dasharray:none;stroke-dashoffset:0;marker:none;visibility:visible;display:inline;overflow:visible;enable-background:accumulate"
             d="m 649.30598,1077.1379 c 0,0 -4.16628,3.3779 -4.28443,5.888 -0.0769,1.6311 1.254,3.0957 2.41,4.1215 1.18687,1.0533 2.86667,2.3798 4.28441,1.7664 1.60904,-0.6962 4.02381,-2.7315 4.55542,-5.0158 0.53161,-2.2843 -0.81993,-4.8177 -0.81993,-4.8177"
             id="path5646-2-2-6-7-0"
             inkscape:connector-curvature="0"
             sodipodi:nodetypes="caassc" />
        </g>
        <text
           xml:space="preserve"
           style="font-size:8.69299984px;font-style:normal;font-variant:normal;font-weight:normal;font-stretch:normal;text-indent:0;text-align:start;text-decoration:none;line-height:89.99999762%;letter-spacing:0px;word-spacing:0px;text-transform:none;direction:ltr;block-progression:tb;writing-mode:lr-tb;text-anchor:start;baseline-shift:baseline;color:#000000;fill:#000000;fill-opacity:1;fill-rule:nonzero;stroke:none;stroke-width:1;marker:none;visibility:visible;display:inline;overflow:visible;enable-background:accumulate;font-family:Poppins;-inkscape-font-specification:Poppins"
           x="10.263138"
           y="833.88324"
           id="text5830-6-1-0-5-85-6"
           sodipodi:linespacing="89.999998%"><tspan
             sodipodi:role="line"
             id="tspan5832-8-3-61-3-8-2"
             x="10.263138"
             y="833.88324">Abdomen</tspan></text>
        <path
           sodipodi:nodetypes="cc"
           inkscape:connector-curvature="0"
           id="path11998-8-9-4-90-9"
           d="m 87.395143,830.35443 -31.129387,0"
           style="color:#000000;fill:none;stroke:#4d4d4d;stroke-width:0.63221818;stroke-linecap:butt;stroke-linejoin:miter;stroke-miterlimit:4;stroke-opacity:1;stroke-dasharray:none;stroke-dashoffset:0;marker:none;visibility:visible;display:inline;overflow:visible;enable-background:accumulate" />
      </g>
    </g>
  </g>
</svg>
