<?xml version="1.0" encoding="UTF-8" standalone="no"?>
<!-- Created with Inkscape (http://www.inkscape.org/) -->

<svg
   xmlns:dc="http://purl.org/dc/elements/1.1/"
   xmlns:cc="http://creativecommons.org/ns#"
   xmlns:rdf="http://www.w3.org/1999/02/22-rdf-syntax-ns#"
   xmlns:svg="http://www.w3.org/2000/svg"
   xmlns="http://www.w3.org/2000/svg"
   xmlns:sodipodi="http://sodipodi.sourceforge.net/DTD/sodipodi-0.dtd"
   xmlns:inkscape="http://www.inkscape.org/namespaces/inkscape"
   width="220"
   height="375"
   id="svg12260"
   version="1.1"
   inkscape:version="0.48.5 r10040"
   sodipodi:docname="Male_left_hand.svg">
  <defs
     id="defs12262">
    <inkscape:path-effect
       effect="spiro"
       id="path-effect4116-24-1"
       is_visible="true" />
    <inkscape:path-effect
       effect="spiro"
       id="path-effect4116-0-5-6"
       is_visible="true" />
    <inkscape:path-effect
       effect="spiro"
       id="path-effect4164-8-40-1"
       is_visible="true" />
    <inkscape:path-effect
       effect="spiro"
       id="path-effect4164-17-6"
       is_visible="true" />
    <inkscape:path-effect
       effect="spiro"
       id="path-effect4172-8-3"
       is_visible="true" />
    <inkscape:path-effect
       effect="spiro"
       id="path-effect4170-8-3"
       is_visible="true" />
    <inkscape:path-effect
       effect="spiro"
       id="path-effect4172-4-4-5"
       is_visible="true" />
    <inkscape:path-effect
       effect="spiro"
       id="path-effect4170-5-9-5"
       is_visible="true" />
    <inkscape:path-effect
       effect="spiro"
       id="path-effect4172-8-3-4"
       is_visible="true" />
    <inkscape:path-effect
       effect="spiro"
       id="path-effect4170-8-3-9"
       is_visible="true" />
    <inkscape:path-effect
       effect="spiro"
       id="path-effect4172-4-4-5-1"
       is_visible="true" />
    <inkscape:path-effect
       effect="spiro"
       id="path-effect4170-5-9-5-2"
       is_visible="true" />
    <inkscape:path-effect
       effect="spiro"
       id="path-effect4116-24-1-5"
       is_visible="true" />
    <inkscape:path-effect
       effect="spiro"
       id="path-effect4116-0-5-6-0"
       is_visible="true" />
    <inkscape:path-effect
       effect="spiro"
       id="path-effect4164-8-40-1-8"
       is_visible="true" />
    <inkscape:path-effect
       effect="spiro"
       id="path-effect4164-17-6-3"
       is_visible="true" />
  </defs>
  <sodipodi:namedview
     id="base"
     pagecolor="#ffffff"
     bordercolor="#666666"
     borderopacity="1.0"
     inkscape:pageopacity="0.0"
     inkscape:pageshadow="2"
     inkscape:zoom="2.1154982"
     inkscape:cx="115.63388"
     inkscape:cy="156.82124"
     inkscape:document-units="px"
     inkscape:current-layer="g3443-8-7-2-5-7"
     showgrid="false"
     inkscape:window-width="1280"
     inkscape:window-height="961"
     inkscape:window-x="-8"
     inkscape:window-y="-8"
     inkscape:window-maximized="1" />
  <metadata
     id="metadata12265">
    <rdf:RDF>
      <cc:Work
         rdf:about="">
        <dc:format>image/svg+xml</dc:format>
        <dc:type
           rdf:resource="http://purl.org/dc/dcmitype/StillImage" />
        <dc:title></dc:title>
      </cc:Work>
    </rdf:RDF>
  </metadata>
  <g
     inkscape:label="Body"
     inkscape:groupmode="layer"
     id="layer1"
     transform="translate(0,-677.36218)">
    <g
       id="g14344"
       transform="translate(75.714285,26.785714)">
      <g
         id="g15268-9-9-1"
         transform="matrix(1.265386,0,0,1.265386,-85.242377,-262.67621)"
         style="stroke:#4d4d4d">
        <g
           style="fill:#FF52A2;fill-opacity:1;stroke:#4d4d4d"
           transform="matrix(0.1953115,0,0,0.1953115,-31.08083,627.28824)"
           id="g3443-8-7-2-5-7">
          <g
             id="g3917-2-9-8-2-1-5"
             transform="translate(-630.15107,-866.76678)"
             style="color:#000000;fill:#FF52A2;fill-opacity:1;fill-rule:nonzero;stroke:#4d4d4d;stroke-width:2.29999995;stroke-linecap:butt;stroke-linejoin:miter;stroke-miterlimit:4;stroke-opacity:1;stroke-dasharray:none;stroke-dashoffset:0;marker:none;visibility:visible;display:inline;overflow:visible;enable-background:accumulate">
            <path
               inkscape:connector-curvature="0"
               style="color:#000000;fill:#FF52A2;fill-opacity:1;fill-rule:nonzero;stroke:#4d4d4d;stroke-width:2.29999995;stroke-linecap:butt;stroke-linejoin:miter;stroke-miterlimit:4;stroke-opacity:1;stroke-dasharray:none;stroke-dashoffset:0;marker:none;visibility:visible;display:inline;overflow:visible;enable-background:accumulate"
               d="m 1494.4058,2052.1874 c 0,0 0.087,-2.4917 -0.4017,3.4267 -0.4801,5.8128 -2.8113,12.2769 -3.8947,19.3722 -1.0833,7.0953 -1.6528,13.9725 -2.3012,23.1906 -0.5374,7.6402 -0.9058,15.2945 -0.1941,22.8498 0.5731,6.0843 3.6116,17.9115 3.6116,17.9115 0,0 2.0737,20.5621 3.7698,30.7036 0.7834,4.6852 0.2919,10.0318 2.9293,13.8547 1.2165,1.7635 3.2945,3.7023 5.4593,3.4393 1.3619,-0.1654 2.4298,-1.6354 3.0213,-2.923 1.4253,-3.1031 0.395,-6.7381 0.4808,-10.0962 0.1901,-7.4067 0.3948,-14.8302 0.1745,-22.2131 -0.1424,-4.7732 -1.005,-14.2626 -1.005,-14.2626 0.9425,-0.8899 1.9223,0.2139 2.8469,1.3621 0,0 1.4787,13.5392 2.1775,20.3314 0.8754,8.5089 1.0002,17.1788 2.4836,25.5661 0.9888,5.5906 1.9722,11.7943 2.4212,16.5579 0.2529,2.6821 2.1021,5.383 4.5294,6.0446 2.047,0.5579 4.8198,-0.6033 6.149,-2.402 2.668,-3.6104 0.8381,-8.8176 0.9598,-13.2251 0.2351,-8.5098 -0.2591,-16.9784 -0.4902,-25.4623 -0.1022,-3.7539 -0.1307,-7.5303 -0.375,-11.2694 -0.3245,-4.9689 -1.4124,-14.8275 -1.4124,-14.8275 0.8661,-1.8864 1.727,-1.1345 2.5739,-0.8128 l 1.3123,4.2886 c 0,0 1.9544,11.8052 2.8952,17.7196 1.0488,6.593 2.3137,13.117 3.0872,19.7645 0.6729,5.7831 0.6948,11.6697 1.3314,17.4591 0.2922,2.6564 0.054,5.5332 1.115,7.9361 0.7122,1.6133 1.9234,3.0368 3.36,4.0119 1.3239,0.8985 2.9683,1.8205 4.5844,1.5006 2.0431,-0.4044 3.9819,-2.1062 4.9665,-4.0103 1.463,-2.8291 0.5561,-6.3249 0.6312,-9.4542 0.1702,-7.1192 0.1732,-14.1853 -0.3226,-21.2512 -0.5653,-8.057 -1.8617,-16.0583 -3.0413,-24.0116 -0.7519,-5.0705 -1.9819,-10.063 -2.5916,-15.1612 -0.2154,-1.801 -0.3858,-5.4072 -0.3858,-5.4072 1.1654,-0.4632 2.3455,-0.5139 3.4927,1.0848 0,0 0.8642,4.8346 1.3481,7.2636 1.9438,9.7563 4.6366,19.305 6.1538,29.1628 0.8767,5.6966 -0.2068,11.8935 1.7199,17.2584 1.0889,3.0321 2.5099,6.5724 5.3632,7.9396 2.058,0.9861 5.1216,1.0696 6.9403,-0.5084 2.6889,-2.3333 2.1913,-6.8656 2.4862,-10.3743 0.4926,-5.8622 -0.4737,-11.6872 -1.2041,-17.4549 -0.8228,-6.4977 -2.5001,-12.7808 -3.5709,-19.2272 -0.722,-4.3456 -1.4039,-8.717 -1.933,-13.1017 -0.6422,-5.3215 -1.5032,-16.0199 -1.5032,-16.0199 0,0 9.0866,5.9339 14.2585,7.4065 2.5268,0.7193 5.3246,1.3638 7.9249,0.6264 3.0808,-0.8737 6.8182,-2.1924 7.9912,-5.659 0.5636,-1.6654 -2.5045,-3.8948 -3.9457,-5.6867 -1.7133,-2.1303 -5.686,-4.3344 -7.6675,-6.2263 -3.7488,-3.5794 -5.6413,-6.7504 -8.5383,-11.0536 -3.8382,-5.7008 -5.2752,-12.8664 -8.7237,-18.8337 -3.4782,-6.0191 -7.4376,-11.8093 -12.0092,-16.9807 -3.4922,-3.9504 -11.6537,-10.5973 -11.6537,-10.5973 l -3.4311,-7.0511 z"
               id="path2996-0-6-3-3-9-9-1-6-1-8-2-7"
               sodipodi:nodetypes="cszsscsssscsccsscccssccccssscsscscscccssssssssscssccssssccc" />
            <path
               sodipodi:nodetypes="ccc"
               inkscape:connector-curvature="0"
               id="path4088-7-4-8-6-3-6-6-1-6"
               d="m 1529.832,2098.4608 c 0,0 3.3617,7.918 10.9732,12.2087 7.6114,4.2906 16.6002,0.6295 16.6002,0.6295"
               style="color:#000000;fill:#FF52A2;fill-opacity:1;fill-rule:nonzero;stroke:#4d4d4d;stroke-width:2.29999995;stroke-linecap:butt;stroke-linejoin:miter;stroke-miterlimit:4;stroke-opacity:1;stroke-dasharray:none;stroke-dashoffset:0;marker:none;visibility:visible;display:inline;overflow:visible;enable-background:accumulate" />
            <path
               inkscape:connector-curvature="0"
               id="path4090-4-9-8-8-4-3-0-4-1"
               d="m 1517.5613,2135.8843 c 6.3649,-3.1226 5.2824,-3.8936 15.6882,-6.523 l 18.5103,-2.3798"
               style="color:#000000;fill:#FF52A2;fill-opacity:1;fill-rule:nonzero;stroke:#4d4d4d;stroke-width:2.29999995;stroke-linecap:butt;stroke-linejoin:miter;stroke-miterlimit:4;stroke-opacity:1;stroke-dasharray:none;stroke-dashoffset:0;marker:none;visibility:visible;display:inline;overflow:visible;enable-background:accumulate" />
          </g>
          <text
             xml:space="preserve"
             style="font-size:44.5083847px;font-style:normal;font-variant:normal;font-weight:normal;font-stretch:normal;text-indent:0;text-align:end;text-decoration:none;line-height:91.00000262%;letter-spacing:0px;word-spacing:0px;text-transform:none;direction:ltr;block-progression:tb;writing-mode:lr-tb;text-anchor:end;baseline-shift:baseline;color:#000000;fill:#000000;fill-opacity:1;fill-rule:nonzero;stroke:none;stroke-width:1;marker:none;visibility:visible;display:inline;overflow:visible;enable-background:accumulate;font-family:Poppins;-inkscape-font-specification:Poppins"
             x="1072.5313"
             y="1240.6902"
             id="text8838-4-9-6-7-6-4"
             sodipodi:linespacing="91.000003%"><tspan
               sodipodi:role="line"
               x="1083.4845"
               y="1240.6902"
               id="tspan10432-3-7-2-7-2">Left </tspan><tspan
               id="tspan5543-9-5"
               sodipodi:role="line"
               x="1072.5313"
               y="1281.1927">Hand</tspan></text>
          <path
             sodipodi:nodetypes="ccc"
             inkscape:connector-curvature="0"
             id="path11998-8-9-4-8-5"
             d="m 957.02125,1314.1841 64.24635,0 0,-27.7077"
             style="color:#000000;fill:none;stroke:#4d4d4d;stroke-width:3.23697352;stroke-linecap:butt;stroke-linejoin:miter;stroke-miterlimit:4;stroke-opacity:1;stroke-dasharray:none;stroke-dashoffset:0;marker:none;visibility:visible;display:inline;overflow:visible;enable-background:accumulate" />
        </g>
      </g>
    </g>
  </g>
</svg>
