<?xml version="1.0" encoding="UTF-8" standalone="no"?>
<!-- Created with Inkscape (http://www.inkscape.org/) -->

<svg
   xmlns:dc="http://purl.org/dc/elements/1.1/"
   xmlns:cc="http://creativecommons.org/ns#"
   xmlns:rdf="http://www.w3.org/1999/02/22-rdf-syntax-ns#"
   xmlns:svg="http://www.w3.org/2000/svg"
   xmlns="http://www.w3.org/2000/svg"
   xmlns:sodipodi="http://sodipodi.sourceforge.net/DTD/sodipodi-0.dtd"
   xmlns:inkscape="http://www.inkscape.org/namespaces/inkscape"
   width="220"
   height="375"
   id="svg12260"
   version="1.1"
   inkscape:version="0.48.5 r10040"
   sodipodi:docname="Left leg.svg">
  <defs
     id="defs12262">
    <inkscape:path-effect
       effect="spiro"
       id="path-effect4116-24-1"
       is_visible="true" />
    <inkscape:path-effect
       effect="spiro"
       id="path-effect4116-0-5-6"
       is_visible="true" />
    <inkscape:path-effect
       effect="spiro"
       id="path-effect4164-8-40-1"
       is_visible="true" />
    <inkscape:path-effect
       effect="spiro"
       id="path-effect4164-17-6"
       is_visible="true" />
    <inkscape:path-effect
       effect="spiro"
       id="path-effect4172-8-3"
       is_visible="true" />
    <inkscape:path-effect
       effect="spiro"
       id="path-effect4170-8-3"
       is_visible="true" />
    <inkscape:path-effect
       effect="spiro"
       id="path-effect4172-4-4-5"
       is_visible="true" />
    <inkscape:path-effect
       effect="spiro"
       id="path-effect4170-5-9-5"
       is_visible="true" />
    <inkscape:path-effect
       effect="spiro"
       id="path-effect4172-8-3-4"
       is_visible="true" />
    <inkscape:path-effect
       effect="spiro"
       id="path-effect4170-8-3-9"
       is_visible="true" />
    <inkscape:path-effect
       effect="spiro"
       id="path-effect4172-4-4-5-1"
       is_visible="true" />
    <inkscape:path-effect
       effect="spiro"
       id="path-effect4170-5-9-5-2"
       is_visible="true" />
    <inkscape:path-effect
       effect="spiro"
       id="path-effect4116-24-1-5"
       is_visible="true" />
    <inkscape:path-effect
       effect="spiro"
       id="path-effect4116-0-5-6-0"
       is_visible="true" />
    <inkscape:path-effect
       effect="spiro"
       id="path-effect4164-8-40-1-8"
       is_visible="true" />
    <inkscape:path-effect
       effect="spiro"
       id="path-effect4164-17-6-3"
       is_visible="true" />
  </defs>
  <sodipodi:namedview
     id="base"
     pagecolor="#ffffff"
     bordercolor="#666666"
     borderopacity="1.0"
     inkscape:pageopacity="0.0"
     inkscape:pageshadow="2"
     inkscape:zoom="2.1154982"
     inkscape:cx="115.63388"
     inkscape:cy="123.08578"
     inkscape:document-units="px"
     inkscape:current-layer="g3443-8-7-2-5-7"
     showgrid="false"
     inkscape:window-width="1280"
     inkscape:window-height="961"
     inkscape:window-x="-8"
     inkscape:window-y="-8"
     inkscape:window-maximized="1" />
  <metadata
     id="metadata12265">
    <rdf:RDF>
      <cc:Work
         rdf:about="">
        <dc:format>image/svg+xml</dc:format>
        <dc:type
           rdf:resource="http://purl.org/dc/dcmitype/StillImage" />
        <dc:title></dc:title>
      </cc:Work>
    </rdf:RDF>
  </metadata>
  <g
     inkscape:label="Body"
     inkscape:groupmode="layer"
     id="layer1"
     transform="translate(0,-677.36218)">
    <g
       id="g14344"
       transform="translate(75.714285,26.785714)">
      <g
         id="g15268-9-9-1"
         transform="matrix(1.265386,0,0,1.265386,-85.242377,-262.67621)"
         style="stroke:#4d4d4d">
        <g
           style="fill:#FF52A2;fill-opacity:1;stroke:#4d4d4d"
           transform="matrix(0.1953115,0,0,0.1953115,-31.08083,627.28824)"
           id="g3443-8-7-2-5-7">
          <path
             style="color:#000000;fill:#FF52A2;fill-opacity:1;fill-rule:nonzero;stroke:#4d4d4d;stroke-width:2.29999995;stroke-linecap:butt;stroke-linejoin:miter;stroke-miterlimit:4;stroke-opacity:1;stroke-dasharray:none;stroke-dashoffset:0;marker:none;visibility:visible;display:inline;overflow:visible;enable-background:accumulate"
             d="m 673.54717,1436.8895 c 0,0 4.03715,54.1498 8.09375,80.9687 1.80598,11.9397 5.01205,23.6263 7.21875,35.5 1.4974,8.0577 4.09375,24.25 4.09375,24.25 0,0 -5.2409,33.3055 -7,50.0625 -1.3333,12.7012 -3.4454,25.4705 -2.6875,38.2187 0.9457,15.9064 4.1496,26.1767 7.75,41.75 3.0867,13.3509 6.4681,32.0021 8.9375,45.4376 3.186,17.3344 7.1678,34.5538 9.1875,52.0624 0.7262,6.2954 1.03125,19 1.03125,19 0,0 8.56685,5.7618 13.46875,7 11.309,2.857 35.75,2.25 35.75,2.25 0,0 1.35935,-39.627 3.53125,-59.3124 3.4778,-31.5218 12.915,-62.306 15.1875,-93.9376 1.6783,-23.3611 1.0111,-46.9319 -1.1875,-70.25 -0.8889,-9.4272 -4.84375,-27.9687 -4.84375,-27.9687 0,0 -1.20071,-13.6721 -1.59375,-30.2813 -0.4134,9.5186 -1.09375,22.4063 -1.09375,22.4063 0,0 -3.20495,2.3477 -4.28125,3.9687 -3.6781,5.5399 -2.81955,13.4564 -6.84375,18.75 -1.8229,2.3981 -4.39765,4.6224 -7.34375,5.25 -4.7818,1.0186 -9.4914,-1.0086 -14.375,-2.9374 -5.5528,-2.1931 -11.1987,-5.9639 -15.875,-11.1876 -4.6763,-5.2235 -8.1437,-12.83 -10.9375,-19.8437 -3.0488,-7.6538 -4.1559,-15.9219 -6.1875,-23.9063 -1.4727,-5.7876 -2.77567,-11.6147 -4.34375,-17.375 -1.45187,-5.3334 -3.08237,-10.6169 -4.6875,-15.9062 -2.70946,-8.9283 -5.70363,-17.7723 -8.34375,-26.7187 -2.80415,-9.5021 -12.625,-47.25 -12.625,-47.25 z"
             id="path5298-1-5-6-9-3-0"
             inkscape:connector-curvature="0"
             sodipodi:nodetypes="caccssssscccsssccccccscscaasc" />
          <path
             style="color:#000000;fill:#FF52A2;fill-opacity:1;fill-rule:nonzero;stroke:#4d4d4d;stroke-width:2.29999995;stroke-linecap:butt;stroke-linejoin:miter;stroke-miterlimit:4;stroke-opacity:1;stroke-dasharray:none;stroke-dashoffset:0;marker:none;visibility:visible;display:inline;overflow:visible;enable-background:accumulate"
             d="m 766.34673,1516.1673 c 2.0521,0.8637 4.9099,4.5282 4.9099,4.5282 0,0 -0.2462,17.4027 -0.5494,26.099 -0.3169,9.0881 -1.3267,27.2487 -1.3267,27.2487 0,0 -3.2029,2.3492 -4.2792,3.9702 -3.6781,5.5398 -2.8046,13.4499 -6.8288,18.7436 -1.8229,2.398 -4.4076,4.6245 -7.3537,5.2521 -4.7818,1.0186 -9.4901,-0.991 -14.3737,-2.9198 -5.5528,-2.1931 -11.184,-5.977 -15.8603,-11.2006 -4.6763,-5.2236 -8.1526,-12.8144 -10.9464,-19.8281 -3.0488,-7.6538 -4.1722,-15.9406 -6.2038,-23.9249 -1.4727,-5.7877 -4.3389,-17.3829 -4.3389,-17.3829 0,0 8.9733,5.4909 13.9534,6.9996 4.0619,1.2305 8.7499,3.2729 12.6359,1.5665 3.2189,-1.4135 4.1059,-5.138 6.1273,-8.5842 2.7284,-4.6515 6.2713,-9.7402 10.9188,-11.7862 8.1055,-3.5683 16.2812,-1.826 23.5156,1.2188 z"
             id="path3830-4-8-5-7-5-5-9"
             inkscape:connector-curvature="0"
             sodipodi:nodetypes="acacaaaszaacaassa" />
          <path
             style="color:#000000;fill:#FF52A2;fill-opacity:1;fill-rule:nonzero;stroke:#4d4d4d;stroke-width:2.29999995;stroke-linecap:butt;stroke-linejoin:miter;stroke-miterlimit:4;stroke-opacity:1;stroke-dasharray:none;stroke-dashoffset:0;marker:none;visibility:visible;display:inline;overflow:visible;enable-background:accumulate"
             d="m 690.75003,1593.1467 c 0,0 -2.7295,21.4125 -4.0172,32.1282 -1.3805,11.4872 -4.3341,22.9169 -3.976,34.4812 0.5584,18.0348 6.2625,35.5396 9.5156,53.2874 2.7233,14.857 8.3738,44.5332 8.3738,44.5332 0,0 14.2376,-18.4609 17.8894,-29.3082 6.7952,-20.1845 7.3639,-42.2855 6.4707,-63.5644 -0.3465,-8.2542 -1.3796,-16.7383 -4.5676,-24.3599 -4.2917,-10.2602 -12.8113,-18.1853 -19.0312,-27.405 -2.46,-3.6465 -5.2143,-7.1293 -7.2319,-11.0381 -1.4373,-2.7845 -3.4256,-8.7544 -3.4256,-8.7544 z"
             id="path3874-0-1-7-9-9-4"
             inkscape:connector-curvature="0"
             sodipodi:nodetypes="caaacaaaaac" />
          <path
             style="color:#000000;fill:#FF52A2;fill-opacity:1;fill-rule:nonzero;stroke:#4d4d4d;stroke-width:2.29999995;stroke-linecap:butt;stroke-linejoin:miter;stroke-miterlimit:4;stroke-opacity:1;stroke-dasharray:none;stroke-dashoffset:0;marker:none;visibility:visible;display:inline;overflow:visible;enable-background:accumulate"
             d="m 693.49183,1495.109 c 0,0 0.42665,22.8201 6.9977,31.2204 4.44962,5.6883 12.38569,7.884 19.3783,9.6892 4.17318,1.0774 12.9188,0.5383 12.9188,0.5383"
             id="path5308-9-2-85-0-9-3"
             inkscape:connector-curvature="0"
             sodipodi:nodetypes="caac" />
          <path
             style="color:#000000;fill:#FF52A2;fill-opacity:1;fill-rule:nonzero;stroke:#4d4d4d;stroke-width:2.29999995;stroke-linecap:butt;stroke-linejoin:miter;stroke-miterlimit:4;stroke-opacity:1;stroke-dasharray:none;stroke-dashoffset:0;marker:none;visibility:visible;display:inline;overflow:visible;enable-background:accumulate"
             d="m 770.33263,1546.6854 c 0,0 -0.17379,14.4027 -2.6914,20.9931 -1.24324,3.2545 -3.16604,6.4803 -5.9212,8.6126 -3.3217,2.5708 -11.8422,4.3062 -11.8422,4.3062"
             id="path5312-2-5-8-0-8-1"
             inkscape:connector-curvature="0"
             sodipodi:nodetypes="caac" />
          <path
             style="color:#000000;fill:#FF52A2;fill-opacity:1;fill-rule:nonzero;stroke:#4d4d4d;stroke-width:2.29999995;stroke-linecap:butt;stroke-linejoin:miter;stroke-miterlimit:4;stroke-opacity:1;stroke-dasharray:none;stroke-dashoffset:0;marker:none;visibility:visible;display:inline;overflow:visible;enable-background:accumulate"
             d="m 711.79353,1564.1433 c 0,0 7.95521,21.3216 15.8506,29.0073 3.98056,3.8749 14.83417,7.5949 14.83417,7.5949"
             id="path5310-1-7-70-2-2-2"
             inkscape:connector-curvature="0"
             sodipodi:nodetypes="cac" />
          <path
             style="color:#000000;fill:#FF52A2;fill-opacity:1;fill-rule:nonzero;stroke:#4d4d4d;stroke-width:2.29999995;stroke-linecap:butt;stroke-linejoin:miter;stroke-miterlimit:4;stroke-opacity:1;stroke-dasharray:none;stroke-dashoffset:0;marker:none;visibility:visible;display:inline;overflow:visible;enable-background:accumulate"
             d="m 762.21833,1108.8721 c 0,0 -0.71278,4.2183 -1.85679,8.2247 -1.14313,4.0033 -2.71715,7.7938 -3.60721,10.2875 -1.2488,3.4988 -6.981,12.0966 -6.981,12.0966 0,0 -5.1568,15.5351 -6.2626,22.4177 -2.3964,14.9154 -2.7918,30.8169 1.5226,45.2944 4.7478,15.9316 18.5679,27.7017 25.8825,42.63 5.0759,10.3592 12.009,21.0933 17.0555,34.9188 5.6214,15.4007 12.9987,42.6911 12.9987,42.6911 0,0 -0.5817,-10.4247 -1.8086,-21.953 -0.841,-7.9022 -2.1278,-17.6832 -3.1693,-26.3912 -2.3655,-19.7782 -7.6411,-41.1535 -11.1035,-56.4297 -3.0852,-13.6122 -8.845,-28.0586 -12.5387,-42.2905 -2.7367,-10.5445 -4.7815,-24.9473 -5.3001,-28.5237 -0.5186,-3.5764 -2.1947,-13.465 -2.6848,-18.7075 -1.0868,-11.6256 -2.1467,-24.2652 -2.1467,-24.2652 z"
             id="path3810-4-5-0-5-2-2"
             inkscape:connector-curvature="0"
             sodipodi:nodetypes="csscsasscsssszsc" />
          <path
             style="color:#000000;fill:#FF52A2;fill-opacity:1;fill-rule:nonzero;stroke:#4d4d4d;stroke-width:2.29999995;stroke-linecap:butt;stroke-linejoin:miter;stroke-miterlimit:4;stroke-opacity:1;stroke-dasharray:none;stroke-dashoffset:0;marker:none;visibility:visible;display:inline;overflow:visible;enable-background:accumulate"
             d="m 787.97783,1284.6878 c 4.61295,11.2276 9.2785,22.6114 11.5462,34.536 2.8365,14.9159 2.5237,30.3022 2.4222,45.4851 -0.1442,21.5786 -1.6056,42.2766 -4.3062,64.5941 -1.3799,11.4029 -3.2981,22.8214 -6.872,34.348 -1.431,4.6155 -3.7863,13.6822 -5.838,18.3907 -3.8069,8.7361 -8.7663,13.9294 -10.5791,21.0516 -1.5445,6.0677 -2.7063,17.6449 -2.7063,17.6449 0,0 -4.1078,-4.8691 -6.9707,-5.9108 -6.9342,-2.523 -15.3865,-2.8619 -22.1365,0.119 -4.3987,1.9425 -6.6914,6.9192 -9.7743,10.6093 -2.7142,3.2488 -3.6273,8.8445 -7.661,10.1295 -7.6819,2.4471 -17.6767,-4.0675 -23.0596,-7.2973 -5.3828,-3.2297 -5.6275,-11.463 -7.5191,-17.5348 -7.9489,-25.514 -15.6789,-52.5244 -21.4694,-79.2855 -5.3137,-24.5579 -9.2934,-49.4302 -12.1385,-74.3948 -2.4941,-21.8851 -4.62087,-43.9154 -4.3062,-65.9399 0.086,-6.0193 1.69124,-17.9803 1.69124,-17.9803 0,0 3.43766,-1.6117 7.61343,-5.9656 2.32586,-2.4251 5.7943,-6.7699 7.96907,-9.5947 6.27184,-8.1464 9.24203,-17.1879 12.09366,-21.5158 2.85163,-4.3279 13.18818,-23.7848 20.2193,-35.4204 5.27617,-8.7314 11.70023,-19.5186 16.47463,-25.7928 10.472,-13.7613 27.06187,-35.6349 27.06187,-35.6349 0,0 -3.64488,9.2193 -5.61476,20.6073 -1.87994,10.8681 -2.10264,23.7114 -1.56188,32.4018 0.48606,7.8112 2.76396,15.5753 6.01008,22.6967 4.60434,10.1011 13.12751,17.9554 18.70846,27.5515 7.86242,13.519 14.76006,27.6364 20.7034,42.1021 z"
             id="path3834-7-3-3-39-4-05-6"
             inkscape:connector-curvature="0"
             sodipodi:nodetypes="aaasssscaaasssaaacsszascssaaa" />
          <text
             xml:space="preserve"
             style="font-size:44.5083847px;font-style:normal;font-variant:normal;font-weight:normal;font-stretch:normal;text-indent:0;text-align:end;text-decoration:none;line-height:89.99999762%;letter-spacing:0px;word-spacing:0px;text-transform:none;direction:ltr;block-progression:tb;writing-mode:lr-tb;text-anchor:end;baseline-shift:baseline;color:#000000;fill:#000000;fill-opacity:1;fill-rule:nonzero;stroke:none;stroke-width:1;marker:none;visibility:visible;display:inline;overflow:visible;enable-background:accumulate;font-family:Poppins;-inkscape-font-specification:Poppins"
             x="1075.7286"
             y="1763.7672"
             id="text8846-1-2-1-1-7-2"
             sodipodi:linespacing="89.999998%"><tspan
               sodipodi:role="line"
               x="1075.7286"
               y="1763.7672"
               id="tspan10436-3-2-6-8-6">Left Leg</tspan></text>
          <path
             sodipodi:nodetypes="ccc"
             inkscape:connector-curvature="0"
             id="path11926-6-1-0"
             d="m 899.0231,1748.568 -55.49832,0 -64.94655,-74.4469"
             style="fill:none;stroke:#4d4d4d;stroke-width:3.23697352;stroke-linecap:butt;stroke-linejoin:miter;stroke-miterlimit:4;stroke-opacity:1;stroke-dasharray:none" />
        </g>
      </g>
    </g>
  </g>
</svg>
