<?xml version="1.0" encoding="UTF-8" standalone="no"?>
<!-- Created with Inkscape (http://www.inkscape.org/) -->

<svg
   xmlns:dc="http://purl.org/dc/elements/1.1/"
   xmlns:cc="http://creativecommons.org/ns#"
   xmlns:rdf="http://www.w3.org/1999/02/22-rdf-syntax-ns#"
   xmlns:svg="http://www.w3.org/2000/svg"
   xmlns="http://www.w3.org/2000/svg"
   xmlns:sodipodi="http://sodipodi.sourceforge.net/DTD/sodipodi-0.dtd"
   xmlns:inkscape="http://www.inkscape.org/namespaces/inkscape"
   width="220"
   height="375"
   id="svg12260"
   version="1.1"
   inkscape:version="0.48.5 r10040"
   sodipodi:docname="Left tigh.svg">
  <defs
     id="defs12262">
    <inkscape:path-effect
       effect="spiro"
       id="path-effect4116-24-1"
       is_visible="true" />
    <inkscape:path-effect
       effect="spiro"
       id="path-effect4116-0-5-6"
       is_visible="true" />
    <inkscape:path-effect
       effect="spiro"
       id="path-effect4164-8-40-1"
       is_visible="true" />
    <inkscape:path-effect
       effect="spiro"
       id="path-effect4164-17-6"
       is_visible="true" />
    <inkscape:path-effect
       effect="spiro"
       id="path-effect4172-8-3"
       is_visible="true" />
    <inkscape:path-effect
       effect="spiro"
       id="path-effect4170-8-3"
       is_visible="true" />
    <inkscape:path-effect
       effect="spiro"
       id="path-effect4172-4-4-5"
       is_visible="true" />
    <inkscape:path-effect
       effect="spiro"
       id="path-effect4170-5-9-5"
       is_visible="true" />
    <inkscape:path-effect
       effect="spiro"
       id="path-effect4172-8-3-4"
       is_visible="true" />
    <inkscape:path-effect
       effect="spiro"
       id="path-effect4170-8-3-9"
       is_visible="true" />
    <inkscape:path-effect
       effect="spiro"
       id="path-effect4172-4-4-5-1"
       is_visible="true" />
    <inkscape:path-effect
       effect="spiro"
       id="path-effect4170-5-9-5-2"
       is_visible="true" />
    <inkscape:path-effect
       effect="spiro"
       id="path-effect4116-24-1-5"
       is_visible="true" />
    <inkscape:path-effect
       effect="spiro"
       id="path-effect4116-0-5-6-0"
       is_visible="true" />
    <inkscape:path-effect
       effect="spiro"
       id="path-effect4164-8-40-1-8"
       is_visible="true" />
    <inkscape:path-effect
       effect="spiro"
       id="path-effect4164-17-6-3"
       is_visible="true" />
  </defs>
  <sodipodi:namedview
     id="base"
     pagecolor="#ffffff"
     bordercolor="#666666"
     borderopacity="1.0"
     inkscape:pageopacity="0.0"
     inkscape:pageshadow="2"
     inkscape:zoom="2.1154982"
     inkscape:cx="115.63388"
     inkscape:cy="143.48812"
     inkscape:document-units="px"
     inkscape:current-layer="g3443-8-7-2-5-7"
     showgrid="false"
     inkscape:window-width="1280"
     inkscape:window-height="961"
     inkscape:window-x="-8"
     inkscape:window-y="-8"
     inkscape:window-maximized="1" />
  <metadata
     id="metadata12265">
    <rdf:RDF>
      <cc:Work
         rdf:about="">
        <dc:format>image/svg+xml</dc:format>
        <dc:type
           rdf:resource="http://purl.org/dc/dcmitype/StillImage" />
        <dc:title></dc:title>
      </cc:Work>
    </rdf:RDF>
  </metadata>
  <g
     inkscape:label="Body"
     inkscape:groupmode="layer"
     id="layer1"
     transform="translate(0,-677.36218)">
    <g
       id="g14344"
       transform="translate(75.714285,26.785714)">
      <g
         id="g15268-9-9-1"
         transform="matrix(1.265386,0,0,1.265386,-85.242377,-262.67621)"
         style="stroke:#4d4d4d">
        <g
           style="fill:#FF52A2;fill-opacity:1;stroke:#4d4d4d"
           transform="matrix(0.1953115,0,0,0.1953115,-31.08083,627.28824)"
           id="g3443-8-7-2-5-7">
          <path
             style="color:#000000;fill:#FF52A2;fill-opacity:1;fill-rule:nonzero;stroke:#4d4d4d;stroke-width:2.29999995;stroke-linecap:butt;stroke-linejoin:miter;stroke-miterlimit:4;stroke-opacity:1;stroke-dasharray:none;stroke-dashoffset:0;marker:none;visibility:visible;display:inline;overflow:visible;enable-background:accumulate"
             d="m 787.97783,1284.6878 c 4.61295,11.2276 9.2785,22.6114 11.5462,34.536 2.8365,14.9159 2.5237,30.3022 2.4222,45.4851 -0.1442,21.5786 -1.6056,42.2766 -4.3062,64.5941 -1.3799,11.4029 -3.2981,22.8214 -6.872,34.348 -1.431,4.6155 -3.7863,13.6822 -5.838,18.3907 -3.8069,8.7361 -8.7663,13.9294 -10.5791,21.0516 -1.5445,6.0677 -2.7063,17.6449 -2.7063,17.6449 0,0 -4.1078,-4.8691 -6.9707,-5.9108 -6.9342,-2.523 -15.3865,-2.8619 -22.1365,0.119 -4.3987,1.9425 -6.6914,6.9192 -9.7743,10.6093 -2.7142,3.2488 -3.6273,8.8445 -7.661,10.1295 -7.6819,2.4471 -17.6767,-4.0675 -23.0596,-7.2973 -5.3828,-3.2297 -5.6275,-11.463 -7.5191,-17.5348 -7.9489,-25.514 -15.6789,-52.5244 -21.4694,-79.2855 -5.3137,-24.5579 -9.2934,-49.4302 -12.1385,-74.3948 -2.4941,-21.8851 -4.62087,-43.9154 -4.3062,-65.9399 0.086,-6.0193 1.69124,-17.9803 1.69124,-17.9803 0,0 3.43766,-1.6117 7.61343,-5.9656 2.32586,-2.4251 5.7943,-6.7699 7.96907,-9.5947 6.27184,-8.1464 9.24203,-17.1879 12.09366,-21.5158 2.85163,-4.3279 13.18818,-23.7848 20.2193,-35.4204 5.27617,-8.7314 11.70023,-19.5186 16.47463,-25.7928 10.472,-13.7613 27.06187,-35.6349 27.06187,-35.6349 0,0 -3.64488,9.2193 -5.61476,20.6073 -1.87994,10.8681 -2.10264,23.7114 -1.56188,32.4018 0.48606,7.8112 2.76396,15.5753 6.01008,22.6967 4.60434,10.1011 13.12751,17.9554 18.70846,27.5515 7.86242,13.519 14.76006,27.6364 20.7034,42.1021 z"
             id="path3834-7-3-3-39-4-05-6"
             inkscape:connector-curvature="0"
             sodipodi:nodetypes="aaasssscaaasssaaacsszascssaaa" />
          <text
             xml:space="preserve"
             style="font-size:44.5083847px;font-style:normal;font-variant:normal;font-weight:normal;font-stretch:normal;text-indent:0;text-align:end;text-decoration:none;line-height:89.99999762%;letter-spacing:0px;word-spacing:0px;text-transform:none;direction:ltr;block-progression:tb;writing-mode:lr-tb;text-anchor:end;baseline-shift:baseline;color:#000000;fill:#000000;fill-opacity:1;fill-rule:nonzero;stroke:none;stroke-width:1;marker:none;visibility:visible;display:inline;overflow:visible;enable-background:accumulate;font-family:Poppins;-inkscape-font-specification:Poppins"
             x="1075.495"
             y="1561.5044"
             id="text8850-5-8-6-9-8-5"
             sodipodi:linespacing="89.999998%"><tspan
               sodipodi:role="line"
               x="1075.495"
               y="1561.5044"
               id="tspan10438-2-1-2-1-3">Left Thigh</tspan></text>
          <path
             sodipodi:nodetypes="ccc"
             inkscape:connector-curvature="0"
             id="path11926-6-67-9"
             d="m 855.97277,1547.3647 -12.44798,0 -113.70242,-114.7729"
             style="fill:none;stroke:#4d4d4d;stroke-width:3.23697352;stroke-linecap:butt;stroke-linejoin:miter;stroke-miterlimit:4;stroke-opacity:1;stroke-dasharray:none" />
        </g>
      </g>
    </g>
  </g>
</svg>
