<?xml version="1.0" encoding="UTF-8" standalone="no"?>
<!-- Created with Inkscape (http://www.inkscape.org/) -->

<svg
   xmlns:dc="http://purl.org/dc/elements/1.1/"
   xmlns:cc="http://creativecommons.org/ns#"
   xmlns:rdf="http://www.w3.org/1999/02/22-rdf-syntax-ns#"
   xmlns:svg="http://www.w3.org/2000/svg"
   xmlns="http://www.w3.org/2000/svg"
   xmlns:sodipodi="http://sodipodi.sourceforge.net/DTD/sodipodi-0.dtd"
   xmlns:inkscape="http://www.inkscape.org/namespaces/inkscape"
   width="220"
   height="375"
   id="svg12260"
   version="1.1"
   inkscape:version="0.48.5 r10040"
   sodipodi:docname="Right foot.svg">
  <defs
     id="defs12262">
    <inkscape:path-effect
       effect="spiro"
       id="path-effect4116-24-1"
       is_visible="true" />
    <inkscape:path-effect
       effect="spiro"
       id="path-effect4116-0-5-6"
       is_visible="true" />
    <inkscape:path-effect
       effect="spiro"
       id="path-effect4164-8-40-1"
       is_visible="true" />
    <inkscape:path-effect
       effect="spiro"
       id="path-effect4164-17-6"
       is_visible="true" />
    <inkscape:path-effect
       effect="spiro"
       id="path-effect4172-8-3"
       is_visible="true" />
    <inkscape:path-effect
       effect="spiro"
       id="path-effect4170-8-3"
       is_visible="true" />
    <inkscape:path-effect
       effect="spiro"
       id="path-effect4172-4-4-5"
       is_visible="true" />
    <inkscape:path-effect
       effect="spiro"
       id="path-effect4170-5-9-5"
       is_visible="true" />
    <inkscape:path-effect
       effect="spiro"
       id="path-effect4172-8-3-4"
       is_visible="true" />
    <inkscape:path-effect
       effect="spiro"
       id="path-effect4170-8-3-9"
       is_visible="true" />
    <inkscape:path-effect
       effect="spiro"
       id="path-effect4172-4-4-5-1"
       is_visible="true" />
    <inkscape:path-effect
       effect="spiro"
       id="path-effect4170-5-9-5-2"
       is_visible="true" />
    <inkscape:path-effect
       effect="spiro"
       id="path-effect4116-24-1-5"
       is_visible="true" />
    <inkscape:path-effect
       effect="spiro"
       id="path-effect4116-0-5-6-0"
       is_visible="true" />
    <inkscape:path-effect
       effect="spiro"
       id="path-effect4164-8-40-1-8"
       is_visible="true" />
    <inkscape:path-effect
       effect="spiro"
       id="path-effect4164-17-6-3"
       is_visible="true" />
  </defs>
  <sodipodi:namedview
     id="base"
     pagecolor="#ffffff"
     bordercolor="#666666"
     borderopacity="1.0"
     inkscape:pageopacity="0.0"
     inkscape:pageshadow="2"
     inkscape:zoom="2.1154982"
     inkscape:cx="115.63388"
     inkscape:cy="143.48812"
     inkscape:document-units="px"
     inkscape:current-layer="g3443-8-7-2-5-7"
     showgrid="false"
     inkscape:window-width="1280"
     inkscape:window-height="961"
     inkscape:window-x="-8"
     inkscape:window-y="-8"
     inkscape:window-maximized="1" />
  <metadata
     id="metadata12265">
    <rdf:RDF>
      <cc:Work
         rdf:about="">
        <dc:format>image/svg+xml</dc:format>
        <dc:type
           rdf:resource="http://purl.org/dc/dcmitype/StillImage" />
        <dc:title></dc:title>
      </cc:Work>
    </rdf:RDF>
  </metadata>
  <g
     inkscape:label="Body"
     inkscape:groupmode="layer"
     id="layer1"
     transform="translate(0,-677.36218)">
    <g
       id="g14344"
       transform="translate(75.714285,26.785714)">
      <g
         id="g15268-9-9-1"
         transform="matrix(1.265386,0,0,1.265386,-85.242377,-262.67621)"
         style="stroke:#4d4d4d">
        <g
           style="fill:#FF52A2;fill-opacity:1;stroke:#4d4d4d"
           transform="matrix(0.1953115,0,0,0.1953115,-31.08083,627.28824)"
           id="g3443-8-7-2-5-7">
          <g
             id="g3894-4-2-2-1-7-7"
             style="color:#000000;fill:#FF52A2;fill-opacity:1;fill-rule:nonzero;stroke:#4d4d4d;stroke-width:2.29999995;stroke-linecap:butt;stroke-linejoin:miter;stroke-miterlimit:4;stroke-opacity:1;stroke-dasharray:none;stroke-dashoffset:0;marker:none;visibility:visible;display:inline;overflow:visible;enable-background:accumulate"
             transform="translate(-630.15107,-866.76678)">
            <path
               sodipodi:nodetypes="caaaaaaacaaaaaacaacaacaccaaaaaaaaaaaaaccaac"
               inkscape:connector-curvature="0"
               id="path3526-5-9-8-3-7-1"
               d="m 1206.2968,2682.5584 c 0,0 -0.1998,16.6914 1.6148,24.7611 1.1221,4.9899 4.8091,9.22 5.652,14.2646 0.9621,5.7578 -0.472,11.6662 -0.8074,17.4942 -0.2997,5.2072 -1.4569,10.4084 -1.0766,15.6103 0.3682,5.0369 2.8332,9.7681 3.2297,14.8029 0.3669,4.6585 0.675,9.5639 -0.8074,13.9954 -1.0262,3.0676 -2.9949,5.8922 -5.3828,8.0742 -2.7397,2.5034 -9.7815,5.3176 -9.7815,5.3176 0,0 -0.2678,15.9583 -1.7917,23.7498 -0.5065,2.5895 -1.0199,5.301 -2.4223,7.536 -2.0743,3.3057 -5.7714,5.2628 -8.4779,8.0743 -2.116,2.198 -3.4491,5.2778 -6.0558,6.8631 -3.3184,2.0181 -7.42,2.8027 -11.3039,2.826 -2.72,0.016 -5.6983,-0.343 -7.9397,-1.884 -1.8352,-1.2617 -3.7681,-5.5174 -3.7681,-5.5174 0,0 -1.5814,3.2728 -3.0951,4.0372 -2.1626,1.092 -5.1942,1.389 -7.2668,0.1345 -1.5445,-0.9349 -2.4223,-4.8445 -2.4223,-4.8445 0,0 -3.143,1.5676 -4.8446,1.6148 -1.0225,0.028 -2.1307,-0.2093 -2.9605,-0.8074 -1.0497,-0.7565 -2.1532,-3.2297 -2.1532,-3.2297 0,0 -1.7935,1.8055 -2.9606,1.884 -1.2816,0.086 -3.4988,-1.6149 -3.4988,-1.6149 l -0.5383,-2.6914 c 0,0 -3.2838,2.9674 -4.9792,2.2877 -2.5978,-1.0415 -2.7938,-5.0226 -3.0951,-7.8051 -0.2397,-2.2142 0.7962,-4.3846 1.0766,-6.594 0.3119,-2.4576 0.054,-5.0028 0.6728,-7.4015 0.9186,-3.5589 2.5433,-6.945 4.4409,-10.0928 3.4288,-5.6877 8.3885,-10.3028 12.3806,-15.6103 2.9413,-3.9105 6.0482,-7.7309 8.5202,-11.9537 2.484,-4.2433 4.4549,-8.7812 6.2826,-13.3457 1.4764,-3.6872 2.6755,-7.4853 3.768,-11.3039 0.6344,-2.2176 1.3439,-4.438 1.6149,-6.7286 0.4217,-3.5637 0.083,-7.1781 0,-10.7657 -0.09,-3.8608 -0.6263,-7.7122 -0.5383,-11.5731 0.1334,-5.8547 1.3454,-11.6443 1.6148,-17.4943 0.1403,-3.047 0,-9.1508 0,-9.1508 l 0.2692,-5.652 c 0,0 12.7397,1.7982 19.1091,1.3457 5.9501,-0.4227 11.8457,-1.8505 17.4942,-3.768 3.5721,-1.2126 10.2275,-4.8446 10.2275,-4.8446 z"
               style="color:#000000;fill:#FF52A2;fill-opacity:1;fill-rule:nonzero;stroke:#4d4d4d;stroke-width:2.29999995;stroke-linecap:butt;stroke-linejoin:miter;stroke-miterlimit:4;stroke-opacity:1;stroke-dasharray:none;stroke-dashoffset:0;marker:none;visibility:visible;display:inline;overflow:visible;enable-background:accumulate" />
            <path
               sodipodi:nodetypes="caac"
               inkscape:connector-curvature="0"
               id="path3528-5-1-6-8-1-1"
               d="m 1133.8974,2811.2085 c 0,0 -3.5834,5.5127 -4.9791,8.478 -0.4472,0.9501 -0.8813,1.9288 -1.0766,2.9606 -0.6592,3.483 -0.2691,10.6311 -0.2691,10.6311"
               style="color:#000000;fill:#FF52A2;fill-opacity:1;fill-rule:nonzero;stroke:#4d4d4d;stroke-width:2.29999995;stroke-linecap:butt;stroke-linejoin:miter;stroke-miterlimit:4;stroke-opacity:1;stroke-dasharray:none;stroke-dashoffset:0;marker:none;visibility:visible;display:inline;overflow:visible;enable-background:accumulate" />
            <path
               sodipodi:nodetypes="caaac"
               inkscape:connector-curvature="0"
               id="path3530-1-5-0-7-26-5"
               d="m 1134.5703,2835.5659 c 0,0 -0.1655,-3.2382 0,-4.8445 0.1127,-1.0939 0.239,-2.2192 0.6728,-3.2297 1.119,-2.607 3.4295,-4.5388 4.8446,-6.9977 1.2111,-2.1045 3.0951,-6.594 3.0951,-6.594"
               style="color:#000000;fill:#FF52A2;fill-opacity:1;fill-rule:nonzero;stroke:#4d4d4d;stroke-width:2.29999995;stroke-linecap:butt;stroke-linejoin:miter;stroke-miterlimit:4;stroke-opacity:1;stroke-dasharray:none;stroke-dashoffset:0;marker:none;visibility:visible;display:inline;overflow:visible;enable-background:accumulate" />
            <path
               sodipodi:nodetypes="caac"
               inkscape:connector-curvature="0"
               id="path3532-7-0-12-4-0-2"
               d="m 1151.3917,2817.2643 c 0,0 -2.4516,6.0891 -3.6334,9.1508 -0.6901,1.7877 -1.4843,3.5425 -2.0186,5.3828 -0.5494,1.8925 -1.2111,5.7866 -1.2111,5.7866"
               style="color:#000000;fill:#FF52A2;fill-opacity:1;fill-rule:nonzero;stroke:#4d4d4d;stroke-width:2.29999995;stroke-linecap:butt;stroke-linejoin:miter;stroke-miterlimit:4;stroke-opacity:1;stroke-dasharray:none;stroke-dashoffset:0;marker:none;visibility:visible;display:inline;overflow:visible;enable-background:accumulate" />
            <path
               sodipodi:nodetypes="caaaac"
               inkscape:connector-curvature="0"
               id="path3534-1-3-6-2-4-7"
               d="m 1157.0437,2838.6611 c 0,0 -0.61,-2.8615 -0.5383,-4.3063 0.05,-1.0108 0.2181,-2.0565 0.6729,-2.9605 0.7433,-1.4779 2.2939,-2.404 3.2297,-3.7681 1.8733,-2.7307 3.0173,-5.9009 4.71,-8.7471 0.7122,-1.1977 2.2877,-3.4988 2.2877,-3.4988"
               style="color:#000000;fill:#FF52A2;fill-opacity:1;fill-rule:nonzero;stroke:#4d4d4d;stroke-width:2.29999995;stroke-linecap:butt;stroke-linejoin:miter;stroke-miterlimit:4;stroke-opacity:1;stroke-dasharray:none;stroke-dashoffset:0;marker:none;visibility:visible;display:inline;overflow:visible;enable-background:accumulate" />
            <path
               sodipodi:nodetypes="cac"
               inkscape:connector-curvature="0"
               id="path3536-1-6-0-7-9-6"
               d="m 1203.3459,2774.8806 c 0,0 -2.5571,9.4583 -3.4256,14.2735 -0.4651,2.5786 -0.9515,7.8028 -0.9515,7.8028"
               style="color:#000000;fill:#FF52A2;fill-opacity:1;fill-rule:nonzero;stroke:#4d4d4d;stroke-width:2.29999995;stroke-linecap:butt;stroke-linejoin:miter;stroke-miterlimit:4;stroke-opacity:1;stroke-dasharray:none;stroke-dashoffset:0;marker:none;visibility:visible;display:inline;overflow:visible;enable-background:accumulate" />
          </g>
          <text
             xml:space="preserve"
             style="font-size:44.5083847px;font-style:normal;font-variant:normal;font-weight:normal;font-stretch:normal;text-indent:0;text-align:start;text-decoration:none;line-height:89.99999762%;letter-spacing:0px;word-spacing:0px;text-transform:none;direction:ltr;block-progression:tb;writing-mode:lr-tb;text-anchor:start;baseline-shift:baseline;color:#000000;fill:#000000;fill-opacity:1;fill-rule:nonzero;stroke:none;stroke-width:1;marker:none;visibility:visible;display:inline;overflow:visible;enable-background:accumulate;font-family:Poppins;-inkscape-font-specification:Poppins"
             x="209.27939"
             y="1966.1934"
             id="text8862-9-8-3-2-0"
             sodipodi:linespacing="89.999998%"><tspan
               id="tspan5434-7-6"
               sodipodi:role="line"
               x="209.27939"
               y="1966.1934">Right Foot</tspan></text>
          <path
             sodipodi:nodetypes="cc"
             inkscape:connector-curvature="0"
             id="path11926-5-8"
             d="m 443.92319,1950.24 96.11137,0"
             style="fill:none;stroke:#4d4d4d;stroke-width:3.23697352;stroke-linecap:butt;stroke-linejoin:miter;stroke-miterlimit:4;stroke-opacity:1;stroke-dasharray:none" />
        </g>
      </g>
    </g>
  </g>
</svg>
