<?xml version="1.0" encoding="UTF-8" standalone="no"?>
<!DOCTYPE svg PUBLIC "-//W3C//DTD SVG 1.1//EN" "http://www.w3.org/Graphics/SVG/1.1/DTD/svg11.dtd">
<svg width="100%" height="100%" viewBox="0 0 24 24" version="1.1" xmlns="http://www.w3.org/2000/svg" xmlns:xlink="http://www.w3.org/1999/xlink" xml:space="preserve" xmlns:serif="http://www.serif.com/" style="fill-rule:evenodd;clip-rule:evenodd;stroke-linecap:round;stroke-linejoin:round;stroke-miterlimit:2.61313;">
    <g>
        <clipPath id="_clip1">
            <rect x="0" y="0" width="24" height="24"/>
        </clipPath>
        <g clip-path="url(#_clip1)">
            <path d="M4,23L18,23C19.657,23 21,21.657 21,20L21,6C21,4.343 19.657,3 18,3L4,3C2.343,3 1,4.343 1,6L1,20C1,21.657 2.343,23 4,23Z" style="fill:white;fill-rule:nonzero;stroke:rgb(25,55,95);stroke-width:2px;"/>
            <path d="M5,19L11,19" style="fill:none;fill-rule:nonzero;stroke:rgb(25,120,240);stroke-opacity:0.5;stroke-width:2px;"/>
            <path d="M5,11L17,11" style="fill:none;fill-rule:nonzero;stroke:rgb(25,120,240);stroke-opacity:0.5;stroke-width:2px;"/>
            <path d="M5,7L17,7" style="fill:none;fill-rule:nonzero;stroke:rgb(25,120,240);stroke-opacity:0.5;stroke-width:2px;"/>
            <path d="M5,15L17,15" style="fill:none;fill-rule:nonzero;stroke:rgb(25,120,240);stroke-opacity:0.5;stroke-width:2px;"/>
            <g transform="matrix(1.0636,0,0,1.05888,-0.58155,-0.936082)">
                <path d="M21.586,3.586L20.414,2.414C19.633,1.633 18.367,1.633 17.586,2.414L15,5L19,9L21.586,6.414C22.367,5.633 22.367,4.367 21.586,3.586Z" style="fill:rgb(240,115,105);fill-rule:nonzero;stroke:rgb(240,115,105);stroke-width:2px;"/>
            </g>
            <g transform="matrix(1.0636,0,0,1.05888,-0.58155,-0.936082)">
                <path d="M9,15L9,11L10,10L14,14L13,15L9,15Z" style="fill:rgb(200,155,125);fill-rule:nonzero;stroke:rgb(200,155,125);stroke-width:2px;stroke-linejoin:miter;"/>
            </g>
            <g transform="matrix(1.0636,0,0,1.05888,-0.58155,-0.936082)">
                <path d="M10,10L14,14L19,9L15,5L10,10Z" style="fill:rgb(235,195,40);fill-rule:nonzero;stroke:rgb(235,195,40);stroke-width:2px;stroke-linejoin:miter;"/>
            </g>
            <g transform="matrix(1.0636,0,0,1.05888,-0.58155,-0.936082)">
                <path d="M19,9L15,5" style="fill:none;fill-rule:nonzero;stroke:rgb(20,145,65);stroke-width:2px;stroke-linecap:square;stroke-linejoin:miter;"/>
            </g>
            <g transform="matrix(1.0636,0,0,1.05888,-0.58155,-0.936082)">
                <path d="M8,14L10,16L8,16L8,14Z" style="fill-rule:nonzero;"/>
            </g>
        </g>
    </g>
</svg>
