<?xml version="1.0" encoding="UTF-8" standalone="no"?>
<!-- Created with Inkscape (http://www.inkscape.org/) -->

<svg
   xmlns:dc="http://purl.org/dc/elements/1.1/"
   xmlns:cc="http://creativecommons.org/ns#"
   xmlns:rdf="http://www.w3.org/1999/02/22-rdf-syntax-ns#"
   xmlns:svg="http://www.w3.org/2000/svg"
   xmlns="http://www.w3.org/2000/svg"
   xmlns:sodipodi="http://sodipodi.sourceforge.net/DTD/sodipodi-0.dtd"
   xmlns:inkscape="http://www.inkscape.org/namespaces/inkscape"
   width="220"
   height="375"
   id="svg5704"
   version="1.1"
   inkscape:version="0.48.5 r10040"
   sodipodi:docname="Spine_green_c5.svg">
  <defs
     id="defs5706" />
  <sodipodi:namedview
     id="base"
     pagecolor="#ffffff"
     bordercolor="#666666"
     borderopacity="1.0"
     inkscape:pageopacity="0.0"
     inkscape:pageshadow="2"
     inkscape:zoom="5.6568543"
     inkscape:cx="133.28686"
     inkscape:cy="331.58602"
     inkscape:document-units="px"
     inkscape:current-layer="g12592-3-1"
     showgrid="false"
     inkscape:window-width="1280"
     inkscape:window-height="961"
     inkscape:window-x="-8"
     inkscape:window-y="-8"
     inkscape:window-maximized="1" />
  <metadata
     id="metadata5709">
    <rdf:RDF>
      <cc:Work
         rdf:about="">
        <dc:format>image/svg+xml</dc:format>
        <dc:type
           rdf:resource="http://purl.org/dc/dcmitype/StillImage" />
        <dc:title></dc:title>
      </cc:Work>
    </rdf:RDF>
  </metadata>
  <g
     inkscape:label="Capa 1"
     inkscape:groupmode="layer"
     id="layer1"
     transform="translate(0,-677.36218)">
    <g
       id="g6147"
       transform="translate(-249.00368,269.90451)">
      <g
         id="g12592-3-1"
         transform="matrix(0.2234221,0,0,0.2234221,368.51258,492.25391)"
         style="color:#000000;fill:#FF52A2;fill-opacity:1;fill-rule:nonzero;stroke:#4d4d4d;stroke-width:4.15467119;stroke-linecap:butt;stroke-linejoin:miter;stroke-miterlimit:4;stroke-opacity:1;stroke-dasharray:none;stroke-dashoffset:0;marker:none;visibility:visible;display:inline;overflow:visible;enable-background:accumulate">
        <path
           style="color:#000000;fill:#FF52A2;fill-opacity:1;fill-rule:nonzero;stroke:#4d4d4d;stroke-width:0.92824537;stroke-linecap:butt;stroke-linejoin:miter;stroke-miterlimit:4;stroke-opacity:1;stroke-dasharray:none;stroke-dashoffset:0;marker:none;visibility:visible;display:inline;overflow:visible;enable-background:accumulate"
           d="m 120.35807,60.438985 c -1.43848,-0.672684 -2.98322,-0.824682 -4.67052,-0.938985 -0.64881,-0.04611 -1.32157,-0.04532 -1.96161,-0.156258 -0.55458,-0.133136 -0.8678,0.113971 -0.85094,0.593758 0,0.622872 0.11944,1.232436 0,1.84375 -0.37501,1.919522 -1.72012,3.546317 -2.21875,5.4375 -0.33484,1.270003 -0.28616,2.610373 -0.5,3.90625 -0.18805,1.139513 -0.42051,2.282609 -0.6875,3.40625 -0.095,0.399727 -0.23279,0.791193 -0.34375,1.1875 0.75759,0.0037 1.56034,0.08297 2.5625,0.25 2.16215,0.360358 4.04622,0.131819 6.06564,0.03152 0.91434,-0.04541 2.04389,0.318116 2.73143,-0.286338 3.27946,-2.88317 3.02328,-12.746291 3.02328,-12.746291 0,0 -1.93015,-1.958305 -3.14978,-2.528656 z"
           transform="matrix(4.475833,0,0,4.475833,-534.90187,-379.53381)"
           id="path11071-2-2"
           inkscape:connector-curvature="0"
           sodipodi:nodetypes="accccscscsaaca" />
        <path
           style="color:#000000;fill:#FF52A2;fill-opacity:1;fill-rule:nonzero;stroke:#4d4d4d;stroke-width:0.92824537;stroke-linecap:butt;stroke-linejoin:miter;stroke-miterlimit:4;stroke-opacity:1;stroke-dasharray:none;stroke-dashoffset:0;marker:none;visibility:visible;display:inline;overflow:visible;enable-background:accumulate"
           d="M 120.2776,61.238744 119.09375,72.125 117.75,75.9375 c 0.10404,0.01182 0.21675,0.01642 0.3125,0.03125 1.50933,0.233693 2.71515,1.375241 4.1875,1.78125 1.75234,0.483213 3.59249,0.598366 5.40625,0.71875 1.99759,0.132585 3.95205,-0.02313 5.95391,0 0.61777,0.0071 1.19605,0.0059 1.57734,-0.4375 0.30522,-0.341999 0.53793,-0.735035 0.71875,-1.15625 0.20019,-0.466304 0.4013,-0.993227 0.375,-1.5 -0.0716,-1.379446 -1.46875,-3.243153 -1.46875,-3.84375 0,-0.600599 0.375,-3.125 0.375,-3.125 l 2.875,-1.9375 c 0,0 1.54031,-1.356453 1.90625,-2.28125 0.0673,-0.170115 0.11774,-0.362343 0.15625,-0.5625 0.11395,-1.162902 0.11798,-1.249643 -1,-0.71875 -0.97992,0.387219 -2.07353,0.547407 -3.125,0.6875 -2.17658,0.289997 -4.40209,0.150435 -6.59375,0 -1.75441,-0.120422 -3.57864,-0.10519 -5.21875,-0.71875 -1.16873,-0.437212 -3.125,-2.0625 -3.125,-2.0625 -0.46159,-0.257828 -0.65346,0.02379 -0.7849,0.426244 z"
           transform="matrix(4.475833,0,0,4.475833,-534.90187,-379.53381)"
           id="path11079-0-4"
           inkscape:connector-curvature="0"
           sodipodi:nodetypes="cccssssccsscccccssscc" />
        <path
           style="color:#000000;fill:#FF52A2;fill-opacity:1;fill-rule:nonzero;stroke:#4d4d4d;stroke-width:4.15467119;stroke-linecap:butt;stroke-linejoin:miter;stroke-miterlimit:4;stroke-opacity:1;stroke-dasharray:none;stroke-dashoffset:0;marker:none;visibility:visible;display:inline;overflow:visible;enable-background:accumulate"
           d="m -104.52157,-66.428572 c 2.6881,-2.68817 14.016398,-13.63863 22.227498,-18.81721 6.6489,-4.19338 13.9784,-8.60215 21.5053,-9.67742 7.5269,-1.07526 30.6452,-2.15053 35.4839,-2.15053 4.8387,0 15.5914003,1.6129 19.8925003,3.2258 4.301,1.61291 9.1398,4.30108 13.4408,9.13979 4.3010997,4.83871 5.3763997,9.13978 4.8386997,12.90322 -0.5376,3.76344 -6.4515997,9.13979 -8.6020997,10.75269 -2.1505,1.61291 -12.3656,5.91398 -19.8925003,6.45161 -7.5269,0.53764 -14.9818,-2.71194 -22.385,-4.46973 -7.6626,-1.81941 -15.0283,-4.87067 -22.7763,-6.28295 -3.4335,-0.62585 -6.955,-1.31538 -10.4265,-0.95601 -5.3341,0.55218 -10.1852,3.38817 -15.3799,4.71944 -5.1411,1.31754 -11.0461,5.96567 -15.591398,3.22581 -2.3968,-1.44478 -2.335,-8.06451 -2.335,-8.06451 z"
           id="path11025-6-3"
           inkscape:connector-curvature="0"
           sodipodi:nodetypes="casssssssaaaaac" />
        <path
           style="color:#000000;fill:#FF52A2;fill-opacity:1;fill-rule:nonzero;stroke:#4d4d4d;stroke-width:4.15467119;stroke-linecap:butt;stroke-linejoin:miter;stroke-miterlimit:4;stroke-opacity:1;stroke-dasharray:none;stroke-dashoffset:0;marker:none;visibility:visible;display:inline;overflow:visible;enable-background:accumulate"
           d="m 84.934228,-85.468192 c 2.1701,5.08659 -3.5589,10.47516 -5.1323,15.77684 -1.2505,4.21406 -2.242,8.50101 -3.4215,12.73552 -0.9201,3.30336 -0.8404,7.10664 -2.8512,9.88429 -1.9786,2.73319 -5.2091,4.50478 -8.3636,5.70247 -7.4648,2.8342 -15.7784,2.82912 -23.7603,3.04132 -11.1148,0.29549 -22.5874,0.63138 -33.2644997,-2.47107 -4.8997,-1.42372 -11.2544,-2.63938 -13.4958,-7.22313 -0.9884,-2.02127 0.7062,-4.44522 1.1405,-6.65289 0.6764,-3.43905 1.8985,-6.78043 2.281,-10.26445 0.7052,-6.42421 -1.0195,-13.00653 0,-19.38841 0.6416,-4.01652 0.2772,-9.56467 3.8016,-11.59504 4.7702,-2.748 10.7986407,2.158901 16.1569997,3.42149 5.979935,1.40905 11.795389,3.529893 17.839112,4.633732 5.024613,0.917706 10.128585,1.536459 15.235288,1.638998 9.460098,0.189952 19.033,-3.70057 28.3223,-1.90083 2.0031,0.38809 4.7117,0.78445 5.5124,2.66116 z"
           id="path11001-6-4"
           inkscape:connector-curvature="0"
           sodipodi:nodetypes="aaaaaaaaaaaaaaaaa" />
        <path
           style="color:#000000;fill:#FF52A2;fill-opacity:1;fill-rule:nonzero;stroke:#4d4d4d;stroke-width:4.15467119;stroke-linecap:butt;stroke-linejoin:miter;stroke-miterlimit:4;stroke-opacity:1;stroke-dasharray:none;stroke-dashoffset:0;marker:none;visibility:visible;display:inline;overflow:visible;enable-background:accumulate"
           d="m 6.4680283,-86.589872 c 2.6461,1.99127 5.0672997,4.57043 6.3919997,7.60562 1.398,3.20347 2.1223,7.00847 1.2979,10.40513 -1.1087,4.56854 -4.1459,8.89875 -7.9666997,11.63788 -2.7022,1.93728 -6.75830003,4.4131 -9.6042,2.69377 -2.7853,-1.68269 -1.85,-6.29837 -2.0392,-9.54697 -0.2056,-3.52975 0.4734,-7.06347 0.9965,-10.56029 0.414,-2.76727 0.8952,-5.53967 1.6917,-8.22198 0.7045,-2.37255 0.4251,-5.97179 2.71509997,-6.91052 2.19970003,-0.90169 4.61730003,1.46791 6.51690003,2.89736 z"
           id="path11100-1-5"
           inkscape:connector-curvature="0"
           sodipodi:nodetypes="aaaaaaaaaa" />
      </g>
      <g
         transform="matrix(0.22340209,0,0,0.22340209,234.91154,492.27946)"
         id="g12385-5-4">
        <text
           xml:space="preserve"
           style="font-size:49.23857116999999300px;font-style:normal;font-variant:normal;font-weight:normal;font-stretch:normal;text-indent:0;text-align:start;text-decoration:none;line-height:125%;letter-spacing:0px;word-spacing:0px;text-transform:none;direction:ltr;block-progression:tb;writing-mode:lr-tb;text-anchor:start;baseline-shift:baseline;color:#000000;fill:#000000;fill-opacity:1;fill-rule:nonzero;stroke:none;marker:none;visibility:visible;display:inline;overflow:visible;enable-background:accumulate;font-family:Poppins;-inkscape-font-specification:Poppins"
           x="818.07928"
           y="-37.332172"
           id="text11162-11-3-3"
           sodipodi:linespacing="125%"><tspan
             sodipodi:role="line"
             id="tspan11164-52-0-5"
             x="818.07928"
             y="-37.332172">C6</tspan></text>
        <path
           style="color:#000000;fill:none;stroke:#4d4d4d;stroke-width:3.58098722;stroke-linecap:butt;stroke-linejoin:miter;stroke-miterlimit:4;stroke-opacity:1;stroke-dasharray:none;stroke-dashoffset:0;marker:none;visibility:visible;display:inline;overflow:visible;enable-background:accumulate"
           d="m 669.28571,-65.494961 124.47586,9.750474"
           id="path11784-8-2"
           inkscape:connector-curvature="0"
           sodipodi:nodetypes="cc" />
      </g>
    </g>
  </g>
</svg>
