<?xml version="1.0" encoding="UTF-8" standalone="no"?>
<!-- Created with Inkscape (http://www.inkscape.org/) -->

<svg
   xmlns:dc="http://purl.org/dc/elements/1.1/"
   xmlns:cc="http://creativecommons.org/ns#"
   xmlns:rdf="http://www.w3.org/1999/02/22-rdf-syntax-ns#"
   xmlns:svg="http://www.w3.org/2000/svg"
   xmlns="http://www.w3.org/2000/svg"
   xmlns:sodipodi="http://sodipodi.sourceforge.net/DTD/sodipodi-0.dtd"
   xmlns:inkscape="http://www.inkscape.org/namespaces/inkscape"
   width="220"
   height="375"
   id="svg5704"
   version="1.1"
   inkscape:version="0.48.5 r10040"
   sodipodi:docname="Spine_green_l2.svg">
  <defs
     id="defs5706" />
  <sodipodi:namedview
     id="base"
     pagecolor="#ffffff"
     bordercolor="#666666"
     borderopacity="1.0"
     inkscape:pageopacity="0.0"
     inkscape:pageshadow="2"
     inkscape:zoom="4"
     inkscape:cx="141.49329"
     inkscape:cy="108.11446"
     inkscape:document-units="px"
     inkscape:current-layer="g6147"
     showgrid="false"
     inkscape:window-width="1280"
     inkscape:window-height="961"
     inkscape:window-x="-8"
     inkscape:window-y="-8"
     inkscape:window-maximized="1" />
  <metadata
     id="metadata5709">
    <rdf:RDF>
      <cc:Work
         rdf:about="">
        <dc:format>image/svg+xml</dc:format>
        <dc:type
           rdf:resource="http://purl.org/dc/dcmitype/StillImage" />
        <dc:title></dc:title>
      </cc:Work>
    </rdf:RDF>
  </metadata>
  <g
     inkscape:label="Capa 1"
     inkscape:groupmode="layer"
     id="layer1"
     transform="translate(0,-677.36218)">
    <g
       id="g6147"
       transform="translate(-249.00368,269.90451)">
      <g
         id="g12592-3-1"
         transform="matrix(0.2234221,0,0,0.2234221,368.51258,492.25391)"
         style="color:#000000;fill:#FF52A2;fill-opacity:1;fill-rule:nonzero;stroke:#4d4d4d;stroke-width:4.15467119;stroke-linecap:butt;stroke-linejoin:miter;stroke-miterlimit:4;stroke-opacity:1;stroke-dasharray:none;stroke-dashoffset:0;marker:none;visibility:visible;display:inline;overflow:visible;enable-background:accumulate">
        <path
           style="color:#000000;fill:#FF52A2;fill-opacity:1;fill-rule:nonzero;stroke:#4d4d4d;stroke-width:0.92824537;stroke-linecap:butt;stroke-linejoin:miter;stroke-miterlimit:4;stroke-opacity:1;stroke-dasharray:none;stroke-dashoffset:0;marker:none;visibility:visible;display:inline;overflow:visible;enable-background:accumulate"
           d="m 115.5,255.28125 c -1.4474,0.0335 -3.06168,0.14021 -3.65625,0.4375 -0.54368,0.27183 -1.29923,0.36415 -2.125,0.4375 -0.0182,0.33135 -0.0625,0.6709 -0.0625,1 l 0,3.90625 0,2.875 0,2.375 c 0,1.30237 -0.0325,2.60428 0,3.90625 0.002,0.0621 -0.002,0.12543 0,0.1875 1.88783,-0.4093 3.9203,-0.46135 5.59375,0.34375 0.4741,0.22809 0.99239,0.59511 1.5,1.03125 0.69833,0.20471 1.37698,0.50429 2.03125,0.8125 0.49367,0.23257 0.94254,0.55448 1.40625,0.84375 -0.15252,-2.20387 -0.29353,-4.39793 -0.53125,-6.59375 -0.31668,-2.92519 -0.7857,-5.83911 -1.21875,-8.75 -0.19642,-0.0944 -0.35337,-0.19391 -0.53125,-0.3125 -0.89012,-0.59338 -0.73256,-1.91387 -1.71875,-2.3125 -0.21331,-0.0862 -0.43361,-0.12915 -0.65625,-0.1875 -0.01,-0.003 -0.0215,0.003 -0.0312,0 z"
           transform="matrix(4.475833,0,0,4.475833,-534.90187,-379.53381)"
           id="path11071-2-2"
           inkscape:connector-curvature="0"
           sodipodi:nodetypes="cccsccsscscccsccsccc" />
        <path
           style="color:#000000;fill:#FF52A2;fill-opacity:1;fill-rule:nonzero;stroke:#4d4d4d;stroke-width:4.15467119;stroke-linecap:butt;stroke-linejoin:miter;stroke-miterlimit:4;stroke-opacity:1;stroke-dasharray:none;stroke-dashoffset:0;marker:none;visibility:visible;display:inline;overflow:visible;enable-background:accumulate"
           d="m -16.379772,794.99378 c -7.9848,-7.1513 -21.6352,-2.2335 -32.1566,-0.1845 -7.3489,1.4312 -13.9876,5.3788 -20.7707,8.5481 -6.8264,3.1897 -13.2399,7.2073 -20.0103,10.5142 -4.6483,2.2703 -12.652498,1.4428 -14.139298,6.3976 -0.7542,2.5136 2.168,4.999 4.200898,6.6585 2.8927,2.3612 6.7453,3.9763 10.4793,3.9591 8.8954,-0.041 16.3304,-7.1917 24.8761,-9.6616 12.5741,-3.6343 25.7252,-4.8531 38.5429,-7.5032 3.6352,-0.7515 8.7224,0.6405 10.8785,-2.3811 3.1864,-4.4655 2.1856,-12.6872 -1.9008,-16.3471 z"
           id="path11057-7-5"
           inkscape:connector-curvature="0"
           sodipodi:nodetypes="aaaaaaaaaaa" />
        <path
           style="color:#000000;fill:#FF52A2;fill-opacity:1;fill-rule:nonzero;stroke:#4d4d4d;stroke-width:0.92824537;stroke-linecap:butt;stroke-linejoin:miter;stroke-miterlimit:4;stroke-opacity:1;stroke-dasharray:none;stroke-dashoffset:0;marker:none;visibility:visible;display:inline;overflow:visible;enable-background:accumulate"
           d="m 115.5,255.28125 c -0.59762,0.0138 -1.21391,0.0152 -1.78125,0.0625 -0.0278,1.33526 -0.11433,2.67012 0,4 0.1133,1.31783 0.63191,2.61596 0.6875,3.9375 0.0549,1.30481 -0.28669,2.57028 -0.34375,3.875 -0.0397,0.90678 -0.0648,1.84465 0,2.75 0.0398,0.5563 0.12163,1.10668 0.21875,1.65625 0.0936,0.002 0.19069,0.003 0.28125,0 0.52055,-0.0195 1.05131,-0.0377 1.5625,0.0625 0.91979,0.18035 1.80832,0.56931 2.65625,0.96875 0.60404,0.28456 1.13806,0.70231 1.71875,1.03125 0.0537,-0.4438 0.0768,-0.89525 0.0312,-1.34375 -0.13381,-1.31819 -0.89509,-2.51503 -1.375,-3.75 -0.91047,-2.34301 -2.74012,-4.45869 -2.875,-6.96875 -0.0538,-1.00015 0.70152,-1.88359 0.84375,-2.875 0.0818,-0.57017 0.13301,-1.16979 0.125,-1.75 -0.26413,-0.58178 -0.42913,-1.21273 -1.0625,-1.46875 -0.1959,-0.0792 -0.39096,-0.13176 -0.59375,-0.1875 -0.0354,7.4e-4 -0.0582,-8.2e-4 -0.0937,0 z"
           transform="matrix(4.475833,0,0,4.475833,-534.90187,-379.53381)"
           id="path11104-9-6"
           inkscape:connector-curvature="0"
           sodipodi:nodetypes="ccsscsccccccscccccc" />
        <path
           style="color:#000000;fill:#FF52A2;fill-opacity:1;fill-rule:nonzero;stroke:#4d4d4d;stroke-width:0.92824537;stroke-linecap:butt;stroke-linejoin:miter;stroke-miterlimit:4;stroke-opacity:1;stroke-dasharray:none;stroke-dashoffset:0;marker:none;visibility:visible;display:inline;overflow:visible;enable-background:accumulate"
           d="m 117.53125,257.40625 c 0.11856,0.94778 0.21285,1.75768 0.28125,2.03125 0.24022,0.96096 1.65625,11.78125 1.65625,11.78125 l -0.15625,1.65625 c 0.50795,0.30502 0.96613,0.68104 1.5,0.9375 0.81104,0.38965 1.66973,0.67793 2.53125,0.9375 1.57184,0.47359 3.18684,0.86541 4.8125,1.09375 2.30922,0.32439 5.21667,0.62637 6.96875,0.40625 2.47188,-0.31053 4.77802,-1.19444 7.03125,-1.65625 0.66029,-0.17058 0.84195,-0.043 1.125,-0.0625 0,0 1.28099,-1.99247 1.03125,-3.03125 -0.30557,-1.27107 -2.05078,-2.87989 -2.53125,-3 C 141.30078,268.37989 139.25,266 139.25,266 l 1.21875,-3.625 c 0,0 1.77787,-1.51892 2.03125,-2.15625 0.25338,-0.63733 0.1982,-1.06079 0,-1.53125 -0.1106,-0.21657 -0.35417,-0.33333 -0.53125,-0.5 0,0 -1.32405,0.87475 -2.15625,1.1875 -3.6139,1.35814 -7.66486,1.67598 -11.53125,1.4375 -2.50237,-0.15434 -5.59286,-1.29393 -7.3125,-1.84375 -1.71966,-0.54984 -2.38037,-0.73275 -3.0625,-1.1875 -0.15159,-0.10105 -0.27438,-0.23957 -0.375,-0.375 z"
           transform="matrix(4.475833,0,0,4.475833,-534.90187,-379.53381)"
           id="path11079-0-4"
           inkscape:connector-curvature="0"
           sodipodi:nodetypes="cccccscscccsccsccssscc" />
        <path
           style="color:#000000;fill:#FF52A2;fill-opacity:1;fill-rule:nonzero;stroke:#4d4d4d;stroke-width:4.15467119;stroke-linecap:butt;stroke-linejoin:miter;stroke-miterlimit:4;stroke-opacity:1;stroke-dasharray:none;stroke-dashoffset:0;marker:none;visibility:visible;display:inline;overflow:visible;enable-background:accumulate"
           d="m -34.667372,787.84548 c -3.0246,2.955 -5.9511,7.0652 -5.7835,11.2903 0.1505,3.7934 3.2459,7.0586 5.9792,9.6932 3.4342,3.3103 8.4513,5.7481 12.4466,7.0601 3.9953,1.312 8.3414,0.5378 10.845,1.2924 5.4660003,1.6474 5.1305003,6.1965 9.1110003,10.5932 2.89169997,3.1941 12.3169997,6.3077 16.0226997,8.17 9.9657,5.0081 21.3436,7.3001 32.4696,8.0803 16.282,1.1419 33.2442,0.1633 48.702,-5.0773 6.171002,-2.0921 13.483002,-4.5297 16.666702,-10.215 1.1383,-2.0327 0.4406,-4.7015 0,-6.9893 -0.9125,-4.7383 -4.0513,-8.8009 -5.3764,-13.4409 -1.3924,-4.8757 -2.6611,-11.2139 -2.6611,-14.9773 0,-3.7634 -0.5377,-6.7204 -5.376402,-4.5698 -4.8387,2.1505 -14.3418,4.8466 -19.7182,5.9219 -5.3763,1.0752 -22.3889,2.1004 -33.5234,1.0887 -10.0355,-0.9119 -23.0913,-2.6476 -29.5429,-6.411 -6.4515997,-3.7635 -16.6941997,-5.0209 -25.3069997,-6.0333 -5.1616003,-0.6068 -10.5253003,-1.1598 -15.5914003,0 -3.3786,0.7735 -6.8832,2.1017 -9.3625,4.5238 z"
           id="path49940-7-6"
           inkscape:connector-curvature="0"
           sodipodi:nodetypes="aaazsssaaaaasccasaaa" />
      </g>
      <g
         transform="matrix(0.22340209,0,0,0.22340209,234.91154,492.27946)"
         id="g12465-3-7">
        <text
           xml:space="preserve"
           style="font-size:49.23857116999999300px;font-style:normal;font-variant:normal;font-weight:normal;font-stretch:normal;text-indent:0;text-align:start;text-decoration:none;line-height:125%;letter-spacing:0px;word-spacing:0px;text-transform:none;direction:ltr;block-progression:tb;writing-mode:lr-tb;text-anchor:start;baseline-shift:baseline;color:#000000;fill:#000000;fill-opacity:1;fill-rule:nonzero;stroke:none;marker:none;visibility:visible;display:inline;overflow:visible;enable-background:accumulate;font-family:Poppins;-inkscape-font-specification:Poppins"
           x="816.89819"
           y="839.83881"
           id="text11162-14-19-2-9-7"
           sodipodi:linespacing="125%"><tspan
             sodipodi:role="line"
             id="tspan11164-2-86-8-5-6"
             x="816.89819"
             y="839.83881">L3</tspan></text>
        <path
           style="color:#000000;fill:none;stroke:#4d4d4d;stroke-width:3.58098722;stroke-linecap:butt;stroke-linejoin:miter;stroke-miterlimit:4;stroke-opacity:1;stroke-dasharray:none;stroke-dashoffset:0;marker:none;visibility:visible;display:inline;overflow:visible;enable-background:accumulate"
           d="m 692.85714,810.21933 100.90443,11.7183"
           id="path11816-8-7"
           inkscape:connector-curvature="0"
           sodipodi:nodetypes="cc" />
      </g>
    </g>
  </g>
</svg>
