<?xml version="1.0" encoding="UTF-8" standalone="no"?>
<!-- Created with Inkscape (http://www.inkscape.org/) -->

<svg
   xmlns:dc="http://purl.org/dc/elements/1.1/"
   xmlns:cc="http://creativecommons.org/ns#"
   xmlns:rdf="http://www.w3.org/1999/02/22-rdf-syntax-ns#"
   xmlns:svg="http://www.w3.org/2000/svg"
   xmlns="http://www.w3.org/2000/svg"
   xmlns:sodipodi="http://sodipodi.sourceforge.net/DTD/sodipodi-0.dtd"
   xmlns:inkscape="http://www.inkscape.org/namespaces/inkscape"
   width="220"
   height="375"
   id="svg5704"
   version="1.1"
   inkscape:version="0.48.5 r10040"
   sodipodi:docname="Spine_green_t1.svg">
  <defs
     id="defs5706" />
  <sodipodi:namedview
     id="base"
     pagecolor="#ffffff"
     bordercolor="#666666"
     borderopacity="1.0"
     inkscape:pageopacity="0.0"
     inkscape:pageshadow="2"
     inkscape:zoom="5.6568543"
     inkscape:cx="155.29244"
     inkscape:cy="292.7093"
     inkscape:document-units="px"
     inkscape:current-layer="g12592-3-1"
     showgrid="false"
     inkscape:window-width="1280"
     inkscape:window-height="961"
     inkscape:window-x="-8"
     inkscape:window-y="-8"
     inkscape:window-maximized="1" />
  <metadata
     id="metadata5709">
    <rdf:RDF>
      <cc:Work
         rdf:about="">
        <dc:format>image/svg+xml</dc:format>
        <dc:type
           rdf:resource="http://purl.org/dc/dcmitype/StillImage" />
        <dc:title></dc:title>
      </cc:Work>
    </rdf:RDF>
  </metadata>
  <g
     inkscape:label="Capa 1"
     inkscape:groupmode="layer"
     id="layer1"
     transform="translate(0,-677.36218)">
    <g
       id="g6147"
       transform="translate(-249.00368,269.90451)">
      <g
         id="g12592-3-1"
         transform="matrix(0.2234221,0,0,0.2234221,368.51258,492.25391)"
         style="color:#000000;fill:#FF52A2;fill-opacity:1;fill-rule:nonzero;stroke:#4d4d4d;stroke-width:4.15467119;stroke-linecap:butt;stroke-linejoin:miter;stroke-miterlimit:4;stroke-opacity:1;stroke-dasharray:none;stroke-dashoffset:0;marker:none;visibility:visible;display:inline;overflow:visible;enable-background:accumulate">
        <path
           style="color:#000000;fill:#FF52A2;fill-opacity:1;fill-rule:nonzero;stroke:#4d4d4d;stroke-width:0.92824537;stroke-linecap:butt;stroke-linejoin:miter;stroke-miterlimit:4;stroke-opacity:1;stroke-dasharray:none;stroke-dashoffset:0;marker:none;visibility:visible;display:inline;overflow:visible;enable-background:accumulate"
           d="m 103.9688,93.625 c -0.53216,0.919814 -1.10071,1.822704 -1.46875,2.8125 -0.34465,0.926907 -0.41147,1.948115 -0.65625,2.90625 -0.42166,1.65045 -0.9335,3.261 -1.375,4.90625 -0.34883,1.29996 -0.650009,2.6066 -1,3.90625 -0.2751,1.02145 -0.680087,2.02277 -0.875,3.0625 0.135016,0.9014 0.747324,0.88968 1.60095,1.13138 0.53147,0.13656 1.06851,0.24487 1.6178,0.30612 0.61491,0.0686 1.25668,0.022 1.875,0 0.45419,-0.0162 0.89022,-0.0707 1.34375,-0.125 0.4694,-0.99304 0.94539,-1.99067 1.375,-3 1.60868,-3.77945 3.30802,-7.53117 5,-11.28125 -0.50936,-0.538916 -0.9063,-1.094467 -0.9063,-1.46875 0,-0.50963 -1.0646,-1.77528 -1.875,-2.375 -1.65548,-1.037324 -2.87223,-0.842686 -4.6562,-0.78125 z"
           transform="matrix(4.475833,0,0,4.475833,-534.90187,-379.53381)"
           id="path11071-2-2"
           inkscape:connector-curvature="0"
           sodipodi:nodetypes="csssccccccscscc" />
        <path
           style="color:#000000;fill:#FF52A2;fill-opacity:1;fill-rule:nonzero;stroke:#4d4d4d;stroke-width:4.15467119;stroke-linecap:butt;stroke-linejoin:miter;stroke-miterlimit:4;stroke-opacity:1;stroke-dasharray:none;stroke-dashoffset:0;marker:none;visibility:visible;display:inline;overflow:visible;enable-background:accumulate"
           d="m -173.69197,102.38863 c 0.7235,-3.323262 6.3907,-1.60462 10.257,-1.95121 4.193,-0.37589 6.7031,-2.712032 10.1731,-3.962772 8.4566,-3.04815 16.5646,-6.99604 24.7312,-10.75269 6.335,-2.91413 12.2964,-6.6693 18.8172,-9.13978 7.4816,-2.83448 15.119298,-6.60922 23.118298,-6.45162 11.106,0.21882 30.1075,8.06452 31.7204,10.21506 1.6129,2.15054 -2.6882,8.60215 -7.5269,11.82796 -4.8387,3.2258 -13.8494,6.40824 -20.9677,9.139782 -5.8201,2.23337 -11.5886,4.91542 -17.741898,5.91398 -5.8377,0.94732 -11.8385,-0.35294 -17.742,0 -4.5044,0.2693 -8.994,0.84612 -13.4408,1.6129 -5.6126,0.96781 -10.9821,3.41303 -16.6667,3.76344 -4.481,0.27622 -9.1928,0.22926 -13.4027,-1.33058 -2.0512,-0.76004 -3.649,-2.42117 -5.3763,-3.76344 -2.0667,-1.60597 -6.5089,-2.5636 -5.9522,-5.12103 z"
           id="path11031-5-1"
           inkscape:connector-curvature="0"
           sodipodi:nodetypes="sssaaassaaaaaaas" />
        <path
           style="color:#000000;fill:#FF52A2;fill-opacity:1;fill-rule:nonzero;stroke:#4d4d4d;stroke-width:0.92824537;stroke-linecap:butt;stroke-linejoin:miter;stroke-miterlimit:4;stroke-opacity:1;stroke-dasharray:none;stroke-dashoffset:0;marker:none;visibility:visible;display:inline;overflow:visible;enable-background:accumulate"
           d="M 108.38036,98.805141 107.28125,98.5 c 0,0 -1.50644,5.43132 -2.71875,7.96875 -0.54834,1.14771 -1.6666,2.00996 -2.0625,3.21875 -0.31032,0.94747 -0.21738,1.98661 -0.1875,3 0.45325,0.0125 0.92173,-0.0151 1.375,-0.0312 0.41327,-0.0148 0.80592,-0.0716 1.21875,-0.125 0.12842,-1.64314 0.15184,-3.32038 0.65625,-4.875 0.98493,-3.0357 4.4375,-8.5 4.4375,-8.5 z"
           transform="matrix(4.475833,0,0,4.475833,-534.90187,-379.53381)"
           id="path11104-9-6"
           inkscape:connector-curvature="0"
           sodipodi:nodetypes="ccsscccscc" />
        <path
           style="color:#000000;fill:#FF52A2;fill-opacity:1;fill-rule:nonzero;stroke:#4d4d4d;stroke-width:0.92824537;stroke-linecap:butt;stroke-linejoin:miter;stroke-miterlimit:4;stroke-opacity:1;stroke-dasharray:none;stroke-dashoffset:0;marker:none;visibility:visible;display:inline;overflow:visible;enable-background:accumulate"
           d="m 107.78125,94.03125 c -0.50345,-0.18701 -0.82515,0.33167 -0.875,0.875 l -0.3125,3.40625 -1.21875,10.5625 -1.25,3.75 c 0.67879,-0.0741 1.35748,-0.20982 2.03125,-0.125 0.4622,0.0582 0.87098,0.28894 1.3125,0.4375 1.56302,0.52592 3.07003,1.27216 4.6875,1.59375 1.3321,0.26485 2.70434,0.24432 4.0625,0.25 2.59688,0.0109 7.78125,-0.4375 7.78125,-0.4375 l 0.65625,-0.0312 c 0.0533,-0.078 0.10149,-0.15996 0.125,-0.21875 0.15074,-0.37682 0.24885,-0.56781 0.3125,-0.875 0.1068,-0.51553 -0.0988,-0.87766 0.125,-1.59375 0.60058,-1.92191 -1.4375,-2.74803 -1.4375,-3.46875 0,-0.72072 1.29589,-2.52928 1.65625,-3.25 0.36036,-0.72072 1.34375,-1.0625 1.34375,-1.0625 l 1.3125,-1.34375 c 0.295,-0.29501 0.42837,-0.65409 0.48772,-1.02853 0.0418,-0.78541 0.18695,-1.485262 -0.89392,-0.94022 -0.25996,0.11373 -0.5383,0.20235 -0.82984,0.27151 -1.23256,0.29237 -2.70104,0.2368 -4.01391,0.25974 -2.50389,0.0437 -5.08664,0.13739 -7.5,-0.53125 -1.20838,-0.33479 -2.61056,-1.039252 -3.375,-1.71875 -0.76449,-0.679548 -1.4688,-1.521679 -1.4688,-2.0313 0,-0.509624 -1.0646,-1.775286 -1.875,-2.375 -0.24951,-0.184641 -0.53759,-0.291286 -0.84375,-0.375 z"
           transform="matrix(4.475833,0,0,4.475833,-534.90187,-379.53381)"
           id="path11079-0-4"
           inkscape:connector-curvature="0"
           sodipodi:nodetypes="csccccsscccccsssccccssssssc" />
        <path
           style="color:#000000;fill:#FF52A2;fill-opacity:1;fill-rule:nonzero;stroke:#4d4d4d;stroke-width:4.15467119;stroke-linecap:butt;stroke-linejoin:miter;stroke-miterlimit:4;stroke-opacity:1;stroke-dasharray:none;stroke-dashoffset:0;marker:none;visibility:visible;display:inline;overflow:visible;enable-background:accumulate"
           d="m -81.756472,74.700458 c 3.3844,-2.58787 5.3763,-0.80646 13.9785,-0.80646 8.6021,0 12.9032,3.22581 16.6666,0.53764 3.7635,-2.68817 0.4534,-3.86162 1.8818,-4.83871 4.0676,-2.78254 10.0808,-1.46946 14.7849,0 5.4094,1.68977 8.6433,7.76633 13.9785,9.67742 9.2262,3.30485 19.51180027,1.95535 29.3011003,2.41936 7.2504997,0.34366 18.3772997,0.42039 21.7741997,0.26881 3.2258,-0.14394 5.914,0.46925 5.3763,2.68817 -0.8952,3.69474 -4.0024,6.98828 -5.3763,10.75269 -1.7064,4.675302 -2.437,9.652862 -3.4946,14.516132 -0.6984,3.21116 -1.8818,7.52688 -1.8818,9.67742 0,1.11177 -1.0058,3.29881 -2.646,4.11344 -1.5325,0.76115 -12.221,1.53172 -14.5582997,1.53172 -4.8387,0 -17.6322,0.32852 -26.3441003,-0.80645 -7.8454,-1.0221 -15.7039,-2.61527 -23.1182,-5.37634 -5.4089,-2.01425 -12.6344,-5.37635 -15.3226,-8.06452 -2.6882,-2.68817 2.4193,-5.37634 -5.6452,-9.67742 -8.0645,-4.301082 -9.2385,-4.031892 -12.9032,-6.182792 -3.6647,-2.1509 -7.6781,-3.8966 -9.1398,-6.45162 -1.4617,-2.55502 -0.9291,-4.03933 -0.5376,-6.45161 0.3914,-2.41228 -0.1586,-4.93901 3.2258,-7.52688 z"
           id="path10978-0-1"
           inkscape:connector-curvature="0"
           sodipodi:nodetypes="zzsaaaassaasssaasszzzz" />
      </g>
      <g
         transform="matrix(0.22340209,0,0,0.22340209,234.91154,492.27946)"
         id="g12400-6-2">
        <text
           xml:space="preserve"
           style="font-size:49.23857116999999300px;font-style:normal;font-variant:normal;font-weight:normal;font-stretch:normal;text-indent:0;text-align:start;text-decoration:none;line-height:125%;letter-spacing:0px;word-spacing:0px;text-transform:none;direction:ltr;block-progression:tb;writing-mode:lr-tb;text-anchor:start;baseline-shift:baseline;color:#000000;fill:#000000;fill-opacity:1;fill-rule:nonzero;stroke:none;marker:none;visibility:visible;display:inline;overflow:visible;enable-background:accumulate;font-family:Poppins;-inkscape-font-specification:Poppins"
           x="819.70514"
           y="126.59036"
           id="text11162-14-3-5-1"
           sodipodi:linespacing="125%"><tspan
             sodipodi:role="line"
             id="tspan11164-2-2-2-3"
             x="819.70514"
             y="126.59036">T2</tspan></text>
        <path
           style="color:#000000;fill:none;stroke:#4d4d4d;stroke-width:3.58098722;stroke-linecap:butt;stroke-linejoin:miter;stroke-miterlimit:4;stroke-opacity:1;stroke-dasharray:none;stroke-dashoffset:0;marker:none;visibility:visible;display:inline;overflow:visible;enable-background:accumulate"
           d="m 615.71429,103.07647 178.04728,5.74444"
           id="path11790-8-8"
           inkscape:connector-curvature="0"
           sodipodi:nodetypes="cc" />
      </g>
    </g>
  </g>
</svg>
