<?xml version="1.0" encoding="UTF-8" standalone="no"?>
<!-- Created with Inkscape (http://www.inkscape.org/) -->

<svg
   xmlns:dc="http://purl.org/dc/elements/1.1/"
   xmlns:cc="http://creativecommons.org/ns#"
   xmlns:rdf="http://www.w3.org/1999/02/22-rdf-syntax-ns#"
   xmlns:svg="http://www.w3.org/2000/svg"
   xmlns="http://www.w3.org/2000/svg"
   xmlns:sodipodi="http://sodipodi.sourceforge.net/DTD/sodipodi-0.dtd"
   xmlns:inkscape="http://www.inkscape.org/namespaces/inkscape"
   width="220"
   height="375"
   id="svg5704"
   version="1.1"
   inkscape:version="0.48.5 r10040"
   sodipodi:docname="Spine_green_t11.svg">
  <defs
     id="defs5706" />
  <sodipodi:namedview
     id="base"
     pagecolor="#ffffff"
     bordercolor="#666666"
     borderopacity="1.0"
     inkscape:pageopacity="0.0"
     inkscape:pageshadow="2"
     inkscape:zoom="2.8284271"
     inkscape:cx="141.82436"
     inkscape:cy="176.59452"
     inkscape:document-units="px"
     inkscape:current-layer="g12592-3-1"
     showgrid="false"
     inkscape:window-width="1280"
     inkscape:window-height="961"
     inkscape:window-x="-8"
     inkscape:window-y="-8"
     inkscape:window-maximized="1" />
  <metadata
     id="metadata5709">
    <rdf:RDF>
      <cc:Work
         rdf:about="">
        <dc:format>image/svg+xml</dc:format>
        <dc:type
           rdf:resource="http://purl.org/dc/dcmitype/StillImage" />
        <dc:title></dc:title>
      </cc:Work>
    </rdf:RDF>
  </metadata>
  <g
     inkscape:label="Capa 1"
     inkscape:groupmode="layer"
     id="layer1"
     transform="translate(0,-677.36218)">
    <g
       id="g6147"
       transform="translate(-249.00368,269.90451)">
      <g
         id="g12592-3-1"
         transform="matrix(0.2234221,0,0,0.2234221,368.51258,492.25391)"
         style="color:#000000;fill:#FF52A2;fill-opacity:1;fill-rule:nonzero;stroke:#4d4d4d;stroke-width:4.15467119;stroke-linecap:butt;stroke-linejoin:miter;stroke-miterlimit:4;stroke-opacity:1;stroke-dasharray:none;stroke-dashoffset:0;marker:none;visibility:visible;display:inline;overflow:visible;enable-background:accumulate">
        <path
           style="color:#000000;fill:#FF52A2;fill-opacity:1;fill-rule:nonzero;stroke:#4d4d4d;stroke-width:0.92824537;stroke-linecap:butt;stroke-linejoin:miter;stroke-miterlimit:4;stroke-opacity:1;stroke-dasharray:none;stroke-dashoffset:0;marker:none;visibility:visible;display:inline;overflow:visible;enable-background:accumulate"
           d="m 97.40625,207 c -1.201204,0 -1.887159,0.34921 -2.78125,0.125 -0.05269,-0.0132 -0.103476,-0.0484 -0.15625,-0.0625 -0.246578,0.0604 -0.498745,0.13737 -0.75,0.1875 0.408656,0.91943 0.0754,2.14348 0.125,3.1875 0.05105,1.07466 -0.247194,2.17166 0,3.21875 0.145448,0.61615 0.525999,1.17119 0.84375,1.71875 0.409913,0.70633 0.889347,1.37469 1.375,2.03125 0.957185,1.29404 2.353314,2.27383 3.0625,3.71875 0.612176,1.24733 0.516773,2.75878 0.90625,4.09375 0.42987,-0.0613 0.85243,-0.11956 1.28125,-0.0937 0.47225,0.0284 0.97363,0.0589 1.46875,0.125 0.0717,-0.14508 0.15872,-0.27675 0.25,-0.40625 0.58823,-0.83455 1.70727,-1.29826 2.71875,-1.4375 1.57467,-0.21678 0.84735,-0.43955 2.40235,-0.0865 4.39459,0.62157 -3.0422,-5.95286 -4.1211,-7.6322 -1.24458,-1.98697 -2.30484,-4.0891 -3.28125,-6.21875 -0.49012,-0.23948 -0.971602,-0.5011 -1.4375,-0.78125 C 98.582982,208.24882 98.607434,207 97.40625,207 z"
           transform="matrix(4.475833,0,0,4.475833,-534.90187,-379.53381)"
           id="path11071-2-2"
           inkscape:connector-curvature="0"
           sodipodi:nodetypes="scccsccsccccssccccs" />
        <path
           style="color:#000000;fill:#FF52A2;fill-opacity:1;fill-rule:nonzero;stroke:#4d4d4d;stroke-width:4.15467119;stroke-linecap:butt;stroke-linejoin:miter;stroke-miterlimit:4;stroke-opacity:1;stroke-dasharray:none;stroke-dashoffset:0;marker:none;visibility:visible;display:inline;overflow:visible;enable-background:accumulate"
           d="m -165.97237,605.42198 c 6.5245,-2.9601 13.2313,-5.5467 19.5762,-8.8743 7.1981,-3.775 13.7238,-8.74595 20.9091,-12.54544 1.6039,-0.84815 3.2496,-1.62731 4.9421,-2.28099 8.9513,-3.45713 18.6823,-12.51184 27.460898,-8.63709 5.716,2.52299 3.0478,13.05749 7.8944,17.00072 4.7449,3.8604 15.7261,-1.54788 17.8678,4.1818 0.9851,2.6356 -2.6122,5.2656 -4.9421,6.843 -5.1919,3.515 -12.0654,3.5197 -18.248,4.562 -7.0255,1.1844 -14.181198,1.4144 -21.289198,1.9008 -5.3159,0.3637 -10.7712,-0.4209 -15.9669,0.7603 -6.0359,1.3723 -11.1519,5.5359 -17.1074,7.2232 -4.811,1.363 -9.938,3.3324 -14.8265,2.2809 -2.9552,-0.6356 -5.3721,-2.9027 -7.6033,-4.9421 -1.5839,-1.4478 -4.4867,-2.9766 -3.9782,-5.0614 0.4607,-1.8889 3.5405,-1.6082 5.3111,-2.4114 z"
           id="path11049-7-1"
           inkscape:connector-curvature="0"
           sodipodi:nodetypes="aaaaaaaaaaaaaaaa" />
        <path
           style="color:#000000;fill:#FF52A2;fill-opacity:1;fill-rule:nonzero;stroke:#4d4d4d;stroke-width:0.92824537;stroke-linecap:butt;stroke-linejoin:miter;stroke-miterlimit:4;stroke-opacity:1;stroke-dasharray:none;stroke-dashoffset:0;marker:none;visibility:visible;display:inline;overflow:visible;enable-background:accumulate"
           d="m 97.40625,207 c -0.491568,0 -0.885094,0.0722 -1.25,0.125 0.01632,0.0338 0.04652,0.0598 0.0625,0.0937 1.680312,3.57064 2.808447,8.1167 4.09375,11.09375 0.65972,1.52807 2.74911,3.46431 3.5625,5.5 0.0365,0.0914 0.0597,0.13173 0.0937,0.21875 0.54222,-0.32898 1.17367,-0.54136 1.78125,-0.625 0.39871,-0.0549 0.79404,-0.45404 1.1875,-0.38864 -0.57753,-2.76515 -1.55139,-6.36501 -3.125,-9.89266 -0.30117,-0.67518 -3.23833,-2.61536 -3.5,-3.1875 -0.15057,-0.32923 -0.329184,-0.64255 -0.5,-0.96875 -0.166533,-0.0931 -0.336664,-0.18303 -0.5,-0.28125 C 98.582982,208.24882 98.607434,207 97.40625,207 z"
           transform="matrix(4.475833,0,0,4.475833,-534.90187,-379.53381)"
           id="path11104-9-6"
           inkscape:connector-curvature="0"
           sodipodi:nodetypes="sccsccsccscss" />
        <path
           style="color:#000000;fill:#FF52A2;fill-opacity:1;fill-rule:nonzero;stroke:#4d4d4d;stroke-width:0.92824537;stroke-linecap:butt;stroke-linejoin:miter;stroke-miterlimit:4;stroke-opacity:1;stroke-dasharray:none;stroke-dashoffset:0;marker:none;visibility:visible;display:inline;overflow:visible;enable-background:accumulate"
           d="m 97.40625,207 c -0.422737,0 -0.770084,0.0482 -1.09375,0.0937 l 1.625,3.875 1.9375,3.375 4.3125,3.34375 0,2.1875 0.84375,3.6875 c 0.23571,-0.0676 0.48533,-0.12412 0.71875,-0.15625 1.84786,-0.25439 3.67596,0.67211 5.46875,1.1875 1.56438,0.44972 2.98585,1.41533 4.59375,1.65625 3.72295,0.55784 7.62908,0.41277 11.28125,-0.5 1.19613,-0.29894 2.18889,-1.01507 3.23326,-1.61585 1.21828,-0.82893 1.95534,-1.36543 1.36049,-2.5404 -0.57852,-1.14271 -3.46875,-1.625 -3.46875,-1.625 l -2.15625,-1.1875 -0.96875,-3 1.5625,-2.65625 c 0,0 0.6825,-2.40121 0.21875,-3.46875 -0.0954,-0.21963 -0.36492,-0.43593 -0.70213,-0.63504 -1.0891,-0.68711 -1.09861,-0.24848 -1.82912,0.29129 -0.49387,0.43518 -2.52699,1.33723 -3,1.53125 -2.52827,1.03709 -4.47136,0.87588 -6.75,0.96875 -2.79749,0.11402 -5.66933,0.09 -8.40625,-0.5 -2.39799,-0.51696 -4.77273,-1.36086 -6.875,-2.625 C 98.582982,208.24882 98.607434,207 97.40625,207 z"
           transform="matrix(4.475833,0,0,4.475833,-534.90187,-379.53381)"
           id="path11079-0-4"
           inkscape:connector-curvature="0"
           sodipodi:nodetypes="scccccccasscsccccscccssss" />
        <path
           style="color:#000000;fill:#FF52A2;fill-opacity:1;fill-rule:nonzero;stroke:#4d4d4d;stroke-width:4.15467119;stroke-linecap:butt;stroke-linejoin:miter;stroke-miterlimit:4;stroke-opacity:1;stroke-dasharray:none;stroke-dashoffset:0;marker:none;visibility:visible;display:inline;overflow:visible;enable-background:accumulate"
           d="m -83.638172,570.39935 c -3.3166,0.009 -6.9965,-1.78508 -9.9463,-0.26882 -3.4857,1.79176 -5.7266,5.91795 -6.581998,9.74269 -0.8265,3.69524 -0.475,8.15634 1.743298,11.22501 3.5871,4.96215 10.4552,6.71895 16.3518,8.36825 4.6475,1.3 10.6762,1.0483 14.4397,1.0483 3.7634,0 14.9067,11.3617 23.5096,14.777 12.0538,4.7855 25.2095,7.1179 38.1720003,7.527 12.2866,0.3877 27.9569997,-2.6882 36.5591997,-4.8387 4.8159,-1.2041 8.1706,-1.6359 11.9883,-3.235 1.6861,-0.7062 3.5326,-1.392 4.7324,-2.7713 1.1821,-1.359 2.7082,-3.3165 2.0583,-4.9962 -1.74,-4.4973 -4.6992,-7.6805 -6.9511,-11.5783 -1.846,-3.19521 -3.9295,-6.28264 -5.3763,-9.67735 -2.3348,-5.47813 0.6569,-15.99861 -5.2571,-17.07381 -5.914,-1.0753 -12.2262,6.68902 -18.9365,8.20284 -17.4924997,3.94623 -35.93,3.76113 -53.7634,1.88177 -9.5529,-1.00673 -18.638,-4.65954 -27.957,-6.9893 -2.1505,-0.53764 -4.2474,-1.37756 -6.4516,-1.6129 -2.7635,-0.29506 -5.5541,0.26156 -8.3333,0.26882 z"
           id="path49950-3-1"
           inkscape:connector-curvature="0"
           sodipodi:nodetypes="aaaaasaacaasaacaaaaa" />
      </g>
      <g
         transform="matrix(0.22340209,0,0,0.22340209,234.91154,492.27946)"
         id="g12445-7-1">
        <text
           xml:space="preserve"
           style="font-size:49.23857116999999300px;font-style:normal;font-variant:normal;font-weight:normal;font-stretch:normal;text-indent:0;text-align:start;text-decoration:none;line-height:125%;letter-spacing:0px;word-spacing:0px;text-transform:none;direction:ltr;block-progression:tb;writing-mode:lr-tb;text-anchor:start;baseline-shift:baseline;color:#000000;fill:#000000;fill-opacity:1;fill-rule:nonzero;stroke:none;marker:none;visibility:visible;display:inline;overflow:visible;enable-background:accumulate;font-family:Poppins;-inkscape-font-specification:Poppins"
           x="819.70514"
           y="621.25867"
           id="text11162-14-38-9-0"
           sodipodi:linespacing="125%"><tspan
             sodipodi:role="line"
             id="tspan11164-2-74-0-9"
             x="819.70514"
             y="621.25867">T11</tspan></text>
        <path
           style="color:#000000;fill:none;stroke:#4d4d4d;stroke-width:3.58098722;stroke-linecap:butt;stroke-linejoin:miter;stroke-miterlimit:4;stroke-opacity:1;stroke-dasharray:none;stroke-dashoffset:0;marker:none;visibility:visible;display:inline;overflow:visible;enable-background:accumulate"
           d="m 627.85715,594.50504 165.90442,8.01206"
           id="path11808-5-9"
           inkscape:connector-curvature="0"
           sodipodi:nodetypes="cc" />
      </g>
    </g>
  </g>
</svg>
