<?xml version="1.0" encoding="UTF-8" standalone="no"?>
<!-- Created with Inkscape (http://www.inkscape.org/) -->

<svg
   xmlns:dc="http://purl.org/dc/elements/1.1/"
   xmlns:cc="http://creativecommons.org/ns#"
   xmlns:rdf="http://www.w3.org/1999/02/22-rdf-syntax-ns#"
   xmlns:svg="http://www.w3.org/2000/svg"
   xmlns="http://www.w3.org/2000/svg"
   xmlns:sodipodi="http://sodipodi.sourceforge.net/DTD/sodipodi-0.dtd"
   xmlns:inkscape="http://www.inkscape.org/namespaces/inkscape"
   width="220"
   height="375"
   id="svg5704"
   version="1.1"
   inkscape:version="0.48.5 r10040"
   sodipodi:docname="Spine.svg">
  <defs
     id="defs5706" />
  <sodipodi:namedview
     id="base"
     pagecolor="#ffffff"
     bordercolor="#666666"
     borderopacity="1.0"
     inkscape:pageopacity="0.0"
     inkscape:pageshadow="2"
     inkscape:zoom="5.6"
     inkscape:cx="145.96845"
     inkscape:cy="312.87111"
     inkscape:document-units="px"
     inkscape:current-layer="g6147"
     showgrid="false"
     inkscape:window-width="1280"
     inkscape:window-height="961"
     inkscape:window-x="-8"
     inkscape:window-y="-8"
     inkscape:window-maximized="1" />
  <metadata
     id="metadata5709">
    <rdf:RDF>
      <cc:Work
         rdf:about="">
        <dc:format>image/svg+xml</dc:format>
        <dc:type
           rdf:resource="http://purl.org/dc/dcmitype/StillImage" />
        <dc:title></dc:title>
      </cc:Work>
    </rdf:RDF>
  </metadata>
  <g
     inkscape:label="Capa 1"
     inkscape:groupmode="layer"
     id="layer1"
     transform="translate(0,-677.36218)">
    <g
       id="g6147"
       transform="translate(-249.00368,269.90451)">
      <g
         id="g12592-3-1"
         transform="matrix(0.2234221,0,0,0.2234221,368.51258,492.25391)"
         style="color:#000000;fill:#FF52A2;fill-opacity:1;fill-rule:nonzero;stroke:#4d4d4d;stroke-width:4.15467119;stroke-linecap:butt;stroke-linejoin:miter;stroke-miterlimit:4;stroke-opacity:1;stroke-dasharray:none;stroke-dashoffset:0;marker:none;visibility:visible;display:inline;overflow:visible;enable-background:accumulate">
        <path
           style="color:#000000;fill:#FF52A2;fill-opacity:1;fill-rule:nonzero;stroke:#4d4d4d;stroke-width:0.92824537;stroke-linecap:butt;stroke-linejoin:miter;stroke-miterlimit:4;stroke-opacity:1;stroke-dasharray:none;stroke-dashoffset:0;marker:none;visibility:visible;display:inline;overflow:visible;enable-background:accumulate"
           d="m 115.75,13.90625 c -0.57687,-0.01558 -1.08205,0.165254 -1.5,0.71875 l -0.34375,0.46875 c 0,0 -2.5495,3.208925 -3.25,5.09375 -0.5384,1.448743 -1.29791,3.166415 -0.65625,4.5625 0.24677,0.5369 0.93035,0.780062 1.49596,0.951063 0.97896,0.295969 2.04827,0.148588 3.06749,0.06409 1.20396,-0.09982 3.56155,-0.671399 3.56155,-0.671399 0,0 2.50086,0.573785 3.75,0.875 0.3042,0.07335 0.60345,0.169075 0.90625,0.25 -0.5258,-4.160424 -0.97374,-7.877203 -1,-9.65625 -1.9902,-0.58877 -4.30064,-2.609515 -6.03125,-2.65625 z"
           transform="matrix(4.475833,0,0,4.475833,-534.90187,-379.53381)"
           id="path11071-2-2"
           inkscape:connector-curvature="0"
           sodipodi:nodetypes="scccaaacsccs" />
        <path
           style="color:#000000;fill:#FF52A2;fill-opacity:1;fill-rule:nonzero;stroke:#4d4d4d;stroke-width:0.92824537;stroke-linecap:butt;stroke-linejoin:miter;stroke-miterlimit:4;stroke-opacity:1;stroke-dasharray:none;stroke-dashoffset:0;marker:none;visibility:visible;display:inline;overflow:visible;enable-background:accumulate"
           d="m 115.78125,14.34375 2.625,10.8125 c 0.32678,0.07734 2.31306,0.53382 3.46875,0.8125 2.56131,0.61763 5.07164,1.560247 7.6875,1.875 1.50699,0.181329 3.01495,0.06878 4.53125,0 1.31357,-0.05958 3.01039,-0.286896 3.85858,-0.596288 0.84819,-0.309392 1.14169,-0.396072 1.23517,-0.841212 0.16561,-0.788583 -0.25,-1.21875 -0.25,-1.21875 l -1.84375,-0.53125 -1.96875,-2.9375 c 0,0 -0.34375,-2.066492 -0.34375,-2.40625 0,-0.339758 0.0937,-0.84375 0.0937,-0.84375 0,0 0.78267,-1.081508 1.15625,-1.75 -1.38985,0.512307 -2.87158,0.818536 -4.34375,0.9375 -2.69317,0.217629 -5.41951,-0.06362 -8.0625,-0.625 -2.70703,-0.574978 -5.2674,-1.651858 -7.84375,-2.6875 z"
           transform="matrix(4.475833,0,0,4.475833,-534.90187,-379.53381)"
           id="path11079-0-4"
           inkscape:connector-curvature="0"
           sodipodi:nodetypes="ccssszscccsccsscc" />
        <path
           style="color:#000000;fill:#FF52A2;fill-opacity:1;fill-rule:nonzero;stroke:#4d4d4d;stroke-width:4.15467119;stroke-linecap:butt;stroke-linejoin:miter;stroke-miterlimit:4;stroke-opacity:1;stroke-dasharray:none;stroke-dashoffset:0;marker:none;visibility:visible;display:inline;overflow:visible;enable-background:accumulate"
           d="m -101.11127,-273.95545 c 3.927698,-7.65517 13.135798,-11.49141 20.967698,-15.05376 2.8489,-1.29584 6.3542,-0.72357 9.1398,-2.15054 4.8615,-2.49041 7.6359,-8.02012 12.3656,-10.75269 4.7601,-2.75016 10.2201,-4.20532 15.5914,-5.37634 7.2131,-1.57257 14.6604,-2.15229 22.043,-2.15054 9.1836,0.002 27.4193003,2.68817 27.4193003,2.68817 l 4.3010997,18.81721 -9.1397997,12.36559 c 0,0 -5.914,-1.61291 -8.0645,-0.53764 -2.1505,1.07527 -15.6421003,4.19207 -23.6559003,4.30108 -4.7139,0.0641 -9.3962,-1.04276 -13.9785,-2.15054 -3.3051,-0.79901 -6.2916,-2.91226 -9.6774,-3.22581 -5.224,-0.48377 -10.5964,0.54624 -15.5914,2.15054 -7.327,2.35329 -13.0505,8.57003 -20.4301,10.75269 -1.8982,0.56142 -4.0011,1.04657 -5.914,0.53763 -2.114,-0.56245 -4.366098,-1.82313 -5.376298,-3.76344 -0.9932,-1.90748 -0.9818,-4.53823 0,-6.45161 z"
           id="path11017-1-7"
           inkscape:connector-curvature="0"
           sodipodi:nodetypes="aaaaaacccsaaaaaaaa" />
        <path
           style="color:#000000;fill:#FF52A2;fill-opacity:1;fill-rule:nonzero;stroke:#4d4d4d;stroke-width:4.15467119;stroke-linecap:butt;stroke-linejoin:miter;stroke-miterlimit:4;stroke-opacity:1;stroke-dasharray:none;stroke-dashoffset:0;marker:none;visibility:visible;display:inline;overflow:visible;enable-background:accumulate"
           d="m 77.140828,-308.24485 c 3.3747,4.61615 -1.9781,11.43312 -1.271,17.10742 0.413,3.31417 1.5203,6.6012 3.1718,9.50413 1.8215,3.20181 5.8142,5.98148 7.2231,8.36363 2.1038,3.55675 0.9293,7.78485 -1.9008,8.17913 -1.8826,0.26228 -16.8507,5.51064 -25.6015,6.4246 -11.6431,1.21605 -23.574,0.754 -35.0944,-1.32498 -9.1081,-1.64365 -26.3618997,-8.71677 -26.3618997,-8.71677 0,0 -3.4214,-3.42149 -2.281,-6.08264 1.1405,-2.66116 3.0414,-4.18182 2.281,-6.46281 -0.7603,-2.28099 -5.3223,-14.82643 -6.0826,-16.72725 -0.7603,-1.90083 -2.6612003,-10.64462 0,-11.78512 2.6612,-1.14049 7.6033,-1.90082 13.6859,1.1405 6.0826997,3.04132 23.7394997,8.2427 36.1156997,8.74379 4.8711,0.19722 9.7018,-1.16019 14.4463,-2.28099 4.5744,-1.08063 9.1232,-2.40671 13.4402,-4.26614 1.6685,-0.71871 2.9671,-2.39574 4.7672,-2.64205 1.1754,-0.16084 2.7618,-0.13217 3.462,0.82555 z"
           id="path11009-2-9"
           inkscape:connector-curvature="0"
           sodipodi:nodetypes="aaassaacsssssaaaaa" />
        <path
           style="color:#000000;fill:#FF52A2;fill-opacity:1;fill-rule:nonzero;stroke:#4d4d4d;stroke-width:4.15467119;stroke-linecap:butt;stroke-linejoin:miter;stroke-miterlimit:4;stroke-opacity:1;stroke-dasharray:none;stroke-dashoffset:0;marker:none;visibility:visible;display:inline;overflow:visible;enable-background:accumulate"
           d="m -1.1731717,-305.58367 c 3.8415,2.0208 8.2403,3.7432 10.8347,7.2231 2.0603997,2.7636 3.2375997,6.4427 3.0412997,9.8843 -0.189,3.3142 -1.659,6.762 -3.9916997,9.1239 -2.0525,2.0781 -5.7315,2.4594 -7.98350003,3.6116 -2.25189997,1.1522 -4.46869997,4.2969 -5.56409997,3.1932 -2.6518,-2.6719 -0.643,-10.4363 -1.659,-15.5486 -0.6565,-3.3036 -2.2114,-6.3526 -2.8512,-9.6941 -0.6399,-3.3415 -3.5444003,-8.011 -0.9505003,-10.2645 1.8679003,-1.6228 4.8642003,0.964 7.2232003,1.7107 0.6506,0.2059 1.2968,0.4427 1.9008,0.7604 z"
           id="path11092-2-1"
           inkscape:connector-curvature="0"
           sodipodi:nodetypes="aaaacsazaaa" />
      </g>
      <g
         transform="matrix(0.22340209,0,0,0.22340209,234.91154,492.27946)"
         id="g12365-7-4">
        <text
           xml:space="preserve"
           style="font-size:49.23857116999999300px;font-style:normal;font-variant:normal;font-weight:normal;font-stretch:normal;text-indent:0;text-align:start;text-decoration:none;line-height:125%;letter-spacing:0px;word-spacing:0px;text-transform:none;direction:ltr;block-progression:tb;writing-mode:lr-tb;text-anchor:start;baseline-shift:baseline;color:#000000;fill:#000000;fill-opacity:1;fill-rule:nonzero;stroke:none;marker:none;visibility:visible;display:inline;overflow:visible;enable-background:accumulate;font-family:Poppins;-inkscape-font-specification:Poppins"
           x="818.07928"
           y="-257.63562"
           id="text11162-8-8-8"
           sodipodi:linespacing="125%"><tspan
             sodipodi:role="line"
             id="tspan11164-8-5-6"
             x="818.07928"
             y="-257.63562">C2</tspan></text>
        <path
           style="color:#000000;fill:none;stroke:#4d4d4d;stroke-width:3.58098722;stroke-linecap:butt;stroke-linejoin:miter;stroke-miterlimit:4;stroke-opacity:1;stroke-dasharray:none;stroke-dashoffset:0;marker:none;visibility:visible;display:inline;overflow:visible;enable-background:accumulate"
           d="m 675.71429,-280.49496 119.64231,5.32994"
           id="path11776-8-4"
           inkscape:connector-curvature="0"
           sodipodi:nodetypes="cc" />
      </g>
    </g>
  </g>
</svg>
