<?xml version="1.0" encoding="UTF-8" standalone="no"?>
<!-- Created with Inkscape (http://www.inkscape.org/) -->

<svg
   xmlns:dc="http://purl.org/dc/elements/1.1/"
   xmlns:cc="http://creativecommons.org/ns#"
   xmlns:rdf="http://www.w3.org/1999/02/22-rdf-syntax-ns#"
   xmlns:svg="http://www.w3.org/2000/svg"
   xmlns="http://www.w3.org/2000/svg"
   xmlns:sodipodi="http://sodipodi.sourceforge.net/DTD/sodipodi-0.dtd"
   xmlns:inkscape="http://www.inkscape.org/namespaces/inkscape"
   width="220"
   height="375"
   id="svg5704"
   version="1.1"
   inkscape:version="0.48.5 r10040"
   sodipodi:docname="Spine_green_thoracic.svg">
  <defs
     id="defs5706">
    <inkscape:path-effect
       effect="spiro"
       id="path-effect3941"
       is_visible="true" />
  </defs>
  <sodipodi:namedview
     id="base"
     pagecolor="#ffffff"
     bordercolor="#666666"
     borderopacity="1.0"
     inkscape:pageopacity="0.0"
     inkscape:pageshadow="2"
     inkscape:zoom="1.0163934"
     inkscape:cx="202.8767"
     inkscape:cy="13.228609"
     inkscape:document-units="px"
     inkscape:current-layer="g6147"
     showgrid="false"
     inkscape:window-width="1280"
     inkscape:window-height="961"
     inkscape:window-x="-8"
     inkscape:window-y="-8"
     inkscape:window-maximized="1" />
  <metadata
     id="metadata5709">
    <rdf:RDF>
      <cc:Work
         rdf:about="">
        <dc:format>image/svg+xml</dc:format>
        <dc:type
           rdf:resource="http://purl.org/dc/dcmitype/StillImage" />
        <dc:title></dc:title>
      </cc:Work>
    </rdf:RDF>
  </metadata>
  <g
     inkscape:label="Capa 1"
     inkscape:groupmode="layer"
     id="layer1"
     transform="translate(0,-677.36218)">
    <g
       id="g6147"
       transform="translate(-249.00368,269.90451)">
      <g
         id="g12592-3-1"
         transform="matrix(0.2234221,0,0,0.2234221,368.51258,492.25391)"
         style="color:#000000;fill:#FF52A2;fill-opacity:1;fill-rule:nonzero;stroke:#4d4d4d;stroke-width:4.15467119;stroke-linecap:butt;stroke-linejoin:miter;stroke-miterlimit:4;stroke-opacity:1;stroke-dasharray:none;stroke-dashoffset:0;marker:none;visibility:visible;display:inline;overflow:visible;enable-background:accumulate">
        <path
           style="color:#000000;fill:#FF52A2;fill-opacity:1;fill-rule:nonzero;stroke:#4d4d4d;stroke-width:4.15467119;stroke-linecap:butt;stroke-linejoin:miter;stroke-miterlimit:4;stroke-opacity:1;stroke-dasharray:none;stroke-dashoffset:0;marker:none;visibility:visible;display:inline;overflow:visible;enable-background:accumulate"
           d="m -102.29707,917.59698 c 5.814698,-4.6333 14.602098,-3.4034 21.289298,-6.6529 4.1043,-1.9944 7.61,-5.0447 11.285,-7.7499 4.7183,-3.4732 8.4621,-8.476 13.8058,-10.8782 9.1594,-4.1174 20.0916,-8.3929 29.6529,-5.3223 6.2285,2.0003 10.8192,8.1859 13.686,14.0661 2.466,5.0583 4.6903003,11.6418 2.2809,16.7273 -2.8008,5.9119 -10.7911,7.5152 -16.7272,10.2644 -7.7453,3.5871 -15.9779,6.2259 -24.3306,7.9835 -6.3546,1.3371 -12.903,2.2313 -19.3884,1.9008 -5.7458,-0.2928 -11.4456,-1.6435 -16.9173,-3.4215 -3.3988,-1.1043 -6.6082,-2.7552 -9.7505,-4.4574 -3.078998,-1.6679 -8.047598,-2.2149 -8.877598,-5.6169 -0.6259,-2.5655 1.9265,-5.1974 3.9917,-6.843 z"
           id="path11061-8-9"
           inkscape:connector-curvature="0"
           sodipodi:nodetypes="aaaaaaaaaaaaaa" />
        <path
           style="color:#000000;fill:#FF52A2;fill-opacity:1;fill-rule:nonzero;stroke:#4d4d4d;stroke-width:4.15467119;stroke-linecap:butt;stroke-linejoin:miter;stroke-miterlimit:4;stroke-opacity:1;stroke-dasharray:none;stroke-dashoffset:0;marker:none;visibility:visible;display:inline;overflow:visible;enable-background:accumulate"
           d="m -121.30527,712.49798 c 6.8429,-4.9421 30.793298,-22.8099 33.834698,-25.8512 3.0413,-3.0413 6.8429,-6.843 14.0661,-8.7438 7.2231,-1.9008 25.471,0 28.5123,2.6612 3.0414,2.6611 7.6033,13.3057 7.6033,13.3057 0,0 -1.9008,11.0248 -2.281,14.4463 -0.3801,3.4215 -7.9834,16.3471 -7.9834,16.3471 0,0 -10.2645,3.0413 -11.7851,1.1405 -1.5207,-1.9008 -8.3637,-10.2645 -11.405,-12.1653 -3.0413,-1.9008 -8.3636,-5.3223 -13.3058,-4.1818 -4.9421,1.1405 -7.2231,4.1818 -12.9256,6.4628 -5.702398,2.281 -5.026398,5.5259 -9.968598,5.9061 -4.9421,0.3801 -11.3206,-0.5838 -13.6016,-2.4846 -2.281,-1.9008 -0.7603,-6.843 -0.7603,-6.843 z"
           id="path11053-3-4"
           inkscape:connector-curvature="0"
           sodipodi:nodetypes="cssscscssssssc" />
        <path
           style="color:#000000;fill:#FF52A2;fill-opacity:1;fill-rule:nonzero;stroke:#4d4d4d;stroke-width:4.15467119;stroke-linecap:butt;stroke-linejoin:miter;stroke-miterlimit:4;stroke-opacity:1;stroke-dasharray:none;stroke-dashoffset:0;marker:none;visibility:visible;display:inline;overflow:visible;enable-background:accumulate"
           d="m -59.107772,721.54878 c 0,0 -8.6244,13.738 -13.9166,19.8417 -5.5793,6.4349 -12.3176,11.768 -18.6281,17.4876 -3.9923,3.6187 -9.611598,5.8999 -12.165198,10.6447 -1.3335,2.4776 -2.3881,5.8416 -1.1405,8.3636 1.2434,2.5136 4.7405,3.0438 7.315298,4.1548 2.405,1.0376 4.9177,2.6745 7.5111,2.308 3.451,-0.4878 6.0071,-6.5694 8.7345,-8.92 3.0945,-2.667 6.3323,-1.6895 9.9476,-3.2914 4.533,-2.0085 9.5351,-2.7605 14.3923,-3.7555 7.5319,-1.5431 17.4875,-0.7604 22.8098,-3.4215 5.3224,-2.6612 28.5744003,-1.9312 28.5744003,-1.9312 0,0 -18.3099003,-20.1184 -22.4917003,-22.7795 -4.1818,-2.6612 3.6679,-14.5465 -2.0346,-16.0671 -5.7024,-1.5207 -28.9083,-2.6342 -28.9083,-2.6342 z"
           id="path11055-0-8"
           inkscape:connector-curvature="0"
           sodipodi:nodetypes="caaaaasssascssc" />
        <path
           style="color:#000000;fill:#FF52A2;fill-opacity:1;fill-rule:nonzero;stroke:#4d4d4d;stroke-width:0.92824537;stroke-linecap:butt;stroke-linejoin:miter;stroke-miterlimit:4;stroke-opacity:1;stroke-dasharray:none;stroke-dashoffset:0;marker:none;visibility:visible;display:inline;overflow:visible;enable-background:accumulate"
           d="m 105.40625,230.375 c -0.30999,0.13624 -0.60115,0.26643 -0.90625,0.375 0.3692,0.36297 0.69477,0.77515 0.90625,1.25 0.43831,0.98415 0.0313,2.17992 0.15625,3.25 0.0734,0.62882 0.2305,1.22087 0.34375,1.84375 0.11325,0.62286 0.20226,1.25793 0.34375,1.875 0.23643,1.03107 0.70087,2.01436 0.84375,3.0625 0.23707,1.7393 -0.50867,3.56996 0,5.25 0.23665,0.78162 0.97467,1.3507 1.375,2.0625 0.45945,0.81697 0.98448,1.61618 1.1875,2.53125 0.38018,1.71369 0,3.52587 0,5.28125 l 0,3.90625 0,2.875 0,2.375 c 0,1.30237 -0.0325,2.60428 0,3.90625 0.085,3.40066 0.59817,6.81842 0.5,10.21875 -0.0608,2.10645 -0.38557,4.19565 -0.6875,6.28125 -0.27211,1.87965 -0.78654,3.70653 -1,5.59375 -0.14018,1.23912 -0.0176,2.90064 -0.1875,3.75 -0.16987,0.84938 -0.15625,5.625 -0.15625,5.625 l 3.5625,-2.40625 3.21875,-2.71875 c 0,0 5.99585,-1.74034 7.21875,-4.25 1.22522,-2.51448 -0.79986,-5.53089 -1.09375,-8.3125 -0.60282,-5.70526 -0.75751,-11.45257 -1.375,-17.15625 -0.49215,-4.54606 -1.37199,-9.04555 -1.84375,-13.59375 -0.33381,-3.21828 -0.0181,-6.52197 -0.6875,-9.6875 -0.71617,-3.38654 -1.65532,-6.74973 -2.8125,-10.03125 -0.0913,-0.0356 -0.19044,-0.0571 -0.28125,-0.0937 -0.99403,-0.40077 -1.72498,-1.27862 -2.6875,-1.75 -1.02926,-0.50406 -2.1334,-0.86681 -3.25,-1.125 -0.86346,-0.19965 -1.81753,-0.068 -2.6875,-0.1875 z"
           transform="matrix(4.475833,0,0,4.475833,-534.90187,-379.53381)"
           id="path11071-2-2"
           inkscape:connector-curvature="0"
           sodipodi:nodetypes="ccscsccsccsccsscscccccsssssccssc" />
        <path
           style="color:#000000;fill:#FF52A2;fill-opacity:1;fill-rule:nonzero;stroke:#4d4d4d;stroke-width:4.15467119;stroke-linecap:butt;stroke-linejoin:miter;stroke-miterlimit:4;stroke-opacity:1;stroke-dasharray:none;stroke-dashoffset:0;marker:none;visibility:visible;display:inline;overflow:visible;enable-background:accumulate"
           d="m -16.379772,794.99378 c -7.9848,-7.1513 -21.6352,-2.2335 -32.1566,-0.1845 -7.3489,1.4312 -13.9876,5.3788 -20.7707,8.5481 -6.8264,3.1897 -13.2399,7.2073 -20.0103,10.5142 -4.6483,2.2703 -12.652498,1.4428 -14.139298,6.3976 -0.7542,2.5136 2.168,4.999 4.200898,6.6585 2.8927,2.3612 6.7453,3.9763 10.4793,3.9591 8.8954,-0.041 16.3304,-7.1917 24.8761,-9.6616 12.5741,-3.6343 25.7252,-4.8531 38.5429,-7.5032 3.6352,-0.7515 8.7224,0.6405 10.8785,-2.3811 3.1864,-4.4655 2.1856,-12.6872 -1.9008,-16.3471 z"
           id="path11057-7-5"
           inkscape:connector-curvature="0"
           sodipodi:nodetypes="aaaaaaaaaaa" />
        <path
           style="color:#000000;fill:#FF52A2;fill-opacity:1;fill-rule:nonzero;stroke:#4d4d4d;stroke-width:4.15467119;stroke-linecap:butt;stroke-linejoin:miter;stroke-miterlimit:4;stroke-opacity:1;stroke-dasharray:none;stroke-dashoffset:0;marker:none;visibility:visible;display:inline;overflow:visible;enable-background:accumulate"
           d="m -101.91687,862.28298 c 0.9592,-4.0307 7.691798,-3.1039 11.404898,-4.9422 6.5081,-3.2219 12.8387,-6.8142 19.0083,-10.6446 7.0474,-4.3753 12.6198,-11.5647 20.5289,-14.0661 10.1499,-3.21 22.3409,-4.9953 31.9338,-0.3801 9.8452003,4.7365 23.5703003,22.4297 20.1488003,25.8512 -3.4215,3.4215 -17.7465003,0.9264 -26.6116003,1.5206 -6.5942,0.442 -13.3211,0.068 -19.7685,1.5207 -5.6938,1.2827 -10.6519,4.9967 -16.3471,6.2727 -7.4825,1.6765 -15.2782,2.0109 -22.9404,1.7108 -4.506,-0.1765 -9.4452,0.1607 -13.371,-2.0583 -1.8071,-1.0215 -4.466698,-2.7653 -3.986098,-4.7847 z"
           id="path11059-0-2"
           inkscape:connector-curvature="0"
           sodipodi:nodetypes="aaaaasaaaaaa" />
        <path
           style="color:#000000;fill:#FF52A2;fill-opacity:1;fill-rule:nonzero;stroke:#4d4d4d;stroke-width:0.92824537;stroke-linecap:butt;stroke-linejoin:miter;stroke-miterlimit:4;stroke-opacity:1;stroke-dasharray:none;stroke-dashoffset:0;marker:none;visibility:visible;display:inline;overflow:visible;enable-background:accumulate"
           d="M 105.96875 230.40625 C 106.35529 231.44766 106.77862 232.56387 107.09375 233.34375 C 107.86634 235.25568 109.5625 239.03125 109.5625 239.03125 L 111.40625 242.9375 L 111.6875 247.46875 C 111.6875 247.46875 113.37231 250.66224 113.71875 252.40625 C 113.86203 253.12757 113.71875 253.85831 113.71875 254.59375 C 113.71875 256.17864 113.583 257.76467 113.71875 259.34375 C 113.83205 260.66158 114.35066 261.95971 114.40625 263.28125 C 114.46115 264.58606 114.11956 265.85153 114.0625 267.15625 C 114.0228 268.06303 113.9977 269.0009 114.0625 269.90625 C 114.17683 271.50338 114.66003 273.05755 114.75 274.65625 C 114.96008 278.38975 114.56526 282.13898 114.40625 285.875 C 114.26713 289.14426 113.98379 294.01169 113.84375 296.3125 C 114.46011 296.07382 115.84375 296.25 115.84375 296.25 C 115.84375 296.25 116.15552 296.42625 116.46875 296.625 C 116.90532 296.14086 117.26537 295.64458 117.46875 295.1875 C 117.90646 294.20382 117.50525 293.03874 117.625 291.96875 C 117.81055 290.31167 118.33094 288.72422 118.46875 287.0625 C 118.55795 285.9873 118.36662 284.88653 118.46875 283.8125 C 118.69275 281.45915 119.44148 279.17328 119.84375 276.84375 C 120.10676 275.32068 120.68733 273.81895 120.53125 272.28125 C 120.39744 270.96306 119.63616 269.76622 119.15625 268.53125 C 118.24578 266.18824 116.41613 264.07256 116.28125 261.5625 C 116.22745 260.56235 116.98277 259.67891 117.125 258.6875 C 117.26185 257.73376 117.37016 256.71303 117.125 255.78125 C 116.74478 254.33598 115.21699 253.33678 114.90625 251.875 C 114.65785 250.70639 115.25 248.3125 115.25 248.3125 L 115.25 244.5625 L 114.40625 242.8125 L 110.75 232.875 L 109.8125 231.0625 C 109.24916 230.86235 108.67435 230.69675 108.09375 230.5625 C 107.41295 230.40508 106.67766 230.42767 105.96875 230.40625 z "
           transform="matrix(4.475833,0,0,4.475833,-534.90187,-379.53381)"
           id="path11104-9-6" />
        <path
           style="color:#000000;fill:#FF52A2;fill-opacity:1;fill-rule:nonzero;stroke:#4d4d4d;stroke-width:0.92824537;stroke-linecap:butt;stroke-linejoin:miter;stroke-miterlimit:4;stroke-opacity:1;stroke-dasharray:none;stroke-dashoffset:0;marker:none;visibility:visible;display:inline;overflow:visible;enable-background:accumulate"
           d="M 106.71875 230.4375 C 106.92139 230.62918 108.54043 232.18197 109.21875 233.3125 C 109.93947 234.51371 109.46676 235.47654 110.1875 236.4375 C 110.90822 237.39846 113.5625 244.59375 113.5625 244.59375 L 116.84375 251.5 C 116.84375 251.5 117.57225 258.47654 117.8125 259.4375 C 118.05272 260.39846 119.46875 271.21875 119.46875 271.21875 L 117.40625 292.65625 L 113.90625 296.03125 L 114.125 296.28125 C 114.79856 296.14994 115.84375 296.25 115.84375 296.25 C 115.84375 296.25 120.56061 299.35632 123.21875 300.21875 C 126.33198 301.22882 129.69801 301.40986 132.96875 301.53125 C 134.08887 301.57281 135.67999 301.48686 137.0625 301.375 L 137.1875 301.375 L 139.75 300.9375 C 139.75 300.9375 141.15728 300.41472 141.65625 299.875 C 142.27037 299.2107 142.96208 298.29846 142.8125 297.40625 C 142.56901 295.95401 140.3506 294.93947 139.75 294.21875 C 139.1494 293.49803 138.0625 290.5 138.0625 290.5 L 141.4375 288.9375 C 141.4375 288.9375 142.74722 287.7408 143.21875 287 C 143.56608 286.45429 144.12937 285.83649 143.9375 285.21875 C 143.50929 283.84006 140.34375 282.8125 140.34375 282.8125 L 140.71875 277.65625 C 140.71875 277.65625 141.31542 277.39844 142.15625 276.4375 C 142.99708 275.47654 143.28125 274.53125 143.28125 274.53125 C 143.28125 274.53125 144.56224 272.53878 144.3125 271.5 C 144.00693 270.22893 142.26172 268.62011 141.78125 268.5 C 141.30078 268.37989 139.25 266 139.25 266 L 140.46875 262.375 C 140.46875 262.375 142.24662 260.85608 142.5 260.21875 C 142.75338 259.58142 142.6982 259.15796 142.5 258.6875 C 142.27191 258.14606 141.25 257.46875 141.25 257.46875 L 139.03125 254.6875 L 138.0625 251.8125 L 140.21875 249.53125 L 140.8125 247.5 C 140.8125 247.5 140.7664 245.99454 140.34375 245.4375 C 138.98963 243.65303 134.94922 242.21875 134.46875 242.21875 C 133.98828 242.21875 134.6875 238.59375 134.6875 238.59375 L 135.78125 237.09375 C 135.78125 237.09375 136.2129 235.15832 136.3125 234.59375 C 136.44304 233.85383 135.90416 233.06575 135.65625 232.46875 C 135.65125 232.48875 135.66225 232.51115 135.65625 232.53125 C 135.40477 233.3311 134.34258 233.59884 133.5625 233.90625 C 130.69027 235.03817 127.5245 235.50678 124.4375 235.46875 C 120.90808 235.42525 117.30485 234.75743 114.03125 233.4375 C 113.03722 233.03673 112.30627 232.15888 111.34375 231.6875 C 110.31449 231.18344 109.21035 230.82069 108.09375 230.5625 C 107.65191 230.46033 107.18473 230.43657 106.71875 230.4375 z "
           transform="matrix(4.475833,0,0,4.475833,-534.90187,-379.53381)"
           id="path11079-0-4" />
        <path
           style="color:#000000;fill:#FF52A2;fill-opacity:1;fill-rule:nonzero;stroke:#4d4d4d;stroke-width:4.15467119;stroke-linecap:butt;stroke-linejoin:miter;stroke-miterlimit:4;stroke-opacity:1;stroke-dasharray:none;stroke-dashoffset:0;marker:none;visibility:visible;display:inline;overflow:visible;enable-background:accumulate"
           d="m -29.886472,898.72098 c -3.0505,0.085 -6.302,-0.041 -9.07,1.2438 -3.0928,1.4356 -6.5189,3.6103 -7.6033,6.843 -0.9021,2.6894 0.3173,5.8323 1.6129,8.3558 1.7163,3.3428 4.6025,6.1337 7.7496,8.187 3.4836,2.2729 7.9445,2.5222 11.7502,4.2009 4.1703,1.8396 8.7761,3.2664 12.0809,6.4055 2.2277,2.1159 2.6965,5.6079 4.7307003,7.9104 3.257,3.6866 7.2328,6.8834 11.6355,9.0778 10.5971997,5.2818 22.5779997,7.5885 34.3070997,9.2083 8.0855,1.1166 16.3751,1.2241 24.4848,0.2997 11.2716,-1.2848 22.9426,-2.9413 33.0645,-8.0646 3.2347,-1.6373 6.675802,-3.7649 8.333302,-6.9892 3.2049,-6.2344 1.8007,-13.9604 1.6129,-20.9677 -0.1346,-5.0262 2.2775,-13.2136 -1.6916,-16.3001 -1.7303,-1.3454 -4.503602,1.5135 -6.798102,2.122 -4.0863,1.0836 -8.197,2.1631 -12.3881,2.7167 -7.1134,0.9395 -14.3371,1.3902 -21.5021,1.0061 -10.2173,-0.5476 -20.4955,-1.8921 -30.3335,-4.7043 -6.8355,-1.9539 -16.7789,-6.0126 -23.1333997,-9.4795 -4.8473,-2.6445 -6.0327,-5.0572 -11.4518,-5.2649 -2.0815,-0.08 -4.0426,4.8806 -5.9744,5.7566 -3.0554003,1.3856 -6.0376003,-0.9875 -9.3076003,-0.5838 -4.0189,0.4961 -8.0607,-1.0921 -12.1085,-0.9795 z"
           id="path49936-8-2"
           inkscape:connector-curvature="0"
           sodipodi:nodetypes="aaaaaaaaaaaaassaaasssssa" />
        <path
           style="color:#000000;fill:#FF52A2;fill-opacity:1;fill-rule:nonzero;stroke:#4d4d4d;stroke-width:4.15467119;stroke-linecap:butt;stroke-linejoin:miter;stroke-miterlimit:4;stroke-opacity:1;stroke-dasharray:none;stroke-dashoffset:0;marker:none;visibility:visible;display:inline;overflow:visible;enable-background:accumulate"
           d="m -3.2618717,840.56058 c -3.7952,-1.7878 -7.7111003,-3.4939 -11.8279003,-4.3011 -2.288,-0.4485 -4.6594,-0.3558 -6.9893,-0.2687 -3.9652,0.1482 -8.6932,-1.0888 -11.828,1.344 -3.1815,2.4692 -4.039,7.2716 -4.301,11.2903 -0.2518,3.8605 1.1119,7.7574 2.6881,11.2904 1.1545,2.5877 2.7611,5.0625 4.8388,6.9893 2.2085,2.0482 5.1756,3.0839 7.7957,4.5699 2.7557,1.5628 5.3987,3.3763 8.3333,4.5698 3.1013,1.2614 6.7203003,1.1184 9.6774003,2.6882 4.88459997,2.5931 8.126,7.5499 12.6344,10.7526 4.9111997,3.4889 9.8495997,7.3168 15.5913997,9.1399 14.1424,4.4901 29.518,3.9564 44.3549,3.7635 8.1134,-0.1056 16.3228,-0.7155 24.1935,-2.6882 3.7445,-0.9386 8.602102,-3.2259 10.752702,-4.3012 2.1505,-1.0753 5.2043,-2.4569 6.1963,-5.3763 1.3862,-4.0794 -2.0934,-8.1784 -2.4329,-12.3656 -0.4959,-6.1161 0.8706,-12.2687 0.5973,-18.3988 -0.093,-2.0878 0.4057,-4.7349 -0.7603,-6.2233 -1.2353,-1.5767 -0.6405,-4.3592 -4.8933,-3.4875 -10.085102,2.067 -20.362702,5.9476 -31.426402,7.3375 -7.842,0.9852 -20.9235,-0.3567 -31.2592,-1.8086 -7.2762,-1.022 -14.4701,-2.719 -21.5054,-4.8387 -3.856,-1.1618 -7.6601997,-2.557 -11.2902997,-4.301 -3.186,-1.5305 -5.94220003,-3.87 -9.1398,-5.3764 z"
           id="path49938-3-1"
           inkscape:connector-curvature="0"
           sodipodi:nodetypes="aaaaaaaaaaaaaassaasssaaaa" />
        <path
           style="color:#000000;fill:#FF52A2;fill-opacity:1;fill-rule:nonzero;stroke:#4d4d4d;stroke-width:4.15467119;stroke-linecap:butt;stroke-linejoin:miter;stroke-miterlimit:4;stroke-opacity:1;stroke-dasharray:none;stroke-dashoffset:0;marker:none;visibility:visible;display:inline;overflow:visible;enable-background:accumulate"
           d="m -34.667372,787.84548 c -3.0246,2.955 -5.9511,7.0652 -5.7835,11.2903 0.1505,3.7934 3.2459,7.0586 5.9792,9.6932 3.4342,3.3103 8.4513,5.7481 12.4466,7.0601 3.9953,1.312 8.3414,0.5378 10.845,1.2924 5.4660003,1.6474 5.1305003,6.1965 9.1110003,10.5932 2.89169997,3.1941 12.3169997,6.3077 16.0226997,8.17 9.9657,5.0081 21.3436,7.3001 32.4696,8.0803 16.282,1.1419 33.2442,0.1633 48.702,-5.0773 6.171002,-2.0921 13.483002,-4.5297 16.666702,-10.215 1.1383,-2.0327 0.4406,-4.7015 0,-6.9893 -0.9125,-4.7383 -4.0513,-8.8009 -5.3764,-13.4409 -1.3924,-4.8757 -2.6611,-11.2139 -2.6611,-14.9773 0,-3.7634 -0.5377,-6.7204 -5.376402,-4.5698 -4.8387,2.1505 -14.3418,4.8466 -19.7182,5.9219 -5.3763,1.0752 -22.3889,2.1004 -33.5234,1.0887 -10.0355,-0.9119 -23.0913,-2.6476 -29.5429,-6.411 -6.4515997,-3.7635 -16.6941997,-5.0209 -25.3069997,-6.0333 -5.1616003,-0.6068 -10.5253003,-1.1598 -15.5914003,0 -3.3786,0.7735 -6.8832,2.1017 -9.3625,4.5238 z"
           id="path49940-7-6"
           inkscape:connector-curvature="0"
           sodipodi:nodetypes="aaazsssaaaaasccasaaa" />
        <path
           style="color:#000000;fill:#FF52A2;fill-opacity:1;fill-rule:nonzero;stroke:#4d4d4d;stroke-width:4.15467119;stroke-linecap:butt;stroke-linejoin:miter;stroke-miterlimit:4;stroke-opacity:1;stroke-dasharray:none;stroke-dashoffset:0;marker:none;visibility:visible;display:inline;overflow:visible;enable-background:accumulate"
           d="m -15.627472,729.80788 c -8.2737,-0.1352 -17.0157,-0.8401 -24.7312,2.1506 -3.576,1.3862 -7.4241,3.5591 -9.1397,6.9892 -1.4277,2.8544 -1.6043,6.7634 -0.092,9.574 3.1998,5.9478 10.8118,8.3292 17.0142,11.0025 5.5911,2.4098 12.0973,2.0576 17.7419,4.3392 4.414,1.7842 3.6142,7.7263 7.5982003,10.3822 3.0531,2.0354 6.1125,2.9169 13.8094,5.3779 7.6967997,2.4609 21.4379997,7.5581 32.6381997,8.2489 17.3053,1.0674 35.4377,-0.3728 51.6129,-6.4516 3.7248,-1.3998 9.677402,-5.3763 9.677402,-5.3763 0,0 -0.916502,-7.1959 -1.612902,-10.7527 -1.1694,-5.9718 -3.5791,-11.6996 -4.3011,-17.7419 -0.9567,-8.0075 3.7635,-21.5054 0,-24.1936 -3.7634,-2.6882 -22.9173,9.0181 -34.9462,11.2903 -14.4668,2.7328 -29.4884,4.603 -44.086,2.6882 -6.1809997,-0.8107 -11.6590997,-4.5499 -17.7419997,-5.914 -4.4031,-0.9873 -8.9290003,-1.5391 -13.4408003,-1.6129 z"
           id="path49942-1-8"
           inkscape:connector-curvature="0"
           sodipodi:nodetypes="aaaaasszascaasaaaa" />
        <path
           style="color:#000000;fill:#FF52A2;fill-opacity:1;fill-rule:nonzero;stroke:#4d4d4d;stroke-width:4.15467119;stroke-linecap:butt;stroke-linejoin:miter;stroke-miterlimit:4;stroke-opacity:1;stroke-dasharray:none;stroke-dashoffset:0;marker:none;visibility:visible;display:inline;overflow:visible;enable-background:accumulate"
           d="m -45.349172,674.36918 c -4.389,1.6571 -9.2564,3.839 -11.6761,7.8581 -1.5966,2.652 -1.7876,6.2473 -0.9775,9.2349 1.3298,4.9036 5.0725,9.0993 9.042,12.2705 3.6679,2.9303 8.4151,4.2678 12.9032,5.6451 4.7045,1.4438 10.7527,0 14.5161,2.6882 3.7635,2.6882 11.8308003,8.9981 18.6057003,11.8606 6.4544,2.727 13.4942997,4.05 20.4571997,4.8331 14.3519,1.614 29.1419,2.3732 43.3257,-0.3475 8.3237,-1.5967 23.6964,-9.2185 23.6964,-9.2185 0,0 9.4086,-3.4946 6.1828,-8.871 -3.2258,-5.3763 -6.5455,-7.4075 -8.6888,-11.7954 -2.5178,-5.1546 -2.6188,-11.2053 -4.6542,-16.5687 -0.6937,-1.8278 -0.7882,-4.4495 -2.5594,-5.2769 -2.3526,-1.099 -2.2486,0.9226 -7.2409,2.2797 -4.9922,1.3571 -15.1496,4.465 -22.8538,5.2511 -13.6086,1.3886 -27.4236,-0.057 -41.0017997,-1.7163 -8.8963,-1.087 -20.4302003,-4.3011 -26.3441003,-5.3763 -5.914,-1.0753 -8.4139,-3.6425 -12.9033,-4.0323 -3.2917,-0.2859 -6.7381,0.1144 -9.8292,1.2816 z"
           id="path49944-0-5"
           inkscape:connector-curvature="0"
           sodipodi:nodetypes="aaaaasaaacsaaszsacaa" />
      </g>
      <text
         sodipodi:linespacing="100%"
         id="text11162-0-6-8-3"
         y="679.67987"
         x="306.37842"
         style="font-size:10.75883198px;font-style:normal;font-variant:normal;font-weight:normal;font-stretch:normal;text-indent:0;text-align:end;text-decoration:none;line-height:100%;letter-spacing:0px;word-spacing:0px;text-transform:none;direction:ltr;block-progression:tb;writing-mode:lr-tb;text-anchor:end;baseline-shift:baseline;color:#000000;fill:#000000;fill-opacity:1;fill-rule:nonzero;stroke:none;stroke-width:1;marker:none;visibility:visible;display:inline;overflow:visible;enable-background:accumulate;font-family:Poppins;-inkscape-font-specification:Poppins"
         xml:space="preserve"><tspan
           id="tspan11695-3-4"
           y="679.67987"
           x="306.37842"
           sodipodi:role="line">Lumbar</tspan></text>
      <path
         sodipodi:nodetypes="cccc"
         inkscape:connector-curvature="0"
         id="path11747-4-3"
         d="m 329.66408,645.62335 c -1.80535,0 -18.936,0 -18.936,0 l 0,60.24844 18.936,0"
         style="color:#000000;fill:none;stroke:#4d4d4d;stroke-width:0.80000001;stroke-linecap:butt;stroke-linejoin:miter;stroke-miterlimit:4;stroke-opacity:1;stroke-dasharray:none;stroke-dashoffset:0;marker:none;visibility:visible;display:inline;overflow:visible;enable-background:accumulate" />
    </g>
  </g>
</svg>
