<?xml version="1.0" encoding="UTF-8" standalone="no"?>
<!-- Created with Inkscape (http://www.inkscape.org/) -->

<svg
   xmlns:dc="http://purl.org/dc/elements/1.1/"
   xmlns:cc="http://creativecommons.org/ns#"
   xmlns:rdf="http://www.w3.org/1999/02/22-rdf-syntax-ns#"
   xmlns:svg="http://www.w3.org/2000/svg"
   xmlns="http://www.w3.org/2000/svg"
   xmlns:sodipodi="http://sodipodi.sourceforge.net/DTD/sodipodi-0.dtd"
   xmlns:inkscape="http://www.inkscape.org/namespaces/inkscape"
   width="220"
   height="375"
   id="svg5704"
   version="1.1"
   inkscape:version="0.48.5 r10040"
   sodipodi:docname="Spine_blue.svg">
  <defs
     id="defs5706">
    <inkscape:path-effect
       effect="spiro"
       id="path-effect3941"
       is_visible="true" />
    <inkscape:path-effect
       effect="spiro"
       id="path-effect3941-1"
       is_visible="true" />
  </defs>
  <sodipodi:namedview
     id="base"
     pagecolor="#ffffff"
     bordercolor="#666666"
     borderopacity="1.0"
     inkscape:pageopacity="0.0"
     inkscape:pageshadow="2"
     inkscape:zoom="2.0327868"
     inkscape:cx="141.45095"
     inkscape:cy="125.41612"
     inkscape:document-units="px"
     inkscape:current-layer="g6147"
     showgrid="false"
     inkscape:window-width="1280"
     inkscape:window-height="961"
     inkscape:window-x="-8"
     inkscape:window-y="-8"
     inkscape:window-maximized="1" />
  <metadata
     id="metadata5709">
    <rdf:RDF>
      <cc:Work
         rdf:about="">
        <dc:format>image/svg+xml</dc:format>
        <dc:type
           rdf:resource="http://purl.org/dc/dcmitype/StillImage" />
        <dc:title></dc:title>
      </cc:Work>
    </rdf:RDF>
  </metadata>
  <g
     inkscape:label="Capa 1"
     inkscape:groupmode="layer"
     id="layer1"
     transform="translate(0,-677.36218)">
    <g
       id="g6147"
       transform="translate(-249.00368,269.90451)">
      <g
         id="g12592-3-1"
         transform="matrix(0.2234221,0,0,0.2234221,368.51258,492.25391)"
         style="color:#000000;fill:#FF52A2;fill-opacity:1;fill-rule:nonzero;stroke:#4d4d4d;stroke-width:4.15467123;stroke-linecap:butt;stroke-linejoin:miter;stroke-miterlimit:4;stroke-opacity:1;stroke-dasharray:none;stroke-dashoffset:0;marker:none;visibility:visible;display:inline;overflow:visible;enable-background:accumulate">
        <path
           style="color:#000000;fill:#FF52A2;fill-opacity:1;fill-rule:nonzero;stroke:#4d4d4d;stroke-width:0.92824537;stroke-linecap:butt;stroke-linejoin:miter;stroke-miterlimit:4;stroke-opacity:1;stroke-dasharray:none;stroke-dashoffset:0;marker:none;visibility:visible;display:inline;overflow:visible;enable-background:accumulate"
           d="M 122.3125 305.6875 C 122.3125 308.3383 120.80356 309.20967 118.9375 309.9375 C 119.81588 310.58498 120.72195 311.20249 121.625 311.8125 C 121.59686 311.81251 121.55717 311.8105 121.53125 311.8125 C 120.08482 311.92381 119.25756 312.31611 118.375 313.0625 C 117.49242 313.80889 115.56414 317.12856 113.90625 318.9375 C 112.16599 320.83632 110.30224 322.65468 108.1875 324.125 C 107.69837 324.46508 107.16653 324.73954 106.625 325 C 105.06445 328.50748 104 331.34375 104 331.34375 C 104 331.34375 114.74976 329.87013 120.09375 328.9375 C 123.71397 328.30571 127.68987 328.55891 130.90625 326.78125 C 132.74061 325.76741 134.42807 324.14675 135.25 322.21875 C 135.91023 320.67003 135.97051 318.76333 135.46875 317.15625 C 134.95798 315.52035 133.56139 314.26847 132.34375 313.0625 C 129.83631 310.5791 122.18669 308.73566 122.3125 305.6875 z "
           transform="matrix(4.475833,0,0,4.475833,-534.90187,-379.53381)"
           id="path11137-7-2" />
        <path
           style="color:#000000;fill:#FF52A2;fill-opacity:1;fill-rule:nonzero;stroke:#4d4d4d;stroke-width:4.15467119000000020;stroke-linecap:butt;stroke-linejoin:miter;stroke-miterlimit:4;stroke-opacity:1;stroke-dasharray:none;stroke-dashoffset:0;marker:none;visibility:visible;display:inline;overflow:visible;enable-background:accumulate"
           d="m -31.218882,979.27041 c -3.08341,-7.6381 -6.39727,-16.75399 -3.4946,-24.46249 1.45563,-3.8656 5.5567,-6.5728 9.4086,-8.06442 2.75873,-1.06829 8.87101,-0.269 8.87101,-0.269 0,0 21.1671097,13.88193 33.0645,17.74202 13.9343,4.52091 28.9091,5.37069 43.54838,5.91401 10.31662,0.38269 29.83872,-1.88182 30.91391,-1.88182 1.07532,0 -13.17197,6.72051 -13.17197,6.72051 0,0 -13.1291,6.78908 -19.3548,10.75261 -5.4129,3.44599 -11.77404,6.13279 -15.59143,11.29038 -3.94487,5.32969 -5.36147,12.27659 -6.4516,18.81729 -0.8544,5.1263 0,15.5913 0,15.5913 0,0 -16.5233,-8.3149 -24.19358,-13.4408 -12.93829027,-8.6465 -25.80949,-17.7804 -36.5591,-29.0323 -2.7487,-2.8772 -5.49972,-5.9876 -6.98932,-9.67738 z"
           id="path49946-0-7"
           inkscape:connector-curvature="0"
           sodipodi:nodetypes="aaacaascaaacaaa" />
        <path
           style="color:#000000;fill:#FF52A2;fill-opacity:1;fill-rule:nonzero;stroke:#4d4d4d;stroke-width:4.15467119000000020;stroke-linecap:butt;stroke-linejoin:miter;stroke-miterlimit:4;stroke-opacity:1;stroke-dasharray:none;stroke-dashoffset:0;marker:none;visibility:visible;display:inline;overflow:visible;enable-background:accumulate"
           d="m -77.181262,1123.5503 c -2.15162,3.3598 -2.1723,7.7213 -2.55964,11.6922 -0.86791,8.8987 1.75435,17.9554 0.56481,26.8169 -0.57465,4.281 -3.67981,12.4248 -3.67981,12.4248 0,0 -26.998578,-30.2922 -27.039758,-45.387 -0.0403,-15.0948 11.929398,-28.5771 22.835078,-38.9479 9.91213,-9.4259 25.1672,-11.1412 36.39783,-18.9496 9.46526,-6.5809 17.86479,-14.6955 25.6539,-23.1943 7.42044,-8.0965 15.9368797,-22.9281 19.8871597,-26.2688 3.95019,-3.3407 7.71002,-5.1758 14.184,-5.674 6.4738903,-0.4983 28.5378303,13.0455 32.4890003,26.4368 4.27106,14.4755 -4.05291,31.6976 -13.9812,43.0647 -8.61177,9.8599 -23.0744403,12.5847 -35.3834303,17.0421 -17.3502097,6.2829 -36.0241897,8.1555 -53.6914697,13.4821 -3.68858,1.1121 -5.2988,2.5406 -10.89749,3.8504 0,0 -3.70218,1.93 -4.77898,3.6116 z"
           id="path49923-7-2"
           inkscape:connector-curvature="0"
           sodipodi:nodetypes="aaaczaaacsaaaasa" />
      </g>
      <text
         sodipodi:linespacing="125%"
         id="text11162-0-6-0-2"
         y="725.68683"
         x="417.67215"
         style="font-size:11px;font-style:normal;font-variant:normal;font-weight:normal;font-stretch:normal;text-indent:0;text-align:start;text-decoration:none;line-height:125%;letter-spacing:0px;word-spacing:0px;text-transform:none;direction:ltr;block-progression:tb;writing-mode:lr-tb;text-anchor:start;baseline-shift:baseline;color:#000000;fill:#000000;fill-opacity:1;fill-rule:nonzero;stroke:none;stroke-width:1;marker:none;visibility:visible;display:inline;overflow:visible;enable-background:accumulate;font-family:Poppins;-inkscape-font-specification:Poppins"
         xml:space="preserve"><tspan
           id="tspan11695-61-7"
           y="725.68683"
           x="417.67215"
           sodipodi:role="line">Sacrum</tspan></text>
      <path
         style="color:#000000;fill:none;stroke:#4d4d4d;stroke-width:0.80000001;stroke-linecap:butt;stroke-linejoin:miter;stroke-miterlimit:4;stroke-opacity:1;stroke-dasharray:none;stroke-dashoffset:0;marker:none;visibility:visible;display:inline;overflow:visible;enable-background:accumulate"
         d="m 366.16246,732.89129 46.07707,-10.34681"
         id="path11804-6-0"
         inkscape:connector-curvature="0"
         sodipodi:nodetypes="cc" />
    </g>
  </g>
</svg>
