<?xml version="1.0" encoding="UTF-8" standalone="no"?>
<!-- Created with Inkscape (http://www.inkscape.org/) -->

<svg
   xmlns:dc="http://purl.org/dc/elements/1.1/"
   xmlns:cc="http://creativecommons.org/ns#"
   xmlns:rdf="http://www.w3.org/1999/02/22-rdf-syntax-ns#"
   xmlns:svg="http://www.w3.org/2000/svg"
   xmlns="http://www.w3.org/2000/svg"
   xmlns:sodipodi="http://sodipodi.sourceforge.net/DTD/sodipodi-0.dtd"
   xmlns:inkscape="http://www.inkscape.org/namespaces/inkscape"
   width="220"
   height="375"
   id="svg5704"
   version="1.1"
   inkscape:version="0.48.5 r10040"
   sodipodi:docname="Spine_green_t12.svg">
  <defs
     id="defs5706" />
  <sodipodi:namedview
     id="base"
     pagecolor="#ffffff"
     bordercolor="#666666"
     borderopacity="1.0"
     inkscape:pageopacity="0.0"
     inkscape:pageshadow="2"
     inkscape:zoom="2"
     inkscape:cx="178.57395"
     inkscape:cy="207.5593"
     inkscape:document-units="px"
     inkscape:current-layer="g12592-3-1"
     showgrid="false"
     inkscape:window-width="1280"
     inkscape:window-height="961"
     inkscape:window-x="-8"
     inkscape:window-y="-8"
     inkscape:window-maximized="1" />
  <metadata
     id="metadata5709">
    <rdf:RDF>
      <cc:Work
         rdf:about="">
        <dc:format>image/svg+xml</dc:format>
        <dc:type
           rdf:resource="http://purl.org/dc/dcmitype/StillImage" />
        <dc:title></dc:title>
      </cc:Work>
    </rdf:RDF>
  </metadata>
  <g
     inkscape:label="Capa 1"
     inkscape:groupmode="layer"
     id="layer1"
     transform="translate(0,-677.36218)">
    <g
       id="g6147"
       transform="translate(-249.00368,269.90451)">
      <g
         id="g12592-3-1"
         transform="matrix(0.2234221,0,0,0.2234221,368.51258,492.25391)"
         style="color:#000000;fill:#FF52A2;fill-opacity:1;fill-rule:nonzero;stroke:#4d4d4d;stroke-width:4.15467119;stroke-linecap:butt;stroke-linejoin:miter;stroke-miterlimit:4;stroke-opacity:1;stroke-dasharray:none;stroke-dashoffset:0;marker:none;visibility:visible;display:inline;overflow:visible;enable-background:accumulate">
        <path
           style="color:#000000;fill:#FF52A2;fill-opacity:1;fill-rule:nonzero;stroke:#4d4d4d;stroke-width:4.15467119;stroke-linecap:butt;stroke-linejoin:miter;stroke-miterlimit:4;stroke-opacity:1;stroke-dasharray:none;stroke-dashoffset:0;marker:none;visibility:visible;display:inline;overflow:visible;enable-background:accumulate"
           d="m -121.30527,712.49798 c 6.8429,-4.9421 30.793298,-22.8099 33.834698,-25.8512 3.0413,-3.0413 6.8429,-6.843 14.0661,-8.7438 7.2231,-1.9008 25.471,0 28.5123,2.6612 3.0414,2.6611 7.6033,13.3057 7.6033,13.3057 0,0 -1.9008,11.0248 -2.281,14.4463 -0.3801,3.4215 -7.9834,16.3471 -7.9834,16.3471 0,0 -10.2645,3.0413 -11.7851,1.1405 -1.5207,-1.9008 -8.3637,-10.2645 -11.405,-12.1653 -3.0413,-1.9008 -8.3636,-5.3223 -13.3058,-4.1818 -4.9421,1.1405 -7.2231,4.1818 -12.9256,6.4628 -5.702398,2.281 -5.026398,5.5259 -9.968598,5.9061 -4.9421,0.3801 -11.3206,-0.5838 -13.6016,-2.4846 -2.281,-1.9008 -0.7603,-6.843 -0.7603,-6.843 z"
           id="path11053-3-4"
           inkscape:connector-curvature="0"
           sodipodi:nodetypes="cssscscssssssc" />
        <path
           style="color:#000000;fill:#FF52A2;fill-opacity:1;fill-rule:nonzero;stroke:#4d4d4d;stroke-width:0.92824537;stroke-linecap:butt;stroke-linejoin:miter;stroke-miterlimit:4;stroke-opacity:1;stroke-dasharray:none;stroke-dashoffset:0;marker:none;visibility:visible;display:inline;overflow:visible;enable-background:accumulate"
           d="m 104.5,230.75 c 0.3692,0.36297 0.69477,0.77515 0.90625,1.25 0.43831,0.98415 0.0313,2.17992 0.15625,3.25 0.0734,0.62882 0.2305,1.22087 0.34375,1.84375 0.11325,0.62286 0.20226,1.25793 0.34375,1.875 0.23643,1.03107 0.70087,2.01436 0.84375,3.0625 0.23707,1.7393 -0.50866,3.56996 0,5.25 0.15774,0.52099 0.53823,0.94754 0.89299,1.38488 0.17748,0.21878 0.32739,0.44096 0.57576,0.55262 0.49114,0.22081 1.29154,-0.51612 1.9375,-0.875 1.72381,-0.6682 3.68272,-0.53021 5.53125,-0.5 0.51423,0.008 1.01944,0.0623 1.53125,0.125 -0.0486,-1.48438 -0.13107,-2.95727 -0.4375,-4.40625 -0.71616,-3.38654 -1.65341,-6.74884 -2.8125,-10.03125 -0.0913,-0.0356 -0.19044,-0.0571 -0.28125,-0.0937 -0.99403,-0.40077 -1.72498,-1.27862 -2.6875,-1.75 -1.02926,-0.50406 -2.1334,-0.86681 -3.25,-1.125 -2.1628,0.15561 -2.05265,-0.44315 -3.59375,0.18745 z"
           transform="matrix(4.475833,0,0,4.475833,-534.90187,-379.53381)"
           id="path11071-2-2"
           inkscape:connector-curvature="0"
           sodipodi:nodetypes="ccsccsscsccsccsscc" />
        <path
           style="color:#000000;fill:#FF52A2;fill-opacity:1;fill-rule:nonzero;stroke:#4d4d4d;stroke-width:0.92824537;stroke-linecap:butt;stroke-linejoin:miter;stroke-miterlimit:4;stroke-opacity:1;stroke-dasharray:none;stroke-dashoffset:0;marker:none;visibility:visible;display:inline;overflow:visible;enable-background:accumulate"
           d="m 105.84375,230.5625 c 0.38683,1.04264 0.93487,2.00137 1.25,2.78125 0.77259,1.91193 2.46875,5.6875 2.46875,5.6875 l 1.84375,3.90625 0.28125,4.53125 c 0,0 0.19358,0.39094 0.25,0.5 1.07428,-0.1705 2.21037,-0.18404 3.3125,-0.15625 l 0,-3.25 -0.84375,-1.75 -3.65625,-9.9375 -0.9375,-1.8125 c -0.56334,-0.20015 -1.13815,-0.36575 -1.71875,-0.5 -0.6808,-0.15742 -1.54109,0.0214 -2.25,0 z"
           transform="matrix(4.475833,0,0,4.475833,-534.90187,-379.53381)"
           id="path11104-9-6"
           inkscape:connector-curvature="0"
           sodipodi:nodetypes="cccccccccccsc" />
        <path
           style="color:#000000;fill:#FF52A2;fill-opacity:1;fill-rule:nonzero;stroke:#4d4d4d;stroke-width:0.92824537;stroke-linecap:butt;stroke-linejoin:miter;stroke-miterlimit:4;stroke-opacity:1;stroke-dasharray:none;stroke-dashoffset:0;marker:none;visibility:visible;display:inline;overflow:visible;enable-background:accumulate"
           d="m 106.71875,230.4375 c 0,0 1.8223,1.74552 2.5,2.875 0.72072,1.20121 0.24801,2.16404 0.96875,3.125 0.72072,0.96096 3.375,8.15625 3.375,8.15625 l 1.53125,3.21875 c 0.31243,0.008 0.62934,0.0263 0.9375,0.0312 1.00804,0.0165 2.01625,0.15442 3,0.375 1.35905,0.30477 2.55653,1.13137 3.9375,1.3125 3.26143,0.42781 6.6428,0.0168 9.875,-0.59375 2.18367,-0.41248 5.42142,-2.22229 7.00972,-2.56421 0.36648,-0.0789 0.58256,-0.0654 0.64653,-0.24829 0.12197,-0.34863 0.0106,-0.46759 -0.15625,-0.6875 -1.35412,-1.78447 -5.39453,-3.21875 -5.875,-3.21875 -0.48047,0 0.21875,-3.625 0.21875,-3.625 l 1.09375,-1.5 c 0,0 0.43165,-1.93543 0.53125,-2.5 0.1304,-0.73915 -0.40785,-1.52522 -0.65625,-2.125 -0.005,0.02 0.006,0.0424 0,0.0625 -0.25148,0.79985 -1.31367,1.06759 -2.09375,1.375 -2.87223,1.13192 -6.038,1.60053 -9.125,1.5625 -3.52942,-0.0435 -7.13265,-0.71132 -10.40625,-2.03125 -0.99403,-0.40077 -1.72498,-1.27862 -2.6875,-1.75 -1.02926,-0.50406 -2.1334,-0.86681 -3.25,-1.125 -0.57257,-0.15741 -1.375,-0.12495 -1.375,-0.12495 z"
           transform="matrix(4.475833,0,0,4.475833,-534.90187,-379.53381)"
           id="path11079-0-4"
           inkscape:connector-curvature="0"
           sodipodi:nodetypes="csccccccssscsccscscscscc" />
        <path
           style="color:#000000;fill:#FF52A2;fill-opacity:1;fill-rule:nonzero;stroke:#4d4d4d;stroke-width:4.15467119;stroke-linecap:butt;stroke-linejoin:miter;stroke-miterlimit:4;stroke-opacity:1;stroke-dasharray:none;stroke-dashoffset:0;marker:none;visibility:visible;display:inline;overflow:visible;enable-background:accumulate"
           d="m -45.349172,674.36918 c -4.389,1.6571 -9.2564,3.839 -11.6761,7.8581 -1.5966,2.652 -1.7876,6.2473 -0.9775,9.2349 1.3298,4.9036 5.0725,9.0993 9.042,12.2705 3.6679,2.9303 8.4151,4.2678 12.9032,5.6451 4.7045,1.4438 10.7527,0 14.5161,2.6882 3.7635,2.6882 11.8308003,8.9981 18.6057003,11.8606 6.4544,2.727 13.4942997,4.05 20.4571997,4.8331 14.3519,1.614 29.1419,2.3732 43.3257,-0.3475 8.3237,-1.5967 23.6964,-9.2185 23.6964,-9.2185 0,0 9.4086,-3.4946 6.1828,-8.871 -3.2258,-5.3763 -6.5455,-7.4075 -8.6888,-11.7954 -2.5178,-5.1546 -2.6188,-11.2053 -4.6542,-16.5687 -0.6937,-1.8278 -0.7882,-4.4495 -2.5594,-5.2769 -2.3526,-1.099 -2.2486,0.9226 -7.2409,2.2797 -4.9922,1.3571 -15.1496,4.465 -22.8538,5.2511 -13.6086,1.3886 -27.4236,-0.057 -41.0017997,-1.7163 -8.8963,-1.087 -20.4302003,-4.3011 -26.3441003,-5.3763 -5.914,-1.0753 -8.4139,-3.6425 -12.9033,-4.0323 -3.2917,-0.2859 -6.7381,0.1144 -9.8292,1.2816 z"
           id="path49944-0-5"
           inkscape:connector-curvature="0"
           sodipodi:nodetypes="aaaaasaaacsaaszsacaa" />
      </g>
      <g
         transform="matrix(0.22340209,0,0,0.22340209,234.91154,492.27946)"
         id="g12455-4-2">
        <text
           xml:space="preserve"
           style="font-size:49.23857116999999300px;font-style:normal;font-variant:normal;font-weight:normal;font-stretch:normal;text-indent:0;text-align:start;text-decoration:none;line-height:125%;letter-spacing:0px;word-spacing:0px;text-transform:none;direction:ltr;block-progression:tb;writing-mode:lr-tb;text-anchor:start;baseline-shift:baseline;color:#000000;fill:#000000;fill-opacity:1;fill-rule:nonzero;stroke:none;marker:none;visibility:visible;display:inline;overflow:visible;enable-background:accumulate;font-family:Poppins;-inkscape-font-specification:Poppins"
           x="816.89819"
           y="730.08063"
           id="text11162-14-19-8-8"
           sodipodi:linespacing="125%"><tspan
             sodipodi:role="line"
             id="tspan11164-2-86-5-9"
             x="816.89819"
             y="730.08063">L1</tspan></text>
        <path
           style="color:#000000;fill:none;stroke:#4d4d4d;stroke-width:3.58098722;stroke-linecap:butt;stroke-linejoin:miter;stroke-miterlimit:4;stroke-opacity:1;stroke-dasharray:none;stroke-dashoffset:0;marker:none;visibility:visible;display:inline;overflow:visible;enable-background:accumulate"
           d="m 668.57143,694.50504 125.19014,17.72233"
           id="path11812-9-0"
           inkscape:connector-curvature="0"
           sodipodi:nodetypes="cc" />
      </g>
    </g>
  </g>
</svg>
