<?xml version="1.0" encoding="UTF-8" standalone="no"?>
<!-- Created with Inkscape (http://www.inkscape.org/) -->

<svg
   xmlns:dc="http://purl.org/dc/elements/1.1/"
   xmlns:cc="http://creativecommons.org/ns#"
   xmlns:rdf="http://www.w3.org/1999/02/22-rdf-syntax-ns#"
   xmlns:svg="http://www.w3.org/2000/svg"
   xmlns="http://www.w3.org/2000/svg"
   xmlns:sodipodi="http://sodipodi.sourceforge.net/DTD/sodipodi-0.dtd"
   xmlns:inkscape="http://www.inkscape.org/namespaces/inkscape"
   width="220"
   height="375"
   id="svg5704"
   version="1.1"
   inkscape:version="0.48.5 r10040"
   sodipodi:docname="Spine_green_cervical.svg">
  <defs
     id="defs5706">
    <inkscape:path-effect
       effect="spiro"
       id="path-effect3941"
       is_visible="true" />
  </defs>
  <sodipodi:namedview
     id="base"
     pagecolor="#ffffff"
     bordercolor="#666666"
     borderopacity="1.0"
     inkscape:pageopacity="0.0"
     inkscape:pageshadow="2"
     inkscape:zoom="2.0327869"
     inkscape:cx="135.25931"
     inkscape:cy="216.97834"
     inkscape:document-units="px"
     inkscape:current-layer="g12592-3-1"
     showgrid="false"
     inkscape:window-width="1280"
     inkscape:window-height="961"
     inkscape:window-x="-8"
     inkscape:window-y="-8"
     inkscape:window-maximized="1" />
  <metadata
     id="metadata5709">
    <rdf:RDF>
      <cc:Work
         rdf:about="">
        <dc:format>image/svg+xml</dc:format>
        <dc:type
           rdf:resource="http://purl.org/dc/dcmitype/StillImage" />
        <dc:title></dc:title>
      </cc:Work>
    </rdf:RDF>
  </metadata>
  <g
     inkscape:label="Capa 1"
     inkscape:groupmode="layer"
     id="layer1"
     transform="translate(0,-677.36218)">
    <g
       id="g6147"
       transform="translate(-249.00368,269.90451)">
      <g
         id="g12592-3-1"
         transform="matrix(0.2234221,0,0,0.2234221,368.51258,492.25391)"
         style="color:#000000;fill:#FF52A2;fill-opacity:1;fill-rule:nonzero;stroke:#4d4d4d;stroke-width:4.15467119;stroke-linecap:butt;stroke-linejoin:miter;stroke-miterlimit:4;stroke-opacity:1;stroke-dasharray:none;stroke-dashoffset:0;marker:none;visibility:visible;display:inline;overflow:visible;enable-background:accumulate">
        <path
           style="color:#000000;fill:#FF52A2;fill-opacity:1;fill-rule:nonzero;stroke:#4d4d4d;stroke-width:4.15467119;stroke-linecap:butt;stroke-linejoin:miter;stroke-miterlimit:4;stroke-opacity:1;stroke-dasharray:none;stroke-dashoffset:0;marker:none;visibility:visible;display:inline;overflow:visible;enable-background:accumulate"
           d="m -207.02525,259.37788 c 0.5899,4.58712 7.2598,5.79637 11.2903,8.06451 2.3789,1.33868 4.8208,2.8679 7.5269,3.22581 3.7688,0.49847 7.7371,-0.26121 11.29028,-1.61291 4.2459,-1.6152 7.1745,-5.76374 11.3611,-7.52688 4.7083,-1.98281 9.8745,-3.17248 14.983,-3.2258 5.6583,-0.0591 11.0338,2.6857 16.6667,3.2258 4.995,0.47895 15.0537,0 15.0537,0 0,0 -1.0753,-4.83871 -2.1505,-11.82795 -1.0753,-6.98925 -1.0753,-18.27957 -1.0753,-18.27957 0,0 -12.7443,0.42516 -18.8172,2.15053 -6.4778,1.84042 -11.8661,6.54882 -18.2796,8.60215 -5.7247,1.83282 -11.8576,1.99822 -17.7419,3.22581 -4.71908,0.98451 -9.50838,1.77744 -14.07628,3.31805 -3.6842,1.24256 -7.4508,2.5439 -10.6549,4.74647 -1.0443,0.71786 -1.8336,1.75243 -2.6882,2.68817 -0.9438,1.03356 -2.8667,1.83755 -2.6881,3.22581 z"
           id="path11037-0-7"
           inkscape:connector-curvature="0"
           sodipodi:nodetypes="aaaaaaacscaaaaaaa" />
        <path
           style="color:#000000;fill:#FF52A2;fill-opacity:1;fill-rule:nonzero;stroke:#4d4d4d;stroke-width:4.15467119;stroke-linecap:butt;stroke-linejoin:miter;stroke-miterlimit:4;stroke-opacity:1;stroke-dasharray:none;stroke-dashoffset:0;marker:none;visibility:visible;display:inline;overflow:visible;enable-background:accumulate"
           d="m -194.12205,206.15207 c 8.9581,-8.10697 22.64818,-8.42873 33.87098,-12.90323 6.4922,-2.58846 12.6858,-5.97326 19.3548,-8.06451 6.4733,-2.02986 12.3656,-4.30108 19.8925,-4.30108 7.5269,0 24.193498,1.61291 27.956998,5.91398 3.7634,4.30108 6.9892,13.9785 6.9892,16.12903 0,2.15054 -6.4516,9.67742 -10.7527,10.75269 -4.300998,1.07527 -27.419298,1.07527 -30.107498,1.07527 -2.6882,0 -17.5979,-1.34285 -26.3441,-0.53763 -5.2848,0.48655 -10.3825,2.20892 -15.5914,3.2258 -4.693,0.91617 -9.344,2.98929 -14.10888,2.59034 -3.5643,-0.29843 -6.8304,-2.18151 -10.0846,-3.66561 -1.6788,-0.76559 -4.2934,-0.9255 -4.8387,-2.68817 -0.8291,-2.6798 1.6836,-5.64464 3.7634,-7.52688 z"
           id="path11035-0-4"
           inkscape:connector-curvature="0"
           sodipodi:nodetypes="aaasssssaaaaaa" />
        <path
           style="color:#000000;fill:#FF52A2;fill-opacity:1;fill-rule:nonzero;stroke:#4d4d4d;stroke-width:4.15467119;stroke-linecap:butt;stroke-linejoin:miter;stroke-miterlimit:4;stroke-opacity:1;stroke-dasharray:none;stroke-dashoffset:0;marker:none;visibility:visible;display:inline;overflow:visible;enable-background:accumulate"
           d="m -180.68115,155.0768 c 4.38578,-10.79157 19.61398,-12.6843 30.10748,-17.74193 8.125,-3.91608 16.5155,-7.50237 25.2688,-9.67742 7.1837,-1.78501 14.6858,-3.50174 22.043,-2.68818 8.507298,0.94072 21.505398,1.61291 24.193598,8.60216 2.6881,6.98924 16.6666,2.68817 2.6881,12.36559 -13.9785,9.67742 -15.6552,11.5162 -24.731098,14.51613 -6.3325,2.09312 -13.2702,2.94188 -19.8925,2.15053 -4.7282,-0.56499 -8.6985,-4.40976 -13.4409,-4.83871 -5.4283,-0.49098 -10.7507,1.80391 -16.129,2.68818 -6.6285,1.0898 -13.192,3.70275 -19.8925,3.2258 -2.9965,-0.21329 -6.5172,-0.52538 -8.6021,-2.68817 -1.41818,-1.47107 -2.38228,-4.02101 -1.61288,-5.91398 z"
           id="path11033-4-0"
           inkscape:connector-curvature="0"
           sodipodi:nodetypes="aaaassaaaaaaa" />
        <path
           style="color:#000000;fill:#FF52A2;fill-opacity:1;fill-rule:nonzero;stroke:#4d4d4d;stroke-width:4.15467119;stroke-linecap:butt;stroke-linejoin:miter;stroke-miterlimit:4;stroke-opacity:1;stroke-dasharray:none;stroke-dashoffset:0;marker:none;visibility:visible;display:inline;overflow:visible;enable-background:accumulate"
           d="m -145.72807,662.31618 c 1.416,-4.1162 9.527,-2.5769 13.8212,-4.9158 6.5832,-3.5855 11.8469,-9.189 17.8247,-13.7122 5.4165,-4.0985 10.1536,-9.3768 16.347098,-12.1653 5.0763,-2.2855 10.7901,-3.756 16.3471,-3.4215 8.2802,0.4985 18.0955,1.7515 23.5702,7.9835 2.1323,2.4272 3.148,6.5237 1.9008,9.5041 -1.8723,4.4743 -7.5971,6.3531 -12.1652,7.9834 -6.8404,2.4415 -14.7956,-0.065 -21.6694,2.281 -6.6234,2.2603 -11.237198,8.7859 -17.867798,11.0248 -6.7976,2.2953 -14.2461,2.2388 -21.4197,2.1156 -4.7168,-0.081 -10.1313,0.7854 -14.0279,-1.8738 -1.512,-1.0318 -3.4958,-2.3774 -2.6611,-4.8038 z"
           id="path11051-1-8"
           inkscape:connector-curvature="0"
           sodipodi:nodetypes="saaaaaaaaaaas" />
        <path
           style="color:#000000;fill:#FF52A2;fill-opacity:1;fill-rule:nonzero;stroke:#4d4d4d;stroke-width:0.92824537;stroke-linecap:butt;stroke-linejoin:miter;stroke-miterlimit:4;stroke-opacity:1;stroke-dasharray:none;stroke-dashoffset:0;marker:none;visibility:visible;display:inline;overflow:visible;enable-background:accumulate"
           d="m 107.25,84.625 c -0.14936,1.054252 -0.19454,2.139229 -0.5,3.15625 -0.50286,1.674164 -1.41495,3.181937 -2.1875,4.75 -0.64924,1.317723 -1.55053,2.529376 -2.0625,3.90625 -0.34465,0.926907 -0.41147,1.948115 -0.65625,2.90625 -0.42166,1.65045 -0.9335,3.261 -1.375,4.90625 -0.34883,1.29996 -0.650009,2.6066 -1,3.90625 -0.2751,1.02145 -0.680087,2.02277 -0.875,3.0625 -0.104852,0.55933 0.09961,1.21044 -0.15625,1.71875 -0.756954,1.50382 -2.894003,1.92527 -3.75,3.375 -0.621471,1.05258 -0.672385,2.38346 -0.84375,3.59375 -0.166896,1.17871 -0.0823,2.37433 -0.15625,3.5625 -0.04589,0.73687 0.04598,1.48709 -0.1875,2.1875 -0.700406,2.10123 -2.593094,3.63352 -3.5625,5.625 -0.446777,0.91785 -0.827652,1.86883 -1,2.875 -0.17208,1.00462 0,2.04325 0,3.0625 0,1.64212 0.292996,3.32173 0,4.9375 -0.172638,0.95208 -0.834862,1.77128 -1.03125,2.71875 -0.230125,1.11031 -0.12792,2.24144 -0.15625,3.375 -0.01832,0.73589 0.264621,1.53184 0,2.21875 -0.576474,1.49639 -2.513668,2.13795 -3.25,3.5625 -0.719106,1.39131 -0.769495,3.04464 -1,4.59375 -0.108673,0.73026 -0.175189,1.48055 -0.1875,2.21875 -0.02167,1.30342 0.173648,2.60272 0.1875,3.90625 0.02706,2.5486 -0.324391,5.07993 -0.1875,7.625 0.07056,1.31151 0.275371,2.6122 0.5,3.90625 0.227958,1.31315 0.614177,2.59923 0.875,3.90625 0.123888,0.62085 0.2,1.25845 0.34375,1.875 0.09361,0.40146 0.292213,0.77576 0.3125,1.1875 0.03114,0.63232 -0.255639,1.24447 -0.3125,1.875 -0.06611,0.73315 -0.209212,1.51298 0,2.21875 0.383906,1.29501 1.769701,2.09053 2.1875,3.375 0.333256,1.02452 0.159192,2.17301 0.1875,3.25 0.01944,0.73587 0.08034,1.45577 0,2.1875 -0.05695,0.51894 -0.310371,1.01026 -0.34375,1.53125 -0.04001,0.62416 -0.123832,1.31578 0.15625,1.875 0.341143,0.68115 1.35665,0.86099 1.71875,1.53125 0.708002,1.31055 -0.296891,3.26157 0.65625,4.40625 0.882361,1.05964 3.054833,0.29035 3.90625,1.375 0.737561,0.9396 0.287068,2.36934 0.34375,3.5625 0.05105,1.07466 -0.247194,2.17166 0,3.21875 0.145448,0.61615 0.525999,1.17119 0.84375,1.71875 0.409913,0.70633 0.889347,1.37469 1.375,2.03125 0.957185,1.29404 2.353314,2.27383 3.0625,3.71875 0.665708,1.3564 0.47002,3.02257 1,4.4375 0.33764,0.90146 0.80192,1.75781 1.375,2.53125 1.09651,1.47986 3.15691,2.22373 3.90625,3.90625 0.43831,0.98415 0.0313,2.17992 0.15625,3.25 0.0331,0.28382 0.10075,0.5687 0.15625,0.84375 0.68912,0.0329 1.38508,0.11769 2,0.21875 0.50775,-0.34736 1.08946,-0.62976 1.65625,-0.84375 0.69062,-0.26078 1.45206,-0.34513 2.1875,-0.28125 1.00303,0.0871 1.58493,0.666 2.90625,0.90625 0.18388,0.0334 0.52246,0.10688 0.75,0.15625 -1.39011,-4.46331 -3.18903,-8.81756 -5.40625,-12.90625 -1.52242,-2.80743 -4.08595,-4.94969 -5.78125,-7.65625 -1.58627,-2.53249 -2.85964,-5.23327 -4.0625,-7.96875 -2.286278,-5.19926 -4.486105,-10.4776 -5.9375,-15.96875 -0.996731,-3.77104 -1.532203,-7.67705 -1.875,-11.5625 -0.318533,-3.61041 -0.301021,-7.25234 -0.1875,-10.875 0.09071,-2.89531 0.216683,-5.79803 0.6875,-8.65625 1.110855,-6.74374 3.506886,-13.21253 5.03125,-19.875 1.598406,-6.9861 2.158666,-14.22719 4.3125,-21.0625 1.11282,-3.53158 2.95611,-6.78052 4.40625,-10.1875 3.17565,-7.4609 6.70898,-14.780588 9.78125,-22.28125 -0.0205,-0.01075 -0.0421,-0.02039 -0.0625,-0.03125 -0.74228,-0.394765 -1.7147,-0.783074 -1.9375,-1.59375 -0.0405,-0.147234 -0.22698,-0.170097 -0.21568,-0.314516 -0.70675,0.206586 -1.25962,0.252016 -1.69052,0.252016 -1.08109,0 -2.93718,-0.117997 -4.3125,-0.59375 -0.24991,-0.08645 -0.4932,-0.203381 -0.71875,-0.34375 z"
           transform="matrix(4.475833,0,0,4.475833,-534.90187,-379.53381)"
           id="path11071-2-2"
           inkscape:connector-curvature="0"
           sodipodi:nodetypes="cccssscsscsccssssccscccscssccscscccsscssccsccsscccccccssssssssssccccsscc" />
        <path
           style="color:#000000;fill:#FF52A2;fill-opacity:1;fill-rule:nonzero;stroke:#4d4d4d;stroke-width:4.15467119;stroke-linecap:butt;stroke-linejoin:miter;stroke-miterlimit:4;stroke-opacity:1;stroke-dasharray:none;stroke-dashoffset:0;marker:none;visibility:visible;display:inline;overflow:visible;enable-background:accumulate"
           d="m -192.77625,491.43208 c 0.015,-7.52901 13.82148,-18.15132 20.14868,-23.38014 6.3273,-5.22882 9.8843,-6.84297 11.7851,-7.6033 1.9009,-0.76033 11.0248,-3.80165 19.0083,-4.56198 7.9834,-0.76033 23.19,11.40495 27.752,15.96693 4.562,4.56198 6.0827,13.30577 3.0413,15.96692 -3.0413,2.66116 -19.7685,6.08264 -24.7107,6.08264 -4.9421,0 -14.4462,-1.90082 -17.1074,-3.04132 -2.6612,-1.1405 -9.5041,-2.28099 -12.5455,-0.38016 -3.0413,1.90083 -10.6446,9.88429 -14.4462,10.64462 -3.80168,0.76033 -5.51238,-1.52066 -7.79338,-3.04132 -2.281,-1.52066 -5.1478,0.87612 -5.1322,-6.65289 z"
           id="path11045-9-4"
           inkscape:connector-curvature="0"
           sodipodi:nodetypes="zzzssszzzzzz" />
        <path
           style="color:#000000;fill:#FF52A2;fill-opacity:1;fill-rule:nonzero;stroke:#4d4d4d;stroke-width:4.15467119;stroke-linecap:butt;stroke-linejoin:miter;stroke-miterlimit:4;stroke-opacity:1;stroke-dasharray:none;stroke-dashoffset:0;marker:none;visibility:visible;display:inline;overflow:visible;enable-background:accumulate"
           d="m -195.72255,425.47347 c 5.3199,-3.62027 11.8465,-5.2871 17.01238,-9.12396 3.309,-2.45771 5.0927,-6.83081 8.7438,-8.7438 5.0198,-2.63017 11.0776,-3.48744 16.7272,-3.04132 7.6311,0.60259 20.1488,1.52066 21.6694,7.6033 1.5207,6.08264 4.1818,12.92561 1.1405,16.72726 -3.0413,3.80165 -5.1781,7.76375 -9.314,8.45867 -8.0201,1.34752 -14.4796,-7.88646 -22.4297,-9.59916 -3.0977,-0.66733 -6.4592,-1.06666 -9.5042,-0.19009 -4.5512,1.31017 -7.7855,5.41328 -11.88008,7.79338 -2.7684,1.60919 -5.4406,3.62244 -8.5537,4.3719 -2.1253,0.51164 -4.5961,0.96429 -6.5579,0 -2.5135,-1.23553 -4.2285,-4.00188 -5.1322,-6.65289 -0.082,-0.23989 -0.1066,-0.53038 0,-0.76033 1.484,-3.20188 5.1609,-4.85751 8.0785,-6.84296 z"
           id="path11043-0-5"
           inkscape:connector-curvature="0"
           sodipodi:nodetypes="aaaassaaaaaaaaa" />
        <path
           style="color:#000000;fill:#FF52A2;fill-opacity:1;fill-rule:nonzero;stroke:#4d4d4d;stroke-width:4.15467119;stroke-linecap:butt;stroke-linejoin:miter;stroke-miterlimit:4;stroke-opacity:1;stroke-dasharray:none;stroke-dashoffset:0;marker:none;visibility:visible;display:inline;overflow:visible;enable-background:accumulate"
           d="m -209.88365,379.85367 c 1.0315,-7.31014 11.2277,-9.6016 17.1074,-14.0661 6.1597,-4.67714 14.44618,-10.26445 19.00818,-13.30577 4.562,-3.04132 13.3058,-6.4628 19.7686,-5.70247 6.4628,0.76032 21.2892,7.60329 22.8099,11.02478 1.5207,3.42148 1.9008,9.12396 -1.1405,12.16528 -3.0413,3.04132 -9.8843,5.3223 -11.7851,7.98346 -1.9008,2.66115 -3.4215,7.98346 -6.4628,7.98346 -3.0413,0 -7.3872,-0.0253 -10.6446,-1.52066 -3.6727,-1.686 -5.0857,-7.83129 -9.124,-7.98346 -3.1658,-0.11929 -5.1271,3.72634 -7.6033,5.70247 -4.28658,3.42093 -7.23038,9.29252 -12.54538,10.64462 -3.0108,0.76591 -6.3909,-0.42399 -9.124,-1.90082 -2.6803,-1.44829 -4.2462,-4.37275 -6.4628,-6.46281 -0.5551,-0.52342 -1.2058,-0.94868 -1.7107,-1.52066 -0.8142,-0.92229 -2.2628,-1.82314 -2.0909,-3.04132 z"
           id="path11041-3-5"
           inkscape:connector-curvature="0"
           sodipodi:nodetypes="aassssssaaaaaaaa" />
        <path
           style="color:#000000;fill:#FF52A2;fill-opacity:1;fill-rule:nonzero;stroke:#4d4d4d;stroke-width:4.15467119;stroke-linecap:butt;stroke-linejoin:miter;stroke-miterlimit:4;stroke-opacity:1;stroke-dasharray:none;stroke-dashoffset:0;marker:none;visibility:visible;display:inline;overflow:visible;enable-background:accumulate"
           d="m -208.74325,316.36613 c 4.6785,-7.95117 14.4169,-11.5455 22.0496,-16.72725 5.2684,-3.5766 10.49468,-7.37506 16.34708,-9.88429 5.3118,-2.27742 10.9485,-4.47702 16.7273,-4.56198 11.3401,-0.16673 31.9338,4.94214 33.0743,7.98346 1.1405,3.04132 3.4215,18.24792 0.7603,20.90907 -2.6611,2.66116 -23.19,8.7438 -23.19,8.7438 0,0 -5.2766,3.96426 -8.3636,4.94214 -3.0298,0.95974 -6.57,1.98142 -9.5042,0.76033 -3.9847,-1.65825 -4.479,-8.00337 -8.3636,-9.88429 -3.4235,-1.65769 -7.7228,-1.3343 -11.40488,-0.38016 -4.2917,1.11209 -7.1488,5.60192 -11.405,6.84297 -4.5029,1.31298 -9.756,2.23034 -14.0661,0.38016 -1.5666,-0.6725 -2.9251,-2.17066 -3.4215,-3.80165 -0.5218,-1.71446 -0.1485,-3.77774 0.7603,-5.32231 z"
           id="path11039-8-1"
           inkscape:connector-curvature="0"
           sodipodi:nodetypes="aaaasscaaaaaaaa" />
        <path
           style="color:#000000;fill:#FF52A2;fill-opacity:1;fill-rule:nonzero;stroke:#4d4d4d;stroke-width:4.15467119;stroke-linecap:butt;stroke-linejoin:miter;stroke-miterlimit:4;stroke-opacity:1;stroke-dasharray:none;stroke-dashoffset:0;marker:none;visibility:visible;display:inline;overflow:visible;enable-background:accumulate"
           d="m -148.42317,47.549918 c 2.9857,-3.51868 11.4685,-3.06307 15.7937,-4.74131 7.9377,-3.07991 12.6943,-6.98103 20.2278,-10.85009 7.4364,-3.81919 13.816398,-9.6221 21.505398,-12.90322 5.6381,-2.40595 11.6148,-4.65404 17.7419,-4.83871 12.261,-0.36954 36.0215,7.52688 36.0215,7.52688 0,0 0.5377,11.29032 -5.3763,13.44086 -5.914,2.15054 -11.7512,2.9511 -17.7419,3.76344 -5.8711,0.79612 -11.8515,0.43802 -17.742,1.07527 -5.7706,0.62429 -11.6197,1.10622 -17.2043,2.68817 -5.796198,1.64189 -11.041198,4.83378 -16.666598,6.98925 -4.0752,1.56146 -8.0625,3.57407 -12.3656,4.30107 -6.1848,1.04491 -12.6258,1.00472 -18.8172,0 -2.2376,-0.36311 -5.3608,-0.16338 -6.4516,-2.15053 -0.7112,-1.29546 0.1191,-3.17426 1.0752,-4.30108 z"
           id="path11029-8-7"
           inkscape:connector-curvature="0"
           sodipodi:nodetypes="sssaacsaaaaaaas" />
        <path
           style="color:#000000;fill:#FF52A2;fill-opacity:1;fill-rule:nonzero;stroke:#4d4d4d;stroke-width:4.15467119;stroke-linecap:butt;stroke-linejoin:miter;stroke-miterlimit:4;stroke-opacity:1;stroke-dasharray:none;stroke-dashoffset:0;marker:none;visibility:visible;display:inline;overflow:visible;enable-background:accumulate"
           d="m -173.69197,102.38863 c 0.7235,-3.323262 6.3907,-1.60462 10.257,-1.95121 4.193,-0.37589 6.7031,-2.712032 10.1731,-3.962772 8.4566,-3.04815 16.5646,-6.99604 24.7312,-10.75269 6.335,-2.91413 12.2964,-6.6693 18.8172,-9.13978 7.4816,-2.83448 15.119298,-6.60922 23.118298,-6.45162 11.106,0.21882 30.1075,8.06452 31.7204,10.21506 1.6129,2.15054 -2.6882,8.60215 -7.5269,11.82796 -4.8387,3.2258 -13.8494,6.40824 -20.9677,9.139782 -5.8201,2.23337 -11.5886,4.91542 -17.741898,5.91398 -5.8377,0.94732 -11.8385,-0.35294 -17.742,0 -4.5044,0.2693 -8.994,0.84612 -13.4408,1.6129 -5.6126,0.96781 -10.9821,3.41303 -16.6667,3.76344 -4.481,0.27622 -9.1928,0.22926 -13.4027,-1.33058 -2.0512,-0.76004 -3.649,-2.42117 -5.3763,-3.76344 -2.0667,-1.60597 -6.5089,-2.5636 -5.9522,-5.12103 z"
           id="path11031-5-1"
           inkscape:connector-curvature="0"
           sodipodi:nodetypes="sssaaassaaaaaaas" />
        <path
           style="color:#000000;fill:#FF52A2;fill-opacity:1;fill-rule:nonzero;stroke:#4d4d4d;stroke-width:4.15467119;stroke-linecap:butt;stroke-linejoin:miter;stroke-miterlimit:4;stroke-opacity:1;stroke-dasharray:none;stroke-dashoffset:0;marker:none;visibility:visible;display:inline;overflow:visible;enable-background:accumulate"
           d="m -165.97237,605.42198 c 6.5245,-2.9601 13.2313,-5.5467 19.5762,-8.8743 7.1981,-3.775 13.7238,-8.74595 20.9091,-12.54544 1.6039,-0.84815 3.2496,-1.62731 4.9421,-2.28099 8.9513,-3.45713 18.6823,-12.51184 27.460898,-8.63709 5.716,2.52299 3.0478,13.05749 7.8944,17.00072 4.7449,3.8604 15.7261,-1.54788 17.8678,4.1818 0.9851,2.6356 -2.6122,5.2656 -4.9421,6.843 -5.1919,3.515 -12.0654,3.5197 -18.248,4.562 -7.0255,1.1844 -14.181198,1.4144 -21.289198,1.9008 -5.3159,0.3637 -10.7712,-0.4209 -15.9669,0.7603 -6.0359,1.3723 -11.1519,5.5359 -17.1074,7.2232 -4.811,1.363 -9.938,3.3324 -14.8265,2.2809 -2.9552,-0.6356 -5.3721,-2.9027 -7.6033,-4.9421 -1.5839,-1.4478 -4.4867,-2.9766 -3.9782,-5.0614 0.4607,-1.8889 3.5405,-1.6082 5.3111,-2.4114 z"
           id="path11049-7-1"
           inkscape:connector-curvature="0"
           sodipodi:nodetypes="aaaaaaaaaaaaaaaa" />
        <path
           style="color:#000000;fill:#FF52A2;fill-opacity:1;fill-rule:nonzero;stroke:#4d4d4d;stroke-width:4.15467119;stroke-linecap:butt;stroke-linejoin:miter;stroke-miterlimit:4;stroke-opacity:1;stroke-dasharray:none;stroke-dashoffset:0;marker:none;visibility:visible;display:inline;overflow:visible;enable-background:accumulate"
           d="m -176.17157,549.96397 c 2.1519,-6.3681 11.0058,-7.95513 15.3291,-13.10218 4.1655,-4.95915 5.5585,-11.90732 9.8843,-16.72726 4.596,-5.12101 9.8667,-10.66621 16.5372,-12.35536 4.6559,-1.17902 9.886,0.0985 14.2562,2.09091 9.7299,4.43614 23.570198,17.48759 24.330498,20.90907 0.7604,3.42148 -1.9008,11.78511 -5.702398,13.30577 -3.8017,1.52066 -13.754,4.63396 -20.9091,4.94215 -4.3509,0.1874 -8.5969,-2.37703 -12.9256,-1.90083 -5.9894,0.65888 -11.4353,3.88389 -16.8847,6.4549 -5.3799,2.53816 -9.6004,9.4227 -15.5176,8.81296 -3.1197,-0.32146 -5.4753,-3.51174 -7.0617,-6.21703 -1.0716,-1.82735 -2.0144,-4.2062 -1.3362,-6.2131 z"
           id="path11047-8-7"
           inkscape:connector-curvature="0"
           sodipodi:nodetypes="aaaaassaaaaaa" />
        <path
           style="color:#000000;fill:#FF52A2;fill-opacity:1;fill-rule:nonzero;stroke:#4d4d4d;stroke-width:0.92824537;stroke-linecap:butt;stroke-linejoin:miter;stroke-miterlimit:4;stroke-opacity:1;stroke-dasharray:none;stroke-dashoffset:0;marker:none;visibility:visible;display:inline;overflow:visible;enable-background:accumulate"
           d="m 108.46875,94.5625 -1.1875,3.9375 c 0,0 -1.50644,5.43132 -2.71875,7.96875 -0.54834,1.14771 -1.6666,2.00996 -2.0625,3.21875 -0.51193,1.56301 0.12034,3.35076 -0.3125,4.9375 -0.63327,2.32152 -2.279008,4.26701 -3.25,6.46875 -1.272947,2.88645 -2.332602,5.83501 -3.375,8.8125 -0.465969,1.33097 -0.956394,2.65899 -1.28125,4.03125 -1.113134,4.70241 -1.422364,9.56283 -2.3125,14.3125 -0.802309,4.28108 -2.147453,8.46752 -2.75,12.78125 -0.453748,3.24836 -0.538781,6.53373 -0.625,9.8125 -0.110102,4.18809 -0.284361,8.3962 0.15625,12.5625 0.273335,2.58446 0.976091,5.11736 1.53125,7.65625 0.733741,3.35567 1.098969,6.84211 2.375,10.03125 0.876798,2.19134 2.557503,3.98941 3.5625,6.125 1.680312,3.57064 2.808447,8.1167 4.09375,11.09375 0.65972,1.52807 2.74911,3.46431 3.5625,5.5 1.18501,2.96568 1,3.59375 1,3.59375 0,0 1.42799,3.98057 2.21875,5.9375 0.28737,0.71115 0.71708,1.72215 1.125,2.65625 0.3781,-0.19902 0.77159,-0.38602 1.15625,-0.53125 0.17266,-0.0652 0.35045,-0.11219 0.53125,-0.15625 0.34157,-0.0832 0.71023,-0.14555 1.0625,-0.15625 0.0205,-4.5e-4 0.042,2.1e-4 0.0625,0 0.1864,-0.003 0.34739,0.0153 0.53125,0.0312 0.011,9.6e-4 0.0203,-0.001 0.0312,0 l -0.84375,-2.3125 -3.1875,-6.25 c 0,0 -1.14751,-7.66587 -3.75,-13.5 -0.30117,-0.67518 -3.23833,-2.61536 -3.5,-3.1875 -1.358987,-2.97144 -3.655926,-5.79985 -4.84375,-8.84375 -0.321616,-0.82419 0.303452,-2.72911 0,-3.5625 -1.097717,-3.01416 -2.387718,-5.00964 -2.96875,-8.15625 -0.219378,-1.18801 -0.03747,-2.39431 -0.1875,-3.59375 -0.405221,-3.23928 -1.378742,-6.97964 -1.53125,-10.25 -0.05635,-1.20826 0.521017,-1.95088 0.53125,-3.15625 0.03329,-3.92216 1.578936,-7.31385 2.21875,-11 0.659788,-3.80116 0.812742,-7.67285 1.65625,-11.4375 0.968736,-4.32345 3.212688,-8.33788 3.875,-12.71875 0.575446,-3.80615 -0.866199,-7.8268 0.0625,-11.5625 0.91069,-3.66321 4.07694,-6.4122 5.25,-10 0.83589,-2.55654 0.3574,-5.44157 1.1875,-8 0.98493,-3.0357 4.4375,-8.5 4.4375,-8.5 z"
           transform="matrix(4.475833,0,0,4.475833,-534.90187,-379.53381)"
           id="path11104-9-6"
           inkscape:connector-curvature="0"
           sodipodi:nodetypes="ccssssscssssssssscscsscccccccsscscsssssssscc" />
        <path
           style="color:#000000;fill:#FF52A2;fill-opacity:1;fill-rule:nonzero;stroke:#4d4d4d;stroke-width:0.92824537;stroke-linecap:butt;stroke-linejoin:miter;stroke-miterlimit:4;stroke-opacity:1;stroke-dasharray:none;stroke-dashoffset:0;marker:none;visibility:visible;display:inline;overflow:visible;enable-background:accumulate"
           d="m 114.15625,85.40625 -2.53125,5.9375 -4.78125,3.34375 -0.25,3.625 -1.21875,10.5625 -3.34375,10.09375 -2.15625,4.8125 -2.1875,6.46875 0,4.8125 -2.375,6 -1.46875,9.125 c 0,0 -1.65625,4.31833 -1.65625,6 0,1.68167 -0.71875,6.25 -0.71875,6.25 L 90,166.53125 c 0,0 -0.21875,5.04684 -0.21875,6.96875 0,1.92191 -0.25,5.28125 -0.25,5.28125 l 1.1875,4.8125 0,6 3.125,4.09375 0.96875,5.28125 1.21875,7.4375 1.90625,4.5625 1.9375,3.375 4.3125,3.34375 0,2.1875 2.40625,10.4375 c 0,0 1.90428,1.79882 2.625,3 0.45045,0.75075 0.46396,1.40954 0.5625,2.03125 0.0417,-0.0114 0.083,-0.0211 0.125,-0.0312 0.24088,-0.0587 0.50204,-0.10265 0.75,-0.125 0.31038,-0.028 0.59963,-0.0266 0.90625,0 1.00303,0.0871 1.58493,0.666 2.90625,0.90625 1.3213,0.24022 3.88737,0.94464 5.875,1.1875 2.64422,0.32313 5.34096,0.60587 8,0.46875 0.38118,-0.0204 0.77619,-0.055 1.15625,-0.0937 1.72129,-0.17563 3.97838,-0.85304 5.09375,-1.15625 0.23964,-0.0651 0.41124,-0.14829 0.5625,-0.21875 0.0356,-0.016 0.0617,-0.0155 0.0937,-0.0312 0.25189,-0.12548 0.39611,-0.22345 0.53125,-0.28125 0.0749,-0.032 0.16436,-0.0435 0.25,-0.0312 0.12923,-0.58792 0.22775,-1.04049 0.28125,-1.34375 0.16754,-0.94963 -0.78125,-1.99315 -0.78125,-2.59375 0,-0.60058 -1.5625,-0.59375 -1.5625,-0.59375 l -3.84375,-3.25 1.6875,-2.28125 0.25,-1.5625 c 0,0 0.16327,-1.98642 -0.375,-2.71875 -0.75854,-1.03203 -3.46875,-1.625 -3.46875,-1.625 l -2.15625,-1.1875 -0.96875,-3 1.5625,-2.65625 c 0,0 0.68251,-2.40121 0.21875,-3.46875 -0.32888,-0.75709 -2.8125,-1.5625 -2.8125,-1.5625 l -2.6875,-1.1875 -1.34375,-2.0625 1.6875,-3.34375 0.125,-1.6875 c 0,0 0.0399,-1.33503 -0.34375,-1.8125 -0.68497,-0.85253 -3.03125,-1.3125 -3.03125,-1.3125 l -1.90625,-3.625 -0.96875,-0.46875 c 0,0 0.83201,-2.51755 1.3125,-3.71875 0.48047,-1.20119 0.76626,-1.98912 0.375,-2.875 -0.33661,-0.76215 -2.03125,-1.4375 -2.03125,-1.4375 l -2.65625,-2.53125 -0.25,-2.0625 -0.34375,-3 1.4375,-1.4375 c 0,0 0.19056,-1.6174 -0.71875,-2.15625 -0.62004,-0.36742 -0.375,-0.59375 -0.375,-0.59375 l -1.4375,-1.4375 -1.0625,-5.1875 c 0,0 0.71192,-0.46875 1.3125,-0.46875 0.6006,0 0.3125,-1.1875 0.3125,-1.1875 0,0 0.64787,-0.77275 0.875,-1.21875 0.24713,-0.4853 0.63546,-1.03502 0.5,-1.5625 -0.22186,-0.86392 -1.9375,-1.84375 -1.9375,-1.84375 l 0.375,-2.46875 0,-4.09375 c 0,0 1.92089,-0.52928 2.28125,-1.25 0.36036,-0.72072 0.834,-1.03905 0.59375,-2 -0.24025,-0.96096 -1.8125,-3 -1.8125,-3 0,0 -0.0937,-2.6494 -0.0937,-3.25 0,-0.6006 0.34375,-3.09375 0.34375,-3.09375 L 115.125,139.5 l 1,-1.375 c 0,0 1.21875,-2.11327 1.21875,-2.59375 0,-0.48048 -1.625,-2.03125 -1.625,-2.03125 l 0.59375,-4.9375 c 0,0 1.42432,-0.9743 2.15625,-1.4375 0.39459,-0.2497 0.91076,-0.36778 1.21875,-0.71875 0.66233,-0.75479 1.43224,-1.77609 1.1875,-2.75 -0.23622,-0.94004 -2.28125,-1.8125 -2.28125,-1.8125 l 2.15625,-3.96875 1.8125,-1.4375 c 0,0 1.97853,-1.74315 2.21875,-2.34375 0.15074,-0.37682 0.24885,-0.56781 0.3125,-0.875 0.1068,-0.51553 -0.0988,-0.87766 0.125,-1.59375 0.60058,-1.92191 -1.4375,-2.74803 -1.4375,-3.46875 0,-0.72072 1.29589,-2.52928 1.65625,-3.25 0.36036,-0.72072 1.34375,-1.0625 1.34375,-1.0625 l 1.3125,-1.34375 c 0.60058,-0.6006 0.53125,-1.46678 0.53125,-2.1875 0,-0.720717 -0.53612,-2.363274 -0.65625,-2.84375 -0.12011,-0.480478 -1.09375,-2.875 -1.09375,-2.875 0,0 0.73157,-2.12657 1.5625,-2.78125 0.68689,-0.541204 1.76791,-0.292121 2.53125,-0.71875 0.55663,-0.311091 1.14444,-0.699821 1.40625,-1.28125 0.25075,-0.556837 0.0312,-1.84375 0.0312,-1.84375 L 132.3125,87.875 c -0.30395,0.350323 -0.68371,0.645317 -1.09375,0.84375 -0.6366,0.308063 -1.38863,0.289394 -2.09375,0.34375 -2.31543,0.178494 -4.67179,0.342184 -6.96875,0 -2.0696,-0.308314 -4.18382,-0.861247 -6.03125,-1.84375 -0.74228,-0.394764 -1.7147,-0.783074 -1.9375,-1.59375 -0.0201,-0.07324 -0.14768,0.31516 -0.15418,0.24244 z"
           transform="matrix(4.475833,0,0,4.475833,-534.90187,-379.53381)"
           id="path11079-0-4"
           inkscape:connector-curvature="0"
           sodipodi:nodetypes="cccccccccccsccscccccccccccscccccccccccccssccccscccccccccccccccscccccccccsccscccsscscccsccccsccccccssccsccssccccsssccc" />
        <path
           style="color:#000000;fill:#FF52A2;fill-opacity:1;fill-rule:nonzero;stroke:#4d4d4d;stroke-width:4.15467119;stroke-linecap:butt;stroke-linejoin:miter;stroke-miterlimit:4;stroke-opacity:1;stroke-dasharray:none;stroke-dashoffset:0;marker:none;visibility:visible;display:inline;overflow:visible;enable-background:accumulate"
           d="m -61.595172,620.39938 c -4.5272,0.6232 -9.464,2.7163 -12.0968,6.4516 -2.818,3.9982 -3.6148,9.8489 -2.1505,14.5161 1.2524,3.9919 4.8643,7.2603 8.6021,9.1398 4.8359,2.4316 10.8554,0.6623 16.129,1.8817 4.9977,1.1556 9.9094,2.8515 14.5162,5.1076 4.3081,2.1098 7.6477,6.0018 12.0968,7.7956 14.6521003,5.9078 30.7082003,8.9452 46.5053,9.1399 13.8169,0.1702 28.0046,-1.923 40.8602,-6.9893 3.4915,-1.3759 8.283,-2.6029 9.4086,-6.1829 1.5036,-4.782 -3.6097,-9.3555 -5.5799,-13.9649 -1.9759,-4.6227 -5.7183,-8.8844 -6.2559,-13.7231 -0.5377,-4.8387 0.8824,-14.8191 -3.6386,-16.2596 -1.898,-0.6047 -7.927,6.4148 -7.927,6.4148 0,0 -9.5823,5.8027 -14.936,7.1407 -16.3465,4.0854 -33.83609973,4.7126 -50.4994,2.2158 -7.1967,-1.0783 -16.5153,-7.0609 -20.5718,-7.3075 -8.2387,-0.5007 -16.1916,-6.5149 -24.4623,-5.3763 z"
           id="path49948-8-6"
           inkscape:connector-curvature="0"
           sodipodi:nodetypes="aaaaaaaaasasscaasa" />
        <path
           style="color:#000000;fill:#FF52A2;fill-opacity:1;fill-rule:nonzero;stroke:#4d4d4d;stroke-width:4.15467119;stroke-linecap:butt;stroke-linejoin:miter;stroke-miterlimit:4;stroke-opacity:1;stroke-dasharray:none;stroke-dashoffset:0;marker:none;visibility:visible;display:inline;overflow:visible;enable-background:accumulate"
           d="m -83.638172,570.39935 c -3.3166,0.009 -6.9965,-1.78508 -9.9463,-0.26882 -3.4857,1.79176 -5.7266,5.91795 -6.581998,9.74269 -0.8265,3.69524 -0.475,8.15634 1.743298,11.22501 3.5871,4.96215 10.4552,6.71895 16.3518,8.36825 4.6475,1.3 10.6762,1.0483 14.4397,1.0483 3.7634,0 14.9067,11.3617 23.5096,14.777 12.0538,4.7855 25.2095,7.1179 38.1720003,7.527 12.2866,0.3877 27.9569997,-2.6882 36.5591997,-4.8387 4.8159,-1.2041 8.1706,-1.6359 11.9883,-3.235 1.6861,-0.7062 3.5326,-1.392 4.7324,-2.7713 1.1821,-1.359 2.7082,-3.3165 2.0583,-4.9962 -1.74,-4.4973 -4.6992,-7.6805 -6.9511,-11.5783 -1.846,-3.19521 -3.9295,-6.28264 -5.3763,-9.67735 -2.3348,-5.47813 0.6569,-15.99861 -5.2571,-17.07381 -5.914,-1.0753 -12.2262,6.68902 -18.9365,8.20284 -17.4924997,3.94623 -35.93,3.76113 -53.7634,1.88177 -9.5529,-1.00673 -18.638,-4.65954 -27.957,-6.9893 -2.1505,-0.53764 -4.2474,-1.37756 -6.4516,-1.6129 -2.7635,-0.29506 -5.5541,0.26156 -8.3333,0.26882 z"
           id="path49950-3-1"
           inkscape:connector-curvature="0"
           sodipodi:nodetypes="aaaaasaacaasaacaaaaa" />
        <path
           style="color:#000000;fill:#FF52A2;fill-opacity:1;fill-rule:nonzero;stroke:#4d4d4d;stroke-width:4.15467119;stroke-linecap:butt;stroke-linejoin:miter;stroke-miterlimit:4;stroke-opacity:1;stroke-dasharray:none;stroke-dashoffset:0;marker:none;visibility:visible;display:inline;overflow:visible;enable-background:accumulate"
           d="m 10.657828,515.4173 c 1.1036,1.29524 0.4224,8.10839 1.2356,12.07023 0.8542,4.16173 1.9757,8.32918 3.8016,12.1653 2.201,4.62404 7.1969,10.05997 8.4913,12.80352 0.7851,1.66391 -0.038,2.70909 -2.53,4.90538 -2.2105,1.94778 -11.2788,5.97595 -13.3958997,6.84437 -11.3161,4.64183 -20.1142003,3.92355 -30.3130003,4.33923 -12.5211,0.51032 -25.275,0.35987 -37.525,-2.281 -10.733,-2.31383 -21.3717,-6.06709 -30.7811,-11.72517 -3.2652,-1.96345 -3.2258,-7.5269 -8.6021,-7.5269 -5.376398,0 -8.363798,1.54121 -12.365598,0.53767 -6.8206,-1.7104 -14.9749,-4.47813 -18.1491,-10.7527 -2,-3.95342 -1.2014,-9.581 1.317,-13.22611 2.69,-3.89329 8.0377,-5.59793 12.7155,-6.31327 8.9069,-1.36206 22.396198,3.1606 26.697198,4.2359 4.3011,1.0752 24.9682,4.95215 37.6344,5.62608 8.5081,0.45269 17.1039,0.13432 25.5377,-1.07527 9.9603,-1.42852 19.8408003,-3.82995 29.3011003,-7.25811 2.415,-0.87514 5.8269,-4.66439 6.9303997,-3.36915 z"
           id="path49952-4-8"
           inkscape:connector-curvature="0"
           sodipodi:nodetypes="zaasssaassaaaacaaaz" />
        <path
           style="color:#000000;fill:#FF52A2;fill-opacity:1;fill-rule:nonzero;stroke:#4d4d4d;stroke-width:4.15467119;stroke-linecap:butt;stroke-linejoin:miter;stroke-miterlimit:4;stroke-opacity:1;stroke-dasharray:none;stroke-dashoffset:0;marker:none;visibility:visible;display:inline;overflow:visible;enable-background:accumulate"
           d="m -149.99787,467.98003 c 2.2288,-3.69639 6.6811,-5.73458 10.7145,-7.27162 4.1926,-1.59769 8.8778,-2.20841 13.343,-1.77034 2.6714,0.26209 7.6248,2.59036 7.6248,2.59036 0,0 6.4528,1.78768 9.6774,2.6881 5.1094,1.42675 10.203098,2.91044 15.322498,4.30111 8.8511,2.40434 17.4894,6.05016 26.613,6.98929 10.3534,1.06573 20.9956,0.52044 31.1827,-1.613 8.4378,-1.76707 22.0431,-8.6021 24.1936,-9.1397 2.1505003,-0.5377 2.1775003,3.76558 2.9053003,5.80255 1.8054,5.05321 1.2957,10.83147 3.5463,15.70275 2.0671,4.4739 6.9875,7.2738 8.871,11.828 1.22,2.94984 4.1961,6.70142 1.3441,9.48172 -2.2632,2.20621 -35.0499003,9.98791 -53.0414003,9.99237 -15.7444,0.004 -31.525,-3.62278 -46.421,-8.72139 -7.431398,-2.54364 -15.053798,-6.9893 -20.967698,-10.7527 -5.914,-3.7634 -7.9865,-2.63499 -11.8438,-4.29549 -6.2433,-2.68758 -13.5125,-4.24761 -18.2256,-9.14541 -3.0029,-3.12066 -4.6949,-7.55101 -5.3763,-11.8279 -0.2553,-1.60262 -0.3003,-3.44896 0.5376,-4.8387 z"
           id="path49954-5-9"
           inkscape:connector-curvature="0"
           sodipodi:nodetypes="aaacaaaacsaasaasaaaa" />
        <path
           style="color:#000000;fill:#FF52A2;fill-opacity:1;fill-rule:nonzero;stroke:#4d4d4d;stroke-width:4.15467119;stroke-linecap:butt;stroke-linejoin:miter;stroke-miterlimit:4;stroke-opacity:1;stroke-dasharray:none;stroke-dashoffset:0;marker:none;visibility:visible;display:inline;overflow:visible;enable-background:accumulate"
           d="m -158.73607,410.3068 c -1.1943,2.50357 -1.4289,5.57672 -0.8143,8.28163 1.119,4.92489 3.8494,9.87856 7.853,12.95729 5.8557,4.50308 14.4842,3.30587 21.2659,6.23449 7.5394,3.25589 13.7242,9.18334 21.2556,12.45782 11.217898,4.87726 23.132698,8.28557 35.163398,10.49742 5.9376,1.09165 12.03,1.56758 18.0624,1.33058 8.9082,-0.34997 18.9095,-1.36322 26.4364,-4.05132 7.5268,-2.6882 14.5813,-4.904 14.5813,-7.5922 0,-2.6881 -6.6091,-9.32428 -7.6843,-13.62528 -1.0753,-4.3011 -1.9931,-13.53314 -1.9931,-15.68364 0,-2.1506 2.5307,-11.19806 -1.7704,-12.81096 -4.301,-1.613 -16.5473,7.12211 -25.361,8.38497 -13.2826,1.90317 -27.1881,1.75806 -40.2304,-1.39577 -9.818198,-2.37421 -17.454598,-11.2481 -27.419298,-12.9032 -4.8027,-0.79771 -9.6743,1.1038 -14.5161,1.61288 -3.2112,0.33762 -6.4253,0.64625 -9.6393,0.95603 -3.596,0.34662 -7.5161,-0.51552 -10.7909,1.01001 -1.867,0.86973 -3.512,2.48029 -4.3989,4.33925 z"
           id="path49956-0-2"
           inkscape:connector-curvature="0"
           sodipodi:nodetypes="aaaaaaacssscaaaaaaa" />
        <path
           style="color:#000000;fill:#FF52A2;fill-opacity:1;fill-rule:nonzero;stroke:#4d4d4d;stroke-width:4.15467119;stroke-linecap:butt;stroke-linejoin:miter;stroke-miterlimit:4;stroke-opacity:1;stroke-dasharray:none;stroke-dashoffset:0;marker:none;visibility:visible;display:inline;overflow:visible;enable-background:accumulate"
           d="m -154.16287,344.88878 c -3.7492,1.03858 -8.2157,2.80019 -9.7865,6.35936 -1.5578,3.52978 0.1626,7.96672 1.8818,11.42079 1.4905,2.99468 4.4036,5.06306 6.9161,7.27152 2.5877,2.27467 5.3192,4.44934 8.3412,6.10408 4.1165,2.25405 13.1259,5.09398 13.1259,5.09398 0,0 6.2346,8.58075 8.9227,10.73125 2.6882,2.1506 6.2078,4.87187 9.7697,6.47865 6.772,3.05486 14.1754,4.70092 21.526798,5.77241 13.6906,1.99545 27.8192,3.26666 41.4901,1.14049 6.281,-0.97685 14.0793,-3.52743 18.0028,-6.28856 1.8507,-1.3024 2.5661,-3.20707 2.9053,-5.14807 1.0773,-6.16364 -2.6325,-13.04984 -3.1336,-18.50783 -0.501,-5.45799 -0.6126,-7.98136 -1.0233,-11.96219 -0.276,-2.67491 1.6988,-8.13741 -0.9681,-8.00904 -3.9828,0.19172 -2.7482,0.77471 -8.894,2.25957 -6.1458,1.48486 -22.3974,2.59791 -32.5865,1.27319 -10.1892,-1.32472 -18.4119,-6.00998 -27.761298,-8.51546 -4.9156,-1.31728 -9.8239,-2.83269 -14.8787,-3.42153 -3.023,-0.35216 -6.0956,0.17592 -9.1304,-0.0539 -3.386,-0.25646 -6.698,-1.16784 -10.0798,-1.47482 -4.8632,-0.44145 -9.9342,-1.82751 -14.6402,-0.52389 z"
           id="path49958-1-7"
           inkscape:connector-curvature="0"
           sodipodi:nodetypes="aaaaaccaaasazaszzaaaaa" />
        <path
           style="color:#000000;fill:#FF52A2;fill-opacity:1;fill-rule:nonzero;stroke:#4d4d4d;stroke-width:4.15467119;stroke-linecap:butt;stroke-linejoin:miter;stroke-miterlimit:4;stroke-opacity:1;stroke-dasharray:none;stroke-dashoffset:0;marker:none;visibility:visible;display:inline;overflow:visible;enable-background:accumulate"
           d="m -113.69957,286.5745 c -2.7523,-0.11948 -4.2317,2.70002 -7.9604,2.22136 -5.6309,-0.72284 -10.357,-2.8196 -15.6033,-2.40584 -4.4138,0.3481 -9.1216,1.37963 -12.6479,4.05692 -1.9473,1.47844 -3.7536,3.69678 -4.0346,6.12553 -0.6425,5.55361 1.8419,11.77849 5.7835,15.74324 4.5211,4.54766 18.0187,6.73952 18.0187,6.73952 0,0 5.7667,6.42676 8.6077,9.6775 3.0445,3.48357 5.3086,7.79754 9.042,10.52997 4.5848,3.35559 10.1867,5.23764 15.683598,6.67433 11.163,2.91757 22.8851,4.34059 34.4086,3.7634 5.4891,-0.27494 10.8508,-1.88975 16.1291,-3.42148 10.3074,-3.29034 12.682,-2.52596 13.9228,-12.03159 0.3468,-2.6568 0.2731,-7.35944 0.7181,-11.01031 0.8605,-7.05863 4.4487,-17.41319 3.7663,-20.99755 -0.3968,-2.08385 -5.2784,-1.11597 -7.9582,-1.36735 -7.1712,-0.67269 -14.4212,0.15625 -21.605,-0.36527 -9.7639,-0.70882 -19.6275,-1.38997 -29.1284,-3.74993 -9.3783,-2.3295 -17.488498,-9.76335 -27.142598,-10.18245 z"
           id="path49960-4-9"
           inkscape:connector-curvature="0"
           sodipodi:nodetypes="asaaaacaaaacsasaaaa" />
        <path
           style="color:#000000;fill:#FF52A2;fill-opacity:1;fill-rule:nonzero;stroke:#4d4d4d;stroke-width:4.15467119;stroke-linecap:butt;stroke-linejoin:miter;stroke-miterlimit:4;stroke-opacity:1;stroke-dasharray:none;stroke-dashoffset:0;marker:none;visibility:visible;display:inline;overflow:visible;enable-background:accumulate"
           d="m -119.48877,229.33552 c -4.7833,-0.35965 -10.1843,-0.0766 -14.1494,2.62301 -1.7469,1.18934 -2.6444,3.3879 -3.3602,5.3763 -1.1484,3.1896 -1.8043,6.72211 -1.3441,10.0807 0.6021,4.39464 2.221,8.98311 5.2419,12.23116 1.9924,2.14228 5.075,2.9567 7.7957,4.03224 3.5654,1.40945 7.997,0.83399 11.0676,3.1296 3.1512,2.35584 3.3658,7.35749 6.2942,9.98513 6.368,5.71404 14.814298,8.99578 23.064198,11.26335 14.0111,3.8511 27.3152,3.48891 43.445,3.57892 2.4278,0.0136 5.9521,0.0149 9.0875,0.0122 3.8076,-0.003 5.1558,-0.42025 6.8514,-2.10311 1.7648,-1.75149 1.7094,-4.68556 2.2428,-7.11408 1.1314,-5.15132 1.0947,-10.49977 2.0043,-15.69485 1.2995,-7.42293 4.2745,-17.37476 4.9253,-22.06444 0.6508,-4.68969 1.4113,-4.91957 0.3255,-5.79109 -0.6344,-0.50916 -3.6614,0.21091 -5.4928,0.30141 -14.5297,0.71793 -30.838,3.37924 -43.5999,1.91636 -11.4947,-1.31761 -22.2691,-12.67622 -34.2742,-11.55922 -2.838998,0.26414 -4.621698,3.92926 -7.461698,4.18188 -4.4494,0.39579 -8.2086,-4.05054 -12.6631,-4.38547 z"
           id="path49962-5-5"
           inkscape:connector-curvature="0"
           sodipodi:nodetypes="aaaaaaaaassaaazsasaaa" />
        <path
           style="color:#000000;fill:#FF52A2;fill-opacity:1;fill-rule:nonzero;stroke:#4d4d4d;stroke-width:4.15467119;stroke-linecap:butt;stroke-linejoin:miter;stroke-miterlimit:4;stroke-opacity:1;stroke-dasharray:none;stroke-dashoffset:0;marker:none;visibility:visible;display:inline;overflow:visible;enable-background:accumulate"
           d="m -93.181172,182.49616 c 1.4179,-0.63882 0.9408,-1.88172 3.0914,-3.49463 2.1505,-1.6129 0.6,-0.0298 2.7506,-2.18035 2.1505,-2.15054 5.5394,-4.26846 8.2275,-2.11792 2.6882,2.15053 14.9464,11.60842 23.6993,14.78214 6.1234,2.22032 12.8568,2.23908 19.3548,2.68818 7.1514,0.49425 14.3733,0.72117 21.5054,0 3.8236,-0.38663 8.6077003,-2.30801 11.2959003,-2.30801 2.68819997,0 0.5493,2.62296 0.5456,5.17275 0,2.5498 -3.2085,7.6179 -4.3011,11.59175 -1.2466,4.53387 -0.692,9.55312 -2.5442,13.87506 -1.2579003,2.93507 -3.0838003,5.82471 -5.6317003,7.74958 -4.3131,3.2585 -9.8939,4.68905 -15.2247,5.58553 -14.4059,2.42265 -40.0538,-0.26882 -43.8172,-0.80645 -3.7635,-0.53763 -19.6237,-7.7957 -21.2366,-9.94624 -1.6129,-2.15053 -3.2258,-8.06451 -5.913998,-9.13978 -2.6881,-1.07527 -8.3333,-5.10753 -16.9354,-8.33333 -8.6022,-3.22581 -10.4269,-10.78849 -9.9463,-17.47312 0.2198,-3.0571 2.8361,-6.0321 5.6452,-7.25807 2.844,-1.2412 6.1806,0.56405 9.2742,0.80646 3.8506,0.30172 7.699,0.67196 11.5591,0.80645 2.865598,0.0998 5.987798,1.17776 8.602198,0 z"
           id="path10974-6-4"
           inkscape:connector-curvature="0"
           sodipodi:nodetypes="asssaaascaaaassssaaaaa" />
        <path
           style="color:#000000;fill:#FF52A2;fill-opacity:1;fill-rule:nonzero;stroke:#4d4d4d;stroke-width:4.15467119;stroke-linecap:butt;stroke-linejoin:miter;stroke-miterlimit:4;stroke-opacity:1;stroke-dasharray:none;stroke-dashoffset:0;marker:none;visibility:visible;display:inline;overflow:visible;enable-background:accumulate"
           d="m -99.498372,124.43164 c -2.688198,0 -3.763498,-1.07527 -5.913998,1.6129 -2.1506,2.68818 -2.6882,5.37635 -2.6882,7.52689 0,2.15053 2.4194,9.4086 4.5699,11.55914 2.1505,2.15053 13.978498,6.72043 18.279598,9.4086 4.301,2.68817 3.6392,7.32317 6.1828,10.48387 3.2198,4.00105 6.7803,8.027 11.2903,10.48387 8.9316,4.86563 19.4227,6.8316 29.5699,7.52688 11.1555,0.76437 33.3333003,-3.76344 33.3333003,-3.76344 0,0 5.914,-2.15054 9.1398,-5.91398 3.2258,-3.76344 1.6685,-9.45722 3.2258,-13.97849 1.9321,-5.60953 4.8386997,-11.82796 7.5268997,-16.12903 2.6882,-4.30108 9.1398,-10.21506 4.3011,-10.21506 -4.8388,0 -18.0107997,1.88172 -25.5376997,1.88172 -7.5269003,0 -26.6129003,-0.26881 -33.0645003,-2.41935 -6.4516,-2.15054 -14.5161,-7.52689 -19.3548,-9.67742 -4.8387,-2.15054 -4.5699,0.26881 -14.2473,1.88171 -9.6775,1.61291 -5.3764,-0.26881 -13.9785,-0.26881 -8.6022,0 -12.6344,0 -12.6344,0 z"
           id="path10976-2-3"
           inkscape:connector-curvature="0"
           sodipodi:nodetypes="cssssaaacsasssssssc" />
        <path
           style="color:#000000;fill:#FF52A2;fill-opacity:1;fill-rule:nonzero;stroke:#4d4d4d;stroke-width:4.15467119;stroke-linecap:butt;stroke-linejoin:miter;stroke-miterlimit:4;stroke-opacity:1;stroke-dasharray:none;stroke-dashoffset:0;marker:none;visibility:visible;display:inline;overflow:visible;enable-background:accumulate"
           d="m -81.756472,74.700458 c 3.3844,-2.58787 5.3763,-0.80646 13.9785,-0.80646 8.6021,0 12.9032,3.22581 16.6666,0.53764 3.7635,-2.68817 0.4534,-3.86162 1.8818,-4.83871 4.0676,-2.78254 10.0808,-1.46946 14.7849,0 5.4094,1.68977 8.6433,7.76633 13.9785,9.67742 9.2262,3.30485 19.51180027,1.95535 29.3011003,2.41936 7.2504997,0.34366 18.3772997,0.42039 21.7741997,0.26881 3.2258,-0.14394 5.914,0.46925 5.3763,2.68817 -0.8952,3.69474 -4.0024,6.98828 -5.3763,10.75269 -1.7064,4.675302 -2.437,9.652862 -3.4946,14.516132 -0.6984,3.21116 -1.8818,7.52688 -1.8818,9.67742 0,1.11177 -1.0058,3.29881 -2.646,4.11344 -1.5325,0.76115 -12.221,1.53172 -14.5582997,1.53172 -4.8387,0 -17.6322,0.32852 -26.3441003,-0.80645 -7.8454,-1.0221 -15.7039,-2.61527 -23.1182,-5.37634 -5.4089,-2.01425 -12.6344,-5.37635 -15.3226,-8.06452 -2.6882,-2.68817 2.4193,-5.37634 -5.6452,-9.67742 -8.0645,-4.301082 -9.2385,-4.031892 -12.9032,-6.182792 -3.6647,-2.1509 -7.6781,-3.8966 -9.1398,-6.45162 -1.4617,-2.55502 -0.9291,-4.03933 -0.5376,-6.45161 0.3914,-2.41228 -0.1586,-4.93901 3.2258,-7.52688 z"
           id="path10978-0-1"
           inkscape:connector-curvature="0"
           sodipodi:nodetypes="zzsaaaassaasssaasszzzz" />
        <path
           style="color:#000000;fill:#FF52A2;fill-opacity:1;fill-rule:nonzero;stroke:#4d4d4d;stroke-width:4.15467119;stroke-linecap:butt;stroke-linejoin:miter;stroke-miterlimit:4;stroke-opacity:1;stroke-dasharray:none;stroke-dashoffset:0;marker:none;visibility:visible;display:inline;overflow:visible;enable-background:accumulate"
           d="m -61.170072,16.642648 c -1.3752,0.58692 -2.5141,1.81743 -3.1948,3.14872 -1.5176,2.96804 -2.181,6.61681 -1.5207,9.88428 0.6814,3.37171 2.7632,6.58881 5.4067,8.78992 3.2371,2.69545 8.399,2.05621 11.7851,4.56198 3.6272,2.68422 8.3636,8.36363 8.3636,10.64462 0,2.28098 3.2258,6.08263 6.6473,9.12395 3.4215,3.04132 9.6136,6.10483 15.0221,7.6033 10.8018003,2.99272 22.3319003,2.61511 33.5389,2.41935 7.2661,-0.12692 15.5946,0.33405 21.6773,-2.32711 6.0826,-2.66115 6.2751,-3.54145 7.8912,-6.55504 2.349,-4.3804 0.8659,-9.90896 1.5898,-14.82643 0.5822,-3.95434 1.7745,-7.81215 2.2118,-11.78512 0.3406,-3.09413 4.4968,-7.05215 0.315,-9.33314 -4.1818,-2.28099 -9.8637,-0.39011 -16.8465,-0.65854 -6.9828,-0.26843 -17.5257,-0.0384 -26.0738997,-1.7091 -8.7707,-1.71418 -17.8097003,-3.80256 -25.4441003,-8.44796 -2.0692,-1.25909 -2.8693,-4.42407 -5.203,-5.07259 -3.1752,-0.88235 -4.7379,4.7154 -7.9406,5.99789 -2.9089,1.1649 -7.9908,-0.68592 -10.9642,-0.34154 -3.2729,0.37905 -6.2042,-1.16447 -9.3467,-1.34409 -2.6349,-0.15061 -5.4869,-0.8093 -7.9143,0.22665 z"
           id="path10980-3-2"
           inkscape:connector-curvature="0"
           sodipodi:nodetypes="aaaaassaasaaaszaasssaa" />
      </g>
      <text
         sodipodi:linespacing="100%"
         id="text11162-0-6-9"
         y="573.55499"
         x="306.67194"
         style="font-size:10.75883198px;font-style:normal;font-variant:normal;font-weight:normal;font-stretch:normal;text-indent:0;text-align:end;text-decoration:none;line-height:100%;letter-spacing:0px;word-spacing:0px;text-transform:none;direction:ltr;block-progression:tb;writing-mode:lr-tb;text-anchor:end;baseline-shift:baseline;color:#000000;fill:#000000;fill-opacity:1;fill-rule:nonzero;stroke:none;stroke-width:1;marker:none;visibility:visible;display:inline;overflow:visible;enable-background:accumulate;font-family:Poppins;-inkscape-font-specification:Poppins"
         xml:space="preserve"><tspan
           id="tspan11695-65"
           y="573.55499"
           x="306.67194"
           sodipodi:role="line">Thoracic</tspan></text>
      <path
         sodipodi:nodetypes="cccc"
         inkscape:connector-curvature="0"
         id="path11747-8-2"
         d="m 329.66408,498.17798 c -1.80536,0 -18.936,0 -18.936,0 l 0,142.58807 18.936,0"
         style="color:#000000;fill:none;stroke:#4d4d4d;stroke-width:0.80000001;stroke-linecap:butt;stroke-linejoin:miter;stroke-miterlimit:4;stroke-opacity:1;stroke-dasharray:none;stroke-dashoffset:0;marker:none;visibility:visible;display:inline;overflow:visible;enable-background:accumulate" />
    </g>
  </g>
</svg>
