<?xml version="1.0" encoding="UTF-8" standalone="no"?>
<!-- Created with Inkscape (http://www.inkscape.org/) -->

<svg
   xmlns:dc="http://purl.org/dc/elements/1.1/"
   xmlns:cc="http://creativecommons.org/ns#"
   xmlns:rdf="http://www.w3.org/1999/02/22-rdf-syntax-ns#"
   xmlns:svg="http://www.w3.org/2000/svg"
   xmlns="http://www.w3.org/2000/svg"
   xmlns:sodipodi="http://sodipodi.sourceforge.net/DTD/sodipodi-0.dtd"
   xmlns:inkscape="http://www.inkscape.org/namespaces/inkscape"
   width="220"
   height="375"
   id="svg5704"
   version="1.1"
   inkscape:version="0.48.5 r10040"
   sodipodi:docname="Spine_green_t5.svg">
  <defs
     id="defs5706" />
  <sodipodi:namedview
     id="base"
     pagecolor="#ffffff"
     bordercolor="#666666"
     borderopacity="1.0"
     inkscape:pageopacity="0.0"
     inkscape:pageshadow="2"
     inkscape:zoom="5.6568543"
     inkscape:cx="149.88259"
     inkscape:cy="227.55341"
     inkscape:document-units="px"
     inkscape:current-layer="g12592-3-1"
     showgrid="false"
     inkscape:window-width="1280"
     inkscape:window-height="961"
     inkscape:window-x="-8"
     inkscape:window-y="-8"
     inkscape:window-maximized="1"
     showguides="true"
     inkscape:guide-bbox="true" />
  <metadata
     id="metadata5709">
    <rdf:RDF>
      <cc:Work
         rdf:about="">
        <dc:format>image/svg+xml</dc:format>
        <dc:type
           rdf:resource="http://purl.org/dc/dcmitype/StillImage" />
        <dc:title></dc:title>
      </cc:Work>
    </rdf:RDF>
  </metadata>
  <g
     inkscape:label="Capa 1"
     inkscape:groupmode="layer"
     id="layer1"
     transform="translate(0,-677.36218)">
    <g
       id="g6147"
       transform="translate(-249.00368,269.90451)">
      <g
         id="g12592-3-1"
         transform="matrix(0.2234221,0,0,0.2234221,368.51258,492.25391)"
         style="color:#000000;fill:#FF52A2;fill-opacity:1;fill-rule:nonzero;stroke:#4d4d4d;stroke-width:4.15467119;stroke-linecap:butt;stroke-linejoin:miter;stroke-miterlimit:4;stroke-opacity:1;stroke-dasharray:none;stroke-dashoffset:0;marker:none;visibility:visible;display:inline;overflow:visible;enable-background:accumulate">
        <path
           style="color:#000000;fill:#FF52A2;fill-opacity:1;fill-rule:nonzero;stroke:#4d4d4d;stroke-width:4.15467119;stroke-linecap:butt;stroke-linejoin:miter;stroke-miterlimit:4;stroke-opacity:1;stroke-dasharray:none;stroke-dashoffset:0;marker:none;visibility:visible;display:inline;overflow:visible;enable-background:accumulate"
           d="m -207.02525,259.37788 c 0.5899,4.58712 7.2598,5.79637 11.2903,8.06451 2.3789,1.33868 4.8208,2.8679 7.5269,3.22581 3.7688,0.49847 7.7371,-0.26121 11.29028,-1.61291 4.2459,-1.6152 7.1745,-5.76374 11.3611,-7.52688 4.7083,-1.98281 9.8745,-3.17248 14.983,-3.2258 5.6583,-0.0591 11.0338,2.6857 16.6667,3.2258 4.995,0.47895 15.0537,0 15.0537,0 0,0 -1.0753,-4.83871 -2.1505,-11.82795 -1.0753,-6.98925 -1.0753,-18.27957 -1.0753,-18.27957 0,0 -12.7443,0.42516 -18.8172,2.15053 -6.4778,1.84042 -11.8661,6.54882 -18.2796,8.60215 -5.7247,1.83282 -11.8576,1.99822 -17.7419,3.22581 -4.71908,0.98451 -9.50838,1.77744 -14.07628,3.31805 -3.6842,1.24256 -7.4508,2.5439 -10.6549,4.74647 -1.0443,0.71786 -1.8336,1.75243 -2.6882,2.68817 -0.9438,1.03356 -2.8667,1.83755 -2.6881,3.22581 z"
           id="path11037-0-7"
           inkscape:connector-curvature="0"
           sodipodi:nodetypes="aaaaaaacscaaaaaaa" />
        <path
           style="color:#000000;fill:#FF52A2;fill-opacity:1;fill-rule:nonzero;stroke:#4d4d4d;stroke-width:0.92824537;stroke-linecap:butt;stroke-linejoin:miter;stroke-miterlimit:4;stroke-opacity:1;stroke-dasharray:none;stroke-dashoffset:0;marker:none;visibility:visible;display:inline;overflow:visible;enable-background:accumulate"
           d="m 91.28125,129.21875 c -0.499326,0.65731 -0.988363,1.33242 -1.34375,2.0625 -0.446777,0.91785 -0.827652,1.86883 -1,2.875 -0.17208,1.00462 0,2.04325 0,3.0625 0,1.64212 0.292996,3.32173 0,4.9375 -0.172638,0.95208 -0.834862,1.77128 -1.03125,2.71875 -0.170734,0.82376 -0.162347,1.66082 -0.15625,2.5 -0.07702,1.21865 0.339201,1.37003 1.09375,1.40625 1.174423,0.0564 2.210682,0.36975 3.46875,0.53125 0.833074,0.10694 1.166325,-0.52669 1.78125,-0.5 0.471076,0.0205 0.930286,0.1395 1.375,0.28125 0.788447,-2.76155 1.579245,-5.51744 2.21875,-8.3125 0.430074,-1.87971 0.762727,-3.78374 1.09375,-5.6875 -0.296487,-0.17445 -0.518946,-0.36901 -0.59375,-0.46875 -0.360358,-0.48047 -0.743147,-1.79101 -1.34375,-2.03125 -0.600581,-0.24024 -1.859351,-1.12303 -3.78125,-1.84375 -0.886729,-0.33252 -1.441057,-0.90064 -1.78125,-1.53125 z"
           transform="matrix(4.475833,0,0,4.475833,-534.90187,-379.53381)"
           id="path11071-2-2"
           inkscape:connector-curvature="0"
           sodipodi:nodetypes="csssscccsccscccsc" />
        <path
           style="color:#000000;fill:#FF52A2;fill-opacity:1;fill-rule:nonzero;stroke:#4d4d4d;stroke-width:0.92824537;stroke-linecap:butt;stroke-linejoin:miter;stroke-miterlimit:4;stroke-opacity:1;stroke-dasharray:none;stroke-dashoffset:0;marker:none;visibility:visible;display:inline;overflow:visible;enable-background:accumulate"
           d="m 95,131.59375 c -0.262464,0.77466 -0.530504,1.54856 -0.71875,2.34375 -1.113134,4.70241 -1.422364,9.56283 -2.3125,14.3125 -0.06052,0.32292 -0.152657,0.64687 -0.21875,0.96875 0.186499,0.0366 0.36747,0.0687 0.5625,0.0937 0.833074,0.10694 1.166325,-0.52669 1.78125,-0.5 0.450369,0.0196 0.886489,0.14969 1.3125,0.28125 1.050173,-4.00665 3.037018,-7.77909 3.65625,-11.875 0.09695,-0.64125 0.121578,-1.28646 0.125,-1.9375 -0.491137,-0.26451 -0.89623,-0.51789 -1,-0.65625 -0.360358,-0.48047 -0.743147,-1.79101 -1.34375,-2.03125 -0.366638,-0.14666 -0.98468,-0.55222 -1.84375,-1 z"
           transform="matrix(4.475833,0,0,4.475833,-534.90187,-379.53381)"
           id="path11104-9-6"
           inkscape:connector-curvature="0"
           sodipodi:nodetypes="ccsccccscscc" />
        <path
           style="color:#000000;fill:#FF52A2;fill-opacity:1;fill-rule:nonzero;stroke:#4d4d4d;stroke-width:0.92824537;stroke-linecap:butt;stroke-linejoin:miter;stroke-miterlimit:4;stroke-opacity:1;stroke-dasharray:none;stroke-dashoffset:0;marker:none;visibility:visible;display:inline;overflow:visible;enable-background:accumulate"
           d="m 97.6875,133.71875 0,1.34375 -2.375,6 -1.25,7.75 c 0.01059,7e-5 0.02049,-4.7e-4 0.03125,0 2.156939,0.0936 3.967181,1.76079 6.0625,2.28125 2.12271,0.52727 4.34978,0.68538 6.53125,0.84375 1.60502,0.11652 3.2103,-0.0565 4.8125,0.0937 1.40599,0.0437 1.69164,0.0502 2.125,-0.21875 0.53816,-0.33397 0.7715,-0.78905 0.53125,-1.75 -0.24025,-0.96096 -1.8125,-3 -1.8125,-3 0,0 -0.0937,-2.6494 -0.0937,-3.25 0,-0.6006 0.34375,-3.09375 0.34375,-3.09375 l 2.5312,-1.2187 1,-1.375 c 0,0 1.21875,-2.11327 1.21875,-2.59375 0,-0.15074 -0.18673,-0.40701 -0.40625,-0.6875 -0.23007,0.35984 -0.47804,0.68482 -0.8125,0.9375 -0.96364,0.72802 -2.21523,1.04971 -3.40625,1.25 -3.2186,0.54127 -8.94042,-0.0361 -9.78125,-0.15625 -0.84085,-0.12012 -4.389642,-1.76952 -4.75,-2.25 -0.153152,-0.2042 -0.328405,-0.54583 -0.5,-0.90625 z"
           transform="matrix(4.475833,0,0,4.475833,-534.90187,-379.53381)"
           id="path11079-0-4"
           inkscape:connector-curvature="0"
           sodipodi:nodetypes="cccccssccscscccscssssc" />
        <path
           style="color:#000000;fill:#FF52A2;fill-opacity:1;fill-rule:nonzero;stroke:#4d4d4d;stroke-width:4.15467119;stroke-linecap:butt;stroke-linejoin:miter;stroke-miterlimit:4;stroke-opacity:1;stroke-dasharray:none;stroke-dashoffset:0;marker:none;visibility:visible;display:inline;overflow:visible;enable-background:accumulate"
           d="m -119.48877,229.33552 c -4.7833,-0.35965 -10.1843,-0.0766 -14.1494,2.62301 -1.7469,1.18934 -2.6444,3.3879 -3.3602,5.3763 -1.1484,3.1896 -1.8043,6.72211 -1.3441,10.0807 0.6021,4.39464 2.221,8.98311 5.2419,12.23116 1.9924,2.14228 5.075,2.9567 7.7957,4.03224 3.5654,1.40945 7.997,0.83399 11.0676,3.1296 3.1512,2.35584 3.3658,7.35749 6.2942,9.98513 6.368,5.71404 14.814298,8.99578 23.064198,11.26335 14.0111,3.8511 27.3152,3.48891 43.445,3.57892 2.4278,0.0136 5.9521,0.0149 9.0875,0.0122 3.8076,-0.003 5.1558,-0.42025 6.8514,-2.10311 1.7648,-1.75149 1.7094,-4.68556 2.2428,-7.11408 1.1314,-5.15132 1.0947,-10.49977 2.0043,-15.69485 1.2995,-7.42293 4.2745,-17.37476 4.9253,-22.06444 0.6508,-4.68969 1.4113,-4.91957 0.3255,-5.79109 -0.6344,-0.50916 -3.6614,0.21091 -5.4928,0.30141 -14.5297,0.71793 -30.838,3.37924 -43.5999,1.91636 -11.4947,-1.31761 -22.2691,-12.67622 -34.2742,-11.55922 -2.838998,0.26414 -4.621698,3.92926 -7.461698,4.18188 -4.4494,0.39579 -8.2086,-4.05054 -12.6631,-4.38547 z"
           id="path49962-5-5"
           inkscape:connector-curvature="0"
           sodipodi:nodetypes="aaaaaaaaassaaazsasaaa" />
      </g>
      <g
         transform="matrix(0.22340209,0,0,0.22340209,234.91154,492.27946)"
         id="g12415-1-4">
        <text
           xml:space="preserve"
           style="font-size:49.23857116999999300px;font-style:normal;font-variant:normal;font-weight:normal;font-stretch:normal;text-indent:0;text-align:start;text-decoration:none;line-height:125%;letter-spacing:0px;word-spacing:0px;text-transform:none;direction:ltr;block-progression:tb;writing-mode:lr-tb;text-anchor:start;baseline-shift:baseline;color:#000000;fill:#000000;fill-opacity:1;fill-rule:nonzero;stroke:none;marker:none;visibility:visible;display:inline;overflow:visible;enable-background:accumulate;font-family:Poppins;-inkscape-font-specification:Poppins"
           x="819.70514"
           y="290.90527"
           id="text11162-14-5-7-4"
           sodipodi:linespacing="125%"><tspan
             sodipodi:role="line"
             id="tspan11164-2-7-4-2"
             x="819.70514"
             y="290.90527">T5</tspan></text>
        <path
           style="color:#000000;fill:none;stroke:#4d4d4d;stroke-width:3.58098722;stroke-linecap:butt;stroke-linejoin:miter;stroke-miterlimit:4;stroke-opacity:1;stroke-dasharray:none;stroke-dashoffset:0;marker:none;visibility:visible;display:inline;overflow:visible;enable-background:accumulate"
           d="m 566.42857,261.6479 227.333,11.73841"
           id="path11796-8-3"
           inkscape:connector-curvature="0"
           sodipodi:nodetypes="cc" />
      </g>
    </g>
  </g>
</svg>
