<?xml version="1.0" encoding="UTF-8" standalone="no"?>
<!-- Created with Inkscape (http://www.inkscape.org/) -->

<svg
   xmlns:dc="http://purl.org/dc/elements/1.1/"
   xmlns:cc="http://creativecommons.org/ns#"
   xmlns:rdf="http://www.w3.org/1999/02/22-rdf-syntax-ns#"
   xmlns:svg="http://www.w3.org/2000/svg"
   xmlns="http://www.w3.org/2000/svg"
   xmlns:sodipodi="http://sodipodi.sourceforge.net/DTD/sodipodi-0.dtd"
   xmlns:inkscape="http://www.inkscape.org/namespaces/inkscape"
   width="220"
   height="375"
   id="svg5704"
   version="1.1"
   inkscape:version="0.48.5 r10040"
   sodipodi:docname="Spine_green_c7.svg">
  <defs
     id="defs5706" />
  <sodipodi:namedview
     id="base"
     pagecolor="#ffffff"
     bordercolor="#666666"
     borderopacity="1.0"
     inkscape:pageopacity="0.0"
     inkscape:pageshadow="2"
     inkscape:zoom="2.8284271"
     inkscape:cx="153.30962"
     inkscape:cy="279.32791"
     inkscape:document-units="px"
     inkscape:current-layer="g12592-3-1"
     showgrid="false"
     inkscape:window-width="1280"
     inkscape:window-height="961"
     inkscape:window-x="-8"
     inkscape:window-y="-8"
     inkscape:window-maximized="1" />
  <metadata
     id="metadata5709">
    <rdf:RDF>
      <cc:Work
         rdf:about="">
        <dc:format>image/svg+xml</dc:format>
        <dc:type
           rdf:resource="http://purl.org/dc/dcmitype/StillImage" />
        <dc:title></dc:title>
      </cc:Work>
    </rdf:RDF>
  </metadata>
  <g
     inkscape:label="Capa 1"
     inkscape:groupmode="layer"
     id="layer1"
     transform="translate(0,-677.36218)">
    <g
       id="g6147"
       transform="translate(-249.00368,269.90451)">
      <g
         id="g12592-3-1"
         transform="matrix(0.2234221,0,0,0.2234221,368.51258,492.25391)"
         style="color:#000000;fill:#FF52A2;fill-opacity:1;fill-rule:nonzero;stroke:#4d4d4d;stroke-width:4.15467119;stroke-linecap:butt;stroke-linejoin:miter;stroke-miterlimit:4;stroke-opacity:1;stroke-dasharray:none;stroke-dashoffset:0;marker:none;visibility:visible;display:inline;overflow:visible;enable-background:accumulate">
        <path
           style="color:#000000;fill:#FF52A2;fill-opacity:1;fill-rule:nonzero;stroke:#4d4d4d;stroke-width:0.92824537;stroke-linecap:butt;stroke-linejoin:miter;stroke-miterlimit:4;stroke-opacity:1;stroke-dasharray:none;stroke-dashoffset:0;marker:none;visibility:visible;display:inline;overflow:visible;enable-background:accumulate"
           d="m 107.71875,84.9375 c -0.5385,0.0477 -0.60814,0.863477 -0.6875,1.53125 -0.0639,0.445223 -0.1526,0.884156 -0.28125,1.3125 -0.50286,1.674164 -1.41495,3.181937 -2.1875,4.75 -0.64924,1.317723 -1.54869,2.530061 -2.0625,3.90625 -0.34178,0.915427 -0.37737,1.811725 -0.65625,2.90625 -0.35379,1.08562 0.089,1.26404 0.61958,1.49047 1.13699,0.28383 2.28825,0.69123 3.19292,1.07203 0.0764,-0.0101 0.14283,-0.0162 0.21875,-0.0312 1.09253,-0.2164 1.60153,-1.67346 2.65625,-2.03125 0.55802,-0.189294 1.07145,-0.7151 1.64867,-0.596621 0.10506,0.02156 0.93828,0.176005 1.0417,0.204235 2.80291,-6.329507 4.90338,-11.888864 4.90338,-11.888864 l -2.21875,-1.96875 c 0,0 -4.56218,-0.149247 -5.9375,-0.625 -0.0977,-0.02702 -0.17307,-0.03807 -0.25,-0.03125 z"
           transform="matrix(4.475833,0,0,4.475833,-534.90187,-379.53381)"
           id="path11071-2-2"
           inkscape:connector-curvature="0"
           sodipodi:nodetypes="ccccsccccssccccsc" />
        <path
           style="color:#000000;fill:#FF52A2;fill-opacity:1;fill-rule:nonzero;stroke:#4d4d4d;stroke-width:4.15467119;stroke-linecap:butt;stroke-linejoin:miter;stroke-miterlimit:4;stroke-opacity:1;stroke-dasharray:none;stroke-dashoffset:0;marker:none;visibility:visible;display:inline;overflow:visible;enable-background:accumulate"
           d="m -148.42317,47.549918 c 2.9857,-3.51868 11.4685,-3.06307 15.7937,-4.74131 7.9377,-3.07991 12.6943,-6.98103 20.2278,-10.85009 7.4364,-3.81919 13.816398,-9.6221 21.505398,-12.90322 5.6381,-2.40595 11.6148,-4.65404 17.7419,-4.83871 12.261,-0.36954 36.0215,7.52688 36.0215,7.52688 0,0 0.5377,11.29032 -5.3763,13.44086 -5.914,2.15054 -11.7512,2.9511 -17.7419,3.76344 -5.8711,0.79612 -11.8515,0.43802 -17.742,1.07527 -5.7706,0.62429 -11.6197,1.10622 -17.2043,2.68817 -5.796198,1.64189 -11.041198,4.83378 -16.666598,6.98925 -4.0752,1.56146 -8.0625,3.57407 -12.3656,4.30107 -6.1848,1.04491 -12.6258,1.00472 -18.8172,0 -2.2376,-0.36311 -5.3608,-0.16338 -6.4516,-2.15053 -0.7112,-1.29546 0.1191,-3.17426 1.0752,-4.30108 z"
           id="path11029-8-7"
           inkscape:connector-curvature="0"
           sodipodi:nodetypes="sssaacsaaaaaaas" />
        <path
           style="color:#000000;fill:#FF52A2;fill-opacity:1;fill-rule:nonzero;stroke:#4d4d4d;stroke-width:0.92824537;stroke-linecap:butt;stroke-linejoin:miter;stroke-miterlimit:4;stroke-opacity:1;stroke-dasharray:none;stroke-dashoffset:0;marker:none;visibility:visible;display:inline;overflow:visible;enable-background:accumulate"
           d="m 114.21875,85.65625 c -0.15052,0.04954 -0.31109,0.336985 -0.59375,1 l -2,4.6875 -4.78125,3.34375 -0.25,3.625 -0.23261,1.99657 c -0.16315,1.23293 -0.20606,1.47738 0.68818,0.77834 0.45544,-0.48237 0.87926,-1.03922 1.48193,-1.24366 0.55802,-0.189295 1.20403,-0.118479 1.78125,0 0.56792,0.145494 1.01957,0.28322 1.49995,0.5 0.34035,0.15359 0.67115,0.32826 0.96875,0.5625 0.0583,0.0341 0.1002,0.0871 0.15625,0.125 0.341,0.23053 0.63499,0.51896 0.9375,0.8125 0.0579,0.0562 0.12934,0.10062 0.1875,0.15625 0.0176,0.0137 0.0448,0.0178 0.0625,0.0312 0.25425,0.19322 0.5145,0.36201 0.8125,0.46875 1.31273,0.47022 2.71006,0.53127 4.125,0.53125 0.67786,-0.0845 1.36439,-0.1823 2.03125,-0.1875 2.2173,-0.0173 4.64352,-0.006 6.65625,0 l 0.3438,-0.3437 c 0.60058,-0.6006 0.53125,-1.46678 0.53125,-2.1875 0,-0.720717 -0.53612,-2.363274 -0.65625,-2.84375 -0.12011,-0.480478 -1.09375,-2.875 -1.09375,-2.875 0,0 0.73157,-2.12657 1.5625,-2.78125 0.68689,-0.541204 1.76791,-0.292121 2.53125,-0.71875 0.55663,-0.311091 0.95694,-0.731071 1.21875,-1.3125 0.12537,-0.278419 0.33605,-0.702417 0.3125,-1.09375 0.0279,-0.793958 -0.67903,-0.206871 -1.28125,0.03125 -0.6366,0.308063 -1.38863,0.289394 -2.09375,0.34375 -2.31543,0.178494 -4.67179,0.342184 -6.96875,0 -2.0696,-0.308314 -4.18382,-0.861247 -6.03125,-1.84375 -1.30996,-0.637405 -1.5751,-1.671498 -1.90625,-1.5625 z"
           transform="matrix(4.475833,0,0,4.475833,-534.90187,-379.53381)"
           id="path11079-0-4"
           inkscape:connector-curvature="0"
           sodipodi:nodetypes="sccccccscaccccccccccsccsssccsscs" />
        <path
           style="color:#000000;fill:#FF52A2;fill-opacity:1;fill-rule:nonzero;stroke:#4d4d4d;stroke-width:4.15467119;stroke-linecap:butt;stroke-linejoin:miter;stroke-miterlimit:4;stroke-opacity:1;stroke-dasharray:none;stroke-dashoffset:0;marker:none;visibility:visible;display:inline;overflow:visible;enable-background:accumulate"
           d="m -61.170072,16.642648 c -1.3752,0.58692 -2.5141,1.81743 -3.1948,3.14872 -1.5176,2.96804 -2.181,6.61681 -1.5207,9.88428 0.6814,3.37171 2.7632,6.58881 5.4067,8.78992 3.2371,2.69545 8.399,2.05621 11.7851,4.56198 3.6272,2.68422 8.3636,8.36363 8.3636,10.64462 0,2.28098 3.2258,6.08263 6.6473,9.12395 3.4215,3.04132 9.6136,6.10483 15.0221,7.6033 10.8018003,2.99272 22.3319003,2.61511 33.5389,2.41935 7.2661,-0.12692 15.5946,0.33405 21.6773,-2.32711 6.0826,-2.66115 6.2751,-3.54145 7.8912,-6.55504 2.349,-4.3804 0.8659,-9.90896 1.5898,-14.82643 0.5822,-3.95434 1.7745,-7.81215 2.2118,-11.78512 0.3406,-3.09413 4.4968,-7.05215 0.315,-9.33314 -4.1818,-2.28099 -9.8637,-0.39011 -16.8465,-0.65854 -6.9828,-0.26843 -17.5257,-0.0384 -26.0738997,-1.7091 -8.7707,-1.71418 -17.8097003,-3.80256 -25.4441003,-8.44796 -2.0692,-1.25909 -2.8693,-4.42407 -5.203,-5.07259 -3.1752,-0.88235 -4.7379,4.7154 -7.9406,5.99789 -2.9089,1.1649 -7.9908,-0.68592 -10.9642,-0.34154 -3.2729,0.37905 -6.2042,-1.16447 -9.3467,-1.34409 -2.6349,-0.15061 -5.4869,-0.8093 -7.9143,0.22665 z"
           id="path10980-3-2"
           inkscape:connector-curvature="0"
           sodipodi:nodetypes="aaaaassaasaaaszaasssaa" />
      </g>
      <g
         transform="matrix(0.22340209,0,0,0.22340209,234.91154,492.27946)"
         id="g12395-7-4">
        <text
           xml:space="preserve"
           style="font-size:49.23857116999999300px;font-style:normal;font-variant:normal;font-weight:normal;font-stretch:normal;text-indent:0;text-align:start;text-decoration:none;line-height:125%;letter-spacing:0px;word-spacing:0px;text-transform:none;direction:ltr;block-progression:tb;writing-mode:lr-tb;text-anchor:start;baseline-shift:baseline;color:#000000;fill:#000000;fill-opacity:1;fill-rule:nonzero;stroke:none;marker:none;visibility:visible;display:inline;overflow:visible;enable-background:accumulate;font-family:Poppins;-inkscape-font-specification:Poppins"
           x="819.70514"
           y="71.8834"
           id="text11162-14-4-6"
           sodipodi:linespacing="125%"><tspan
             sodipodi:role="line"
             id="tspan11164-2-6-7"
             x="819.70514"
             y="71.8834">T1</tspan></text>
        <path
           style="color:#000000;fill:none;stroke:#4d4d4d;stroke-width:3.58098722;stroke-linecap:butt;stroke-linejoin:miter;stroke-miterlimit:4;stroke-opacity:1;stroke-dasharray:none;stroke-dashoffset:0;marker:none;visibility:visible;display:inline;overflow:visible;enable-background:accumulate"
           d="m 634.28571,47.362182 159.47586,6.603596"
           id="path11788-3-9"
           inkscape:connector-curvature="0"
           sodipodi:nodetypes="cc" />
      </g>
    </g>
  </g>
</svg>
