<?xml version="1.0" encoding="UTF-8" standalone="no"?>
<!-- Created with Inkscape (http://www.inkscape.org/) -->

<svg
   xmlns:dc="http://purl.org/dc/elements/1.1/"
   xmlns:cc="http://creativecommons.org/ns#"
   xmlns:rdf="http://www.w3.org/1999/02/22-rdf-syntax-ns#"
   xmlns:svg="http://www.w3.org/2000/svg"
   xmlns="http://www.w3.org/2000/svg"
   xmlns:sodipodi="http://sodipodi.sourceforge.net/DTD/sodipodi-0.dtd"
   xmlns:inkscape="http://www.inkscape.org/namespaces/inkscape"
   width="220"
   height="375"
   id="svg5704"
   version="1.1"
   inkscape:version="0.48.5 r10040"
   sodipodi:docname="Spine_green_t11.svg">
  <defs
     id="defs5706" />
  <sodipodi:namedview
     id="base"
     pagecolor="#ffffff"
     bordercolor="#666666"
     borderopacity="1.0"
     inkscape:pageopacity="0.0"
     inkscape:pageshadow="2"
     inkscape:zoom="4"
     inkscape:cx="142.69121"
     inkscape:cy="186.3096"
     inkscape:document-units="px"
     inkscape:current-layer="g12592-3-1"
     showgrid="false"
     inkscape:window-width="1280"
     inkscape:window-height="961"
     inkscape:window-x="-8"
     inkscape:window-y="-8"
     inkscape:window-maximized="1" />
  <metadata
     id="metadata5709">
    <rdf:RDF>
      <cc:Work
         rdf:about="">
        <dc:format>image/svg+xml</dc:format>
        <dc:type
           rdf:resource="http://purl.org/dc/dcmitype/StillImage" />
        <dc:title></dc:title>
      </cc:Work>
    </rdf:RDF>
  </metadata>
  <g
     inkscape:label="Capa 1"
     inkscape:groupmode="layer"
     id="layer1"
     transform="translate(0,-677.36218)">
    <g
       id="g6147"
       transform="translate(-249.00368,269.90451)">
      <g
         id="g12592-3-1"
         transform="matrix(0.2234221,0,0,0.2234221,368.51258,492.25391)"
         style="color:#000000;fill:#FF52A2;fill-opacity:1;fill-rule:nonzero;stroke:#4d4d4d;stroke-width:4.15467119;stroke-linecap:butt;stroke-linejoin:miter;stroke-miterlimit:4;stroke-opacity:1;stroke-dasharray:none;stroke-dashoffset:0;marker:none;visibility:visible;display:inline;overflow:visible;enable-background:accumulate">
        <path
           style="color:#000000;fill:#FF52A2;fill-opacity:1;fill-rule:nonzero;stroke:#4d4d4d;stroke-width:4.15467119;stroke-linecap:butt;stroke-linejoin:miter;stroke-miterlimit:4;stroke-opacity:1;stroke-dasharray:none;stroke-dashoffset:0;marker:none;visibility:visible;display:inline;overflow:visible;enable-background:accumulate"
           d="m -145.72807,662.31618 c 1.416,-4.1162 9.527,-2.5769 13.8212,-4.9158 6.5832,-3.5855 11.8469,-9.189 17.8247,-13.7122 5.4165,-4.0985 10.1536,-9.3768 16.347098,-12.1653 5.0763,-2.2855 10.7901,-3.756 16.3471,-3.4215 8.2802,0.4985 18.0955,1.7515 23.5702,7.9835 2.1323,2.4272 3.148,6.5237 1.9008,9.5041 -1.8723,4.4743 -7.5971,6.3531 -12.1652,7.9834 -6.8404,2.4415 -14.7956,-0.065 -21.6694,2.281 -6.6234,2.2603 -11.237198,8.7859 -17.867798,11.0248 -6.7976,2.2953 -14.2461,2.2388 -21.4197,2.1156 -4.7168,-0.081 -10.1313,0.7854 -14.0279,-1.8738 -1.512,-1.0318 -3.4958,-2.3774 -2.6611,-4.8038 z"
           id="path11051-1-8"
           inkscape:connector-curvature="0"
           sodipodi:nodetypes="saaaaaaaaaaas" />
        <path
           style="color:#000000;fill:#FF52A2;fill-opacity:1;fill-rule:nonzero;stroke:#4d4d4d;stroke-width:0.92824537;stroke-linecap:butt;stroke-linejoin:miter;stroke-miterlimit:4;stroke-opacity:1;stroke-dasharray:none;stroke-dashoffset:0;marker:none;visibility:visible;display:inline;overflow:visible;enable-background:accumulate"
           d="m 103.21875,219.1875 c -1.14034,0.68513 -2.6186,0.71515 -3.9375,0.9375 -1.004528,-0.004 -0.526301,0.42065 -0.15625,1 0.665708,1.3564 0.47002,3.02257 1,4.4375 0.33764,0.90146 0.80192,1.75781 1.375,2.53125 1.09651,1.47986 3.15691,2.22373 3.90625,3.90625 0.43831,0.98415 0.0313,2.17992 0.15625,3.25 0.0331,0.28382 0.10075,0.5687 0.15625,0.84375 0.68912,0.0329 1.38508,0.11769 2,0.21875 0.50775,-0.34736 1.08946,-0.62976 1.65625,-0.84375 0.69062,-0.26078 1.45206,-0.34513 2.1875,-0.28125 1.00303,0.0871 1.58493,0.666 2.90625,0.90625 0.18388,0.0334 0.52246,0.10688 0.75,0.15625 -1.39011,-4.46331 -3.18903,-8.81756 -5.40625,-12.90625 -0.20835,-0.3842 -0.44505,-0.76256 -0.6875,-1.125 l -0.0937,0 c 0,0 -3.27459,-1.60225 -3.9375,-2 -0.64071,-0.38441 -1.6483,-0.98932 -1.875,-1.03125 z"
           transform="matrix(4.475833,0,0,4.475833,-534.90187,-379.53381)"
           id="path11071-2-2"
           inkscape:connector-curvature="0"
           sodipodi:nodetypes="ccccsscccccccscccc" />
        <path
           style="color:#000000;fill:#FF52A2;fill-opacity:1;fill-rule:nonzero;stroke:#4d4d4d;stroke-width:0.92824537;stroke-linecap:butt;stroke-linejoin:miter;stroke-miterlimit:4;stroke-opacity:1;stroke-dasharray:none;stroke-dashoffset:0;marker:none;visibility:visible;display:inline;overflow:visible;enable-background:accumulate"
           d="m 101.60727,220.3047 c 0.82323,1.08713 1.77639,2.27811 2.26773,3.5078 1.18499,2.96569 1,3.59375 1,3.59375 0,0 1.42799,3.98057 2.21875,5.9375 0.28737,0.71115 0.71689,1.71962 1.125,2.65625 0.3781,-0.19902 0.77159,-0.38602 1.15625,-0.53125 0.69062,-0.26078 1.45206,-0.34513 2.1875,-0.28125 0.011,9.6e-4 0.0203,-0.001 0.0312,0 l -0.84375,-2.3125 -3.1875,-6.25 c 0,0 -0.46608,-2.98835 -1.4375,-6.65625 -0.2992,-0.22251 -0.557,-0.426 -0.8125,-0.59375 -0.0697,-0.0456 -0.12261,-0.0859 -0.1875,-0.125 -0.0461,-0.0284 -0.0813,-0.0376 -0.125,-0.0625 -0.0962,-0.0549 -0.19881,-0.0898 -0.28125,-0.125 -0.11985,-0.0512 -0.22753,-0.0937 -0.3125,-0.0937 -0.63064,0 -1.54995,0.013 -2.40625,-0.0937 -0.63977,-0.0323 -1.351,0.11983 -0.39273,1.4297 z"
           transform="matrix(4.475833,0,0,4.475833,-534.90187,-379.53381)"
           id="path11104-9-6"
           inkscape:connector-curvature="0"
           sodipodi:nodetypes="cscscccccccccccsccc" />
        <path
           style="color:#000000;fill:#FF52A2;fill-opacity:1;fill-rule:nonzero;stroke:#4d4d4d;stroke-width:0.92824537;stroke-linecap:butt;stroke-linejoin:miter;stroke-miterlimit:4;stroke-opacity:1;stroke-dasharray:none;stroke-dashoffset:0;marker:none;visibility:visible;display:inline;overflow:visible;enable-background:accumulate"
           d="m 104.1875,218.96875 0,0.90625 2.40625,10.4375 c 0,0 1.90428,1.79882 2.625,3 0.4512,0.75201 0.46112,1.40807 0.5625,2.03125 0.57933,-0.15814 1.18693,-0.20787 1.78125,-0.15625 1.00303,0.0871 1.58493,0.666 2.90625,0.90625 1.3213,0.24022 3.88737,0.94464 5.875,1.1875 3.03367,0.37072 6.11579,0.68524 9.15625,0.375 1.72129,-0.17563 3.97838,-0.85304 5.09375,-1.15625 0.94915,-0.25802 1.09754,-0.61058 1.4375,-0.5625 0.12675,-0.58191 0.22775,-1.04049 0.28125,-1.34375 0.16754,-0.94963 -0.78125,-1.99315 -0.78125,-2.59375 0,-0.60058 -1.5625,-0.59375 -1.5625,-0.59375 l -3.84375,-3.25 1.6875,-2.28125 0.25,-1.5625 c 0,0 0.16326,-1.98642 -0.375,-2.71875 -0.14138,-0.19235 -0.34898,-0.36987 -0.59489,-0.53097 -0.37798,-0.30967 -0.62041,-0.17263 -0.99886,0.46847 -0.26806,0.30817 -0.68579,0.46722 -1.0625,0.625 -0.85296,0.35727 -1.61152,0.44973 -2.6875,0.71875 -1.92192,0.48047 -5.41115,1.14912 -8.15625,1.0625 -2.89611,-0.0914 -5.83816,-0.58706 -8.53125,-1.65625 -1.92208,-0.76305 -4.40917,-3.3125 -5.25,-3.3125 -0.0601,0 -0.15382,-4.3e-4 -0.21875,0 z"
           transform="matrix(4.475833,0,0,4.475833,-534.90187,-379.53381)"
           id="path11079-0-4"
           inkscape:connector-curvature="0"
           sodipodi:nodetypes="ccccccccsscssccccsccccscsc" />
        <path
           style="color:#000000;fill:#FF52A2;fill-opacity:1;fill-rule:nonzero;stroke:#4d4d4d;stroke-width:4.15467119;stroke-linecap:butt;stroke-linejoin:miter;stroke-miterlimit:4;stroke-opacity:1;stroke-dasharray:none;stroke-dashoffset:0;marker:none;visibility:visible;display:inline;overflow:visible;enable-background:accumulate"
           d="m -61.595172,620.39938 c -4.5272,0.6232 -9.464,2.7163 -12.0968,6.4516 -2.818,3.9982 -3.6148,9.8489 -2.1505,14.5161 1.2524,3.9919 4.8643,7.2603 8.6021,9.1398 4.8359,2.4316 10.8554,0.6623 16.129,1.8817 4.9977,1.1556 9.9094,2.8515 14.5162,5.1076 4.3081,2.1098 7.6477,6.0018 12.0968,7.7956 14.6521003,5.9078 30.7082003,8.9452 46.5053,9.1399 13.8169,0.1702 28.0046,-1.923 40.8602,-6.9893 3.4915,-1.3759 8.283,-2.6029 9.4086,-6.1829 1.5036,-4.782 -3.6097,-9.3555 -5.5799,-13.9649 -1.9759,-4.6227 -5.7183,-8.8844 -6.2559,-13.7231 -0.5377,-4.8387 0.8824,-14.8191 -3.6386,-16.2596 -1.898,-0.6047 -4.558263,4.00673 -7.432486,5.82138 -4.666213,2.94603 -9.862028,6.28709 -15.430514,7.73412 -16.307715,4.23773 -33.83609973,4.7126 -50.4994,2.2158 -7.1967,-1.0783 -16.5153,-7.0609 -20.5718,-7.3075 -8.2387,-0.5007 -16.1916,-6.5149 -24.4623,-5.3763 z"
           id="path49948-8-6"
           inkscape:connector-curvature="0"
           sodipodi:nodetypes="aaaaaaaaasasssaasa" />
      </g>
      <g
         transform="matrix(0.22340209,0,0,0.22340209,234.91154,492.27946)"
         id="g12450-3-1">
        <text
           xml:space="preserve"
           style="font-size:49.23857116999999300px;font-style:normal;font-variant:normal;font-weight:normal;font-stretch:normal;text-indent:0;text-align:start;text-decoration:none;line-height:125%;letter-spacing:0px;word-spacing:0px;text-transform:none;direction:ltr;block-progression:tb;writing-mode:lr-tb;text-anchor:start;baseline-shift:baseline;color:#000000;fill:#000000;fill-opacity:1;fill-rule:nonzero;stroke:none;marker:none;visibility:visible;display:inline;overflow:visible;enable-background:accumulate;font-family:Poppins;-inkscape-font-specification:Poppins"
           x="819.70514"
           y="675.9657"
           id="text11162-14-277-4-8"
           sodipodi:linespacing="125%"><tspan
             sodipodi:role="line"
             id="tspan11164-2-93-1-3"
             x="819.70514"
             y="675.9657">T12</tspan></text>
        <path
           style="color:#000000;fill:none;stroke:#4d4d4d;stroke-width:3.58098722;stroke-linecap:butt;stroke-linejoin:miter;stroke-miterlimit:4;stroke-opacity:1;stroke-dasharray:none;stroke-dashoffset:0;marker:none;visibility:visible;display:inline;overflow:visible;enable-background:accumulate"
           d="m 648.57143,646.6479 145.19014,10.72434"
           id="path11810-0-3"
           inkscape:connector-curvature="0"
           sodipodi:nodetypes="cc" />
      </g>
    </g>
  </g>
</svg>
