<?xml version="1.0" encoding="UTF-8" standalone="no"?>
<!-- Created with Inkscape (http://www.inkscape.org/) -->

<svg
   xmlns:dc="http://purl.org/dc/elements/1.1/"
   xmlns:cc="http://creativecommons.org/ns#"
   xmlns:rdf="http://www.w3.org/1999/02/22-rdf-syntax-ns#"
   xmlns:svg="http://www.w3.org/2000/svg"
   xmlns="http://www.w3.org/2000/svg"
   xmlns:sodipodi="http://sodipodi.sourceforge.net/DTD/sodipodi-0.dtd"
   xmlns:inkscape="http://www.inkscape.org/namespaces/inkscape"
   width="220"
   height="375"
   id="svg5704"
   version="1.1"
   inkscape:version="0.48.5 r10040"
   sodipodi:docname="Spine_green_l1.svg">
  <defs
     id="defs5706" />
  <sodipodi:namedview
     id="base"
     pagecolor="#ffffff"
     bordercolor="#666666"
     borderopacity="1.0"
     inkscape:pageopacity="0.0"
     inkscape:pageshadow="2"
     inkscape:zoom="4"
     inkscape:cx="159.41149"
     inkscape:cy="135.70498"
     inkscape:document-units="px"
     inkscape:current-layer="g12592-3-1"
     showgrid="false"
     inkscape:window-width="1280"
     inkscape:window-height="961"
     inkscape:window-x="-8"
     inkscape:window-y="-8"
     inkscape:window-maximized="1" />
  <metadata
     id="metadata5709">
    <rdf:RDF>
      <cc:Work
         rdf:about="">
        <dc:format>image/svg+xml</dc:format>
        <dc:type
           rdf:resource="http://purl.org/dc/dcmitype/StillImage" />
        <dc:title></dc:title>
      </cc:Work>
    </rdf:RDF>
  </metadata>
  <g
     inkscape:label="Capa 1"
     inkscape:groupmode="layer"
     id="layer1"
     transform="translate(0,-677.36218)">
    <g
       id="g6147"
       transform="translate(-249.00368,269.90451)">
      <g
         id="g12592-3-1"
         transform="matrix(0.2234221,0,0,0.2234221,368.51258,492.25391)"
         style="color:#000000;fill:#FF52A2;fill-opacity:1;fill-rule:nonzero;stroke:#4d4d4d;stroke-width:4.15467119;stroke-linecap:butt;stroke-linejoin:miter;stroke-miterlimit:4;stroke-opacity:1;stroke-dasharray:none;stroke-dashoffset:0;marker:none;visibility:visible;display:inline;overflow:visible;enable-background:accumulate">
        <path
           style="color:#000000;fill:#FF52A2;fill-opacity:1;fill-rule:nonzero;stroke:#4d4d4d;stroke-width:4.15467119;stroke-linecap:butt;stroke-linejoin:miter;stroke-miterlimit:4;stroke-opacity:1;stroke-dasharray:none;stroke-dashoffset:0;marker:none;visibility:visible;display:inline;overflow:visible;enable-background:accumulate"
           d="m -59.107772,721.54878 c 0,0 -8.6244,13.738 -13.9166,19.8417 -5.5793,6.4349 -12.3176,11.768 -18.6281,17.4876 -3.9923,3.6187 -9.611598,5.8999 -12.165198,10.6447 -1.3335,2.4776 -2.3881,5.8416 -1.1405,8.3636 1.2434,2.5136 4.7405,3.0438 7.315298,4.1548 2.405,1.0376 4.9177,2.6745 7.5111,2.308 3.451,-0.4878 6.0071,-6.5694 8.7345,-8.92 3.0945,-2.667 6.3323,-1.6895 9.9476,-3.2914 4.533,-2.0085 9.5351,-2.7605 14.3923,-3.7555 7.5319,-1.5431 17.4875,-0.7604 22.8098,-3.4215 5.3224,-2.6612 28.5744003,-1.9312 28.5744003,-1.9312 0,0 -18.3099003,-20.1184 -22.4917003,-22.7795 -4.1818,-2.6612 3.6679,-14.5465 -2.0346,-16.0671 -5.7024,-1.5207 -28.9083,-2.6342 -28.9083,-2.6342 z"
           id="path11055-0-8"
           inkscape:connector-curvature="0"
           sodipodi:nodetypes="caaaaasssascssc" />
        <path
           style="color:#000000;fill:#FF52A2;fill-opacity:1;fill-rule:nonzero;stroke:#4d4d4d;stroke-width:0.92824537;stroke-linecap:butt;stroke-linejoin:miter;stroke-miterlimit:4;stroke-opacity:1;stroke-dasharray:none;stroke-dashoffset:0;marker:none;visibility:visible;display:inline;overflow:visible;enable-background:accumulate"
           d="m 107.12273,243.42404 c -0.0945,1.30301 -0.40328,2.62093 -0.0289,3.85721 0.23668,0.78161 0.97467,1.3507 1.375,2.0625 0.45945,0.81697 0.98448,1.61618 1.1875,2.53125 0.38018,1.71369 0,3.52587 0,5.28125 l 0,3.90625 0,1.09375 c 0.41349,-0.0941 0.89649,-0.11677 1.25,-0.375 0.37054,-0.27068 0.5314,-0.66359 0.84375,-0.96875 0.55393,-0.54115 1.3389,-0.82718 2.09375,-1 1.13188,-0.25912 2.34678,-0.13557 3.5,0 0.44037,0.0518 0.91101,0.0927 1.375,0.15625 -0.33578,-2.2312 -0.67355,-4.47528 -0.90625,-6.71875 -0.25682,-2.47601 -0.14488,-4.99472 -0.375,-7.46875 -1.09618,-0.66976 -2.16432,-1.48791 -2.75,-1.90625 -0.3885,-0.2775 -0.8782,-0.36979 -1.40625,-0.40625 -0.30273,0.007 -0.63461,0.0382 -0.90625,0.0312 -1.22576,-0.0315 -2.46001,-0.24256 -3.625,-0.625 -1.38966,-0.50391 -1.55551,-0.89638 -1.62732,0.54909 z"
           transform="matrix(4.475833,0,0,4.475833,-534.90187,-379.53381)"
           id="path11071-2-2"
           inkscape:connector-curvature="0"
           sodipodi:nodetypes="csccsccsccccscscscc" />
        <path
           style="color:#000000;fill:#FF52A2;fill-opacity:1;fill-rule:nonzero;stroke:#4d4d4d;stroke-width:0.92824537;stroke-linecap:butt;stroke-linejoin:miter;stroke-miterlimit:4;stroke-opacity:1;stroke-dasharray:none;stroke-dashoffset:0;marker:none;visibility:visible;display:inline;overflow:visible;enable-background:accumulate"
           d="m 111.4375,243.4375 0.25,4.03125 c 0,0 1.68481,3.19349 2.03125,4.9375 0.14328,0.72132 0,1.45206 0,2.1875 0,1.58489 -0.13575,3.17092 0,4.75 0.0132,0.15389 0.0396,0.31533 0.0625,0.46875 0.0195,-0.005 0.043,0.004 0.0625,0 0.94989,-0.21746 1.95994,-0.16499 2.9375,-0.0625 0.14864,-0.34904 0.29106,-0.69525 0.34375,-1.0625 0.13685,-0.95374 0.24516,-1.97447 0,-2.90625 -0.38022,-1.44527 -1.90801,-2.44447 -2.21875,-3.90625 -0.2484,-1.16861 0.34375,-3.5625 0.34375,-3.5625 l 0,-3.75 -0.21875,-0.4375 c -0.0949,-0.0694 -0.2648,-0.1936 -0.34375,-0.25 -0.3885,-0.2775 -0.8782,-0.36979 -1.40625,-0.40625 -0.30273,0.007 -0.63461,0.0382 -0.90625,0.0312 -0.31648,-0.008 -0.62123,-0.0306 -0.9375,-0.0625 z"
           transform="matrix(4.475833,0,0,4.475833,-534.90187,-379.53381)"
           id="path11104-9-6"
           inkscape:connector-curvature="0"
           sodipodi:nodetypes="ccssscccccccccccscc" />
        <path
           style="color:#000000;fill:#FF52A2;fill-opacity:1;fill-rule:nonzero;stroke:#4d4d4d;stroke-width:0.92824537;stroke-linecap:butt;stroke-linejoin:miter;stroke-miterlimit:4;stroke-opacity:1;stroke-dasharray:none;stroke-dashoffset:0;marker:none;visibility:visible;display:inline;overflow:visible;enable-background:accumulate"
           d="m 113.15625,243.46875 c 0.10403,0.28031 0.40625,1.125 0.40625,1.125 l 3.28125,6.90625 c 0,0 0.7285,6.97654 0.96875,7.9375 0.0116,0.0465 0.0456,0.34708 0.0625,0.4375 1.80415,0.21861 3.81108,0.51478 5.125,1.28125 1.44143,0.84083 4.3516,1.23376 6.59375,1.4375 2.48769,0.22604 6.29882,-0.01 7.5,-0.25 1.20121,-0.24025 3.32518,-0.83203 4.40625,-1.3125 0.51038,-0.26809 0.74344,-0.54327 0.96875,-0.96875 0.32096,-0.60611 0.22945,-0.90454 0.0312,-1.375 -0.22809,-0.54144 -1.25,-1.21875 -1.25,-1.21875 l -2.21875,-2.78125 -0.96875,-2.875 2.15625,-2.28125 0.59375,-2.03125 c 0,0 -0.0461,-1.50548 -0.46875,-2.0625 -0.0975,-0.12853 -0.21297,-0.24818 -0.34005,-0.36572 -0.23284,-0.27169 -0.64732,-0.15364 -1.17247,0.2029 -0.24062,0.12719 -0.42498,0.19407 -0.42498,0.19407 0,0 -3.4528,1.70576 -5.3125,2.0625 -3.16897,0.60786 -6.44972,0.45435 -9.65625,0.0937 -1.55567,-0.17496 -3.15169,-0.48448 -4.59375,-1.09375 -1.51366,-0.63955 -3.3154,-2.05565 -4.15625,-2.65625 -0.42041,-0.3003 -0.95694,-0.3715 -1.53125,-0.40625 z"
           transform="matrix(4.475833,0,0,4.475833,-534.90187,-379.53381)"
           id="path11079-0-4"
           inkscape:connector-curvature="0"
           sodipodi:nodetypes="ccccccsccsccccccscccsscccc" />
        <path
           style="color:#000000;fill:#FF52A2;fill-opacity:1;fill-rule:nonzero;stroke:#4d4d4d;stroke-width:4.15467119;stroke-linecap:butt;stroke-linejoin:miter;stroke-miterlimit:4;stroke-opacity:1;stroke-dasharray:none;stroke-dashoffset:0;marker:none;visibility:visible;display:inline;overflow:visible;enable-background:accumulate"
           d="m -15.627472,729.80788 c -8.2737,-0.1352 -17.0157,-0.8401 -24.7312,2.1506 -3.576,1.3862 -7.4241,3.5591 -9.1397,6.9892 -1.4277,2.8544 -1.6043,6.7634 -0.092,9.574 3.1998,5.9478 10.8118,8.3292 17.0142,11.0025 5.5911,2.4098 12.0973,2.0576 17.7419,4.3392 4.414,1.7842 3.6142,7.7263 7.5982003,10.3822 3.0531,2.0354 6.1125,2.9169 13.8094,5.3779 7.6967997,2.4609 21.4379997,7.5581 32.6381997,8.2489 17.3053,1.0674 35.4377,-0.3728 51.6129,-6.4516 3.7248,-1.3998 9.677402,-5.3763 9.677402,-5.3763 0,0 -0.916502,-7.1959 -1.612902,-10.7527 -1.1694,-5.9718 -3.5791,-11.6996 -4.3011,-17.7419 -0.9567,-8.0075 3.7635,-21.5054 0,-24.1936 -3.7634,-2.6882 -22.9173,9.0181 -34.9462,11.2903 -14.4668,2.7328 -29.4884,4.603 -44.086,2.6882 -6.1809997,-0.8107 -11.6590997,-4.5499 -17.7419997,-5.914 -4.4031,-0.9873 -8.9290003,-1.5391 -13.4408003,-1.6129 z"
           id="path49942-1-8"
           inkscape:connector-curvature="0"
           sodipodi:nodetypes="aaaaasszascaasaaaa" />
      </g>
      <g
         transform="matrix(0.22340209,0,0,0.22340209,234.91154,492.27946)"
         id="g12460-2-6">
        <text
           xml:space="preserve"
           style="font-size:49.23857116999999300px;font-style:normal;font-variant:normal;font-weight:normal;font-stretch:normal;text-indent:0;text-align:start;text-decoration:none;line-height:125%;letter-spacing:0px;word-spacing:0px;text-transform:none;direction:ltr;block-progression:tb;writing-mode:lr-tb;text-anchor:start;baseline-shift:baseline;color:#000000;fill:#000000;fill-opacity:1;fill-rule:nonzero;stroke:none;marker:none;visibility:visible;display:inline;overflow:visible;enable-background:accumulate;font-family:Poppins;-inkscape-font-specification:Poppins"
           x="816.89819"
           y="784.78766"
           id="text11162-14-19-5-5-8"
           sodipodi:linespacing="125%"><tspan
             sodipodi:role="line"
             id="tspan11164-2-86-0-4-2"
             x="816.89819"
             y="784.78766">L2</tspan></text>
        <path
           style="color:#000000;fill:none;stroke:#4d4d4d;stroke-width:3.58098722;stroke-linecap:butt;stroke-linejoin:miter;stroke-miterlimit:4;stroke-opacity:1;stroke-dasharray:none;stroke-dashoffset:0;marker:none;visibility:visible;display:inline;overflow:visible;enable-background:accumulate"
           d="m 681.42857,757.36218 112.333,9.72032"
           id="path11814-1-6"
           inkscape:connector-curvature="0"
           sodipodi:nodetypes="cc" />
      </g>
    </g>
  </g>
</svg>
