<?xml version="1.0" encoding="UTF-8" standalone="no"?>
<!-- Created with Inkscape (http://www.inkscape.org/) -->

<svg
   xmlns:dc="http://purl.org/dc/elements/1.1/"
   xmlns:cc="http://creativecommons.org/ns#"
   xmlns:rdf="http://www.w3.org/1999/02/22-rdf-syntax-ns#"
   xmlns:svg="http://www.w3.org/2000/svg"
   xmlns="http://www.w3.org/2000/svg"
   xmlns:sodipodi="http://sodipodi.sourceforge.net/DTD/sodipodi-0.dtd"
   xmlns:inkscape="http://www.inkscape.org/namespaces/inkscape"
   width="220"
   height="375"
   id="svg5704"
   version="1.1"
   inkscape:version="0.48.5 r10040"
   sodipodi:docname="Spine_green_c2.svg">
  <defs
     id="defs5706" />
  <sodipodi:namedview
     id="base"
     pagecolor="#ffffff"
     bordercolor="#666666"
     borderopacity="1.0"
     inkscape:pageopacity="0.0"
     inkscape:pageshadow="2"
     inkscape:zoom="0.98994949"
     inkscape:cx="308.54828"
     inkscape:cy="223.23358"
     inkscape:document-units="px"
     inkscape:current-layer="g6147"
     showgrid="false"
     inkscape:window-width="1280"
     inkscape:window-height="961"
     inkscape:window-x="-8"
     inkscape:window-y="-8"
     inkscape:window-maximized="1"
     showguides="true"
     inkscape:guide-bbox="true" />
  <metadata
     id="metadata5709">
    <rdf:RDF>
      <cc:Work
         rdf:about="">
        <dc:format>image/svg+xml</dc:format>
        <dc:type
           rdf:resource="http://purl.org/dc/dcmitype/StillImage" />
        <dc:title></dc:title>
      </cc:Work>
    </rdf:RDF>
  </metadata>
  <g
     inkscape:label="Capa 1"
     inkscape:groupmode="layer"
     id="layer1"
     transform="translate(0,-677.36218)">
    <g
       id="g6147"
       transform="translate(-249.00368,269.90451)">
      <g
         id="g12592-3-1"
         transform="matrix(0.2234221,0,0,0.2234221,368.51258,492.25391)"
         style="color:#000000;fill:#FF52A2;fill-opacity:1;fill-rule:nonzero;stroke:#4d4d4d;stroke-width:4.15467119;stroke-linecap:butt;stroke-linejoin:miter;stroke-miterlimit:4;stroke-opacity:1;stroke-dasharray:none;stroke-dashoffset:0;marker:none;visibility:visible;display:inline;overflow:visible;enable-background:accumulate">
        <path
           style="color:#000000;fill:#FF52A2;fill-opacity:1;fill-rule:nonzero;stroke:#4d4d4d;stroke-width:0.92824537;stroke-linecap:butt;stroke-linejoin:miter;stroke-miterlimit:4;stroke-opacity:1;stroke-dasharray:none;stroke-dashoffset:0;marker:none;visibility:visible;display:inline;overflow:visible;enable-background:accumulate"
           d="m 111.875,28.21875 c -0.34733,0.0151 -0.90911,0.02507 -1.4375,0.03125 0.15673,0.717347 0.34073,1.432331 0.5625,2.125 0.6488,2.026443 2.25457,3.704729 2.71875,5.78125 0.12675,1.335108 -0.007,1.860323 1.1875,2.25 1.78983,0.483008 3.67798,0.484582 5.53125,0.53125 1.27731,0.03216 2.56771,-0.159021 3.84375,-0.25 -0.36395,-3.312315 -0.80196,-6.732445 -1.21875,-10.03125 -2.17747,-0.12478 -9.41091,-0.514742 -11.1875,-0.4375 z"
           transform="matrix(4.475833,0,0,4.475833,-534.90187,-379.53381)"
           id="path11071-2-2"
           inkscape:connector-curvature="0"
           sodipodi:nodetypes="scsccsccs" />
        <path
           style="color:#000000;fill:#FF52A2;fill-opacity:1;fill-rule:nonzero;stroke:#4d4d4d;stroke-width:0.92824537;stroke-linecap:butt;stroke-linejoin:miter;stroke-miterlimit:4;stroke-opacity:1;stroke-dasharray:none;stroke-dashoffset:0;marker:none;visibility:visible;display:inline;overflow:visible;enable-background:accumulate"
           d="m 118.84621,25.471999 c -1.96375,3.061559 0.56641,7.539808 2.45066,10.66193 0.29879,0.495066 0.82721,0.820767 1.31473,1.131696 2.16327,1.379655 4.22583,2.400521 7.0134,3.171875 2.09997,0.58109 4.26383,0.880748 6.4375,1.03125 1.24749,0.08637 2.78043,-0.355055 3.9375,-0.4375 0.50474,-0.133397 1.04296,-0.329755 1.3125,-0.625 0.3339,-0.365771 0.46824,-0.958126 0.34375,-1.4375 -0.22074,-0.849942 -1.30076,-1.697277 -1.78125,-1.9375 -0.48047,-0.240246 -2.28125,-1.65625 -2.28125,-1.65625 l -0.625,-2.53125 0.9375,-2.6875 0.68024,-2.951063 c 0,0 0.24065,-0.07822 0.60101,-0.798937 0.36036,-0.720715 -0.0891,-1.388716 -0.25,-1.21875 -1.20091,0.58789 -4.31311,1.582325 -6.31245,1.8125 -2.60133,0.271692 -5.26984,0.18324 -7.84375,-0.28125 -2.03495,-0.367228 -5.1963,-1.416323 -5.1963,-1.416323 0,0 -0.60238,-0.0431 -0.73879,0.169572 z"
           transform="matrix(4.475833,0,0,4.475833,-534.90187,-379.53381)"
           id="path11079-0-4"
           inkscape:connector-curvature="0"
           sodipodi:nodetypes="saassccccccccsccscs" />
        <path
           style="color:#000000;fill:#FF52A2;fill-opacity:1;fill-rule:nonzero;stroke:#4d4d4d;stroke-width:4.15467119;stroke-linecap:butt;stroke-linejoin:miter;stroke-miterlimit:4;stroke-opacity:1;stroke-dasharray:none;stroke-dashoffset:0;marker:none;visibility:visible;display:inline;overflow:visible;enable-background:accumulate"
           d="m -74.229572,-241.69739 c -2.5405,1.93053 -5.5489,4.35707 -5.914,7.52689 -0.3394,2.94699 1.202,6.56819 3.7634,8.06451 4.0352,2.35724 9.5949,0.5444 13.9785,-1.07527 5.4134,-2.00015 8.555,-8.24254 13.9785,-10.21505 2.5319,-0.92084 5.7521,-1.92002 8.0645,-0.53764 1.8587,1.11109 1.652,4.01259 2.6882,5.91398 1.4273,2.61899 2.6883,5.46 4.8387,7.52688 2.5484,2.44935 5.7443,4.39451 9.1398,5.37635 5.5118,1.59378 11.5124,1.26023 17.2043003,0.53763 8.8892,-1.12851 25.8064997,-7.52688 25.8064997,-7.52688 l 0,-10.75269 c 0,0 -3.1269,-12.7521 -7.5269,-17.2043 -4.2849997,-4.33572 -10.6702997,-6.43022 -16.6666997,-7.52688 -5.6522003,-1.03371 -11.4788003,1.55929 -17.2043003,1.07527 -3.1187,-0.26364 -6.0643,-1.57023 -9.1398,-2.15054 -1.2452,-0.23496 -2.5373,-0.85786 -3.7634,-0.53763 -3.7108,0.9692 -6.068,4.6928 -9.1398,6.98925 -4.6222,3.45553 -8.6588,7.97773 -13.9785,10.21505 -3.0145,1.26783 -6.5344,0.70923 -9.6774,1.6129 -2.2391,0.64377 -4.5967,1.27859 -6.4516,2.68817 z"
           id="path11019-7-7"
           inkscape:connector-curvature="0"
           sodipodi:nodetypes="aaaaaaaaaaccaaaaaaaaa" />
        <path
           style="color:#000000;fill:#FF52A2;fill-opacity:1;fill-rule:nonzero;stroke:#4d4d4d;stroke-width:4.15467119;stroke-linecap:butt;stroke-linejoin:miter;stroke-miterlimit:4;stroke-opacity:1;stroke-dasharray:none;stroke-dashoffset:0;marker:none;visibility:visible;display:inline;overflow:visible;enable-background:accumulate"
           d="m 86.835028,-256.7325 c 2.17,5.75328 -0.7878,12.29291 -0.5703,18.438 0.1104,3.11885 -0.1518,6.39436 0.9504,9.31404 1.7326,4.58932 7.2371,7.24975 8.5538,11.9752 0.6652,2.38743 0.9667,5.46897 -0.5703,7.41321 -3.0942,3.91413 -9.3152,3.86858 -14.2562,4.56198 -10.1697,1.42717 -30.7933,-0.95041 -30.7933,-0.95041 0,0 -14.6751,-1.28743 -21.6694,-3.42149 -7.7543,-2.36595 -20.9090997,-6.84296 -22.0495997,-10.26445 -1.1405,-3.42148 -4.1818,-12.54544 -5.3223,-15.58676 -1.14050003,-3.04132 -4.9422,-17.10742 -4.9422,-20.52891 0,-3.42148 -3.0413,-12.16527 1.1405,-13.68593 4.1819,-1.52066 0.956,-0.73332 9.6998,4.96916 8.7437997,5.70247 27.5563997,8.71677 32.8786997,9.4771 5.3223,0.76033 17.4876,1.52066 23.9504,-0.38016 6.4628,-1.90083 21.2052,-3.24828 21.2052,-3.24828 0,0 1.4858,1.09852 1.7948,1.9177 z"
           id="path11007-1-4"
           inkscape:connector-curvature="0"
           sodipodi:nodetypes="aaaaaacssssssssca" />
        <path
           style="color:#000000;fill:#FF52A2;fill-opacity:1;fill-rule:nonzero;stroke:#4d4d4d;stroke-width:4.15467119;stroke-linecap:butt;stroke-linejoin:miter;stroke-miterlimit:4;stroke-opacity:1;stroke-dasharray:none;stroke-dashoffset:0;marker:none;visibility:visible;display:inline;overflow:visible;enable-background:accumulate"
           d="m 2.9710283,-255.13267 c 1.7117,1.0061 5.6613,3.8202 8.2163997,6.0714 1.9895,1.7529 4.5088,3.29 5.4956,5.751 1.0672,2.6614 1.0973,5.953 0,8.6021 -1.0668,2.5757 -3.7309,4.1801 -5.9139,5.914 -1.7802997,1.414 -3.5964997,4.2067 -5.7891997,3.606 -3.838,-1.0515 -4.13170003,-6.8589 -5.50120003,-10.5953 -1.34199997,-3.6614 -2.13149997,-7.5353 -2.59589997,-11.4072 -0.417,-3.4764 -0.1575,-10.503 -0.1575,-10.503 0,0 4.5341,1.555 6.2457,2.561 z"
           id="path11094-7-9"
           inkscape:connector-curvature="0"
           sodipodi:nodetypes="zaaaaaaacz" />
      </g>
      <g
         transform="matrix(0.22340209,0,0,0.22340209,234.91154,492.27946)"
         id="g12360-7-5" />
      <g
         transform="matrix(0.22340209,0,0,0.22340209,234.91154,492.27946)"
         id="g12365-7-4" />
      <g
         transform="matrix(0.22340209,0,0,0.22340209,234.91154,492.27946)"
         id="g12370-3-3">
        <text
           xml:space="preserve"
           style="font-size:49.23857116999999300px;font-style:normal;font-variant:normal;font-weight:normal;font-stretch:normal;text-indent:0;text-align:start;text-decoration:none;line-height:125%;letter-spacing:0px;word-spacing:0px;text-transform:none;direction:ltr;block-progression:tb;writing-mode:lr-tb;text-anchor:start;baseline-shift:baseline;color:#000000;fill:#000000;fill-opacity:1;fill-rule:nonzero;stroke:none;marker:none;visibility:visible;display:inline;overflow:visible;enable-background:accumulate;font-family:Poppins;-inkscape-font-specification:Poppins"
           x="818.07928"
           y="-202.28851"
           id="text11162-2-2-9"
           sodipodi:linespacing="125%"><tspan
             sodipodi:role="line"
             id="tspan11164-4-4-5"
             x="818.07928"
             y="-202.28851">C3</tspan></text>
        <path
           style="color:#000000;fill:none;stroke:#4d4d4d;stroke-width:3.58098722;stroke-linecap:butt;stroke-linejoin:miter;stroke-miterlimit:4;stroke-opacity:1;stroke-dasharray:none;stroke-dashoffset:0;marker:none;visibility:visible;display:inline;overflow:visible;enable-background:accumulate"
           d="m 683.65809,-228.31621 110.10348,8.00633"
           id="path11778-1-0"
           inkscape:connector-curvature="0"
           sodipodi:nodetypes="cc" />
      </g>
    </g>
  </g>
</svg>
