<?xml version="1.0" encoding="UTF-8" standalone="no"?>
<!-- Created with Inkscape (http://www.inkscape.org/) -->

<svg
   xmlns:dc="http://purl.org/dc/elements/1.1/"
   xmlns:cc="http://creativecommons.org/ns#"
   xmlns:rdf="http://www.w3.org/1999/02/22-rdf-syntax-ns#"
   xmlns:svg="http://www.w3.org/2000/svg"
   xmlns="http://www.w3.org/2000/svg"
   xmlns:sodipodi="http://sodipodi.sourceforge.net/DTD/sodipodi-0.dtd"
   xmlns:inkscape="http://www.inkscape.org/namespaces/inkscape"
   width="220"
   height="375"
   id="svg5704"
   version="1.1"
   inkscape:version="0.48.5 r10040"
   sodipodi:docname="Spine_green_l4.svg">
  <defs
     id="defs5706" />
  <sodipodi:namedview
     id="base"
     pagecolor="#ffffff"
     bordercolor="#666666"
     borderopacity="1.0"
     inkscape:pageopacity="0.0"
     inkscape:pageshadow="2"
     inkscape:zoom="2"
     inkscape:cx="224.52707"
     inkscape:cy="153.727"
     inkscape:document-units="px"
     inkscape:current-layer="g12592-3-1"
     showgrid="false"
     inkscape:window-width="1280"
     inkscape:window-height="961"
     inkscape:window-x="-8"
     inkscape:window-y="-8"
     inkscape:window-maximized="1" />
  <metadata
     id="metadata5709">
    <rdf:RDF>
      <cc:Work
         rdf:about="">
        <dc:format>image/svg+xml</dc:format>
        <dc:type
           rdf:resource="http://purl.org/dc/dcmitype/StillImage" />
        <dc:title></dc:title>
      </cc:Work>
    </rdf:RDF>
  </metadata>
  <g
     inkscape:label="Capa 1"
     inkscape:groupmode="layer"
     id="layer1"
     transform="translate(0,-677.36218)">
    <g
       id="g6147"
       transform="translate(-249.00368,269.90451)">
      <g
         id="g12592-3-1"
         transform="matrix(0.2234221,0,0,0.2234221,368.51258,492.25391)"
         style="color:#000000;fill:#FF52A2;fill-opacity:1;fill-rule:nonzero;stroke:#4d4d4d;stroke-width:4.15467119;stroke-linecap:butt;stroke-linejoin:miter;stroke-miterlimit:4;stroke-opacity:1;stroke-dasharray:none;stroke-dashoffset:0;marker:none;visibility:visible;display:inline;overflow:visible;enable-background:accumulate">
        <path
           style="color:#000000;fill:#FF52A2;fill-opacity:1;fill-rule:nonzero;stroke:#4d4d4d;stroke-width:4.15467119;stroke-linecap:butt;stroke-linejoin:miter;stroke-miterlimit:4;stroke-opacity:1;stroke-dasharray:none;stroke-dashoffset:0;marker:none;visibility:visible;display:inline;overflow:visible;enable-background:accumulate"
           d="m -102.29707,917.59698 c 5.814698,-4.6333 14.602098,-3.4034 21.289298,-6.6529 4.1043,-1.9944 7.61,-5.0447 11.285,-7.7499 4.7183,-3.4732 8.4621,-8.476 13.8058,-10.8782 9.1594,-4.1174 20.0916,-8.3929 29.6529,-5.3223 6.2285,2.0003 10.8192,8.1859 13.686,14.0661 2.466,5.0583 4.6903003,11.6418 2.2809,16.7273 -2.8008,5.9119 -10.7911,7.5152 -16.7272,10.2644 -7.7453,3.5871 -15.9779,6.2259 -24.3306,7.9835 -6.3546,1.3371 -12.903,2.2313 -19.3884,1.9008 -5.7458,-0.2928 -11.4456,-1.6435 -16.9173,-3.4215 -3.3988,-1.1043 -6.6082,-2.7552 -9.7505,-4.4574 -3.078998,-1.6679 -8.047598,-2.2149 -8.877598,-5.6169 -0.6259,-2.5655 1.9265,-5.1974 3.9917,-6.843 z"
           id="path11061-8-9"
           inkscape:connector-curvature="0"
           sodipodi:nodetypes="aaaaaaaaaaaaaa" />
        <path
           style="color:#000000;fill:#FF52A2;fill-opacity:1;fill-rule:nonzero;stroke:#4d4d4d;stroke-width:0.92824537;stroke-linecap:butt;stroke-linejoin:miter;stroke-miterlimit:4;stroke-opacity:1;stroke-dasharray:none;stroke-dashoffset:0;marker:none;visibility:visible;display:inline;overflow:visible;enable-background:accumulate"
           d="m 111.59375,276.9375 c -0.51797,0.0224 -1.02125,0.0809 -1.53125,0.15625 0.0624,1.11527 0.12588,2.231 0.0937,3.34375 -0.0608,2.10645 -0.38557,4.19565 -0.6875,6.28125 -0.27211,1.87965 -0.78654,3.70653 -1,5.59375 -0.14018,1.23912 -0.0176,2.90064 -0.1875,3.75 -0.0638,0.3189 -0.10235,1.10313 -0.12701,2.00761 -0.006,1.16538 -0.20746,1.70229 0.62301,0.72858 0.33278,-0.37034 0.68967,-0.70609 1.129,-0.92369 0.81333,-0.40284 1.81667,-0.69331 2.6875,-0.4375 0.26892,0.079 0.26871,0.24421 0.625,0.5625 l 1.6875,-1.4375 c 0,0 5.99585,-1.74034 7.21875,-4.25 1.22522,-2.51448 -0.79986,-5.53089 -1.09375,-8.3125 -0.0242,-0.22911 -0.0397,-0.45826 -0.0625,-0.6875 -0.86753,-0.70733 -1.5754,-1.66348 -2.5625,-2.1875 -0.66068,-0.35073 -1.46335,-0.31193 -2.15625,-0.59375 -0.65565,-0.26665 -1.22807,-0.68209 -1.84375,-1.03125 -0.58539,-0.33201 -1.25657,-0.57364 -1.75,-1.03125 -0.45398,-0.42101 -0.80535,-0.96692 -1.0625,-1.53125 z"
           transform="matrix(4.475833,0,0,4.475833,-534.90187,-379.53381)"
           id="path11071-2-2"
           inkscape:connector-curvature="0"
           sodipodi:nodetypes="ccssccccssccsccsccccc" />
        <path
           style="color:#000000;fill:#FF52A2;fill-opacity:1;fill-rule:nonzero;stroke:#4d4d4d;stroke-width:0.92824537;stroke-linecap:butt;stroke-linejoin:miter;stroke-miterlimit:4;stroke-opacity:1;stroke-dasharray:none;stroke-dashoffset:0;marker:none;visibility:visible;display:inline;overflow:visible;enable-background:accumulate"
           d="m 114.75,279.6875 c -0.0902,2.06023 -0.2562,4.13045 -0.34375,6.1875 -0.17599,4.13572 -0.6875,12.375 -0.6875,12.375 l -0.0625,0.15625 c 0.14184,0.13259 0.25736,0.228 0.40625,0.375 1.06564,-0.83292 2.84332,-2.32859 3.40625,-3.59375 0.43771,-0.98368 0.0365,-2.14876 0.15625,-3.21875 0.18555,-1.65708 0.70594,-3.24453 0.84375,-4.90625 0.0892,-1.0752 -0.10213,-2.17597 0,-3.25 0.0769,-0.80789 0.20967,-1.60977 0.375,-2.40625 -0.13709,-0.0966 -0.28835,-0.20207 -0.4375,-0.28125 -0.66068,-0.35073 -1.46335,-0.31193 -2.15625,-0.59375 -0.53352,-0.21698 -1.00409,-0.54814 -1.5,-0.84375 z"
           transform="matrix(4.475833,0,0,4.475833,-534.90187,-379.53381)"
           id="path11104-9-6"
           inkscape:connector-curvature="0"
           sodipodi:nodetypes="cscccccsccscc" />
        <path
           style="color:#000000;fill:#FF52A2;fill-opacity:1;fill-rule:nonzero;stroke:#4d4d4d;stroke-width:0.92824537;stroke-linecap:butt;stroke-linejoin:miter;stroke-miterlimit:4;stroke-opacity:1;stroke-dasharray:none;stroke-dashoffset:0;marker:none;visibility:visible;display:inline;overflow:visible;enable-background:accumulate"
           d="m 118.5,281.1875 -1.09375,11.46875 -3.5,3.375 0.21875,0.25 c 0.67356,-0.13131 1.71875,-0.0312 1.71875,-0.0312 0,0 4.71686,3.10632 7.375,3.96875 3.11323,1.01007 6.47926,1.19111 9.75,1.3125 1.12012,0.0416 2.71124,-0.0444 4.09375,-0.15625 l 0.125,0 2.5625,-0.4375 c 0,0 1.40728,-0.52278 1.90625,-1.0625 0.61412,-0.6643 1.30583,-1.57654 1.15625,-2.46875 -0.24349,-1.45224 -2.4619,-2.46678 -3.0625,-3.1875 -0.6006,-0.72072 -1.6875,-3.71875 -1.6875,-3.71875 l 3.375,-1.5625 c 0,0 1.30972,-1.1967 1.78125,-1.9375 0.34733,-0.54571 0.91062,-1.16351 0.71875,-1.78125 -0.0964,-0.31021 -0.34999,-0.60805 -0.65625,-0.875 -0.27397,0.21511 -0.58266,0.36945 -0.84375,0.5 -0.48049,0.24025 -1.56965,0.75905 -2.40625,0.96875 -1.75849,0.44074 -3.59354,0.57016 -5.40625,0.59375 -3.31489,0.0431 -6.74653,0.15944 -9.90625,-0.84375 -1.28285,-0.40732 -2.37148,-1.25175 -3.46875,-2.03125 -0.97756,-0.69444 -1.71135,-1.75202 -2.75,-2.34375 z"
           transform="matrix(4.475833,0,0,4.475833,-534.90187,-379.53381)"
           id="path11079-0-4"
           inkscape:connector-curvature="0"
           sodipodi:nodetypes="cccccsccccccscccscscccccc" />
        <path
           style="color:#000000;fill:#FF52A2;fill-opacity:1;fill-rule:nonzero;stroke:#4d4d4d;stroke-width:4.15467119;stroke-linecap:butt;stroke-linejoin:miter;stroke-miterlimit:4;stroke-opacity:1;stroke-dasharray:none;stroke-dashoffset:0;marker:none;visibility:visible;display:inline;overflow:visible;enable-background:accumulate"
           d="m -29.886472,898.72098 c -3.0505,0.085 -6.302,-0.041 -9.07,1.2438 -3.0928,1.4356 -6.5189,3.6103 -7.6033,6.843 -0.9021,2.6894 0.3173,5.8323 1.6129,8.3558 1.7163,3.3428 4.6025,6.1337 7.7496,8.187 3.4836,2.2729 7.9445,2.5222 11.7502,4.2009 4.1703,1.8396 8.7761,3.2664 12.0809,6.4055 2.2277,2.1159 2.6965,5.6079 4.7307003,7.9104 3.257,3.6866 7.2328,6.8834 11.6355,9.0778 10.5971997,5.2818 22.5779997,7.5885 34.3070997,9.2083 8.0855,1.1166 16.3751,1.2241 24.4848,0.2997 11.2716,-1.2848 22.9426,-2.9413 33.0645,-8.0646 3.2347,-1.6373 6.675802,-3.7649 8.333302,-6.9892 3.2049,-6.2344 1.8007,-13.9604 1.6129,-20.9677 -0.1346,-5.0262 2.2775,-13.2136 -1.6916,-16.3001 -1.7303,-1.3454 -4.503602,1.5135 -6.798102,2.122 -4.0863,1.0836 -8.197,2.1631 -12.3881,2.7167 -7.1134,0.9395 -14.3371,1.3902 -21.5021,1.0061 -10.2173,-0.5476 -20.4955,-1.8921 -30.3335,-4.7043 -6.8355,-1.9539 -16.7789,-6.0126 -23.1333997,-9.4795 -4.8473,-2.6445 -6.0327,-5.0572 -11.4518,-5.2649 -2.0815,-0.08 -4.0426,4.8806 -5.9744,5.7566 -3.0554003,1.3856 -6.0376003,-0.9875 -9.3076003,-0.5838 -4.0189,0.4961 -8.0607,-1.0921 -12.1085,-0.9795 z"
           id="path49936-8-2"
           inkscape:connector-curvature="0"
           sodipodi:nodetypes="aaaaaaaaaaaaassaaasssssa" />
      </g>
      <g
         transform="matrix(0.22340209,0,0,0.22340209,234.91154,492.27946)"
         id="g12475-1-5">
        <text
           xml:space="preserve"
           style="font-size:49.23857116999999300px;font-style:normal;font-variant:normal;font-weight:normal;font-stretch:normal;text-indent:0;text-align:start;text-decoration:none;line-height:125%;letter-spacing:0px;word-spacing:0px;text-transform:none;direction:ltr;block-progression:tb;writing-mode:lr-tb;text-anchor:start;baseline-shift:baseline;color:#000000;fill:#000000;fill-opacity:1;fill-rule:nonzero;stroke:none;marker:none;visibility:visible;display:inline;overflow:visible;enable-background:accumulate;font-family:Poppins;-inkscape-font-specification:Poppins"
           x="816.89819"
           y="949.1026"
           id="text11162-14-19-4-7-0"
           sodipodi:linespacing="125%"><tspan
             sodipodi:role="line"
             id="tspan11164-2-86-86-7-7"
             x="816.89819"
             y="949.1026">L5</tspan></text>
        <path
           style="color:#000000;fill:none;stroke:#4d4d4d;stroke-width:3.58098722;stroke-linecap:butt;stroke-linejoin:miter;stroke-miterlimit:4;stroke-opacity:1;stroke-dasharray:none;stroke-dashoffset:0;marker:none;visibility:visible;display:inline;overflow:visible;enable-background:accumulate"
           d="m 687.85714,931.6479 105.90443,0"
           id="path11820-1-1"
           inkscape:connector-curvature="0"
           sodipodi:nodetypes="cc" />
      </g>
    </g>
  </g>
</svg>
