<?xml version="1.0" encoding="UTF-8" standalone="no"?>
<!-- Created with Inkscape (http://www.inkscape.org/) -->

<svg
   xmlns:dc="http://purl.org/dc/elements/1.1/"
   xmlns:cc="http://creativecommons.org/ns#"
   xmlns:rdf="http://www.w3.org/1999/02/22-rdf-syntax-ns#"
   xmlns:svg="http://www.w3.org/2000/svg"
   xmlns="http://www.w3.org/2000/svg"
   xmlns:sodipodi="http://sodipodi.sourceforge.net/DTD/sodipodi-0.dtd"
   xmlns:inkscape="http://www.inkscape.org/namespaces/inkscape"
   width="220"
   height="375"
   id="svg5704"
   version="1.1"
   inkscape:version="0.48.5 r10040"
   sodipodi:docname="Spine_green_t2.svg">
  <defs
     id="defs5706" />
  <sodipodi:namedview
     id="base"
     pagecolor="#ffffff"
     bordercolor="#666666"
     borderopacity="1.0"
     inkscape:pageopacity="0.0"
     inkscape:pageshadow="2"
     inkscape:zoom="1"
     inkscape:cx="207.1514"
     inkscape:cy="285.20475"
     inkscape:document-units="px"
     inkscape:current-layer="g12592-3-1"
     showgrid="false"
     inkscape:window-width="1280"
     inkscape:window-height="961"
     inkscape:window-x="-8"
     inkscape:window-y="-8"
     inkscape:window-maximized="1" />
  <metadata
     id="metadata5709">
    <rdf:RDF>
      <cc:Work
         rdf:about="">
        <dc:format>image/svg+xml</dc:format>
        <dc:type
           rdf:resource="http://purl.org/dc/dcmitype/StillImage" />
        <dc:title></dc:title>
      </cc:Work>
    </rdf:RDF>
  </metadata>
  <g
     inkscape:label="Capa 1"
     inkscape:groupmode="layer"
     id="layer1"
     transform="translate(0,-677.36218)">
    <g
       id="g6147"
       transform="translate(-249.00368,269.90451)">
      <g
         id="g12592-3-1"
         transform="matrix(0.2234221,0,0,0.2234221,368.51258,492.25391)"
         style="color:#000000;fill:#FF52A2;fill-opacity:1;fill-rule:nonzero;stroke:#4d4d4d;stroke-width:4.15467119;stroke-linecap:butt;stroke-linejoin:miter;stroke-miterlimit:4;stroke-opacity:1;stroke-dasharray:none;stroke-dashoffset:0;marker:none;visibility:visible;display:inline;overflow:visible;enable-background:accumulate">
        <path
           style="color:#000000;fill:#FF52A2;fill-opacity:1;fill-rule:nonzero;stroke:#4d4d4d;stroke-width:4.15467119;stroke-linecap:butt;stroke-linejoin:miter;stroke-miterlimit:4;stroke-opacity:1;stroke-dasharray:none;stroke-dashoffset:0;marker:none;visibility:visible;display:inline;overflow:visible;enable-background:accumulate"
           d="m -180.68115,155.0768 c 4.38578,-10.79157 19.61398,-12.6843 30.10748,-17.74193 8.125,-3.91608 16.5155,-7.50237 25.2688,-9.67742 7.1837,-1.78501 14.6858,-3.50174 22.043,-2.68818 8.507298,0.94072 21.505398,1.61291 24.193598,8.60216 2.6881,6.98924 16.6666,2.68817 2.6881,12.36559 -13.9785,9.67742 -15.6552,11.5162 -24.731098,14.51613 -6.3325,2.09312 -13.2702,2.94188 -19.8925,2.15053 -4.7282,-0.56499 -8.6985,-4.40976 -13.4409,-4.83871 -5.4283,-0.49098 -10.7507,1.80391 -16.129,2.68818 -6.6285,1.0898 -13.192,3.70275 -19.8925,3.2258 -2.9965,-0.21329 -6.5172,-0.52538 -8.6021,-2.68817 -1.41818,-1.47107 -2.38228,-4.02101 -1.61288,-5.91398 z"
           id="path11033-4-0"
           inkscape:connector-curvature="0"
           sodipodi:nodetypes="aaaassaaaaaaa" />
        <path
           style="color:#000000;fill:#FF52A2;fill-opacity:1;fill-rule:nonzero;stroke:#4d4d4d;stroke-width:0.92824537;stroke-linecap:butt;stroke-linejoin:miter;stroke-miterlimit:4;stroke-opacity:1;stroke-dasharray:none;stroke-dashoffset:0;marker:none;visibility:visible;display:inline;overflow:visible;enable-background:accumulate"
           d="m 102.87576,106.65179 c -0.53095,0.0349 -1.12963,0.24911 -1.71443,0.53063 -0.61019,0.29374 -1.205277,0.66076 -1.69258,0.97383 -0.113802,0.42255 -0.249832,0.84165 -0.384023,1.26146 -0.190195,0.59501 -0.376695,1.19142 -0.490977,1.80104 -0.104855,0.55933 0.09961,1.21044 -0.15625,1.71875 -0.756954,1.50382 -2.894003,1.92527 -3.75,3.375 -0.621471,1.05258 -0.672385,2.38346 -0.84375,3.59375 -0.166896,1.17871 -0.0823,2.37433 -0.15625,3.5625 0.03949,1.23965 0.379101,1.49275 1.294514,1.61505 0.822293,0.10645 1.649874,0.20822 2.455486,0.0725 1.201695,-0.20252 3.375,-1.40625 3.375,-1.40625 l 0.125,-0.0312 c 0.31524,-1.34357 0.64719,-2.68198 1.0625,-4 1.11282,-3.53158 2.95611,-6.78052 4.40625,-10.1875 0.0747,-0.17551 -0.32513,0.0191 -0.25,-0.15625 0.0223,-0.43524 0.638,-1.28056 -0.59375,-1.9375 -1.1104,-0.96769 -2.15579,-0.8207 -2.68674,-0.78581 z"
           transform="matrix(4.475833,0,0,4.475833,-534.90187,-379.53381)"
           id="path11071-2-2"
           inkscape:connector-curvature="0"
           sodipodi:nodetypes="zscssscsccsccscccz" />
        <path
           style="color:#000000;fill:#FF52A2;fill-opacity:1;fill-rule:nonzero;stroke:#4d4d4d;stroke-width:0.92824537;stroke-linecap:butt;stroke-linejoin:miter;stroke-miterlimit:4;stroke-opacity:1;stroke-dasharray:none;stroke-dashoffset:0;marker:none;visibility:visible;display:inline;overflow:visible;enable-background:accumulate"
           d="m 104.34375,106.8125 c -0.58534,0.97717 -1.49012,1.79526 -1.84375,2.875 -0.51193,1.56301 0.12034,3.35076 -0.3125,4.9375 -0.63327,2.32152 -2.279008,4.26701 -3.25,6.46875 -0.591565,1.3414 -1.131313,2.69306 -1.65625,4.0625 0.05021,-0.007 0.106161,0.008 0.15625,0 0.600847,-0.10126 1.429376,-0.46027 2.125,-0.78125 1.23065,-3.04638 3.78303,-5.5701 4.8125,-8.71875 0.83589,-2.55654 1.31406,-4.91767 1.35937,-7.4375 0.005,-0.2526 -0.12927,-0.69225 -0.10937,-0.75 -0.0228,-0.0126 -0.0387,-0.0186 -0.0625,-0.0312 -0.53065,-0.28302 -0.90162,-0.47922 -1.21875,-0.625 z"
           transform="matrix(4.475833,0,0,4.475833,-534.90187,-379.53381)"
           id="path11104-9-6"
           inkscape:connector-curvature="0"
           sodipodi:nodetypes="ccsscccsacccc" />
        <path
           style="color:#000000;fill:#FF52A2;fill-opacity:1;fill-rule:nonzero;stroke:#4d4d4d;stroke-width:0.92824537;stroke-linecap:butt;stroke-linejoin:miter;stroke-miterlimit:4;stroke-opacity:1;stroke-dasharray:none;stroke-dashoffset:0;marker:none;visibility:visible;display:inline;overflow:visible;enable-background:accumulate"
           d="m 105.53125,107.4375 c 0,0 -0.0538,0.96651 -0.15625,1.4375 -0.75301,3.46348 -3.34375,10.09375 -3.34375,10.09375 l -2.15625,4.8125 c -0.600108,0.81491 0.55537,0.16992 0.8542,0.0562 0.39086,3.5e-4 0.63896,-0.2947 1.11455,0.006 0.6501,0.41104 3.32566,2.57217 5.28125,3.28125 1.3681,0.49607 2.8607,0.49341 4.3125,0.59375 1.59778,0.11043 3.21903,0.16113 4.8125,0 0.63066,-0.0638 1.37893,-0.31065 1.96875,-0.4375 0.009,-0.006 0.0227,0.006 0.0312,0 0.0885,-0.0574 0.14286,-0.10823 0.21875,-0.15625 0.39459,-0.2497 0.91076,-0.36778 1.21875,-0.71875 0.66233,-0.75479 1.43224,-1.77609 1.1875,-2.75 -0.23622,-0.94004 -2.28125,-1.8125 -2.28125,-1.8125 l 2.15625,-3.96875 1.8125,-1.4375 c 0,0 1.97853,-1.74315 2.21875,-2.34375 0.15074,-0.37682 0.24885,-0.56781 0.3125,-0.875 0.0924,-0.76596 0.0402,-1.47747 -0.53125,-0.78125 -0.0968,0.0481 -0.3567,0.0964 -0.69164,0.14105 -0.85022,0.11331 -2.18374,0.2027 -2.55836,0.2027 -1.08107,0 -3.95982,0.0661 -5.90625,-0.1875 -1.75284,-0.22836 -3.49973,-0.57062 -5.15625,-1.1875 -1.20847,-0.45003 -2.73379,-1.29362 -3.40625,-1.8125 -0.71488,-0.55162 0.34589,-1.12044 -1.28125,-2.15625 -0.0102,-0.005 -0.0212,0.005 -0.0312,0 z"
           transform="matrix(4.475833,0,0,4.475833,-534.90187,-379.53381)"
           id="path11079-0-4"
           inkscape:connector-curvature="0"
           sodipodi:nodetypes="cscccssssccccsccccccsssssccc" />
        <path
           style="color:#000000;fill:#FF52A2;fill-opacity:1;fill-rule:nonzero;stroke:#4d4d4d;stroke-width:4.15467119;stroke-linecap:butt;stroke-linejoin:miter;stroke-miterlimit:4;stroke-opacity:1;stroke-dasharray:none;stroke-dashoffset:0;marker:none;visibility:visible;display:inline;overflow:visible;enable-background:accumulate"
           d="m -99.498372,124.43164 c -2.688198,0 -3.763498,-1.07527 -5.913998,1.6129 -2.1506,2.68818 -2.6882,5.37635 -2.6882,7.52689 0,2.15053 2.4194,9.4086 4.5699,11.55914 2.1505,2.15053 13.978498,6.72043 18.279598,9.4086 4.301,2.68817 3.6392,7.32317 6.1828,10.48387 3.2198,4.00105 6.7803,8.027 11.2903,10.48387 8.9316,4.86563 19.4227,6.8316 29.5699,7.52688 11.1555,0.76437 33.3333003,-3.76344 33.3333003,-3.76344 0,0 5.914,-2.15054 9.1398,-5.91398 3.2258,-3.76344 1.6685,-9.45722 3.2258,-13.97849 1.9321,-5.60953 4.8386997,-11.82796 7.5268997,-16.12903 2.6882,-4.30108 9.1398,-10.21506 4.3011,-10.21506 -4.8388,0 -18.0107997,1.88172 -25.5376997,1.88172 -7.5269003,0 -26.6129003,-0.26881 -33.0645003,-2.41935 -6.4516,-2.15054 -14.5161,-7.52689 -19.3548,-9.67742 -4.8387,-2.15054 -4.5699,0.26881 -14.2473,1.88171 -9.6775,1.61291 -5.3764,-0.26881 -13.9785,-0.26881 -8.6022,0 -12.6344,0 -12.6344,0 z"
           id="path10976-2-3"
           inkscape:connector-curvature="0"
           sodipodi:nodetypes="cssssaaacsasssssssc" />
      </g>
      <g
         transform="matrix(0.22340209,0,0,0.22340209,234.91154,492.27946)"
         id="g12405-1-5">
        <text
           xml:space="preserve"
           style="font-size:49.23857116999999300px;font-style:normal;font-variant:normal;font-weight:normal;font-stretch:normal;text-indent:0;text-align:start;text-decoration:none;line-height:125%;letter-spacing:0px;word-spacing:0px;text-transform:none;direction:ltr;block-progression:tb;writing-mode:lr-tb;text-anchor:start;baseline-shift:baseline;color:#000000;fill:#000000;fill-opacity:1;fill-rule:nonzero;stroke:none;marker:none;visibility:visible;display:inline;overflow:visible;enable-background:accumulate;font-family:Poppins;-inkscape-font-specification:Poppins"
           x="819.70514"
           y="181.64149"
           id="text11162-14-2-0-4"
           sodipodi:linespacing="125%"><tspan
             sodipodi:role="line"
             id="tspan11164-2-1-3-5"
             x="819.70514"
             y="181.64149">T3</tspan></text>
        <path
           style="color:#000000;fill:none;stroke:#4d4d4d;stroke-width:3.58098722;stroke-linecap:butt;stroke-linejoin:miter;stroke-miterlimit:4;stroke-opacity:1;stroke-dasharray:none;stroke-dashoffset:0;marker:none;visibility:visible;display:inline;overflow:visible;enable-background:accumulate"
           d="m 597.85714,156.6479 195.90443,7.02814"
           id="path11792-1-9"
           inkscape:connector-curvature="0"
           sodipodi:nodetypes="cc" />
      </g>
    </g>
  </g>
</svg>
