<?xml version="1.0" encoding="UTF-8" standalone="no"?>
<!-- Created with Inkscape (http://www.inkscape.org/) -->

<svg
   xmlns:dc="http://purl.org/dc/elements/1.1/"
   xmlns:cc="http://creativecommons.org/ns#"
   xmlns:rdf="http://www.w3.org/1999/02/22-rdf-syntax-ns#"
   xmlns:svg="http://www.w3.org/2000/svg"
   xmlns="http://www.w3.org/2000/svg"
   xmlns:sodipodi="http://sodipodi.sourceforge.net/DTD/sodipodi-0.dtd"
   xmlns:inkscape="http://www.inkscape.org/namespaces/inkscape"
   width="220"
   height="375"
   id="svg5704"
   version="1.1"
   inkscape:version="0.48.5 r10040"
   sodipodi:docname="Spine_green_c3.svg">
  <defs
     id="defs5706" />
  <sodipodi:namedview
     id="base"
     pagecolor="#ffffff"
     bordercolor="#666666"
     borderopacity="1.0"
     inkscape:pageopacity="0.0"
     inkscape:pageshadow="2"
     inkscape:zoom="5.6"
     inkscape:cx="159.51749"
     inkscape:cy="326.43586"
     inkscape:document-units="px"
     inkscape:current-layer="g6147"
     showgrid="false"
     inkscape:window-width="1280"
     inkscape:window-height="961"
     inkscape:window-x="-8"
     inkscape:window-y="-8"
     inkscape:window-maximized="1" />
  <metadata
     id="metadata5709">
    <rdf:RDF>
      <cc:Work
         rdf:about="">
        <dc:format>image/svg+xml</dc:format>
        <dc:type
           rdf:resource="http://purl.org/dc/dcmitype/StillImage" />
        <dc:title></dc:title>
      </cc:Work>
    </rdf:RDF>
  </metadata>
  <g
     inkscape:label="Capa 1"
     inkscape:groupmode="layer"
     id="layer1"
     transform="translate(0,-677.36218)">
    <g
       id="g6147"
       transform="translate(-249.00368,269.90451)">
      <g
         id="g12592-3-1"
         transform="matrix(0.2234221,0,0,0.2234221,368.51258,492.25391)"
         style="color:#000000;fill:#FF52A2;fill-opacity:1;fill-rule:nonzero;stroke:#4d4d4d;stroke-width:4.15467119;stroke-linecap:butt;stroke-linejoin:miter;stroke-miterlimit:4;stroke-opacity:1;stroke-dasharray:none;stroke-dashoffset:0;marker:none;visibility:visible;display:inline;overflow:visible;enable-background:accumulate">
        <path
           style="color:#000000;fill:#FF52A2;fill-opacity:1;fill-rule:nonzero;stroke:#4d4d4d;stroke-width:0.92824537;stroke-linecap:butt;stroke-linejoin:miter;stroke-miterlimit:4;stroke-opacity:1;stroke-dasharray:none;stroke-dashoffset:0;marker:none;visibility:visible;display:inline;overflow:visible;enable-background:accumulate"
           d="m 123.78125,34.46875 c -0.98993,0.335919 -3.8494,1.281655 -5.71875,1.5 -1.27324,0.148719 -2.61229,0.231086 -3.84375,-0.125 -0.22136,-0.06401 -0.44497,-0.151893 -0.65625,-0.25 0.0587,0.180797 0.1145,0.375721 0.15625,0.5625 0.35823,1.602569 0.063,3.26534 0,4.90625 -0.0283,0.737753 -0.1279,1.480997 -0.15625,2.21875 -0.0521,1.357995 -0.14829,2.711618 0,4.0625 0.007,0.06234 0.0221,0.125509 0.0312,0.1875 0.52631,0.374659 1.13719,0.783536 1.625,0.875 1.01016,0.189404 2.39293,0.504436 3.71875,0.0625 1.32583,-0.441942 2.84375,-1.0625 2.84375,-1.0625 0,0 1.58423,2.33677 2.53125,3.03125 0.24585,0.180287 0.54491,0.394111 0.875,0.59375 -0.0306,-1.792567 -0.14281,-3.590226 -0.25,-5.375 -0.19075,-3.175161 -0.66417,-7.148174 -1.15625,-11.1875 z"
           transform="matrix(4.475833,0,0,4.475833,-534.90187,-379.53381)"
           id="path11071-2-2"
           inkscape:connector-curvature="0"
           sodipodi:nodetypes="csscsccccsscsccc" />
        <path
           style="color:#000000;fill:#FF52A2;fill-opacity:1;fill-rule:nonzero;stroke:#4d4d4d;stroke-width:0.92824537;stroke-linecap:butt;stroke-linejoin:miter;stroke-miterlimit:4;stroke-opacity:1;stroke-dasharray:none;stroke-dashoffset:0;marker:none;visibility:visible;display:inline;overflow:visible;enable-background:accumulate"
           d="m 120.96875,35.75 0.0937,0.40625 1.25,11.34375 c 0,0 -0.26688,0.646605 -0.1875,0.964286 0.19235,0.76977 1.01033,1.539034 1.5,1.848214 1.68991,1.06702 3.61713,1.781238 5.5625,2.34375 1.60289,0.463489 3.25919,0.546206 4.90562,0.591212 1.74285,0.04764 3.51434,0.02302 5.21938,-0.341212 0.76068,-0.162497 1.56056,-0.439283 2.1875,-0.8125 0.12011,-0.480476 0.1631,-1.238272 -0.4375,-1.71875 -0.6006,-0.480478 -1.4375,-1.8125 -1.4375,-1.8125 l -1.8125,-1.65625 1.09375,-5.65625 c 0,0 1.83261,-0.215413 2.40625,-0.84375 0.3339,-0.365771 0.46824,-0.958126 0.34375,-1.4375 -0.11037,-0.424971 -0.42359,-0.839396 -0.78125,-1.1875 -0.0307,0.06144 -0.0508,0.133202 -0.0937,0.1875 -0.69131,0.874503 -2.08357,0.876329 -3.1875,1.03125 -2.27214,0.318861 -6.875,-0.21875 -6.875,-0.21875 0,0 -3.28107,-0.304454 -4.84375,-0.78125 -1.70583,-0.520473 -4.57494,-1.490344 -4.90625,-2.25 z"
           transform="matrix(4.475833,0,0,4.475833,-534.90187,-379.53381)"
           id="path11079-0-4"
           inkscape:connector-curvature="0"
           sodipodi:nodetypes="cccassaacscccccccscsc" />
        <path
           style="color:#000000;fill:#FF52A2;fill-opacity:1;fill-rule:nonzero;stroke:#4d4d4d;stroke-width:4.15467119;stroke-linecap:butt;stroke-linejoin:miter;stroke-miterlimit:4;stroke-opacity:1;stroke-dasharray:none;stroke-dashoffset:0;marker:none;visibility:visible;display:inline;overflow:visible;enable-background:accumulate"
           d="m -75.685472,-185.07141 c -2.857,2.63607 -4.9978,7.32609 -3.8017,11.02478 1.2873,3.98077 6.1077,6.74863 10.2645,7.22314 4.3487,0.49642 8.4735,-2.59079 12.1653,-4.94215 2.0419,-1.3006 3.1157,-3.94606 5.3223,-4.94214 3.4822,-1.57192 7.6126,-1.60424 11.4049,-1.1405 1.8699,0.22866 3.7549,0.85586 5.3223,1.90083 3.1349,2.08995 4.5451,6.163 7.6033,8.36363 2.8094,2.02158 6.1171,3.4696 9.5041,4.18181 4.7124,0.99088 9.7391003,1.0152 14.4463003,0 5.7103,-1.23153 12.9256,-5.70247 15.9668997,-7.22313 3.0414,-1.52066 14.0661,-9.12396 14.0661,-9.12396 l -10.2644,-17.86775 c 0,0 -7.7422997,-5.39957 -12.1652997,-6.84297 -5.09540003,-1.66282 -10.6072,-1.94326 -15.9669003,-1.90083 -4.7312,0.0374 -9.6263,0.2659 -14.0661,1.90083 -3.9583,1.4576 -6.8635,4.97336 -10.6446,6.84297 -5.6775,2.80722 -11.8851,4.38408 -17.8678,6.4628 -2.6497,0.92066 -5.2929,1.86785 -7.9835,2.66116 -4.3925,1.29513 -9.94,0.31596 -13.3057,3.42148 z"
           id="path11021-6-3"
           inkscape:connector-curvature="0"
           sodipodi:nodetypes="aaaaaaaaaasccaaaaaaa" />
        <path
           style="color:#000000;fill:#FF52A2;fill-opacity:1;fill-rule:nonzero;stroke:#4d4d4d;stroke-width:4.15467119;stroke-linecap:butt;stroke-linejoin:miter;stroke-miterlimit:4;stroke-opacity:1;stroke-dasharray:none;stroke-dashoffset:0;marker:none;visibility:visible;display:inline;overflow:visible;enable-background:accumulate"
           d="m 9.1959283,-213.07231 c 9.9036997,7.29124 23.5084897,11.19829 36.0215997,14.51613 8.891356,2.35753 18.155731,3.27829 27.343612,3.72215 7.69737,0.37186 17.980688,-1.92904 23.101688,-0.89561 2.5335,0.51125 0.9946,2.56329 0.9197,6.17957 -0.08,3.88511 -0.1539,8.67532 -0.1132,11.83118 0.086,6.63572 4.535802,14.4032 0.8064,19.89247 -2.9694,4.3707 -9.7775,4.21503 -14.9615,5.23797 -8.684,1.71359 -17.6776,1.85939 -26.5174,1.40372 -7.9523,-0.40993 -15.8668,-1.8057 -23.5989,-3.70897 -6.3078,-1.55269 -12.7167,-2.49263 -18.4568,-6.25636 -3.5057,-2.29869 -2.2076,-3.66165 -2.9323,-5.65867 -1.8921997,-5.21479 -2.7315997,-10.76928 -3.6002997,-16.2483 -0.6183,-3.89955 -0.9814,-7.84469 -1.1405,-11.78974 -0.1616,-4.00513 -0.7203,-8.12 0.1901,-12.02365 0.5195,-2.22774 1.2,-7.4813 2.9378,-6.20189 z"
           id="path11005-7-8"
           inkscape:connector-curvature="0"
           sodipodi:nodetypes="saasssaaaasaaaas" />
        <path
           style="color:#000000;fill:#FF52A2;fill-opacity:1;fill-rule:nonzero;stroke:#4d4d4d;stroke-width:4.15467119;stroke-linecap:butt;stroke-linejoin:miter;stroke-miterlimit:4;stroke-opacity:1;stroke-dasharray:none;stroke-dashoffset:0;marker:none;visibility:visible;display:inline;overflow:visible;enable-background:accumulate"
           d="m 6.0226283,-204.29127 c 0.064,-0.8339 11.9632997,0.6782 15.4990997,8.69602 1.3208,2.99478 2.6472,5.49411 2.957,8.46775 0.2903,2.78572 -0.021,5.73851 -1.0752,8.33333 -1.1805,2.90555 -3.4085,5.32845 -5.6452,7.52688 -1.8535,1.82183 -3.8235,5.30191 -6.3172,4.5699 -3.4167997,-1.00295 -3.0160997,-6.49623 -3.8978997,-9.94624 -0.5256,-2.05671 -0.613,-4.20321 -0.8064,-6.31721 -0.2208,-2.41301 -0.2193,-4.84197 -0.4032,-7.25807 -0.106,-1.39135 -0.2697,-2.77769 -0.4033,-4.16666 -0.1494,-1.55449 -0.4509,-3.10211 -0.4454,-4.66376 0.01,-1.75647 0.5377,-5.24194 0.5377,-5.24194 z"
           id="path11096-6-8"
           inkscape:connector-curvature="0"
           sodipodi:nodetypes="csaaaaaaaaac" />
      </g>
      <g
         transform="matrix(0.22340209,0,0,0.22340209,234.91154,492.27946)"
         id="g12365-7-4" />
      <g
         transform="matrix(0.22340209,0,0,0.22340209,234.91154,492.27946)"
         id="g12375-1-3">
        <text
           xml:space="preserve"
           style="font-size:49.23857116999999300px;font-style:normal;font-variant:normal;font-weight:normal;font-stretch:normal;text-indent:0;text-align:start;text-decoration:none;line-height:125%;letter-spacing:0px;word-spacing:0px;text-transform:none;direction:ltr;block-progression:tb;writing-mode:lr-tb;text-anchor:start;baseline-shift:baseline;color:#000000;fill:#000000;fill-opacity:1;fill-rule:nonzero;stroke:none;marker:none;visibility:visible;display:inline;overflow:visible;enable-background:accumulate;font-family:Poppins;-inkscape-font-specification:Poppins"
           x="818.07928"
           y="-147.48389"
           id="text11162-5-5-4"
           sodipodi:linespacing="125%"><tspan
             sodipodi:role="line"
             id="tspan11164-5-9-9"
             x="818.07928"
             y="-147.48389">C4</tspan></text>
        <path
           style="color:#000000;fill:none;stroke:#4d4d4d;stroke-width:3.58098722;stroke-linecap:butt;stroke-linejoin:miter;stroke-miterlimit:4;stroke-opacity:1;stroke-dasharray:none;stroke-dashoffset:0;marker:none;visibility:visible;display:inline;overflow:visible;enable-background:accumulate"
           d="m 689.28572,-173.3521 104.47585,7.89735"
           id="path11780-5-3"
           inkscape:connector-curvature="0"
           sodipodi:nodetypes="cc" />
      </g>
      <g
         transform="matrix(0.22340209,0,0,0.22340209,234.91154,492.27946)"
         id="g12380-1-9" />
    </g>
  </g>
</svg>
