<?xml version="1.0" encoding="UTF-8" standalone="no"?>
<!-- Created with Inkscape (http://www.inkscape.org/) -->

<svg
   xmlns:dc="http://purl.org/dc/elements/1.1/"
   xmlns:cc="http://creativecommons.org/ns#"
   xmlns:rdf="http://www.w3.org/1999/02/22-rdf-syntax-ns#"
   xmlns:svg="http://www.w3.org/2000/svg"
   xmlns="http://www.w3.org/2000/svg"
   xmlns:sodipodi="http://sodipodi.sourceforge.net/DTD/sodipodi-0.dtd"
   xmlns:inkscape="http://www.inkscape.org/namespaces/inkscape"
   width="220"
   height="375"
   id="svg5704"
   version="1.1"
   inkscape:version="0.48.5 r10040"
   sodipodi:docname="Spine_green_c6.svg">
  <defs
     id="defs5706" />
  <sodipodi:namedview
     id="base"
     pagecolor="#ffffff"
     bordercolor="#666666"
     borderopacity="1.0"
     inkscape:pageopacity="0.0"
     inkscape:pageshadow="2"
     inkscape:zoom="8"
     inkscape:cx="144.22376"
     inkscape:cy="274.11126"
     inkscape:document-units="px"
     inkscape:current-layer="g12592-3-1"
     showgrid="false"
     inkscape:window-width="1280"
     inkscape:window-height="961"
     inkscape:window-x="-8"
     inkscape:window-y="-8"
     inkscape:window-maximized="1" />
  <metadata
     id="metadata5709">
    <rdf:RDF>
      <cc:Work
         rdf:about="">
        <dc:format>image/svg+xml</dc:format>
        <dc:type
           rdf:resource="http://purl.org/dc/dcmitype/StillImage" />
        <dc:title></dc:title>
      </cc:Work>
    </rdf:RDF>
  </metadata>
  <g
     inkscape:label="Capa 1"
     inkscape:groupmode="layer"
     id="layer1"
     transform="translate(0,-677.36218)">
    <g
       id="g6147"
       transform="translate(-249.00368,269.90451)">
      <g
         id="g12592-3-1"
         transform="matrix(0.2234221,0,0,0.2234221,368.51258,492.25391)"
         style="color:#000000;fill:#FF52A2;fill-opacity:1;fill-rule:nonzero;stroke:#4d4d4d;stroke-width:4.15467119;stroke-linecap:butt;stroke-linejoin:miter;stroke-miterlimit:4;stroke-opacity:1;stroke-dasharray:none;stroke-dashoffset:0;marker:none;visibility:visible;display:inline;overflow:visible;enable-background:accumulate">
        <path
           style="color:#000000;fill:#FF52A2;fill-opacity:1;fill-rule:nonzero;stroke:#4d4d4d;stroke-width:0.92824537;stroke-linecap:butt;stroke-linejoin:miter;stroke-miterlimit:4;stroke-opacity:1;stroke-dasharray:none;stroke-dashoffset:0;marker:none;visibility:visible;display:inline;overflow:visible;enable-background:accumulate"
           d="m 109.86185,72.710515 c -0.11991,0.609993 -0.24998,1.218399 -0.3931,1.820735 -0.39378,1.657316 -0.97209,3.275083 -1.34375,4.9375 -0.36357,1.626202 -0.57857,3.261135 -0.84375,4.90625 -0.11402,0.707432 -0.17883,1.442934 -0.28125,2.15625 -0.0613,0.426661 -0.12671,0.839513 -0.25,1.25 0.56813,0.665021 4.04986,1.043508 5.375,0.90625 0.76581,-0.08743 1.10309,-1.384636 1.8125,-1.1875 0.5214,0.144894 0.69394,0.843691 1.15625,1.125 0.14214,0.08649 0.29122,0.171162 0.4375,0.25 1.57878,-3.759384 3.0654,-7.555226 4.3125,-11.4375 0.21208,-0.660208 0.42148,-1.334179 0.625,-2 -0.39627,-0.138461 -0.80142,-0.289531 -1.0625,-0.46875 -0.4216,-0.289411 -0.69001,-0.536884 -0.9375,-0.984375 -0.12635,-0.228449 -0.13497,-0.496251 -0.32812,-0.671875 -1.28584,-0.482512 -2.80863,-0.480093 -4.04688,-0.5 -1.05896,-0.09615 -2.11773,-0.253085 -3.125,-0.59375 -0.88161,-0.433145 -0.94367,-0.370448 -1.1069,0.491765 z"
           transform="matrix(4.475833,0,0,4.475833,-534.90187,-379.53381)"
           id="path11071-2-2"
           inkscape:connector-curvature="0"
           sodipodi:nodetypes="ccsccccsscscsscccc" />
        <path
           style="color:#000000;fill:#FF52A2;fill-opacity:1;fill-rule:nonzero;stroke:#4d4d4d;stroke-width:4.15467119;stroke-linecap:butt;stroke-linejoin:miter;stroke-miterlimit:4;stroke-opacity:1;stroke-dasharray:none;stroke-dashoffset:0;marker:none;visibility:visible;display:inline;overflow:visible;enable-background:accumulate"
           d="m -126.64897,-18.310292 c 7.0467,-1.19418 14.3379,-1.08868 21.2366,-2.95699 9.540598,-2.58382 18.183498,-7.76913 27.419298,-11.29033 6.5671,-2.50374 12.9644,-5.80754 19.8925,-6.98924 7.5964,-1.29568 13.4409,-1.61291 23.1183,0 9.6774,1.6129 28.4946003,4.30107 28.4946003,4.30107 0,0 6.98929997,5.37635 6.98929997,7.52688 0,2.15054 1.07520003,6.98925 -0.5377,9.13979 -1.61289997,2.15054 -14.51610027,17.2043004 -14.51610027,17.2043004 0,0 -12.9032,4.83871 -17.7419,4.83871 -4.8388,0 -13.1992,-0.55878 -19.3549,-2.68816998 -4.7058,-1.62784 -8.1366,-6.08673002 -12.9032,-7.52688002 -5.8429,-1.76534 -12.1786,-1.25754 -18.2796,-1.07527 -7.5766,0.22636 -15.002,2.83261 -22.580598,2.68817 -6.8932,-0.13137 -14.3939,0.10543 -20.4301,-3.22581 -3.3358,-1.8409604 -8.7518,-4.9943104 -7.5269,-8.6021504 0.7344,-2.16324 4.468,-0.96237 6.7204,-1.34408 z"
           id="path11027-3-1"
           inkscape:connector-curvature="0"
           sodipodi:nodetypes="aaaascsscsaaaaaaa" />
        <path
           style="color:#000000;fill:#FF52A2;fill-opacity:1;fill-rule:nonzero;stroke:#4d4d4d;stroke-width:0.92824537;stroke-linecap:butt;stroke-linejoin:miter;stroke-miterlimit:4;stroke-opacity:1;stroke-dasharray:none;stroke-dashoffset:0;marker:none;visibility:visible;display:inline;overflow:visible;enable-background:accumulate"
           d="m 118.375,74.15625 -2.65625,7.5625 -2.65625,6.25 c 0.25665,-0.308893 0.53207,-0.564047 0.875,-0.46875 0.5214,0.144894 0.69394,0.843691 1.15625,1.125 1.70569,1.037885 3.72793,1.523264 5.6875,1.90625 1.90986,0.373271 4.25239,0.31503 5.8125,0.375 1.65424,-0.02622 3.82141,-0.16262 4.96243,-0.177468 0.34476,-0.245729 0.64976,-0.54083 0.81882,-0.916282 0.25075,-0.556837 0.0312,-1.84375 0.0312,-1.84375 l -1.1875,-1.4375 0.46875,-5.78125 c 0,0 2.51734,-1.617657 3.5,-2.71875 0.30522,-0.341999 0.53793,-0.735035 0.71875,-1.15625 0.20019,-0.466304 0.4013,-0.993227 0.375,-1.5 -0.0193,-0.372415 -0.12198,-0.775674 -0.28125,-1.1875 -0.0202,0.03213 -0.04,0.06272 -0.0625,0.09375 -0.44206,0.610655 -1.17021,1.01366 -1.875,1.28125 -1.6678,0.633223 -3.52917,0.60884 -5.3125,0.65625 -2.48329,0.06602 -5.052,0.161906 -7.4375,-0.53125 -1.05687,-0.307098 -2.39414,-0.591824 -2.9375,-1.53125 z"
           transform="matrix(4.475833,0,0,4.475833,-534.90187,-379.53381)"
           id="path11079-0-4"
           inkscape:connector-curvature="0"
           sodipodi:nodetypes="cccsssccccccsccccssscc" />
        <path
           style="color:#000000;fill:#FF52A2;fill-opacity:1;fill-rule:nonzero;stroke:#4d4d4d;stroke-width:4.15467119;stroke-linecap:butt;stroke-linejoin:miter;stroke-miterlimit:4;stroke-opacity:1;stroke-dasharray:none;stroke-dashoffset:0;marker:none;visibility:visible;display:inline;overflow:visible;enable-background:accumulate"
           d="m -6.5146717,-39.573872 c 6.75549997,1.04597 12.2542,6.2743 18.8441997,8.09153 7.8432,2.16278 16.0755,2.68699 24.1936,3.22581 8.9409,0.59343 17.9352,-0.50189 26.8817,0 1.1312,0.0635 2.7139,-0.53807 3.3777,0.38016 1.5018,2.07771 -0.9745,5.03583 -1.5803,7.52688 -0.8478,3.48605 -2.0213,6.88737 -2.8727,10.3725304 -0.8695,3.55931 -1.7068,7.13397 -2.281,10.75269002 -0.5648,3.55980998 0.4741,7.53018998 -1.1405,10.75268958 -1.3335,2.66154 -3.8698,4.7747 -6.5494,6.07145 -2.8493,1.37884 -6.2279,1.21214 -9.3839,1.45543 -10.3635,0.79891 -20.902,1.53156 -31.1828,0 -9.2631997,-1.37996 -18.6073997,-3.79186 -26.8762,-8.18938 -3.3223,-1.7668996 -7.768,-3.4856496 -8.7652,-7.1140996 -1.1403,-4.14954998 2.9067,-8.10205 4.4586,-12.11588 0.9397,-2.4305204 2.1712,-4.7540104 2.9379,-7.2445604 1.0911,-3.54471 1.5655,-7.2506 2.3406,-10.87753 0.8975,-4.19939 -0.5252,-9.73823 2.6747,-12.60193 1.2288,-1.09964 3.2935003,-0.73809 4.9230003,-0.48579 z"
           id="path10999-5-3"
           inkscape:connector-curvature="0"
           sodipodi:nodetypes="aaaaaaaaaaaaaaaaaaa" />
        <path
           style="color:#000000;fill:#FF52A2;fill-opacity:1;fill-rule:nonzero;stroke:#4d4d4d;stroke-width:4.15467119;stroke-linecap:butt;stroke-linejoin:miter;stroke-miterlimit:4;stroke-opacity:1;stroke-dasharray:none;stroke-dashoffset:0;marker:none;visibility:visible;display:inline;overflow:visible;enable-background:accumulate"
           d="m -13.174772,-34.773372 c 5.1592003,-1.13177 9.8432003,5.82916 11.5783003,10.81791 1.06289997,3.05628 0.082,6.74822 -1.4499,9.59868 -2.5493,4.7447304 -7.3853003,8.0387604 -11.9910003,10.8314204 -2.2704,1.37662 -5.3701,4.40085002 -7.4673,2.77251002 -2.1868,-1.69799002 0.5136,-5.51478002 0.8717,-8.26020002 0.4175,-3.1999304 0.5787,-6.4698104 1.4881,-9.5660704 1.0642,-3.6236 3.1105,-6.88377 4.589,-10.35901 0.8224,-1.93313 0.3291,-5.3851 2.3811,-5.83524 z"
           id="path11102-3-0"
           inkscape:connector-curvature="0"
           sodipodi:nodetypes="aaaaaaaaa" />
      </g>
      <g
         transform="matrix(0.22340209,0,0,0.22340209,234.91154,492.27946)"
         id="g12380-1-9" />
      <g
         transform="matrix(0.22340209,0,0,0.22340209,234.91154,492.27946)"
         id="g12390-9-8">
        <text
           xml:space="preserve"
           style="font-size:49.23857116999999300px;font-style:normal;font-variant:normal;font-weight:normal;font-stretch:normal;text-indent:0;text-align:start;text-decoration:none;line-height:125%;letter-spacing:0px;word-spacing:0px;text-transform:none;direction:ltr;block-progression:tb;writing-mode:lr-tb;text-anchor:start;baseline-shift:baseline;color:#000000;fill:#000000;fill-opacity:1;fill-rule:nonzero;stroke:none;marker:none;visibility:visible;display:inline;overflow:visible;enable-background:accumulate;font-family:Poppins;-inkscape-font-specification:Poppins"
           x="818.07928"
           y="17.47246"
           id="text11162-7-1-9"
           sodipodi:linespacing="125%"><tspan
             sodipodi:role="line"
             id="tspan11164-6-3-8"
             x="818.07928"
             y="17.47246">C7</tspan></text>
        <path
           style="color:#000000;fill:none;stroke:#4d4d4d;stroke-width:3.58098722;stroke-linecap:butt;stroke-linejoin:miter;stroke-miterlimit:4;stroke-opacity:1;stroke-dasharray:none;stroke-dashoffset:0;marker:none;visibility:visible;display:inline;overflow:visible;enable-background:accumulate"
           d="m 650.71429,-10.494961 143.04728,9.60560665"
           id="path11786-4-8"
           inkscape:connector-curvature="0"
           sodipodi:nodetypes="cc" />
      </g>
    </g>
  </g>
</svg>
