<?xml version="1.0" encoding="UTF-8" standalone="no"?>
<!-- Created with Inkscape (http://www.inkscape.org/) -->

<svg
   xmlns:dc="http://purl.org/dc/elements/1.1/"
   xmlns:cc="http://creativecommons.org/ns#"
   xmlns:rdf="http://www.w3.org/1999/02/22-rdf-syntax-ns#"
   xmlns:svg="http://www.w3.org/2000/svg"
   xmlns="http://www.w3.org/2000/svg"
   xmlns:sodipodi="http://sodipodi.sourceforge.net/DTD/sodipodi-0.dtd"
   xmlns:inkscape="http://www.inkscape.org/namespaces/inkscape"
   width="220"
   height="375"
   id="svg5704"
   version="1.1"
   inkscape:version="0.48.5 r10040"
   sodipodi:docname="Spine_green_t8.svg">
  <defs
     id="defs5706" />
  <sodipodi:namedview
     id="base"
     pagecolor="#ffffff"
     bordercolor="#666666"
     borderopacity="1.0"
     inkscape:pageopacity="0.0"
     inkscape:pageshadow="2"
     inkscape:zoom="2.8284271"
     inkscape:cx="113.04627"
     inkscape:cy="255.75346"
     inkscape:document-units="px"
     inkscape:current-layer="g12592-3-1"
     showgrid="false"
     inkscape:window-width="1280"
     inkscape:window-height="961"
     inkscape:window-x="-8"
     inkscape:window-y="-8"
     inkscape:window-maximized="1" />
  <metadata
     id="metadata5709">
    <rdf:RDF>
      <cc:Work
         rdf:about="">
        <dc:format>image/svg+xml</dc:format>
        <dc:type
           rdf:resource="http://purl.org/dc/dcmitype/StillImage" />
        <dc:title></dc:title>
      </cc:Work>
    </rdf:RDF>
  </metadata>
  <g
     inkscape:label="Capa 1"
     inkscape:groupmode="layer"
     id="layer1"
     transform="translate(0,-677.36218)">
    <g
       id="g6147"
       transform="translate(-249.00368,269.90451)">
      <g
         id="g12592-3-1"
         transform="matrix(0.2234221,0,0,0.2234221,368.51258,492.25391)"
         style="color:#000000;fill:#FF52A2;fill-opacity:1;fill-rule:nonzero;stroke:#4d4d4d;stroke-width:4.15467119;stroke-linecap:butt;stroke-linejoin:miter;stroke-miterlimit:4;stroke-opacity:1;stroke-dasharray:none;stroke-dashoffset:0;marker:none;visibility:visible;display:inline;overflow:visible;enable-background:accumulate">
        <path
           style="color:#000000;fill:#FF52A2;fill-opacity:1;fill-rule:nonzero;stroke:#4d4d4d;stroke-width:0.92824537;stroke-linecap:butt;stroke-linejoin:miter;stroke-miterlimit:4;stroke-opacity:1;stroke-dasharray:none;stroke-dashoffset:0;marker:none;visibility:visible;display:inline;overflow:visible;enable-background:accumulate"
           d="m 84.84375,181.09375 c 0.05417,0.32517 0.113095,0.64962 0.1875,0.96875 0.09361,0.40146 0.292213,0.77576 0.3125,1.1875 0.03114,0.63232 -0.255639,1.24447 -0.3125,1.875 -0.06611,0.73315 -0.209212,1.51298 0,2.21875 0.383906,1.29501 1.769701,2.09053 2.1875,3.375 0.333256,1.02452 0.159192,2.17301 0.1875,3.25 0.01944,0.73587 0.08034,1.45577 0,2.1875 -0.05695,0.51894 -0.310371,1.01026 -0.34375,1.53125 -0.04001,0.62416 -0.123832,1.31578 0.15625,1.875 0.675823,-0.59716 1.401222,-1.09757 2.25,-1.3125 1.040231,-0.26342 2.211101,0.0236 3.1875,0.46875 0.777057,0.35428 1.663426,0.96752 2.5,1.625 0.595435,0.046 1.225084,0.1257 1.8125,0.25 -1.129611,-2.89466 -2.145423,-5.84704 -2.9375,-8.84375 -0.68064,-2.57514 -1.132767,-5.22351 -1.46875,-7.875 -0.704198,-0.47049 -1.414117,-0.94726 -2.1875,-1.28125 -0.444723,-0.19205 -0.916687,-0.28844 -1.40625,-0.375 -0.204222,0.14289 -0.42671,0.23743 -0.6875,0.28125 -1.239319,0.20823 -2.30622,-0.6908 -3.4375,-1.40625 z"
           transform="matrix(4.475833,0,0,4.475833,-534.90187,-379.53381)"
           id="path11071-2-2"
           inkscape:connector-curvature="0"
           sodipodi:nodetypes="ccscsccccscccscccscc" />
        <path
           style="color:#000000;fill:#FF52A2;fill-opacity:1;fill-rule:nonzero;stroke:#4d4d4d;stroke-width:4.15467119;stroke-linecap:butt;stroke-linejoin:miter;stroke-miterlimit:4;stroke-opacity:1;stroke-dasharray:none;stroke-dashoffset:0;marker:none;visibility:visible;display:inline;overflow:visible;enable-background:accumulate"
           d="m -192.77625,491.43208 c 0.015,-7.52901 13.82148,-18.15132 20.14868,-23.38014 6.3273,-5.22882 9.8843,-6.84297 11.7851,-7.6033 1.9009,-0.76033 11.0248,-3.80165 19.0083,-4.56198 7.9834,-0.76033 23.19,11.40495 27.752,15.96693 4.562,4.56198 6.0827,13.30577 3.0413,15.96692 -3.0413,2.66116 -19.7685,6.08264 -24.7107,6.08264 -4.9421,0 -14.4462,-1.90082 -17.1074,-3.04132 -2.6612,-1.1405 -9.5041,-2.28099 -12.5455,-0.38016 -3.0413,1.90083 -10.6446,9.88429 -14.4462,10.64462 -3.80168,0.76033 -5.51238,-1.52066 -7.79338,-3.04132 -2.281,-1.52066 -5.1478,0.87612 -5.1322,-6.65289 z"
           id="path11045-9-4"
           inkscape:connector-curvature="0"
           sodipodi:nodetypes="zzzssszzzzzz" />
        <path
           style="color:#000000;fill:#FF52A2;fill-opacity:1;fill-rule:nonzero;stroke:#4d4d4d;stroke-width:0.92824537;stroke-linecap:butt;stroke-linejoin:miter;stroke-miterlimit:4;stroke-opacity:1;stroke-dasharray:none;stroke-dashoffset:0;marker:none;visibility:visible;display:inline;overflow:visible;enable-background:accumulate"
           d="m 88.65625,182.15625 c 0.03243,0.41724 0.04971,0.83354 0.09375,1.25 0.273335,2.58446 0.976091,5.11736 1.53125,7.65625 0.702919,3.21471 1.067013,6.54702 2.21875,9.625 0.400546,-0.13989 0.820537,-0.2516 1.21875,-0.3125 0.506206,-0.0774 1.068191,-0.0897 1.65625,-0.0312 0.02545,-0.92737 0.324048,-2.18002 0.09375,-2.8125 -1.097717,-3.01416 -2.387718,-5.00964 -2.96875,-8.15625 -0.219378,-1.18801 -0.03747,-2.39431 -0.1875,-3.59375 -0.09245,-0.73904 -0.208637,-1.50158 -0.34375,-2.28125 -0.514237,-0.32927 -1.034931,-0.66492 -1.59375,-0.90625 -0.530635,-0.22915 -1.131234,-0.34017 -1.71875,-0.4375 z"
           transform="matrix(4.475833,0,0,4.475833,-534.90187,-379.53381)"
           id="path11104-9-6"
           inkscape:connector-curvature="0"
           sodipodi:nodetypes="cssccccscccc" />
        <path
           style="color:#000000;fill:#FF52A2;fill-opacity:1;fill-rule:nonzero;stroke:#4d4d4d;stroke-width:0.92824537;stroke-linecap:butt;stroke-linejoin:miter;stroke-miterlimit:4;stroke-opacity:1;stroke-dasharray:none;stroke-dashoffset:0;marker:none;visibility:visible;display:inline;overflow:visible;enable-background:accumulate"
           d="m 90.5,182.65625 0.21875,0.9375 0,6 3.125,4.09375 0.96875,5.28125 0.21875,1.375 c 1.815004,0.1154 3.891119,0.77746 4.65625,0.96875 0.96096,0.24022 5.57634,1.09943 8.40625,1.25 1.9009,0.10114 3.8032,0.0203 5.6875,-0.25 2.22535,-0.31916 4.44886,-0.82782 6.5625,-1.59375 0.55759,-0.22474 1.30069,-0.76417 1.5,-0.90625 0,0 0.0399,-1.33503 -0.34375,-1.8125 -0.68497,-0.85253 -3.03125,-1.3125 -3.03125,-1.3125 l -1.90625,-3.625 -0.96875,-0.46875 c 0,0 0.83201,-2.51755 1.3125,-3.71875 0.48047,-1.20119 0.91966,-2.07424 0.375,-2.875 -0.63297,-0.93059 -1.14114,-0.4182 -1.75311,0.11201 -0.62153,0.32953 -1.60676,0.65044 -2.62189,1.01299 -1.68168,0.60058 -3.91596,0.82806 -5.90625,0.90625 -1.34777,0.053 -2.70466,-0.0374 -4.03125,-0.28125 -2.68792,-0.49418 -5.337424,-1.28531 -7.84375,-2.375 -1.640614,-0.7133 -2.997029,-1.98112 -4.625,-2.71875 z"
           transform="matrix(4.475833,0,0,4.475833,-534.90187,-379.53381)"
           id="path11079-0-4"
           inkscape:connector-curvature="0"
           sodipodi:nodetypes="cccccccssccsccccsccsssc" />
        <path
           style="color:#000000;fill:#FF52A2;fill-opacity:1;fill-rule:nonzero;stroke:#4d4d4d;stroke-width:4.15467119;stroke-linecap:butt;stroke-linejoin:miter;stroke-miterlimit:4;stroke-opacity:1;stroke-dasharray:none;stroke-dashoffset:0;marker:none;visibility:visible;display:inline;overflow:visible;enable-background:accumulate"
           d="m -149.99787,467.98003 c 2.2288,-3.69639 6.6811,-5.73458 10.7145,-7.27162 4.1926,-1.59769 8.8778,-2.20841 13.343,-1.77034 2.6714,0.26209 7.6248,2.59036 7.6248,2.59036 0,0 6.4528,1.78768 9.6774,2.6881 5.1094,1.42675 10.203098,2.91044 15.322498,4.30111 8.8511,2.40434 17.4894,6.05016 26.613,6.98929 10.3534,1.06573 20.9956,0.52044 31.1827,-1.613 8.4378,-1.76707 22.0431,-8.6021 24.1936,-9.1397 2.1505003,-0.5377 2.1775003,3.76558 2.9053003,5.80255 1.8054,5.05321 1.2957,10.83147 3.5463,15.70275 2.0671,4.4739 6.9875,7.2738 8.871,11.828 1.22,2.94984 4.1961,6.70142 1.3441,9.48172 -2.2632,2.20621 -35.0499003,9.98791 -53.0414003,9.99237 -15.7444,0.004 -31.525,-3.62278 -46.421,-8.72139 -7.431398,-2.54364 -15.053798,-6.9893 -20.967698,-10.7527 -5.914,-3.7634 -7.9865,-2.63499 -11.8438,-4.29549 -6.2433,-2.68758 -13.5125,-4.24761 -18.2256,-9.14541 -3.0029,-3.12066 -4.6949,-7.55101 -5.3763,-11.8279 -0.2553,-1.60262 -0.3003,-3.44896 0.5376,-4.8387 z"
           id="path49954-5-9"
           inkscape:connector-curvature="0"
           sodipodi:nodetypes="aaacaaaacsaasaasaaaa" />
      </g>
      <g
         transform="matrix(0.22340209,0,0,0.22340209,234.91154,492.27946)"
         id="g12435-2-3">
        <text
           xml:space="preserve"
           style="font-size:49.23857116999999300px;font-style:normal;font-variant:normal;font-weight:normal;font-stretch:normal;text-indent:0;text-align:start;text-decoration:none;line-height:125%;letter-spacing:0px;word-spacing:0px;text-transform:none;direction:ltr;block-progression:tb;writing-mode:lr-tb;text-anchor:start;baseline-shift:baseline;color:#000000;fill:#000000;fill-opacity:1;fill-rule:nonzero;stroke:none;marker:none;visibility:visible;display:inline;overflow:visible;enable-background:accumulate;font-family:Poppins;-inkscape-font-specification:Poppins"
           x="819.70514"
           y="511.99487"
           id="text11162-14-1-5-1"
           sodipodi:linespacing="125%"><tspan
             sodipodi:role="line"
             id="tspan11164-2-23-9-5"
             x="819.70514"
             y="511.99487">T9</tspan></text>
        <path
           style="color:#000000;fill:none;stroke:#4d4d4d;stroke-width:3.58098722;stroke-linecap:butt;stroke-linejoin:miter;stroke-miterlimit:4;stroke-opacity:1;stroke-dasharray:none;stroke-dashoffset:0;marker:none;visibility:visible;display:inline;overflow:visible;enable-background:accumulate"
           d="m 587.85714,486.6479 205.90443,6.15894"
           id="path11804-1-2"
           inkscape:connector-curvature="0"
           sodipodi:nodetypes="cc" />
      </g>
    </g>
  </g>
</svg>
