<?xml version="1.0" encoding="UTF-8" standalone="no"?>
<!-- Created with Inkscape (http://www.inkscape.org/) -->

<svg
   xmlns:dc="http://purl.org/dc/elements/1.1/"
   xmlns:cc="http://creativecommons.org/ns#"
   xmlns:rdf="http://www.w3.org/1999/02/22-rdf-syntax-ns#"
   xmlns:svg="http://www.w3.org/2000/svg"
   xmlns="http://www.w3.org/2000/svg"
   xmlns:sodipodi="http://sodipodi.sourceforge.net/DTD/sodipodi-0.dtd"
   xmlns:inkscape="http://www.inkscape.org/namespaces/inkscape"
   width="220"
   height="375"
   id="svg5704"
   version="1.1"
   inkscape:version="0.48.5 r10040"
   sodipodi:docname="Spine_blue_sacrum.svg">
  <defs
     id="defs5706">
    <inkscape:path-effect
       effect="spiro"
       id="path-effect3941"
       is_visible="true" />
    <inkscape:path-effect
       effect="spiro"
       id="path-effect3941-1"
       is_visible="true" />
  </defs>
  <sodipodi:namedview
     id="base"
     pagecolor="#ffffff"
     bordercolor="#666666"
     borderopacity="1.0"
     inkscape:pageopacity="0.0"
     inkscape:pageshadow="2"
     inkscape:zoom="2.0327868"
     inkscape:cx="141.45095"
     inkscape:cy="125.41612"
     inkscape:document-units="px"
     inkscape:current-layer="g6147"
     showgrid="false"
     inkscape:window-width="1280"
     inkscape:window-height="961"
     inkscape:window-x="-8"
     inkscape:window-y="-8"
     inkscape:window-maximized="1" />
  <metadata
     id="metadata5709">
    <rdf:RDF>
      <cc:Work
         rdf:about="">
        <dc:format>image/svg+xml</dc:format>
        <dc:type
           rdf:resource="http://purl.org/dc/dcmitype/StillImage" />
        <dc:title></dc:title>
      </cc:Work>
    </rdf:RDF>
  </metadata>
  <g
     inkscape:label="Capa 1"
     inkscape:groupmode="layer"
     id="layer1"
     transform="translate(0,-677.36218)">
    <g
       id="g6147"
       transform="translate(-249.00368,269.90451)">
      <g
         id="g12592-3-1"
         transform="matrix(0.2234221,0,0,0.2234221,368.51258,492.25391)"
         style="color:#000000;fill:#FF52A2;fill-opacity:1;fill-rule:nonzero;stroke:#4d4d4d;stroke-width:4.15467123;stroke-linecap:butt;stroke-linejoin:miter;stroke-miterlimit:4;stroke-opacity:1;stroke-dasharray:none;stroke-dashoffset:0;marker:none;visibility:visible;display:inline;overflow:visible;enable-background:accumulate">
        <path
           style="color:#000000;fill:#FF52A2;fill-opacity:1;fill-rule:nonzero;stroke:#4d4d4d;stroke-width:0.92824536;stroke-linecap:butt;stroke-linejoin:miter;stroke-miterlimit:4;stroke-opacity:1;stroke-dasharray:none;stroke-dashoffset:0;marker:none;visibility:visible;display:inline;overflow:visible;enable-background:accumulate"
           d="M 112.15625 297.46875 C 111.63289 297.49071 110.54425 297.55261 109.90625 297.875 C 108.9637 298.35129 108.39277 299.36866 107.625 300.09375 C 106.85328 300.82258 105.99528 301.43331 105.28125 302.21875 C 104.16128 303.45074 103.38107 304.96873 102.28125 306.21875 C 101.24249 307.3994 99.927959 307.63701 98.90625 309.5 C 97.616032 311.85252 98.493362 314.39799 96.75 316.4375 C 95.221927 318.2251 91.925302 317.07019 89.96875 318.375 C 87.496495 320.02379 85.401685 322.5438 84.40625 325.34375 C 83.192331 328.75829 84.718614 332.61768 84.3125 336.21875 C 84.12525 337.87902 83.444846 339.46562 83.25 341.125 C 83.024031 343.04942 82.731956 345.04015 83.125 346.9375 C 83.502271 348.75866 84.525022 350.37941 85.4375 352 C 86.116949 353.20677 87.160181 354.19967 87.78125 355.4375 C 88.588251 357.04592 88.791902 358.89064 89.53125 360.53125 C 90.496456 362.673 91.742916 364.70293 93 366.6875 C 93.644707 367.7053 95.09375 369.625 95.09375 369.625 C 95.09375 369.625 96.079292 367.17708 96.3125 365.875 C 96.543965 364.58273 96.728724 363.22432 96.46875 361.9375 C 96.261705 360.91275 95.114895 360.13838 95.15625 359.09375 C 95.196198 358.08489 96.263206 357.36752 96.65625 356.4375 C 97.083254 355.42707 97.064939 354.25888 97.5625 353.28125 C 98.372092 351.69057 100.42314 350.79708 100.84375 349.0625 C 101.0386 348.25901 100.58389 346.98695 100.40625 346.5 C 99.056563 344.91528 94.976504 339.90335 94.96875 337.0625 C 94.95959 333.68999 97.625927 330.69207 100.0625 328.375 C 102.27709 326.26905 105.67833 325.86957 108.1875 324.125 C 110.30224 322.65468 112.16599 320.83632 113.90625 318.9375 C 115.56414 317.12856 117.49242 313.80889 118.375 313.0625 C 119.25756 312.31611 120.08482 311.92381 121.53125 311.8125 C 121.55717 311.8105 121.59686 311.81251 121.625 311.8125 C 118.94846 310.00451 116.32106 308.08139 114.09375 305.75 C 113.47963 305.10717 112.86406 304.41813 112.53125 303.59375 C 111.84235 301.88723 111.10147 299.84725 111.75 298.125 C 111.84147 297.8821 111.98566 297.67043 112.15625 297.46875 z "
           id="path49921-4-3"
           transform="matrix(4.475833,0,0,4.475833,-534.90187,-379.53381)" />
      </g>
      <text
         sodipodi:linespacing="125%"
         id="text11162-0-6-4-4"
         y="756.79712"
         x="388.02533"
         style="font-size:11px;font-style:normal;font-variant:normal;font-weight:normal;font-stretch:normal;text-indent:0;text-align:start;text-decoration:none;line-height:125%;letter-spacing:0px;word-spacing:0px;text-transform:none;direction:ltr;block-progression:tb;writing-mode:lr-tb;text-anchor:start;baseline-shift:baseline;color:#000000;fill:#000000;fill-opacity:1;fill-rule:nonzero;stroke:none;stroke-width:1;marker:none;visibility:visible;display:inline;overflow:visible;enable-background:accumulate;font-family:Poppins;-inkscape-font-specification:Poppins"
         xml:space="preserve"><tspan
           id="tspan11695-6-4"
           y="756.79712"
           x="388.02533"
           sodipodi:role="line">Coccyx</tspan></text>
      <path
         style="color:#000000;fill:none;stroke:#4d4d4d;stroke-width:0.80000001;stroke-linecap:butt;stroke-linejoin:miter;stroke-miterlimit:4;stroke-opacity:1;stroke-dasharray:none;stroke-dashoffset:0;marker:none;visibility:visible;display:inline;overflow:visible;enable-background:accumulate"
         d="m 386.20083,754.35845 -42.67469,9.11826"
         id="path11804-9-9"
         inkscape:connector-curvature="0"
         sodipodi:nodetypes="cc" />
    </g>
  </g>
</svg>
