<?xml version="1.0" encoding="UTF-8" standalone="no"?>
<!-- Created with Inkscape (http://www.inkscape.org/) -->

<svg
   xmlns:dc="http://purl.org/dc/elements/1.1/"
   xmlns:cc="http://creativecommons.org/ns#"
   xmlns:rdf="http://www.w3.org/1999/02/22-rdf-syntax-ns#"
   xmlns:svg="http://www.w3.org/2000/svg"
   xmlns="http://www.w3.org/2000/svg"
   xmlns:sodipodi="http://sodipodi.sourceforge.net/DTD/sodipodi-0.dtd"
   xmlns:inkscape="http://www.inkscape.org/namespaces/inkscape"
   width="220"
   height="375"
   id="svg5704"
   version="1.1"
   inkscape:version="0.48.5 r10040"
   sodipodi:docname="Spine_green_t7.svg">
  <defs
     id="defs5706" />
  <sodipodi:namedview
     id="base"
     pagecolor="#ffffff"
     bordercolor="#666666"
     borderopacity="1.0"
     inkscape:pageopacity="0.0"
     inkscape:pageshadow="2"
     inkscape:zoom="5.6568543"
     inkscape:cx="117.40784"
     inkscape:cy="180.88381"
     inkscape:document-units="px"
     inkscape:current-layer="g12592-3-1"
     showgrid="false"
     inkscape:window-width="1280"
     inkscape:window-height="961"
     inkscape:window-x="-8"
     inkscape:window-y="-8"
     inkscape:window-maximized="1" />
  <metadata
     id="metadata5709">
    <rdf:RDF>
      <cc:Work
         rdf:about="">
        <dc:format>image/svg+xml</dc:format>
        <dc:type
           rdf:resource="http://purl.org/dc/dcmitype/StillImage" />
        <dc:title></dc:title>
      </cc:Work>
    </rdf:RDF>
  </metadata>
  <g
     inkscape:label="Capa 1"
     inkscape:groupmode="layer"
     id="layer1"
     transform="translate(0,-677.36218)">
    <g
       id="g6147"
       transform="translate(-249.00368,269.90451)">
      <g
         id="g12592-3-1"
         transform="matrix(0.2234221,0,0,0.2234221,368.51258,492.25391)"
         style="color:#000000;fill:#FF52A2;fill-opacity:1;fill-rule:nonzero;stroke:#4d4d4d;stroke-width:4.15467119;stroke-linecap:butt;stroke-linejoin:miter;stroke-miterlimit:4;stroke-opacity:1;stroke-dasharray:none;stroke-dashoffset:0;marker:none;visibility:visible;display:inline;overflow:visible;enable-background:accumulate">
        <path
           style="color:#000000;fill:#FF52A2;fill-opacity:1;fill-rule:nonzero;stroke:#4d4d4d;stroke-width:0.92824537;stroke-linecap:butt;stroke-linejoin:miter;stroke-miterlimit:4;stroke-opacity:1;stroke-dasharray:none;stroke-dashoffset:0;marker:none;visibility:visible;display:inline;overflow:visible;enable-background:accumulate"
           d="m 86.646758,170.43327 c -0.211297,0.33777 -0.453575,0.59798 -0.771758,0.59798 -0.679494,0 -1.647225,-0.01 -2.375,-0.34375 -0.493278,-0.11436 -0.20062,1.26422 -0.1875,1.6875 0.07056,1.31151 0.275371,2.6122 0.5,3.90625 0.227958,1.31315 0.614177,2.59923 0.875,3.90625 0.123888,0.62085 0.2,1.25845 0.34375,1.875 0.09361,0.40146 0.292213,0.77576 0.3125,1.1875 0.03114,0.63232 -0.255639,1.24447 -0.3125,1.875 -0.06217,0.68948 -0.189963,1.42212 -0.03125,2.09375 0.821551,-0.23064 1.838896,-0.46978 2.8125,-0.5625 0.622435,-0.0593 1.466661,0.23835 2.3125,0.6875 0.418098,-0.0336 0.841196,-0.0401 1.25,0 0.59685,0.0586 1.6875,0.5625 1.6875,0.5625 0,0 0.116084,0.0288 0.125,0.0312 -0.479186,-2.5619 -0.802773,-5.16032 -1.03125,-7.75 -0.223339,-2.53144 -0.27951,-5.08097 -0.25,-7.625 -0.08928,-0.07 -0.198553,-0.15259 -0.28125,-0.21875 -0.600581,-0.48047 -1.96875,-2.40625 -1.96875,-2.40625 -0.620696,-0.27497 -1.349013,-0.47482 -1.905503,-0.59841 -0.698699,-0.13323 -0.822043,0.5656 -1.103989,1.09423 z"
           transform="matrix(4.475833,0,0,4.475833,-534.90187,-379.53381)"
           id="path11071-2-2"
           inkscape:connector-curvature="0"
           sodipodi:nodetypes="csccssccscsccccscsccc" />
        <path
           style="color:#000000;fill:#FF52A2;fill-opacity:1;fill-rule:nonzero;stroke:#4d4d4d;stroke-width:4.15467119;stroke-linecap:butt;stroke-linejoin:miter;stroke-miterlimit:4;stroke-opacity:1;stroke-dasharray:none;stroke-dashoffset:0;marker:none;visibility:visible;display:inline;overflow:visible;enable-background:accumulate"
           d="m -195.72255,425.47347 c 5.3199,-3.62027 11.8465,-5.2871 17.01238,-9.12396 3.309,-2.45771 5.0927,-6.83081 8.7438,-8.7438 5.0198,-2.63017 11.0776,-3.48744 16.7272,-3.04132 7.6311,0.60259 20.1488,1.52066 21.6694,7.6033 1.5207,6.08264 4.1818,12.92561 1.1405,16.72726 -3.0413,3.80165 -5.1781,7.76375 -9.314,8.45867 -8.0201,1.34752 -14.4796,-7.88646 -22.4297,-9.59916 -3.0977,-0.66733 -6.4592,-1.06666 -9.5042,-0.19009 -4.5512,1.31017 -7.7855,5.41328 -11.88008,7.79338 -2.7684,1.60919 -5.4406,3.62244 -8.5537,4.3719 -2.1253,0.51164 -4.5961,0.96429 -6.5579,0 -2.5135,-1.23553 -4.2285,-4.00188 -5.1322,-6.65289 -0.082,-0.23989 -0.1066,-0.53038 0,-0.76033 1.484,-3.20188 5.1609,-4.85751 8.0785,-6.84296 z"
           id="path11043-0-5"
           inkscape:connector-curvature="0"
           sodipodi:nodetypes="aaaassaaaaaaaaa" />
        <path
           style="color:#000000;fill:#FF52A2;fill-opacity:1;fill-rule:nonzero;stroke:#4d4d4d;stroke-width:0.92824537;stroke-linecap:butt;stroke-linejoin:miter;stroke-miterlimit:4;stroke-opacity:1;stroke-dasharray:none;stroke-dashoffset:0;marker:none;visibility:visible;display:inline;overflow:visible;enable-background:accumulate"
           d="m 88.65625,169.59375 c -0.01237,0.41815 -0.05151,0.83213 -0.0625,1.25 -0.110102,4.18809 -0.284383,8.3962 0.15625,12.5625 0.105906,1.00137 0.269005,1.99541 0.466484,2.98486 0.06972,0.34933 0.130309,0.79989 0.471016,0.90577 0.620837,0.19292 1.048197,-0.0159 1.6875,0.0469 0.281223,0.0276 0.661495,0.15139 1,0.28125 -0.0011,-0.61065 0.01385,-1.23333 -0.0625,-1.84375 -0.405221,-3.23928 -1.378742,-6.97964 -1.53125,-10.25 -0.05635,-1.20826 0.521017,-1.95088 0.53125,-3.15625 9.93e-4,-0.11702 -0.0036,-0.22765 0,-0.34375 -0.670399,-0.70167 -1.65625,-2.09375 -1.65625,-2.09375 0,0 -0.475055,-0.15934 -1,-0.34375 z"
           transform="matrix(4.475833,0,0,4.475833,-534.90187,-379.53381)"
           id="path11104-9-6"
           inkscape:connector-curvature="0"
           sodipodi:nodetypes="ccssssccsscccc" />
        <path
           style="color:#000000;fill:#FF52A2;fill-opacity:1;fill-rule:nonzero;stroke:#4d4d4d;stroke-width:0.92799999000000000;stroke-linecap:butt;stroke-linejoin:round;stroke-miterlimit:4;stroke-opacity:1;stroke-dasharray:none;stroke-dashoffset:0;marker:none;visibility:visible;display:inline;overflow:visible;enable-background:accumulate"
           d="m 89.875,170.25 c -0.04383,1.2002 -0.09375,2.50973 -0.09375,3.25 0,1.92191 -0.25,5.28125 -0.25,5.28125 l 1.1875,4.8125 0,3.71875 c 0.221323,-8.8e-4 0.437966,0.01 0.65625,0.0312 0.59685,0.0586 1.6875,0.5625 1.6875,0.5625 0,0 1.467053,0.39258 2.1875,0.59375 1.141553,0.31877 2.262463,0.65804 3.40625,0.96875 1.97753,0.53718 3.89909,1.35268 5.9375,1.5625 2.31318,0.23811 4.69273,0.1329 6.96875,-0.34375 1.25295,-0.2624 3.01628,-1.03401 4.19915,-1.55732 0.82152,-0.41305 1.24028,-0.76535 1.50338,-1.2303 0.22665,-0.70204 0.28993,-1.28004 0.0162,-1.89988 -0.33661,-0.76215 -2.03125,-1.4375 -2.03125,-1.4375 l -2.65625,-2.53125 -0.25,-2.0625 -0.34375,-3 1.5,-0.875 c 0,0 0.12806,-2.1799 -0.78125,-2.71875 -0.26123,-0.15957 -0.5327,0.33627 -0.8125,0.5625 -0.83354,0.67395 -2.59669,1.188 -4,1.40625 -3.05438,0.47503 -6.22247,0.19583 -9.28125,-0.25 -1.642465,-0.23939 -3.299486,-0.62998 -4.8125,-1.3125 -0.795807,-0.35899 -1.586897,-0.95701 -2.1875,-1.4375 -0.510764,-0.40862 -1.061235,-1.16191 -1.37435,-1.58552 z"
           transform="matrix(4.475833,0,0,4.475833,-534.90187,-379.53381)"
           id="path11079-0-4"
           inkscape:connector-curvature="0"
           sodipodi:nodetypes="csccccccsssccsccccccssssssc" />
        <path
           style="color:#000000;fill:#FF52A2;fill-opacity:1;fill-rule:nonzero;stroke:#4d4d4d;stroke-width:4.15467119;stroke-linecap:butt;stroke-linejoin:miter;stroke-miterlimit:4;stroke-opacity:1;stroke-dasharray:none;stroke-dashoffset:0;marker:none;visibility:visible;display:inline;overflow:visible;enable-background:accumulate"
           d="m -158.73607,410.3068 c -1.1943,2.50357 -1.4289,5.57672 -0.8143,8.28163 1.119,4.92489 3.8494,9.87856 7.853,12.95729 5.8557,4.50308 14.4842,3.30587 21.2659,6.23449 7.5394,3.25589 13.7242,9.18334 21.2556,12.45782 11.217898,4.87726 23.132698,8.28557 35.163398,10.49742 5.9376,1.09165 12.03,1.56758 18.0624,1.33058 8.9082,-0.34997 18.9095,-1.36322 26.4364,-4.05132 7.5268,-2.6882 14.5813,-4.904 14.5813,-7.5922 0,-2.6881 -6.6091,-9.32428 -7.6843,-13.62528 -1.0753,-4.3011 -1.9931,-13.53314 -1.9931,-15.68364 0,-2.1506 2.5307,-11.19806 -1.7704,-12.81096 -4.301,-1.613 -16.5473,7.12211 -25.361,8.38497 -13.2826,1.90317 -27.1881,1.75806 -40.2304,-1.39577 -9.818198,-2.37421 -17.454598,-11.2481 -27.419298,-12.9032 -4.8027,-0.79771 -9.6743,1.1038 -14.5161,1.61288 -3.2112,0.33762 -6.4253,0.64625 -9.6393,0.95603 -3.596,0.34662 -7.5161,-0.51552 -10.7909,1.01001 -1.867,0.86973 -3.512,2.48029 -4.3989,4.33925 z"
           id="path49956-0-2"
           inkscape:connector-curvature="0"
           sodipodi:nodetypes="aaaaaaacssscaaaaaaa" />
      </g>
      <g
         transform="matrix(0.22340209,0,0,0.22340209,234.91154,492.27946)"
         id="g12430-8-4">
        <text
           xml:space="preserve"
           style="font-size:49.23857116999999300px;font-style:normal;font-variant:normal;font-weight:normal;font-stretch:normal;text-indent:0;text-align:start;text-decoration:none;line-height:125%;letter-spacing:0px;word-spacing:0px;text-transform:none;direction:ltr;block-progression:tb;writing-mode:lr-tb;text-anchor:start;baseline-shift:baseline;color:#000000;fill:#000000;fill-opacity:1;fill-rule:nonzero;stroke:none;marker:none;visibility:visible;display:inline;overflow:visible;enable-background:accumulate;font-family:Poppins;-inkscape-font-specification:Poppins"
           x="819.70514"
           y="456.00909"
           id="text11162-14-54-0-3"
           sodipodi:linespacing="125%"><tspan
             sodipodi:role="line"
             id="tspan11164-2-3-7-1"
             x="819.70514"
             y="456.00909">T8</tspan></text>
        <path
           style="color:#000000;fill:none;stroke:#4d4d4d;stroke-width:3.58098722;stroke-linecap:butt;stroke-linejoin:miter;stroke-miterlimit:4;stroke-opacity:1;stroke-dasharray:none;stroke-dashoffset:0;marker:none;visibility:visible;display:inline;overflow:visible;enable-background:accumulate"
           d="m 566.42857,436.6479 227.333,1.30381"
           id="path11802-2-5"
           inkscape:connector-curvature="0"
           sodipodi:nodetypes="cc" />
      </g>
    </g>
  </g>
</svg>
