<?xml version="1.0" encoding="UTF-8" standalone="no"?>
<!-- Created with Inkscape (http://www.inkscape.org/) -->

<svg
   xmlns:dc="http://purl.org/dc/elements/1.1/"
   xmlns:cc="http://creativecommons.org/ns#"
   xmlns:rdf="http://www.w3.org/1999/02/22-rdf-syntax-ns#"
   xmlns:svg="http://www.w3.org/2000/svg"
   xmlns="http://www.w3.org/2000/svg"
   xmlns:sodipodi="http://sodipodi.sourceforge.net/DTD/sodipodi-0.dtd"
   xmlns:inkscape="http://www.inkscape.org/namespaces/inkscape"
   width="220"
   height="375"
   id="svg5704"
   version="1.1"
   inkscape:version="0.48.5 r10040"
   sodipodi:docname="Spine_green_c5.svg">
  <defs
     id="defs5706" />
  <sodipodi:namedview
     id="base"
     pagecolor="#ffffff"
     bordercolor="#666666"
     borderopacity="1.0"
     inkscape:pageopacity="0.0"
     inkscape:pageshadow="2"
     inkscape:zoom="5.6568543"
     inkscape:cx="140.333"
     inkscape:cy="310.10855"
     inkscape:document-units="px"
     inkscape:current-layer="g12592-3-1"
     showgrid="false"
     inkscape:window-width="1280"
     inkscape:window-height="961"
     inkscape:window-x="-8"
     inkscape:window-y="-8"
     inkscape:window-maximized="1" />
  <metadata
     id="metadata5709">
    <rdf:RDF>
      <cc:Work
         rdf:about="">
        <dc:format>image/svg+xml</dc:format>
        <dc:type
           rdf:resource="http://purl.org/dc/dcmitype/StillImage" />
        <dc:title></dc:title>
      </cc:Work>
    </rdf:RDF>
  </metadata>
  <g
     inkscape:label="Capa 1"
     inkscape:groupmode="layer"
     id="layer1"
     transform="translate(0,-677.36218)">
    <g
       id="g6147"
       transform="translate(-249.00368,269.90451)">
      <g
         id="g12592-3-1"
         transform="matrix(0.2234221,0,0,0.2234221,368.51258,492.25391)"
         style="color:#000000;fill:#FF52A2;fill-opacity:1;fill-rule:nonzero;stroke:#4d4d4d;stroke-width:4.15467119;stroke-linecap:butt;stroke-linejoin:miter;stroke-miterlimit:4;stroke-opacity:1;stroke-dasharray:none;stroke-dashoffset:0;marker:none;visibility:visible;display:inline;overflow:visible;enable-background:accumulate">
        <path
           style="color:#000000;fill:#FF52A2;fill-opacity:1;fill-rule:nonzero;stroke:#4d4d4d;stroke-width:0.92824537;stroke-linecap:butt;stroke-linejoin:miter;stroke-miterlimit:4;stroke-opacity:1;stroke-dasharray:none;stroke-dashoffset:0;marker:none;visibility:visible;display:inline;overflow:visible;enable-background:accumulate"
           d="m 118.28125,48.34375 c -0.46541,0.06944 -0.93085,0.109204 -1.40625,0.09375 -0.21973,0.01519 -0.45045,0.01706 -0.65625,0.03125 -0.60849,0.04196 -1.54563,0.164929 -2.34375,0.28125 0.15081,0.55052 0.31308,1.09227 0.375,1.65625 0.11122,1.013161 0.19275,2.061643 0,3.0625 -0.23066,1.197728 -1.14434,2.208522 -1.375,3.40625 -0.19275,1.000857 0,2.043253 0,3.0625 0,0.622872 0.005,1.230768 -0.17187,1.828125 -0.40727,1.378757 -0.27291,1.39336 1.14062,1.328125 1.08107,0 3.50779,0.389642 4.46875,0.75 1.07837,0.45365 1.87501,0.91855 2.6562,1.59375 1.24078,0.993994 1.70068,2.141369 2.0727,0.71945 0.92018,-3.845548 1.64611,-7.73678 2.0523,-11.65695 0.1599,-1.543227 0.12872,-2.53307 0.0625,-4.03125 -0.2677,-0.391383 -0.25994,-0.352254 -0.53125,-0.5 -0.53585,-0.259323 -1.28761,-0.665075 -1.875,-0.875 -0.85482,-0.305502 -1.64286,-0.553572 -2.625,-0.6875 -0.47572,-0.06487 -1.10799,-0.0878 -1.78125,-0.0625 -0.0201,0.0032 -0.0423,-0.003 -0.0625,0 z"
           transform="matrix(4.475833,0,0,4.475833,-534.90187,-379.53381)"
           id="path11071-2-2"
           inkscape:connector-curvature="0"
           sodipodi:nodetypes="ccsccssssccccsccssccc" />
        <path
           style="color:#000000;fill:#FF52A2;fill-opacity:1;fill-rule:nonzero;stroke:#4d4d4d;stroke-width:0.92824537;stroke-linecap:butt;stroke-linejoin:miter;stroke-miterlimit:4;stroke-opacity:1;stroke-dasharray:none;stroke-dashoffset:0;marker:none;visibility:visible;display:inline;overflow:visible;enable-background:accumulate"
           d="m 122.34375,48.65625 c -0.19718,-0.02765 -0.2432,0.186825 -0.25,0.1875 l -1.5625,10.0625 -0.22794,2.157811 c -0.52646,2.121408 1.85464,2.574329 3.38419,3.060939 1.43278,0.484765 2.84972,1.071197 4.34375,1.3125 1.08051,0.174515 2.18607,0.115176 3.28125,0.09375 2.17988,-0.04265 4.39072,-0.839602 6.53125,-0.4375 0.39213,0.07366 0.6776,0.03827 1.04688,-0.04687 0.56603,-0.130509 0.9135,-0.443354 1.07812,-0.859375 0.34302,-0.866867 0.27638,-2.300774 0.15625,-2.78125 -0.12011,-0.480478 -0.875,-0.9375 -0.875,-0.9375 l -1.4375,-1.8125 0.8125,-5.4375 2.0625,0 c 0,0 0.69239,-0.644522 0.8125,-1.125 0.12011,-0.480476 0.19545,-1.281761 -0.4375,-1.71875 -0.73697,-0.508811 -2.22029,0.165657 -3.15625,0.34375 -1.9402,0.382854 -3.96249,0.414307 -5.9375,0.3125 -1.77672,-0.09159 -3.55373,-0.418517 -5.28125,-0.84375 -1.4093,-0.346905 -2.81128,-0.56535 -4.09375,-1.40625 -0.10504,-0.0737 -0.18427,-0.115784 -0.25,-0.125005 z"
           transform="matrix(4.475833,0,0,4.475833,-534.90187,-379.53381)"
           id="path11079-0-4"
           inkscape:connector-curvature="0"
           sodipodi:nodetypes="sccccssssscccccsscsscs" />
        <path
           style="color:#000000;fill:#FF52A2;fill-opacity:1;fill-rule:nonzero;stroke:#4d4d4d;stroke-width:4.15467119;stroke-linecap:butt;stroke-linejoin:miter;stroke-miterlimit:4;stroke-opacity:1;stroke-dasharray:none;stroke-dashoffset:0;marker:none;visibility:visible;display:inline;overflow:visible;enable-background:accumulate"
           d="m -78.726772,-136.79046 c -4.355,2.22375 -11.2108,2.89908 -12.5455,7.60329 -0.7516,2.64901 1.9098,5.31736 3.7634,7.35359 1.9336,2.12407 4.5048,3.84766 7.2693,4.6272 3.657,1.0312 7.7485,0.8648 11.397,-0.19567 5.134,-1.49219 8.4594,-7.23816 13.686,-8.36363 4.9938,-1.07536 10.572,-0.2475 15.2066,1.90082 3.9056,1.8104 5.6145,6.89921 9.5041,8.7438 4.0481,1.91978 8.8368,1.58322 13.3058,1.90082 4.4241,0.31441 8.8768003,0.23592 13.3057003,0 5.7269,-0.30505 17.1074997,-1.82769 17.1074997,-1.82769 l 9.2715,-12.67096 -2.6882,-11.29033 -13.9784997,-8.06451 c 0,0 -10.6971,-2.23861 -16.1290003,-2.68817 -5.8939,-0.48779 -11.9568,-1.22769 -17.742,0 -5.1797,1.09921 -9.3502,5.28932 -14.5161,6.45161 -7.1706,1.61331 -14.8575,-1.00797 -22.043,0.53763 -5.0138,1.07845 -9.6072,3.64996 -14.1746,5.9822 z"
           id="path11023-6-1"
           inkscape:connector-curvature="0"
           sodipodi:nodetypes="aaaaaaaaaaccccaaaaa" />
        <path
           style="color:#000000;fill:#FF52A2;fill-opacity:1;fill-rule:nonzero;stroke:#4d4d4d;stroke-width:4.15467119;stroke-linecap:butt;stroke-linejoin:miter;stroke-miterlimit:4;stroke-opacity:1;stroke-dasharray:none;stroke-dashoffset:0;marker:none;visibility:visible;display:inline;overflow:visible;enable-background:accumulate"
           d="m 17.705928,-154.28008 c 8.0109,3.17729 15.4138,7.91444 23.6559,10.43215 6.7911,2.0745 13.8699,3.55335 20.9677,3.76345 7.3215,0.21672 14.640209,-1.14757 21.8203,-2.59593 3.7548,-0.75741 8.674,-3.24875 11.2903,-0.53764 1.4986,1.55282 -0.2641,4.31103 -0.5376,6.45161 -0.6187,4.84169 -2.082,9.56572 -2.4925,14.42948 -0.2862,3.39111 0.01,6.80634 0.027,10.20946 0.014,2.65747 0.9817,5.47985 0.06,7.97228 -0.6735,1.8207 -2.1829,3.35486 -3.8231,4.393318 -5.0332,3.18674 -11.3029,4.02461 -17.2043,4.8387 -9.4091,1.29797 -19.0203,0.67332 -28.4946,0 -7.5841,-0.53899 -15.4906,-0.47961 -22.5806,-3.2258 -5.0523,-1.956888 -10.7189997,-4.455148 -13.4408997,-9.139788 -2.0718,-3.56569 -0.9471,-8.2092 -0.9774,-12.33297 -0.054,-7.37361 -0.1605,-15.00662 1.4228,-22.07563 1.1321,-5.05459 1.763,-12.55876 3.3180997,-15.05376 1.307,-2.09708 4.6922,1.56004 6.9892,2.47107 z"
           id="path11003-7-1"
           inkscape:connector-curvature="0"
           sodipodi:nodetypes="caasaaaaaaaaaaassac" />
        <path
           style="color:#000000;fill:#FF52A2;fill-opacity:1;fill-rule:nonzero;stroke:#4d4d4d;stroke-width:4.15467119;stroke-linecap:butt;stroke-linejoin:miter;stroke-miterlimit:4;stroke-opacity:1;stroke-dasharray:none;stroke-dashoffset:0;marker:none;visibility:visible;display:inline;overflow:visible;enable-background:accumulate"
           d="m 24.747528,-139.00923 c 2.2995,3.84934 0.8473,9.17621 -0.5376,13.44086 -0.7983,2.45826 -2.2912,4.82654 -4.3011,6.45162 -3.7846,3.06014 -9.3685,7.82418 -13.5751997,5.37634 -2.5028,-1.45632 -1.148,-5.86075 -1.2097,-8.60215 -0.062,-2.74141 0.4099,-5.02161 0.672,-7.52688 0.2348,-2.24397 0.5005,-4.48506 0.8065,-6.72043 0.4795,-3.50307 1.6129,-10.48387 1.6129,-10.48387 0,0 13.3877997,2.80075 16.5321997,8.06451 z"
           id="path11098-5-6"
           inkscape:connector-curvature="0"
           sodipodi:nodetypes="aaaazaaca" />
      </g>
      <g
         transform="matrix(0.22340209,0,0,0.22340209,234.91154,492.27946)"
         id="g12380-1-9">
        <text
           xml:space="preserve"
           style="font-size:49.23857116999999300px;font-style:normal;font-variant:normal;font-weight:normal;font-stretch:normal;text-indent:0;text-align:start;text-decoration:none;line-height:125%;letter-spacing:0px;word-spacing:0px;text-transform:none;direction:ltr;block-progression:tb;writing-mode:lr-tb;text-anchor:start;baseline-shift:baseline;color:#000000;fill:#000000;fill-opacity:1;fill-rule:nonzero;stroke:none;marker:none;visibility:visible;display:inline;overflow:visible;enable-background:accumulate;font-family:Poppins;-inkscape-font-specification:Poppins"
           x="818.07928"
           y="-92.629669"
           id="text11162-1-0-5"
           sodipodi:linespacing="125%"><tspan
             sodipodi:role="line"
             id="tspan11164-7-6-9"
             x="818.07928"
             y="-92.629669">C5</tspan></text>
        <path
           style="color:#000000;fill:none;stroke:#4d4d4d;stroke-width:3.58098722;stroke-linecap:butt;stroke-linejoin:miter;stroke-miterlimit:4;stroke-opacity:1;stroke-dasharray:none;stroke-dashoffset:0;marker:none;visibility:visible;display:inline;overflow:visible;enable-background:accumulate"
           d="m 685,-121.92353 108.76157,11.32391"
           id="path11782-4-0"
           inkscape:connector-curvature="0"
           sodipodi:nodetypes="cc" />
      </g>
    </g>
  </g>
</svg>
