<?xml version="1.0" encoding="UTF-8" standalone="no"?>
<!-- Created with Inkscape (http://www.inkscape.org/) -->

<svg
   xmlns:dc="http://purl.org/dc/elements/1.1/"
   xmlns:cc="http://creativecommons.org/ns#"
   xmlns:rdf="http://www.w3.org/1999/02/22-rdf-syntax-ns#"
   xmlns:svg="http://www.w3.org/2000/svg"
   xmlns="http://www.w3.org/2000/svg"
   xmlns:sodipodi="http://sodipodi.sourceforge.net/DTD/sodipodi-0.dtd"
   xmlns:inkscape="http://www.inkscape.org/namespaces/inkscape"
   width="220"
   height="375"
   id="svg5704"
   version="1.1"
   inkscape:version="0.48.5 r10040"
   sodipodi:docname="Spine_green_t3.svg">
  <defs
     id="defs5706" />
  <sodipodi:namedview
     id="base"
     pagecolor="#ffffff"
     bordercolor="#666666"
     borderopacity="1.0"
     inkscape:pageopacity="0.0"
     inkscape:pageshadow="2"
     inkscape:zoom="4"
     inkscape:cx="165.84991"
     inkscape:cy="261.55814"
     inkscape:document-units="px"
     inkscape:current-layer="g12592-3-1"
     showgrid="false"
     inkscape:window-width="1280"
     inkscape:window-height="961"
     inkscape:window-x="-8"
     inkscape:window-y="-8"
     inkscape:window-maximized="1" />
  <metadata
     id="metadata5709">
    <rdf:RDF>
      <cc:Work
         rdf:about="">
        <dc:format>image/svg+xml</dc:format>
        <dc:type
           rdf:resource="http://purl.org/dc/dcmitype/StillImage" />
        <dc:title></dc:title>
      </cc:Work>
    </rdf:RDF>
  </metadata>
  <g
     inkscape:label="Capa 1"
     inkscape:groupmode="layer"
     id="layer1"
     transform="translate(0,-677.36218)">
    <g
       id="g6147"
       transform="translate(-249.00368,269.90451)">
      <g
         id="g12592-3-1"
         transform="matrix(0.2234221,0,0,0.2234221,368.51258,492.25391)"
         style="color:#000000;fill:#FF52A2;fill-opacity:1;fill-rule:nonzero;stroke:#4d4d4d;stroke-width:4.15467119;stroke-linecap:butt;stroke-linejoin:miter;stroke-miterlimit:4;stroke-opacity:1;stroke-dasharray:none;stroke-dashoffset:0;marker:none;visibility:visible;display:inline;overflow:visible;enable-background:accumulate">
        <path
           style="color:#000000;fill:#FF52A2;fill-opacity:1;fill-rule:nonzero;stroke:#4d4d4d;stroke-width:4.15467119;stroke-linecap:butt;stroke-linejoin:miter;stroke-miterlimit:4;stroke-opacity:1;stroke-dasharray:none;stroke-dashoffset:0;marker:none;visibility:visible;display:inline;overflow:visible;enable-background:accumulate"
           d="m -194.12205,206.15207 c 8.9581,-8.10697 22.64818,-8.42873 33.87098,-12.90323 6.4922,-2.58846 12.6858,-5.97326 19.3548,-8.06451 6.4733,-2.02986 12.3656,-4.30108 19.8925,-4.30108 7.5269,0 24.193498,1.61291 27.956998,5.91398 3.7634,4.30108 6.9892,13.9785 6.9892,16.12903 0,2.15054 -6.4516,9.67742 -10.7527,10.75269 -4.300998,1.07527 -27.419298,1.07527 -30.107498,1.07527 -2.6882,0 -17.5979,-1.34285 -26.3441,-0.53763 -5.2848,0.48655 -10.3825,2.20892 -15.5914,3.2258 -4.693,0.91617 -9.344,2.98929 -14.10888,2.59034 -3.5643,-0.29843 -6.8304,-2.18151 -10.0846,-3.66561 -1.6788,-0.76559 -4.2934,-0.9255 -4.8387,-2.68817 -0.8291,-2.6798 1.6836,-5.64464 3.7634,-7.52688 z"
           id="path11035-0-4"
           inkscape:connector-curvature="0"
           sodipodi:nodetypes="aaasssssaaaaaa" />
        <path
           style="color:#000000;fill:#FF52A2;fill-opacity:1;fill-rule:nonzero;stroke:#4d4d4d;stroke-width:0.92824537;stroke-linecap:butt;stroke-linejoin:miter;stroke-miterlimit:4;stroke-opacity:1;stroke-dasharray:none;stroke-dashoffset:0;marker:none;visibility:visible;display:inline;overflow:visible;enable-background:accumulate"
           d="m 94.6875,116.3125 c -0.621471,1.05258 -0.672385,2.38346 -0.84375,3.59375 -0.166896,1.17871 -0.0823,2.37433 -0.15625,3.5625 -0.04589,0.73687 0.04598,1.48709 -0.1875,2.1875 -0.700406,2.10123 -2.593094,3.63352 -3.5625,5.625 -0.446777,0.91785 -0.827654,1.86883 -1,2.875 -0.121872,0.7115 -0.07112,1.44006 -0.03113,2.16671 0.101135,1.15729 0.269062,0.84104 0.749875,0.30204 0.192807,-0.13127 0.400571,-0.23733 0.618666,-0.32211 0.78399,-0.30476 1.701481,-0.3345 2.537584,-0.27164 0.995232,0.0748 1.849656,1.05718 2.84375,0.96875 0.634519,-0.0564 1.021957,-0.84724 1.65625,-0.90625 0.43177,-0.0402 0.861913,-0.0208 1.28125,0.0625 0.911017,-5.00722 1.626645,-10.05072 3.000005,-14.9375 -0.29011,-0.64936 -0.34981,-1.42175 -1.125,-1.90625 -0.960966,-0.6006 -3.613283,-1.61327 -4.093755,-2.09375 -0.154825,-0.15483 -0.309827,-0.42396 -0.450695,-0.73504 -0.413137,-1.36418 -0.444008,-1.12776 -1.2368,-0.17121 z"
           transform="matrix(4.475833,0,0,4.475833,-534.90187,-379.53381)"
           id="path11071-2-2"
           inkscape:connector-curvature="0"
           sodipodi:nodetypes="csccssccssssccsscc" />
        <path
           style="color:#000000;fill:#FF52A2;fill-opacity:1;fill-rule:nonzero;stroke:#4d4d4d;stroke-width:0.92824537;stroke-linecap:butt;stroke-linejoin:miter;stroke-miterlimit:4;stroke-opacity:1;stroke-dasharray:none;stroke-dashoffset:0;marker:none;visibility:visible;display:inline;overflow:visible;enable-background:accumulate"
           d="m 100,119.0625 c -0.382195,0.65862 -0.757775,1.34028 -1.0625,2.03125 -1.272947,2.88645 -2.332602,5.83501 -3.375,8.8125 -0.465969,1.33097 -0.956394,2.65899 -1.28125,4.03125 -0.188027,0.79432 -0.351174,1.60421 -0.5,2.40625 0.611574,0.30915 1.218075,0.71469 1.875,0.65625 0.634519,-0.0564 1.021957,-0.84724 1.65625,-0.90625 0.627374,-0.0584 1.240885,0.0365 1.84375,0.21875 0.261962,-3.5341 -0.886659,-7.21536 -0.03125,-10.65625 0.428769,-1.7247 1.35505,-3.24153 2.34375,-4.75 -0.19968,-0.56697 -0.35099,-1.18811 -1,-1.59375 -0.11706,-0.0732 -0.30873,-0.1661 -0.46875,-0.25 z"
           transform="matrix(4.475833,0,0,4.475833,-534.90187,-379.53381)"
           id="path11104-9-6"
           inkscape:connector-curvature="0"
           sodipodi:nodetypes="csscccscsccc" />
        <path
           style="color:#000000;fill:#FF52A2;fill-opacity:1;fill-rule:nonzero;stroke:#4d4d4d;stroke-width:0.92824537;stroke-linecap:butt;stroke-linejoin:miter;stroke-miterlimit:4;stroke-opacity:1;stroke-dasharray:none;stroke-dashoffset:0;marker:none;visibility:visible;display:inline;overflow:visible;enable-background:accumulate"
           d="m 100.8852,121.54592 -1.0102,2.23533 -2.1875,6.46875 0,4.8125 -0.40625,1.03125 c 0.01096,-0.001 0.02015,0.001 0.03125,0 2.682205,-0.24956 5.08808,2.26812 7.65625,2.5625 2.85129,0.32684 6.50373,-0.24599 9.75,-0.40625 0.14738,-0.007 0.32832,-0.0362 0.50614,-0.065 0.65986,-0.12642 0.86736,-0.15533 1.31529,-0.80883 0.35319,-0.65732 0.80357,-1.55279 0.80357,-1.84488 0,-0.48048 -1.625,-2.03125 -1.625,-2.03125 l 0.59375,-4.9375 c 0,0 1.42432,-0.9743 2.15625,-1.4375 0.39459,-0.2497 0.91076,-0.36778 1.21875,-0.71875 0.66233,-0.75479 1.43224,-1.77609 1.1875,-2.75 -0.0354,-0.14077 -0.11515,-0.27162 -0.21875,-0.40625 -0.0537,0.0957 -0.11278,0.19408 -0.1875,0.28125 -0.72072,0.84084 -2.0625,1.3125 -2.0625,1.3125 0,0 -4.94511,1.01453 -7.4375,0.84375 -2.26711,-0.15534 -4.59823,-0.60041 -6.59375,-1.6875 -1.00763,-0.54892 -1.89855,-1.38653 -2.53125,-2.34375 -0.70007,-1.05913 -0.32275,-1.51724 -0.95855,-0.11037 z"
           transform="matrix(4.475833,0,0,4.475833,-534.90187,-379.53381)"
           id="path11079-0-4"
           inkscape:connector-curvature="0"
           sodipodi:nodetypes="ccccccssccsccccccccsssc" />
        <path
           style="color:#000000;fill:#FF52A2;fill-opacity:1;fill-rule:nonzero;stroke:#4d4d4d;stroke-width:4.15467119;stroke-linecap:butt;stroke-linejoin:miter;stroke-miterlimit:4;stroke-opacity:1;stroke-dasharray:none;stroke-dashoffset:0;marker:none;visibility:visible;display:inline;overflow:visible;enable-background:accumulate"
           d="m -93.181172,182.49616 c 1.4179,-0.63882 0.9408,-1.88172 3.0914,-3.49463 2.1505,-1.6129 0.6,-0.0298 2.7506,-2.18035 2.1505,-2.15054 5.5394,-4.26846 8.2275,-2.11792 2.6882,2.15053 14.9464,11.60842 23.6993,14.78214 6.1234,2.22032 12.8568,2.23908 19.3548,2.68818 7.1514,0.49425 14.3733,0.72117 21.5054,0 3.8236,-0.38663 8.6077003,-2.30801 11.2959003,-2.30801 2.68819997,0 0.5493,2.62296 0.5456,5.17275 0,2.5498 -3.2085,7.6179 -4.3011,11.59175 -1.2466,4.53387 -0.692,9.55312 -2.5442,13.87506 -1.2579003,2.93507 -3.0838003,5.82471 -5.6317003,7.74958 -4.3131,3.2585 -9.8939,4.68905 -15.2247,5.58553 -14.4059,2.42265 -40.0538,-0.26882 -43.8172,-0.80645 -3.7635,-0.53763 -19.6237,-7.7957 -21.2366,-9.94624 -1.6129,-2.15053 -3.2258,-8.06451 -5.913998,-9.13978 -2.6881,-1.07527 -8.3333,-5.10753 -16.9354,-8.33333 -8.6022,-3.22581 -10.4269,-10.78849 -9.9463,-17.47312 0.2198,-3.0571 2.8361,-6.0321 5.6452,-7.25807 2.844,-1.2412 6.1806,0.56405 9.2742,0.80646 3.8506,0.30172 7.699,0.67196 11.5591,0.80645 2.865598,0.0998 5.987798,1.17776 8.602198,0 z"
           id="path10974-6-4"
           inkscape:connector-curvature="0"
           sodipodi:nodetypes="asssaaascaaaassssaaaaa" />
      </g>
      <g
         transform="matrix(0.22340209,0,0,0.22340209,234.91154,492.27946)"
         id="g12410-5-6">
        <text
           xml:space="preserve"
           style="font-size:49.23857116999999300px;font-style:normal;font-variant:normal;font-weight:normal;font-stretch:normal;text-indent:0;text-align:start;text-decoration:none;line-height:125%;letter-spacing:0px;word-spacing:0px;text-transform:none;direction:ltr;block-progression:tb;writing-mode:lr-tb;text-anchor:start;baseline-shift:baseline;color:#000000;fill:#000000;fill-opacity:1;fill-rule:nonzero;stroke:none;marker:none;visibility:visible;display:inline;overflow:visible;enable-background:accumulate;font-family:Poppins;-inkscape-font-specification:Poppins"
           x="819.70514"
           y="236.34702"
           id="text11162-14-6-5-3"
           sodipodi:linespacing="125%"><tspan
             sodipodi:role="line"
             id="tspan11164-2-8-2-8"
             x="819.70514"
             y="236.34702">T4</tspan></text>
        <path
           style="color:#000000;fill:none;stroke:#4d4d4d;stroke-width:3.58098722;stroke-linecap:butt;stroke-linejoin:miter;stroke-miterlimit:4;stroke-opacity:1;stroke-dasharray:none;stroke-dashoffset:0;marker:none;visibility:visible;display:inline;overflow:visible;enable-background:accumulate"
           d="m 582.85714,208.07647 210.90443,10.45471"
           id="path11794-2-6"
           inkscape:connector-curvature="0"
           sodipodi:nodetypes="cc" />
      </g>
    </g>
  </g>
</svg>
