<?xml version="1.0" encoding="UTF-8" standalone="no"?>
<!-- Created with Inkscape (http://www.inkscape.org/) -->

<svg
   xmlns:dc="http://purl.org/dc/elements/1.1/"
   xmlns:cc="http://creativecommons.org/ns#"
   xmlns:rdf="http://www.w3.org/1999/02/22-rdf-syntax-ns#"
   xmlns:svg="http://www.w3.org/2000/svg"
   xmlns="http://www.w3.org/2000/svg"
   xmlns:sodipodi="http://sodipodi.sourceforge.net/DTD/sodipodi-0.dtd"
   xmlns:inkscape="http://www.inkscape.org/namespaces/inkscape"
   width="220"
   height="375"
   id="svg5704"
   version="1.1"
   inkscape:version="0.48.5 r10040"
   sodipodi:docname="Spine_green_9.svg">
  <defs
     id="defs5706" />
  <sodipodi:namedview
     id="base"
     pagecolor="#ffffff"
     bordercolor="#666666"
     borderopacity="1.0"
     inkscape:pageopacity="0.0"
     inkscape:pageshadow="2"
     inkscape:zoom="2.8284271"
     inkscape:cx="122.05189"
     inkscape:cy="257.95262"
     inkscape:document-units="px"
     inkscape:current-layer="g12592-3-1"
     showgrid="false"
     inkscape:window-width="1280"
     inkscape:window-height="961"
     inkscape:window-x="-8"
     inkscape:window-y="-8"
     inkscape:window-maximized="1" />
  <metadata
     id="metadata5709">
    <rdf:RDF>
      <cc:Work
         rdf:about="">
        <dc:format>image/svg+xml</dc:format>
        <dc:type
           rdf:resource="http://purl.org/dc/dcmitype/StillImage" />
        <dc:title></dc:title>
      </cc:Work>
    </rdf:RDF>
  </metadata>
  <g
     inkscape:label="Capa 1"
     inkscape:groupmode="layer"
     id="layer1"
     transform="translate(0,-677.36218)">
    <g
       id="g6147"
       transform="translate(-249.00368,269.90451)">
      <g
         id="g12592-3-1"
         transform="matrix(0.2234221,0,0,0.2234221,368.51258,492.25391)"
         style="color:#000000;fill:#FF52A2;fill-opacity:1;fill-rule:nonzero;stroke:#4d4d4d;stroke-width:4.15467119;stroke-linecap:butt;stroke-linejoin:miter;stroke-miterlimit:4;stroke-opacity:1;stroke-dasharray:none;stroke-dashoffset:0;marker:none;visibility:visible;display:inline;overflow:visible;enable-background:accumulate">
        <path
           style="color:#000000;fill:#FF52A2;fill-opacity:1;fill-rule:nonzero;stroke:#4d4d4d;stroke-width:0.92824537;stroke-linecap:butt;stroke-linejoin:round;stroke-miterlimit:4;stroke-opacity:1;stroke-dasharray:none;stroke-dashoffset:0;marker:none;visibility:visible;display:inline;overflow:visible;enable-background:accumulate"
           d="m 90.786334,195.12654 c -0.470826,-0.0765 -1.390426,0.0297 -1.598834,0.0297 -0.459724,0 -1.120811,-0.0832 -1.75,-0.1875 0.0104,0.39467 0.01236,0.7903 -0.03125,1.1875 -0.05695,0.51894 -0.310371,1.01026 -0.34375,1.53125 -0.04001,0.62416 -0.123832,1.31578 0.15625,1.875 0.341143,0.68115 1.35665,0.86099 1.71875,1.53125 0.708002,1.31055 -0.296891,3.26157 0.65625,4.40625 0.882361,1.05964 3.054833,0.29035 3.90625,1.375 0.737561,0.9396 0.287068,2.36934 0.34375,3.5625 0.05105,1.07466 -0.247194,2.17166 0,3.21875 0.03636,0.15404 0.09516,0.29026 0.15625,0.4375 1.331587,-0.73088 2.702875,-1.61841 4,-1.46875 0.174452,-0.18026 0.374166,-0.32463 0.59375,-0.4375 0.659051,-0.33877 1.47775,0.0645 2.21875,0.0625 0.41419,-0.001 0.8361,-0.0763 1.25,-0.0937 -0.74309,-1.45676 -1.43629,-2.94235 -2.09375,-4.4375 -1.646212,-3.74368 -4.23652,-10.42331 -4.23652,-10.42331 0,0 -3.141374,-1.87553 -4.945896,-2.16895 z"
           transform="matrix(4.475833,0,0,4.475833,-534.90187,-379.53381)"
           id="path11071-2-2"
           inkscape:connector-curvature="0"
           sodipodi:nodetypes="cscccsscsscccsccscsc" />
        <path
           style="color:#000000;fill:#FF52A2;fill-opacity:1;fill-rule:nonzero;stroke:#4d4d4d;stroke-width:4.15467119;stroke-linecap:butt;stroke-linejoin:miter;stroke-miterlimit:4;stroke-opacity:1;stroke-dasharray:none;stroke-dashoffset:0;marker:none;visibility:visible;display:inline;overflow:visible;enable-background:accumulate"
           d="m -176.17157,549.96397 c 2.1519,-6.3681 11.0058,-7.95513 15.3291,-13.10218 4.1655,-4.95915 5.5585,-11.90732 9.8843,-16.72726 4.596,-5.12101 9.8667,-10.66621 16.5372,-12.35536 4.6559,-1.17902 9.886,0.0985 14.2562,2.09091 9.7299,4.43614 23.570198,17.48759 24.330498,20.90907 0.7604,3.42148 -1.9008,11.78511 -5.702398,13.30577 -3.8017,1.52066 -13.754,4.63396 -20.9091,4.94215 -4.3509,0.1874 -8.5969,-2.37703 -12.9256,-1.90083 -5.9894,0.65888 -11.4353,3.88389 -16.8847,6.4549 -5.3799,2.53816 -9.6004,9.4227 -15.5176,8.81296 -3.1197,-0.32146 -5.4753,-3.51174 -7.0617,-6.21703 -1.0716,-1.82735 -2.0144,-4.2062 -1.3362,-6.2131 z"
           id="path11047-8-7"
           inkscape:connector-curvature="0"
           sodipodi:nodetypes="aaaaassaaaaaa" />
        <path
           style="color:#000000;fill:#FF52A2;fill-opacity:1;fill-rule:nonzero;stroke:#4d4d4d;stroke-width:0.92824537;stroke-linecap:round;stroke-linejoin:round;stroke-miterlimit:4;stroke-opacity:1;stroke-dasharray:none;stroke-dashoffset:0;marker:none;visibility:visible;display:inline;overflow:visible;enable-background:accumulate"
           d="m 92.65625,201.09375 c 0.876798,2.19134 2.557503,3.98941 3.5625,6.125 0.760647,1.61636 1.403512,3.43401 2,5.21875 0.118955,-0.0987 0.238885,-0.18003 0.375,-0.25 0.659051,-0.33877 1.47775,0.0645 2.21875,0.0625 0.62093,-0.002 1.25757,-0.12842 1.875,-0.0625 0.076,0.008 0.14376,0.0487 0.21875,0.0625 -0.98071,-0.84045 -2.41144,-1.91388 -2.59375,-2.3125 -1.358987,-2.97144 -3.655926,-5.79985 -4.84375,-8.84375 -0.321616,-0.82419 0.303452,-2.72911 0,-3.5625 -0.07831,-0.21503 -0.170059,-0.3883 -0.25,-0.59375 -0.506664,-0.29131 -0.999319,-0.56491 -1.4375,-0.84375 -1.321318,-0.84083 -1.872569,-0.55089 -2.734375,-0.92188 0.03173,2.15085 0.999844,4.38958 1.609375,5.92188 z"
           transform="matrix(4.475833,0,0,4.475833,-534.90187,-379.53381)"
           id="path11104-9-6"
           inkscape:connector-curvature="0"
           sodipodi:nodetypes="cscccccssccscc" />
        <path
           style="color:#000000;fill:#FF52A2;fill-opacity:1;fill-rule:nonzero;stroke:#4d4d4d;stroke-width:0.92824537;stroke-linecap:butt;stroke-linejoin:miter;stroke-miterlimit:4;stroke-opacity:1;stroke-dasharray:none;stroke-dashoffset:0;marker:none;visibility:visible;display:inline;overflow:visible;enable-background:accumulate"
           d="m 94.34375,196.4375 0.46875,2.53125 1.21875,7.4375 1.90625,4.5625 0.6875,1.21875 c 0.654385,-0.31435 1.45665,0.0645 2.1875,0.0625 0.62093,-0.002 1.25757,-0.12842 1.875,-0.0625 0.49247,0.0526 0.95703,0.22363 1.4375,0.34375 2.08207,0.52052 4.11567,1.33757 6.25,1.5625 3.98438,0.41989 8.09179,0.47542 12,-0.40625 1.49923,-0.33822 2.92868,-2.084 4.25,-1.84375 0.10799,0.0196 0.1981,0.0477 0.28125,0.0937 0.13602,-0.77036 0.21935,-1.70438 -0.0312,-2.28125 -0.32888,-0.75709 -2.8125,-1.5625 -2.8125,-1.5625 l -2.6875,-1.1875 -1.34375,-2.0625 1.6875,-3.34375 0.125,-1.6875 c 0,0 0.0399,-1.33503 -0.34375,-1.8125 -0.12843,-0.15985 -0.31242,-0.3057 -0.53125,-0.4375 0.003,0.22441 -0.0821,0.43088 -0.28125,0.625 -0.50565,0.49292 -7.82405,2.249 -11.84375,2.25 -3.51765,8.9e-4 -7.0469,-0.82961 -10.375,-1.96875 -1.438391,-0.49234 -2.898489,-1.27645 -4.125,-2.03125 z"
           transform="matrix(4.475833,0,0,4.475833,-534.90187,-379.53381)"
           id="path11079-0-4"
           inkscape:connector-curvature="0"
           sodipodi:nodetypes="ccccccssssccccccccsccsscc" />
        <path
           style="color:#000000;fill:#FF52A2;fill-opacity:1;fill-rule:nonzero;stroke:#4d4d4d;stroke-width:4.15467119;stroke-linecap:butt;stroke-linejoin:miter;stroke-miterlimit:4;stroke-opacity:1;stroke-dasharray:none;stroke-dashoffset:0;marker:none;visibility:visible;display:inline;overflow:visible;enable-background:accumulate"
           d="m 10.657828,515.4173 c 1.1036,1.29524 0.4224,8.10839 1.2356,12.07023 0.8542,4.16173 1.9757,8.32918 3.8016,12.1653 2.201,4.62404 7.1969,10.05997 8.4913,12.80352 0.7851,1.66391 -0.038,2.70909 -2.53,4.90538 -2.2105,1.94778 -11.2788,5.97595 -13.3958997,6.84437 -11.3161,4.64183 -20.1142003,3.92355 -30.3130003,4.33923 -12.5211,0.51032 -25.275,0.35987 -37.525,-2.281 -10.733,-2.31383 -21.3717,-6.06709 -30.7811,-11.72517 -3.2652,-1.96345 -3.2258,-7.5269 -8.6021,-7.5269 -5.376398,0 -8.363798,1.54121 -12.365598,0.53767 -6.8206,-1.7104 -14.9749,-4.47813 -18.1491,-10.7527 -2,-3.95342 -1.2014,-9.581 1.317,-13.22611 2.69,-3.89329 8.0377,-5.59793 12.7155,-6.31327 8.9069,-1.36206 22.396198,3.1606 26.697198,4.2359 4.3011,1.0752 24.9682,4.95215 37.6344,5.62608 8.5081,0.45269 17.1039,0.13432 25.5377,-1.07527 9.9603,-1.42852 19.8408003,-3.82995 29.3011003,-7.25811 2.415,-0.87514 5.8269,-4.66439 6.9303997,-3.36915 z"
           id="path49952-4-8"
           inkscape:connector-curvature="0"
           sodipodi:nodetypes="zaasssaassaaaacaaaz" />
      </g>
      <g
         transform="matrix(0.22340209,0,0,0.22340209,234.91154,492.27946)"
         id="g12440-0-4">
        <text
           xml:space="preserve"
           style="font-size:49.23857116999999300px;font-style:normal;font-variant:normal;font-weight:normal;font-stretch:normal;text-indent:0;text-align:start;text-decoration:none;line-height:125%;letter-spacing:0px;word-spacing:0px;text-transform:none;direction:ltr;block-progression:tb;writing-mode:lr-tb;text-anchor:start;baseline-shift:baseline;color:#000000;fill:#000000;fill-opacity:1;fill-rule:nonzero;stroke:none;marker:none;visibility:visible;display:inline;overflow:visible;enable-background:accumulate;font-family:Poppins;-inkscape-font-specification:Poppins"
           x="819.70514"
           y="566.9964"
           id="text11162-14-34-8-2"
           sodipodi:linespacing="125%"><tspan
             sodipodi:role="line"
             id="tspan11164-2-11-5-1"
             x="819.70514"
             y="566.9964">T10</tspan></text>
        <path
           style="color:#000000;fill:none;stroke:#4d4d4d;stroke-width:3.58098722;stroke-linecap:butt;stroke-linejoin:miter;stroke-miterlimit:4;stroke-opacity:1;stroke-dasharray:none;stroke-dashoffset:0;marker:none;visibility:visible;display:inline;overflow:visible;enable-background:accumulate"
           d="m 608.57143,540.93361 185.19014,6.72836"
           id="path11806-0-9"
           inkscape:connector-curvature="0"
           sodipodi:nodetypes="cc" />
      </g>
    </g>
  </g>
</svg>
