<?xml version="1.0" encoding="UTF-8" standalone="no"?>
<!-- Created with Inkscape (http://www.inkscape.org/) -->

<svg
   xmlns:dc="http://purl.org/dc/elements/1.1/"
   xmlns:cc="http://creativecommons.org/ns#"
   xmlns:rdf="http://www.w3.org/1999/02/22-rdf-syntax-ns#"
   xmlns:svg="http://www.w3.org/2000/svg"
   xmlns="http://www.w3.org/2000/svg"
   xmlns:sodipodi="http://sodipodi.sourceforge.net/DTD/sodipodi-0.dtd"
   xmlns:inkscape="http://www.inkscape.org/namespaces/inkscape"
   width="220"
   height="375"
   id="svg5704"
   version="1.1"
   inkscape:version="0.48.5 r10040"
   sodipodi:docname="Spine_green_spinal_cord.svg">
  <defs
     id="defs5706">
    <inkscape:path-effect
       effect="spiro"
       id="path-effect3941"
       is_visible="true" />
  </defs>
  <sodipodi:namedview
     id="base"
     pagecolor="#ffffff"
     bordercolor="#666666"
     borderopacity="1.0"
     inkscape:pageopacity="0.0"
     inkscape:pageshadow="2"
     inkscape:zoom="2.8747948"
     inkscape:cx="123.73677"
     inkscape:cy="300.2433"
     inkscape:document-units="px"
     inkscape:current-layer="g6147"
     showgrid="false"
     inkscape:window-width="1280"
     inkscape:window-height="961"
     inkscape:window-x="-8"
     inkscape:window-y="-8"
     inkscape:window-maximized="1" />
  <metadata
     id="metadata5709">
    <rdf:RDF>
      <cc:Work
         rdf:about="">
        <dc:format>image/svg+xml</dc:format>
        <dc:type
           rdf:resource="http://purl.org/dc/dcmitype/StillImage" />
        <dc:title></dc:title>
      </cc:Work>
    </rdf:RDF>
  </metadata>
  <g
     inkscape:label="Capa 1"
     inkscape:groupmode="layer"
     id="layer1"
     transform="translate(0,-677.36218)">
    <g
       id="g6147"
       transform="translate(-249.00368,269.90451)">
      <g
         id="g12592-3-1"
         transform="matrix(0.2234221,0,0,0.2234221,368.51258,492.25391)"
         style="color:#000000;fill:#FF52A2;fill-opacity:1;fill-rule:nonzero;stroke:#4d4d4d;stroke-width:4.15467119;stroke-linecap:butt;stroke-linejoin:miter;stroke-miterlimit:4;stroke-opacity:1;stroke-dasharray:none;stroke-dashoffset:0;marker:none;visibility:visible;display:inline;overflow:visible;enable-background:accumulate">
        <path
           style="color:#000000;fill:#FF52A2;fill-opacity:1;fill-rule:nonzero;stroke:#4d4d4d;stroke-width:0.92824537;stroke-linecap:butt;stroke-linejoin:miter;stroke-miterlimit:4;stroke-opacity:1;stroke-dasharray:none;stroke-dashoffset:0;marker:none;visibility:visible;display:inline;overflow:visible;enable-background:accumulate"
           d="m 125.96875,8.78125 -4.78125,2.5625 -7.125,0.84375 -0.15625,2.90625 c 0,0 -2.5495,3.208925 -3.25,5.09375 -0.5384,1.448743 -0.68156,3.01715 -0.65625,4.5625 0.0311,1.898998 0.42089,3.816188 1,5.625 0.6488,2.026443 2.25457,3.704729 2.71875,5.78125 0.35823,1.602569 0.063,3.26534 0,4.90625 -0.0283,0.737753 -0.1279,1.480997 -0.15625,2.21875 -0.0521,1.357995 -0.14829,2.711618 0,4.0625 0.11395,1.037876 0.57355,2.024624 0.6875,3.0625 0.11122,1.013161 0.19275,2.061643 0,3.0625 -0.23066,1.197728 -1.14434,2.208522 -1.375,3.40625 -0.19275,1.000857 0,2.043253 0,3.0625 0,0.622872 0.11944,1.232436 0,1.84375 -0.37501,1.919522 -1.72012,3.546317 -2.21875,5.4375 -0.33484,1.270003 -0.28616,2.610373 -0.5,3.90625 -0.18805,1.139513 -0.42051,2.282609 -0.6875,3.40625 -0.39378,1.657316 -0.97209,3.275083 -1.34375,4.9375 -0.36357,1.626202 -0.57857,3.261135 -0.84375,4.90625 -0.18222,1.130574 -0.20184,2.309487 -0.53125,3.40625 -0.0614,0.204517 -0.14556,0.393616 -0.21875,0.59375 0.35693,-0.0043 0.74079,0.07358 1.09375,0.09375 0.7021,0.04013 1.33126,0.365938 2.0625,0.28125 0.66432,-0.07694 1.81884,0.354014 2.46875,0.09375 0.71555,-0.286537 1.07184,-1.540886 1.78125,-1.34375 0.5214,0.144894 0.69394,0.843691 1.15625,1.125 0.14214,0.08649 0.29122,0.171162 0.4375,0.25 1.57678,-3.763023 3.06485,-7.553507 4.3125,-11.4375 2.39877,-7.467486 4.44166,-15.13596 5.25,-22.9375 0.30352,-2.929354 0.0203,-5.904016 -0.15625,-8.84375 -0.60751,-10.112393 -3.74199,-28.551255 -3.0625,-30.25 0.67949,-1.698743 4.09375,-6.625 4.09375,-6.625 z"
           transform="matrix(4.475833,0,0,4.475833,-534.90187,-379.53381)"
           id="path11071-2-2"
           inkscape:connector-curvature="0"
           sodipodi:nodetypes="cccccsssscccssscscsscccsscsscssssc" />
        <path
           style="color:#000000;fill:#FF52A2;fill-opacity:1;fill-rule:nonzero;stroke:#4d4d4d;stroke-width:4.15467119;stroke-linecap:butt;stroke-linejoin:miter;stroke-miterlimit:4;stroke-opacity:1;stroke-dasharray:none;stroke-dashoffset:0;marker:none;visibility:visible;display:inline;overflow:visible;enable-background:accumulate"
           d="m -126.64897,-18.310292 c 7.0467,-1.19418 14.3379,-1.08868 21.2366,-2.95699 9.540598,-2.58382 18.183498,-7.76913 27.419298,-11.29033 6.5671,-2.50374 12.9644,-5.80754 19.8925,-6.98924 7.5964,-1.29568 13.4409,-1.61291 23.1183,0 9.6774,1.6129 28.4946003,4.30107 28.4946003,4.30107 0,0 6.98929997,5.37635 6.98929997,7.52688 0,2.15054 1.07520003,6.98925 -0.5377,9.13979 -1.61289997,2.15054 -14.51610027,17.2043004 -14.51610027,17.2043004 0,0 -12.9032,4.83871 -17.7419,4.83871 -4.8388,0 -13.1992,-0.55878 -19.3549,-2.68816998 -4.7058,-1.62784 -8.1366,-6.08673002 -12.9032,-7.52688002 -5.8429,-1.76534 -12.1786,-1.25754 -18.2796,-1.07527 -7.5766,0.22636 -15.002,2.83261 -22.580598,2.68817 -6.8932,-0.13137 -14.3939,0.10543 -20.4301,-3.22581 -3.3358,-1.8409604 -8.7518,-4.9943104 -7.5269,-8.6021504 0.7344,-2.16324 4.468,-0.96237 6.7204,-1.34408 z"
           id="path11027-3-1"
           inkscape:connector-curvature="0"
           sodipodi:nodetypes="aaaascsscsaaaaaaa" />
        <path
           style="color:#000000;fill:#FF52A2;fill-opacity:1;fill-rule:nonzero;stroke:#4d4d4d;stroke-width:0.92824537;stroke-linecap:butt;stroke-linejoin:miter;stroke-miterlimit:4;stroke-opacity:1;stroke-dasharray:none;stroke-dashoffset:0;marker:none;visibility:visible;display:inline;overflow:visible;enable-background:accumulate"
           d="m 115.46875,13.03125 5.59375,23.125 1.25,11.34375 -1.78125,11.40625 -1.4375,13.21875 -3.375,9.59375 -2.65625,6.25 c 0.25665,-0.308893 0.53207,-0.564047 0.875,-0.46875 0.5214,0.144894 0.69394,0.843691 1.15625,1.125 1.70569,1.037885 3.72793,1.523264 5.6875,1.90625 1.90986,0.373271 4.25239,0.315027 5.8125,0.375 1.56011,0.05997 2.81569,-0.353374 3.75,0.15625 0.11679,0.0637 0.21737,0.113197 0.28125,0.1875 0.12519,-0.03849 0.22998,-0.09267 0.34375,-0.15625 0.55663,-0.311091 1.14444,-0.699821 1.40625,-1.28125 0.25075,-0.556837 0.0312,-1.84375 0.0312,-1.84375 l -1.1875,-1.4375 0.46875,-5.78125 c 0,0 2.51734,-1.617657 3.5,-2.71875 0.30522,-0.341999 0.53793,-0.735035 0.71875,-1.15625 0.20019,-0.466304 0.4013,-0.993227 0.375,-1.5 -0.0716,-1.379446 -1.46875,-3.243153 -1.46875,-3.84375 0,-0.600599 0.375,-3.125 0.375,-3.125 l 2.875,-1.9375 c 0,0 1.54031,-1.356455 1.90625,-2.28125 0.34302,-0.866867 0.27638,-2.300774 0.15625,-2.78125 -0.12011,-0.480478 -0.875,-0.9375 -0.875,-0.9375 l -1.4375,-1.8125 0.8125,-5.4375 2.0625,0 c 0,0 0.69239,-0.644522 0.8125,-1.125 0.12011,-0.480476 0.1631,-1.238272 -0.4375,-1.71875 -0.6006,-0.480478 -1.4375,-1.8125 -1.4375,-1.8125 l -1.8125,-1.65625 1.09375,-5.65625 c 0,0 1.83261,-0.215413 2.40625,-0.84375 0.3339,-0.365771 0.46824,-0.958126 0.34375,-1.4375 -0.22074,-0.849942 -1.30076,-1.697277 -1.78125,-1.9375 -0.48047,-0.240246 -2.28125,-1.65625 -2.28125,-1.65625 l -0.625,-2.53125 0.9375,-2.6875 0.625,-3.15625 c 0,0 0.29589,0.126965 0.65625,-0.59375 0.36036,-0.720715 -0.25,-1.21875 -0.25,-1.21875 l -1.84375,-0.53125 -1.96875,-2.9375 c 0,0 -0.34375,-2.066492 -0.34375,-2.40625 0,-0.339758 0.0937,-0.84375 0.0937,-0.84375 0,0 1.17386,-1.615374 1.34375,-2.125 0.16987,-0.509626 -0.15146,-0.749201 -0.40625,-1.34375 -0.25481,-0.594571 -0.69151,-0.866195 -1.03125,-0.78125 z"
           transform="matrix(4.475833,0,0,4.475833,-534.90187,-379.53381)"
           id="path11079-0-4"
           inkscape:connector-curvature="0"
           sodipodi:nodetypes="cccccccssssscsccccsccsccscccccssccccccccccscccsccccc" />
        <path
           style="color:#000000;fill:#FF52A2;fill-opacity:1;fill-rule:nonzero;stroke:#4d4d4d;stroke-width:4.15467119;stroke-linecap:butt;stroke-linejoin:miter;stroke-miterlimit:4;stroke-opacity:1;stroke-dasharray:none;stroke-dashoffset:0;marker:none;visibility:visible;display:inline;overflow:visible;enable-background:accumulate"
           d="m -6.5146717,-39.573872 c 6.75549997,1.04597 12.2542,6.2743 18.8441997,8.09153 7.8432,2.16278 16.0755,2.68699 24.1936,3.22581 8.9409,0.59343 17.9352,-0.50189 26.8817,0 1.1312,0.0635 2.7139,-0.53807 3.3777,0.38016 1.5018,2.07771 -0.9745,5.03583 -1.5803,7.52688 -0.8478,3.48605 -2.0213,6.88737 -2.8727,10.3725304 -0.8695,3.55931 -1.7068,7.13397 -2.281,10.75269002 -0.5648,3.55980998 0.4741,7.53018998 -1.1405,10.75268958 -1.3335,2.66154 -3.8698,4.7747 -6.5494,6.07145 -2.8493,1.37884 -6.2279,1.21214 -9.3839,1.45543 -10.3635,0.79891 -20.902,1.53156 -31.1828,0 -9.2631997,-1.37996 -18.6073997,-3.79186 -26.8762,-8.18938 -3.3223,-1.7668996 -7.768,-3.4856496 -8.7652,-7.1140996 -1.1403,-4.14954998 2.9067,-8.10205 4.4586,-12.11588 0.9397,-2.4305204 2.1712,-4.7540104 2.9379,-7.2445604 1.0911,-3.54471 1.5655,-7.2506 2.3406,-10.87753 0.8975,-4.19939 -0.5252,-9.73823 2.6747,-12.60193 1.2288,-1.09964 3.2935003,-0.73809 4.9230003,-0.48579 z"
           id="path10999-5-3"
           inkscape:connector-curvature="0"
           sodipodi:nodetypes="aaaaaaaaaaaaaaaaaaa" />
        <path
           style="color:#000000;fill:#FF52A2;fill-opacity:1;fill-rule:nonzero;stroke:#4d4d4d;stroke-width:4.15467119;stroke-linecap:butt;stroke-linejoin:miter;stroke-miterlimit:4;stroke-opacity:1;stroke-dasharray:none;stroke-dashoffset:0;marker:none;visibility:visible;display:inline;overflow:visible;enable-background:accumulate"
           d="m -104.52157,-66.428572 c 2.6881,-2.68817 14.016398,-13.63863 22.227498,-18.81721 6.6489,-4.19338 13.9784,-8.60215 21.5053,-9.67742 7.5269,-1.07526 30.6452,-2.15053 35.4839,-2.15053 4.8387,0 15.5914003,1.6129 19.8925003,3.2258 4.301,1.61291 9.1398,4.30108 13.4408,9.13979 4.3010997,4.83871 5.3763997,9.13978 4.8386997,12.90322 -0.5376,3.76344 -6.4515997,9.13979 -8.6020997,10.75269 -2.1505,1.61291 -12.3656,5.91398 -19.8925003,6.45161 -7.5269,0.53764 -14.9818,-2.71194 -22.385,-4.46973 -7.6626,-1.81941 -15.0283,-4.87067 -22.7763,-6.28295 -3.4335,-0.62585 -6.955,-1.31538 -10.4265,-0.95601 -5.3341,0.55218 -10.1852,3.38817 -15.3799,4.71944 -5.1411,1.31754 -11.0461,5.96567 -15.591398,3.22581 -2.3968,-1.44478 -2.335,-8.06451 -2.335,-8.06451 z"
           id="path11025-6-3"
           inkscape:connector-curvature="0"
           sodipodi:nodetypes="casssssssaaaaac" />
        <path
           style="color:#000000;fill:#FF52A2;fill-opacity:1;fill-rule:nonzero;stroke:#4d4d4d;stroke-width:4.15467119;stroke-linecap:butt;stroke-linejoin:miter;stroke-miterlimit:4;stroke-opacity:1;stroke-dasharray:none;stroke-dashoffset:0;marker:none;visibility:visible;display:inline;overflow:visible;enable-background:accumulate"
           d="m 84.934228,-85.468192 c 2.1701,5.08659 -3.5589,10.47516 -5.1323,15.77684 -1.2505,4.21406 -2.242,8.50101 -3.4215,12.73552 -0.9201,3.30336 -0.8404,7.10664 -2.8512,9.88429 -1.9786,2.73319 -5.2091,4.50478 -8.3636,5.70247 -7.4648,2.8342 -15.7784,2.82912 -23.7603,3.04132 -11.1148,0.29549 -22.5874,0.63138 -33.2644997,-2.47107 -4.8997,-1.42372 -11.2544,-2.63938 -13.4958,-7.22313 -0.9884,-2.02127 0.7062,-4.44522 1.1405,-6.65289 0.6764,-3.43905 1.8985,-6.78043 2.281,-10.26445 0.7052,-6.42421 -1.0195,-13.00653 0,-19.38841 0.6416,-4.01652 0.2772,-9.56467 3.8016,-11.59504 4.7702,-2.748 10.8313997,2.02715 16.1569997,3.42149 6.3588,1.66484 12.3345,4.81253 18.8182,5.89256 4.6891,0.7811 9.5034,0.47607 14.2562,0.38017 9.4601,-0.1909 19.033,-3.70057 28.3223,-1.90083 2.0031,0.38809 4.7117,0.78445 5.5124,2.66116 z"
           id="path11001-6-4"
           inkscape:connector-curvature="0"
           sodipodi:nodetypes="aaaaaaaaaaaaaaaaa" />
        <path
           style="color:#000000;fill:#FF52A2;fill-opacity:1;fill-rule:nonzero;stroke:#4d4d4d;stroke-width:4.15467119;stroke-linecap:butt;stroke-linejoin:miter;stroke-miterlimit:4;stroke-opacity:1;stroke-dasharray:none;stroke-dashoffset:0;marker:none;visibility:visible;display:inline;overflow:visible;enable-background:accumulate"
           d="m -78.726772,-136.79046 c -4.355,2.22375 -11.2108,2.89908 -12.5455,7.60329 -0.7516,2.64901 1.9098,5.31736 3.7634,7.35359 1.9336,2.12407 4.5048,3.84766 7.2693,4.6272 3.657,1.0312 7.7485,0.8648 11.397,-0.19567 5.134,-1.49219 8.4594,-7.23816 13.686,-8.36363 4.9938,-1.07536 10.572,-0.2475 15.2066,1.90082 3.9056,1.8104 5.6145,6.89921 9.5041,8.7438 4.0481,1.91978 8.8368,1.58322 13.3058,1.90082 4.4241,0.31441 8.8768003,0.23592 13.3057003,0 5.7269,-0.30505 17.1074997,-1.82769 17.1074997,-1.82769 l 9.2715,-12.67096 -2.6882,-11.29033 -13.9784997,-8.06451 c 0,0 -10.6971,-2.23861 -16.1290003,-2.68817 -5.8939,-0.48779 -11.9568,-1.22769 -17.742,0 -5.1797,1.09921 -9.3502,5.28932 -14.5161,6.45161 -7.1706,1.61331 -14.8575,-1.00797 -22.043,0.53763 -5.0138,1.07845 -9.6072,3.64996 -14.1746,5.9822 z"
           id="path11023-6-1"
           inkscape:connector-curvature="0"
           sodipodi:nodetypes="aaaaaaaaaaccccaaaaa" />
        <path
           style="color:#000000;fill:#FF52A2;fill-opacity:1;fill-rule:nonzero;stroke:#4d4d4d;stroke-width:4.15467119;stroke-linecap:butt;stroke-linejoin:miter;stroke-miterlimit:4;stroke-opacity:1;stroke-dasharray:none;stroke-dashoffset:0;marker:none;visibility:visible;display:inline;overflow:visible;enable-background:accumulate"
           d="m 17.705928,-154.28008 c 8.0109,3.17729 15.4138,7.91444 23.6559,10.43215 6.7911,2.0745 13.8699,3.55335 20.9677,3.76345 7.3215,0.21672 14.5208,-1.98869 21.8203,-2.59593 3.7548,-0.31235 8.674,-3.24875 11.2903,-0.53764 1.4986,1.55282 -0.2641,4.31103 -0.5376,6.45161 -0.6187,4.84169 -2.082,9.56572 -2.4925,14.42948 -0.2862,3.39111 0.01,6.80634 0.027,10.20946 0.014,2.65747 0.9817,5.47985 0.06,7.97228 -0.6735,1.8207 -2.1829,3.35486 -3.8231,4.393318 -5.0332,3.18674 -11.3029,4.02461 -17.2043,4.8387 -9.4091,1.29797 -19.0203,0.67332 -28.4946,0 -7.5841,-0.53899 -15.4906,-0.47961 -22.5806,-3.2258 -5.0523,-1.956888 -10.7189997,-4.455148 -13.4408997,-9.139788 -2.0718,-3.56569 -0.9471,-8.2092 -0.9774,-12.33297 -0.054,-7.37361 -0.1605,-15.00662 1.4228,-22.07563 1.1321,-5.05459 1.763,-12.55876 3.3180997,-15.05376 1.307,-2.09708 4.6922,1.56004 6.9892,2.47107 z"
           id="path11003-7-1"
           inkscape:connector-curvature="0"
           sodipodi:nodetypes="aaaaaaaaaaaaaaassa" />
        <path
           style="color:#000000;fill:#FF52A2;fill-opacity:1;fill-rule:nonzero;stroke:#4d4d4d;stroke-width:4.15467119;stroke-linecap:butt;stroke-linejoin:miter;stroke-miterlimit:4;stroke-opacity:1;stroke-dasharray:none;stroke-dashoffset:0;marker:none;visibility:visible;display:inline;overflow:visible;enable-background:accumulate"
           d="m -75.685472,-185.07141 c -2.857,2.63607 -4.9978,7.32609 -3.8017,11.02478 1.2873,3.98077 6.1077,6.74863 10.2645,7.22314 4.3487,0.49642 8.4735,-2.59079 12.1653,-4.94215 2.0419,-1.3006 3.1157,-3.94606 5.3223,-4.94214 3.4822,-1.57192 7.6126,-1.60424 11.4049,-1.1405 1.8699,0.22866 3.7549,0.85586 5.3223,1.90083 3.1349,2.08995 4.5451,6.163 7.6033,8.36363 2.8094,2.02158 6.1171,3.4696 9.5041,4.18181 4.7124,0.99088 9.7391003,1.0152 14.4463003,0 5.7103,-1.23153 12.9256,-5.70247 15.9668997,-7.22313 3.0414,-1.52066 14.0661,-9.12396 14.0661,-9.12396 l -10.2644,-17.86775 c 0,0 -7.7422997,-5.39957 -12.1652997,-6.84297 -5.09540003,-1.66282 -10.6072,-1.94326 -15.9669003,-1.90083 -4.7312,0.0374 -9.6263,0.2659 -14.0661,1.90083 -3.9583,1.4576 -6.8635,4.97336 -10.6446,6.84297 -5.6775,2.80722 -11.8851,4.38408 -17.8678,6.4628 -2.6497,0.92066 -5.2929,1.86785 -7.9835,2.66116 -4.3925,1.29513 -9.94,0.31596 -13.3057,3.42148 z"
           id="path11021-6-3"
           inkscape:connector-curvature="0"
           sodipodi:nodetypes="aaaaaaaaaasccaaaaaaa" />
        <path
           style="color:#000000;fill:#FF52A2;fill-opacity:1;fill-rule:nonzero;stroke:#4d4d4d;stroke-width:4.15467119;stroke-linecap:butt;stroke-linejoin:miter;stroke-miterlimit:4;stroke-opacity:1;stroke-dasharray:none;stroke-dashoffset:0;marker:none;visibility:visible;display:inline;overflow:visible;enable-background:accumulate"
           d="m 9.1959283,-213.07231 c 9.9036997,7.29124 23.5448997,11.06368 36.0215997,14.51613 9.3991,2.60086 19.1688,3.89627 28.8978,4.56989 7.1638,0.49601 16.4265,-2.77678 21.5475,-1.74335 2.5335,0.51125 0.9946,2.56329 0.9197,6.17957 -0.08,3.88511 -0.1539,8.67532 -0.1132,11.83118 0.086,6.63572 4.535802,14.4032 0.8064,19.89247 -2.9694,4.3707 -9.7775,4.21503 -14.9615,5.23797 -8.684,1.71359 -17.6776,1.85939 -26.5174,1.40372 -7.9523,-0.40993 -15.8668,-1.8057 -23.5989,-3.70897 -6.3078,-1.55269 -12.7167,-2.49263 -18.4568,-6.25636 -3.5057,-2.29869 -2.2076,-3.66165 -2.9323,-5.65867 -1.8921997,-5.21479 -2.7315997,-10.76928 -3.6002997,-16.2483 -0.6183,-3.89955 -0.9814,-7.84469 -1.1405,-11.78974 -0.1616,-4.00513 -0.7203,-8.12 0.1901,-12.02365 0.5195,-2.22774 1.2,-7.4813 2.9378,-6.20189 z"
           id="path11005-7-8"
           inkscape:connector-curvature="0"
           sodipodi:nodetypes="sassssaaaasaaaas" />
        <path
           style="color:#000000;fill:#FF52A2;fill-opacity:1;fill-rule:nonzero;stroke:#4d4d4d;stroke-width:4.15467119;stroke-linecap:butt;stroke-linejoin:miter;stroke-miterlimit:4;stroke-opacity:1;stroke-dasharray:none;stroke-dashoffset:0;marker:none;visibility:visible;display:inline;overflow:visible;enable-background:accumulate"
           d="m -74.229572,-241.69739 c -2.5405,1.93053 -5.5489,4.35707 -5.914,7.52689 -0.3394,2.94699 1.202,6.56819 3.7634,8.06451 4.0352,2.35724 9.5949,0.5444 13.9785,-1.07527 5.4134,-2.00015 8.555,-8.24254 13.9785,-10.21505 2.5319,-0.92084 5.7521,-1.92002 8.0645,-0.53764 1.8587,1.11109 1.652,4.01259 2.6882,5.91398 1.4273,2.61899 2.6883,5.46 4.8387,7.52688 2.5484,2.44935 5.7443,4.39451 9.1398,5.37635 5.5118,1.59378 11.5124,1.26023 17.2043003,0.53763 8.8892,-1.12851 25.8064997,-7.52688 25.8064997,-7.52688 l 0,-10.75269 c 0,0 -3.1269,-12.7521 -7.5269,-17.2043 -4.2849997,-4.33572 -10.6702997,-6.43022 -16.6666997,-7.52688 -5.6522003,-1.03371 -11.4788003,1.55929 -17.2043003,1.07527 -3.1187,-0.26364 -6.0643,-1.57023 -9.1398,-2.15054 -1.2452,-0.23496 -2.5373,-0.85786 -3.7634,-0.53763 -3.7108,0.9692 -6.068,4.6928 -9.1398,6.98925 -4.6222,3.45553 -8.6588,7.97773 -13.9785,10.21505 -3.0145,1.26783 -6.5344,0.70923 -9.6774,1.6129 -2.2391,0.64377 -4.5967,1.27859 -6.4516,2.68817 z"
           id="path11019-7-7"
           inkscape:connector-curvature="0"
           sodipodi:nodetypes="aaaaaaaaaaccaaaaaaaaa" />
        <path
           style="color:#000000;fill:#FF52A2;fill-opacity:1;fill-rule:nonzero;stroke:#4d4d4d;stroke-width:4.15467119;stroke-linecap:butt;stroke-linejoin:miter;stroke-miterlimit:4;stroke-opacity:1;stroke-dasharray:none;stroke-dashoffset:0;marker:none;visibility:visible;display:inline;overflow:visible;enable-background:accumulate"
           d="m 86.835028,-256.7325 c 2.17,5.75328 -0.7878,12.29291 -0.5703,18.438 0.1104,3.11885 -0.1518,6.39436 0.9504,9.31404 1.7326,4.58932 7.2371,7.24975 8.5538,11.9752 0.6652,2.38743 0.9667,5.46897 -0.5703,7.41321 -3.0942,3.91413 -9.3152,3.86858 -14.2562,4.56198 -10.1697,1.42717 -30.7933,-0.95041 -30.7933,-0.95041 0,0 -14.6751,-1.28743 -21.6694,-3.42149 -7.7543,-2.36595 -20.9090997,-6.84296 -22.0495997,-10.26445 -1.1405,-3.42148 -4.1818,-12.54544 -5.3223,-15.58676 -1.14050003,-3.04132 -4.9422,-17.10742 -4.9422,-20.52891 0,-3.42148 -3.0413,-12.16527 1.1405,-13.68593 4.1819,-1.52066 0.956,-0.73332 9.6998,4.96916 8.7437997,5.70247 27.5563997,8.71677 32.8786997,9.4771 5.3223,0.76033 17.4876,1.52066 23.9504,-0.38016 6.4628,-1.90083 21.2052,-3.24828 21.2052,-3.24828 0,0 1.4858,1.09852 1.7948,1.9177 z"
           id="path11007-1-4"
           inkscape:connector-curvature="0"
           sodipodi:nodetypes="aaaaaacssssssssca" />
        <path
           style="color:#000000;fill:#FF52A2;fill-opacity:1;fill-rule:nonzero;stroke:#4d4d4d;stroke-width:4.15467119;stroke-linecap:butt;stroke-linejoin:miter;stroke-miterlimit:4;stroke-opacity:1;stroke-dasharray:none;stroke-dashoffset:0;marker:none;visibility:visible;display:inline;overflow:visible;enable-background:accumulate"
           d="m -46.810272,-340.08448 c 4.3346,-2.16727 12.3656,-3.76343 18.2796,-6.45161 5.914,-2.68818 13.4409,-5.37635 17.2043,-5.37635 3.7634003,0 19.3548003,2.15054 19.3548003,2.15054 l -3.7634,4.83871 c 0,0 -7.1624,5.66024 -15.0538003,8.06452 -7.8913,2.40428 -24.8755,3.19255 -32.258,3.2258 -7.3826,0.0332 -11.828,-1.07527 -11.828,-1.07527 0,0 3.73,-3.20907 8.0645,-5.37634 z"
           id="path11015-9-2"
           inkscape:connector-curvature="0"
           sodipodi:nodetypes="zzzcczzcz" />
        <path
           style="color:#000000;fill:#FF52A2;fill-opacity:1;fill-rule:nonzero;stroke:#4d4d4d;stroke-width:4.15467119;stroke-linecap:butt;stroke-linejoin:miter;stroke-miterlimit:4;stroke-opacity:1;stroke-dasharray:none;stroke-dashoffset:0;marker:none;visibility:visible;display:inline;overflow:visible;enable-background:accumulate"
           d="m -101.11127,-273.95545 c 3.927698,-7.65517 13.135798,-11.49141 20.967698,-15.05376 2.8489,-1.29584 6.3542,-0.72357 9.1398,-2.15054 4.8615,-2.49041 7.6359,-8.02012 12.3656,-10.75269 4.7601,-2.75016 10.2201,-4.20532 15.5914,-5.37634 7.2131,-1.57257 14.6604,-2.15229 22.043,-2.15054 9.1836,0.002 27.4193003,2.68817 27.4193003,2.68817 l 4.3010997,18.81721 -9.1397997,12.36559 c 0,0 -5.914,-1.61291 -8.0645,-0.53764 -2.1505,1.07527 -15.6421003,4.19207 -23.6559003,4.30108 -4.7139,0.0641 -9.3962,-1.04276 -13.9785,-2.15054 -3.3051,-0.79901 -6.2916,-2.91226 -9.6774,-3.22581 -5.224,-0.48377 -10.5964,0.54624 -15.5914,2.15054 -7.327,2.35329 -13.0505,8.57003 -20.4301,10.75269 -1.8982,0.56142 -4.0011,1.04657 -5.914,0.53763 -2.114,-0.56245 -4.366098,-1.82313 -5.376298,-3.76344 -0.9932,-1.90748 -0.9818,-4.53823 0,-6.45161 z"
           id="path11017-1-7"
           inkscape:connector-curvature="0"
           sodipodi:nodetypes="aaaaaacccsaaaaaaaa" />
        <path
           style="color:#000000;fill:#FF52A2;fill-opacity:1;fill-rule:nonzero;stroke:#4d4d4d;stroke-width:4.15467119;stroke-linecap:butt;stroke-linejoin:miter;stroke-miterlimit:4;stroke-opacity:1;stroke-dasharray:none;stroke-dashoffset:0;marker:none;visibility:visible;display:inline;overflow:visible;enable-background:accumulate"
           d="m 8.3309283,-356.14563 c 8.1404997,-3.68125 16.3115997,-2.94297 26.6497997,-2.85683 8.8067,0.0734 16.5722,1.10741 24.8705,4.08613 2.9432,1.0565 11.3619,-1.57318 13.8681,0.29136 6.5077,4.8416 4.3849,13.4825 5.0647,20.48279 0.5707,5.87644 2.3182,12.71797 -0.8638,17.69118 -3.8694,6.04748 -16.8116,8.82812 -19.0926,9.96862 -2.281,1.14049 -18.9105,3.85962 -28.4471,3.37535 -9.5957,-0.48727 -18.6482,-4.73912 -28.1321997,-6.27831 -4.9039,-0.79587 -10.1682,0.20621 -14.8264003,-1.52066 -3.3291,-1.23412 -8.7438,-6.08264 -8.7438,-6.08264 l -4.9962,-5.38753 c 0,0 -2.2036,-0.0577 -3.2879,-0.23519 -5.2976,-0.86713 -8.0735,-1.87912 -12.1699,-1.75127 -6.3449,0.19803 -12.4813,2.35965 -18.6439,3.88271 -4.265,1.05407 -8.4182,4.74173 -12.6693,3.63298 -2.985,-0.77853 -6.6866,-3.49071 -6.5169,-6.57087 0.3296,-5.98045 8.5019,-8.86519 13.9785,-11.29033 7.4626,-3.30457 16.0879,-2.81012 24.1936,-3.76344 8.9276,-1.05 18.1792,0.10153 26.8817,-2.15054 4.1927,-1.08501 8.2163003,-2.98625 11.8279003,-5.37634 4.1714,-2.7605 6.4976,-8.08612 11.0552,-10.14717 z"
           id="path11011-6-7"
           inkscape:connector-curvature="0"
           sodipodi:nodetypes="asssaasaaaccsaaaaaaaaa" />
        <path
           style="color:#000000;fill:#FF52A2;fill-opacity:1;fill-rule:nonzero;stroke:#4d4d4d;stroke-width:4.15467119;stroke-linecap:butt;stroke-linejoin:miter;stroke-miterlimit:4;stroke-opacity:1;stroke-dasharray:none;stroke-dashoffset:0;marker:none;visibility:visible;display:inline;overflow:visible;enable-background:accumulate"
           d="m 77.140828,-308.24485 c 3.3747,4.61615 -1.9781,11.43312 -1.271,17.10742 0.413,3.31417 1.5203,6.6012 3.1718,9.50413 1.8215,3.20181 5.8142,5.98148 7.2231,8.36363 2.1038,3.55675 0.9293,7.78485 -1.9008,8.17913 -1.8826,0.26228 -16.8507,5.51064 -25.6015,6.4246 -11.6431,1.21605 -23.574,0.754 -35.0944,-1.32498 -9.1081,-1.64365 -26.3618997,-8.71677 -26.3618997,-8.71677 0,0 -3.4214,-3.42149 -2.281,-6.08264 1.1405,-2.66116 3.0414,-4.18182 2.281,-6.46281 -0.7603,-2.28099 -5.3223,-14.82643 -6.0826,-16.72725 -0.7603,-1.90083 -2.6612003,-10.64462 0,-11.78512 2.6612,-1.14049 7.6033,-1.90082 13.6859,1.1405 6.0826997,3.04132 23.7394997,8.2427 36.1156997,8.74379 4.8711,0.19722 9.7018,-1.16019 14.4463,-2.28099 4.5744,-1.08063 9.1232,-2.40671 13.4402,-4.26614 1.6685,-0.71871 2.9671,-2.39574 4.7672,-2.64205 1.1754,-0.16084 2.7618,-0.13217 3.462,0.82555 z"
           id="path11009-2-9"
           inkscape:connector-curvature="0"
           sodipodi:nodetypes="aaassaacsssssaaaaa" />
        <path
           style="color:#000000;fill:#FF52A2;fill-opacity:1;fill-rule:nonzero;stroke:#4d4d4d;stroke-width:4.15467119;stroke-linecap:butt;stroke-linejoin:miter;stroke-miterlimit:4;stroke-opacity:1;stroke-dasharray:none;stroke-dashoffset:0;marker:none;visibility:visible;display:inline;overflow:visible;enable-background:accumulate"
           d="m -29.202672,-322.74577 c 0,0 13.5752,0.94086 21.1021003,-1.20968 7.52689997,-2.15054 10.7527,-3.22581 14.5161,-5.91398 3.7634997,-2.68817 17.2042997,-13.44086 17.2042997,-13.44086"
           id="path11013-7-3"
           inkscape:connector-curvature="0"
           sodipodi:nodetypes="cssc" />
        <path
           style="color:#000000;fill:#FF52A2;fill-opacity:1;fill-rule:nonzero;stroke:#4d4d4d;stroke-width:4.15467119;stroke-linecap:butt;stroke-linejoin:miter;stroke-miterlimit:4;stroke-opacity:1;stroke-dasharray:none;stroke-dashoffset:0;marker:none;visibility:visible;display:inline;overflow:visible;enable-background:accumulate"
           d="m -1.1731717,-305.58367 c 3.8415,2.0208 8.2403,3.7432 10.8347,7.2231 2.0603997,2.7636 3.2375997,6.4427 3.0412997,9.8843 -0.189,3.3142 -1.659,6.762 -3.9916997,9.1239 -2.0525,2.0781 -5.7315,2.4594 -7.98350003,3.6116 -2.25189997,1.1522 -4.46869997,4.2969 -5.56409997,3.1932 -2.6518,-2.6719 -0.643,-10.4363 -1.659,-15.5486 -0.6565,-3.3036 -2.2114,-6.3526 -2.8512,-9.6941 -0.6399,-3.3415 -3.5444003,-8.011 -0.9505003,-10.2645 1.8679003,-1.6228 4.8642003,0.964 7.2232003,1.7107 0.6506,0.2059 1.2968,0.4427 1.9008,0.7604 z"
           id="path11092-2-1"
           inkscape:connector-curvature="0"
           sodipodi:nodetypes="aaaacsazaaa" />
        <path
           style="color:#000000;fill:#FF52A2;fill-opacity:1;fill-rule:nonzero;stroke:#4d4d4d;stroke-width:4.15467119;stroke-linecap:butt;stroke-linejoin:miter;stroke-miterlimit:4;stroke-opacity:1;stroke-dasharray:none;stroke-dashoffset:0;marker:none;visibility:visible;display:inline;overflow:visible;enable-background:accumulate"
           d="m 2.9710283,-255.13267 c 1.7117,1.0061 5.6613,3.8202 8.2163997,6.0714 1.9895,1.7529 4.5088,3.29 5.4956,5.751 1.0672,2.6614 1.0973,5.953 0,8.6021 -1.0668,2.5757 -3.7309,4.1801 -5.9139,5.914 -1.7802997,1.414 -3.5964997,4.2067 -5.7891997,3.606 -3.838,-1.0515 -4.13170003,-6.8589 -5.50120003,-10.5953 -1.34199997,-3.6614 -2.13149997,-7.5353 -2.59589997,-11.4072 -0.417,-3.4764 -0.1575,-10.503 -0.1575,-10.503 0,0 4.5341,1.555 6.2457,2.561 z"
           id="path11094-7-9"
           inkscape:connector-curvature="0"
           sodipodi:nodetypes="zaaaaaaacz" />
        <path
           style="color:#000000;fill:#FF52A2;fill-opacity:1;fill-rule:nonzero;stroke:#4d4d4d;stroke-width:4.15467119;stroke-linecap:butt;stroke-linejoin:miter;stroke-miterlimit:4;stroke-opacity:1;stroke-dasharray:none;stroke-dashoffset:0;marker:none;visibility:visible;display:inline;overflow:visible;enable-background:accumulate"
           d="m 6.0226283,-204.29127 c 0.064,-0.8339 11.9632997,0.6782 15.4990997,8.69602 1.3208,2.99478 2.6472,5.49411 2.957,8.46775 0.2903,2.78572 -0.021,5.73851 -1.0752,8.33333 -1.1805,2.90555 -3.4085,5.32845 -5.6452,7.52688 -1.8535,1.82183 -3.8235,5.30191 -6.3172,4.5699 -3.4167997,-1.00295 -3.0160997,-6.49623 -3.8978997,-9.94624 -0.5256,-2.05671 -0.613,-4.20321 -0.8064,-6.31721 -0.2208,-2.41301 -0.2193,-4.84197 -0.4032,-7.25807 -0.106,-1.39135 -0.2697,-2.77769 -0.4033,-4.16666 -0.1494,-1.55449 -0.4509,-3.10211 -0.4454,-4.66376 0.01,-1.75647 0.5377,-5.24194 0.5377,-5.24194 z"
           id="path11096-6-8"
           inkscape:connector-curvature="0"
           sodipodi:nodetypes="csaaaaaaaaac" />
        <path
           style="color:#000000;fill:#FF52A2;fill-opacity:1;fill-rule:nonzero;stroke:#4d4d4d;stroke-width:4.15467119;stroke-linecap:butt;stroke-linejoin:miter;stroke-miterlimit:4;stroke-opacity:1;stroke-dasharray:none;stroke-dashoffset:0;marker:none;visibility:visible;display:inline;overflow:visible;enable-background:accumulate"
           d="m 24.747528,-139.00923 c 2.2995,3.84934 0.8473,9.17621 -0.5376,13.44086 -0.7983,2.45826 -2.2912,4.82654 -4.3011,6.45162 -3.7846,3.06014 -9.3685,7.82418 -13.5751997,5.37634 -2.5028,-1.45632 -1.148,-5.86075 -1.2097,-8.60215 -0.062,-2.74141 0.4099,-5.02161 0.672,-7.52688 0.2348,-2.24397 0.5005,-4.48506 0.8065,-6.72043 0.4795,-3.50307 1.6129,-10.48387 1.6129,-10.48387 0,0 13.3877997,2.80075 16.5321997,8.06451 z"
           id="path11098-5-6"
           inkscape:connector-curvature="0"
           sodipodi:nodetypes="aaaazaaca" />
        <path
           style="color:#000000;fill:#FF52A2;fill-opacity:1;fill-rule:nonzero;stroke:#4d4d4d;stroke-width:4.15467119;stroke-linecap:butt;stroke-linejoin:miter;stroke-miterlimit:4;stroke-opacity:1;stroke-dasharray:none;stroke-dashoffset:0;marker:none;visibility:visible;display:inline;overflow:visible;enable-background:accumulate"
           d="m 6.4680283,-86.589872 c 2.6461,1.99127 5.0672997,4.57043 6.3919997,7.60562 1.398,3.20347 2.1223,7.00847 1.2979,10.40513 -1.1087,4.56854 -4.1459,8.89875 -7.9666997,11.63788 -2.7022,1.93728 -6.75830003,4.4131 -9.6042,2.69377 -2.7853,-1.68269 -1.85,-6.29837 -2.0392,-9.54697 -0.2056,-3.52975 0.4734,-7.06347 0.9965,-10.56029 0.414,-2.76727 0.8952,-5.53967 1.6917,-8.22198 0.7045,-2.37255 0.4251,-5.97179 2.71509997,-6.91052 2.19970003,-0.90169 4.61730003,1.46791 6.51690003,2.89736 z"
           id="path11100-1-5"
           inkscape:connector-curvature="0"
           sodipodi:nodetypes="aaaaaaaaaa" />
        <path
           style="color:#000000;fill:#FF52A2;fill-opacity:1;fill-rule:nonzero;stroke:#4d4d4d;stroke-width:4.15467119;stroke-linecap:butt;stroke-linejoin:miter;stroke-miterlimit:4;stroke-opacity:1;stroke-dasharray:none;stroke-dashoffset:0;marker:none;visibility:visible;display:inline;overflow:visible;enable-background:accumulate"
           d="m -13.174772,-34.773372 c 5.1592003,-1.13177 9.8432003,5.82916 11.5783003,10.81791 1.06289997,3.05628 0.082,6.74822 -1.4499,9.59868 -2.5493,4.7447304 -7.3853003,8.0387604 -11.9910003,10.8314204 -2.2704,1.37662 -5.3701,4.40085002 -7.4673,2.77251002 -2.1868,-1.69799002 0.5136,-5.51478002 0.8717,-8.26020002 0.4175,-3.1999304 0.5787,-6.4698104 1.4881,-9.5660704 1.0642,-3.6236 3.1105,-6.88377 4.589,-10.35901 0.8224,-1.93313 0.3291,-5.3851 2.3811,-5.83524 z"
           id="path11102-3-0"
           inkscape:connector-curvature="0"
           sodipodi:nodetypes="aaaaaaaaa" />
      </g>
      <text
         sodipodi:linespacing="100%"
         id="text11162-0-9"
         y="457.38593"
         x="306.67194"
         style="font-size:10.75883198px;font-style:normal;font-variant:normal;font-weight:normal;font-stretch:normal;text-indent:0;text-align:end;text-decoration:none;line-height:100%;letter-spacing:0px;word-spacing:0px;text-transform:none;direction:ltr;block-progression:tb;writing-mode:lr-tb;text-anchor:end;baseline-shift:baseline;color:#000000;fill:#000000;fill-opacity:1;fill-rule:nonzero;stroke:none;stroke-width:1;marker:none;visibility:visible;display:inline;overflow:visible;enable-background:accumulate;font-family:Poppins;-inkscape-font-specification:Poppins"
         xml:space="preserve"><tspan
           id="tspan11667-5"
           y="457.38593"
           x="306.67194"
           sodipodi:role="line">Cervical</tspan></text>
      <path
         sodipodi:nodetypes="cccc"
         inkscape:connector-curvature="0"
         id="path11747-9"
         d="m 329.66408,413.9235 c -1.80535,0 -18.936,0 -18.936,0 l 0,78.75888 18.936,0"
         style="color:#000000;fill:none;stroke:#4d4d4d;stroke-width:0.80000001;stroke-linecap:butt;stroke-linejoin:miter;stroke-miterlimit:4;stroke-opacity:1;stroke-dasharray:none;stroke-dashoffset:0;marker:none;visibility:visible;display:inline;overflow:visible;enable-background:accumulate" />
      <g
         transform="matrix(0.22340209,0,0,0.22340209,234.91154,492.27946)"
         id="g12475-1-5" />
    </g>
  </g>
</svg>
