<?xml version="1.0" encoding="UTF-8" standalone="no"?>
<!-- Created with Inkscape (http://www.inkscape.org/) -->

<svg
   xmlns:dc="http://purl.org/dc/elements/1.1/"
   xmlns:cc="http://creativecommons.org/ns#"
   xmlns:rdf="http://www.w3.org/1999/02/22-rdf-syntax-ns#"
   xmlns:svg="http://www.w3.org/2000/svg"
   xmlns="http://www.w3.org/2000/svg"
   xmlns:sodipodi="http://sodipodi.sourceforge.net/DTD/sodipodi-0.dtd"
   xmlns:inkscape="http://www.inkscape.org/namespaces/inkscape"
   width="220"
   height="375"
   id="svg5704"
   version="1.1"
   inkscape:version="0.48.5 r10040"
   sodipodi:docname="Spine_green_t7.svg">
  <defs
     id="defs5706" />
  <sodipodi:namedview
     id="base"
     pagecolor="#ffffff"
     bordercolor="#666666"
     borderopacity="1.0"
     inkscape:pageopacity="0.0"
     inkscape:pageshadow="2"
     inkscape:zoom="4"
     inkscape:cx="150.49554"
     inkscape:cy="234.68519"
     inkscape:document-units="px"
     inkscape:current-layer="g12592-3-1"
     showgrid="false"
     inkscape:window-width="1280"
     inkscape:window-height="961"
     inkscape:window-x="-8"
     inkscape:window-y="-8"
     inkscape:window-maximized="1" />
  <metadata
     id="metadata5709">
    <rdf:RDF>
      <cc:Work
         rdf:about="">
        <dc:format>image/svg+xml</dc:format>
        <dc:type
           rdf:resource="http://purl.org/dc/dcmitype/StillImage" />
        <dc:title></dc:title>
      </cc:Work>
    </rdf:RDF>
  </metadata>
  <g
     inkscape:label="Capa 1"
     inkscape:groupmode="layer"
     id="layer1"
     transform="translate(0,-677.36218)">
    <g
       id="g6147"
       transform="translate(-249.00368,269.90451)">
      <g
         id="g12592-3-1"
         transform="matrix(0.2234221,0,0,0.2234221,368.51258,492.25391)"
         style="color:#000000;fill:#FF52A2;fill-opacity:1;fill-rule:nonzero;stroke:#4d4d4d;stroke-width:4.15467119;stroke-linecap:butt;stroke-linejoin:miter;stroke-miterlimit:4;stroke-opacity:1;stroke-dasharray:none;stroke-dashoffset:0;marker:none;visibility:visible;display:inline;overflow:visible;enable-background:accumulate">
        <path
           style="color:#000000;fill:#FF52A2;fill-opacity:1;fill-rule:nonzero;stroke:#4d4d4d;stroke-width:0.92824537;stroke-linecap:butt;stroke-linejoin:miter;stroke-miterlimit:4;stroke-opacity:1;stroke-dasharray:none;stroke-dashoffset:0;marker:none;visibility:visible;display:inline;overflow:visible;enable-background:accumulate"
           d="m 90.21875,156.0625 c -1.32378,0.45807 -1.587501,0.52345 -2.4375,0.90625 -0.659748,0.29712 -1.404046,0.84402 -2.09375,1.0625 -0.45259,0.14337 -0.956849,0.28683 -1.437303,0.28463 -0.704375,-0.31991 -0.678273,0.28039 -0.750197,0.59037 -0.139353,0.60059 -0.175189,1.1993 -0.1875,1.9375 -0.02167,1.30342 0.173648,2.60272 0.1875,3.90625 0.02706,2.5486 -0.324391,5.07993 -0.1875,7.625 0.03562,0.66202 0.113222,1.32212 0.2074,1.97969 0.121056,0.79715 0.163668,0.89279 0.888874,0.82577 0.293944,-0.0155 0.587219,-0.0155 0.872476,0.007 0.284438,0.0225 0.608767,0.0624 0.9375,0.0937 0.163884,0.0157 0.299994,0.0115 0.46875,0.0312 0.249685,0.005 0.506975,-0.008 0.75,-0.0312 0.718079,-0.0692 1.438797,-0.14332 2.15625,-0.21875 0.769116,-0.0809 1.544578,-0.30816 2.3125,-0.375 -0.01542,-1.79304 0.0064,-3.58449 0.0625,-5.375 0.09071,-2.89531 0.216683,-5.79803 0.6875,-8.65625 0.08926,-0.54185 0.207768,-1.08645 0.3125,-1.625 -0.199232,-0.27051 -0.40644,-0.53117 -0.625,-0.78125 -0.634742,-0.72629 -1.90625,-2.15625 -1.90625,-2.15625 0,0 -0.154057,-0.0191 -0.21875,-0.0312 z"
           transform="matrix(4.475833,0,0,4.475833,-534.90187,-379.53381)"
           id="path11071-2-2"
           inkscape:connector-curvature="0"
           sodipodi:nodetypes="csscscscccccccccsscscc" />
        <path
           style="color:#000000;fill:#FF52A2;fill-opacity:1;fill-rule:nonzero;stroke:#4d4d4d;stroke-width:4.15467119;stroke-linecap:butt;stroke-linejoin:miter;stroke-miterlimit:4;stroke-opacity:1;stroke-dasharray:none;stroke-dashoffset:0;marker:none;visibility:visible;display:inline;overflow:visible;enable-background:accumulate"
           d="m -209.88365,379.85367 c 1.0315,-7.31014 11.2277,-9.6016 17.1074,-14.0661 6.1597,-4.67714 14.44618,-10.26445 19.00818,-13.30577 4.562,-3.04132 13.3058,-6.4628 19.7686,-5.70247 6.4628,0.76032 21.2892,7.60329 22.8099,11.02478 1.5207,3.42148 1.9008,9.12396 -1.1405,12.16528 -3.0413,3.04132 -9.8843,5.3223 -11.7851,7.98346 -1.9008,2.66115 -3.4215,7.98346 -6.4628,7.98346 -3.0413,0 -7.3872,-0.0253 -10.6446,-1.52066 -3.6727,-1.686 -5.0857,-7.83129 -9.124,-7.98346 -3.1658,-0.11929 -5.1271,3.72634 -7.6033,5.70247 -4.28658,3.42093 -7.23038,9.29252 -12.54538,10.64462 -3.0108,0.76591 -6.3909,-0.42399 -9.124,-1.90082 -2.6803,-1.44829 -4.2462,-4.37275 -6.4628,-6.46281 -0.5551,-0.52342 -1.2058,-0.94868 -1.7107,-1.52066 -0.8142,-0.92229 -2.2628,-1.82314 -2.0909,-3.04132 z"
           id="path11041-3-5"
           inkscape:connector-curvature="0"
           sodipodi:nodetypes="aassssssaaaaaaaa" />
        <path
           style="color:#000000;fill:#FF52A2;fill-opacity:1;fill-rule:nonzero;stroke:#4d4d4d;stroke-width:0.92824537;stroke-linecap:butt;stroke-linejoin:miter;stroke-miterlimit:4;stroke-opacity:1;stroke-dasharray:none;stroke-dashoffset:0;marker:none;visibility:visible;display:inline;overflow:visible;enable-background:accumulate"
           d="m 89.21875,161.03125 c -0.453748,3.24836 -0.538781,6.53373 -0.625,9.8125 -0.03788,1.44091 -0.07009,2.76726 -0.09375,4.21117 0.364641,-0.0359 0.729355,0.0459 1.09375,0.008 0.406626,-0.0428 0.811413,-0.13664 1.21875,-0.21875 0.118975,-0.84098 0.49183,-1.50637 0.5,-2.46875 0.03329,-3.92216 1.578936,-7.31385 2.21875,-11 0.07883,-0.45418 0.121095,-0.91911 0.1875,-1.375 -0.485963,-0.54621 -0.89284,-1.1983 -1.375,-1.75 -0.634742,-0.72629 -1.862056,-1.89108 -1.862056,-1.89108 -0.72804,0.89786 -1.052136,3.22199 -1.262944,4.67233 z"
           transform="matrix(4.475833,0,0,4.475833,-534.90187,-379.53381)"
           id="path11104-9-6"
           inkscape:connector-curvature="0"
           sodipodi:nodetypes="cscccsscscc" />
        <path
           style="color:#000000;fill:#FF52A2;fill-opacity:1;fill-rule:nonzero;stroke:#4d4d4d;stroke-width:0.92824537;stroke-linecap:butt;stroke-linejoin:miter;stroke-miterlimit:4;stroke-opacity:1;stroke-dasharray:none;stroke-dashoffset:0;marker:none;visibility:visible;display:inline;overflow:visible;enable-background:accumulate"
           d="m 92.0625,157.9375 c -0.204067,1.98545 -0.59375,4.5 -0.59375,4.5 L 90,166.53125 c 0,0 -0.21875,5.04684 -0.21875,6.96875 0,0.45277 -0.01086,0.90397 -0.03125,1.45391 1.029961,-0.13486 2.072666,-0.43601 3.09375,-0.26641 2.226334,0.36979 3.931398,2.3758 6.125,2.90625 2.91394,0.70464 6.00112,0.73771 8.96875,0.3125 1.60616,-0.23014 3.72158,-1.55277 4.96875,-1.84375 l 0.53125,-0.53125 c 0,0 0.19056,-1.6174 -0.71875,-2.15625 -0.62004,-0.36742 -0.375,-0.59375 -0.375,-0.59375 l -1.4375,-1.4375 -1.0625,-5.1875 c 0,0 0.71192,-0.46875 1.3125,-0.46875 0.6006,0 0.3125,-1.1875 0.3125,-1.1875 0,0 0.64787,-0.77275 0.875,-1.21875 0.24713,-0.4853 0.63546,-1.03502 0.5,-1.5625 -0.0916,-0.35656 -0.32711,-0.69965 -0.8125,-0.78125 -0.25596,-0.043 -0.2609,0.16578 -0.42848,0.30754 -0.45124,0.38168 -1.18709,0.50917 -2.44652,0.91121 -1.17929,0.34222 -2.36736,0.71982 -3.59375,0.78125 -2.5746,0.12896 -5.19344,-0.1919 -7.6875,-0.84375 -1.228128,-0.32099 -2.475654,-0.75029 -3.5,-1.5 -0.834124,-0.61049 -1.351041,-1.56544 -2.03125,-2.34375 -0.09272,-0.10609 -0.166688,-0.18281 -0.28125,-0.3125 z"
           transform="matrix(4.475833,0,0,4.475833,-534.90187,-379.53381)"
           id="path11079-0-4"
           inkscape:connector-curvature="0"
           sodipodi:nodetypes="cccscsssccccccsccssscssssc" />
        <path
           style="color:#000000;fill:#FF52A2;fill-opacity:1;fill-rule:nonzero;stroke:#4d4d4d;stroke-width:4.15467119;stroke-linecap:butt;stroke-linejoin:miter;stroke-miterlimit:4;stroke-opacity:1;stroke-dasharray:none;stroke-dashoffset:0;marker:none;visibility:visible;display:inline;overflow:visible;enable-background:accumulate"
           d="m -154.16287,344.88878 c -3.7492,1.03858 -8.2157,2.80019 -9.7865,6.35936 -1.5578,3.52978 0.1626,7.96672 1.8818,11.42079 1.4905,2.99468 4.4036,5.06306 6.9161,7.27152 2.5877,2.27467 5.3192,4.44934 8.3412,6.10408 4.1165,2.25405 13.1259,5.09398 13.1259,5.09398 0,0 6.2346,8.58075 8.9227,10.73125 2.6882,2.1506 6.2078,4.87187 9.7697,6.47865 6.772,3.05486 14.1754,4.70092 21.526798,5.77241 13.6906,1.99545 27.8192,3.26666 41.4901,1.14049 6.281,-0.97685 14.0793,-3.52743 18.0028,-6.28856 1.8507,-1.3024 2.5661,-3.20707 2.9053,-5.14807 1.0773,-6.16364 -2.6325,-13.04984 -3.1336,-18.50783 -0.501,-5.45799 -0.6126,-7.98136 -1.0233,-11.96219 -0.276,-2.67491 1.6988,-8.13741 -0.9681,-8.00904 -3.9828,0.19172 -2.7482,0.77471 -8.894,2.25957 -6.1458,1.48486 -22.3974,2.59791 -32.5865,1.27319 -10.1892,-1.32472 -18.4119,-6.00998 -27.761298,-8.51546 -4.9156,-1.31728 -9.8239,-2.83269 -14.8787,-3.42153 -3.023,-0.35216 -6.0956,0.17592 -9.1304,-0.0539 -3.386,-0.25646 -6.698,-1.16784 -10.0798,-1.47482 -4.8632,-0.44145 -9.9342,-1.82751 -14.6402,-0.52389 z"
           id="path49958-1-7"
           inkscape:connector-curvature="0"
           sodipodi:nodetypes="aaaaaccaaasazaszzaaaaa" />
      </g>
      <g
         transform="matrix(0.22340209,0,0,0.22340209,234.91154,492.27946)"
         id="g12425-0-2">
        <text
           xml:space="preserve"
           style="font-size:49.23857116999999300px;font-style:normal;font-variant:normal;font-weight:normal;font-stretch:normal;text-indent:0;text-align:start;text-decoration:none;line-height:125%;letter-spacing:0px;word-spacing:0px;text-transform:none;direction:ltr;block-progression:tb;writing-mode:lr-tb;text-anchor:start;baseline-shift:baseline;color:#000000;fill:#000000;fill-opacity:1;fill-rule:nonzero;stroke:none;marker:none;visibility:visible;display:inline;overflow:visible;enable-background:accumulate;font-family:Poppins;-inkscape-font-specification:Poppins"
           x="819.70514"
           y="400.8107"
           id="text11162-14-27-3-1"
           sodipodi:linespacing="125%"><tspan
             sodipodi:role="line"
             id="tspan11164-2-9-5-7"
             x="819.70514"
             y="400.8107">T7</tspan></text>
        <path
           style="color:#000000;fill:none;stroke:#4d4d4d;stroke-width:3.58098722;stroke-linecap:butt;stroke-linejoin:miter;stroke-miterlimit:4;stroke-opacity:1;stroke-dasharray:none;stroke-dashoffset:0;marker:none;visibility:visible;display:inline;overflow:visible;enable-background:accumulate"
           d="m 555.71429,378.79075 238.04728,4.30582"
           id="path11800-2-5"
           inkscape:connector-curvature="0"
           sodipodi:nodetypes="cc" />
      </g>
    </g>
  </g>
</svg>
