<?xml version="1.0" encoding="UTF-8" standalone="no"?>
<!-- Created with Inkscape (http://www.inkscape.org/) -->

<svg
   xmlns:dc="http://purl.org/dc/elements/1.1/"
   xmlns:cc="http://creativecommons.org/ns#"
   xmlns:rdf="http://www.w3.org/1999/02/22-rdf-syntax-ns#"
   xmlns:svg="http://www.w3.org/2000/svg"
   xmlns="http://www.w3.org/2000/svg"
   xmlns:sodipodi="http://sodipodi.sourceforge.net/DTD/sodipodi-0.dtd"
   xmlns:inkscape="http://www.inkscape.org/namespaces/inkscape"
   width="220"
   height="375"
   id="svg5704"
   version="1.1"
   inkscape:version="0.48.5 r10040"
   sodipodi:docname="Spine_green_l3.svg">
  <defs
     id="defs5706" />
  <sodipodi:namedview
     id="base"
     pagecolor="#ffffff"
     bordercolor="#666666"
     borderopacity="1.0"
     inkscape:pageopacity="0.0"
     inkscape:pageshadow="2"
     inkscape:zoom="2"
     inkscape:cx="155.94888"
     inkscape:cy="242.87003"
     inkscape:document-units="px"
     inkscape:current-layer="g12592-3-1"
     showgrid="false"
     inkscape:window-width="1280"
     inkscape:window-height="961"
     inkscape:window-x="-8"
     inkscape:window-y="-8"
     inkscape:window-maximized="1" />
  <metadata
     id="metadata5709">
    <rdf:RDF>
      <cc:Work
         rdf:about="">
        <dc:format>image/svg+xml</dc:format>
        <dc:type
           rdf:resource="http://purl.org/dc/dcmitype/StillImage" />
        <dc:title></dc:title>
      </cc:Work>
    </rdf:RDF>
  </metadata>
  <g
     inkscape:label="Capa 1"
     inkscape:groupmode="layer"
     id="layer1"
     transform="translate(0,-677.36218)">
    <g
       id="g6147"
       transform="translate(-249.00368,269.90451)">
      <g
         id="g12592-3-1"
         transform="matrix(0.2234221,0,0,0.2234221,368.51258,492.25391)"
         style="color:#000000;fill:#FF52A2;fill-opacity:1;fill-rule:nonzero;stroke:#4d4d4d;stroke-width:4.15467119;stroke-linecap:butt;stroke-linejoin:miter;stroke-miterlimit:4;stroke-opacity:1;stroke-dasharray:none;stroke-dashoffset:0;marker:none;visibility:visible;display:inline;overflow:visible;enable-background:accumulate">
        <path
           style="color:#000000;fill:#FF52A2;fill-opacity:1;fill-rule:nonzero;stroke:#4d4d4d;stroke-width:0.92824537;stroke-linecap:butt;stroke-linejoin:miter;stroke-miterlimit:4;stroke-opacity:1;stroke-dasharray:none;stroke-dashoffset:0;marker:none;visibility:visible;display:inline;overflow:visible;enable-background:accumulate"
           d="m 113.53125,266.65625 c -1.28812,0.25593 -2.57823,0.43888 -3.875,0.65625 -0.008,0.96881 -0.0242,1.93758 0,2.90625 0.085,3.40066 0.59817,6.81842 0.5,10.21875 -0.0452,1.56783 -0.23674,3.1261 -0.4562,4.68045 -0.3492,2.06234 -0.58223,1.70417 0.9875,0.85075 0.599,-0.32566 1.4747,-0.35601 2.15625,-0.375 0.90437,-0.0252 1.78959,0.32959 2.6875,0.21875 0.73059,-0.0902 1.41111,0.43457 2.09375,0.125 0.43161,-0.19572 0.84744,-1.29912 1.3125,-1.28125 1.1689,0.0448 1.18917,0.27284 1.5625,0.0937 0.37333,-0.17909 0.59281,-0.16731 0.53125,-0.75 -0.47739,-4.51822 -0.66769,-9.06506 -1.03125,-13.59375 -0.40203,-0.21099 -0.76741,-0.43385 -0.96875,-0.65625 -0.88933,-0.98232 -0.81002,-2.00693 -2.03125,-2.375 -0.55936,-0.16859 -1.51361,0.0119 -2.40625,-0.28125 -0.3289,-0.10801 -0.70065,-0.26122 -1.0625,-0.4375 z"
           transform="matrix(4.475833,0,0,4.475833,-534.90187,-379.53381)"
           id="path11071-2-2"
           inkscape:connector-curvature="0"
           sodipodi:nodetypes="ccsccssccczcccsccc" />
        <path
           style="color:#000000;fill:#FF52A2;fill-opacity:1;fill-rule:nonzero;stroke:#4d4d4d;stroke-width:4.15467119;stroke-linecap:butt;stroke-linejoin:miter;stroke-miterlimit:4;stroke-opacity:1;stroke-dasharray:none;stroke-dashoffset:0;marker:none;visibility:visible;display:inline;overflow:visible;enable-background:accumulate"
           d="m -101.91687,862.28298 c 0.9592,-4.0307 7.691798,-3.1039 11.404898,-4.9422 6.5081,-3.2219 12.8387,-6.8142 19.0083,-10.6446 7.0474,-4.3753 12.6198,-11.5647 20.5289,-14.0661 10.1499,-3.21 22.3409,-4.9953 31.9338,-0.3801 9.8452003,4.7365 23.5703003,22.4297 20.1488003,25.8512 -3.4215,3.4215 -17.7465003,0.9264 -26.6116003,1.5206 -6.5942,0.442 -13.3211,0.068 -19.7685,1.5207 -5.6938,1.2827 -10.6519,4.9967 -16.3471,6.2727 -7.4825,1.6765 -15.2782,2.0109 -22.9404,1.7108 -4.506,-0.1765 -9.4452,0.1607 -13.371,-2.0583 -1.8071,-1.0215 -4.466698,-2.7653 -3.986098,-4.7847 z"
           id="path11059-0-2"
           inkscape:connector-curvature="0"
           sodipodi:nodetypes="aaaaasaaaaaa" />
        <path
           style="color:#000000;fill:#FF52A2;fill-opacity:1;fill-rule:nonzero;stroke:#4d4d4d;stroke-width:0.92824537;stroke-linecap:butt;stroke-linejoin:miter;stroke-miterlimit:4;stroke-opacity:1;stroke-dasharray:none;stroke-dashoffset:0;marker:none;visibility:visible;display:inline;overflow:visible;enable-background:accumulate"
           d="m 114.09375,266.90625 c -0.006,0.0843 -0.0276,0.1656 -0.0312,0.25 -0.0397,0.90678 -0.0648,1.84465 0,2.75 0.11433,1.59713 0.59753,3.1513 0.6875,4.75 0.20775,3.69214 -0.18144,7.39883 -0.34375,11.09375 0.379,0.0552 1.01333,0.24854 1.53125,0.28125 0.56225,0.0355 1.00486,0.21582 1.6875,-0.0937 0.27236,-0.12351 0.52981,-0.5995 0.8125,-0.9375 -0.013,-0.39684 -0.006,-0.79525 0.0312,-1.1875 0.224,-2.35335 0.97273,-4.63922 1.375,-6.96875 0.26301,-1.52307 0.84358,-3.0248 0.6875,-4.5625 -0.0669,-0.6591 -0.29949,-1.29156 -0.5625,-1.90625 -0.38683,-0.20535 -0.74206,-0.40912 -0.9375,-0.625 -0.88933,-0.98232 -0.81002,-2.00693 -2.03125,-2.375 -0.55936,-0.16859 -1.51361,0.0119 -2.40625,-0.28125 -0.15438,-0.0507 -0.33497,-0.12205 -0.5,-0.1875 z"
           transform="matrix(4.475833,0,0,4.475833,-534.90187,-379.53381)"
           id="path11104-9-6"
           inkscape:connector-curvature="0"
           sodipodi:nodetypes="ccsscasccsscssccc" />
        <path
           style="color:#000000;fill:#FF52A2;fill-opacity:1;fill-rule:nonzero;stroke:#4d4d4d;stroke-width:0.92824537;stroke-linecap:butt;stroke-linejoin:miter;stroke-miterlimit:4;stroke-opacity:1;stroke-dasharray:none;stroke-dashoffset:0;marker:none;visibility:visible;display:inline;overflow:visible;enable-background:accumulate"
           d="m 119.3125,269.96875 c 0.0329,0.2456 0.15625,1.25 0.15625,1.25 l -1.375,13.625 c 0.27644,-0.37265 0.55107,-0.19875 0.84375,-0.1875 1.21075,0.0464 1.47951,0.59666 2.5625,1.1875 1.41974,0.77458 3.6603,1.65721 5.1875,2.09375 2.19803,0.62831 4.49848,0.94015 6.78125,1.0625 1.60082,0.0858 3.19196,-0.009 4.78125,-0.21875 0.93638,-0.12369 1.86828,-0.3829 2.78125,-0.625 0.51264,-0.13595 1.11341,-0.76934 1.5,-0.46875 0.0294,0.0229 0.0362,0.0684 0.0625,0.0937 0.2469,-0.2714 0.47691,-0.54859 0.625,-0.78125 0.34733,-0.54571 0.91062,-1.16351 0.71875,-1.78125 -0.42821,-1.37869 -3.59375,-2.40625 -3.59375,-2.40625 l 0.375,-5.15625 c 0,0 0.59667,-0.25781 1.4375,-1.21875 0.84083,-0.96096 1.125,-1.90625 1.125,-1.90625 0,0 1.28099,-1.99247 1.03125,-3.03125 -0.0661,-0.27486 -0.20227,-0.55555 -0.375,-0.84375 -0.82692,0.78852 -2.096,1.22371 -3.1875,1.59375 -3.45361,1.17087 -7.23724,1.38013 -10.875,1.125 -2.48579,-0.17431 -5.02344,-0.69358 -7.25,-1.8125 -0.7358,-0.36978 -2.47972,-0.96597 -3.3125,-1.59375 z"
           transform="matrix(4.475833,0,0,4.475833,-534.90187,-379.53381)"
           id="path11079-0-4"
           inkscape:connector-curvature="0"
           sodipodi:nodetypes="cccccscccsccsccscscscccc" />
        <path
           style="color:#000000;fill:#FF52A2;fill-opacity:1;fill-rule:nonzero;stroke:#4d4d4d;stroke-width:4.15467119;stroke-linecap:butt;stroke-linejoin:miter;stroke-miterlimit:4;stroke-opacity:1;stroke-dasharray:none;stroke-dashoffset:0;marker:none;visibility:visible;display:inline;overflow:visible;enable-background:accumulate"
           d="m -3.2618717,840.56058 c -3.7952,-1.7878 -7.7111003,-3.4939 -11.8279003,-4.3011 -2.288,-0.4485 -4.6594,-0.3558 -6.9893,-0.2687 -3.9652,0.1482 -8.6932,-1.0888 -11.828,1.344 -3.1815,2.4692 -4.039,7.2716 -4.301,11.2903 -0.2518,3.8605 1.1119,7.7574 2.6881,11.2904 1.1545,2.5877 2.7611,5.0625 4.8388,6.9893 2.2085,2.0482 5.1756,3.0839 7.7957,4.5699 2.7557,1.5628 5.3987,3.3763 8.3333,4.5698 3.1013,1.2614 6.7203003,1.1184 9.6774003,2.6882 4.88459997,2.5931 8.126,7.5499 12.6344,10.7526 4.9111997,3.4889 9.8495997,7.3168 15.5913997,9.1399 14.1424,4.4901 29.518,3.9564 44.3549,3.7635 8.1134,-0.1056 16.3228,-0.7155 24.1935,-2.6882 3.7445,-0.9386 8.602102,-3.2259 10.752702,-4.3012 2.1505,-1.0753 5.2043,-2.4569 6.1963,-5.3763 1.3862,-4.0794 -2.0934,-8.1784 -2.4329,-12.3656 -0.4959,-6.1161 0.8706,-12.2687 0.5973,-18.3988 -0.093,-2.0878 0.4057,-4.7349 -0.7603,-6.2233 -1.2353,-1.5767 -0.6405,-4.3592 -4.8933,-3.4875 -10.085102,2.067 -20.362702,5.9476 -31.426402,7.3375 -7.842,0.9852 -20.9235,-0.3567 -31.2592,-1.8086 -7.2762,-1.022 -14.4701,-2.719 -21.5054,-4.8387 -3.856,-1.1618 -7.6601997,-2.557 -11.2902997,-4.301 -3.186,-1.5305 -5.94220003,-3.87 -9.1398,-5.3764 z"
           id="path49938-3-1"
           inkscape:connector-curvature="0"
           sodipodi:nodetypes="aaaaaaaaaaaaaassaasssaaaa" />
      </g>
      <g
         transform="matrix(0.22340209,0,0,0.22340209,234.91154,492.27946)"
         id="g12470-2-0">
        <text
           xml:space="preserve"
           style="font-size:49.23857116999999300px;font-style:normal;font-variant:normal;font-weight:normal;font-stretch:normal;text-indent:0;text-align:start;text-decoration:none;line-height:125%;letter-spacing:0px;word-spacing:0px;text-transform:none;direction:ltr;block-progression:tb;writing-mode:lr-tb;text-anchor:start;baseline-shift:baseline;color:#000000;fill:#000000;fill-opacity:1;fill-rule:nonzero;stroke:none;marker:none;visibility:visible;display:inline;overflow:visible;enable-background:accumulate;font-family:Poppins;-inkscape-font-specification:Poppins"
           x="816.89819"
           y="894.54431"
           id="text11162-14-19-6-7-7"
           sodipodi:linespacing="125%"><tspan
             sodipodi:role="line"
             id="tspan11164-2-86-02-9-4"
             x="816.89819"
             y="894.54431">L4</tspan></text>
        <path
           style="color:#000000;fill:none;stroke:#4d4d4d;stroke-width:3.58098722;stroke-linecap:butt;stroke-linejoin:miter;stroke-miterlimit:4;stroke-opacity:1;stroke-dasharray:none;stroke-dashoffset:0;marker:none;visibility:visible;display:inline;overflow:visible;enable-background:accumulate"
           d="m 695,873.07647 98.76157,3.7163"
           id="path11818-6-1"
           inkscape:connector-curvature="0"
           sodipodi:nodetypes="cc" />
      </g>
    </g>
  </g>
</svg>
