<?xml version="1.0" encoding="UTF-8" standalone="no"?>
<!-- Created with Inkscape (http://www.inkscape.org/) -->

<svg
   xmlns:dc="http://purl.org/dc/elements/1.1/"
   xmlns:cc="http://creativecommons.org/ns#"
   xmlns:rdf="http://www.w3.org/1999/02/22-rdf-syntax-ns#"
   xmlns:svg="http://www.w3.org/2000/svg"
   xmlns="http://www.w3.org/2000/svg"
   xmlns:sodipodi="http://sodipodi.sourceforge.net/DTD/sodipodi-0.dtd"
   xmlns:inkscape="http://www.inkscape.org/namespaces/inkscape"
   width="220"
   height="375"
   id="svg5704"
   version="1.1"
   inkscape:version="0.48.5 r10040"
   sodipodi:docname="Spine_green_t6.svg">
  <defs
     id="defs5706" />
  <sodipodi:namedview
     id="base"
     pagecolor="#ffffff"
     bordercolor="#666666"
     borderopacity="1.0"
     inkscape:pageopacity="0.0"
     inkscape:pageshadow="2"
     inkscape:zoom="4"
     inkscape:cx="164.23168"
     inkscape:cy="143.57696"
     inkscape:document-units="px"
     inkscape:current-layer="g12592-3-1"
     showgrid="false"
     inkscape:window-width="1280"
     inkscape:window-height="961"
     inkscape:window-x="-8"
     inkscape:window-y="-8"
     inkscape:window-maximized="1" />
  <metadata
     id="metadata5709">
    <rdf:RDF>
      <cc:Work
         rdf:about="">
        <dc:format>image/svg+xml</dc:format>
        <dc:type
           rdf:resource="http://purl.org/dc/dcmitype/StillImage" />
        <dc:title></dc:title>
      </cc:Work>
    </rdf:RDF>
  </metadata>
  <g
     inkscape:label="Capa 1"
     inkscape:groupmode="layer"
     id="layer1"
     transform="translate(0,-677.36218)">
    <g
       id="g6147"
       transform="translate(-249.00368,269.90451)">
      <g
         id="g12592-3-1"
         transform="matrix(0.2234221,0,0,0.2234221,368.51258,492.25391)"
         style="color:#000000;fill:#FF52A2;fill-opacity:1;fill-rule:nonzero;stroke:#4d4d4d;stroke-width:4.15467119;stroke-linecap:butt;stroke-linejoin:miter;stroke-miterlimit:4;stroke-opacity:1;stroke-dasharray:none;stroke-dashoffset:0;marker:none;visibility:visible;display:inline;overflow:visible;enable-background:accumulate">
        <path
           style="color:#000000;fill:#FF52A2;fill-opacity:1;fill-rule:nonzero;stroke:#4d4d4d;stroke-width:0.92824537;stroke-linecap:butt;stroke-linejoin:miter;stroke-miterlimit:4;stroke-opacity:1;stroke-dasharray:none;stroke-dashoffset:0;marker:none;visibility:visible;display:inline;overflow:visible;enable-background:accumulate"
           d="m 88.562814,143.23799 c -0.248294,0.53728 -0.537722,1.06366 -0.656564,1.63701 -0.230125,1.11031 -0.12792,2.24144 -0.15625,3.375 -0.01832,0.73589 0.264621,1.53184 0,2.21875 -0.576474,1.49639 -2.513668,2.13795 -3.25,3.5625 -0.719106,1.39131 -0.769495,3.04464 -1,4.59375 -0.108673,0.73026 -0.175189,1.48055 -0.1875,2.21875 -0.0089,0.53621 -0.100066,0.76829 0.09375,1.26563 0.05962,0.15299 0.290892,0.30091 0.4375,0.23442 0.40444,-0.18342 0.813229,-0.38766 1.21875,-0.5 1.051424,-0.29126 2.194704,0.0264 3.28125,0.125 0.755569,0.0686 1.493493,0.28645 2.25,0.34375 0.614722,0.0465 1.229696,-0.0409 1.84375,0 0.0667,-0.55233 0.12832,-1.10727 0.21875,-1.65625 0.754287,-4.5791 2.110861,-9.02772 3.375,-13.5 -0.22357,-0.16281 -0.419305,-0.34668 -0.625,-0.53125 -0.654269,-0.58707 -0.702202,-1.6924 -1.40625,-2.21875 -0.68604,-0.51289 -1.703411,-0.3726 -2.5,-0.6875 -0.607865,-0.2403 -1.273604,-0.42762 -1.71875,-0.90625 -0.900918,-1.28443 -0.692179,-0.9326 -1.218436,0.42544 z"
           transform="matrix(4.475833,0,0,4.475833,-534.90187,-379.53381)"
           id="path11071-2-2"
           inkscape:connector-curvature="0"
           sodipodi:nodetypes="cccscccsscsccscssscc" />
        <path
           style="color:#000000;fill:#FF52A2;fill-opacity:1;fill-rule:nonzero;stroke:#4d4d4d;stroke-width:4.15467119;stroke-linecap:butt;stroke-linejoin:miter;stroke-miterlimit:4;stroke-opacity:1;stroke-dasharray:none;stroke-dashoffset:0;marker:none;visibility:visible;display:inline;overflow:visible;enable-background:accumulate"
           d="m -208.74325,316.36613 c 4.6785,-7.95117 14.4169,-11.5455 22.0496,-16.72725 5.2684,-3.5766 10.49468,-7.37506 16.34708,-9.88429 5.3118,-2.27742 10.9485,-4.47702 16.7273,-4.56198 11.3401,-0.16673 31.9338,4.94214 33.0743,7.98346 1.1405,3.04132 3.4215,18.24792 0.7603,20.90907 -2.6611,2.66116 -23.19,8.7438 -23.19,8.7438 0,0 -5.2766,3.96426 -8.3636,4.94214 -3.0298,0.95974 -6.57,1.98142 -9.5042,0.76033 -3.9847,-1.65825 -4.479,-8.00337 -8.3636,-9.88429 -3.4235,-1.65769 -7.7228,-1.3343 -11.40488,-0.38016 -4.2917,1.11209 -7.1488,5.60192 -11.405,6.84297 -4.5029,1.31298 -9.756,2.23034 -14.0661,0.38016 -1.5666,-0.6725 -2.9251,-2.17066 -3.4215,-3.80165 -0.5218,-1.71446 -0.1485,-3.77774 0.7603,-5.32231 z"
           id="path11039-8-1"
           inkscape:connector-curvature="0"
           sodipodi:nodetypes="aaaasscaaaaaaaa" />
        <path
           style="color:#000000;fill:#FF52A2;fill-opacity:1;fill-rule:nonzero;stroke:#4d4d4d;stroke-width:0.92824537;stroke-linecap:butt;stroke-linejoin:miter;stroke-miterlimit:4;stroke-opacity:1;stroke-dasharray:none;stroke-dashoffset:0;marker:none;visibility:visible;display:inline;overflow:visible;enable-background:accumulate"
           d="m 92.65625,144.07008 c -0.199868,1.43758 -0.420459,2.75502 -0.6875,4.17992 -0.802309,4.28108 -2.147453,8.46752 -2.75,12.78125 -0.04794,0.34317 -0.05315,0.68719 -0.09375,1.03125 0.489352,0.0839 0.974243,0.21255 1.46875,0.25 0.678041,0.0514 1.355845,-0.0787 2.03125,0 0.229661,0.0267 0.460258,0.052 0.6875,0.0937 0.07407,-0.34161 0.158678,-0.68516 0.21875,-1.03125 0.659788,-3.80116 0.812742,-7.67285 1.65625,-11.4375 0.213532,-0.95299 0.474397,-1.8823 0.78125,-2.8125 -0.203714,-0.15086 -0.373918,-0.33078 -0.5625,-0.5 -0.654269,-0.58707 -0.702202,-1.6924 -1.40625,-2.21875 -0.545061,-0.42791 -0.648385,-0.24367 -1.34375,-0.33612 z"
           transform="matrix(4.475833,0,0,4.475833,-534.90187,-379.53381)"
           id="path11104-9-6"
           inkscape:connector-curvature="0"
           sodipodi:nodetypes="csscsccsscccc" />
        <path
           style="color:#000000;fill:#FF52A2;fill-opacity:1;fill-rule:nonzero;stroke:#4d4d4d;stroke-width:0.92824537;stroke-linecap:butt;stroke-linejoin:miter;stroke-miterlimit:4;stroke-opacity:1;stroke-dasharray:none;stroke-dashoffset:0;marker:none;visibility:visible;display:inline;overflow:visible;enable-background:accumulate"
           d="m 94.625,145.51137 -0.78125,4.67613 c 0,0 -1.65625,4.31833 -1.65625,6 0,1.62801 -0.644395,5.81909 -0.6875,6.09375 0.382123,-0.015 0.746401,-0.0128 1.125,0.0312 1.129354,0.13156 2.214246,0.45569 3.3125,0.75 2.088862,0.55978 3.942258,1.61028 6.21875,1.90625 2.27647,0.29597 5.90814,0.0505 7.28125,-0.28125 1.37311,-0.33175 1.25675,-0.21028 1.8125,-0.5 0.41985,-0.21888 0.85327,-0.5605 1.09375,-0.9063 0.24713,-0.4853 0.63546,-1.03502 0.5,-1.5625 -0.22186,-0.86392 -1.9375,-1.84375 -1.9375,-1.84375 l 0.375,-2.46875 0,-4.09375 c 0,0 1.92089,-0.52928 2.28125,-1.25 0.36036,-0.72072 0.834,-1.03905 0.59375,-2 -0.30925,-1.01051 -0.36555,-0.17305 -0.6557,-0.3104 -0.2774,0.16803 -0.60541,0.21612 -1.2193,0.2166 -0.70052,6e-4 -1.48883,0.003 -2.03125,0 -3.60375,-0.0201 -6.58836,0.0479 -9.71875,-0.8125 -1.84321,-0.50663 -3.634347,-1.18616 -4.97032,-2.55335 -0.475197,-0.4863 -0.93593,-1.09138 -0.93593,-1.09138 z"
           transform="matrix(4.475833,0,0,4.475833,-534.90187,-379.53381)"
           id="path11079-0-4"
           inkscape:connector-curvature="0"
           sodipodi:nodetypes="ccscssssacscccsccccssc" />
        <path
           style="color:#000000;fill:#FF52A2;fill-opacity:1;fill-rule:nonzero;stroke:#4d4d4d;stroke-width:4.15467119;stroke-linecap:butt;stroke-linejoin:miter;stroke-miterlimit:4;stroke-opacity:1;stroke-dasharray:none;stroke-dashoffset:0;marker:none;visibility:visible;display:inline;overflow:visible;enable-background:accumulate"
           d="m -113.69957,286.5745 c -2.7523,-0.11948 -4.2317,2.70002 -7.9604,2.22136 -5.6309,-0.72284 -10.357,-2.8196 -15.6033,-2.40584 -4.4138,0.3481 -9.1216,1.37963 -12.6479,4.05692 -1.9473,1.47844 -3.7536,3.69678 -4.0346,6.12553 -0.6425,5.55361 1.8419,11.77849 5.7835,15.74324 4.5211,4.54766 18.0187,6.73952 18.0187,6.73952 0,0 5.7667,6.42676 8.6077,9.6775 3.0445,3.48357 5.3086,7.79754 9.042,10.52997 4.5848,3.35559 10.1867,5.23764 15.683598,6.67433 11.163,2.91757 22.8851,4.34059 34.4086,3.7634 5.4891,-0.27494 10.8508,-1.88975 16.1291,-3.42148 10.3074,-3.29034 12.682,-2.52596 13.9228,-12.03159 0.3468,-2.6568 0.2731,-7.35944 0.7181,-11.01031 0.8605,-7.05863 4.4487,-17.41319 3.7663,-20.99755 -0.3968,-2.08385 -3.0327,-0.90531 -7.9582,-1.36735 -4.9255,-0.46203 -14.4212,0.15625 -21.605,-0.36527 -9.7639,-0.70882 -19.6275,-1.38997 -29.1284,-3.74993 -9.3783,-2.3295 -17.488498,-9.76335 -27.142598,-10.18245 z"
           id="path49960-4-9"
           inkscape:connector-curvature="0"
           sodipodi:nodetypes="asaaaacaaaacsaszaaa" />
      </g>
      <g
         transform="matrix(0.22340209,0,0,0.22340209,234.91154,492.27946)"
         id="g12420-2-8">
        <text
           xml:space="preserve"
           style="font-size:49.23857116999999300px;font-style:normal;font-variant:normal;font-weight:normal;font-stretch:normal;text-indent:0;text-align:start;text-decoration:none;line-height:125%;letter-spacing:0px;word-spacing:0px;text-transform:none;direction:ltr;block-progression:tb;writing-mode:lr-tb;text-anchor:start;baseline-shift:baseline;color:#000000;fill:#000000;fill-opacity:1;fill-rule:nonzero;stroke:none;marker:none;visibility:visible;display:inline;overflow:visible;enable-background:accumulate;font-family:Poppins;-inkscape-font-specification:Poppins"
           x="819.70514"
           y="346.15326"
           id="text11162-14-61-3-8"
           sodipodi:linespacing="125%"><tspan
             sodipodi:role="line"
             id="tspan11164-2-89-6-2"
             x="819.70514"
             y="346.15326">T6</tspan></text>
        <path
           style="color:#000000;fill:none;stroke:#4d4d4d;stroke-width:3.58098722;stroke-linecap:butt;stroke-linejoin:miter;stroke-miterlimit:4;stroke-opacity:1;stroke-dasharray:none;stroke-dashoffset:0;marker:none;visibility:visible;display:inline;overflow:visible;enable-background:accumulate"
           d="m 556.42857,323.07647 237.333,5.16497"
           id="path11798-3-7"
           inkscape:connector-curvature="0"
           sodipodi:nodetypes="cc" />
      </g>
    </g>
  </g>
</svg>
