<?xml version="1.0" encoding="UTF-8" standalone="no"?>
<!-- Created with Inkscape (http://www.inkscape.org/) -->

<svg
   xmlns:dc="http://purl.org/dc/elements/1.1/"
   xmlns:cc="http://creativecommons.org/ns#"
   xmlns:rdf="http://www.w3.org/1999/02/22-rdf-syntax-ns#"
   xmlns:svg="http://www.w3.org/2000/svg"
   xmlns="http://www.w3.org/2000/svg"
   xmlns:sodipodi="http://sodipodi.sourceforge.net/DTD/sodipodi-0.dtd"
   xmlns:inkscape="http://www.inkscape.org/namespaces/inkscape"
   width="220"
   height="375"
   id="svg5704"
   version="1.1"
   inkscape:version="0.48.5 r10040"
   sodipodi:docname="Spine_green_sacrum.svg">
  <defs
     id="defs5706" />
  <sodipodi:namedview
     id="base"
     pagecolor="#ffffff"
     bordercolor="#666666"
     borderopacity="1.0"
     inkscape:pageopacity="0.0"
     inkscape:pageshadow="2"
     inkscape:zoom="0.992"
     inkscape:cx="185.20885"
     inkscape:cy="233.94448"
     inkscape:document-units="px"
     inkscape:current-layer="g6147"
     showgrid="false"
     inkscape:window-width="1280"
     inkscape:window-height="961"
     inkscape:window-x="-8"
     inkscape:window-y="-8"
     inkscape:window-maximized="1" />
  <metadata
     id="metadata5709">
    <rdf:RDF>
      <cc:Work
         rdf:about="">
        <dc:format>image/svg+xml</dc:format>
        <dc:type
           rdf:resource="http://purl.org/dc/dcmitype/StillImage" />
        <dc:title></dc:title>
      </cc:Work>
    </rdf:RDF>
  </metadata>
  <g
     inkscape:label="Capa 1"
     inkscape:groupmode="layer"
     id="layer1"
     transform="translate(0,-677.36218)">
    <g
       id="g6147"
       transform="translate(-249.00368,269.90451)">
      <g
         id="g12592-3-1"
         transform="matrix(0.2234221,0,0,0.2234221,368.51258,492.25391)"
         style="color:#000000;fill:#FF52A2;fill-opacity:1;fill-rule:nonzero;stroke:#4d4d4d;stroke-width:4.15467119;stroke-linecap:butt;stroke-linejoin:miter;stroke-miterlimit:4;stroke-opacity:1;stroke-dasharray:none;stroke-dashoffset:0;marker:none;visibility:visible;display:inline;overflow:visible;enable-background:accumulate">
        <path
           style="color:#000000;fill:#FF52A2;fill-opacity:1;fill-rule:nonzero;stroke:#4d4d4d;stroke-width:4.15467119;stroke-linecap:butt;stroke-linejoin:miter;stroke-miterlimit:4;stroke-opacity:1;stroke-dasharray:none;stroke-dashoffset:0;marker:none;visibility:visible;display:inline;overflow:visible;enable-background:accumulate"
           d="m -46.810272,-340.08448 c 4.3346,-2.16727 12.3656,-3.76343 18.2796,-6.45161 5.914,-2.68818 13.4409,-5.37635 17.2043,-5.37635 3.7634003,0 19.3548003,2.15054 19.3548003,2.15054 l -3.7634,4.83871 c 0,0 -7.1624,5.66024 -15.0538003,8.06452 -7.8913,2.40428 -24.8755,3.19255 -32.258,3.2258 -7.3826,0.0332 -11.828,-1.07527 -11.828,-1.07527 0,0 3.73,-3.20907 8.0645,-5.37634 z"
           id="path11015-9-2"
           inkscape:connector-curvature="0"
           sodipodi:nodetypes="zzzcczzcz" />
        <path
           style="color:#000000;fill:#FF52A2;fill-opacity:1;fill-rule:nonzero;stroke:#4d4d4d;stroke-width:4.15467119;stroke-linecap:butt;stroke-linejoin:miter;stroke-miterlimit:4;stroke-opacity:1;stroke-dasharray:none;stroke-dashoffset:0;marker:none;visibility:visible;display:inline;overflow:visible;enable-background:accumulate"
           d="m 8.3309283,-356.14563 c 8.1404997,-3.68125 16.3115997,-2.94297 26.6497997,-2.85683 8.8067,0.0734 16.5722,1.10741 24.8705,4.08613 2.9432,1.0565 11.3619,-1.57318 13.8681,0.29136 6.5077,4.8416 4.3849,13.4825 5.0647,20.48279 0.5707,5.87644 2.3182,12.71797 -0.8638,17.69118 -3.8694,6.04748 -16.8116,8.82812 -19.0926,9.96862 -2.281,1.14049 -18.9105,3.85962 -28.4471,3.37535 -9.5957,-0.48727 -18.6482,-4.73912 -28.1321997,-6.27831 -4.9039,-0.79587 -10.1682,0.20621 -14.8264003,-1.52066 -3.3291,-1.23412 -8.7438,-6.08264 -8.7438,-6.08264 l -4.9962,-5.38753 c 0,0 -2.2036,-0.0577 -3.2879,-0.23519 -5.2976,-0.86713 -8.0735,-1.87912 -12.1699,-1.75127 -6.3449,0.19803 -12.4813,2.35965 -18.6439,3.88271 -4.265,1.05407 -8.4182,4.74173 -12.6693,3.63298 -2.985,-0.77853 -6.6866,-3.49071 -6.5169,-6.57087 0.3296,-5.98045 8.5019,-8.86519 13.9785,-11.29033 7.4626,-3.30457 16.0879,-2.81012 24.1936,-3.76344 8.9276,-1.05 18.1792,0.10153 26.8817,-2.15054 4.1927,-1.08501 8.2163003,-2.98625 11.8279003,-5.37634 4.1714,-2.7605 6.4976,-8.08612 11.0552,-10.14717 z"
           id="path11011-6-7"
           inkscape:connector-curvature="0"
           sodipodi:nodetypes="asssaasaaaccsaaaaaaaaa" />
        <path
           style="color:#000000;fill:#FF52A2;fill-opacity:1;fill-rule:nonzero;stroke:#4d4d4d;stroke-width:4.15467119;stroke-linecap:butt;stroke-linejoin:miter;stroke-miterlimit:4;stroke-opacity:1;stroke-dasharray:none;stroke-dashoffset:0;marker:none;visibility:visible;display:inline;overflow:visible;enable-background:accumulate"
           d="m -29.202672,-322.74577 c 0,0 13.5752,0.94086 21.1021003,-1.20968 7.52689997,-2.15054 10.7527,-3.22581 14.5161,-5.91398 3.7634997,-2.68817 17.2042997,-13.44086 17.2042997,-13.44086"
           id="path11013-7-3"
           inkscape:connector-curvature="0"
           sodipodi:nodetypes="cssc" />
      </g>
      <g
         transform="matrix(0.22340209,0,0,0.22340209,234.91154,492.27946)"
         id="g12360-7-5">
        <text
           xml:space="preserve"
           style="font-size:49.23857116999999300px;font-style:normal;font-variant:normal;font-weight:normal;font-stretch:normal;text-indent:0;text-align:start;text-decoration:none;line-height:125%;letter-spacing:0px;word-spacing:0px;text-transform:none;direction:ltr;block-progression:tb;writing-mode:lr-tb;text-anchor:start;baseline-shift:baseline;color:#000000;fill:#000000;fill-opacity:1;fill-rule:nonzero;stroke:none;marker:none;visibility:visible;display:inline;overflow:visible;enable-background:accumulate;font-family:Poppins;-inkscape-font-specification:Poppins"
           x="818.07928"
           y="-312.63858"
           id="text11162-3-0"
           sodipodi:linespacing="125%"><tspan
             sodipodi:role="line"
             id="tspan11164-1-3"
             x="818.07928"
             y="-312.63858">C1</tspan></text>
        <path
           style="color:#000000;fill:none;stroke:#4d4d4d;stroke-width:3.58098722;stroke-linecap:butt;stroke-linejoin:miter;stroke-miterlimit:4;stroke-opacity:1;stroke-dasharray:none;stroke-dashoffset:0;marker:none;visibility:visible;display:inline;overflow:visible;enable-background:accumulate"
           d="m 669.28571,-330.02015 126.07089,0"
           id="path11774-5-5"
           inkscape:connector-curvature="0"
           sodipodi:nodetypes="cc" />
      </g>
    </g>
  </g>
</svg>
