<?xml version="1.0" encoding="UTF-8" standalone="no"?>
<!DOCTYPE svg PUBLIC "-//W3C//DTD SVG 1.1//EN" "http://www.w3.org/Graphics/SVG/1.1/DTD/svg11.dtd">
<svg width="100%" height="100%" viewBox="0 0 10 15" version="1.1" xmlns="http://www.w3.org/2000/svg" xmlns:xlink="http://www.w3.org/1999/xlink" xml:space="preserve" xmlns:serif="http://www.serif.com/" style="fill-rule:evenodd;clip-rule:evenodd;stroke-linejoin:round;stroke-miterlimit:2;">
    <g transform="matrix(0.0202703,0,0,0.01875,-3.10811,8.88178e-16)">
        <path d="M569.072,320L569.072,169.072C569.072,75.845 493.227,-0 400,-0C306.773,-0 230.928,75.845 230.928,169.072L230.928,320L153.333,320L153.333,746.667L646.667,746.667L646.667,320L569.072,320ZM569.072,320L280.412,320L280.412,169.072C280.412,103.131 334.059,49.485 400,49.485C465.941,49.485 519.588,103.131 519.588,169.072L569.072,169.072M635.052,746.667L164.948,746.667L164.948,338.144L635.052,338.144L635.052,746.667Z" style="fill:rgb(128,128,128);fill-rule:nonzero;"/>
    </g>
    <g transform="matrix(1,0,0,1,0,-0.0710145)">
        <path d="M7.971,6.071L10,6.071L10,14.529L-0,14.529L-0,6.071L2.029,6.071L2.029,3.442C2.029,1.804 3.362,0.471 5,0.471C6.638,0.471 7.971,1.804 7.971,3.442L7.971,3.887M7.101,5.543L7.101,3.866M9.13,13.659L9.13,6.413L0.87,6.413L0.87,13.659L9.13,13.659ZM7.971,3.887L7.965,6.071M7.971,3.442L7.101,3.442C7.101,2.283 6.159,1.341 5,1.341C3.841,1.341 2.899,2.283 2.899,3.442L2.899,6.071L7.971,6.071" style="fill:rgb(128,128,128);"/>
    </g>
    <g transform="matrix(0.0203726,0,0,0.0207986,-2.93653,-0.60503)">
        <rect x="144.141" y="317.57" width="490.855" height="432.721" style="fill:rgb(201,181,78);"/>
    </g>
    <g transform="matrix(0.898342,0,0,0.855239,0.644689,-0.389711)">
        <g id="Layer1">
            <rect x="7.186" y="4.094" width="1.478" height="1.273" style="fill:rgb(128,128,128);"/>
        </g>
    </g>
</svg>
