<?xml version="1.0" encoding="UTF-8" standalone="no"?>
<!-- Created with Inkscape (http://www.inkscape.org/) -->

<svg
   xmlns:dc="http://purl.org/dc/elements/1.1/"
   xmlns:cc="http://creativecommons.org/ns#"
   xmlns:rdf="http://www.w3.org/1999/02/22-rdf-syntax-ns#"
   xmlns:svg="http://www.w3.org/2000/svg"
   xmlns="http://www.w3.org/2000/svg"
   xmlns:sodipodi="http://sodipodi.sourceforge.net/DTD/sodipodi-0.dtd"
   xmlns:inkscape="http://www.inkscape.org/namespaces/inkscape"
   width="220"
   height="375"
   id="svg5704"
   version="1.1"
   inkscape:version="0.48.5 r10040"
   sodipodi:docname="Spine_gray.svg">
  <defs
     id="defs5706">
    <inkscape:path-effect
       effect="spiro"
       id="path-effect3941"
       is_visible="true" />
  </defs>
  <sodipodi:namedview
     id="base"
     pagecolor="#ffffff"
     bordercolor="#666666"
     borderopacity="1.0"
     inkscape:pageopacity="0.0"
     inkscape:pageshadow="2"
     inkscape:zoom="1.0163934"
     inkscape:cx="314.1225"
     inkscape:cy="118.7564"
     inkscape:document-units="px"
     inkscape:current-layer="g6147"
     showgrid="false"
     inkscape:window-width="1280"
     inkscape:window-height="961"
     inkscape:window-x="-8"
     inkscape:window-y="-8"
     inkscape:window-maximized="1" />
  <metadata
     id="metadata5709">
    <rdf:RDF>
      <cc:Work
         rdf:about="">
        <dc:format>image/svg+xml</dc:format>
        <dc:type
           rdf:resource="http://purl.org/dc/dcmitype/StillImage" />
        <dc:title></dc:title>
      </cc:Work>
    </rdf:RDF>
  </metadata>
  <g
     inkscape:label="Capa 1"
     inkscape:groupmode="layer"
     id="layer1"
     transform="translate(0,-677.36218)">
    <g
       id="g6147"
       transform="translate(-249.00368,269.90451)">
      <g
         id="g12592-3-1"
         transform="matrix(0.2234221,0,0,0.2234221,368.51258,492.25391)"
         style="color:#000000;fill:#ffffff;fill-opacity:1;fill-rule:nonzero;stroke:#4d4d4d;stroke-width:4.15467123;stroke-linecap:butt;stroke-linejoin:miter;stroke-miterlimit:4;stroke-opacity:1;stroke-dasharray:none;stroke-dashoffset:0;marker:none;visibility:visible;display:inline;overflow:visible;enable-background:accumulate">
        <path
           style="color:#000000;fill:#ffffff;fill-opacity:1;fill-rule:nonzero;stroke:#4d4d4d;stroke-width:4.15467123;stroke-linecap:butt;stroke-linejoin:miter;stroke-miterlimit:4;stroke-opacity:1;stroke-dasharray:none;stroke-dashoffset:0;marker:none;visibility:visible;display:inline;overflow:visible;enable-background:accumulate"
           d="m -207.02525,259.37788 c 0.5899,4.58712 7.2598,5.79637 11.2903,8.06451 2.3789,1.33868 4.8208,2.8679 7.5269,3.22581 3.7688,0.49847 7.7371,-0.26121 11.29028,-1.61291 4.2459,-1.6152 7.1745,-5.76374 11.3611,-7.52688 4.7083,-1.98281 9.8745,-3.17248 14.983,-3.2258 5.6583,-0.0591 11.0338,2.6857 16.6667,3.2258 4.995,0.47895 15.0537,0 15.0537,0 0,0 -1.0753,-4.83871 -2.1505,-11.82795 -1.0753,-6.98925 -1.0753,-18.27957 -1.0753,-18.27957 0,0 -12.7443,0.42516 -18.8172,2.15053 -6.4778,1.84042 -11.8661,6.54882 -18.2796,8.60215 -5.7247,1.83282 -11.8576,1.99822 -17.7419,3.22581 -4.71908,0.98451 -9.50838,1.77744 -14.07628,3.31805 -3.6842,1.24256 -7.4508,2.5439 -10.6549,4.74647 -1.0443,0.71786 -1.8336,1.75243 -2.6882,2.68817 -0.9438,1.03356 -2.8667,1.83755 -2.6881,3.22581 z"
           id="path11037-0-7"
           inkscape:connector-curvature="0"
           sodipodi:nodetypes="aaaaaaacscaaaaaaa" />
        <path
           style="color:#000000;fill:#ffffff;fill-opacity:1;fill-rule:nonzero;stroke:#4d4d4d;stroke-width:4.15467123;stroke-linecap:butt;stroke-linejoin:miter;stroke-miterlimit:4;stroke-opacity:1;stroke-dasharray:none;stroke-dashoffset:0;marker:none;visibility:visible;display:inline;overflow:visible;enable-background:accumulate"
           d="m -194.12205,206.15207 c 8.9581,-8.10697 22.64818,-8.42873 33.87098,-12.90323 6.4922,-2.58846 12.6858,-5.97326 19.3548,-8.06451 6.4733,-2.02986 12.3656,-4.30108 19.8925,-4.30108 7.5269,0 24.193498,1.61291 27.956998,5.91398 3.7634,4.30108 6.9892,13.9785 6.9892,16.12903 0,2.15054 -6.4516,9.67742 -10.7527,10.75269 -4.300998,1.07527 -27.419298,1.07527 -30.107498,1.07527 -2.6882,0 -17.5979,-1.34285 -26.3441,-0.53763 -5.2848,0.48655 -10.3825,2.20892 -15.5914,3.2258 -4.693,0.91617 -9.344,2.98929 -14.10888,2.59034 -3.5643,-0.29843 -6.8304,-2.18151 -10.0846,-3.66561 -1.6788,-0.76559 -4.2934,-0.9255 -4.8387,-2.68817 -0.8291,-2.6798 1.6836,-5.64464 3.7634,-7.52688 z"
           id="path11035-0-4"
           inkscape:connector-curvature="0"
           sodipodi:nodetypes="aaasssssaaaaaa" />
        <path
           style="color:#000000;fill:#ffffff;fill-opacity:1;fill-rule:nonzero;stroke:#4d4d4d;stroke-width:4.15467123;stroke-linecap:butt;stroke-linejoin:miter;stroke-miterlimit:4;stroke-opacity:1;stroke-dasharray:none;stroke-dashoffset:0;marker:none;visibility:visible;display:inline;overflow:visible;enable-background:accumulate"
           d="m -180.68115,155.0768 c 4.38578,-10.79157 19.61398,-12.6843 30.10748,-17.74193 8.125,-3.91608 16.5155,-7.50237 25.2688,-9.67742 7.1837,-1.78501 14.6858,-3.50174 22.043,-2.68818 8.507298,0.94072 21.505398,1.61291 24.193598,8.60216 2.6881,6.98924 16.6666,2.68817 2.6881,12.36559 -13.9785,9.67742 -15.6552,11.5162 -24.731098,14.51613 -6.3325,2.09312 -13.2702,2.94188 -19.8925,2.15053 -4.7282,-0.56499 -8.6985,-4.40976 -13.4409,-4.83871 -5.4283,-0.49098 -10.7507,1.80391 -16.129,2.68818 -6.6285,1.0898 -13.192,3.70275 -19.8925,3.2258 -2.9965,-0.21329 -6.5172,-0.52538 -8.6021,-2.68817 -1.41818,-1.47107 -2.38228,-4.02101 -1.61288,-5.91398 z"
           id="path11033-4-0"
           inkscape:connector-curvature="0"
           sodipodi:nodetypes="aaaassaaaaaaa" />
        <path
           style="color:#000000;fill:#ffffff;fill-opacity:1;fill-rule:nonzero;stroke:#4d4d4d;stroke-width:4.15467123;stroke-linecap:butt;stroke-linejoin:miter;stroke-miterlimit:4;stroke-opacity:1;stroke-dasharray:none;stroke-dashoffset:0;marker:none;visibility:visible;display:inline;overflow:visible;enable-background:accumulate"
           d="m -102.29707,917.59698 c 5.814698,-4.6333 14.602098,-3.4034 21.289298,-6.6529 4.1043,-1.9944 7.61,-5.0447 11.285,-7.7499 4.7183,-3.4732 8.4621,-8.476 13.8058,-10.8782 9.1594,-4.1174 20.0916,-8.3929 29.6529,-5.3223 6.2285,2.0003 10.8192,8.1859 13.686,14.0661 2.466,5.0583 4.6903003,11.6418 2.2809,16.7273 -2.8008,5.9119 -10.7911,7.5152 -16.7272,10.2644 -7.7453,3.5871 -15.9779,6.2259 -24.3306,7.9835 -6.3546,1.3371 -12.903,2.2313 -19.3884,1.9008 -5.7458,-0.2928 -11.4456,-1.6435 -16.9173,-3.4215 -3.3988,-1.1043 -6.6082,-2.7552 -9.7505,-4.4574 -3.078998,-1.6679 -8.047598,-2.2149 -8.877598,-5.6169 -0.6259,-2.5655 1.9265,-5.1974 3.9917,-6.843 z"
           id="path11061-8-9"
           inkscape:connector-curvature="0"
           sodipodi:nodetypes="aaaaaaaaaaaaaa" />
        <path
           style="color:#000000;fill:#ffffff;fill-opacity:1;fill-rule:nonzero;stroke:#4d4d4d;stroke-width:4.15467123;stroke-linecap:butt;stroke-linejoin:miter;stroke-miterlimit:4;stroke-opacity:1;stroke-dasharray:none;stroke-dashoffset:0;marker:none;visibility:visible;display:inline;overflow:visible;enable-background:accumulate"
           d="m -121.30527,712.49798 c 6.8429,-4.9421 30.793298,-22.8099 33.834698,-25.8512 3.0413,-3.0413 6.8429,-6.843 14.0661,-8.7438 7.2231,-1.9008 25.471,0 28.5123,2.6612 3.0414,2.6611 7.6033,13.3057 7.6033,13.3057 0,0 -1.9008,11.0248 -2.281,14.4463 -0.3801,3.4215 -7.9834,16.3471 -7.9834,16.3471 0,0 -10.2645,3.0413 -11.7851,1.1405 -1.5207,-1.9008 -8.3637,-10.2645 -11.405,-12.1653 -3.0413,-1.9008 -8.3636,-5.3223 -13.3058,-4.1818 -4.9421,1.1405 -7.2231,4.1818 -12.9256,6.4628 -5.702398,2.281 -5.026398,5.5259 -9.968598,5.9061 -4.9421,0.3801 -11.3206,-0.5838 -13.6016,-2.4846 -2.281,-1.9008 -0.7603,-6.843 -0.7603,-6.843 z"
           id="path11053-3-4"
           inkscape:connector-curvature="0"
           sodipodi:nodetypes="cssscscssssssc" />
        <path
           style="color:#000000;fill:#ffffff;fill-opacity:1;fill-rule:nonzero;stroke:#4d4d4d;stroke-width:4.15467123;stroke-linecap:butt;stroke-linejoin:miter;stroke-miterlimit:4;stroke-opacity:1;stroke-dasharray:none;stroke-dashoffset:0;marker:none;visibility:visible;display:inline;overflow:visible;enable-background:accumulate"
           d="m -59.107772,721.54878 c 0,0 -8.6244,13.738 -13.9166,19.8417 -5.5793,6.4349 -12.3176,11.768 -18.6281,17.4876 -3.9923,3.6187 -9.611598,5.8999 -12.165198,10.6447 -1.3335,2.4776 -2.3881,5.8416 -1.1405,8.3636 1.2434,2.5136 4.7405,3.0438 7.315298,4.1548 2.405,1.0376 4.9177,2.6745 7.5111,2.308 3.451,-0.4878 6.0071,-6.5694 8.7345,-8.92 3.0945,-2.667 6.3323,-1.6895 9.9476,-3.2914 4.533,-2.0085 9.5351,-2.7605 14.3923,-3.7555 7.5319,-1.5431 17.4875,-0.7604 22.8098,-3.4215 5.3224,-2.6612 28.5744003,-1.9312 28.5744003,-1.9312 0,0 -18.3099003,-20.1184 -22.4917003,-22.7795 -4.1818,-2.6612 3.6679,-14.5465 -2.0346,-16.0671 -5.7024,-1.5207 -28.9083,-2.6342 -28.9083,-2.6342 z"
           id="path11055-0-8"
           inkscape:connector-curvature="0"
           sodipodi:nodetypes="caaaaasssascssc" />
        <path
           style="color:#000000;fill:#ffffff;fill-opacity:1;fill-rule:nonzero;stroke:#4d4d4d;stroke-width:4.15467123;stroke-linecap:butt;stroke-linejoin:miter;stroke-miterlimit:4;stroke-opacity:1;stroke-dasharray:none;stroke-dashoffset:0;marker:none;visibility:visible;display:inline;overflow:visible;enable-background:accumulate"
           d="m -145.72807,662.31618 c 1.416,-4.1162 9.527,-2.5769 13.8212,-4.9158 6.5832,-3.5855 11.8469,-9.189 17.8247,-13.7122 5.4165,-4.0985 10.1536,-9.3768 16.347098,-12.1653 5.0763,-2.2855 10.7901,-3.756 16.3471,-3.4215 8.2802,0.4985 18.0955,1.7515 23.5702,7.9835 2.1323,2.4272 3.148,6.5237 1.9008,9.5041 -1.8723,4.4743 -7.5971,6.3531 -12.1652,7.9834 -6.8404,2.4415 -14.7956,-0.065 -21.6694,2.281 -6.6234,2.2603 -11.237198,8.7859 -17.867798,11.0248 -6.7976,2.2953 -14.2461,2.2388 -21.4197,2.1156 -4.7168,-0.081 -10.1313,0.7854 -14.0279,-1.8738 -1.512,-1.0318 -3.4958,-2.3774 -2.6611,-4.8038 z"
           id="path11051-1-8"
           inkscape:connector-curvature="0"
           sodipodi:nodetypes="saaaaaaaaaaas" />
        <path
           style="color:#000000;fill:#ffffff;fill-opacity:1;fill-rule:nonzero;stroke:#4d4d4d;stroke-width:4.15467123;stroke-linecap:butt;stroke-linejoin:miter;stroke-miterlimit:4;stroke-opacity:1;stroke-dasharray:none;stroke-dashoffset:0;marker:none;visibility:visible;display:inline;overflow:visible;enable-background:accumulate"
           d="m -24.363272,-324.9721 -0.7603,12.9256 c 0,0 -11.311,14.37374 -14.4463,22.8099 -2.4098,6.48433 -3.1546,13.61218 -3.0413,20.52891 0.1393,8.4996 1.97,16.99494 4.562,25.09088 2.9039,9.07002 10.0877,16.55706 12.1653,25.85122 1.6034,7.17283 0.282,14.70512 0,22.04956 -0.1268,3.30206 -0.6335,6.58223 -0.7604,9.88429 -0.2334,6.07816 -0.6637,12.2016 0,18.24792 0.51,4.64536 2.5314,9.04057 3.0414,13.68593 0.4978,4.53474 0.8627,9.20627 0,13.68594 -1.0324,5.36083 -5.0503,9.84577 -6.0827,15.2066 -0.8627,4.47967 0,9.12396 0,13.68594 0,2.78787 0.5346,5.62748 0,8.36362 -1.6785,8.591458 -7.6525,15.865938 -9.8843,24.330558 -1.4987,5.68432 -1.3238,11.68746 -2.2809,17.48759 -0.8417,5.10027 -1.8464,10.17736 -3.0414,15.20659 -1.7625,7.41787 -4.4191,14.60887 -6.0826,22.04957 -1.6273,7.27861 -2.6148,14.6863104 -3.8017,22.0495704 -0.8156,5.06026 -0.8065,10.29766 -2.2809,15.2065896 -2.2507,7.49328 -6.4265,14.27085 -9.8843,21.28924 -2.9059,5.89791 -6.8325,11.32493 -9.124,17.48759 -1.5426,4.14868 -1.9457,8.63715 -3.0413,12.9256 -1.8873,7.38712 -4.1066,14.68572 -6.0827,22.04957 -1.5613,5.81842 -2.9954,11.67056 -4.5619,17.487592 -1.2313,4.57182 -2.9293,9.03228 -3.8017,13.68593 -0.4693,2.50347 0.3849,5.32819 -0.7603,7.6033 -3.388,6.73083 -12.895998,8.71784 -16.727298,15.2066 -2.7816,4.71117 -3.0346,10.54988 -3.8016,15.96693 -0.747,5.27571 -0.4293,10.64888 -0.7603,15.96693 -0.2054,3.29811 0.2846,6.74936 -0.7604,9.88428 -3.1349,9.40476 -11.628,16.17734 -15.9669,25.09089 -1.9997,4.10815 -3.7906,8.42218 -4.562,12.92561 -0.7702,4.49649 0,9.12395 0,13.68593 0,7.34986 1.3114,14.81765 0,22.04957 -0.7727,4.26135 -3.683,7.92456 -4.562,12.16528 -1.03,4.96958 -0.6335,10.13298 -0.7603,15.20659 -0.082,3.29374 1.1844,6.80979 0,9.88429 -2.5802,6.6976 -11.1506,9.59087 -14.4463,15.96693 -3.2186,6.22725 -3.5302,13.59535 -4.5619,20.5289 -0.4864,3.26851 -0.7053,6.58025 -0.7604,9.88429 -0.097,5.83389 0.6984,11.65322 0.7604,17.48759 0.1211,11.40712 -1.3731,22.82355 -0.7604,34.21484 0.3158,5.87009 1.2756,11.69564 2.281,17.48759 1.0203,5.87745 2.6343,11.63757 3.8017,17.48759 0.5545,2.7788 0.8772,5.60406 1.5206,8.36362 0.419,1.79689 1.4299,3.47945 1.5207,5.32231 0.1394,2.83015 -1.2662,5.5415 -1.5207,8.36363 -0.2959,3.28145 -0.9364,6.7254 0,9.88429 1.7183,5.79625 8.0143,9.45752 9.8843,15.2066 1.4916,4.5856 0.6336,9.62584 0.7603,14.44626 0.087,3.29362 0.3596,6.6092 0,9.88429 -0.2549,2.32268 -1.3712,4.51112 -1.5206,6.84297 -0.1791,2.79364 -0.4933,5.86064 0.7603,8.36363 1.5269,3.04873 5.9826,3.84302 7.6033,6.84297 3.1689,5.8658 -1.2248,14.64516 3.0413,19.76857 3.9493,4.74278 13.6768,1.22791 17.4876,6.08264 3.3012,4.2055 1.267,10.62656 1.5207,15.96693 0.2285,4.81 -1.1064,9.75966 0,14.44627 0.651,2.75778 2.3794,5.15251 3.8016,7.6033 1.8347,3.16143 3.909,6.1853 6.0827,9.12397 4.2842,5.7919 10.511698,10.26 13.685898,16.7272 2.9796,6.071 2.1899,13.4356 4.562,19.7686 1.5112,4.0348 3.5176,7.9432 6.0826,11.405 4.9078,6.6236 14.1337,9.9569 17.4876,17.4876 1.9618,4.4049 0.2012,9.6567 0.7603,14.4462 0.3286,2.8145 1.0138,5.5758 1.5207,8.3637 0.5069,2.7878 0.8874,5.6017 1.5207,8.3636 1.0582,4.6149 3.1621,8.9946 3.8016,13.6859 1.0611,7.7848 -2.2767,16.0506 0,23.5702 1.0592,3.4984 4.2909,5.9381 6.0827,9.124 2.0564,3.6566 4.4136,7.3093 5.3223,11.405 1.7016,7.6702 0,15.7134 0,23.5702 0,5.8292 0,11.6584 0,17.4876 0,4.3085 0,8.617 0,12.9256 0,3.5482 0,7.0964 0,10.6446 0,5.8292 -0.1456,11.6602 0,17.4876 0.3802,15.2208 2.7204,30.4005 2.281,45.6198 -0.2723,9.4281 -1.69,18.7974 -3.0414,28.1322 -1.2179,8.413 -3.6065,16.644 -4.5619,25.0909 -0.6274,5.5461 0,12.9256 -0.7604,16.7272 -0.7603,3.8017 -0.7985,25.199 -0.7985,25.199 l 16.0051,-10.7527 14.4463,-12.1653 c 0,0 26.8228003,-7.7978 32.2963,-19.0306 5.4839,-11.2544 -3.6089997,-24.7838 -4.9243997,-37.2338 -2.6981,-25.5358 -3.3189,-51.2646 -6.08270003,-76.7933 -2.20279997,-20.3474 -6.25209997,-40.4694 -8.36359997,-60.8264 -1.4941,-14.4045 -0.045,-29.1704 -3.0413003,-43.3388 -6.6349,-31.3745 -17.4072,-62.2891 -32.6942,-90.4793 -6.8141,-12.5656 -18.2633,-22.1007 -25.8512,-34.21481 -7.0999,-11.33498 -12.8641,-23.49196 -18.2479,-35.73551 -10.233,-23.27102 -20.115398,-46.89352 -26.611598,-71.471 -4.4612,-16.87854 -6.8293,-34.31181 -8.3636,-51.70243 -1.4257,-16.15958 -1.2684,-32.44672 -0.7603,-48.66112 0.406,-12.95894 0.934,-25.98392 3.0413,-38.77682 4.972,-30.18387 15.7262,-59.1385 22.548998,-88.95859 7.1542,-31.26863 9.6289,-63.68718 19.2691,-94.2809 4.9808,-15.80678 13.278,-30.37072 19.7686,-45.6198 20.3327,-47.769732 44.188,-94.273082 60.0661003,-143.702342 10.7364997,-33.42322 19.9521997,-67.726138 23.5701997,-102.644528 1.3585,-13.1113 0.03,-26.37939 -0.7604,-39.53715 -2.7191,-45.26138 -16.7271997,-127.73542 -13.6859,-135.33872 3.0413,-7.60329 18.2479,-29.65286 18.2479,-29.65286 l -21.2891997,11.40495 z"
           id="path11071-2-2"
           inkscape:connector-curvature="0"
           sodipodi:nodetypes="ccaaaaaaaaaaaaaaaaaaaaaaaaaaaaaaaaaaaaaaaaaaaaaaaaaaaaaaaaaaaaaaaaaaaaaaaaaaaaaascccaaaaaaaaaaaaaaaaaasccc" />
        <path
           style="color:#000000;fill:#ffffff;fill-opacity:1;fill-rule:nonzero;stroke:#4d4d4d;stroke-width:4.15467123;stroke-linecap:butt;stroke-linejoin:miter;stroke-miterlimit:4;stroke-opacity:1;stroke-dasharray:none;stroke-dashoffset:0;marker:none;visibility:visible;display:inline;overflow:visible;enable-background:accumulate"
           d="m -192.77625,491.43208 c 0.015,-7.52901 13.82148,-18.15132 20.14868,-23.38014 6.3273,-5.22882 9.8843,-6.84297 11.7851,-7.6033 1.9009,-0.76033 11.0248,-3.80165 19.0083,-4.56198 7.9834,-0.76033 23.19,11.40495 27.752,15.96693 4.562,4.56198 6.0827,13.30577 3.0413,15.96692 -3.0413,2.66116 -19.7685,6.08264 -24.7107,6.08264 -4.9421,0 -14.4462,-1.90082 -17.1074,-3.04132 -2.6612,-1.1405 -9.5041,-2.28099 -12.5455,-0.38016 -3.0413,1.90083 -10.6446,9.88429 -14.4462,10.64462 -3.80168,0.76033 -5.51238,-1.52066 -7.79338,-3.04132 -2.281,-1.52066 -5.1478,0.87612 -5.1322,-6.65289 z"
           id="path11045-9-4"
           inkscape:connector-curvature="0"
           sodipodi:nodetypes="zzzssszzzzzz" />
        <path
           style="color:#000000;fill:#ffffff;fill-opacity:1;fill-rule:nonzero;stroke:#4d4d4d;stroke-width:4.15467123;stroke-linecap:butt;stroke-linejoin:miter;stroke-miterlimit:4;stroke-opacity:1;stroke-dasharray:none;stroke-dashoffset:0;marker:none;visibility:visible;display:inline;overflow:visible;enable-background:accumulate"
           d="m -195.72255,425.47347 c 5.3199,-3.62027 11.8465,-5.2871 17.01238,-9.12396 3.309,-2.45771 5.0927,-6.83081 8.7438,-8.7438 5.0198,-2.63017 11.0776,-3.48744 16.7272,-3.04132 7.6311,0.60259 20.1488,1.52066 21.6694,7.6033 1.5207,6.08264 4.1818,12.92561 1.1405,16.72726 -3.0413,3.80165 -5.1781,7.76375 -9.314,8.45867 -8.0201,1.34752 -14.4796,-7.88646 -22.4297,-9.59916 -3.0977,-0.66733 -6.4592,-1.06666 -9.5042,-0.19009 -4.5512,1.31017 -7.7855,5.41328 -11.88008,7.79338 -2.7684,1.60919 -5.4406,3.62244 -8.5537,4.3719 -2.1253,0.51164 -4.5961,0.96429 -6.5579,0 -2.5135,-1.23553 -4.2285,-4.00188 -5.1322,-6.65289 -0.082,-0.23989 -0.1066,-0.53038 0,-0.76033 1.484,-3.20188 5.1609,-4.85751 8.0785,-6.84296 z"
           id="path11043-0-5"
           inkscape:connector-curvature="0"
           sodipodi:nodetypes="aaaassaaaaaaaaa" />
        <path
           style="color:#000000;fill:#ffffff;fill-opacity:1;fill-rule:nonzero;stroke:#4d4d4d;stroke-width:4.15467123;stroke-linecap:butt;stroke-linejoin:miter;stroke-miterlimit:4;stroke-opacity:1;stroke-dasharray:none;stroke-dashoffset:0;marker:none;visibility:visible;display:inline;overflow:visible;enable-background:accumulate"
           d="m -209.88365,379.85367 c 1.0315,-7.31014 11.2277,-9.6016 17.1074,-14.0661 6.1597,-4.67714 14.44618,-10.26445 19.00818,-13.30577 4.562,-3.04132 13.3058,-6.4628 19.7686,-5.70247 6.4628,0.76032 21.2892,7.60329 22.8099,11.02478 1.5207,3.42148 1.9008,9.12396 -1.1405,12.16528 -3.0413,3.04132 -9.8843,5.3223 -11.7851,7.98346 -1.9008,2.66115 -3.4215,7.98346 -6.4628,7.98346 -3.0413,0 -7.3872,-0.0253 -10.6446,-1.52066 -3.6727,-1.686 -5.0857,-7.83129 -9.124,-7.98346 -3.1658,-0.11929 -5.1271,3.72634 -7.6033,5.70247 -4.28658,3.42093 -7.23038,9.29252 -12.54538,10.64462 -3.0108,0.76591 -6.3909,-0.42399 -9.124,-1.90082 -2.6803,-1.44829 -4.2462,-4.37275 -6.4628,-6.46281 -0.5551,-0.52342 -1.2058,-0.94868 -1.7107,-1.52066 -0.8142,-0.92229 -2.2628,-1.82314 -2.0909,-3.04132 z"
           id="path11041-3-5"
           inkscape:connector-curvature="0"
           sodipodi:nodetypes="aassssssaaaaaaaa" />
        <path
           style="color:#000000;fill:#ffffff;fill-opacity:1;fill-rule:nonzero;stroke:#4d4d4d;stroke-width:4.15467123;stroke-linecap:butt;stroke-linejoin:miter;stroke-miterlimit:4;stroke-opacity:1;stroke-dasharray:none;stroke-dashoffset:0;marker:none;visibility:visible;display:inline;overflow:visible;enable-background:accumulate"
           d="m -208.74325,316.36613 c 4.6785,-7.95117 14.4169,-11.5455 22.0496,-16.72725 5.2684,-3.5766 10.49468,-7.37506 16.34708,-9.88429 5.3118,-2.27742 10.9485,-4.47702 16.7273,-4.56198 11.3401,-0.16673 31.9338,4.94214 33.0743,7.98346 1.1405,3.04132 3.4215,18.24792 0.7603,20.90907 -2.6611,2.66116 -23.19,8.7438 -23.19,8.7438 0,0 -5.2766,3.96426 -8.3636,4.94214 -3.0298,0.95974 -6.57,1.98142 -9.5042,0.76033 -3.9847,-1.65825 -4.479,-8.00337 -8.3636,-9.88429 -3.4235,-1.65769 -7.7228,-1.3343 -11.40488,-0.38016 -4.2917,1.11209 -7.1488,5.60192 -11.405,6.84297 -4.5029,1.31298 -9.756,2.23034 -14.0661,0.38016 -1.5666,-0.6725 -2.9251,-2.17066 -3.4215,-3.80165 -0.5218,-1.71446 -0.1485,-3.77774 0.7603,-5.32231 z"
           id="path11039-8-1"
           inkscape:connector-curvature="0"
           sodipodi:nodetypes="aaaasscaaaaaaaa" />
        <path
           style="color:#000000;fill:#ffffff;fill-opacity:1;fill-rule:nonzero;stroke:#4d4d4d;stroke-width:4.15467123;stroke-linecap:butt;stroke-linejoin:miter;stroke-miterlimit:4;stroke-opacity:1;stroke-dasharray:none;stroke-dashoffset:0;marker:none;visibility:visible;display:inline;overflow:visible;enable-background:accumulate"
           d="m -148.42317,47.549918 c 2.9857,-3.51868 11.4685,-3.06307 15.7937,-4.74131 7.9377,-3.07991 12.6943,-6.98103 20.2278,-10.85009 7.4364,-3.81919 13.816398,-9.6221 21.505398,-12.90322 5.6381,-2.40595 11.6148,-4.65404 17.7419,-4.83871 12.261,-0.36954 36.0215,7.52688 36.0215,7.52688 0,0 0.5377,11.29032 -5.3763,13.44086 -5.914,2.15054 -11.7512,2.9511 -17.7419,3.76344 -5.8711,0.79612 -11.8515,0.43802 -17.742,1.07527 -5.7706,0.62429 -11.6197,1.10622 -17.2043,2.68817 -5.796198,1.64189 -11.041198,4.83378 -16.666598,6.98925 -4.0752,1.56146 -8.0625,3.57407 -12.3656,4.30107 -6.1848,1.04491 -12.6258,1.00472 -18.8172,0 -2.2376,-0.36311 -5.3608,-0.16338 -6.4516,-2.15053 -0.7112,-1.29546 0.1191,-3.17426 1.0752,-4.30108 z"
           id="path11029-8-7"
           inkscape:connector-curvature="0"
           sodipodi:nodetypes="sssaacsaaaaaaas" />
        <path
           style="color:#000000;fill:#ffffff;fill-opacity:1;fill-rule:nonzero;stroke:#4d4d4d;stroke-width:4.15467123;stroke-linecap:butt;stroke-linejoin:miter;stroke-miterlimit:4;stroke-opacity:1;stroke-dasharray:none;stroke-dashoffset:0;marker:none;visibility:visible;display:inline;overflow:visible;enable-background:accumulate"
           d="m -173.69197,102.38863 c 0.7235,-3.323262 6.3907,-1.60462 10.257,-1.95121 4.193,-0.37589 6.7031,-2.712032 10.1731,-3.962772 8.4566,-3.04815 16.5646,-6.99604 24.7312,-10.75269 6.335,-2.91413 12.2964,-6.6693 18.8172,-9.13978 7.4816,-2.83448 15.119298,-6.60922 23.118298,-6.45162 11.106,0.21882 30.1075,8.06452 31.7204,10.21506 1.6129,2.15054 -2.6882,8.60215 -7.5269,11.82796 -4.8387,3.2258 -13.8494,6.40824 -20.9677,9.139782 -5.8201,2.23337 -11.5886,4.91542 -17.741898,5.91398 -5.8377,0.94732 -11.8385,-0.35294 -17.742,0 -4.5044,0.2693 -8.994,0.84612 -13.4408,1.6129 -5.6126,0.96781 -10.9821,3.41303 -16.6667,3.76344 -4.481,0.27622 -9.1928,0.22926 -13.4027,-1.33058 -2.0512,-0.76004 -3.649,-2.42117 -5.3763,-3.76344 -2.0667,-1.60597 -6.5089,-2.5636 -5.9522,-5.12103 z"
           id="path11031-5-1"
           inkscape:connector-curvature="0"
           sodipodi:nodetypes="sssaaassaaaaaaas" />
        <path
           style="color:#000000;fill:#ffffff;fill-opacity:1;fill-rule:nonzero;stroke:#4d4d4d;stroke-width:4.15467123;stroke-linecap:butt;stroke-linejoin:miter;stroke-miterlimit:4;stroke-opacity:1;stroke-dasharray:none;stroke-dashoffset:0;marker:none;visibility:visible;display:inline;overflow:visible;enable-background:accumulate"
           d="m -165.97237,605.42198 c 6.5245,-2.9601 13.2313,-5.5467 19.5762,-8.8743 7.1981,-3.775 13.7238,-8.74595 20.9091,-12.54544 1.6039,-0.84815 3.2496,-1.62731 4.9421,-2.28099 8.9513,-3.45713 18.6823,-12.51184 27.460898,-8.63709 5.716,2.52299 3.0478,13.05749 7.8944,17.00072 4.7449,3.8604 15.7261,-1.54788 17.8678,4.1818 0.9851,2.6356 -2.6122,5.2656 -4.9421,6.843 -5.1919,3.515 -12.0654,3.5197 -18.248,4.562 -7.0255,1.1844 -14.181198,1.4144 -21.289198,1.9008 -5.3159,0.3637 -10.7712,-0.4209 -15.9669,0.7603 -6.0359,1.3723 -11.1519,5.5359 -17.1074,7.2232 -4.811,1.363 -9.938,3.3324 -14.8265,2.2809 -2.9552,-0.6356 -5.3721,-2.9027 -7.6033,-4.9421 -1.5839,-1.4478 -4.4867,-2.9766 -3.9782,-5.0614 0.4607,-1.8889 3.5405,-1.6082 5.3111,-2.4114 z"
           id="path11049-7-1"
           inkscape:connector-curvature="0"
           sodipodi:nodetypes="aaaaaaaaaaaaaaaa" />
        <path
           style="color:#000000;fill:#ffffff;fill-opacity:1;fill-rule:nonzero;stroke:#4d4d4d;stroke-width:4.15467123;stroke-linecap:butt;stroke-linejoin:miter;stroke-miterlimit:4;stroke-opacity:1;stroke-dasharray:none;stroke-dashoffset:0;marker:none;visibility:visible;display:inline;overflow:visible;enable-background:accumulate"
           d="m -16.379772,794.99378 c -7.9848,-7.1513 -21.6352,-2.2335 -32.1566,-0.1845 -7.3489,1.4312 -13.9876,5.3788 -20.7707,8.5481 -6.8264,3.1897 -13.2399,7.2073 -20.0103,10.5142 -4.6483,2.2703 -12.652498,1.4428 -14.139298,6.3976 -0.7542,2.5136 2.168,4.999 4.200898,6.6585 2.8927,2.3612 6.7453,3.9763 10.4793,3.9591 8.8954,-0.041 16.3304,-7.1917 24.8761,-9.6616 12.5741,-3.6343 25.7252,-4.8531 38.5429,-7.5032 3.6352,-0.7515 8.7224,0.6405 10.8785,-2.3811 3.1864,-4.4655 2.1856,-12.6872 -1.9008,-16.3471 z"
           id="path11057-7-5"
           inkscape:connector-curvature="0"
           sodipodi:nodetypes="aaaaaaaaaaa" />
        <path
           style="color:#000000;fill:#ffffff;fill-opacity:1;fill-rule:nonzero;stroke:#4d4d4d;stroke-width:4.15467123;stroke-linecap:butt;stroke-linejoin:miter;stroke-miterlimit:4;stroke-opacity:1;stroke-dasharray:none;stroke-dashoffset:0;marker:none;visibility:visible;display:inline;overflow:visible;enable-background:accumulate"
           d="m -101.91687,862.28298 c 0.9592,-4.0307 7.691798,-3.1039 11.404898,-4.9422 6.5081,-3.2219 12.8387,-6.8142 19.0083,-10.6446 7.0474,-4.3753 12.6198,-11.5647 20.5289,-14.0661 10.1499,-3.21 22.3409,-4.9953 31.9338,-0.3801 9.8452003,4.7365 23.5703003,22.4297 20.1488003,25.8512 -3.4215,3.4215 -17.7465003,0.9264 -26.6116003,1.5206 -6.5942,0.442 -13.3211,0.068 -19.7685,1.5207 -5.6938,1.2827 -10.6519,4.9967 -16.3471,6.2727 -7.4825,1.6765 -15.2782,2.0109 -22.9404,1.7108 -4.506,-0.1765 -9.4452,0.1607 -13.371,-2.0583 -1.8071,-1.0215 -4.466698,-2.7653 -3.986098,-4.7847 z"
           id="path11059-0-2"
           inkscape:connector-curvature="0"
           sodipodi:nodetypes="aaaaasaaaaaa" />
        <path
           style="color:#000000;fill:#ffffff;fill-opacity:1;fill-rule:nonzero;stroke:#4d4d4d;stroke-width:4.15467123;stroke-linecap:butt;stroke-linejoin:miter;stroke-miterlimit:4;stroke-opacity:1;stroke-dasharray:none;stroke-dashoffset:0;marker:none;visibility:visible;display:inline;overflow:visible;enable-background:accumulate"
           d="m -176.17157,549.96397 c 2.1519,-6.3681 11.0058,-7.95513 15.3291,-13.10218 4.1655,-4.95915 5.5585,-11.90732 9.8843,-16.72726 4.596,-5.12101 9.8667,-10.66621 16.5372,-12.35536 4.6559,-1.17902 9.886,0.0985 14.2562,2.09091 9.7299,4.43614 23.570198,17.48759 24.330498,20.90907 0.7604,3.42148 -1.9008,11.78511 -5.702398,13.30577 -3.8017,1.52066 -13.754,4.63396 -20.9091,4.94215 -4.3509,0.1874 -8.5969,-2.37703 -12.9256,-1.90083 -5.9894,0.65888 -11.4353,3.88389 -16.8847,6.4549 -5.3799,2.53816 -9.6004,9.4227 -15.5176,8.81296 -3.1197,-0.32146 -5.4753,-3.51174 -7.0617,-6.21703 -1.0716,-1.82735 -2.0144,-4.2062 -1.3362,-6.2131 z"
           id="path11047-8-7"
           inkscape:connector-curvature="0"
           sodipodi:nodetypes="aaaaassaaaaaa" />
        <path
           style="color:#000000;fill:#ffffff;fill-opacity:1;fill-rule:nonzero;stroke:#4d4d4d;stroke-width:4.15467123;stroke-linecap:butt;stroke-linejoin:miter;stroke-miterlimit:4;stroke-opacity:1;stroke-dasharray:none;stroke-dashoffset:0;marker:none;visibility:visible;display:inline;overflow:visible;enable-background:accumulate"
           d="m -49.467172,43.774628 -5.3125,17.5 c 0,0 -6.7301,24.39289 -12.1562,35.75 -2.4543,5.136962 -7.353,9.027162 -9.125,14.437502 -2.2913,6.99579 0.406,14.92927 -1.5313,22.03125 -2.8344,10.39074 -10.0915,19.05162 -14.4375,28.90625 -5.6975,12.91929 -10.553098,26.20451 -15.218698,39.53125 -2.0856,5.95721 -4.2507,11.91345 -5.7047,18.05544 -4.9822,21.04719 -6.28,42.81082 -10.2641,64.06956 -3.591,19.16142 -9.59,37.87222 -12.2869,57.17977 -2.0309,14.53913 -2.5147,29.27002 -2.9006,43.94523 -0.4928,18.74519 -1.2221,37.60232 0.75,56.25 1.2234,11.56763 4.359,22.8551 6.8438,34.21875 3.2841,15.01944 4.9449,30.60092 10.6562,44.875 3.9244,9.80806 11.4706,17.81647 15.9688,27.375 7.520798,15.98157 12.497198,36.42159 18.249998,49.74635 2.9528,6.8394 12.2745,15.4747 15.9151,24.5861 5.3039,13.2739 4.5849,16.1363 4.5849,16.1363 0,0 6.3847,17.7875 9.924,26.5464 3.458,8.5575 11.0447,25.3911 11.0447,25.3911 l 8.2124,17.4489 1.2564,20.3324 c 0,0 7.5744,14.2566 9.125,22.0625 0.6413,3.2285 0,6.5833 0,9.875 0,7.0937 -0.6076,14.2135 0,21.2812 0.5071,5.8984 2.7824,11.585 3.0312,17.5 0.2457,5.8401 -1.2758,11.6291 -1.5312,17.4688 -0.1776,4.0586 -0.2901,8.1353 0,12.1875 0.5117,7.1485 2.6598,14.1257 3.0625,21.2812 0.9403,16.7105 -0.8196,33.4657 -1.5313,50.1875 -0.7877,18.5108 -3.0312,55.5 -3.0312,55.5 l -2.2813,5.3125 c 0,0 15.3589,-10.8168 19.0000003,-19 1.9591,-4.4028 0.2138,-9.6484 0.75,-14.4375 0.8305,-7.4168 3.1957,-14.6249 3.8125,-22.0625 0.3991,-4.8124 -0.5391,-9.6794 -0.082,-14.4866 1.0026,-10.5332 4.36329997,-20.7118 6.1638,-31.1384 1.1772,-6.817 3.7299,-13.6487 3.0313,-20.5312 -0.5989,-5.9 -3.93420003,-11.1913 -6.0822,-16.7188 -4.0751,-10.4869 -12.3025003,-19.9529 -12.9062003,-31.1875 -0.2406,-4.4765 3.1446,-8.4688 3.7812,-12.9062 0.6125,-4.2688 1.0973003,-8.767 0,-12.9375 -1.7018,-6.4688 -8.4842,-10.9261 -9.875,-17.4688 -1.1118,-5.2305 1.5313,-15.9687 1.5313,-15.9687 l 0,-16.75 -3.8438,-7.875 -16.2795,-44.5047 -14.3767,-27.9953 c 0,0 -5.1339,-34.2759 -16.7822,-60.38851 -1.348,-3.02201 -14.4529,-11.76947 -15.6241,-14.33029 -6.0826,-13.29965 -16.402898,-25.90726 -21.719398,-39.53125 -1.4395,-3.68894 1.4522,-12.23672 0.094,-15.96684 -4.9132,-13.49086 -10.7736,-22.41822 -13.3742,-36.50191 -0.9819,-5.31732 -0.1834,-10.66456 -0.8549,-16.03304 -1.8137,-14.49846 -6.1342,-31.30239 -6.8168,-45.93997 -0.2522,-5.40795 2.3134,-8.66321 2.3592,-14.05824 0.149,-17.55495 7.0751,-32.74433 9.9388,-49.24294 2.9531,-17.01334 3.6876,-34.41283 7.463,-51.26277 4.3359,-19.35106 14.404898,-37.29251 17.369298,-56.90054 2.5756,-17.0357 -3.9591,-34.96714 0.1976,-51.6875 4.0761,-16.3959 18.3121,-28.81659 23.5625,-44.875 3.7413,-11.44266 1.6284,-24.26766 5.3438,-35.71875 4.4084,-13.587272 19.75,-38.031252 19.75,-38.031252 z"
           id="path11104-9-6"
           inkscape:connector-curvature="0"
           sodipodi:nodetypes="ccaaaaaaaaaaaaasscscccaaaaaaaaccsaaaaaaaaaacccccssssssssaaaaaacc" />
        <path
           style="color:#000000;fill:#ffffff;fill-opacity:1;fill-rule:nonzero;stroke:#4d4d4d;stroke-width:4.15467123;stroke-linecap:butt;stroke-linejoin:miter;stroke-miterlimit:4;stroke-opacity:1;stroke-dasharray:none;stroke-dashoffset:0;marker:none;visibility:visible;display:inline;overflow:visible;enable-background:accumulate"
           d="m -126.64897,-18.310292 c 7.0467,-1.19418 14.3379,-1.08868 21.2366,-2.95699 9.540598,-2.58382 18.183498,-7.76913 27.419298,-11.29033 6.5671,-2.50374 12.9644,-5.80754 19.8925,-6.98924 7.5964,-1.29568 13.4409,-1.61291 23.1183,0 9.6774,1.6129 28.4946003,4.30107 28.4946003,4.30107 0,0 6.98929997,5.37635 6.98929997,7.52688 0,2.15054 1.07520003,6.98925 -0.5377,9.13979 -1.61289997,2.15054 -14.51610027,17.2043004 -14.51610027,17.2043004 0,0 -12.9032,4.83871 -17.7419,4.83871 -4.8388,0 -13.1992,-0.55878 -19.3549,-2.68816998 -4.7058,-1.62784 -8.1366,-6.08673002 -12.9032,-7.52688002 -5.8429,-1.76534 -12.1786,-1.25754 -18.2796,-1.07527 -7.5766,0.22636 -15.002,2.83261 -22.580598,2.68817 -6.8932,-0.13137 -14.3939,0.10543 -20.4301,-3.22581 -3.3358,-1.8409604 -8.7518,-4.9943104 -7.5269,-8.6021504 0.7344,-2.16324 4.468,-0.96237 6.7204,-1.34408 z"
           id="path11027-3-1"
           inkscape:connector-curvature="0"
           sodipodi:nodetypes="aaaascsscsaaaaaaa" />
        <path
           style="color:#000000;fill:#ffffff;fill-opacity:1;fill-rule:nonzero;stroke:#4d4d4d;stroke-width:0.92824537;stroke-linecap:butt;stroke-linejoin:miter;stroke-miterlimit:4;stroke-opacity:1;stroke-dasharray:none;stroke-dashoffset:0;marker:none;visibility:visible;display:inline;overflow:visible;enable-background:accumulate"
           d="M 115.46875 13.03125 L 121.0625 36.15625 L 122.3125 47.5 L 120.53125 58.90625 L 119.09375 72.125 L 115.71875 81.71875 L 111.625 91.34375 L 106.84375 94.6875 L 106.59375 98.3125 L 105.375 108.875 L 102.03125 118.96875 L 99.875 123.78125 L 97.6875 130.25 L 97.6875 135.0625 L 95.3125 141.0625 L 93.84375 150.1875 C 93.84375 150.1875 92.1875 154.50583 92.1875 156.1875 C 92.1875 157.86917 91.46875 162.4375 91.46875 162.4375 L 90 166.53125 C 90 166.53125 89.78125 171.57809 89.78125 173.5 C 89.78125 175.42191 89.53125 178.78125 89.53125 178.78125 L 90.71875 183.59375 L 90.71875 189.59375 L 93.84375 193.6875 L 94.8125 198.96875 L 96.03125 206.40625 L 97.9375 210.96875 L 99.875 214.34375 L 104.1875 217.6875 L 104.1875 219.875 L 106.59375 230.3125 C 106.59375 230.3125 108.49803 232.11132 109.21875 233.3125 C 109.93947 234.51371 109.46676 235.47654 110.1875 236.4375 C 110.90822 237.39846 113.5625 244.59375 113.5625 244.59375 L 116.84375 251.5 C 116.84375 251.5 117.57225 258.47654 117.8125 259.4375 C 118.05272 260.39846 119.46875 271.21875 119.46875 271.21875 L 117.40625 292.65625 L 113.90625 296.03125 L 114.125 296.28125 C 114.79857 296.14994 115.84375 296.25 115.84375 296.25 C 115.84375 296.25 120.56061 299.35632 123.21875 300.21875 C 126.33198 301.22882 129.69801 301.40986 132.96875 301.53125 C 134.08887 301.5728 135.67999 301.48686 137.0625 301.375 L 137.1875 301.375 L 139.75 300.9375 C 139.75 300.9375 141.15728 300.41472 141.65625 299.875 C 142.27037 299.2107 142.96208 298.29846 142.8125 297.40625 C 142.56901 295.95401 140.3506 294.93947 139.75 294.21875 C 139.1494 293.49803 138.0625 290.5 138.0625 290.5 L 141.4375 288.9375 C 141.4375 288.9375 142.74722 287.7408 143.21875 287 C 143.56608 286.45429 144.12937 285.83649 143.9375 285.21875 C 143.50929 283.84006 140.34375 282.8125 140.34375 282.8125 L 140.71875 277.65625 C 140.71875 277.65625 141.31542 277.39844 142.15625 276.4375 C 142.99708 275.47654 143.28125 274.53125 143.28125 274.53125 C 143.28125 274.53125 144.56224 272.53878 144.3125 271.5 C 144.00693 270.22893 142.26172 268.62011 141.78125 268.5 C 141.30078 268.37989 139.25 266 139.25 266 L 140.46875 262.375 C 140.46875 262.375 142.24662 260.85608 142.5 260.21875 C 142.75338 259.58142 142.6982 259.15796 142.5 258.6875 C 142.27191 258.14606 141.25 257.46875 141.25 257.46875 L 139.03125 254.6875 L 138.0625 251.8125 L 140.21875 249.53125 L 140.8125 247.5 C 140.8125 247.5 140.76644 245.99454 140.34375 245.4375 C 138.98963 243.65303 134.94922 242.21875 134.46875 242.21875 C 133.98828 242.21875 134.6875 238.59375 134.6875 238.59375 L 135.78125 237.09375 C 135.78125 237.09375 136.2129 235.15832 136.3125 234.59375 C 136.48004 233.64412 135.53125 232.6006 135.53125 232 C 135.53125 231.39942 133.96875 231.40625 133.96875 231.40625 L 130.125 228.15625 L 131.8125 225.875 L 132.0625 224.3125 C 132.0625 224.3125 132.22577 222.32608 131.6875 221.59375 C 130.92896 220.56172 128.21875 219.96875 128.21875 219.96875 L 126.0625 218.78125 L 125.09375 215.78125 L 126.65625 213.125 C 126.65625 213.125 127.33876 210.72379 126.875 209.65625 C 126.54612 208.89916 124.0625 208.09375 124.0625 208.09375 L 121.375 206.90625 L 120.03125 204.84375 L 121.71875 201.5 L 121.84375 199.8125 C 121.84375 199.8125 121.88362 198.47747 121.5 198 C 120.81503 197.14747 118.46875 196.6875 118.46875 196.6875 L 116.5625 193.0625 L 115.59375 192.59375 C 115.59375 192.59375 116.42576 190.0762 116.90625 188.875 C 117.38672 187.67381 117.67251 186.88588 117.28125 186 C 116.94464 185.23785 115.25 184.5625 115.25 184.5625 L 112.59375 182.03125 L 112.34375 179.96875 L 112 176.96875 L 113.4375 175.53125 C 113.4375 175.53125 113.62806 173.91385 112.71875 173.375 C 112.09871 173.00758 112.34375 172.78125 112.34375 172.78125 L 110.90625 171.34375 L 109.84375 166.15625 C 109.84375 166.15625 110.55567 165.6875 111.15625 165.6875 C 111.75685 165.6875 111.46875 164.5 111.46875 164.5 C 111.46875 164.5 112.11662 163.72725 112.34375 163.28125 C 112.59088 162.79595 112.97921 162.24623 112.84375 161.71875 C 112.62189 160.85483 110.90625 159.875 110.90625 159.875 L 111.28125 157.40625 L 111.28125 153.3125 C 111.28125 153.3125 113.20214 152.78322 113.5625 152.0625 C 113.92286 151.34178 114.3965 151.02345 114.15625 150.0625 C 113.916 149.10154 112.34375 147.0625 112.34375 147.0625 C 112.34375 147.0625 112.25 144.4131 112.25 143.8125 C 112.25 143.2119 112.59375 140.71875 112.59375 140.71875 L 115.125 139.5 L 116.125 138.125 C 116.125 138.125 117.34375 136.01173 117.34375 135.53125 C 117.34375 135.05077 115.71875 133.5 115.71875 133.5 L 116.3125 128.5625 C 116.3125 128.5625 117.73682 127.5882 118.46875 127.125 C 118.86334 126.8753 119.37951 126.75722 119.6875 126.40625 C 120.34983 125.65146 121.11974 124.63016 120.875 123.65625 C 120.63878 122.71621 118.59375 121.84375 118.59375 121.84375 L 120.75 117.875 L 122.5625 116.4375 C 122.5625 116.4375 124.54103 114.69435 124.78125 114.09375 C 124.93199 113.71693 125.0301 113.52594 125.09375 113.21875 C 125.20055 112.70322 124.99497 112.34109 125.21875 111.625 C 125.81933 109.70309 123.78125 108.87697 123.78125 108.15625 C 123.78125 107.43553 125.07714 105.62697 125.4375 104.90625 C 125.79786 104.18553 126.78125 103.84375 126.78125 103.84375 L 128.09375 102.5 C 128.69433 101.8994 128.625 101.03322 128.625 100.3125 C 128.625 99.591783 128.08888 97.949226 127.96875 97.46875 C 127.84864 96.988272 126.875 94.59375 126.875 94.59375 C 126.875 94.59375 127.60657 92.46718 128.4375 91.8125 C 129.12439 91.271296 130.20541 91.520379 130.96875 91.09375 C 131.52538 90.782659 132.11319 90.393929 132.375 89.8125 C 132.62575 89.255663 132.40625 87.96875 132.40625 87.96875 L 131.21875 86.53125 L 131.6875 80.75 C 131.6875 80.75 134.20484 79.132343 135.1875 78.03125 C 135.49272 77.689251 135.72543 77.296215 135.90625 76.875 C 136.10644 76.408696 136.30755 75.881773 136.28125 75.375 C 136.20969 73.995554 134.8125 72.131847 134.8125 71.53125 C 134.8125 70.930651 135.1875 68.40625 135.1875 68.40625 L 138.0625 66.46875 C 138.0625 66.46875 139.60281 65.112295 139.96875 64.1875 C 140.31177 63.320633 140.24513 61.886726 140.125 61.40625 C 140.00489 60.925772 139.25 60.46875 139.25 60.46875 L 137.8125 58.65625 L 138.625 53.21875 L 140.6875 53.21875 C 140.6875 53.21875 141.37989 52.574228 141.5 52.09375 C 141.62011 51.613274 141.6631 50.855478 141.0625 50.375 C 140.4619 49.894522 139.625 48.5625 139.625 48.5625 L 137.8125 46.90625 L 138.90625 41.25 C 138.90625 41.25 140.73886 41.034587 141.3125 40.40625 C 141.6464 40.040479 141.78074 39.448124 141.65625 38.96875 C 141.43551 38.118808 140.35549 37.271473 139.875 37.03125 C 139.39453 36.791004 137.59375 35.375 137.59375 35.375 L 136.96875 32.84375 L 137.90625 30.15625 L 138.53125 27 C 138.53125 27 138.82714 27.126965 139.1875 26.40625 C 139.54786 25.685535 138.9375 25.1875 138.9375 25.1875 L 137.09375 24.65625 L 135.125 21.71875 C 135.125 21.71875 134.78125 19.652258 134.78125 19.3125 C 134.78125 18.972742 134.875 18.46875 134.875 18.46875 C 134.875 18.46875 136.04886 16.853376 136.21875 16.34375 C 136.38862 15.834124 136.06729 15.594549 135.8125 15 C 135.55769 14.405429 135.12099 14.133805 134.78125 14.21875 L 115.46875 13.03125 z "
           id="path11079-0-4"
           transform="matrix(4.475833,0,0,4.475833,-534.90187,-379.53381)" />
        <path
           style="color:#000000;fill:#ffffff;fill-opacity:1;fill-rule:nonzero;stroke:#4d4d4d;stroke-width:4.15467119;stroke-linecap:butt;stroke-linejoin:miter;stroke-miterlimit:4;stroke-opacity:1;stroke-dasharray:none;stroke-dashoffset:0;marker:none;visibility:visible;display:inline;overflow:visible;enable-background:accumulate"
           d="m 57.490828,1021.7435 c 5.449951,5.3977 11.6924,10.9575 13.9785,18.2795 2.2458,7.193 1.8798,15.6489 -1.0753,22.5807 -3.6788,8.6294 -11.1445,15.8923 -19.3548,20.4301 -14.396,7.9565 -32.1836,6.8496 -48.3870997,9.6774 -23.9188003,4.1743 -72.0430003,10.7527 -72.0430003,10.7527 0,0 21.6247,-59.5798 43.0107,-81.7204 13.6006,-17.4028 38.93361,-9.973 38.93361,-33.05614 -0.5631,13.64304 33.714519,21.94084 44.93739,33.05614 z"
           id="path11137-7-2"
           inkscape:connector-curvature="0"
           sodipodi:nodetypes="saaaacccs" />
        <path
           style="color:#000000;fill:#ffffff;fill-opacity:1;fill-rule:nonzero;stroke:#4d4d4d;stroke-width:0.92824537;stroke-linecap:butt;stroke-linejoin:miter;stroke-miterlimit:4;stroke-opacity:1;stroke-dasharray:none;stroke-dashoffset:0;marker:none;visibility:visible;display:inline;overflow:visible;enable-background:accumulate"
           d="M 112.15625 297.46875 C 111.63289 297.49071 110.54425 297.55261 109.90625 297.875 C 108.9637 298.35129 108.39277 299.36866 107.625 300.09375 C 106.85328 300.82258 105.99528 301.43331 105.28125 302.21875 C 104.16128 303.45074 103.38107 304.96873 102.28125 306.21875 C 101.24249 307.3994 99.927959 307.63701 98.90625 309.5 C 97.616032 311.85252 98.493362 314.39799 96.75 316.4375 C 95.221927 318.2251 91.925302 317.07019 89.96875 318.375 C 87.496495 320.02379 85.401685 322.5438 84.40625 325.34375 C 83.192331 328.75829 84.718614 332.61768 84.3125 336.21875 C 84.12525 337.87902 83.444846 339.46562 83.25 341.125 C 83.024031 343.04942 82.731956 345.04015 83.125 346.9375 C 83.502271 348.75866 84.525022 350.37941 85.4375 352 C 86.116949 353.20677 87.160181 354.19967 87.78125 355.4375 C 88.588251 357.04592 88.791902 358.89064 89.53125 360.53125 C 90.496456 362.673 91.742916 364.70293 93 366.6875 C 93.644707 367.7053 95.09375 369.625 95.09375 369.625 C 95.09375 369.625 96.079292 367.17708 96.3125 365.875 C 96.543965 364.58273 96.728724 363.22432 96.46875 361.9375 C 96.261705 360.91275 95.114895 360.13838 95.15625 359.09375 C 95.196198 358.08489 96.263206 357.36752 96.65625 356.4375 C 97.083254 355.42707 97.064939 354.25888 97.5625 353.28125 C 98.372092 351.69057 100.42314 350.79708 100.84375 349.0625 C 101.0386 348.25901 100.58389 346.98695 100.40625 346.5 C 99.056563 344.91528 94.976504 339.90335 94.96875 337.0625 C 94.95959 333.68999 97.625927 330.69207 100.0625 328.375 C 102.27709 326.26905 105.67833 325.86957 108.1875 324.125 C 110.30224 322.65468 112.16599 320.83632 113.90625 318.9375 C 115.56414 317.12856 117.49242 313.80889 118.375 313.0625 C 119.25756 312.31611 120.08482 311.92381 121.53125 311.8125 C 121.55717 311.8105 121.59686 311.81251 121.625 311.8125 C 118.94846 310.00451 116.32106 308.08139 114.09375 305.75 C 113.47963 305.10717 112.86406 304.41813 112.53125 303.59375 C 111.84235 301.88723 111.10147 299.84725 111.75 298.125 C 111.84147 297.8821 111.98566 297.67043 112.15625 297.46875 z "
           id="path49921-4-3"
           transform="matrix(4.475833,0,0,4.475833,-534.90187,-379.53381)" />
        <path
           style="color:#000000;fill:#ffffff;fill-opacity:1;fill-rule:nonzero;stroke:#4d4d4d;stroke-width:4.15467123;stroke-linecap:butt;stroke-linejoin:miter;stroke-miterlimit:4;stroke-opacity:1;stroke-dasharray:none;stroke-dashoffset:0;marker:none;visibility:visible;display:inline;overflow:visible;enable-background:accumulate"
           d="m -29.886472,898.72098 c -3.0505,0.085 -6.302,-0.041 -9.07,1.2438 -3.0928,1.4356 -6.5189,3.6103 -7.6033,6.843 -0.9021,2.6894 0.3173,5.8323 1.6129,8.3558 1.7163,3.3428 4.6025,6.1337 7.7496,8.187 3.4836,2.2729 7.9445,2.5222 11.7502,4.2009 4.1703,1.8396 8.7761,3.2664 12.0809,6.4055 2.2277,2.1159 2.6965,5.6079 4.7307003,7.9104 3.257,3.6866 7.2328,6.8834 11.6355,9.0778 10.5971997,5.2818 22.5779997,7.5885 34.3070997,9.2083 8.0855,1.1166 16.3751,1.2241 24.4848,0.2997 11.2716,-1.2848 22.9426,-2.9413 33.0645,-8.0646 3.2347,-1.6373 6.675802,-3.7649 8.333302,-6.9892 3.2049,-6.2344 1.8007,-13.9604 1.6129,-20.9677 -0.1346,-5.0262 2.2775,-13.2136 -1.6916,-16.3001 -1.7303,-1.3454 -4.503602,1.5135 -6.798102,2.122 -4.0863,1.0836 -8.197,2.1631 -12.3881,2.7167 -7.1134,0.9395 -14.3371,1.3902 -21.5021,1.0061 -10.2173,-0.5476 -20.4955,-1.8921 -30.3335,-4.7043 -6.8355,-1.9539 -16.7789,-6.0126 -23.1333997,-9.4795 -4.8473,-2.6445 -6.0327,-5.0572 -11.4518,-5.2649 -2.0815,-0.08 -4.0426,4.8806 -5.9744,5.7566 -3.0554003,1.3856 -6.0376003,-0.9875 -9.3076003,-0.5838 -4.0189,0.4961 -8.0607,-1.0921 -12.1085,-0.9795 z"
           id="path49936-8-2"
           inkscape:connector-curvature="0"
           sodipodi:nodetypes="aaaaaaaaaaaaassaaasssssa" />
        <path
           style="color:#000000;fill:#ffffff;fill-opacity:1;fill-rule:nonzero;stroke:#4d4d4d;stroke-width:4.15467123;stroke-linecap:butt;stroke-linejoin:miter;stroke-miterlimit:4;stroke-opacity:1;stroke-dasharray:none;stroke-dashoffset:0;marker:none;visibility:visible;display:inline;overflow:visible;enable-background:accumulate"
           d="m -3.2618717,840.56058 c -3.7952,-1.7878 -7.7111003,-3.4939 -11.8279003,-4.3011 -2.288,-0.4485 -4.6594,-0.3558 -6.9893,-0.2687 -3.9652,0.1482 -8.6932,-1.0888 -11.828,1.344 -3.1815,2.4692 -4.039,7.2716 -4.301,11.2903 -0.2518,3.8605 1.1119,7.7574 2.6881,11.2904 1.1545,2.5877 2.7611,5.0625 4.8388,6.9893 2.2085,2.0482 5.1756,3.0839 7.7957,4.5699 2.7557,1.5628 5.3987,3.3763 8.3333,4.5698 3.1013,1.2614 6.7203003,1.1184 9.6774003,2.6882 4.88459997,2.5931 8.126,7.5499 12.6344,10.7526 4.9111997,3.4889 9.8495997,7.3168 15.5913997,9.1399 14.1424,4.4901 29.518,3.9564 44.3549,3.7635 8.1134,-0.1056 16.3228,-0.7155 24.1935,-2.6882 3.7445,-0.9386 8.602102,-3.2259 10.752702,-4.3012 2.1505,-1.0753 5.2043,-2.4569 6.1963,-5.3763 1.3862,-4.0794 -2.0934,-8.1784 -2.4329,-12.3656 -0.4959,-6.1161 0.8706,-12.2687 0.5973,-18.3988 -0.093,-2.0878 0.4057,-4.7349 -0.7603,-6.2233 -1.2353,-1.5767 -0.6405,-4.3592 -4.8933,-3.4875 -10.085102,2.067 -20.362702,5.9476 -31.426402,7.3375 -7.842,0.9852 -20.9235,-0.3567 -31.2592,-1.8086 -7.2762,-1.022 -14.4701,-2.719 -21.5054,-4.8387 -3.856,-1.1618 -7.6601997,-2.557 -11.2902997,-4.301 -3.186,-1.5305 -5.94220003,-3.87 -9.1398,-5.3764 z"
           id="path49938-3-1"
           inkscape:connector-curvature="0"
           sodipodi:nodetypes="aaaaaaaaaaaaaassaasssaaaa" />
        <path
           style="color:#000000;fill:#ffffff;fill-opacity:1;fill-rule:nonzero;stroke:#4d4d4d;stroke-width:4.15467123;stroke-linecap:butt;stroke-linejoin:miter;stroke-miterlimit:4;stroke-opacity:1;stroke-dasharray:none;stroke-dashoffset:0;marker:none;visibility:visible;display:inline;overflow:visible;enable-background:accumulate"
           d="m -34.667372,787.84548 c -3.0246,2.955 -5.9511,7.0652 -5.7835,11.2903 0.1505,3.7934 3.2459,7.0586 5.9792,9.6932 3.4342,3.3103 8.4513,5.7481 12.4466,7.0601 3.9953,1.312 8.3414,0.5378 10.845,1.2924 5.4660003,1.6474 5.1305003,6.1965 9.1110003,10.5932 2.89169997,3.1941 12.3169997,6.3077 16.0226997,8.17 9.9657,5.0081 21.3436,7.3001 32.4696,8.0803 16.282,1.1419 33.2442,0.1633 48.702,-5.0773 6.171002,-2.0921 13.483002,-4.5297 16.666702,-10.215 1.1383,-2.0327 0.4406,-4.7015 0,-6.9893 -0.9125,-4.7383 -4.0513,-8.8009 -5.3764,-13.4409 -1.3924,-4.8757 -2.6611,-11.2139 -2.6611,-14.9773 0,-3.7634 -0.5377,-6.7204 -5.376402,-4.5698 -4.8387,2.1505 -14.3418,4.8466 -19.7182,5.9219 -5.3763,1.0752 -22.3889,2.1004 -33.5234,1.0887 -10.0355,-0.9119 -23.0913,-2.6476 -29.5429,-6.411 -6.4515997,-3.7635 -16.6941997,-5.0209 -25.3069997,-6.0333 -5.1616003,-0.6068 -10.5253003,-1.1598 -15.5914003,0 -3.3786,0.7735 -6.8832,2.1017 -9.3625,4.5238 z"
           id="path49940-7-6"
           inkscape:connector-curvature="0"
           sodipodi:nodetypes="aaazsssaaaaasccasaaa" />
        <path
           style="color:#000000;fill:#ffffff;fill-opacity:1;fill-rule:nonzero;stroke:#4d4d4d;stroke-width:4.15467123;stroke-linecap:butt;stroke-linejoin:miter;stroke-miterlimit:4;stroke-opacity:1;stroke-dasharray:none;stroke-dashoffset:0;marker:none;visibility:visible;display:inline;overflow:visible;enable-background:accumulate"
           d="m -15.627472,729.80788 c -8.2737,-0.1352 -17.0157,-0.8401 -24.7312,2.1506 -3.576,1.3862 -7.4241,3.5591 -9.1397,6.9892 -1.4277,2.8544 -1.6043,6.7634 -0.092,9.574 3.1998,5.9478 10.8118,8.3292 17.0142,11.0025 5.5911,2.4098 12.0973,2.0576 17.7419,4.3392 4.414,1.7842 3.6142,7.7263 7.5982003,10.3822 3.0531,2.0354 6.1125,2.9169 13.8094,5.3779 7.6967997,2.4609 21.4379997,7.5581 32.6381997,8.2489 17.3053,1.0674 35.4377,-0.3728 51.6129,-6.4516 3.7248,-1.3998 9.677402,-5.3763 9.677402,-5.3763 0,0 -0.916502,-7.1959 -1.612902,-10.7527 -1.1694,-5.9718 -3.5791,-11.6996 -4.3011,-17.7419 -0.9567,-8.0075 3.7635,-21.5054 0,-24.1936 -3.7634,-2.6882 -22.9173,9.0181 -34.9462,11.2903 -14.4668,2.7328 -29.4884,4.603 -44.086,2.6882 -6.1809997,-0.8107 -11.6590997,-4.5499 -17.7419997,-5.914 -4.4031,-0.9873 -8.9290003,-1.5391 -13.4408003,-1.6129 z"
           id="path49942-1-8"
           inkscape:connector-curvature="0"
           sodipodi:nodetypes="aaaaasszascaasaaaa" />
        <path
           style="color:#000000;fill:#ffffff;fill-opacity:1;fill-rule:nonzero;stroke:#4d4d4d;stroke-width:4.15467123;stroke-linecap:butt;stroke-linejoin:miter;stroke-miterlimit:4;stroke-opacity:1;stroke-dasharray:none;stroke-dashoffset:0;marker:none;visibility:visible;display:inline;overflow:visible;enable-background:accumulate"
           d="m -45.349172,674.36918 c -4.389,1.6571 -9.2564,3.839 -11.6761,7.8581 -1.5966,2.652 -1.7876,6.2473 -0.9775,9.2349 1.3298,4.9036 5.0725,9.0993 9.042,12.2705 3.6679,2.9303 8.4151,4.2678 12.9032,5.6451 4.7045,1.4438 10.7527,0 14.5161,2.6882 3.7635,2.6882 11.8308003,8.9981 18.6057003,11.8606 6.4544,2.727 13.4942997,4.05 20.4571997,4.8331 14.3519,1.614 29.1419,2.3732 43.3257,-0.3475 8.3237,-1.5967 23.6964,-9.2185 23.6964,-9.2185 0,0 9.4086,-3.4946 6.1828,-8.871 -3.2258,-5.3763 -6.5455,-7.4075 -8.6888,-11.7954 -2.5178,-5.1546 -2.6188,-11.2053 -4.6542,-16.5687 -0.6937,-1.8278 -0.7882,-4.4495 -2.5594,-5.2769 -2.3526,-1.099 -2.2486,0.9226 -7.2409,2.2797 -4.9922,1.3571 -15.1496,4.465 -22.8538,5.2511 -13.6086,1.3886 -27.4236,-0.057 -41.0017997,-1.7163 -8.8963,-1.087 -20.4302003,-4.3011 -26.3441003,-5.3763 -5.914,-1.0753 -8.4139,-3.6425 -12.9033,-4.0323 -3.2917,-0.2859 -6.7381,0.1144 -9.8292,1.2816 z"
           id="path49944-0-5"
           inkscape:connector-curvature="0"
           sodipodi:nodetypes="aaaaasaaacsaaszsacaa" />
        <path
           style="color:#000000;fill:#ffffff;fill-opacity:1;fill-rule:nonzero;stroke:#4d4d4d;stroke-width:4.15467123;stroke-linecap:butt;stroke-linejoin:miter;stroke-miterlimit:4;stroke-opacity:1;stroke-dasharray:none;stroke-dashoffset:0;marker:none;visibility:visible;display:inline;overflow:visible;enable-background:accumulate"
           d="m -61.595172,620.39938 c -4.5272,0.6232 -9.464,2.7163 -12.0968,6.4516 -2.818,3.9982 -3.6148,9.8489 -2.1505,14.5161 1.2524,3.9919 4.8643,7.2603 8.6021,9.1398 4.8359,2.4316 10.8554,0.6623 16.129,1.8817 4.9977,1.1556 9.9094,2.8515 14.5162,5.1076 4.3081,2.1098 7.6477,6.0018 12.0968,7.7956 14.6521003,5.9078 30.7082003,8.9452 46.5053,9.1399 13.8169,0.1702 28.0046,-1.923 40.8602,-6.9893 3.4915,-1.3759 8.283,-2.6029 9.4086,-6.1829 1.5036,-4.782 -3.6097,-9.3555 -5.5799,-13.9649 -1.9759,-4.6227 -5.7183,-8.8844 -6.2559,-13.7231 -0.5377,-4.8387 0.8824,-14.8191 -3.6386,-16.2596 -1.898,-0.6047 -7.927,6.4148 -7.927,6.4148 0,0 -9.5823,5.8027 -14.936,7.1407 -16.3465,4.0854 -33.83609973,4.7126 -50.4994,2.2158 -7.1967,-1.0783 -16.5153,-7.0609 -20.5718,-7.3075 -8.2387,-0.5007 -16.1916,-6.5149 -24.4623,-5.3763 z"
           id="path49948-8-6"
           inkscape:connector-curvature="0"
           sodipodi:nodetypes="aaaaaaaaasasscaasa" />
        <path
           style="color:#000000;fill:#ffffff;fill-opacity:1;fill-rule:nonzero;stroke:#4d4d4d;stroke-width:4.15467123;stroke-linecap:butt;stroke-linejoin:miter;stroke-miterlimit:4;stroke-opacity:1;stroke-dasharray:none;stroke-dashoffset:0;marker:none;visibility:visible;display:inline;overflow:visible;enable-background:accumulate"
           d="m -83.638172,570.39935 c -3.3166,0.009 -6.9965,-1.78508 -9.9463,-0.26882 -3.4857,1.79176 -5.7266,5.91795 -6.581998,9.74269 -0.8265,3.69524 -0.475,8.15634 1.743298,11.22501 3.5871,4.96215 10.4552,6.71895 16.3518,8.36825 4.6475,1.3 10.6762,1.0483 14.4397,1.0483 3.7634,0 14.9067,11.3617 23.5096,14.777 12.0538,4.7855 25.2095,7.1179 38.1720003,7.527 12.2866,0.3877 27.9569997,-2.6882 36.5591997,-4.8387 4.8159,-1.2041 8.1706,-1.6359 11.9883,-3.235 1.6861,-0.7062 3.5326,-1.392 4.7324,-2.7713 1.1821,-1.359 2.7082,-3.3165 2.0583,-4.9962 -1.74,-4.4973 -4.6992,-7.6805 -6.9511,-11.5783 -1.846,-3.19521 -3.9295,-6.28264 -5.3763,-9.67735 -2.3348,-5.47813 0.6569,-15.99861 -5.2571,-17.07381 -5.914,-1.0753 -12.2262,6.68902 -18.9365,8.20284 -17.4924997,3.94623 -35.93,3.76113 -53.7634,1.88177 -9.5529,-1.00673 -18.638,-4.65954 -27.957,-6.9893 -2.1505,-0.53764 -4.2474,-1.37756 -6.4516,-1.6129 -2.7635,-0.29506 -5.5541,0.26156 -8.3333,0.26882 z"
           id="path49950-3-1"
           inkscape:connector-curvature="0"
           sodipodi:nodetypes="aaaaasaacaasaacaaaaa" />
        <path
           style="color:#000000;fill:#ffffff;fill-opacity:1;fill-rule:nonzero;stroke:#4d4d4d;stroke-width:4.15467123;stroke-linecap:butt;stroke-linejoin:miter;stroke-miterlimit:4;stroke-opacity:1;stroke-dasharray:none;stroke-dashoffset:0;marker:none;visibility:visible;display:inline;overflow:visible;enable-background:accumulate"
           d="m 10.657828,515.4173 c 1.1036,1.29524 0.4224,8.10839 1.2356,12.07023 0.8542,4.16173 1.9757,8.32918 3.8016,12.1653 2.201,4.62404 7.1969,10.05997 8.4913,12.80352 0.7851,1.66391 -0.038,2.70909 -2.53,4.90538 -2.2105,1.94778 -11.2788,5.97595 -13.3958997,6.84437 -11.3161,4.64183 -20.1142003,3.92355 -30.3130003,4.33923 -12.5211,0.51032 -25.275,0.35987 -37.525,-2.281 -10.733,-2.31383 -21.3717,-6.06709 -30.7811,-11.72517 -3.2652,-1.96345 -3.2258,-7.5269 -8.6021,-7.5269 -5.376398,0 -8.363798,1.54121 -12.365598,0.53767 -6.8206,-1.7104 -14.9749,-4.47813 -18.1491,-10.7527 -2,-3.95342 -1.2014,-9.581 1.317,-13.22611 2.69,-3.89329 8.0377,-5.59793 12.7155,-6.31327 8.9069,-1.36206 22.396198,3.1606 26.697198,4.2359 4.3011,1.0752 24.9682,4.95215 37.6344,5.62608 8.5081,0.45269 17.1039,0.13432 25.5377,-1.07527 9.9603,-1.42852 19.8408003,-3.82995 29.3011003,-7.25811 2.415,-0.87514 5.8269,-4.66439 6.9303997,-3.36915 z"
           id="path49952-4-8"
           inkscape:connector-curvature="0"
           sodipodi:nodetypes="zaasssaassaaaacaaaz" />
        <path
           style="color:#000000;fill:#ffffff;fill-opacity:1;fill-rule:nonzero;stroke:#4d4d4d;stroke-width:4.15467123;stroke-linecap:butt;stroke-linejoin:miter;stroke-miterlimit:4;stroke-opacity:1;stroke-dasharray:none;stroke-dashoffset:0;marker:none;visibility:visible;display:inline;overflow:visible;enable-background:accumulate"
           d="m -149.99787,467.98003 c 2.2288,-3.69639 6.6811,-5.73458 10.7145,-7.27162 4.1926,-1.59769 8.8778,-2.20841 13.343,-1.77034 2.6714,0.26209 7.6248,2.59036 7.6248,2.59036 0,0 6.4528,1.78768 9.6774,2.6881 5.1094,1.42675 10.203098,2.91044 15.322498,4.30111 8.8511,2.40434 17.4894,6.05016 26.613,6.98929 10.3534,1.06573 20.9956,0.52044 31.1827,-1.613 8.4378,-1.76707 22.0431,-8.6021 24.1936,-9.1397 2.1505003,-0.5377 2.1775003,3.76558 2.9053003,5.80255 1.8054,5.05321 1.2957,10.83147 3.5463,15.70275 2.0671,4.4739 6.9875,7.2738 8.871,11.828 1.22,2.94984 4.1961,6.70142 1.3441,9.48172 -2.2632,2.20621 -35.0499003,9.98791 -53.0414003,9.99237 -15.7444,0.004 -31.525,-3.62278 -46.421,-8.72139 -7.431398,-2.54364 -15.053798,-6.9893 -20.967698,-10.7527 -5.914,-3.7634 -7.9865,-2.63499 -11.8438,-4.29549 -6.2433,-2.68758 -13.5125,-4.24761 -18.2256,-9.14541 -3.0029,-3.12066 -4.6949,-7.55101 -5.3763,-11.8279 -0.2553,-1.60262 -0.3003,-3.44896 0.5376,-4.8387 z"
           id="path49954-5-9"
           inkscape:connector-curvature="0"
           sodipodi:nodetypes="aaacaaaacsaasaasaaaa" />
        <path
           style="color:#000000;fill:#ffffff;fill-opacity:1;fill-rule:nonzero;stroke:#4d4d4d;stroke-width:4.15467123;stroke-linecap:butt;stroke-linejoin:miter;stroke-miterlimit:4;stroke-opacity:1;stroke-dasharray:none;stroke-dashoffset:0;marker:none;visibility:visible;display:inline;overflow:visible;enable-background:accumulate"
           d="m -158.73607,410.3068 c -1.1943,2.50357 -1.4289,5.57672 -0.8143,8.28163 1.119,4.92489 3.8494,9.87856 7.853,12.95729 5.8557,4.50308 14.4842,3.30587 21.2659,6.23449 7.5394,3.25589 13.7242,9.18334 21.2556,12.45782 11.217898,4.87726 23.132698,8.28557 35.163398,10.49742 5.9376,1.09165 12.03,1.56758 18.0624,1.33058 8.9082,-0.34997 18.9095,-1.36322 26.4364,-4.05132 7.5268,-2.6882 14.5813,-4.904 14.5813,-7.5922 0,-2.6881 -6.6091,-9.32428 -7.6843,-13.62528 -1.0753,-4.3011 -1.9931,-13.53314 -1.9931,-15.68364 0,-2.1506 2.5307,-11.19806 -1.7704,-12.81096 -4.301,-1.613 -16.5473,7.12211 -25.361,8.38497 -13.2826,1.90317 -27.1881,1.75806 -40.2304,-1.39577 -9.818198,-2.37421 -17.454598,-11.2481 -27.419298,-12.9032 -4.8027,-0.79771 -9.6743,1.1038 -14.5161,1.61288 -3.2112,0.33762 -6.4253,0.64625 -9.6393,0.95603 -3.596,0.34662 -7.5161,-0.51552 -10.7909,1.01001 -1.867,0.86973 -3.512,2.48029 -4.3989,4.33925 z"
           id="path49956-0-2"
           inkscape:connector-curvature="0"
           sodipodi:nodetypes="aaaaaaacssscaaaaaaa" />
        <path
           style="color:#000000;fill:#ffffff;fill-opacity:1;fill-rule:nonzero;stroke:#4d4d4d;stroke-width:4.15467123;stroke-linecap:butt;stroke-linejoin:miter;stroke-miterlimit:4;stroke-opacity:1;stroke-dasharray:none;stroke-dashoffset:0;marker:none;visibility:visible;display:inline;overflow:visible;enable-background:accumulate"
           d="m -154.16287,344.88878 c -3.7492,1.03858 -8.2157,2.80019 -9.7865,6.35936 -1.5578,3.52978 0.1626,7.96672 1.8818,11.42079 1.4905,2.99468 4.4036,5.06306 6.9161,7.27152 2.5877,2.27467 5.3192,4.44934 8.3412,6.10408 4.1165,2.25405 13.1259,5.09398 13.1259,5.09398 0,0 6.2346,8.58075 8.9227,10.73125 2.6882,2.1506 6.2078,4.87187 9.7697,6.47865 6.772,3.05486 14.1754,4.70092 21.526798,5.77241 13.6906,1.99545 27.8192,3.26666 41.4901,1.14049 6.281,-0.97685 14.0793,-3.52743 18.0028,-6.28856 1.8507,-1.3024 2.5661,-3.20707 2.9053,-5.14807 1.0773,-6.16364 -2.6325,-13.04984 -3.1336,-18.50783 -0.501,-5.45799 -0.6126,-7.98136 -1.0233,-11.96219 -0.276,-2.67491 1.6988,-8.13741 -0.9681,-8.00904 -3.9828,0.19172 -2.7482,0.77471 -8.894,2.25957 -6.1458,1.48486 -22.3974,2.59791 -32.5865,1.27319 -10.1892,-1.32472 -18.4119,-6.00998 -27.761298,-8.51546 -4.9156,-1.31728 -9.8239,-2.83269 -14.8787,-3.42153 -3.023,-0.35216 -6.0956,0.17592 -9.1304,-0.0539 -3.386,-0.25646 -6.698,-1.16784 -10.0798,-1.47482 -4.8632,-0.44145 -9.9342,-1.82751 -14.6402,-0.52389 z"
           id="path49958-1-7"
           inkscape:connector-curvature="0"
           sodipodi:nodetypes="aaaaaccaaasazaszzaaaaa" />
        <path
           style="color:#000000;fill:#ffffff;fill-opacity:1;fill-rule:nonzero;stroke:#4d4d4d;stroke-width:4.15467123;stroke-linecap:butt;stroke-linejoin:miter;stroke-miterlimit:4;stroke-opacity:1;stroke-dasharray:none;stroke-dashoffset:0;marker:none;visibility:visible;display:inline;overflow:visible;enable-background:accumulate"
           d="m -113.69957,286.5745 c -2.7523,-0.11948 -4.2317,2.70002 -7.9604,2.22136 -5.6309,-0.72284 -10.357,-2.8196 -15.6033,-2.40584 -4.4138,0.3481 -9.1216,1.37963 -12.6479,4.05692 -1.9473,1.47844 -3.7536,3.69678 -4.0346,6.12553 -0.6425,5.55361 1.8419,11.77849 5.7835,15.74324 4.5211,4.54766 18.0187,6.73952 18.0187,6.73952 0,0 5.7667,6.42676 8.6077,9.6775 3.0445,3.48357 5.3086,7.79754 9.042,10.52997 4.5848,3.35559 10.1867,5.23764 15.683598,6.67433 11.163,2.91757 22.8851,4.34059 34.4086,3.7634 5.4891,-0.27494 10.8508,-1.88975 16.1291,-3.42148 10.3074,-3.29034 12.682,-2.52596 13.9228,-12.03159 0.3468,-2.6568 0.2731,-7.35944 0.7181,-11.01031 0.8605,-7.05863 4.4487,-17.41319 3.7663,-20.99755 -0.3968,-2.08385 -5.2784,-1.11597 -7.9582,-1.36735 -7.1712,-0.67269 -14.4212,0.15625 -21.605,-0.36527 -9.7639,-0.70882 -19.6275,-1.38997 -29.1284,-3.74993 -9.3783,-2.3295 -17.488498,-9.76335 -27.142598,-10.18245 z"
           id="path49960-4-9"
           inkscape:connector-curvature="0"
           sodipodi:nodetypes="asaaaacaaaacsasaaaa" />
        <path
           style="color:#000000;fill:#ffffff;fill-opacity:1;fill-rule:nonzero;stroke:#4d4d4d;stroke-width:4.15467123;stroke-linecap:butt;stroke-linejoin:miter;stroke-miterlimit:4;stroke-opacity:1;stroke-dasharray:none;stroke-dashoffset:0;marker:none;visibility:visible;display:inline;overflow:visible;enable-background:accumulate"
           d="m -119.48877,229.33552 c -4.7833,-0.35965 -10.1843,-0.0766 -14.1494,2.62301 -1.7469,1.18934 -2.6444,3.3879 -3.3602,5.3763 -1.1484,3.1896 -1.8043,6.72211 -1.3441,10.0807 0.6021,4.39464 2.221,8.98311 5.2419,12.23116 1.9924,2.14228 5.075,2.9567 7.7957,4.03224 3.5654,1.40945 7.997,0.83399 11.0676,3.1296 3.1512,2.35584 3.3658,7.35749 6.2942,9.98513 6.368,5.71404 14.814298,8.99578 23.064198,11.26335 14.0111,3.8511 27.3152,3.48891 43.445,3.57892 2.4278,0.0136 5.9521,0.0149 9.0875,0.0122 3.8076,-0.003 5.1558,-0.42025 6.8514,-2.10311 1.7648,-1.75149 1.7094,-4.68556 2.2428,-7.11408 1.1314,-5.15132 1.0947,-10.49977 2.0043,-15.69485 1.2995,-7.42293 4.2745,-17.37476 4.9253,-22.06444 0.6508,-4.68969 1.4113,-4.91957 0.3255,-5.79109 -0.6344,-0.50916 -3.6614,0.21091 -5.4928,0.30141 -14.5297,0.71793 -30.838,3.37924 -43.5999,1.91636 -11.4947,-1.31761 -22.2691,-12.67622 -34.2742,-11.55922 -2.838998,0.26414 -4.621698,3.92926 -7.461698,4.18188 -4.4494,0.39579 -8.2086,-4.05054 -12.6631,-4.38547 z"
           id="path49962-5-5"
           inkscape:connector-curvature="0"
           sodipodi:nodetypes="aaaaaaaaassaaazsasaaa" />
        <path
           style="color:#000000;fill:#ffffff;fill-opacity:1;fill-rule:nonzero;stroke:#4d4d4d;stroke-width:4.15467123;stroke-linecap:butt;stroke-linejoin:miter;stroke-miterlimit:4;stroke-opacity:1;stroke-dasharray:none;stroke-dashoffset:0;marker:none;visibility:visible;display:inline;overflow:visible;enable-background:accumulate"
           d="m -93.181172,182.49616 c 1.4179,-0.63882 0.9408,-1.88172 3.0914,-3.49463 2.1505,-1.6129 0.6,-0.0298 2.7506,-2.18035 2.1505,-2.15054 5.5394,-4.26846 8.2275,-2.11792 2.6882,2.15053 14.9464,11.60842 23.6993,14.78214 6.1234,2.22032 12.8568,2.23908 19.3548,2.68818 7.1514,0.49425 14.3733,0.72117 21.5054,0 3.8236,-0.38663 8.6077003,-2.30801 11.2959003,-2.30801 2.68819997,0 0.5493,2.62296 0.5456,5.17275 0,2.5498 -3.2085,7.6179 -4.3011,11.59175 -1.2466,4.53387 -0.692,9.55312 -2.5442,13.87506 -1.2579003,2.93507 -3.0838003,5.82471 -5.6317003,7.74958 -4.3131,3.2585 -9.8939,4.68905 -15.2247,5.58553 -14.4059,2.42265 -40.0538,-0.26882 -43.8172,-0.80645 -3.7635,-0.53763 -19.6237,-7.7957 -21.2366,-9.94624 -1.6129,-2.15053 -3.2258,-8.06451 -5.913998,-9.13978 -2.6881,-1.07527 -8.3333,-5.10753 -16.9354,-8.33333 -8.6022,-3.22581 -10.4269,-10.78849 -9.9463,-17.47312 0.2198,-3.0571 2.8361,-6.0321 5.6452,-7.25807 2.844,-1.2412 6.1806,0.56405 9.2742,0.80646 3.8506,0.30172 7.699,0.67196 11.5591,0.80645 2.865598,0.0998 5.987798,1.17776 8.602198,0 z"
           id="path10974-6-4"
           inkscape:connector-curvature="0"
           sodipodi:nodetypes="asssaaascaaaassssaaaaa" />
        <path
           style="color:#000000;fill:#ffffff;fill-opacity:1;fill-rule:nonzero;stroke:#4d4d4d;stroke-width:4.15467123;stroke-linecap:butt;stroke-linejoin:miter;stroke-miterlimit:4;stroke-opacity:1;stroke-dasharray:none;stroke-dashoffset:0;marker:none;visibility:visible;display:inline;overflow:visible;enable-background:accumulate"
           d="m -99.498372,124.43164 c -2.688198,0 -3.763498,-1.07527 -5.913998,1.6129 -2.1506,2.68818 -2.6882,5.37635 -2.6882,7.52689 0,2.15053 2.4194,9.4086 4.5699,11.55914 2.1505,2.15053 13.978498,6.72043 18.279598,9.4086 4.301,2.68817 3.6392,7.32317 6.1828,10.48387 3.2198,4.00105 6.7803,8.027 11.2903,10.48387 8.9316,4.86563 19.4227,6.8316 29.5699,7.52688 11.1555,0.76437 33.3333003,-3.76344 33.3333003,-3.76344 0,0 5.914,-2.15054 9.1398,-5.91398 3.2258,-3.76344 1.6685,-9.45722 3.2258,-13.97849 1.9321,-5.60953 4.8386997,-11.82796 7.5268997,-16.12903 2.6882,-4.30108 9.1398,-10.21506 4.3011,-10.21506 -4.8388,0 -18.0107997,1.88172 -25.5376997,1.88172 -7.5269003,0 -26.6129003,-0.26881 -33.0645003,-2.41935 -6.4516,-2.15054 -14.5161,-7.52689 -19.3548,-9.67742 -4.8387,-2.15054 -4.5699,0.26881 -14.2473,1.88171 -9.6775,1.61291 -5.3764,-0.26881 -13.9785,-0.26881 -8.6022,0 -12.6344,0 -12.6344,0 z"
           id="path10976-2-3"
           inkscape:connector-curvature="0"
           sodipodi:nodetypes="cssssaaacsasssssssc" />
        <path
           style="color:#000000;fill:#ffffff;fill-opacity:1;fill-rule:nonzero;stroke:#4d4d4d;stroke-width:4.15467123;stroke-linecap:butt;stroke-linejoin:miter;stroke-miterlimit:4;stroke-opacity:1;stroke-dasharray:none;stroke-dashoffset:0;marker:none;visibility:visible;display:inline;overflow:visible;enable-background:accumulate"
           d="m -81.756472,74.700458 c 3.3844,-2.58787 5.3763,-0.80646 13.9785,-0.80646 8.6021,0 12.9032,3.22581 16.6666,0.53764 3.7635,-2.68817 0.4534,-3.86162 1.8818,-4.83871 4.0676,-2.78254 10.0808,-1.46946 14.7849,0 5.4094,1.68977 8.6433,7.76633 13.9785,9.67742 9.2262,3.30485 19.51180027,1.95535 29.3011003,2.41936 7.2504997,0.34366 18.3772997,0.42039 21.7741997,0.26881 3.2258,-0.14394 5.914,0.46925 5.3763,2.68817 -0.8952,3.69474 -4.0024,6.98828 -5.3763,10.75269 -1.7064,4.675302 -2.437,9.652862 -3.4946,14.516132 -0.6984,3.21116 -1.8818,7.52688 -1.8818,9.67742 0,1.11177 -1.0058,3.29881 -2.646,4.11344 -1.5325,0.76115 -12.221,1.53172 -14.5582997,1.53172 -4.8387,0 -17.6322,0.32852 -26.3441003,-0.80645 -7.8454,-1.0221 -15.7039,-2.61527 -23.1182,-5.37634 -5.4089,-2.01425 -12.6344,-5.37635 -15.3226,-8.06452 -2.6882,-2.68817 2.4193,-5.37634 -5.6452,-9.67742 -8.0645,-4.301082 -9.2385,-4.031892 -12.9032,-6.182792 -3.6647,-2.1509 -7.6781,-3.8966 -9.1398,-6.45162 -1.4617,-2.55502 -0.9291,-4.03933 -0.5376,-6.45161 0.3914,-2.41228 -0.1586,-4.93901 3.2258,-7.52688 z"
           id="path10978-0-1"
           inkscape:connector-curvature="0"
           sodipodi:nodetypes="zzsaaaassaasssaasszzzz" />
        <path
           style="color:#000000;fill:#ffffff;fill-opacity:1;fill-rule:nonzero;stroke:#4d4d4d;stroke-width:4.15467123;stroke-linecap:butt;stroke-linejoin:miter;stroke-miterlimit:4;stroke-opacity:1;stroke-dasharray:none;stroke-dashoffset:0;marker:none;visibility:visible;display:inline;overflow:visible;enable-background:accumulate"
           d="m -61.170072,16.642648 c -1.3752,0.58692 -2.5141,1.81743 -3.1948,3.14872 -1.5176,2.96804 -2.181,6.61681 -1.5207,9.88428 0.6814,3.37171 2.7632,6.58881 5.4067,8.78992 3.2371,2.69545 8.399,2.05621 11.7851,4.56198 3.6272,2.68422 8.3636,8.36363 8.3636,10.64462 0,2.28098 3.2258,6.08263 6.6473,9.12395 3.4215,3.04132 9.6136,6.10483 15.0221,7.6033 10.8018003,2.99272 22.3319003,2.61511 33.5389,2.41935 7.2661,-0.12692 15.5946,0.33405 21.6773,-2.32711 6.0826,-2.66115 6.2751,-3.54145 7.8912,-6.55504 2.349,-4.3804 0.8659,-9.90896 1.5898,-14.82643 0.5822,-3.95434 1.7745,-7.81215 2.2118,-11.78512 0.3406,-3.09413 4.4968,-7.05215 0.315,-9.33314 -4.1818,-2.28099 -9.8637,-0.39011 -16.8465,-0.65854 -6.9828,-0.26843 -17.5257,-0.0384 -26.0738997,-1.7091 -8.7707,-1.71418 -17.8097003,-3.80256 -25.4441003,-8.44796 -2.0692,-1.25909 -2.8693,-4.42407 -5.203,-5.07259 -3.1752,-0.88235 -4.7379,4.7154 -7.9406,5.99789 -2.9089,1.1649 -7.9908,-0.68592 -10.9642,-0.34154 -3.2729,0.37905 -6.2042,-1.16447 -9.3467,-1.34409 -2.6349,-0.15061 -5.4869,-0.8093 -7.9143,0.22665 z"
           id="path10980-3-2"
           inkscape:connector-curvature="0"
           sodipodi:nodetypes="aaaaassaasaaaszaasssaa" />
        <path
           style="color:#000000;fill:#ffffff;fill-opacity:1;fill-rule:nonzero;stroke:#4d4d4d;stroke-width:4.15467123;stroke-linecap:butt;stroke-linejoin:miter;stroke-miterlimit:4;stroke-opacity:1;stroke-dasharray:none;stroke-dashoffset:0;marker:none;visibility:visible;display:inline;overflow:visible;enable-background:accumulate"
           d="m -6.5146717,-39.573872 c 6.75549997,1.04597 12.2542,6.2743 18.8441997,8.09153 7.8432,2.16278 16.0755,2.68699 24.1936,3.22581 8.9409,0.59343 17.9352,-0.50189 26.8817,0 1.1312,0.0635 2.7139,-0.53807 3.3777,0.38016 1.5018,2.07771 -0.9745,5.03583 -1.5803,7.52688 -0.8478,3.48605 -2.0213,6.88737 -2.8727,10.3725304 -0.8695,3.55931 -1.7068,7.13397 -2.281,10.75269002 -0.5648,3.55980998 0.4741,7.53018998 -1.1405,10.75268958 -1.3335,2.66154 -3.8698,4.7747 -6.5494,6.07145 -2.8493,1.37884 -6.2279,1.21214 -9.3839,1.45543 -10.3635,0.79891 -20.902,1.53156 -31.1828,0 -9.2631997,-1.37996 -18.6073997,-3.79186 -26.8762,-8.18938 -3.3223,-1.7668996 -7.768,-3.4856496 -8.7652,-7.1140996 -1.1403,-4.14954998 2.9067,-8.10205 4.4586,-12.11588 0.9397,-2.4305204 2.1712,-4.7540104 2.9379,-7.2445604 1.0911,-3.54471 1.5655,-7.2506 2.3406,-10.87753 0.8975,-4.19939 -0.5252,-9.73823 2.6747,-12.60193 1.2288,-1.09964 3.2935003,-0.73809 4.9230003,-0.48579 z"
           id="path10999-5-3"
           inkscape:connector-curvature="0"
           sodipodi:nodetypes="aaaaaaaaaaaaaaaaaaa" />
        <path
           style="color:#000000;fill:#ffffff;fill-opacity:1;fill-rule:nonzero;stroke:#4d4d4d;stroke-width:4.15467123;stroke-linecap:butt;stroke-linejoin:miter;stroke-miterlimit:4;stroke-opacity:1;stroke-dasharray:none;stroke-dashoffset:0;marker:none;visibility:visible;display:inline;overflow:visible;enable-background:accumulate"
           d="m -104.52157,-66.428572 c 2.6881,-2.68817 14.016398,-13.63863 22.227498,-18.81721 6.6489,-4.19338 13.9784,-8.60215 21.5053,-9.67742 7.5269,-1.07526 30.6452,-2.15053 35.4839,-2.15053 4.8387,0 15.5914003,1.6129 19.8925003,3.2258 4.301,1.61291 9.1398,4.30108 13.4408,9.13979 4.3010997,4.83871 5.3763997,9.13978 4.8386997,12.90322 -0.5376,3.76344 -6.4515997,9.13979 -8.6020997,10.75269 -2.1505,1.61291 -12.3656,5.91398 -19.8925003,6.45161 -7.5269,0.53764 -14.9818,-2.71194 -22.385,-4.46973 -7.6626,-1.81941 -15.0283,-4.87067 -22.7763,-6.28295 -3.4335,-0.62585 -6.955,-1.31538 -10.4265,-0.95601 -5.3341,0.55218 -10.1852,3.38817 -15.3799,4.71944 -5.1411,1.31754 -11.0461,5.96567 -15.591398,3.22581 -2.3968,-1.44478 -2.335,-8.06451 -2.335,-8.06451 z"
           id="path11025-6-3"
           inkscape:connector-curvature="0"
           sodipodi:nodetypes="casssssssaaaaac" />
        <path
           style="color:#000000;fill:#ffffff;fill-opacity:1;fill-rule:nonzero;stroke:#4d4d4d;stroke-width:4.15467123;stroke-linecap:butt;stroke-linejoin:miter;stroke-miterlimit:4;stroke-opacity:1;stroke-dasharray:none;stroke-dashoffset:0;marker:none;visibility:visible;display:inline;overflow:visible;enable-background:accumulate"
           d="m 84.934228,-85.468192 c 2.1701,5.08659 -3.5589,10.47516 -5.1323,15.77684 -1.2505,4.21406 -2.242,8.50101 -3.4215,12.73552 -0.9201,3.30336 -0.8404,7.10664 -2.8512,9.88429 -1.9786,2.73319 -5.2091,4.50478 -8.3636,5.70247 -7.4648,2.8342 -15.7784,2.82912 -23.7603,3.04132 -11.1148,0.29549 -22.5874,0.63138 -33.2644997,-2.47107 -4.8997,-1.42372 -11.2544,-2.63938 -13.4958,-7.22313 -0.9884,-2.02127 0.7062,-4.44522 1.1405,-6.65289 0.6764,-3.43905 1.8985,-6.78043 2.281,-10.26445 0.7052,-6.42421 -1.0195,-13.00653 0,-19.38841 0.6416,-4.01652 0.2772,-9.56467 3.8016,-11.59504 4.7702,-2.748 10.8313997,2.02715 16.1569997,3.42149 6.3588,1.66484 12.3345,4.81253 18.8182,5.89256 4.6891,0.7811 9.5034,0.47607 14.2562,0.38017 9.4601,-0.1909 19.033,-3.70057 28.3223,-1.90083 2.0031,0.38809 4.7117,0.78445 5.5124,2.66116 z"
           id="path11001-6-4"
           inkscape:connector-curvature="0"
           sodipodi:nodetypes="aaaaaaaaaaaaaaaaa" />
        <path
           style="color:#000000;fill:#ffffff;fill-opacity:1;fill-rule:nonzero;stroke:#4d4d4d;stroke-width:4.15467123;stroke-linecap:butt;stroke-linejoin:miter;stroke-miterlimit:4;stroke-opacity:1;stroke-dasharray:none;stroke-dashoffset:0;marker:none;visibility:visible;display:inline;overflow:visible;enable-background:accumulate"
           d="m -78.726772,-136.79046 c -4.355,2.22375 -11.2108,2.89908 -12.5455,7.60329 -0.7516,2.64901 1.9098,5.31736 3.7634,7.35359 1.9336,2.12407 4.5048,3.84766 7.2693,4.6272 3.657,1.0312 7.7485,0.8648 11.397,-0.19567 5.134,-1.49219 8.4594,-7.23816 13.686,-8.36363 4.9938,-1.07536 10.572,-0.2475 15.2066,1.90082 3.9056,1.8104 5.6145,6.89921 9.5041,8.7438 4.0481,1.91978 8.8368,1.58322 13.3058,1.90082 4.4241,0.31441 8.8768003,0.23592 13.3057003,0 5.7269,-0.30505 17.1074997,-1.82769 17.1074997,-1.82769 l 9.2715,-12.67096 -2.6882,-11.29033 -13.9784997,-8.06451 c 0,0 -10.6971,-2.23861 -16.1290003,-2.68817 -5.8939,-0.48779 -11.9568,-1.22769 -17.742,0 -5.1797,1.09921 -9.3502,5.28932 -14.5161,6.45161 -7.1706,1.61331 -14.8575,-1.00797 -22.043,0.53763 -5.0138,1.07845 -9.6072,3.64996 -14.1746,5.9822 z"
           id="path11023-6-1"
           inkscape:connector-curvature="0"
           sodipodi:nodetypes="aaaaaaaaaaccccaaaaa" />
        <path
           style="color:#000000;fill:#ffffff;fill-opacity:1;fill-rule:nonzero;stroke:#4d4d4d;stroke-width:4.15467123;stroke-linecap:butt;stroke-linejoin:miter;stroke-miterlimit:4;stroke-opacity:1;stroke-dasharray:none;stroke-dashoffset:0;marker:none;visibility:visible;display:inline;overflow:visible;enable-background:accumulate"
           d="m 17.705928,-154.28008 c 8.0109,3.17729 15.4138,7.91444 23.6559,10.43215 6.7911,2.0745 13.8699,3.55335 20.9677,3.76345 7.3215,0.21672 14.5208,-1.98869 21.8203,-2.59593 3.7548,-0.31235 8.674,-3.24875 11.2903,-0.53764 1.4986,1.55282 -0.2641,4.31103 -0.5376,6.45161 -0.6187,4.84169 -2.082,9.56572 -2.4925,14.42948 -0.2862,3.39111 0.01,6.80634 0.027,10.20946 0.014,2.65747 0.9817,5.47985 0.06,7.97228 -0.6735,1.8207 -2.1829,3.35486 -3.8231,4.393318 -5.0332,3.18674 -11.3029,4.02461 -17.2043,4.8387 -9.4091,1.29797 -19.0203,0.67332 -28.4946,0 -7.5841,-0.53899 -15.4906,-0.47961 -22.5806,-3.2258 -5.0523,-1.956888 -10.7189997,-4.455148 -13.4408997,-9.139788 -2.0718,-3.56569 -0.9471,-8.2092 -0.9774,-12.33297 -0.054,-7.37361 -0.1605,-15.00662 1.4228,-22.07563 1.1321,-5.05459 1.763,-12.55876 3.3180997,-15.05376 1.307,-2.09708 4.6922,1.56004 6.9892,2.47107 z"
           id="path11003-7-1"
           inkscape:connector-curvature="0"
           sodipodi:nodetypes="aaaaaaaaaaaaaaassa" />
        <path
           style="color:#000000;fill:#ffffff;fill-opacity:1;fill-rule:nonzero;stroke:#4d4d4d;stroke-width:4.15467123;stroke-linecap:butt;stroke-linejoin:miter;stroke-miterlimit:4;stroke-opacity:1;stroke-dasharray:none;stroke-dashoffset:0;marker:none;visibility:visible;display:inline;overflow:visible;enable-background:accumulate"
           d="m -75.685472,-185.07141 c -2.857,2.63607 -4.9978,7.32609 -3.8017,11.02478 1.2873,3.98077 6.1077,6.74863 10.2645,7.22314 4.3487,0.49642 8.4735,-2.59079 12.1653,-4.94215 2.0419,-1.3006 3.1157,-3.94606 5.3223,-4.94214 3.4822,-1.57192 7.6126,-1.60424 11.4049,-1.1405 1.8699,0.22866 3.7549,0.85586 5.3223,1.90083 3.1349,2.08995 4.5451,6.163 7.6033,8.36363 2.8094,2.02158 6.1171,3.4696 9.5041,4.18181 4.7124,0.99088 9.7391003,1.0152 14.4463003,0 5.7103,-1.23153 12.9256,-5.70247 15.9668997,-7.22313 3.0414,-1.52066 14.0661,-9.12396 14.0661,-9.12396 l -10.2644,-17.86775 c 0,0 -7.7422997,-5.39957 -12.1652997,-6.84297 -5.09540003,-1.66282 -10.6072,-1.94326 -15.9669003,-1.90083 -4.7312,0.0374 -9.6263,0.2659 -14.0661,1.90083 -3.9583,1.4576 -6.8635,4.97336 -10.6446,6.84297 -5.6775,2.80722 -11.8851,4.38408 -17.8678,6.4628 -2.6497,0.92066 -5.2929,1.86785 -7.9835,2.66116 -4.3925,1.29513 -9.94,0.31596 -13.3057,3.42148 z"
           id="path11021-6-3"
           inkscape:connector-curvature="0"
           sodipodi:nodetypes="aaaaaaaaaasccaaaaaaa" />
        <path
           style="color:#000000;fill:#ffffff;fill-opacity:1;fill-rule:nonzero;stroke:#4d4d4d;stroke-width:4.15467123;stroke-linecap:butt;stroke-linejoin:miter;stroke-miterlimit:4;stroke-opacity:1;stroke-dasharray:none;stroke-dashoffset:0;marker:none;visibility:visible;display:inline;overflow:visible;enable-background:accumulate"
           d="m 9.1959283,-213.07231 c 9.9036997,7.29124 23.5448997,11.06368 36.0215997,14.51613 9.3991,2.60086 19.1688,3.89627 28.8978,4.56989 7.1638,0.49601 16.4265,-2.77678 21.5475,-1.74335 2.5335,0.51125 0.9946,2.56329 0.9197,6.17957 -0.08,3.88511 -0.1539,8.67532 -0.1132,11.83118 0.086,6.63572 4.535802,14.4032 0.8064,19.89247 -2.9694,4.3707 -9.7775,4.21503 -14.9615,5.23797 -8.684,1.71359 -17.6776,1.85939 -26.5174,1.40372 -7.9523,-0.40993 -15.8668,-1.8057 -23.5989,-3.70897 -6.3078,-1.55269 -12.7167,-2.49263 -18.4568,-6.25636 -3.5057,-2.29869 -2.2076,-3.66165 -2.9323,-5.65867 -1.8921997,-5.21479 -2.7315997,-10.76928 -3.6002997,-16.2483 -0.6183,-3.89955 -0.9814,-7.84469 -1.1405,-11.78974 -0.1616,-4.00513 -0.7203,-8.12 0.1901,-12.02365 0.5195,-2.22774 1.2,-7.4813 2.9378,-6.20189 z"
           id="path11005-7-8"
           inkscape:connector-curvature="0"
           sodipodi:nodetypes="sassssaaaasaaaas" />
        <path
           style="color:#000000;fill:#ffffff;fill-opacity:1;fill-rule:nonzero;stroke:#4d4d4d;stroke-width:4.15467123;stroke-linecap:butt;stroke-linejoin:miter;stroke-miterlimit:4;stroke-opacity:1;stroke-dasharray:none;stroke-dashoffset:0;marker:none;visibility:visible;display:inline;overflow:visible;enable-background:accumulate"
           d="m -74.229572,-241.69739 c -2.5405,1.93053 -5.5489,4.35707 -5.914,7.52689 -0.3394,2.94699 1.202,6.56819 3.7634,8.06451 4.0352,2.35724 9.5949,0.5444 13.9785,-1.07527 5.4134,-2.00015 8.555,-8.24254 13.9785,-10.21505 2.5319,-0.92084 5.7521,-1.92002 8.0645,-0.53764 1.8587,1.11109 1.652,4.01259 2.6882,5.91398 1.4273,2.61899 2.6883,5.46 4.8387,7.52688 2.5484,2.44935 5.7443,4.39451 9.1398,5.37635 5.5118,1.59378 11.5124,1.26023 17.2043003,0.53763 8.8892,-1.12851 25.8064997,-7.52688 25.8064997,-7.52688 l 0,-10.75269 c 0,0 -3.1269,-12.7521 -7.5269,-17.2043 -4.2849997,-4.33572 -10.6702997,-6.43022 -16.6666997,-7.52688 -5.6522003,-1.03371 -11.4788003,1.55929 -17.2043003,1.07527 -3.1187,-0.26364 -6.0643,-1.57023 -9.1398,-2.15054 -1.2452,-0.23496 -2.5373,-0.85786 -3.7634,-0.53763 -3.7108,0.9692 -6.068,4.6928 -9.1398,6.98925 -4.6222,3.45553 -8.6588,7.97773 -13.9785,10.21505 -3.0145,1.26783 -6.5344,0.70923 -9.6774,1.6129 -2.2391,0.64377 -4.5967,1.27859 -6.4516,2.68817 z"
           id="path11019-7-7"
           inkscape:connector-curvature="0"
           sodipodi:nodetypes="aaaaaaaaaaccaaaaaaaaa" />
        <path
           style="color:#000000;fill:#ffffff;fill-opacity:1;fill-rule:nonzero;stroke:#4d4d4d;stroke-width:4.15467123;stroke-linecap:butt;stroke-linejoin:miter;stroke-miterlimit:4;stroke-opacity:1;stroke-dasharray:none;stroke-dashoffset:0;marker:none;visibility:visible;display:inline;overflow:visible;enable-background:accumulate"
           d="m 86.835028,-256.7325 c 2.17,5.75328 -0.7878,12.29291 -0.5703,18.438 0.1104,3.11885 -0.1518,6.39436 0.9504,9.31404 1.7326,4.58932 7.2371,7.24975 8.5538,11.9752 0.6652,2.38743 0.9667,5.46897 -0.5703,7.41321 -3.0942,3.91413 -9.3152,3.86858 -14.2562,4.56198 -10.1697,1.42717 -30.7933,-0.95041 -30.7933,-0.95041 0,0 -14.6751,-1.28743 -21.6694,-3.42149 -7.7543,-2.36595 -20.9090997,-6.84296 -22.0495997,-10.26445 -1.1405,-3.42148 -4.1818,-12.54544 -5.3223,-15.58676 -1.14050003,-3.04132 -4.9422,-17.10742 -4.9422,-20.52891 0,-3.42148 -3.0413,-12.16527 1.1405,-13.68593 4.1819,-1.52066 0.956,-0.73332 9.6998,4.96916 8.7437997,5.70247 27.5563997,8.71677 32.8786997,9.4771 5.3223,0.76033 17.4876,1.52066 23.9504,-0.38016 6.4628,-1.90083 21.2052,-3.24828 21.2052,-3.24828 0,0 1.4858,1.09852 1.7948,1.9177 z"
           id="path11007-1-4"
           inkscape:connector-curvature="0"
           sodipodi:nodetypes="aaaaaacssssssssca" />
        <path
           style="color:#000000;fill:#ffffff;fill-opacity:1;fill-rule:nonzero;stroke:#4d4d4d;stroke-width:4.15467123;stroke-linecap:butt;stroke-linejoin:miter;stroke-miterlimit:4;stroke-opacity:1;stroke-dasharray:none;stroke-dashoffset:0;marker:none;visibility:visible;display:inline;overflow:visible;enable-background:accumulate"
           d="m -46.810272,-340.08448 c 4.3346,-2.16727 12.3656,-3.76343 18.2796,-6.45161 5.914,-2.68818 13.4409,-5.37635 17.2043,-5.37635 3.7634003,0 19.3548003,2.15054 19.3548003,2.15054 l -3.7634,4.83871 c 0,0 -7.1624,5.66024 -15.0538003,8.06452 -7.8913,2.40428 -24.8755,3.19255 -32.258,3.2258 -7.3826,0.0332 -11.828,-1.07527 -11.828,-1.07527 0,0 3.73,-3.20907 8.0645,-5.37634 z"
           id="path11015-9-2"
           inkscape:connector-curvature="0"
           sodipodi:nodetypes="zzzcczzcz" />
        <path
           style="color:#000000;fill:#ffffff;fill-opacity:1;fill-rule:nonzero;stroke:#4d4d4d;stroke-width:4.15467123;stroke-linecap:butt;stroke-linejoin:miter;stroke-miterlimit:4;stroke-opacity:1;stroke-dasharray:none;stroke-dashoffset:0;marker:none;visibility:visible;display:inline;overflow:visible;enable-background:accumulate"
           d="m -101.11127,-273.95545 c 3.927698,-7.65517 13.135798,-11.49141 20.967698,-15.05376 2.8489,-1.29584 6.3542,-0.72357 9.1398,-2.15054 4.8615,-2.49041 7.6359,-8.02012 12.3656,-10.75269 4.7601,-2.75016 10.2201,-4.20532 15.5914,-5.37634 7.2131,-1.57257 14.6604,-2.15229 22.043,-2.15054 9.1836,0.002 27.4193003,2.68817 27.4193003,2.68817 l 4.3010997,18.81721 -9.1397997,12.36559 c 0,0 -5.914,-1.61291 -8.0645,-0.53764 -2.1505,1.07527 -15.6421003,4.19207 -23.6559003,4.30108 -4.7139,0.0641 -9.3962,-1.04276 -13.9785,-2.15054 -3.3051,-0.79901 -6.2916,-2.91226 -9.6774,-3.22581 -5.224,-0.48377 -10.5964,0.54624 -15.5914,2.15054 -7.327,2.35329 -13.0505,8.57003 -20.4301,10.75269 -1.8982,0.56142 -4.0011,1.04657 -5.914,0.53763 -2.114,-0.56245 -4.366098,-1.82313 -5.376298,-3.76344 -0.9932,-1.90748 -0.9818,-4.53823 0,-6.45161 z"
           id="path11017-1-7"
           inkscape:connector-curvature="0"
           sodipodi:nodetypes="aaaaaacccsaaaaaaaa" />
        <path
           style="color:#000000;fill:#ffffff;fill-opacity:1;fill-rule:nonzero;stroke:#4d4d4d;stroke-width:4.15467123;stroke-linecap:butt;stroke-linejoin:miter;stroke-miterlimit:4;stroke-opacity:1;stroke-dasharray:none;stroke-dashoffset:0;marker:none;visibility:visible;display:inline;overflow:visible;enable-background:accumulate"
           d="m 8.3309283,-356.14563 c 8.1404997,-3.68125 16.3115997,-2.94297 26.6497997,-2.85683 8.8067,0.0734 16.5722,1.10741 24.8705,4.08613 2.9432,1.0565 11.3619,-1.57318 13.8681,0.29136 6.5077,4.8416 4.3849,13.4825 5.0647,20.48279 0.5707,5.87644 2.3182,12.71797 -0.8638,17.69118 -3.8694,6.04748 -16.8116,8.82812 -19.0926,9.96862 -2.281,1.14049 -18.9105,3.85962 -28.4471,3.37535 -9.5957,-0.48727 -18.6482,-4.73912 -28.1321997,-6.27831 -4.9039,-0.79587 -10.1682,0.20621 -14.8264003,-1.52066 -3.3291,-1.23412 -8.7438,-6.08264 -8.7438,-6.08264 l -4.9962,-5.38753 c 0,0 -2.2036,-0.0577 -3.2879,-0.23519 -5.2976,-0.86713 -8.0735,-1.87912 -12.1699,-1.75127 -6.3449,0.19803 -12.4813,2.35965 -18.6439,3.88271 -4.265,1.05407 -8.4182,4.74173 -12.6693,3.63298 -2.985,-0.77853 -6.6866,-3.49071 -6.5169,-6.57087 0.3296,-5.98045 8.5019,-8.86519 13.9785,-11.29033 7.4626,-3.30457 16.0879,-2.81012 24.1936,-3.76344 8.9276,-1.05 18.1792,0.10153 26.8817,-2.15054 4.1927,-1.08501 8.2163003,-2.98625 11.8279003,-5.37634 4.1714,-2.7605 6.4976,-8.08612 11.0552,-10.14717 z"
           id="path11011-6-7"
           inkscape:connector-curvature="0"
           sodipodi:nodetypes="asssaasaaaccsaaaaaaaaa" />
        <path
           style="color:#000000;fill:#ffffff;fill-opacity:1;fill-rule:nonzero;stroke:#4d4d4d;stroke-width:4.15467123;stroke-linecap:butt;stroke-linejoin:miter;stroke-miterlimit:4;stroke-opacity:1;stroke-dasharray:none;stroke-dashoffset:0;marker:none;visibility:visible;display:inline;overflow:visible;enable-background:accumulate"
           d="m 77.140828,-308.24485 c 3.3747,4.61615 -1.9781,11.43312 -1.271,17.10742 0.413,3.31417 1.5203,6.6012 3.1718,9.50413 1.8215,3.20181 5.8142,5.98148 7.2231,8.36363 2.1038,3.55675 0.9293,7.78485 -1.9008,8.17913 -1.8826,0.26228 -16.8507,5.51064 -25.6015,6.4246 -11.6431,1.21605 -23.574,0.754 -35.0944,-1.32498 -9.1081,-1.64365 -26.3618997,-8.71677 -26.3618997,-8.71677 0,0 -3.4214,-3.42149 -2.281,-6.08264 1.1405,-2.66116 3.0414,-4.18182 2.281,-6.46281 -0.7603,-2.28099 -5.3223,-14.82643 -6.0826,-16.72725 -0.7603,-1.90083 -2.6612003,-10.64462 0,-11.78512 2.6612,-1.14049 7.6033,-1.90082 13.6859,1.1405 6.0826997,3.04132 23.7394997,8.2427 36.1156997,8.74379 4.8711,0.19722 9.7018,-1.16019 14.4463,-2.28099 4.5744,-1.08063 9.1232,-2.40671 13.4402,-4.26614 1.6685,-0.71871 2.9671,-2.39574 4.7672,-2.64205 1.1754,-0.16084 2.7618,-0.13217 3.462,0.82555 z"
           id="path11009-2-9"
           inkscape:connector-curvature="0"
           sodipodi:nodetypes="aaassaacsssssaaaaa" />
        <path
           style="color:#000000;fill:#ffffff;fill-opacity:1;fill-rule:nonzero;stroke:#4d4d4d;stroke-width:4.15467123;stroke-linecap:butt;stroke-linejoin:miter;stroke-miterlimit:4;stroke-opacity:1;stroke-dasharray:none;stroke-dashoffset:0;marker:none;visibility:visible;display:inline;overflow:visible;enable-background:accumulate"
           d="m -29.202672,-322.74577 c 0,0 13.5752,0.94086 21.1021003,-1.20968 7.52689997,-2.15054 10.7527,-3.22581 14.5161,-5.91398 3.7634997,-2.68817 17.2042997,-13.44086 17.2042997,-13.44086"
           id="path11013-7-3"
           inkscape:connector-curvature="0"
           sodipodi:nodetypes="cssc" />
        <path
           style="color:#000000;fill:#ffffff;fill-opacity:1;fill-rule:nonzero;stroke:#4d4d4d;stroke-width:4.15467123;stroke-linecap:butt;stroke-linejoin:miter;stroke-miterlimit:4;stroke-opacity:1;stroke-dasharray:none;stroke-dashoffset:0;marker:none;visibility:visible;display:inline;overflow:visible;enable-background:accumulate"
           d="m -1.1731717,-305.58367 c 3.8415,2.0208 8.2403,3.7432 10.8347,7.2231 2.0603997,2.7636 3.2375997,6.4427 3.0412997,9.8843 -0.189,3.3142 -1.659,6.762 -3.9916997,9.1239 -2.0525,2.0781 -5.7315,2.4594 -7.98350003,3.6116 -2.25189997,1.1522 -4.46869997,4.2969 -5.56409997,3.1932 -2.6518,-2.6719 -0.643,-10.4363 -1.659,-15.5486 -0.6565,-3.3036 -2.2114,-6.3526 -2.8512,-9.6941 -0.6399,-3.3415 -3.5444003,-8.011 -0.9505003,-10.2645 1.8679003,-1.6228 4.8642003,0.964 7.2232003,1.7107 0.6506,0.2059 1.2968,0.4427 1.9008,0.7604 z"
           id="path11092-2-1"
           inkscape:connector-curvature="0"
           sodipodi:nodetypes="aaaacsazaaa" />
        <path
           style="color:#000000;fill:#ffffff;fill-opacity:1;fill-rule:nonzero;stroke:#4d4d4d;stroke-width:4.15467123;stroke-linecap:butt;stroke-linejoin:miter;stroke-miterlimit:4;stroke-opacity:1;stroke-dasharray:none;stroke-dashoffset:0;marker:none;visibility:visible;display:inline;overflow:visible;enable-background:accumulate"
           d="m 2.9710283,-255.13267 c 1.7117,1.0061 5.6613,3.8202 8.2163997,6.0714 1.9895,1.7529 4.5088,3.29 5.4956,5.751 1.0672,2.6614 1.0973,5.953 0,8.6021 -1.0668,2.5757 -3.7309,4.1801 -5.9139,5.914 -1.7802997,1.414 -3.5964997,4.2067 -5.7891997,3.606 -3.838,-1.0515 -4.13170003,-6.8589 -5.50120003,-10.5953 -1.34199997,-3.6614 -2.13149997,-7.5353 -2.59589997,-11.4072 -0.417,-3.4764 -0.1575,-10.503 -0.1575,-10.503 0,0 4.5341,1.555 6.2457,2.561 z"
           id="path11094-7-9"
           inkscape:connector-curvature="0"
           sodipodi:nodetypes="zaaaaaaacz" />
        <path
           style="color:#000000;fill:#ffffff;fill-opacity:1;fill-rule:nonzero;stroke:#4d4d4d;stroke-width:4.15467123;stroke-linecap:butt;stroke-linejoin:miter;stroke-miterlimit:4;stroke-opacity:1;stroke-dasharray:none;stroke-dashoffset:0;marker:none;visibility:visible;display:inline;overflow:visible;enable-background:accumulate"
           d="m 6.0226283,-204.29127 c 0.064,-0.8339 11.9632997,0.6782 15.4990997,8.69602 1.3208,2.99478 2.6472,5.49411 2.957,8.46775 0.2903,2.78572 -0.021,5.73851 -1.0752,8.33333 -1.1805,2.90555 -3.4085,5.32845 -5.6452,7.52688 -1.8535,1.82183 -3.8235,5.30191 -6.3172,4.5699 -3.4167997,-1.00295 -3.0160997,-6.49623 -3.8978997,-9.94624 -0.5256,-2.05671 -0.613,-4.20321 -0.8064,-6.31721 -0.2208,-2.41301 -0.2193,-4.84197 -0.4032,-7.25807 -0.106,-1.39135 -0.2697,-2.77769 -0.4033,-4.16666 -0.1494,-1.55449 -0.4509,-3.10211 -0.4454,-4.66376 0.01,-1.75647 0.5377,-5.24194 0.5377,-5.24194 z"
           id="path11096-6-8"
           inkscape:connector-curvature="0"
           sodipodi:nodetypes="csaaaaaaaaac" />
        <path
           style="color:#000000;fill:#ffffff;fill-opacity:1;fill-rule:nonzero;stroke:#4d4d4d;stroke-width:4.15467123;stroke-linecap:butt;stroke-linejoin:miter;stroke-miterlimit:4;stroke-opacity:1;stroke-dasharray:none;stroke-dashoffset:0;marker:none;visibility:visible;display:inline;overflow:visible;enable-background:accumulate"
           d="m 24.747528,-139.00923 c 2.2995,3.84934 0.8473,9.17621 -0.5376,13.44086 -0.7983,2.45826 -2.2912,4.82654 -4.3011,6.45162 -3.7846,3.06014 -9.3685,7.82418 -13.5751997,5.37634 -2.5028,-1.45632 -1.148,-5.86075 -1.2097,-8.60215 -0.062,-2.74141 0.4099,-5.02161 0.672,-7.52688 0.2348,-2.24397 0.5005,-4.48506 0.8065,-6.72043 0.4795,-3.50307 1.6129,-10.48387 1.6129,-10.48387 0,0 13.3877997,2.80075 16.5321997,8.06451 z"
           id="path11098-5-6"
           inkscape:connector-curvature="0"
           sodipodi:nodetypes="aaaazaaca" />
        <path
           style="color:#000000;fill:#ffffff;fill-opacity:1;fill-rule:nonzero;stroke:#4d4d4d;stroke-width:4.15467123;stroke-linecap:butt;stroke-linejoin:miter;stroke-miterlimit:4;stroke-opacity:1;stroke-dasharray:none;stroke-dashoffset:0;marker:none;visibility:visible;display:inline;overflow:visible;enable-background:accumulate"
           d="m 6.4680283,-86.589872 c 2.6461,1.99127 5.0672997,4.57043 6.3919997,7.60562 1.398,3.20347 2.1223,7.00847 1.2979,10.40513 -1.1087,4.56854 -4.1459,8.89875 -7.9666997,11.63788 -2.7022,1.93728 -6.75830003,4.4131 -9.6042,2.69377 -2.7853,-1.68269 -1.85,-6.29837 -2.0392,-9.54697 -0.2056,-3.52975 0.4734,-7.06347 0.9965,-10.56029 0.414,-2.76727 0.8952,-5.53967 1.6917,-8.22198 0.7045,-2.37255 0.4251,-5.97179 2.71509997,-6.91052 2.19970003,-0.90169 4.61730003,1.46791 6.51690003,2.89736 z"
           id="path11100-1-5"
           inkscape:connector-curvature="0"
           sodipodi:nodetypes="aaaaaaaaaa" />
        <path
           style="color:#000000;fill:#ffffff;fill-opacity:1;fill-rule:nonzero;stroke:#4d4d4d;stroke-width:4.15467123;stroke-linecap:butt;stroke-linejoin:miter;stroke-miterlimit:4;stroke-opacity:1;stroke-dasharray:none;stroke-dashoffset:0;marker:none;visibility:visible;display:inline;overflow:visible;enable-background:accumulate"
           d="m -13.174772,-34.773372 c 5.1592003,-1.13177 9.8432003,5.82916 11.5783003,10.81791 1.06289997,3.05628 0.082,6.74822 -1.4499,9.59868 -2.5493,4.7447304 -7.3853003,8.0387604 -11.9910003,10.8314204 -2.2704,1.37662 -5.3701,4.40085002 -7.4673,2.77251002 -2.1868,-1.69799002 0.5136,-5.51478002 0.8717,-8.26020002 0.4175,-3.1999304 0.5787,-6.4698104 1.4881,-9.5660704 1.0642,-3.6236 3.1105,-6.88377 4.589,-10.35901 0.8224,-1.93313 0.3291,-5.3851 2.3811,-5.83524 z"
           id="path11102-3-0"
           inkscape:connector-curvature="0"
           sodipodi:nodetypes="aaaaaaaaa" />
      </g>
      <path
         style="color:#000000;fill:#ffffff;fill-opacity:1;fill-rule:nonzero;stroke:#4d4d4d;stroke-width:0.92824537;stroke-linecap:butt;stroke-linejoin:miter;stroke-miterlimit:4;stroke-opacity:1;stroke-dasharray:none;stroke-dashoffset:0;marker:none;visibility:visible;display:inline;overflow:visible;enable-background:accumulate"
         d="m 361.53759,711.04456 c -0.6889,-1.70652 -1.42929,-3.74321 -0.78077,-5.46546 0.32522,-0.86366 1.24149,-1.46851 2.10209,-1.80177 0.61636,-0.23868 1.98198,-0.0601 1.98198,-0.0601 0,0 4.7292,3.10153 7.38734,3.96396 3.11323,1.01007 6.45893,1.19993 9.72967,1.32132 2.30496,0.0855 6.66663,-0.42044 6.90685,-0.42044 0.24025,0 -2.94291,1.50151 -2.94291,1.50151 0,0 -2.93333,1.51683 -4.32429,2.40237 -1.20936,0.76991 -2.63058,1.3702 -3.48347,2.52252 -0.88137,1.19078 -1.19787,2.74287 -1.44143,4.20419 -0.19089,1.14535 0,3.48346 0,3.48346 0,0 -3.69167,-1.85774 -5.40538,-3.00297 -2.8907,-1.93182 -5.76641,-3.97254 -8.16811,-6.48647 -0.61412,-0.64283 -1.22876,-1.33776 -1.56157,-2.16214 z"
         id="path49946-0-7"
         inkscape:connector-curvature="0"
         sodipodi:nodetypes="aaacaascaaacaaa" />
      <path
         style="fill:#ffffff;fill-opacity:1;stroke:#4d4d4d;stroke-width:1.53763366000000000px;stroke-linecap:butt;stroke-linejoin:miter;stroke-opacity:1"
         d="m 365.18036,422.63885 c 0.98093,2.62568 1.34614,5.43469 1.68601,8.21694 0.62508,5.11694 1.18862,10.24877 1.32662,15.4019 0.37197,13.89034 -2.35972,27.71653 -6.45062,40.996 -5.55098,18.01903 -13.60163,35.22215 -18.56557,53.41165 -1.77097,6.48942 -3.14364,13.08894 -4.06437,19.75236 -0.75638,5.47395 -1.20774,10.99134 -1.30706,16.51641 -0.15669,8.71654 0.57405,17.49948 2.90329,25.9005 1.93222,6.96906 4.93478,13.5844 7.69735,20.26792 4.24644,10.27347 7.95062,20.78052 10.81827,31.52078 2.26057,8.46655 4.00397,17.10665 4.48172,25.85675 0.3137,5.74553 0.0716,11.5727 -1.41432,17.13161 -1.75038,6.54825 -5.16334,12.51681 -8.71453,18.29024 -2.57791,4.19109 -5.25221,8.33259 -7.49062,12.71441 -2.45342,4.80271 -4.407,10.13196 -3.7677,15.48702 0.2211,1.85204 0.75253,3.66665 1.56546,5.34537 -0.86271,-3.40227 -0.96456,-6.99524 -0.29598,-10.44092 0.94444,-4.86741 3.37682,-9.32369 6.17362,-13.41777 2.7968,-4.09408 5.98685,-7.91223 8.70095,-12.0616 3.61782,-5.53099 6.37569,-11.6606 7.7674,-18.12153 2.11992,-9.8416 1.02383,-20.10217 -0.98323,-29.9674 -3.02291,-14.8584 -8.06799,-29.22082 -13.26702,-43.46442 -2.12115,-5.81123 -4.27284,-11.61904 -5.96297,-17.56993 -1.7867,-6.29091 -3.05377,-12.73781 -3.60586,-19.25417 -0.85276,-10.06516 0.006,-20.22027 1.77653,-30.16516 1.3149,-7.3868 3.13165,-14.68344 5.41178,-21.8315 4.51164,-14.1437 10.81745,-27.65626 15.52402,-41.73629 4.45868,-13.33842 7.47228,-27.20025 8.33571,-41.23762 0.43313,-7.04161 0.32473,-14.1234 -0.48472,-21.13173 -0.62842,-5.44091 -1.67896,-10.83301 -3.13909,-16.11188 l -5.24487,0.80428 -4.07328,1.91337 c 2.06471,1.92725 3.67463,4.3386 4.66308,6.98441"
         id="path3171"
         inkscape:connector-curvature="0"
         sodipodi:nodetypes="aaaasssaaaaaaascaaaaaasssassccca"
         inkscape:path-effect="#path-effect3941"
         inkscape:original-d="m 365.18036,422.63885 c 1.0773,2.58017 1.28436,5.44989 1.68601,8.21694 0.74023,5.09953 1.50731,10.25209 1.32662,15.4019 -0.48509,13.82495 -3.09122,27.57664 -6.45062,40.996 -4.57735,18.28453 -14.0664,34.05859 -18.56557,53.41165 -1.25063,5.37953 -3.37601,14.24493 -4.06437,19.75236 -0.71588,5.72763 -1.57205,10.7787 -1.30706,16.51641 0.3807,8.24295 0.8611,17.45637 2.90329,25.9005 1.69881,7.02428 5.24114,13.47134 7.69735,20.26792 3.77551,10.44724 8.05794,20.76067 10.81827,31.52078 2.17363,8.47306 4.09148,17.11803 4.48172,25.85675 0.25563,5.72426 0.0781,11.59943 -1.41432,17.13161 -1.75902,6.5203 -5.54504,12.32679 -8.71453,18.29024 -2.30856,4.34359 -5.64088,8.15649 -7.49062,12.71441 -1.99788,4.92296 -3.25084,10.94031 -3.7677,15.48702 -0.46806,4.11749 1.56546,5.34537 1.56546,5.34537 0,0 -1.15749,-7.06748 -0.29598,-10.44092 2.43344,-9.52865 10.44984,-16.69652 14.87457,-25.47937 2.95689,-5.86926 6.55158,-11.66296 7.7674,-18.12153 1.84897,-9.82199 0.65372,-20.10786 -0.98323,-29.9674 -2.48104,-14.94348 -8.62115,-29.0464 -13.26702,-43.46442 -1.89685,-5.88668 -4.39596,-11.58699 -5.96297,-17.56993 -1.6544,-6.31657 -3.08572,-14.56715 -3.60586,-19.25417 -1.14042,-10.27636 0.31179,-20.58536 1.77653,-30.16516 1.14137,-7.46487 3.54678,-14.45512 5.41178,-21.8315 3.69974,-14.63306 11.45374,-27.46196 15.52402,-41.73629 3.84558,-13.48632 7.6176,-27.23213 8.33571,-41.23762 0.27834,-5.4286 0.34014,-14.09173 -0.48472,-21.13173 -1.06793,-9.1144 -3.13909,-16.11188 -3.13909,-16.11188 l -5.24487,0.80428 -4.07328,1.91337 c 0,0 3.58451,4.40121 4.66308,6.98441 z" />
      <path
         style="color:#000000;fill:#ffffff;fill-opacity:1;fill-rule:nonzero;stroke:#4d4d4d;stroke-width:0.92824537;stroke-linecap:butt;stroke-linejoin:miter;stroke-miterlimit:4;stroke-opacity:1;stroke-dasharray:none;stroke-dashoffset:0;marker:none;visibility:visible;display:inline;overflow:visible;enable-background:accumulate"
         d="m 351.26858,743.27988 c -0.48072,0.75066 -0.48534,1.72511 -0.57188,2.6123 -0.19391,1.98816 0.39196,4.01163 0.12619,5.99148 -0.12839,0.95647 -0.82215,2.77598 -0.82215,2.77598 0,0 -6.03208,-6.76795 -6.04128,-10.14046 -0.009,-3.37251 2.66529,-6.38475 5.10186,-8.70182 2.21459,-2.10596 5.62291,-2.48919 8.13208,-4.23376 2.11475,-1.47032 3.99139,-3.2833 5.73165,-5.18212 1.65789,-1.80894 3.56065,-5.12264 4.44323,-5.86903 0.88256,-0.74639 1.72259,-1.15639 3.16902,-1.2677 1.44641,-0.11133 6.37598,2.91466 7.25876,5.90657 0.95425,3.23415 -0.90551,7.08194 -3.12371,9.6216 -1.92406,2.20292 -5.15534,2.81171 -7.90544,3.80759 -3.87642,1.40373 -8.0486,1.82212 -11.99586,3.0122 -0.82411,0.24846 -1.18387,0.56762 -2.43474,0.86026 0,0 -0.82715,0.4312 -1.06773,0.80691 z"
         id="path49923-7-2"
         inkscape:connector-curvature="0"
         sodipodi:nodetypes="aaaczaaacsaaaasa" />
    </g>
  </g>
</svg>
