<?xml version="1.0" encoding="UTF-8" standalone="no"?>
<!DOCTYPE svg PUBLIC "-//W3C//DTD SVG 1.1//EN" "http://www.w3.org/Graphics/SVG/1.1/DTD/svg11.dtd">
<svg width="100%" height="100%" viewBox="0 0 24 24" version="1.1" xmlns="http://www.w3.org/2000/svg" xmlns:xlink="http://www.w3.org/1999/xlink" xml:space="preserve" xmlns:serif="http://www.serif.com/" style="fill-rule:evenodd;clip-rule:evenodd;stroke-linecap:round;stroke-linejoin:round;stroke-miterlimit:2.61313;">
    <g>
        <clipPath id="_clip1">
            <rect x="0" y="0" width="24" height="24"/>
        </clipPath>
        <g clip-path="url(#_clip1)">
            <path d="M8,13L12,18L10,18L9,17L8,18L7,17L6,18L4,18L8,13Z" style="fill:rgb(220,225,230);fill-rule:nonzero;"/>
            <path d="M1,20L8,13L15,20" style="fill:none;fill-rule:nonzero;stroke:rgb(165,175,190);stroke-width:2px;"/>
            <path d="M23,20L19,16L12,23" style="fill:none;fill-rule:nonzero;stroke:rgb(165,175,190);stroke-width:2px;"/>
            <path d="M8.508,5C7.729,5 7.132,5.482 6.762,6.109C5.99,5.876 5.296,6.344 5.113,7.16C4.499,7.348 4,7.828 4,8.5C4,9.323 4.677,10 5.5,10L10.5,10C11.323,10 12,9.323 12,8.5C12,7.718 11.371,7.105 10.604,7.043C10.55,5.918 9.645,5 8.508,5Z" style="fill:rgb(220,225,230);fill-rule:nonzero;"/>
            <path d="M17.212,5.339C17.114,5.183 16.886,5.183 16.788,5.339L16.282,6.149C16.274,6.162 16.261,6.172 16.245,6.177C16.23,6.182 16.213,6.181 16.198,6.173L15.353,5.724C15.19,5.637 14.993,5.751 14.986,5.936L14.953,6.87C14.952,6.892 14.943,6.913 14.928,6.928C14.913,6.943 14.892,6.952 14.87,6.953L13.936,6.986C13.751,6.992 13.637,7.19 13.724,7.353L14.173,8.199C14.181,8.213 14.182,8.229 14.177,8.245C14.172,8.26 14.162,8.274 14.149,8.282L13.339,8.788C13.183,8.886 13.183,9.114 13.339,9.212L14.149,9.718C14.163,9.726 14.172,9.74 14.177,9.755C14.182,9.77 14.181,9.787 14.173,9.802L13.724,10.647C13.637,10.81 13.751,11.008 13.936,11.014L14.87,11.047C14.892,11.048 14.913,11.057 14.928,11.072C14.943,11.087 14.952,11.108 14.953,11.13L14.986,12.064C14.993,12.249 15.19,12.363 15.353,12.276L16.198,11.827C16.213,11.819 16.23,11.818 16.245,11.823C16.261,11.828 16.274,11.838 16.282,11.851L16.788,12.661C16.886,12.817 17.114,12.817 17.212,12.661L17.717,11.852C17.726,11.838 17.74,11.828 17.756,11.822C17.77,11.817 17.787,11.819 17.801,11.827L18.647,12.276C18.81,12.363 19.008,12.249 19.014,12.064L19.047,11.13C19.048,11.108 19.057,11.087 19.072,11.072C19.087,11.057 19.108,11.048 19.13,11.047L20.064,11.014C20.249,11.008 20.363,10.81 20.276,10.647L19.827,9.801C19.819,9.787 19.818,9.771 19.823,9.755C19.828,9.74 19.838,9.726 19.851,9.718L20.661,9.212C20.817,9.114 20.817,8.886 20.661,8.788L19.851,8.282C19.838,8.274 19.828,8.26 19.823,8.245C19.818,8.229 19.819,8.213 19.827,8.199L20.276,7.353C20.363,7.19 20.249,6.992 20.064,6.986L19.13,6.953C19.108,6.952 19.087,6.943 19.072,6.928C19.057,6.913 19.048,6.892 19.047,6.87L19.014,5.936C19.008,5.751 18.81,5.637 18.647,5.724L17.802,6.173C17.787,6.181 17.77,6.182 17.755,6.177C17.74,6.172 17.726,6.162 17.718,6.149L17.212,5.339Z" style="fill:rgb(165,175,190);fill-rule:nonzero;"/>
            <circle cx="17" cy="9" r="2" style="fill:white;"/>
            <rect x="1" y="1" width="22" height="22" style="fill:none;stroke:rgb(165,175,190);stroke-width:2px;stroke-linejoin:miter;"/>
        </g>
    </g>
</svg>
