<?xml version="1.0" encoding="UTF-8" standalone="no"?>
<!DOCTYPE svg PUBLIC "-//W3C//DTD SVG 1.1//EN" "http://www.w3.org/Graphics/SVG/1.1/DTD/svg11.dtd">
<svg width="100%" height="100%" viewBox="0 0 800 800" version="1.1" xmlns="http://www.w3.org/2000/svg" xmlns:xlink="http://www.w3.org/1999/xlink" xml:space="preserve" xmlns:serif="http://www.serif.com/" style="fill-rule:evenodd;clip-rule:evenodd;stroke-linejoin:round;stroke-miterlimit:2;">
    <g>
        <g>
            <g>
                <path d="M450.432,601.093C450.432,630.462 430.743,652.387 400.316,652.387L399.259,652.387C369.89,652.387 349.63,630.462 349.63,601.093C349.63,570.708 370.497,549.84 400.316,549.84C430.135,549.84 449.904,570.624 450.432,601.093ZM368.22,521.691L432.534,521.691L444.82,266.477L355.813,266.477L368.22,521.691ZM792.614,737.081C783.3,752.336 766.742,761.733 748.926,761.733L51.136,761.733C32.708,761.733 15.705,751.807 6.595,735.782C-2.394,719.757 -2.19,700.188 7.207,684.367L357.403,63.09C366.596,47.593 383.234,38.275 401.212,38.275L402.594,38.275C421.101,38.721 437.738,49.175 446.365,65.529L794.08,686.844C802.377,702.666 802.011,721.664 792.614,737.081ZM748.926,710.435L401.17,89.324L51.178,710.435L748.926,710.435Z" style="fill:#eed202;fill-rule:nonzero;"/>
                <path d="M748.926,710.435L51.178,710.435L401.17,89.324L748.926,710.435ZM450.432,601.093C449.904,570.624 430.135,549.84 400.316,549.84C370.497,549.84 349.63,570.708 349.63,601.093C349.63,630.462 369.89,652.387 399.259,652.387L400.316,652.387C430.743,652.387 450.432,630.462 450.432,601.093ZM368.22,521.691L432.534,521.691L444.82,266.477L355.813,266.477L368.22,521.691Z" style="fill:#eed202;"/>
                <path d="M450.432,601.093C450.432,630.462 430.743,652.387 400.316,652.387L399.259,652.387C369.89,652.387 349.63,630.462 349.63,601.093C349.63,570.708 370.497,549.84 400.316,549.84C430.135,549.84 449.904,570.624 450.432,601.093ZM368.22,521.691L432.534,521.691L444.82,266.477L355.813,266.477L368.22,521.691ZM792.614,737.081C783.3,752.336 766.742,761.733 748.926,761.733L51.136,761.733C32.708,761.733 15.705,751.807 6.595,735.782C-2.394,719.757 -2.19,700.188 7.207,684.367L357.403,63.09C366.596,47.593 383.234,38.275 401.212,38.275L402.594,38.275C421.101,38.721 437.738,49.175 446.365,65.529L794.08,686.844C802.377,702.666 802.011,721.664 792.614,737.081ZM748.926,710.435L401.17,89.324L51.178,710.435L748.926,710.435Z" style="fill:#eed202;fill-rule:nonzero;"/>
                <clipPath id="_clip1">
                    <path d="M450.432,601.093C450.432,630.462 430.743,652.387 400.316,652.387L399.259,652.387C369.89,652.387 349.63,630.462 349.63,601.093C349.63,570.708 370.497,549.84 400.316,549.84C430.135,549.84 449.904,570.624 450.432,601.093ZM368.22,521.691L432.534,521.691L444.82,266.477L355.813,266.477L368.22,521.691ZM792.614,737.081C783.3,752.336 766.742,761.733 748.926,761.733L51.136,761.733C32.708,761.733 15.705,751.807 6.595,735.782C-2.394,719.757 -2.19,700.188 7.207,684.367L357.403,63.09C366.596,47.593 383.234,38.275 401.212,38.275L402.594,38.275C421.101,38.721 437.738,49.175 446.365,65.529L794.08,686.844C802.377,702.666 802.011,721.664 792.614,737.081ZM748.926,710.435L401.17,89.324L51.178,710.435L748.926,710.435Z" clip-rule="nonzero"/>
                </clipPath>
                <g clip-path="url(#_clip1)">
                    <path d="M368.22,521.691L355.813,266.477L444.82,266.477L432.534,521.691L368.22,521.691Z"/>
                    <path d="M450.432,601.093C450.432,630.462 430.743,652.387 400.316,652.387L399.259,652.387C369.89,652.387 349.63,630.462 349.63,601.093C349.63,570.708 370.497,549.84 400.316,549.84C430.135,549.84 449.904,570.624 450.432,601.093Z"/>
                </g>
            </g>
        </g>
    </g>
</svg>
